<?xml version="1.0" encoding="UTF-8"?>
<svg width="193px" height="193px" viewBox="0 0 193 193" version="1.1" xmlns="http://www.w3.org/2000/svg" xmlns:xlink="http://www.w3.org/1999/xlink">
    <!-- Generator: Sketch 48.1 (47250) - http://www.bohemiancoding.com/sketch -->
    <title>4</title>
    <desc>Created with Sketch.</desc>
    <defs>
        <linearGradient x1="-3.36710758%" y1="43.5228286%" x2="103.367687%" y2="56.3814341%" id="linearGradient-1">
            <stop stop-color="#FFFFFF" stop-opacity="0" offset="0%"></stop>
            <stop stop-color="#0870E5" offset="50.81%"></stop>
            <stop stop-color="#FFFFFF" stop-opacity="0" offset="100%"></stop>
        </linearGradient>
        <linearGradient x1="43.5685072%" y1="103.345532%" x2="56.4271127%" y2="-3.33375869%" id="linearGradient-2">
            <stop stop-color="#FFFFFF" stop-opacity="0" offset="0%"></stop>
            <stop stop-color="#0870E5" offset="50.81%"></stop>
            <stop stop-color="#FFFFFF" stop-opacity="0" offset="100%"></stop>
        </linearGradient>
        <linearGradient x1="9.66220159%" y1="86.7369581%" x2="90.3141173%" y2="13.2748844%" id="linearGradient-3">
            <stop stop-color="#FFFFFF" stop-opacity="0" offset="0%"></stop>
            <stop stop-color="#0870E5" offset="50.81%"></stop>
            <stop stop-color="#FFFFFF" stop-opacity="0" offset="100%"></stop>
        </linearGradient>
        <linearGradient x1="86.7495172%" y1="90.3077024%" x2="13.2483738%" y2="9.69857924%" id="linearGradient-4">
            <stop stop-color="#FFFFFF" stop-opacity="0" offset="0%"></stop>
            <stop stop-color="#0870E5" offset="50.81%"></stop>
            <stop stop-color="#FFFFFF" stop-opacity="0" offset="100%"></stop>
        </linearGradient>
    </defs>
    <g id="8.-How-It-Works" stroke="none" stroke-width="1" fill="none" fill-rule="evenodd" transform="translate(-225.000000, -1887.000000)">
        <g id="Group-25" transform="translate(163.000000, 1465.000000)" fill-rule="nonzero">
            <g id="Group-24" transform="translate(0.000000, 422.000000)">
                <g id="4" transform="translate(62.000000, 0.000000)">
                    <path d="M96.9,173.2 C96.9,172.6 97.4,172.1 98,172.1 C98.6,172.1 99.1,172.6 99.1,173.2 C99.1,173.8 98.6,174.3 98,174.3 C98,174.3 98,174.3 98,174.3 C97.4,174.2 96.9,173.8 96.9,173.2 Z M90.5,174.1 C89.9,174.1 89.4,173.5 89.5,172.9 C89.5,172.3 90.1,171.8 90.7,171.9 C91.3,171.9 91.8,172.5 91.7,173.1 C91.6,173.6 91.2,174.1 90.5,174.1 C90.5,174.1 90.5,174.1 90.5,174.1 Z M104.3,172.7 C104.2,172.1 104.7,171.5 105.3,171.5 C105.9,171.4 106.5,171.9 106.5,172.5 C106.6,173.1 106.1,173.7 105.5,173.7 C105.5,173.7 105.4,173.7 105.4,173.7 C104.9,173.7 104.4,173.3 104.3,172.7 Z M83,173.2 C82.4,173.1 82,172.5 82.1,171.9 C82.2,171.3 82.8,170.9 83.4,171 C84,171.1 84.4,171.7 84.3,172.3 C84.2,172.8 83.7,173.2 83.2,173.2 C83.1,173.2 83.1,173.2 83,173.2 Z M111.7,171.6 C111.6,171 112,170.4 112.6,170.3 C113.2,170.2 113.8,170.5 113.9,171.1 C114,171.7 113.7,172.3 113.1,172.4 C113,172.4 112.9,172.4 112.9,172.4 C112.3,172.5 111.8,172.1 111.7,171.6 Z M75.6,171.6 C75,171.4 74.7,170.8 74.8,170.2 C75,169.6 75.6,169.3 76.2,169.4 C76.8,169.6 77.1,170.2 77,170.8 C76.9,171.3 76.4,171.6 75.9,171.6 C75.8,171.6 75.7,171.6 75.6,171.6 Z M118.9,169.7 C118.7,169.1 119,168.5 119.6,168.3 C120.2,168.1 120.8,168.4 121,169 C121.2,169.6 120.9,170.2 120.3,170.4 C120.2,170.4 120.1,170.5 120,170.5 C119.5,170.5 119,170.2 118.9,169.7 Z M68.4,169.2 C67.8,169 67.5,168.3 67.8,167.8 C68,167.2 68.7,166.9 69.2,167.1 C69.8,167.3 70.1,168 69.8,168.5 C69.6,168.9 69.2,169.2 68.8,169.2 C68.7,169.3 68.6,169.3 68.4,169.2 Z M125.9,167.2 C125.7,166.6 125.9,166 126.5,165.7 C127.1,165.5 127.7,165.7 128,166.3 C128.2,166.9 128,167.5 127.4,167.8 C127.3,167.9 127.1,167.9 127,167.9 C126.5,167.9 126.1,167.6 125.9,167.2 Z M61.5,166.2 C60.9,165.9 60.7,165.3 61,164.7 C61.3,164.1 61.9,163.9 62.5,164.2 C63,164.5 63.3,165.1 63,165.7 C62.8,166.1 62.4,166.3 62,166.3 C61.8,166.3 61.7,166.3 61.5,166.2 Z M132.6,164 C132.3,163.5 132.5,162.8 133,162.5 C133.5,162.2 134.2,162.4 134.5,162.9 C134.8,163.4 134.6,164.1 134.1,164.4 C133.9,164.5 133.7,164.5 133.6,164.5 C133.2,164.6 132.8,164.4 132.6,164 Z M54.9,162.6 C54.9,162.6 54.9,162.6 54.9,162.6 C54.4,162.3 54.2,161.6 54.5,161.1 C54.8,160.6 55.5,160.4 56,160.7 C56.5,161 56.7,161.7 56.4,162.2 C56.2,162.5 55.8,162.7 55.4,162.7 C55.3,162.7 55.1,162.7 54.9,162.6 Z M139,160.1 C138.6,159.6 138.8,158.9 139.3,158.6 C139.8,158.3 140.5,158.4 140.8,158.9 C141.1,159.4 141,160.1 140.5,160.5 C140.3,160.6 140.1,160.7 139.9,160.7 C139.5,160.6 139.2,160.5 139,160.1 Z M48.7,158.3 C48.2,157.9 48.1,157.2 48.5,156.7 C48.9,156.2 49.6,156.1 50.1,156.5 C50.6,156.9 50.7,157.6 50.3,158.1 C50.1,158.4 49.7,158.5 49.4,158.5 C49.1,158.5 48.9,158.4 48.7,158.3 Z M145,155.7 C144.6,155.2 144.7,154.5 145.1,154.1 C145.6,153.7 146.3,153.8 146.7,154.2 C147.1,154.7 147,155.4 146.6,155.8 C146.4,156 146.1,156.1 145.9,156.1 C145.5,156.1 145.2,156 145,155.7 Z M42.9,153.4 C42.9,153.4 42.9,153.4 42.9,153.4 C42.5,153 42.4,152.3 42.8,151.8 C43.2,151.3 43.9,151.3 44.4,151.7 C44.8,152.1 44.9,152.8 44.5,153.3 C44.3,153.5 44,153.7 43.7,153.7 C43.4,153.7 43.1,153.6 42.9,153.4 Z M150.5,150.7 C150.1,150.3 150.1,149.6 150.5,149.1 C150.9,148.7 151.6,148.7 152.1,149.1 C152.5,149.5 152.5,150.2 152.1,150.7 C151.9,150.9 151.6,151 151.3,151 C151,151 150.7,150.9 150.5,150.7 Z M37.6,148 C37.2,147.5 37.2,146.8 37.7,146.4 C38.2,146 38.9,146 39.3,146.5 C39.7,147 39.7,147.7 39.2,148.1 C39,148.3 38.7,148.4 38.5,148.4 C38.2,148.4 37.9,148.2 37.6,148 Z M155.5,145.2 C155,144.8 154.9,144.1 155.3,143.6 C155.7,143.1 156.4,143 156.9,143.4 C157.4,143.8 157.5,144.5 157.1,145 C156.9,145.3 156.6,145.4 156.2,145.4 C155.9,145.5 155.7,145.4 155.5,145.2 Z M32.9,142.1 C32.5,141.6 32.6,140.9 33.1,140.5 C33.6,140.1 34.3,140.2 34.7,140.7 C35.1,141.2 35,141.9 34.5,142.3 C34.3,142.4 34.1,142.5 33.8,142.5 C33.5,142.6 33.1,142.4 32.9,142.1 Z M160,139.3 C159.5,139 159.3,138.3 159.7,137.8 C160,137.3 160.7,137.1 161.2,137.5 C161.7,137.8 161.9,138.5 161.5,139 C161.3,139.3 160.9,139.5 160.6,139.5 C160.4,139.4 160.1,139.4 160,139.3 Z M28.8,135.8 C28.5,135.3 28.7,134.6 29.2,134.3 C29.7,134 30.4,134.2 30.7,134.7 C31,135.2 30.8,135.9 30.3,136.2 C30.1,136.3 29.9,136.4 29.7,136.4 C29.3,136.4 29,136.2 28.8,135.8 Z M163.8,132.9 C163.3,132.6 163,131.9 163.3,131.4 C163.6,130.9 164.3,130.6 164.8,130.9 C165.3,131.2 165.6,131.9 165.3,132.4 C165.3,132.4 165.3,132.4 165.3,132.4 C165.1,132.8 164.7,133 164.3,133 C164.2,133 164,133 163.8,132.9 Z M25.2,129.1 C24.9,128.5 25.2,127.9 25.7,127.6 C26.3,127.3 26.9,127.6 27.2,128.1 C27.5,128.7 27.2,129.3 26.7,129.6 C26.6,129.7 26.4,129.7 26.2,129.7 C25.8,129.8 25.4,129.5 25.2,129.1 Z M167.1,126.2 C166.5,126 166.3,125.3 166.5,124.7 C166.7,124.1 167.4,123.9 168,124.1 C168.6,124.3 168.8,125 168.6,125.6 C168.4,126 168,126.3 167.6,126.3 C167.3,126.3 167.2,126.3 167.1,126.2 Z M22.4,122.1 C22.2,121.5 22.5,120.9 23.1,120.7 C23.7,120.5 24.3,120.8 24.5,121.4 C24.7,122 24.4,122.6 23.8,122.8 C23.7,122.8 23.6,122.9 23.4,122.9 C23,122.9 22.5,122.6 22.4,122.1 Z M169.6,119.2 C169,119 168.7,118.4 168.8,117.8 C169,117.2 169.6,116.9 170.2,117 C170.8,117.2 171.1,117.8 171,118.4 C170.9,118.9 170.4,119.2 169.9,119.2 C169.8,119.3 169.7,119.2 169.6,119.2 Z M20.2,114.9 C20.1,114.3 20.4,113.7 21,113.6 C21.6,113.5 22.2,113.8 22.3,114.4 C22.4,115 22.1,115.6 21.5,115.7 C21.4,115.7 21.3,115.7 21.2,115.7 C20.8,115.7 20.3,115.4 20.2,114.9 Z M171.5,112 C170.9,111.9 170.5,111.3 170.6,110.7 C170.7,110.1 171.3,109.7 171.9,109.8 C172.5,109.9 172.9,110.5 172.8,111.1 C172.7,111.6 172.2,112 171.7,112 C171.7,112 171.6,112 171.5,112 Z M18.8,107.5 C18.8,107.5 18.8,107.5 18.8,107.5 C18.7,106.9 19.1,106.3 19.7,106.2 C20.3,106.1 20.9,106.5 21,107.1 C21.1,107.7 20.7,108.3 20.1,108.4 C20,108.4 20,108.4 19.9,108.4 C19.3,108.4 18.8,108 18.8,107.5 Z M172.7,104.7 C172.1,104.6 171.6,104.1 171.7,103.5 C171.8,102.9 172.3,102.4 172.9,102.5 C173.5,102.6 174,103.1 173.9,103.7 C173.8,104.3 173.4,104.7 172.8,104.7 C172.8,104.7 172.7,104.7 172.7,104.7 Z M18,100 C18,99.4 18.4,98.9 19.1,98.8 C19.7,98.8 20.2,99.2 20.3,99.9 C20.3,100.5 19.9,101 19.2,101.1 C19.2,101.1 19.2,101.1 19.1,101.1 C18.6,101 18.1,100.6 18,100 Z M172,96.1 C172,96.1 172,96.1 172,96.1 C172,96 172,96 172,95.9 C172,95.3 172.5,94.8 173.1,94.8 C173.7,94.8 174.2,95.3 174.2,95.9 C174.2,95.9 174.2,96 174.2,96 C174.2,96 174.2,96.1 174.2,96.1 C174.2,96.7 173.7,97.2 173.1,97.2 C172.5,97.2 172,96.7 172,96.1 Z M19.1,93.6 C18.5,93.6 18,93 18,92.4 C18,91.8 18.6,91.3 19.2,91.3 C19.8,91.3 20.3,91.9 20.3,92.5 C20.2,93.1 19.7,93.6 19.1,93.6 C19.1,93.6 19.1,93.6 19.1,93.6 Z M171.7,88.6 C171.6,88 172.1,87.4 172.7,87.4 C173.3,87.3 173.9,87.8 173.9,88.4 C173.9,88.4 173.9,88.4 173.9,88.4 C174,89 173.5,89.6 172.9,89.6 C172.9,89.6 172.8,89.6 172.8,89.6 C172.2,89.6 171.7,89.2 171.7,88.6 Z M19.7,86.2 C19.1,86.1 18.7,85.6 18.8,84.9 C18.9,84.3 19.4,83.9 20.1,83.9 C20.7,84 21.1,84.6 21,85.2 C20.9,85.8 20.4,86.2 19.9,86.2 C19.8,86.2 19.7,86.2 19.7,86.2 Z M170.6,81.4 C170.5,80.8 170.9,80.2 171.5,80.1 C172.1,80 172.7,80.4 172.8,81 C172.9,81.6 172.5,82.2 171.9,82.3 C171.8,82.3 171.8,82.3 171.7,82.3 C171.2,82.3 170.7,81.9 170.6,81.4 Z M21,78.8 C20.4,78.7 20,78.1 20.2,77.5 C20.3,76.9 20.9,76.5 21.5,76.7 C22.1,76.8 22.5,77.5 22.3,78 C22.2,78.5 21.7,78.9 21.2,78.9 C21.2,78.9 21.1,78.9 21,78.8 Z M168.8,74.2 C168.6,73.6 169,73 169.6,72.8 C170.2,72.6 170.8,73 171,73.6 C171.2,74.2 170.8,74.8 170.2,75 C170.1,75 170,75 169.9,75 C169.4,75 169,74.7 168.8,74.2 Z M23,71.7 C22.4,71.5 22.1,70.9 22.3,70.3 C22.5,69.7 23.1,69.4 23.7,69.6 C24.3,69.8 24.6,70.4 24.4,71 C24.2,71.5 23.8,71.8 23.4,71.8 C23.3,71.8 23.1,71.7 23,71.7 Z M166.4,67.3 C166.2,66.7 166.4,66.1 167,65.8 C167.6,65.6 168.2,65.8 168.5,66.4 C168.7,67 168.5,67.6 167.9,67.9 C167.8,68 167.6,68 167.5,68 C167,68 166.6,67.8 166.4,67.3 Z M25.7,64.8 C25.1,64.5 24.9,63.9 25.2,63.3 C25.5,62.7 26.1,62.5 26.7,62.8 C27.3,63.1 27.5,63.7 27.2,64.3 C27,64.7 26.6,64.9 26.2,64.9 C26,64.9 25.9,64.8 25.7,64.8 Z M163.3,60.7 C163,60.2 163.2,59.5 163.8,59.2 C164.3,58.9 165,59.1 165.3,59.7 C165.6,60.2 165.4,60.9 164.8,61.2 C164.6,61.3 164.5,61.3 164.3,61.3 C163.9,61.3 163.5,61.1 163.3,60.7 Z M29.1,58.1 C28.6,57.8 28.4,57.1 28.7,56.6 C29,56.1 29.7,55.9 30.2,56.2 C30.7,56.5 30.9,57.2 30.6,57.7 C30.4,58.1 30,58.3 29.6,58.3 C29.4,58.3 29.2,58.2 29.1,58.1 Z M159.5,54.4 C159.2,53.9 159.3,53.2 159.8,52.9 C160.3,52.6 161,52.7 161.3,53.2 C161.6,53.7 161.5,54.4 161,54.7 C160.8,54.8 160.6,54.9 160.4,54.9 C160.1,54.9 159.8,54.7 159.5,54.4 Z M33,51.8 C32.5,51.4 32.4,50.7 32.8,50.2 C33.2,49.7 33.9,49.6 34.4,50 C34.9,50.4 35,51.1 34.7,51.6 C34.5,51.9 34.1,52.1 33.8,52.1 C33.5,52 33.3,52 33,51.8 Z M155.2,48.5 C154.8,48 154.9,47.3 155.4,46.9 C155.9,46.5 156.6,46.6 157,47.1 C157.4,47.6 157.3,48.3 156.8,48.7 C156.6,48.9 156.3,48.9 156.1,48.9 C155.8,48.9 155.4,48.7 155.2,48.5 Z M37.6,45.9 C37.1,45.5 37.1,44.8 37.5,44.3 C37.9,43.8 38.6,43.8 39.1,44.2 C39.6,44.6 39.6,45.3 39.2,45.8 C39,46 38.7,46.2 38.4,46.2 C38.1,46.2 37.8,46.1 37.6,45.9 Z M150.3,43 C149.9,42.6 149.9,41.9 150.3,41.4 C150.7,41 151.5,41 151.9,41.4 C152.3,41.8 152.3,42.5 151.9,43 C151.7,43.2 151.4,43.3 151.1,43.3 C150.8,43.3 150.6,43.2 150.3,43 Z M42.7,40.5 C42.3,40 42.3,39.3 42.8,38.9 C43.3,38.5 44,38.5 44.4,39 C44.8,39.5 44.8,40.2 44.3,40.6 C44.1,40.8 43.8,40.9 43.5,40.9 C43.3,40.9 43,40.8 42.7,40.5 Z M145,38 C144.5,37.6 144.5,36.9 144.9,36.4 C145.3,35.9 146,35.9 146.5,36.3 C147,36.7 147,37.4 146.6,37.9 C146.4,38.2 146.1,38.3 145.7,38.3 C145.4,38.3 145.2,38.2 145,38 Z M48.4,35.6 C48,35.1 48.1,34.4 48.6,34 C49.1,33.6 49.8,33.7 50.2,34.2 C50.6,34.7 50.5,35.4 50,35.8 C49.8,36 49.6,36 49.3,36 C48.9,36.1 48.6,35.9 48.4,35.6 Z M139.1,33.5 C138.6,33.2 138.5,32.5 138.8,32 C139.1,31.5 139.8,31.4 140.4,31.7 C140.9,32 141,32.7 140.7,33.3 C140.5,33.6 140.1,33.8 139.8,33.8 C139.5,33.7 139.3,33.7 139.1,33.5 Z M54.4,31.3 C54.1,30.8 54.2,30.1 54.8,29.8 C54.8,29.8 54.8,29.8 54.8,29.8 C55.3,29.5 56,29.6 56.3,30.1 C56.6,30.6 56.5,31.3 55.9,31.6 C55.7,31.7 55.5,31.8 55.3,31.8 C55,31.8 54.6,31.7 54.4,31.3 Z M132.9,29.7 C132.4,29.4 132.2,28.7 132.5,28.2 C132.8,27.7 133.5,27.5 134,27.8 C134.5,28.1 134.7,28.8 134.4,29.3 C134.2,29.7 133.8,29.9 133.4,29.9 C133.2,29.8 133.1,29.8 132.9,29.7 Z M60.9,27.6 C60.6,27 60.8,26.4 61.4,26.1 C61.9,25.8 62.6,26 62.9,26.6 C63.2,27.2 63,27.8 62.4,28.1 C62.2,28.2 62.1,28.2 61.9,28.2 C61.4,28.2 61,28 60.9,27.6 Z M126.3,26.4 C125.7,26.2 125.5,25.5 125.7,24.9 C125.9,24.3 126.6,24.1 127.2,24.3 C127.8,24.5 128,25.2 127.8,25.8 C127.6,26.2 127.2,26.5 126.8,26.5 C126.6,26.5 126.5,26.5 126.3,26.4 Z M67.6,24.5 C67.4,23.9 67.7,23.3 68.2,23.1 C68.8,22.9 69.4,23.2 69.6,23.7 C69.8,24.3 69.5,24.9 69,25.1 C68.9,25.2 68.7,25.2 68.6,25.2 C68.2,25.2 67.8,24.9 67.6,24.5 Z M119.4,23.8 C118.8,23.6 118.5,23 118.7,22.4 C118.9,21.8 119.5,21.5 120.1,21.7 C120.7,21.9 121,22.5 120.8,23.1 C120.6,23.6 120.2,23.9 119.7,23.9 C119.7,23.9 119.6,23.9 119.4,23.8 Z M74.7,22.1 C74.5,21.5 74.9,20.9 75.5,20.7 C76.1,20.5 76.7,20.9 76.9,21.5 C77.1,22.1 76.7,22.7 76.1,22.9 C76,22.9 75.9,22.9 75.8,22.9 C75.3,22.9 74.8,22.6 74.7,22.1 Z M112.4,21.9 C111.8,21.8 111.4,21.2 111.5,20.6 C111.6,20 112.2,19.6 112.8,19.7 C113.4,19.8 113.8,20.4 113.7,21 C113.6,21.5 113.1,21.9 112.6,21.9 C112.5,22 112.4,22 112.4,21.9 Z M81.9,20.4 C81.8,19.8 82.2,19.2 82.8,19.1 C83.4,19 84,19.4 84.1,20 C84.2,20.6 83.8,21.2 83.2,21.3 C83.1,21.3 83.1,21.3 83,21.3 C82.5,21.3 82,20.9 81.9,20.4 Z M105.1,20.7 C104.5,20.6 104.1,20.1 104.1,19.5 C104.2,18.9 104.7,18.5 105.3,18.5 C105.9,18.6 106.3,19.1 106.3,19.7 C106.2,20.3 105.8,20.7 105.2,20.7 C105.2,20.7 105.2,20.7 105.1,20.7 Z M89.3,19.4 C89.3,18.8 89.7,18.2 90.3,18.2 C90.9,18.2 91.5,18.6 91.5,19.2 C91.5,19.8 91.1,20.3 90.5,20.4 C90.5,20.4 90.4,20.4 90.4,20.4 C89.8,20.4 89.3,20 89.3,19.4 Z M97.8,20.2 C97.2,20.2 96.7,19.7 96.7,19.1 C96.7,18.5 97.2,18 97.8,18 C98.4,18 98.9,18.5 98.9,19.1 C98.9,19.7 98.4,20.2 97.8,20.2 C97.8,20.2 97.8,20.2 97.8,20.2 Z" id="Shape" fill="#D8EDFE"></path>
                    <circle id="Oval" fill="#D7FFFF" cx="95.5" cy="95.5" r="57.5"></circle>
                    <path d="M96.3128056,153.2 C96.3128056,152.6 96.8128056,152.1 97.4128056,152 C98.0128056,152 98.5128056,152.5 98.6128056,153.1 C98.6128056,153.7 98.1128056,154.2 97.5128056,154.3 C97.5128056,154.3 97.5128056,154.3 97.5128056,154.3 C96.8128056,154.3 96.3128056,153.8 96.3128056,153.2 Z M89.9128056,154.1 C89.3128056,154 88.8128056,153.5 88.9128056,152.9 C89.0128056,152.3 89.5128056,151.8 90.1128056,151.9 C90.7128056,152 91.2128056,152.5 91.1128056,153.1 C91.0128056,153.7 90.6128056,154.1 90.0128056,154.1 C90.0128056,154.1 89.9128056,154.1 89.9128056,154.1 Z M103.612806,152.7 C103.512806,152.1 103.912806,151.5 104.512806,151.4 C105.112806,151.3 105.712806,151.7 105.812806,152.3 C105.912806,152.9 105.512806,153.5 104.912806,153.6 C104.812806,153.6 104.812806,153.6 104.712806,153.6 C104.212806,153.6 103.712806,153.2 103.612806,152.7 Z M82.5128056,152.9 C81.9128056,152.8 81.5128056,152.2 81.7128056,151.6 C81.8128056,151 82.4128056,150.6 83.0128056,150.8 C83.6128056,150.9 84.0128056,151.5 83.8128056,152.1 C83.7128056,152.6 83.2128056,153 82.7128056,153 C82.7128056,152.9 82.6128056,152.9 82.5128056,152.9 Z M110.812806,151.2 C110.612806,150.6 111.012806,150 111.612806,149.8 C112.212806,149.6 112.812806,150 113.012806,150.6 C113.212806,151.2 112.812806,151.8 112.212806,152 C112.112806,152 112.012806,152 111.912806,152 C111.412806,152 111.012806,151.7 110.812806,151.2 Z M75.3128056,150.8 C74.7128056,150.6 74.4128056,150 74.6128056,149.4 C74.8128056,148.8 75.5128056,148.5 76.0128056,148.7 C76.6128056,148.9 76.9128056,149.6 76.7128056,150.1 C76.5128056,150.6 76.1128056,150.8 75.7128056,150.8 C75.5128056,150.8 75.4128056,150.8 75.3128056,150.8 Z M117.812806,148.8 C117.512806,148.2 117.812806,147.6 118.412806,147.3 C119.012806,147 119.612806,147.3 119.912806,147.9 C120.212806,148.5 119.912806,149.1 119.312806,149.4 C119.212806,149.5 119.012806,149.5 118.812806,149.5 C118.412806,149.4 118.012806,149.2 117.812806,148.8 Z M68.4128056,147.7 C67.8128056,147.4 67.6128056,146.7 67.9128056,146.2 C68.2128056,145.7 68.9128056,145.4 69.4128056,145.7 C69.9128056,146 70.2128056,146.7 69.9128056,147.2 C69.7128056,147.6 69.3128056,147.8 68.9128056,147.8 C68.7128056,147.9 68.6128056,147.8 68.4128056,147.7 Z M124.412806,145.5 C124.112806,145 124.212806,144.3 124.812806,144 C125.312806,143.7 126.012806,143.8 126.312806,144.4 C126.612806,144.9 126.512806,145.6 125.912806,145.9 C125.712806,146 125.512806,146.1 125.312806,146.1 C125.012806,146 124.612806,145.8 124.412806,145.5 Z M62.0128056,143.8 C61.5128056,143.4 61.4128056,142.8 61.7128056,142.2 C62.1128056,141.7 62.7128056,141.6 63.3128056,141.9 C63.8128056,142.2 63.9128056,142.9 63.6128056,143.5 C63.4128056,143.8 63.0128056,144 62.7128056,144 C62.4128056,144 62.2128056,144 62.0128056,143.8 Z M130.512806,141.4 C130.112806,140.9 130.212806,140.2 130.712806,139.8 C131.212806,139.4 131.912806,139.5 132.312806,140 C132.712806,140.5 132.612806,141.2 132.112806,141.6 C131.912806,141.8 131.712806,141.8 131.412806,141.8 C131.112806,141.8 130.712806,141.7 130.512806,141.4 Z M56.1128056,139.1 C55.6128056,138.7 55.6128056,138 56.0128056,137.5 C56.4128056,137 57.1128056,137 57.6128056,137.4 C58.1128056,137.8 58.1128056,138.5 57.7128056,139 C57.5128056,139.2 57.2128056,139.4 56.9128056,139.4 C56.6128056,139.4 56.3128056,139.3 56.1128056,139.1 Z M136.012806,136.5 C135.612806,136.1 135.512806,135.4 136.012806,134.9 C136.412806,134.5 137.112806,134.4 137.612806,134.9 C138.012806,135.3 138.112806,136 137.612806,136.5 C137.412806,136.7 137.112806,136.8 136.812806,136.8 C136.512806,136.8 136.312806,136.7 136.012806,136.5 Z M50.9128056,133.8 C50.5128056,133.3 50.6128056,132.6 51.0128056,132.2 C51.5128056,131.8 52.2128056,131.9 52.6128056,132.3 C53.0128056,132.8 52.9128056,133.5 52.5128056,133.9 C52.3128056,134.1 52.0128056,134.2 51.8128056,134.2 C51.4128056,134.1 51.1128056,134 50.9128056,133.8 Z M140.912806,131 C140.412806,130.6 140.312806,129.9 140.712806,129.4 C141.112806,128.9 141.812806,128.8 142.312806,129.2 C142.812806,129.6 142.912806,130.3 142.512806,130.8 C142.312806,131.1 141.912806,131.2 141.612806,131.2 C141.412806,131.2 141.112806,131.2 140.912806,131 Z M46.4128056,127.7 C46.1128056,127.2 46.2128056,126.5 46.7128056,126.2 C47.2128056,125.9 47.9128056,126 48.2128056,126.5 C48.5128056,127 48.4128056,127.7 47.9128056,128 C47.7128056,128.1 47.5128056,128.2 47.3128056,128.2 C47.0128056,128.2 46.6128056,128.1 46.4128056,127.7 Z M145.112806,124.9 C144.612806,124.6 144.412806,123.9 144.712806,123.4 C145.012806,122.9 145.712806,122.7 146.212806,123 C146.712806,123.3 146.912806,124 146.612806,124.5 C146.412806,124.9 146.012806,125.1 145.612806,125.1 C145.412806,125.1 145.312806,125 145.112806,124.9 Z M42.7128056,121.2 C42.4128056,120.6 42.7128056,120 43.2128056,119.7 C43.8128056,119.4 44.4128056,119.7 44.7128056,120.2 C45.0128056,120.8 44.7128056,121.4 44.2128056,121.7 C44.0128056,121.8 43.9128056,121.8 43.7128056,121.8 C43.3128056,121.8 42.9128056,121.6 42.7128056,121.2 Z M148.412806,118.3 C147.812806,118.1 147.612806,117.4 147.812806,116.8 C148.012806,116.2 148.712806,116 149.312806,116.2 C149.912806,116.4 150.112806,117.1 149.912806,117.7 C149.712806,118.1 149.312806,118.4 148.912806,118.4 C148.712806,118.4 148.612806,118.4 148.412806,118.3 Z M39.9128056,114.2 C39.7128056,113.6 40.0128056,113 40.6128056,112.8 C41.2128056,112.6 41.8128056,112.9 42.0128056,113.5 C42.2128056,114.1 41.9128056,114.7 41.3128056,114.9 C41.2128056,114.9 41.1128056,115 40.9128056,115 C40.4128056,115 40.0128056,114.7 39.9128056,114.2 Z M150.912806,111.4 C150.312806,111.2 149.912806,110.6 150.112806,110 C150.312806,109.4 150.912806,109 151.512806,109.2 C152.112806,109.4 152.512806,110 152.312806,110.6 C152.212806,111.1 151.712806,111.4 151.212806,111.4 C151.112806,111.4 151.012806,111.4 150.912806,111.4 Z M38.0128056,107 C38.0128056,107 38.0128056,107 38.0128056,107 C37.9128056,106.4 38.3128056,105.8 38.9128056,105.7 C39.5128056,105.6 40.1128056,106 40.2128056,106.6 C40.3128056,107.2 39.9128056,107.8 39.3128056,107.9 C39.2128056,107.9 39.2128056,107.9 39.1128056,107.9 C38.5128056,107.9 38.1128056,107.5 38.0128056,107 Z M152.412806,104.2 C151.812806,104.1 151.412806,103.6 151.412806,103 C151.512806,102.4 152.012806,102 152.712806,102 C153.312806,102.1 153.712806,102.6 153.712806,103.2 C153.612806,103.8 153.112806,104.2 152.612806,104.2 C152.512806,104.2 152.512806,104.2 152.412806,104.2 Z M37.0128056,99.5 C37.0128056,99.5 37.0128056,99.5 37.0128056,99.5 C37.0128056,98.9 37.4128056,98.4 38.0128056,98.3 C38.6128056,98.3 39.1128056,98.7 39.2128056,99.3 C39.2128056,99.9 38.8128056,100.4 38.2128056,100.5 C38.2128056,100.5 38.1128056,100.5 38.1128056,100.5 C37.5128056,100.6 37.0128056,100.1 37.0128056,99.5 Z M151.912806,95.7 C151.912806,95.7 151.912806,95.7 151.912806,95.7 C151.912806,95.6 151.912806,95.6 151.912806,95.6 C151.912806,95 152.412806,94.5 153.012806,94.5 C153.612806,94.5 154.112806,95 154.112806,95.6 C154.112806,95.6 154.112806,95.6 154.112806,95.7 C154.112806,95.7 154.112806,95.7 154.112806,95.8 C154.112806,96.4 153.612806,96.9 153.012806,96.9 C152.412806,96.8 151.912806,96.3 151.912806,95.7 Z M38.0128056,93.2 C37.4128056,93.2 36.9128056,92.6 37.0128056,92 C37.0128056,91.4 37.6128056,90.9 38.2128056,91 C38.8128056,91 39.3128056,91.6 39.2128056,92.2 C39.2128056,92.8 38.7128056,93.2 38.0128056,93.2 C38.1128056,93.2 38.1128056,93.2 38.0128056,93.2 Z M151.412806,88.4 C151.312806,87.8 151.712806,87.2 152.412806,87.1 C153.012806,87 153.612806,87.5 153.612806,88.1 C153.712806,88.7 153.212806,89.3 152.612806,89.3 C152.612806,89.3 152.512806,89.3 152.512806,89.3 C152.012806,89.4 151.512806,88.9 151.412806,88.4 Z M38.8128056,85.9 C38.2128056,85.8 37.8128056,85.2 37.9128056,84.6 C37.9128056,84.6 37.9128056,84.6 37.9128056,84.6 C38.0128056,84 38.6128056,83.6 39.2128056,83.7 C39.8128056,83.8 40.2128056,84.4 40.1128056,85 C40.0128056,85.5 39.5128056,85.9 39.0128056,85.9 C39.0128056,85.9 38.9128056,85.9 38.8128056,85.9 Z M150.012806,81.3 C149.812806,80.7 150.212806,80.1 150.812806,79.9 C151.412806,79.7 152.012806,80.1 152.212806,80.7 C152.412806,81.3 152.012806,81.9 151.412806,82.1 C151.312806,82.1 151.212806,82.1 151.112806,82.1 C150.612806,82.1 150.212806,81.8 150.012806,81.3 Z M40.5128056,78.7 C39.9128056,78.5 39.6128056,77.9 39.8128056,77.3 C40.0128056,76.7 40.6128056,76.4 41.2128056,76.6 C41.8128056,76.8 42.1128056,77.4 41.9128056,78 C41.7128056,78.5 41.3128056,78.8 40.8128056,78.8 C40.8128056,78.8 40.6128056,78.7 40.5128056,78.7 Z M147.812806,74.4 C147.612806,73.8 147.812806,73.2 148.412806,72.9 C149.012806,72.7 149.612806,72.9 149.912806,73.5 C149.912806,73.5 149.912806,73.5 149.912806,73.5 C150.112806,74.1 149.912806,74.7 149.312806,75 C149.212806,75.1 149.012806,75.1 148.912806,75.1 C148.412806,75.1 147.912806,74.9 147.812806,74.4 Z M43.2128056,71.8 C42.6128056,71.5 42.4128056,70.9 42.7128056,70.3 C43.0128056,69.7 43.6128056,69.5 44.2128056,69.8 C44.8128056,70.1 45.0128056,70.7 44.7128056,71.3 C44.5128056,71.7 44.1128056,71.9 43.7128056,71.9 C43.5128056,71.9 43.3128056,71.9 43.2128056,71.8 Z M144.612806,67.9 C144.312806,67.4 144.512806,66.7 145.012806,66.4 C145.512806,66.1 146.212806,66.3 146.512806,66.8 C146.812806,67.3 146.612806,68 146.112806,68.3 C145.912806,68.4 145.712806,68.4 145.512806,68.4 C145.212806,68.5 144.812806,68.3 144.612806,67.9 Z M46.6128056,65.3 C46.1128056,65 45.9128056,64.3 46.3128056,63.8 C46.6128056,63.3 47.3128056,63.1 47.8128056,63.5 C48.3128056,63.8 48.5128056,64.5 48.1128056,65 C47.9128056,65.3 47.5128056,65.5 47.2128056,65.5 C47.0128056,65.5 46.8128056,65.4 46.6128056,65.3 Z M140.612806,61.9 C140.212806,61.4 140.312806,60.7 140.812806,60.3 C141.312806,59.9 142.012806,60 142.412806,60.5 C142.812806,61 142.712806,61.7 142.212806,62.1 C142.012806,62.2 141.812806,62.3 141.512806,62.3 C141.212806,62.3 140.912806,62.2 140.612806,61.9 Z M50.9128056,59.3 C50.4128056,58.9 50.4128056,58.2 50.8128056,57.7 C51.2128056,57.2 51.9128056,57.2 52.4128056,57.6 C52.9128056,58 52.9128056,58.7 52.5128056,59.2 C52.3128056,59.5 52.0128056,59.6 51.7128056,59.6 C51.4128056,59.6 51.2128056,59.5 50.9128056,59.3 Z M136.012806,56.4 C135.612806,56 135.612806,55.3 136.012806,54.8 C136.412806,54.4 137.212806,54.4 137.612806,54.8 C137.612806,54.8 137.612806,54.8 137.612806,54.8 C138.012806,55.2 138.012806,56 137.612806,56.4 C137.412806,56.6 137.112806,56.7 136.812806,56.7 C136.512806,56.7 136.212806,56.6 136.012806,56.4 Z M56.0128056,53.9 C55.6128056,53.4 55.6128056,52.7 56.1128056,52.3 C56.6128056,51.9 57.3128056,51.9 57.7128056,52.4 C58.1128056,52.9 58.1128056,53.6 57.6128056,54 C57.4128056,54.2 57.1128056,54.3 56.8128056,54.3 C56.5128056,54.3 56.2128056,54.2 56.0128056,53.9 Z M130.612806,51.6 C130.112806,51.2 130.012806,50.5 130.412806,50 C130.812806,49.5 131.512806,49.4 132.012806,49.8 C132.512806,50.2 132.612806,50.9 132.212806,51.4 C132.012806,51.7 131.712806,51.8 131.312806,51.8 C131.112806,51.8 130.812806,51.7 130.612806,51.6 Z M61.6128056,49.2 C61.3128056,48.7 61.4128056,48 61.9128056,47.6 C62.4128056,47.2 63.1128056,47.4 63.5128056,47.9 C63.9128056,48.4 63.7128056,49.1 63.2128056,49.5 C63.0128056,49.6 62.8128056,49.7 62.6128056,49.7 C62.2128056,49.7 61.8128056,49.5 61.6128056,49.2 Z M124.712806,47.4 C124.212806,47.1 124.012806,46.4 124.312806,45.9 C124.612806,45.4 125.312806,45.2 125.812806,45.5 C126.312806,45.8 126.512806,46.5 126.212806,47 C126.012806,47.3 125.612806,47.5 125.212806,47.5 C125.012806,47.6 124.812806,47.5 124.712806,47.4 Z M67.8128056,45.3 C67.5128056,44.8 67.7128056,44.1 68.3128056,43.8 C68.8128056,43.5 69.5128056,43.7 69.8128056,44.3 C70.1128056,44.8 69.9128056,45.5 69.3128056,45.8 C69.1128056,45.9 69.0128056,45.9 68.8128056,45.9 C68.4128056,45.9 68.0128056,45.6 67.8128056,45.3 Z M118.312806,44.1 C117.712806,43.9 117.512806,43.2 117.712806,42.6 C118.012806,42 118.612806,41.8 119.212806,42 C119.812806,42.2 120.012806,42.9 119.812806,43.5 C119.612806,43.9 119.212806,44.2 118.812806,44.2 C118.612806,44.2 118.412806,44.2 118.312806,44.1 Z M74.5128056,42.1 C74.3128056,41.5 74.6128056,40.9 75.2128056,40.7 C75.8128056,40.5 76.4128056,40.8 76.6128056,41.4 C76.8128056,42 76.5128056,42.6 75.9128056,42.8 C75.8128056,42.8 75.6128056,42.9 75.5128056,42.9 C75.1128056,42.9 74.7128056,42.6 74.5128056,42.1 Z M111.512806,41.6 C110.912806,41.4 110.612806,40.8 110.712806,40.2 C110.912806,39.6 111.512806,39.3 112.112806,39.4 C112.712806,39.6 113.012806,40.2 112.912806,40.8 C112.812806,41.3 112.312806,41.6 111.812806,41.6 C111.712806,41.6 111.612806,41.6 111.512806,41.6 Z M81.5128056,39.9 C81.4128056,39.3 81.7128056,38.7 82.3128056,38.6 C82.3128056,38.6 82.3128056,38.6 82.3128056,38.6 C82.9128056,38.5 83.5128056,38.8 83.6128056,39.4 C83.7128056,40 83.4128056,40.6 82.8128056,40.7 C82.7128056,40.7 82.6128056,40.7 82.6128056,40.7 C82.1128056,40.8 81.7128056,40.4 81.5128056,39.9 Z M104.412806,40 C103.812806,39.9 103.412806,39.3 103.512806,38.7 C103.612806,38.1 104.212806,37.7 104.812806,37.8 C105.412806,37.9 105.812806,38.5 105.712806,39.1 C105.612806,39.7 105.112806,40 104.612806,40 C104.512806,40 104.512806,40 104.412806,40 Z M88.8128056,38.6 C88.7128056,38 89.2128056,37.4 89.8128056,37.4 C89.8128056,37.4 89.8128056,37.4 89.8128056,37.4 C90.4128056,37.3 91.0128056,37.8 91.0128056,38.4 C91.1128056,39 90.6128056,39.6 90.0128056,39.6 C90.0128056,39.6 89.9128056,39.6 89.9128056,39.6 C89.3128056,39.6 88.8128056,39.2 88.8128056,38.6 Z M97.2128056,39.3 C96.6128056,39.3 96.1128056,38.8 96.1128056,38.1 C96.1128056,37.5 96.6128056,37 97.2128056,37 C97.8128056,37 98.3128056,37.5 98.3128056,38.2 C98.4128056,38.9 97.9128056,39.3 97.2128056,39.3 C97.2128056,39.3 97.2128056,39.3 97.2128056,39.3 Z" id="Shape" fill="#59EAE3"></path>
                    <circle id="Oval" fill="#F3FEFF" cx="95.7" cy="95.7" r="37.7"></circle>
                    <path d="M96.1,135.2 C95.5,135.2 95,134.7 95,134.1 C95,133.5 95.5,133 96.1,133 C96.7,133 97.2,133.5 97.2,134.1 C97.3,134.7 96.8,135.2 96.1,135.2 Z M88.5,134.5 C87.9,134.4 87.5,133.8 87.6,133.2 C87.7,132.6 88.3,132.2 88.9,132.3 C89.5,132.4 89.9,133 89.8,133.6 C89.7,134.1 89.2,134.5 88.7,134.5 C88.7,134.5 88.6,134.5 88.5,134.5 Z M102.5,133.6 C102.4,133 102.8,132.4 103.4,132.3 C104,132.2 104.6,132.6 104.7,133.2 C104.8,133.8 104.4,134.4 103.8,134.5 C103.7,134.5 103.7,134.5 103.6,134.5 C103,134.5 102.6,134.1 102.5,133.6 Z M81.2,132.3 C80.6,132.1 80.4,131.4 80.6,130.8 C80.8,130.2 81.5,130 82.1,130.2 C82.7,130.4 82.9,131.1 82.7,131.7 C82.5,132.1 82.1,132.4 81.7,132.4 C81.5,132.4 81.3,132.3 81.2,132.3 Z M109.6,131.6 C109.4,131 109.6,130.4 110.2,130.1 C110.8,129.9 111.4,130.1 111.7,130.7 C111.9,131.3 111.7,131.9 111.1,132.2 C111,132.3 110.8,132.3 110.7,132.3 C110.2,132.3 109.8,132.1 109.6,131.6 Z M74.4,128.7 C73.9,128.4 73.8,127.7 74.1,127.2 C74.4,126.7 75.1,126.5 75.6,126.9 C76.1,127.2 76.2,127.9 75.9,128.4 C75.7,128.7 75.3,128.9 75,128.9 C74.8,128.9 74.6,128.8 74.4,128.7 Z M116.3,128.3 C116,127.8 116.1,127.1 116.6,126.8 C117.1,126.5 117.8,126.6 118.1,127.1 C118.4,127.6 118.3,128.3 117.8,128.6 C117.6,128.7 117.4,128.8 117.2,128.8 C116.9,128.8 116.5,128.6 116.3,128.3 Z M68.5,123.8 C68.1,123.4 68.1,122.7 68.5,122.2 C68.9,121.8 69.6,121.8 70.1,122.2 C70.5,122.6 70.5,123.3 70.1,123.8 C69.9,124 69.6,124.1 69.3,124.1 C69,124.1 68.7,124 68.5,123.8 Z M122.2,123.8 C121.8,123.4 121.8,122.7 122.2,122.2 C122.6,121.8 123.3,121.8 123.8,122.2 C124.2,122.6 124.2,123.3 123.8,123.8 C123.6,124 123.3,124.1 123,124.1 C122.7,124.1 122.4,124 122.2,123.8 Z M63.6,117.9 C63.3,117.4 63.4,116.7 63.9,116.4 C64.4,116.1 65.1,116.2 65.4,116.7 C65.7,117.2 65.6,117.9 65.1,118.2 C64.9,118.3 64.7,118.4 64.5,118.4 C64.2,118.4 63.8,118.2 63.6,117.9 Z M127.1,118.1 C126.6,117.8 126.4,117.1 126.8,116.6 C127.1,116.1 127.8,115.9 128.3,116.3 C128.8,116.6 129,117.3 128.6,117.8 C128.4,118.1 128,118.3 127.7,118.3 C127.5,118.3 127.3,118.3 127.1,118.1 Z M60,111.1 C59.8,110.5 60,109.9 60.6,109.6 C61.2,109.4 61.8,109.6 62.1,110.2 C62.3,110.8 62.1,111.4 61.5,111.7 C61.4,111.8 61.2,111.8 61.1,111.8 C60.6,111.8 60.2,111.6 60,111.1 Z M130.8,111.7 C130.2,111.5 130,110.8 130.2,110.2 C130.4,109.6 131.1,109.4 131.7,109.6 C132.3,109.8 132.5,110.5 132.3,111.1 C132.1,111.5 131.7,111.8 131.3,111.8 C131.1,111.8 130.9,111.7 130.8,111.7 Z M57.8,103.8 C57.7,103.2 58.1,102.6 58.7,102.5 C59.3,102.4 59.9,102.8 60,103.4 C60.1,104 59.7,104.6 59.1,104.7 C59,104.7 59,104.7 58.9,104.7 C58.3,104.7 57.9,104.4 57.8,103.8 Z M133.2,104.6 C132.6,104.5 132.2,103.9 132.3,103.3 C132.4,102.7 133,102.3 133.6,102.4 C134.2,102.5 134.6,103.1 134.5,103.7 C134.4,104.2 133.9,104.6 133.4,104.6 C133.3,104.6 133.2,104.6 133.2,104.6 Z M57,96.2 C57,95.6 57.5,95.1 58.1,95.1 C58.7,95.1 59.2,95.6 59.2,96.2 C59.2,96.8 58.7,97.3 58.1,97.3 C57.5,97.3 57,96.8 57,96.2 Z M133,96.1 C133,96.1 133,96.1 133,96.1 C133,96 133,96 133,95.9 C133,95.3 133.5,94.8 134.1,94.8 C134.7,94.8 135.2,95.3 135.2,95.9 C135.2,95.9 135.2,96 135.2,96 C135.2,96 135.2,96.1 135.2,96.1 C135.2,96.7 134.7,97.2 134.1,97.2 C133.5,97.2 133,96.7 133,96.1 Z M58.6,89.9 C58,89.8 57.6,89.2 57.7,88.6 C57.8,88 58.4,87.6 59,87.7 C59.6,87.8 60,88.4 59.9,89 C59.8,89.5 59.3,89.9 58.8,89.9 C58.7,89.9 58.7,89.9 58.6,89.9 Z M132.3,88.8 C132.2,88.2 132.6,87.6 133.2,87.5 C133.8,87.4 134.4,87.8 134.5,88.4 C134.6,89 134.2,89.6 133.6,89.7 C133.5,89.7 133.4,89.7 133.4,89.7 C132.8,89.7 132.4,89.3 132.3,88.8 Z M60.5,82.7 C59.9,82.5 59.7,81.8 59.9,81.2 C60.1,80.6 60.8,80.4 61.4,80.6 C62,80.8 62.2,81.5 62,82.1 C61.8,82.5 61.4,82.8 61,82.8 C60.8,82.8 60.7,82.7 60.5,82.7 Z M130.1,81.9 C129.9,81.3 130.1,80.7 130.7,80.4 C131.3,80.2 131.9,80.4 132.2,81 C132.4,81.6 132.2,82.2 131.6,82.5 C131.5,82.6 131.3,82.6 131.2,82.6 C130.7,82.6 130.3,82.3 130.1,81.9 Z M63.8,76 C63.3,75.7 63.1,75 63.5,74.5 C63.8,74 64.5,73.8 65,74.2 C65.5,74.5 65.7,75.2 65.3,75.7 C65.1,76 64.7,76.2 64.4,76.2 C64.2,76.2 64,76.1 63.8,76 Z M126.7,75.5 C126.4,75 126.5,74.3 127,74 C127.5,73.7 128.2,73.8 128.5,74.3 C128.8,74.8 128.7,75.5 128.2,75.9 C128,76 127.8,76.1 127.6,76.1 C127.3,76 126.9,75.8 126.7,75.5 Z M68.4,70.1 C68,69.7 68,69 68.4,68.5 C68.8,68.1 69.5,68.1 70,68.5 C70.4,68.9 70.4,69.6 70,70.1 C69.8,70.3 69.5,70.4 69.2,70.4 C68.9,70.4 68.6,70.3 68.4,70.1 Z M122.1,69.9 C121.7,69.5 121.7,68.8 122.1,68.3 C122.5,67.9 123.2,67.9 123.7,68.3 C124.1,68.7 124.1,69.4 123.7,69.9 C123.5,70.1 123.2,70.2 122.9,70.2 C122.6,70.3 122.3,70.2 122.1,69.9 Z M74,65.2 C73.7,64.7 73.8,64 74.3,63.7 C74.8,63.4 75.5,63.5 75.8,64 C76.1,64.5 76,65.2 75.5,65.5 C75.3,65.6 75.1,65.7 74.9,65.7 C74.6,65.7 74.2,65.5 74,65.2 Z M116.5,65.4 C116,65.1 115.8,64.4 116.2,63.9 C116.5,63.4 117.2,63.2 117.7,63.6 C118.2,63.9 118.4,64.6 118,65.1 C117.8,65.4 117.4,65.6 117.1,65.6 C116.9,65.6 116.7,65.5 116.5,65.4 Z M80.4,61.5 C80.2,60.9 80.4,60.3 81,60 C81.6,59.8 82.2,60 82.5,60.6 C82.7,61.2 82.5,61.8 81.9,62.1 C81.8,62.2 81.6,62.2 81.5,62.2 C81,62.2 80.6,61.9 80.4,61.5 Z M110.1,62 C109.5,61.8 109.3,61.1 109.5,60.5 C109.7,59.9 110.4,59.7 111,59.9 C111.6,60.1 111.8,60.8 111.6,61.4 C111.4,61.8 111,62.1 110.6,62.1 C110.4,62.1 110.2,62 110.1,62 Z M87.5,59.1 C87.4,58.5 87.8,57.9 88.4,57.8 C89,57.7 89.6,58.1 89.7,58.7 C89.8,59.3 89.4,59.9 88.8,60 C88.7,60 88.7,60 88.6,60 C88.1,60 87.6,59.6 87.5,59.1 Z M103.2,59.9 C102.6,59.8 102.2,59.2 102.3,58.6 C102.4,58 103,57.6 103.6,57.7 C104.2,57.8 104.6,58.4 104.5,59 C104.4,59.5 103.9,59.9 103.4,59.9 C103.3,59.9 103.3,59.9 103.2,59.9 Z M94.9,58.1 C94.9,57.5 95.4,57 96,57 C96.6,57 97.1,57.5 97.1,58.1 C97.1,58.7 96.6,59.2 96,59.2 C95.4,59.2 94.9,58.7 94.9,58.1 Z" id="Shape" fill="#D8EDFE"></path>
                    <path d="M94.5,114 C94.5,113.4 95,112.9 95.6,112.9 C96.2,112.9 96.7,113.4 96.7,114 C96.7,114.6 96.2,115.1 95.6,115.1 C95,115.1 94.5,114.6 94.5,114 Z M88.1,113.6 C87.5,113.4 87.3,112.7 87.5,112.1 C87.7,111.5 88.4,111.3 89,111.5 C89.6,111.7 89.8,112.4 89.6,113 C89.4,113.4 89,113.7 88.6,113.7 C88.4,113.7 88.3,113.7 88.1,113.6 Z M101.7,113 C101.5,112.4 101.7,111.8 102.3,111.5 C102.9,111.3 103.5,111.5 103.8,112.1 C104,112.7 103.8,113.3 103.2,113.6 C103.1,113.7 102.9,113.7 102.8,113.7 C102.2,113.7 101.8,113.4 101.7,113 Z M81.8,109.4 C81.4,109 81.4,108.3 81.8,107.8 C82.2,107.4 82.9,107.4 83.4,107.8 C83.8,108.2 83.8,108.9 83.4,109.4 C83.2,109.6 82.9,109.7 82.6,109.7 C82.3,109.7 82,109.6 81.8,109.4 Z M107.9,109.4 C107.5,109 107.5,108.3 107.9,107.8 C108.3,107.4 109,107.4 109.5,107.8 C109.9,108.2 109.9,108.9 109.5,109.4 C109.3,109.6 109,109.7 108.7,109.7 C108.4,109.7 108.1,109.6 107.9,109.4 Z M77.5,103 C77.3,102.4 77.5,101.8 78.1,101.5 C78.7,101.3 79.3,101.5 79.6,102.1 C79.8,102.7 79.6,103.3 79,103.6 C78.9,103.7 78.7,103.7 78.6,103.7 C78.1,103.7 77.7,103.5 77.5,103 Z M112.2,103.6 C111.6,103.4 111.4,102.7 111.6,102.1 C111.8,101.5 112.5,101.3 113.1,101.5 C113.7,101.7 113.9,102.4 113.7,103 C113.5,103.4 113.1,103.7 112.7,103.7 C112.5,103.7 112.4,103.7 112.2,103.6 Z M76,95.6 C76,95 76.5,94.5 77.1,94.5 C77.7,94.5 78.2,95 78.2,95.6 C78.2,96.2 77.7,96.7 77.1,96.7 C76.5,96.7 76,96.2 76,95.6 Z M113,95.5 C113,95.5 113,95.5 113,95.5 C113,95.5 113,95.5 113,95.5 C113,94.8 113.5,94.3 114.1,94.3 C114.7,94.3 115.2,94.8 115.2,95.4 C115.2,95.4 115.2,95.4 115.2,95.4 C115.2,95.4 115.2,95.4 115.2,95.4 C115.2,95.4 115.2,95.4 115.2,95.4 C115.2,96 114.7,96.5 114.1,96.5 C113.5,96.6 113,96.1 113,95.5 Z M78.1,89.5 C77.5,89.3 77.3,88.6 77.5,88 C77.7,87.4 78.4,87.2 79,87.4 C79.6,87.6 79.8,88.3 79.6,88.9 C79.4,89.3 79,89.6 78.6,89.6 C78.4,89.6 78.2,89.6 78.1,89.5 Z M111.6,88.8 C111.4,88.2 111.6,87.6 112.2,87.3 C112.8,87.1 113.4,87.3 113.7,87.9 C113.9,88.5 113.7,89.1 113.1,89.4 C113,89.5 112.8,89.5 112.7,89.5 C112.2,89.5 111.8,89.2 111.6,88.8 Z M81.7,83.3 C81.3,82.9 81.3,82.2 81.7,81.7 C82.1,81.3 82.8,81.3 83.3,81.7 C83.7,82.1 83.7,82.8 83.3,83.3 C83.1,83.5 82.8,83.6 82.5,83.6 C82.2,83.6 81.9,83.5 81.7,83.3 Z M107.8,83.2 C107.4,82.8 107.4,82.1 107.8,81.6 C108.2,81.2 108.9,81.2 109.4,81.6 C109.8,82 109.8,82.7 109.4,83.2 C109.2,83.4 108.9,83.5 108.6,83.5 C108.3,83.5 108.1,83.4 107.8,83.2 Z M87.5,78.9 C87.3,78.3 87.5,77.7 88.1,77.4 C88.7,77.2 89.3,77.4 89.6,78 C89.8,78.6 89.6,79.2 89,79.5 C88.9,79.6 88.7,79.6 88.6,79.6 C88,79.6 87.6,79.3 87.5,78.9 Z M102.2,79.5 C101.6,79.3 101.4,78.6 101.6,78 C101.8,77.4 102.5,77.2 103.1,77.4 C103.1,77.4 103.1,77.4 103.1,77.4 C103.7,77.6 103.9,78.3 103.7,78.9 C103.5,79.3 103.1,79.6 102.7,79.6 C102.5,79.5 102.3,79.5 102.2,79.5 Z M95.5,78.2 C94.9,78.2 94.4,77.7 94.4,77.1 C94.4,76.5 94.9,76 95.5,76 C96.1,76 96.6,76.5 96.6,77.1 C96.7,77.7 96.2,78.2 95.5,78.2 C94.9,78.2 95.6,78.2 95.5,78.2 Z" id="Shape" fill="#00FFCE"></path>
                    <path d="M96.1,97.2375 C95.8,97.2375 95.5,97.1375 95.3,96.9375 C95.1,96.7375 95,96.4375 95,96.1375 C95,95.8375 95.1,95.5375 95.3,95.3375 C95.6,95.0375 95.9,94.9375 96.3,95.0375 C96.4,95.0375 96.4,95.0375 96.5,95.1375 C96.6,95.1375 96.6,95.2375 96.7,95.2375 C96.8,95.2375 96.8,95.3375 96.9,95.3375 C97,95.4375 97,95.4375 97,95.5375 C97,95.6375 97.1,95.6375 97.1,95.7375 C97.1,95.8375 97.2,95.8375 97.2,95.9375 C97.2,96.0375 97.2,96.0375 97.2,96.1375 C97.2,96.4375 97.1,96.7375 96.9,96.9375 C96.8,97.0375 96.8,97.0375 96.7,97.0375 C96.6,97.0375 96.6,97.1375 96.5,97.1375 C96.4,97.1375 96.4,97.1375 96.3,97.2375 C96.3,97.2375 96.2,97.2375 96.1,97.2375 Z" id="Shape" fill="#59EAE3"></path>
                    <path d="M96.1,97.2 C96,97.2 96,97.2 95.9,97.2 C95.8,97.2 95.8,97.2 95.7,97.1 C95.6,97.1 95.6,97 95.5,97 C95.4,97 95.4,96.9 95.3,96.9 C95.1,96.7 95,96.4 95,96.1 C95,95.8 95.1,95.5 95.3,95.3 C95.4,95.2 95.4,95.2 95.5,95.2 C95.6,95.2 95.6,95.1 95.7,95.1 C95.8,95.1 95.8,95 95.9,95 C96,95 96.2,95 96.3,95 C96.4,95 96.4,95 96.5,95.1 C96.6,95.1 96.6,95.2 96.7,95.2 C96.8,95.2 96.8,95.3 96.9,95.3 C97.1,95.5 97.2,95.8 97.2,96.1 C97.2,96.4 97.1,96.7 96.9,96.9 C96.8,97 96.8,97 96.7,97 C96.6,97 96.6,97.1 96.5,97.1 C96.4,97.1 96.4,97.1 96.3,97.2 C96.3,97.2 96.2,97.2 96.1,97.2 Z" id="Shape" fill="#59EAE3"></path>
                    <path d="M96.1,97.2 C96,97.2 96,97.2 95.9,97.2 C95.8,97.2 95.8,97.2 95.7,97.1 C95.6,97.1 95.6,97 95.5,97 C95.4,97 95.4,96.9 95.3,96.9 C95.1,96.7 95,96.4 95,96.1 C95,96 95,96 95,95.9 C95,95.8 95,95.8 95.1,95.7 C95.1,95.6 95.2,95.6 95.2,95.5 C95.2,95.4 95.3,95.4 95.3,95.3 C95.3,95.2 95.4,95.2 95.5,95.2 C95.6,95.2 95.6,95.1 95.7,95.1 C95.8,95.1 95.8,95 95.9,95 C96,95 96.2,95 96.3,95 C96.4,95 96.4,95 96.5,95.1 C96.6,95.1 96.6,95.2 96.7,95.2 C96.8,95.2 96.8,95.3 96.9,95.3 C97,95.4 97,95.4 97,95.5 C97,95.6 97.1,95.6 97.1,95.7 C97.1,95.8 97.1,95.8 97.2,95.9 C97.2,96 97.2,96 97.2,96.1 C97.2,96.2 97.2,96.2 97.2,96.3 C97.2,96.4 97.2,96.4 97.1,96.5 C97.1,96.6 97,96.6 97,96.7 C97,96.8 96.9,96.8 96.9,96.9 C96.8,97 96.8,97 96.7,97 C96.6,97 96.6,97.1 96.5,97.1 C96.4,97.1 96.4,97.1 96.3,97.2 C96.2,97.2 96.2,97.2 96.1,97.2 Z" id="Shape" fill="#59EAE3"></path>
                    <path d="M96.1,97.2 C96,97.2 96,97.2 95.9,97.2 C95.8,97.2 95.8,97.2 95.7,97.1 C95.6,97.1 95.6,97 95.5,97 C95.4,97 95.4,96.9 95.3,96.9 C95.1,96.7 95,96.4 95,96.1 C95,95.8 95.1,95.5 95.3,95.3 C95.4,95.2 95.4,95.2 95.5,95.2 C95.6,95.2 95.6,95.1 95.7,95.1 C95.8,95.1 95.8,95 95.9,95 C96,95 96.2,95 96.3,95 C96.4,95 96.4,95 96.5,95.1 C96.6,95.1 96.6,95.2 96.7,95.2 C96.8,95.2 96.8,95.3 96.9,95.3 C97.1,95.5 97.2,95.8 97.2,96.1 C97.2,96.4 97.1,96.7 96.9,96.9 C96.8,97 96.8,97 96.7,97 C96.6,97 96.6,97.1 96.5,97.1 C96.4,97.1 96.4,97.1 96.3,97.2 C96.3,97.2 96.2,97.2 96.1,97.2 Z" id="Shape" fill="#59EAE3"></path>
                    <rect id="Rectangle-path" fill="url(#linearGradient-1)" opacity="0.27" x="0" y="59" width="192.2" height="74"></rect>
                    <polygon id="Shape" fill="url(#linearGradient-2)" opacity="0.27" points="133 0 133 192.3 59 192.3 59 0"></polygon>
                    <polygon id="Shape" fill="url(#linearGradient-3)" opacity="0.27" points="190.2 54.4 54.3 190.3 2 138 137.9 2"></polygon>
                    <polygon id="Shape" fill="url(#linearGradient-4)" opacity="0.27" points="54.3 2 190.2 138 137.9 190.3 2 54.4"></polygon>
                    <path d="M127.1,133.1 L63,133.1 C60.2,133.1 58,130.9 58,128.1 L58,64 C58,61.2 60.2,59 63,59 L127.1,59 C129.9,59 132.1,61.2 132.1,64 L132.1,128.1 C132.1,130.9 129.9,133.1 127.1,133.1 Z" id="Shape" fill="#0870E5"></path>
                    <path d="M83.8,114.167277 C83,114.167277 82.4,114.467277 81.6,114.667277 C80.9,114.767277 80.3,115.067277 79.6,115.167277 C79.5,114.967277 79.5,114.667277 79.5,114.467277 C79.5,112.367277 79.5,110.267277 79.5,108.067277 C79.5,107.667277 79.4,107.567277 79,107.467277 C78.4,107.267277 77.9,107.067277 77.3,106.967277 C75.9,106.567277 74.5,106.067277 73,105.767277 C73.2,105.467277 73.5,105.567277 73.8,105.567277 C75.5,105.367277 77.1,105.167277 78.8,104.967277 C80.8,104.667277 82.8,104.467277 84.8,104.267277 C87.4,103.967277 90,103.567277 92.5,103.367277 C93.3,103.267277 94.2,103.167277 95,103.067277 C96.2,102.867277 97.4,103.167277 98.5,103.267277 C99.9,103.467277 101.4,103.667277 102.8,103.767277 C103.1,103.767277 103.1,103.867277 103.1,104.067277 C103.1,104.367277 102.9,104.867277 103.2,105.067277 C103.5,105.267277 103.8,104.967277 104.2,104.967277 C105.1,104.867277 106.1,104.667277 107,104.467277 C107.3,104.367277 107.7,104.367277 108,104.367277 C109.8,104.567277 111.7,104.867277 113.5,105.067277 C114.8,105.267277 116.1,105.367277 117.4,105.467277 C117.6,105.467277 117.8,105.567277 118,105.567277 C118.7,105.467277 118.7,105.867277 118.7,106.467277 C118.7,108.167277 118.7,109.867277 118.7,111.667277 C118.7,112.067277 118.6,112.267277 118.2,112.367277 C110.9,115.967277 103.6,119.667277 96.4,123.267277 C96.2,123.367277 96.1,123.367277 95.9,123.467277 C95.8,123.167277 95.8,122.967277 95.8,122.667277 C95.8,119.467277 95.8,116.367277 95.8,113.167277 C95.8,112.767277 95.7,112.567277 95.4,112.467277 C94.2,112.067277 92.9,111.667277 91.7,111.367277 C90.4,110.967277 89.2,110.567277 87.9,110.267277 C86.6,109.867277 85.4,109.467277 84.1,109.167277 C83.7,109.067277 83.7,109.267277 83.7,109.567277 C83.8,110.967277 83.8,112.567277 83.8,114.167277 Z" id="Shape" fill="#00FFCE"></path>
                    <path d="M95.4,91 C96.6,91 97.8,91.2 98.9,91.3 C101.9,91.6 104.8,91.9 107.8,92.2 C110.9,92.5 113.9,92.8 117,93.1 C117,93.1 117.1,93.1 117.1,93.1 C118.2,93.2 118.2,93.2 118.2,94.3 C118.2,95.9 118.2,97.6 118.2,99.2 C118.2,99.5 118.1,99.7 117.8,99.7 C114.9,100 112,100.3 109.1,100.6 C105.8,100.9 102.4,101.3 99,101.6 C97.8,101.7 96.6,101.8 95.4,102 C95.3,102 95.1,102 95,101.9 C95.3,101.8 95.3,101.6 95.3,101.3 C95.3,98.7 95.3,96.1 95.3,93.4 C95.4,92.7 95.4,91.8 95.4,91 Z" id="Shape" fill="#00FFCE"></path>
                    <path d="M107.7,77.4893391 C107.6,77.6893391 107.6,77.8893391 107.6,78.0893391 C107.6,79.4893391 107.6,80.8893391 107.6,82.2893391 C107.6,82.6893391 107.5,82.7893391 107.1,82.5893391 C106.1,82.2893391 105.1,81.9893391 104.2,81.6893391 C103.2,81.3893391 102.2,81.0893391 101.2,80.7893391 C99.7,80.2893391 98.1,79.8893391 96.6,79.3893391 C96.2,79.2893391 95.9,79.0893391 95.5,79.0893391 C95.2,79.0893391 95.3,78.7893391 95.3,78.5893391 C95.3,76.3893391 95.3,74.1893391 95.3,71.9893391 C95.3,70.8893391 95.3,69.7893391 95.3,68.6893391 C95.3,68.4893391 95.3,68.2893391 95,68.1893391 C95.3,67.8893391 95.5,67.9893391 95.8,68.1893391 C99.6,70.0893391 103.4,71.9893391 107.1,73.8893391 C107.4,74.0893391 107.6,74.2893391 107.6,74.6893391 C107.6,75.3893391 107.6,76.1893391 107.6,76.8893391 C107.6,77.1893391 107.6,77.3893391 107.7,77.4893391 Z" id="Shape" fill="#00FFCE"></path>
                    <path d="M83.1,114.326013 C83.1,112.726013 83.1,111.126013 83.1,109.426013 C83.1,109.126013 83.1,108.926013 83.5,109.026013 C84.8,109.326013 86,109.726013 87.3,110.126013 C88.6,110.526013 89.8,110.926013 91.1,111.226013 C92.3,111.626013 93.6,112.026013 94.8,112.326013 C95.1,112.426013 95.2,112.626013 95.2,113.026013 C95.2,116.226013 95.2,119.326013 95.2,122.526013 C95.2,122.826013 95.2,123.126013 95.3,123.326013 C94.9,123.426013 94.6,123.126013 94.2,122.926013 C90.6,121.126013 87,119.326013 83.4,117.526013 C83.1,117.426013 83,117.226013 83,116.926013 C83.2,116.126013 83.1,115.226013 83.1,114.326013 Z" id="Shape" fill="#00CE9D"></path>
                    <path d="M118.6,86.9154701 C118.2,86.5154701 117.7,86.5154701 117.2,86.3154701 C115.7,85.8154701 114.2,85.4154701 112.7,84.9154701 C112.3,84.8154701 112.2,84.6154701 112.2,84.2154701 C112.2,82.0154701 112.2,79.9154701 112.2,77.7154701 C112.2,77.5154701 112.2,77.3154701 112,77.1154701 C112.2,76.9154701 112.3,77.0154701 112.5,77.1154701 C114.4,78.1154701 116.4,79.0154701 118.3,80.0154701 C118.6,80.1154701 118.6,80.3154701 118.6,80.6154701 C118.6,82.5154701 118.6,84.4154701 118.6,86.4154701 C118.8,86.6154701 119,86.9154701 118.6,86.9154701 Z" id="Shape" fill="#00FFCE"></path>
                    <path d="M73.0444444,106 C74.4444444,106.4 75.8444444,106.8 77.3444444,107.2 C77.9444444,107.4 78.4444444,107.5 79.0444444,107.7 C79.3444444,107.8 79.5444444,108 79.5444444,108.3 C79.5444444,110.4 79.5444444,112.5 79.5444444,114.7 C79.5444444,115 79.5444444,115.2 79.6444444,115.4 C79.5444444,115.5 79.3444444,115.4 79.2444444,115.4 C77.2444444,114.4 75.3444444,113.4 73.3444444,112.5 C73.1444444,112.4 73.0444444,112.3 73.0444444,112.1 C73.0444444,110.1 72.9444444,108 73.0444444,106 Z" id="Shape" fill="#00CE9D"></path>
                    <path d="M117.2,85.5 C115.7,85 114.2,84.6 112.7,84.1 C112.3,84 112.2,83.8 112.2,83.4 C112.2,81.2 112.2,79.1 112.2,76.9 C112.2,76.7 112.2,76.5 112,76.3 C110.7,76.6 109.4,76.9 108.2,77.3 C108.1,77.5 108.1,77.7 108.1,77.9 C108.1,79.3 108.1,80.7 108.1,82.1 C108.1,82.5 108,82.6 107.6,82.4 C106.6,82.1 105.6,81.8 104.7,81.5 C103.7,81.2 102.7,80.9 101.7,80.6 C100.2,80.1 98.6,79.7 97.1,79.2 C96.7,79.1 96.4,78.9 96,78.9 C95.7,78.9 95.8,78.6 95.8,78.4 C95.8,76.2 95.8,74 95.8,71.8 C95.8,70.7 95.8,69.6 95.8,68.5 C95.8,68.3 95.8,68.1 95.5,68 C88.2,71.7 80.8,75.3 73.5,79 C73.3,79.1 73,79.2 73.1,79.5 C73.1,79.6 73,79.6 73,79.7 C73,81.6 73,83.5 73,85.4 C73,85.5 73,85.7 73.1,85.7 C73.1,85.7 73.2,85.7 73.2,85.8 C76.4,86.2 79.7,86.6 82.9,87 C83.5,87.1 84,87.1 84.6,87 C85.5,86.8 86.4,86.7 87.3,86.5 C88.4,86.3 88.4,86.2 88.4,87.3 C88.4,87.6 88.5,87.7 88.8,87.7 C90.7,87.9 92.5,88.2 94.4,88.4 C95,88.5 95.6,88.6 96.2,88.5 C99.6,88.1 103,87.6 106.3,87.2 C110.3,86.7 114.4,86.2 118.4,85.7 C118.3,85.6 117.7,85.7 117.2,85.5 Z" id="Shape" fill="#00CE9D"></path>
                    <path d="M95.775,91.0414214 C95.575,91.0414214 95.375,91.0414214 95.275,91.0414214 C94.875,90.9414214 94.575,91.0414214 94.175,91.1414214 C93.875,91.1414214 93.575,91.1414214 93.275,91.2414214 C92.875,91.1414214 92.575,91.2414214 92.175,91.3414214 C91.875,91.3414214 91.575,91.3414214 91.275,91.4414214 C90.875,91.3414214 90.575,91.4414214 90.175,91.5414214 C89.875,91.5414214 89.575,91.5414214 89.275,91.6414214 C88.875,91.5414214 88.575,91.6414214 88.175,91.7414214 C87.875,91.7414214 87.575,91.7414214 87.275,91.8414214 C86.875,91.7414214 86.575,91.8414214 86.175,91.9414214 C85.875,91.9414214 85.575,91.9414214 85.275,92.0414214 C84.875,91.9414214 84.575,92.0414214 84.175,92.1414214 C83.875,92.1414214 83.575,92.1414214 83.275,92.2414214 C82.875,92.1414214 82.575,92.2414214 82.175,92.3414214 C81.875,92.3414214 81.575,92.3414214 81.275,92.4414214 C80.875,92.3414214 80.575,92.4414214 80.175,92.5414214 C79.875,92.5414214 79.575,92.5414214 79.275,92.6414214 C78.875,92.5414214 78.575,92.6414214 78.175,92.7414214 C77.875,92.7414214 77.575,92.7414214 77.275,92.8414214 C76.875,92.7414214 76.575,92.8414214 76.175,92.9414214 C75.875,92.9414214 75.575,92.9414214 75.275,93.0414214 C74.875,92.9414214 74.575,93.0414214 74.175,93.1414214 C73.975,93.1414214 73.775,93.1414214 73.575,93.1414214 C73.375,93.1414214 73.175,92.9414214 73.075,93.2414214 C72.975,93.3414214 72.975,93.4414214 73.075,93.5414214 C72.975,94.3414214 73.075,95.1414214 73.075,95.9414214 C73.075,97.0414214 72.975,98.2414214 73.075,99.3414214 C72.975,99.7414214 73.275,99.6414214 73.475,99.6414214 C73.675,99.7414214 73.775,99.7414214 73.975,99.6414214 C74.075,99.6414214 74.075,99.6414214 74.175,99.6414214 C74.275,99.7414214 74.475,99.7414214 74.675,99.7414214 C74.975,99.7414214 75.175,99.7414214 75.475,99.8414214 C75.675,99.9414214 75.775,99.9414214 75.975,99.8414214 C76.075,99.8414214 76.075,99.8414214 76.175,99.8414214 C76.275,99.9414214 76.475,99.9414214 76.675,99.9414214 C76.975,99.9414214 77.175,99.9414214 77.475,100.041421 C77.675,100.141421 77.775,100.141421 77.975,100.041421 C78.075,100.041421 78.075,100.041421 78.175,100.041421 C78.275,100.141421 78.475,100.141421 78.675,100.141421 C78.975,100.141421 79.175,100.141421 79.475,100.241421 C79.675,100.341421 79.775,100.341421 79.975,100.241421 C80.075,100.241421 80.075,100.241421 80.175,100.241421 C80.275,100.341421 80.475,100.341421 80.675,100.341421 C80.975,100.341421 81.175,100.341421 81.475,100.441421 C81.675,100.541421 81.775,100.541421 81.975,100.441421 C82.075,100.441421 82.075,100.441421 82.175,100.441421 C82.275,100.541421 82.475,100.541421 82.675,100.541421 C82.975,100.541421 83.175,100.541421 83.475,100.641421 C83.675,100.741421 83.775,100.741421 83.975,100.641421 C84.075,100.641421 84.075,100.641421 84.175,100.641421 C84.275,100.741421 84.475,100.741421 84.675,100.741421 C84.975,100.741421 85.175,100.741421 85.475,100.841421 C85.675,100.941421 85.775,100.941421 85.975,100.841421 C86.075,100.841421 86.075,100.841421 86.175,100.841421 C86.275,100.941421 86.475,100.941421 86.675,100.941421 C86.975,100.941421 87.175,100.941421 87.475,101.041421 C87.675,101.141421 87.775,101.141421 87.975,101.041421 C88.075,101.041421 88.075,101.041421 88.175,101.041421 C88.275,101.141421 88.475,101.141421 88.675,101.141421 C88.975,101.141421 89.175,101.141421 89.475,101.241421 C89.675,101.341421 89.775,101.341421 89.975,101.241421 C90.075,101.241421 90.075,101.241421 90.175,101.241421 C90.275,101.341421 90.475,101.341421 90.675,101.341421 C90.975,101.341421 91.175,101.341421 91.475,101.441421 C91.675,101.541421 91.775,101.541421 91.975,101.441421 C92.075,101.441421 92.075,101.441421 92.175,101.441421 C92.275,101.541421 92.475,101.541421 92.675,101.541421 C92.975,101.541421 93.175,101.541421 93.475,101.641421 C93.675,101.741421 93.775,101.741421 93.975,101.641421 C94.075,101.641421 94.075,101.641421 94.175,101.641421 C94.275,101.741421 94.475,101.741421 94.675,101.741421 C94.975,101.741421 95.175,101.741421 95.475,101.841421 C95.775,101.741421 95.775,101.541421 95.775,101.241421 C95.775,98.6414214 95.775,96.0414214 95.775,93.3414214 C95.775,92.7414214 95.775,91.8414214 95.775,91.0414214 Z" id="Shape" fill="#00CE9D"></path>
                    <circle id="Oval" fill="#3E85F7" cx="28.1" cy="102.1" r="3.1"></circle>
                    <circle id="Oval" fill="#3E85F7" cx="55.1" cy="161.1" r="3.1"></circle>
                    <path d="M146.298099,103.848598 L154.798099,92.6485982 C155.498099,91.6485982 157.098099,91.8485982 157.598099,92.9485982 L163.298099,105.848598 C163.798099,106.948598 162.898099,108.248598 161.598099,108.148598 L147.398099,106.548598 C146.198099,106.248598 145.598099,104.848598 146.298099,103.848598 Z" id="Shape" fill="#0870E5"></path>
                </g>
            </g>
        </g>
    </g>
</svg>