<?xml version="1.0" encoding="UTF-8"?>
<svg width="241px" height="203px" viewBox="0 0 241 203" version="1.1" xmlns="http://www.w3.org/2000/svg" xmlns:xlink="http://www.w3.org/1999/xlink">
    <!-- Generator: Sketch 48.1 (47250) - http://www.bohemiancoding.com/sketch -->
    <title>Group 3</title>
    <desc>Created with Sketch.</desc>
    <defs>
        <linearGradient x1="50.007448%" y1="100.012019%" x2="50.007448%" y2="-0.00234131113%" id="linearGradient-1">
            <stop stop-color="#FFFFFF" stop-opacity="0" offset="0%"></stop>
            <stop stop-color="#E9F1FE" stop-opacity="0.0819568" offset="4.148078%"></stop>
            <stop stop-color="#ACCBFC" stop-opacity="0.3222" offset="16.31%"></stop>
            <stop stop-color="#7DADFA" stop-opacity="0.5427" offset="27.47%"></stop>
            <stop stop-color="#5B97F8" stop-opacity="0.7362" offset="37.26%"></stop>
            <stop stop-color="#468AF7" stop-opacity="0.8952" offset="45.31%"></stop>
            <stop stop-color="#3E85F7" offset="50.61%"></stop>
            <stop stop-color="#498CF7" stop-opacity="0.8939" offset="55.85%"></stop>
            <stop stop-color="#659EF9" stop-opacity="0.7099" offset="64.94%"></stop>
            <stop stop-color="#93BBFB" stop-opacity="0.4702" offset="76.78%"></stop>
            <stop stop-color="#D1E2FD" stop-opacity="0.1873" offset="90.75%"></stop>
            <stop stop-color="#FFFFFF" stop-opacity="0" offset="100%"></stop>
        </linearGradient>
        <linearGradient x1="99.9897181%" y1="50.0067902%" x2="0.0131840796%" y2="50.0067902%" id="linearGradient-2">
            <stop stop-color="#FFFFFF" stop-opacity="0" offset="0%"></stop>
            <stop stop-color="#FFF8CA" stop-opacity="0.2403" offset="12.16%"></stop>
            <stop stop-color="#FFF39B" stop-opacity="0.4858" offset="24.59%"></stop>
            <stop stop-color="#FFEE79" stop-opacity="0.7033" offset="35.59%"></stop>
            <stop stop-color="#FFEC64" stop-opacity="0.8821" offset="44.65%"></stop>
            <stop stop-color="#FFEB5C" offset="50.61%"></stop>
            <stop stop-color="#FFEC67" stop-opacity="0.8792" offset="56.58%"></stop>
            <stop stop-color="#FFF083" stop-opacity="0.6697" offset="66.92%"></stop>
            <stop stop-color="#FFF5B1" stop-opacity="0.3969" offset="80.4%"></stop>
            <stop stop-color="#FFFDEF" stop-opacity="0.07433045" offset="96.33%"></stop>
            <stop stop-color="#FFFFFF" stop-opacity="0" offset="100%"></stop>
        </linearGradient>
        <linearGradient x1="89.8626168%" y1="10.1388264%" x2="10.035803%" y2="89.9656402%" id="linearGradient-3">
            <stop stop-color="#FFFFFF" stop-opacity="0" offset="0%"></stop>
            <stop stop-color="#F8D1C8" stop-opacity="0.1775" offset="8.985829%"></stop>
            <stop stop-color="#F19E8C" stop-opacity="0.3926" offset="19.87%"></stop>
            <stop stop-color="#EB775C" stop-opacity="0.5902" offset="29.87%"></stop>
            <stop stop-color="#E75A3A" stop-opacity="0.7636" offset="38.65%"></stop>
            <stop stop-color="#E44825" stop-opacity="0.9061" offset="45.86%"></stop>
            <stop stop-color="#E3421D" offset="50.61%"></stop>
            <stop stop-color="#E44B28" stop-opacity="0.906" offset="55.26%"></stop>
            <stop stop-color="#E86244" stop-opacity="0.743" offset="63.3%"></stop>
            <stop stop-color="#ED8972" stop-opacity="0.5306" offset="73.79%"></stop>
            <stop stop-color="#F5BEB1" stop-opacity="0.277" offset="86.32%"></stop>
            <stop stop-color="#FFFFFF" stop-opacity="0" offset="100%"></stop>
        </linearGradient>
        <linearGradient x1="100.026097%" y1="50.0468814%" x2="-0.0222286374%" y2="50.0468814%" id="linearGradient-4">
            <stop stop-color="#FFFFFF" stop-opacity="0" offset="0%"></stop>
            <stop stop-color="#F8D1C8" stop-opacity="0.1775" offset="8.985829%"></stop>
            <stop stop-color="#F19E8C" stop-opacity="0.3926" offset="19.87%"></stop>
            <stop stop-color="#EB775C" stop-opacity="0.5902" offset="29.87%"></stop>
            <stop stop-color="#E75A3A" stop-opacity="0.7636" offset="38.65%"></stop>
            <stop stop-color="#E44825" stop-opacity="0.9061" offset="45.86%"></stop>
            <stop stop-color="#E3421D" offset="50.61%"></stop>
            <stop stop-color="#E44B28" stop-opacity="0.906" offset="55.26%"></stop>
            <stop stop-color="#E86244" stop-opacity="0.743" offset="63.3%"></stop>
            <stop stop-color="#ED8972" stop-opacity="0.5306" offset="73.79%"></stop>
            <stop stop-color="#F5BEB1" stop-opacity="0.277" offset="86.32%"></stop>
            <stop stop-color="#FFFFFF" stop-opacity="0" offset="100%"></stop>
        </linearGradient>
        <linearGradient x1="92.0430962%" y1="92.0785195%" x2="7.92247547%" y2="7.95789879%" id="linearGradient-5">
            <stop stop-color="#FFFFFF" stop-opacity="0" offset="0%"></stop>
            <stop stop-color="#D1F9FD" stop-opacity="0.2166" offset="10.96%"></stop>
            <stop stop-color="#A2F4FA" stop-opacity="0.4698" offset="23.78%"></stop>
            <stop stop-color="#80EFF8" stop-opacity="0.694" offset="35.13%"></stop>
            <stop stop-color="#6BEDF7" stop-opacity="0.8784" offset="44.46%"></stop>
            <stop stop-color="#63ECF7" offset="50.61%"></stop>
            <stop stop-color="#6EEDF8" stop-opacity="0.875" offset="56.79%"></stop>
            <stop stop-color="#8AF1F9" stop-opacity="0.6584" offset="67.48%"></stop>
            <stop stop-color="#B8F6FB" stop-opacity="0.3763" offset="81.42%"></stop>
            <stop stop-color="#F6FEFF" stop-opacity="0.04258668" offset="97.9%"></stop>
            <stop stop-color="#FFFFFF" stop-opacity="0" offset="100%"></stop>
        </linearGradient>
    </defs>
    <g id="8.-How-It-Works" stroke="none" stroke-width="1" fill="none" fill-rule="evenodd" transform="translate(-601.000000, -1466.000000)">
        <g id="Group-25" transform="translate(163.000000, 1465.000000)" fill-rule="nonzero">
            <g id="Group-20" transform="translate(400.000000, 1.000000)">
                <g id="Group-3" transform="translate(38.000000, 0.000000)">
                    <path d="M117.9,174.2 C117.9,173.6 118.4,173.1 119,173.1 C119.6,173.1 120.1,173.6 120.1,174.2 C120.1,174.8 119.6,175.3 119,175.3 C119,175.3 119,175.3 119,175.3 C118.5,175.2 118,174.8 117.9,174.2 Z M111.5,175.1 C110.9,175.1 110.4,174.5 110.5,173.9 C110.5,173.3 111.1,172.8 111.7,172.9 C112.3,172.9 112.8,173.5 112.7,174.1 C112.7,174.6 112.2,175.1 111.5,175.1 C111.6,175.1 111.6,175.1 111.5,175.1 Z M125.4,173.7 C125.3,173.1 125.8,172.5 126.4,172.5 C127,172.4 127.6,172.9 127.6,173.5 C127.7,174.1 127.2,174.7 126.6,174.7 C126.6,174.7 126.5,174.7 126.5,174.7 C125.9,174.7 125.4,174.3 125.4,173.7 Z M104,174.2 C103.4,174.1 103,173.5 103.1,172.9 C103.2,172.3 103.8,171.9 104.4,172 C105,172.1 105.4,172.7 105.3,173.3 C105.2,173.8 104.7,174.2 104.2,174.2 C104.2,174.2 104.1,174.2 104,174.2 Z M132.7,172.6 C132.6,172 133,171.4 133.6,171.3 C134.2,171.2 134.8,171.5 134.9,172.1 C135,172.7 134.7,173.3 134.1,173.4 C134,173.4 133.9,173.4 133.9,173.4 C133.3,173.5 132.8,173.1 132.7,172.6 Z M96.7,172.6 C96.1,172.4 95.8,171.8 95.9,171.2 C96.1,170.6 96.7,170.3 97.3,170.4 C97.9,170.6 98.2,171.2 98.1,171.8 C98,172.3 97.5,172.6 97,172.6 C96.9,172.6 96.8,172.6 96.7,172.6 Z M139.9,170.7 C139.7,170.1 140,169.5 140.6,169.3 C141.2,169.1 141.8,169.4 142,170 C142.2,170.6 141.9,171.2 141.3,171.4 C141.2,171.4 141.1,171.5 141,171.5 C140.5,171.5 140.1,171.2 139.9,170.7 Z M89.5,170.2 C88.9,170 88.6,169.3 88.9,168.8 C89.1,168.2 89.8,167.9 90.3,168.1 C90.9,168.3 91.2,169 90.9,169.5 C90.7,169.9 90.3,170.2 89.9,170.2 C89.7,170.3 89.6,170.3 89.5,170.2 Z M146.9,168.2 C146.7,167.6 146.9,167 147.5,166.7 C148.1,166.5 148.7,166.7 149,167.3 C149.2,167.9 149,168.5 148.4,168.8 C148.3,168.9 148.1,168.9 148,168.9 C147.5,168.9 147.1,168.6 146.9,168.2 Z M82.6,167.2 C82,166.9 81.8,166.3 82.1,165.7 C82.4,165.1 83,164.9 83.6,165.2 C84.1,165.5 84.4,166.1 84.1,166.7 C83.9,167.1 83.5,167.3 83.1,167.3 C82.9,167.3 82.7,167.3 82.6,167.2 Z M153.6,165 C153.3,164.5 153.5,163.8 154,163.5 C154.5,163.2 155.2,163.4 155.5,163.9 C155.8,164.4 155.6,165.1 155.1,165.4 C154.9,165.5 154.7,165.5 154.6,165.5 C154.2,165.6 153.8,165.4 153.6,165 Z M76,163.6 C76,163.6 76,163.6 76,163.6 C75.5,163.3 75.3,162.6 75.6,162.1 C75.9,161.6 76.6,161.4 77.1,161.7 C77.6,162 77.8,162.7 77.5,163.2 C77.3,163.5 76.9,163.7 76.5,163.7 C76.3,163.7 76.1,163.7 76,163.6 Z M160,161.1 C159.6,160.6 159.8,159.9 160.3,159.6 C160.8,159.3 161.5,159.4 161.8,159.9 C162.1,160.4 162,161.1 161.5,161.5 C161.3,161.6 161.1,161.7 160.9,161.7 C160.6,161.6 160.2,161.5 160,161.1 Z M69.7,159.3 C69.2,158.9 69.1,158.2 69.5,157.7 C69.9,157.2 70.6,157.1 71.1,157.5 C71.6,157.9 71.7,158.6 71.3,159.1 C71.1,159.4 70.7,159.5 70.4,159.5 C70.2,159.5 69.9,159.4 69.7,159.3 Z M166,156.7 C165.6,156.2 165.7,155.5 166.1,155.1 C166.6,154.7 167.3,154.8 167.7,155.2 C168.1,155.7 168,156.4 167.6,156.8 C167.4,157 167.1,157.1 166.9,157.1 C166.5,157.1 166.2,157 166,156.7 Z M64,154.4 C64,154.4 64,154.4 64,154.4 C63.6,154 63.5,153.3 63.9,152.8 C64.3,152.3 65,152.3 65.5,152.7 C65.9,153.1 66,153.8 65.6,154.3 C65.4,154.5 65.1,154.7 64.8,154.7 C64.5,154.7 64.2,154.6 64,154.4 Z M171.5,151.7 C171.1,151.3 171.1,150.6 171.5,150.1 C171.9,149.7 172.6,149.7 173.1,150.1 C173.5,150.5 173.5,151.2 173.1,151.7 C172.9,151.9 172.6,152 172.3,152 C172,152 171.7,151.9 171.5,151.7 Z M58.7,149 C58.3,148.5 58.3,147.8 58.8,147.4 C59.3,147 60,147 60.4,147.5 C60.8,148 60.8,148.7 60.3,149.1 C60.1,149.3 59.8,149.4 59.6,149.4 C59.2,149.4 58.9,149.2 58.7,149 Z M176.5,146.2 C176,145.8 175.9,145.1 176.3,144.6 C176.7,144.1 177.4,144 177.9,144.4 C178.4,144.8 178.5,145.5 178.1,146 C177.9,146.3 177.6,146.4 177.2,146.4 C177,146.5 176.7,146.4 176.5,146.2 Z M54,143.1 C53.6,142.6 53.7,141.9 54.2,141.5 C54.7,141.1 55.4,141.2 55.8,141.7 C56.2,142.2 56.1,142.9 55.6,143.3 C55.4,143.4 55.2,143.5 54.9,143.5 C54.5,143.6 54.2,143.4 54,143.1 Z M181,140.3 C180.5,140 180.3,139.3 180.7,138.8 C181,138.3 181.7,138.1 182.2,138.5 C182.7,138.8 182.9,139.5 182.5,140 C182.3,140.3 181.9,140.5 181.6,140.5 C181.4,140.4 181.2,140.4 181,140.3 Z M49.8,136.8 C49.5,136.3 49.7,135.6 50.2,135.3 C50.7,135 51.4,135.2 51.7,135.7 C52,136.2 51.8,136.9 51.3,137.2 C51.1,137.3 50.9,137.4 50.7,137.4 C50.4,137.4 50,137.2 49.8,136.8 Z M184.9,133.9 C184.4,133.6 184.1,132.9 184.4,132.4 C184.7,131.9 185.4,131.6 185.9,131.9 C186.4,132.2 186.7,132.9 186.4,133.4 C186.4,133.4 186.4,133.4 186.4,133.4 C186.2,133.8 185.8,134 185.4,134 C185.2,134 185,134 184.9,133.9 Z M46.3,130.1 C46,129.5 46.3,128.9 46.8,128.6 C47.4,128.3 48,128.6 48.3,129.1 C48.6,129.7 48.3,130.3 47.8,130.6 C47.7,130.7 47.5,130.7 47.3,130.7 C46.9,130.8 46.5,130.5 46.3,130.1 Z M188.1,127.2 C187.5,127 187.3,126.3 187.5,125.7 C187.7,125.1 188.4,124.9 189,125.1 C189.6,125.3 189.8,126 189.6,126.6 C189.4,127 189,127.3 188.6,127.3 C188.4,127.3 188.2,127.3 188.1,127.2 Z M43.4,123.1 C43.2,122.5 43.5,121.9 44.1,121.7 C44.7,121.5 45.3,121.8 45.5,122.4 C45.7,123 45.4,123.6 44.8,123.8 C44.7,123.8 44.6,123.9 44.4,123.9 C44,123.9 43.6,123.6 43.4,123.1 Z M190.7,120.2 C190.1,120 189.8,119.4 189.9,118.8 C190.1,118.2 190.7,117.9 191.3,118 C191.9,118.2 192.2,118.8 192.1,119.4 C192,119.9 191.5,120.2 191,120.2 C190.9,120.3 190.8,120.2 190.7,120.2 Z M41.3,115.9 C41.2,115.3 41.5,114.7 42.1,114.6 C42.7,114.5 43.3,114.8 43.4,115.4 C43.5,116 43.2,116.6 42.6,116.7 C42.5,116.7 42.4,116.7 42.3,116.7 C41.8,116.7 41.4,116.4 41.3,115.9 Z M192.6,113 C192,112.9 191.6,112.3 191.7,111.7 C191.8,111.1 192.4,110.7 193,110.8 C193.6,110.9 194,111.5 193.9,112.1 C193.8,112.6 193.3,113 192.8,113 C192.7,113 192.6,113 192.6,113 Z M39.8,108.5 C39.8,108.5 39.8,108.5 39.8,108.5 C39.7,107.9 40.1,107.3 40.7,107.2 C41.3,107.1 41.9,107.5 42,108.1 C42.1,108.7 41.7,109.3 41.1,109.4 C41,109.4 41,109.4 40.9,109.4 C40.4,109.4 39.9,109 39.8,108.5 Z M193.7,105.7 C193.1,105.6 192.6,105.1 192.7,104.5 C192.8,103.9 193.3,103.4 193.9,103.5 C194.5,103.6 195,104.1 194.9,104.7 C194.8,105.3 194.4,105.7 193.8,105.7 C193.8,105.7 193.8,105.7 193.7,105.7 Z M39.1,101 C39.1,100.4 39.5,99.9 40.2,99.8 C40.8,99.8 41.3,100.2 41.4,100.9 C41.4,101.5 41,102 40.3,102.1 C40.3,102.1 40.3,102.1 40.2,102.1 C39.6,102 39.1,101.6 39.1,101 Z M193.1,97.1 C193.1,97.1 193.1,97.1 193.1,97.1 C193.1,97 193.1,97 193.1,96.9 C193.1,96.3 193.6,95.8 194.2,95.8 C194.8,95.8 195.3,96.3 195.3,96.9 C195.3,96.9 195.3,97 195.3,97 C195.3,97 195.3,97.1 195.3,97.1 C195.3,97.7 194.8,98.2 194.2,98.2 C193.6,98.2 193.1,97.7 193.1,97.1 Z M40.1,94.6 C39.5,94.6 39,94 39,93.4 C39,92.8 39.6,92.3 40.2,92.3 C40.8,92.3 41.3,92.9 41.3,93.5 C41.3,94.1 40.8,94.6 40.1,94.6 C40.2,94.6 40.2,94.6 40.1,94.6 Z M192.7,89.6 C192.6,89 193.1,88.4 193.7,88.4 C194.3,88.3 194.9,88.8 194.9,89.4 C194.9,89.4 194.9,89.4 194.9,89.4 C195,90 194.5,90.6 193.9,90.6 C193.9,90.6 193.8,90.6 193.8,90.6 C193.3,90.6 192.8,90.2 192.7,89.6 Z M40.7,87.2 C40.1,87.1 39.7,86.6 39.8,85.9 C39.9,85.3 40.4,84.9 41.1,84.9 C41.7,85 42.1,85.6 42,86.2 C41.9,86.8 41.4,87.2 40.9,87.2 C40.8,87.2 40.8,87.2 40.7,87.2 Z M191.6,82.4 C191.5,81.8 191.9,81.2 192.5,81.1 C193.1,81 193.7,81.4 193.8,82 C193.9,82.6 193.5,83.2 192.9,83.3 C192.8,83.3 192.8,83.3 192.7,83.3 C192.2,83.3 191.8,82.9 191.6,82.4 Z M42,79.8 C41.4,79.7 41,79.1 41.2,78.5 C41.3,77.9 41.9,77.5 42.5,77.7 C43.1,77.8 43.5,78.5 43.3,79 C43.2,79.5 42.7,79.9 42.2,79.9 C42.2,79.9 42.1,79.9 42,79.8 Z M189.9,75.2 C189.7,74.6 190.1,74 190.7,73.8 C191.3,73.6 191.9,74 192.1,74.6 C192.3,75.2 191.9,75.8 191.3,76 C191.2,76 191.1,76 191,76 C190.5,76 190,75.7 189.9,75.2 Z M44.1,72.7 C43.5,72.5 43.2,71.9 43.4,71.3 C43.6,70.7 44.2,70.4 44.8,70.6 C45.4,70.8 45.7,71.4 45.5,72 C45.3,72.5 44.9,72.8 44.5,72.8 C44.3,72.8 44.2,72.7 44.1,72.7 Z M187.4,68.3 C187.2,67.7 187.4,67.1 188,66.8 C188.6,66.6 189.2,66.8 189.5,67.4 C189.7,68 189.5,68.6 188.9,68.9 C188.8,69 188.6,69 188.5,69 C188,69 187.6,68.8 187.4,68.3 Z M46.8,65.8 C46.2,65.5 46,64.9 46.3,64.3 C46.6,63.7 47.2,63.5 47.8,63.8 C48.4,64.1 48.6,64.7 48.3,65.3 C48.1,65.7 47.7,65.9 47.3,65.9 C47.1,65.9 46.9,65.8 46.8,65.8 Z M184.3,61.7 C184,61.2 184.2,60.5 184.8,60.2 C185.3,59.9 186,60.1 186.3,60.7 C186.6,61.2 186.4,61.9 185.8,62.2 C185.6,62.3 185.5,62.3 185.3,62.3 C184.9,62.3 184.5,62.1 184.3,61.7 Z M50.1,59.1 C49.6,58.8 49.4,58.1 49.7,57.6 C50,57.1 50.7,56.9 51.2,57.2 C51.7,57.5 51.9,58.2 51.6,58.7 C51.4,59.1 51,59.3 50.6,59.3 C50.5,59.3 50.3,59.2 50.1,59.1 Z M180.6,55.4 C180.3,54.9 180.4,54.2 180.9,53.9 C181.4,53.6 182.1,53.7 182.4,54.2 C182.7,54.7 182.6,55.4 182.1,55.7 C181.9,55.8 181.7,55.9 181.5,55.9 C181.1,55.9 180.8,55.7 180.6,55.4 Z M54.1,52.8 C53.6,52.4 53.5,51.7 53.9,51.2 C54.3,50.7 55,50.6 55.5,51 C56,51.4 56.1,52.1 55.8,52.6 C55.6,52.9 55.2,53.1 54.9,53.1 C54.5,53 54.3,53 54.1,52.8 Z M176.3,49.5 C175.9,49 176,48.3 176.5,47.9 C177,47.5 177.7,47.6 178.1,48.1 C178.5,48.6 178.4,49.3 177.9,49.7 C177.7,49.9 177.4,49.9 177.2,49.9 C176.8,49.9 176.5,49.7 176.3,49.5 Z M58.7,46.9 C58.2,46.5 58.2,45.8 58.6,45.3 C59,44.8 59.7,44.8 60.2,45.2 C60.7,45.6 60.7,46.3 60.3,46.8 C60.1,47 59.8,47.2 59.5,47.2 C59.1,47.2 58.9,47.1 58.7,46.9 Z M171.4,44 C171,43.6 171,42.9 171.4,42.4 C171.8,42 172.6,42 173,42.4 C173.4,42.8 173.4,43.5 173,44 C172.8,44.2 172.5,44.3 172.2,44.3 C171.9,44.3 171.6,44.2 171.4,44 Z M63.8,41.5 C63.4,41 63.4,40.3 63.9,39.9 C64.4,39.5 65.1,39.5 65.5,40 C65.9,40.5 65.9,41.2 65.4,41.6 C65.2,41.8 64.9,41.9 64.6,41.9 C64.3,41.9 64,41.8 63.8,41.5 Z M166,39 C165.5,38.6 165.5,37.9 165.9,37.4 C166.3,36.9 167,36.9 167.5,37.3 C168,37.7 168,38.4 167.6,38.9 C167.4,39.2 167.1,39.3 166.7,39.3 C166.5,39.3 166.2,39.2 166,39 Z M69.4,36.6 C69,36.1 69.1,35.4 69.6,35 C70.1,34.6 70.8,34.7 71.2,35.2 C71.6,35.7 71.5,36.4 71,36.8 C70.8,37 70.6,37 70.3,37 C69.9,37.1 69.6,36.9 69.4,36.6 Z M160.2,34.5 C159.7,34.2 159.6,33.5 159.9,33 C160.2,32.5 160.9,32.4 161.5,32.7 C162,33 162.1,33.7 161.8,34.3 C161.6,34.6 161.2,34.8 160.9,34.8 C160.6,34.7 160.4,34.7 160.2,34.5 Z M75.5,32.3 C75.2,31.8 75.3,31.1 75.9,30.8 C75.9,30.8 75.9,30.8 75.9,30.8 C76.4,30.5 77.1,30.6 77.4,31.1 C77.7,31.6 77.6,32.3 77,32.6 C76.8,32.7 76.6,32.8 76.4,32.8 C76,32.8 75.7,32.7 75.5,32.3 Z M153.9,30.7 C153.4,30.4 153.2,29.7 153.5,29.2 C153.8,28.7 154.5,28.5 155,28.8 C155.5,29.1 155.7,29.8 155.4,30.3 C155.2,30.7 154.8,30.9 154.4,30.9 C154.3,30.8 154.1,30.8 153.9,30.7 Z M81.9,28.6 C81.6,28 81.8,27.4 82.4,27.1 C82.9,26.8 83.6,27 83.9,27.6 C84.2,28.2 84,28.8 83.4,29.1 C83.2,29.2 83.1,29.2 82.9,29.2 C82.5,29.2 82.1,29 81.9,28.6 Z M147.3,27.4 C146.7,27.2 146.5,26.5 146.7,25.9 C146.9,25.3 147.6,25.1 148.2,25.3 C148.8,25.5 149,26.2 148.8,26.8 C148.6,27.2 148.2,27.5 147.8,27.5 C147.6,27.5 147.5,27.5 147.3,27.4 Z M88.7,25.5 C88.5,24.9 88.8,24.3 89.3,24.1 C89.9,23.9 90.5,24.2 90.7,24.7 C90.9,25.3 90.6,25.9 90.1,26.1 C90,26.2 89.8,26.2 89.7,26.2 C89.3,26.2 88.8,25.9 88.7,25.5 Z M140.5,24.8 C139.9,24.6 139.6,24 139.8,23.4 C140,22.8 140.6,22.5 141.2,22.7 C141.8,22.9 142.1,23.5 141.9,24.1 C141.7,24.6 141.3,24.9 140.8,24.9 C140.7,24.9 140.6,24.9 140.5,24.8 Z M95.7,23.1 C95.5,22.5 95.9,21.9 96.5,21.7 C97.1,21.5 97.7,21.9 97.9,22.5 C98.1,23.1 97.7,23.7 97.1,23.9 C97,23.9 96.9,23.9 96.8,23.9 C96.3,23.9 95.8,23.6 95.7,23.1 Z M133.4,22.9 C132.8,22.8 132.4,22.2 132.5,21.6 C132.6,21 133.2,20.6 133.8,20.7 C134.4,20.8 134.8,21.4 134.7,22 C134.6,22.5 134.1,22.9 133.6,22.9 C133.6,23 133.5,23 133.4,22.9 Z M103,21.4 C102.9,20.8 103.3,20.2 103.9,20.1 C104.5,20 105.1,20.4 105.2,21 C105.3,21.6 104.9,22.2 104.3,22.3 C104.2,22.3 104.2,22.3 104.1,22.3 C103.5,22.3 103,21.9 103,21.4 Z M126.2,21.7 C125.6,21.6 125.2,21.1 125.2,20.5 C125.3,19.9 125.8,19.5 126.4,19.5 C127,19.6 127.4,20.1 127.4,20.7 C127.3,21.3 126.9,21.7 126.3,21.7 C126.3,21.7 126.2,21.7 126.2,21.7 Z M110.3,20.4 C110.3,19.8 110.7,19.2 111.3,19.2 C111.9,19.2 112.5,19.6 112.5,20.2 C112.5,20.8 112.1,21.3 111.5,21.4 C111.5,21.4 111.4,21.4 111.4,21.4 C110.9,21.4 110.4,21 110.3,20.4 Z M118.9,21.2 C118.3,21.2 117.8,20.7 117.8,20.1 C117.8,19.5 118.3,19 118.9,19 C119.5,19 120,19.5 120,20.1 C120,20.7 119.5,21.2 118.9,21.2 C118.9,21.2 118.9,21.2 118.9,21.2 Z" id="Shape" fill="#D8EDFE"></path>
                    <circle id="Oval" fill="#D7FFFF" cx="117.5" cy="96.5" r="57.5"></circle>
                    <path d="M118.3,154.2 C118.3,153.6 118.8,153.1 119.4,153 C120,153 120.5,153.5 120.6,154.1 C120.6,154.7 120.1,155.2 119.5,155.3 C119.5,155.3 119.5,155.3 119.5,155.3 C118.8,155.3 118.3,154.8 118.3,154.2 Z M112,155.1 C111.4,155 110.9,154.5 111,153.9 C111.1,153.3 111.6,152.8 112.2,152.9 C112.8,153 113.3,153.5 113.2,154.1 C113.1,154.7 112.7,155.1 112.1,155.1 C112,155.1 112,155.1 112,155.1 Z M125.7,153.7 C125.6,153.1 126,152.5 126.6,152.4 C127.2,152.3 127.8,152.7 127.9,153.3 C128,153.9 127.6,154.5 127,154.6 C126.9,154.6 126.9,154.6 126.8,154.6 C126.2,154.6 125.7,154.2 125.7,153.7 Z M104.5,153.9 C103.9,153.8 103.5,153.2 103.7,152.6 C103.8,152 104.4,151.6 105,151.8 C105.6,151.9 106,152.5 105.8,153.1 C105.7,153.6 105.2,154 104.7,154 C104.7,153.9 104.6,153.9 104.5,153.9 Z M132.9,152.2 C132.7,151.6 133.1,151 133.7,150.8 C134.3,150.6 134.9,151 135.1,151.6 C135.3,152.2 134.9,152.8 134.3,153 C134.2,153 134.1,153 134,153 C133.5,153 133,152.7 132.9,152.2 Z M97.3,151.8 C96.7,151.6 96.4,151 96.6,150.4 C96.8,149.8 97.5,149.5 98,149.7 C98.6,149.9 98.9,150.6 98.7,151.1 C98.5,151.6 98.1,151.8 97.7,151.8 C97.6,151.8 97.5,151.8 97.3,151.8 Z M139.8,149.8 C139.5,149.2 139.8,148.6 140.4,148.3 C141,148 141.6,148.3 141.9,148.9 C142.2,149.5 141.9,150.1 141.3,150.4 C141.2,150.5 141,150.5 140.8,150.5 C140.4,150.4 140,150.2 139.8,149.8 Z M90.5,148.7 C89.9,148.4 89.7,147.7 90,147.2 C90.3,146.7 91,146.4 91.5,146.7 C92,147 92.3,147.7 92,148.2 C91.8,148.6 91.4,148.8 91,148.8 C90.8,148.9 90.6,148.8 90.5,148.7 Z M146.4,146.5 C146.1,146 146.2,145.3 146.8,145 C147.3,144.7 148,144.8 148.3,145.4 C148.6,145.9 148.5,146.6 147.9,146.9 C147.7,147 147.5,147.1 147.3,147.1 C147,147 146.6,146.8 146.4,146.5 Z M84,144.8 C83.5,144.4 83.4,143.8 83.7,143.2 C84.1,142.7 84.7,142.6 85.3,142.9 C85.8,143.2 85.9,143.9 85.6,144.5 C85.4,144.8 85,145 84.7,145 C84.4,145 84.2,145 84,144.8 Z M152.5,142.4 C152.1,141.9 152.2,141.2 152.7,140.8 C153.2,140.4 153.9,140.5 154.3,141 C154.7,141.5 154.6,142.2 154.1,142.6 C153.9,142.8 153.7,142.8 153.4,142.8 C153.1,142.8 152.8,142.7 152.5,142.4 Z M78.2,140.1 C77.7,139.7 77.7,139 78.1,138.5 C78.5,138 79.2,138 79.7,138.4 C80.2,138.8 80.2,139.5 79.8,140 C79.6,140.2 79.3,140.4 79,140.4 C78.6,140.4 78.4,140.3 78.2,140.1 Z M158.1,137.5 C157.7,137.1 157.6,136.4 158.1,135.9 C158.5,135.5 159.2,135.4 159.7,135.9 C160.1,136.3 160.2,137 159.7,137.5 C159.5,137.7 159.2,137.8 158.9,137.8 C158.6,137.8 158.3,137.7 158.1,137.5 Z M72.9,134.8 C72.5,134.3 72.6,133.6 73,133.2 C73.5,132.8 74.2,132.9 74.6,133.3 C75,133.8 74.9,134.5 74.5,134.9 C74.3,135.1 74,135.2 73.8,135.2 C73.5,135.1 73.1,135 72.9,134.8 Z M163,132 C162.5,131.6 162.4,130.9 162.8,130.4 C163.2,129.9 163.9,129.8 164.4,130.2 C164.9,130.6 165,131.3 164.6,131.8 C164.4,132.1 164,132.2 163.7,132.2 C163.4,132.2 163.2,132.2 163,132 Z M68.4,128.7 C68.1,128.2 68.2,127.5 68.7,127.2 C69.2,126.9 69.9,127 70.2,127.5 C70.5,128 70.4,128.7 69.9,129 C69.7,129.1 69.5,129.2 69.3,129.2 C69,129.2 68.6,129.1 68.4,128.7 Z M167.1,125.9 C166.6,125.6 166.4,124.9 166.7,124.4 C167,123.9 167.7,123.7 168.2,124 C168.7,124.3 168.9,125 168.6,125.5 C168.4,125.9 168,126.1 167.6,126.1 C167.5,126.1 167.3,126 167.1,125.9 Z M64.7,122.2 C64.4,121.6 64.7,121 65.2,120.7 C65.8,120.4 66.4,120.7 66.7,121.2 C67,121.8 66.7,122.4 66.2,122.7 C66,122.8 65.9,122.8 65.7,122.8 C65.3,122.8 64.9,122.6 64.7,122.2 Z M170.5,119.3 C169.9,119.1 169.7,118.4 169.9,117.8 C170.1,117.2 170.8,117 171.4,117.2 C172,117.4 172.2,118.1 172,118.7 C171.8,119.1 171.4,119.4 171,119.4 C170.7,119.4 170.6,119.4 170.5,119.3 Z M61.9,115.2 C61.7,114.6 62,114 62.6,113.8 C63.2,113.6 63.8,113.9 64,114.5 C64.2,115.1 63.9,115.7 63.3,115.9 C63.2,115.9 63.1,116 62.9,116 C62.5,116 62.1,115.7 61.9,115.2 Z M172.9,112.4 C172.3,112.2 171.9,111.6 172.1,111 C172.3,110.4 172.9,110 173.5,110.2 C174.1,110.4 174.5,111 174.3,111.6 C174.2,112.1 173.7,112.4 173.2,112.4 C173.1,112.4 173,112.4 172.9,112.4 Z M60,108 C60,108 60,108 60,108 C59.9,107.4 60.3,106.8 60.9,106.7 C61.5,106.6 62.1,107 62.2,107.6 C62.3,108.2 61.9,108.8 61.3,108.9 C61.2,108.9 61.2,108.9 61.1,108.9 C60.6,108.9 60.1,108.5 60,108 Z M174.5,105.2 C173.9,105.1 173.5,104.6 173.5,104 C173.6,103.4 174.1,103 174.8,103 C175.4,103.1 175.8,103.6 175.8,104.2 C175.7,104.8 175.2,105.2 174.7,105.2 C174.6,105.2 174.5,105.2 174.5,105.2 Z M59,100.5 C59,100.5 59,100.5 59,100.5 C59,99.9 59.4,99.4 60,99.3 C60.6,99.3 61.1,99.7 61.2,100.3 C61.2,100.9 60.8,101.4 60.2,101.5 C60.2,101.5 60.1,101.5 60.1,101.5 C59.6,101.6 59.1,101.1 59,100.5 Z M174,96.7 C174,96.7 174,96.7 174,96.7 C174,96.6 174,96.6 174,96.6 C174,96 174.5,95.5 175.1,95.5 C175.7,95.5 176.2,96 176.2,96.6 C176.2,96.6 176.2,96.6 176.2,96.7 C176.2,96.7 176.2,96.7 176.2,96.8 C176.2,97.4 175.7,97.9 175.1,97.9 C174.5,97.8 174,97.3 174,96.7 Z M60.1,94.2 C59.5,94.2 59,93.6 59.1,93 C59.1,92.4 59.7,91.9 60.3,92 C60.9,92 61.4,92.6 61.3,93.2 C61.2,93.8 60.7,94.2 60.1,94.2 C60.1,94.2 60.1,94.2 60.1,94.2 Z M173.5,89.4 C173.4,88.8 173.8,88.2 174.5,88.1 C175.1,88 175.7,88.5 175.7,89.1 C175.8,89.7 175.3,90.3 174.7,90.3 C174.7,90.3 174.6,90.3 174.6,90.3 C174,90.4 173.6,89.9 173.5,89.4 Z M60.9,86.9 C60.3,86.8 59.9,86.2 60,85.6 C60,85.6 60,85.6 60,85.6 C60.1,85 60.7,84.6 61.3,84.7 C61.9,84.8 62.3,85.4 62.2,86 C62.1,86.5 61.6,86.9 61.1,86.9 C61,86.9 60.9,86.9 60.9,86.9 Z M172.1,82.3 C171.9,81.7 172.3,81.1 172.9,80.9 C173.5,80.7 174.1,81.1 174.3,81.7 C174.5,82.3 174.1,82.9 173.5,83.1 C173.4,83.1 173.3,83.1 173.2,83.1 C172.7,83.1 172.2,82.8 172.1,82.3 Z M62.6,79.7 C62,79.5 61.7,78.9 61.9,78.3 C62.1,77.7 62.7,77.4 63.3,77.6 C63.9,77.8 64.2,78.4 64,79 C63.8,79.5 63.4,79.8 62.9,79.8 C62.8,79.8 62.7,79.7 62.6,79.7 Z M169.8,75.4 C169.6,74.8 169.8,74.2 170.4,73.9 C171,73.7 171.6,73.9 171.9,74.5 C171.9,74.5 171.9,74.5 171.9,74.5 C172.1,75.1 171.9,75.7 171.3,76 C171.2,76.1 171,76.1 170.9,76.1 C170.4,76.1 170,75.9 169.8,75.4 Z M65.2,72.8 C64.6,72.5 64.4,71.9 64.7,71.3 C65,70.7 65.6,70.5 66.2,70.8 C66.8,71.1 67,71.7 66.7,72.3 C66.5,72.7 66.1,72.9 65.7,72.9 C65.5,72.9 65.4,72.9 65.2,72.8 Z M166.6,68.9 C166.3,68.4 166.5,67.7 167,67.4 C167.5,67.1 168.2,67.3 168.5,67.8 C168.8,68.3 168.6,69 168.1,69.3 C167.9,69.4 167.7,69.4 167.5,69.4 C167.2,69.5 166.9,69.3 166.6,68.9 Z M68.7,66.3 C68.2,66 68,65.3 68.4,64.8 C68.7,64.3 69.4,64.1 69.9,64.5 C70.4,64.8 70.6,65.5 70.2,66 C70,66.3 69.6,66.5 69.3,66.5 C69.1,66.5 68.9,66.4 68.7,66.3 Z M162.7,62.9 C162.3,62.4 162.4,61.7 162.9,61.3 C163.4,60.9 164.1,61 164.5,61.5 C164.9,62 164.8,62.7 164.3,63.1 C164.1,63.2 163.9,63.3 163.6,63.3 C163.2,63.3 162.9,63.2 162.7,62.9 Z M73,60.3 C72.5,59.9 72.5,59.2 72.9,58.7 C73.3,58.2 74,58.2 74.5,58.6 C75,59 75,59.7 74.6,60.2 C74.4,60.5 74.1,60.6 73.8,60.6 C73.4,60.6 73.2,60.5 73,60.3 Z M158,57.4 C157.6,57 157.6,56.3 158,55.8 C158.4,55.4 159.2,55.4 159.6,55.8 C159.6,55.8 159.6,55.8 159.6,55.8 C160,56.2 160,57 159.6,57.4 C159.4,57.6 159.1,57.7 158.8,57.7 C158.5,57.7 158.2,57.6 158,57.4 Z M78,54.9 C77.6,54.4 77.6,53.7 78.1,53.3 C78.6,52.9 79.3,52.9 79.7,53.4 C80.1,53.9 80.1,54.6 79.6,55 C79.4,55.2 79.1,55.3 78.8,55.3 C78.5,55.3 78.2,55.2 78,54.9 Z M152.6,52.6 C152.1,52.2 152,51.5 152.4,51 C152.8,50.5 153.5,50.4 154,50.8 C154.5,51.2 154.6,51.9 154.2,52.4 C154,52.7 153.7,52.8 153.3,52.8 C153.1,52.8 152.8,52.7 152.6,52.6 Z M83.7,50.2 C83.4,49.7 83.5,49 84,48.6 C84.5,48.2 85.2,48.4 85.6,48.9 C86,49.4 85.8,50.1 85.3,50.5 C85.1,50.6 84.9,50.7 84.7,50.7 C84.2,50.7 83.9,50.5 83.7,50.2 Z M146.7,48.4 C146.2,48.1 146,47.4 146.3,46.9 C146.6,46.4 147.3,46.2 147.8,46.5 C148.3,46.8 148.5,47.5 148.2,48 C148,48.3 147.6,48.5 147.2,48.5 C147.1,48.6 146.9,48.5 146.7,48.4 Z M89.9,46.3 C89.6,45.8 89.8,45.1 90.4,44.8 C90.9,44.5 91.6,44.7 91.9,45.3 C92.2,45.8 92,46.5 91.4,46.8 C91.2,46.9 91.1,46.9 90.9,46.9 C90.5,46.9 90.1,46.6 89.9,46.3 Z M140.3,45.1 C139.7,44.9 139.5,44.2 139.7,43.6 C140,43 140.6,42.8 141.2,43 C141.8,43.2 142,43.9 141.8,44.5 C141.6,44.9 141.2,45.2 140.8,45.2 C140.6,45.2 140.4,45.2 140.3,45.1 Z M96.6,43.1 C96.4,42.5 96.7,41.9 97.3,41.7 C97.9,41.5 98.5,41.8 98.7,42.4 C98.9,43 98.6,43.6 98,43.8 C97.9,43.8 97.7,43.9 97.6,43.9 C97.2,43.9 96.7,43.6 96.6,43.1 Z M133.5,42.6 C132.9,42.4 132.6,41.8 132.7,41.2 C132.9,40.6 133.5,40.3 134.1,40.4 C134.7,40.6 135,41.2 134.9,41.8 C134.8,42.3 134.3,42.6 133.8,42.6 C133.7,42.6 133.6,42.6 133.5,42.6 Z M103.6,40.9 C103.5,40.3 103.8,39.7 104.4,39.6 C104.4,39.6 104.4,39.6 104.4,39.6 C105,39.5 105.6,39.8 105.7,40.4 C105.8,41 105.5,41.6 104.9,41.7 C104.8,41.7 104.7,41.7 104.7,41.7 C104.2,41.8 103.7,41.4 103.6,40.9 Z M126.5,41 C125.9,40.9 125.5,40.3 125.6,39.7 C125.7,39.1 126.3,38.7 126.9,38.8 C127.5,38.9 127.9,39.5 127.8,40.1 C127.7,40.7 127.2,41 126.7,41 C126.6,41 126.5,41 126.5,41 Z M110.8,39.6 C110.7,39 111.2,38.4 111.8,38.4 C111.8,38.4 111.8,38.4 111.8,38.4 C112.4,38.3 113,38.8 113,39.4 C113.1,40 112.6,40.6 112,40.6 C112,40.6 111.9,40.6 111.9,40.6 C111.4,40.6 110.9,40.2 110.8,39.6 Z M119.3,40.3 C118.7,40.3 118.2,39.8 118.2,39.1 C118.2,38.5 118.7,38 119.3,38 C119.9,38 120.4,38.5 120.4,39.2 C120.4,39.9 119.9,40.3 119.3,40.3 C119.3,40.3 119.3,40.3 119.3,40.3 Z" id="Shape" fill="#59EAE3"></path>
                    <circle id="Oval" fill="#F3FEFF" cx="117.7" cy="96.7" r="37.7"></circle>
                    <path d="M117.2,136.2 C116.6,136.2 116.1,135.7 116.1,135.1 C116.1,134.5 116.6,134 117.2,134 C117.8,134 118.3,134.5 118.3,135.1 C118.3,135.7 117.8,136.2 117.2,136.2 Z M109.6,135.5 C109,135.4 108.6,134.8 108.7,134.2 C108.8,133.6 109.4,133.2 110,133.3 C110.6,133.4 111,134 110.9,134.6 C110.8,135.1 110.3,135.5 109.8,135.5 C109.7,135.5 109.6,135.5 109.6,135.5 Z M123.5,134.6 C123.4,134 123.8,133.4 124.4,133.3 C125,133.2 125.6,133.6 125.7,134.2 C125.8,134.8 125.4,135.4 124.8,135.5 C124.7,135.5 124.7,135.5 124.6,135.5 C124.1,135.5 123.6,135.1 123.5,134.6 Z M102.2,133.3 C101.6,133.1 101.4,132.4 101.6,131.8 C101.8,131.2 102.5,131 103.1,131.2 C103.7,131.4 103.9,132.1 103.7,132.7 C103.5,133.1 103.1,133.4 102.7,133.4 C102.5,133.4 102.4,133.3 102.2,133.3 Z M130.7,132.6 C130.5,132 130.7,131.4 131.3,131.1 C131.9,130.9 132.5,131.1 132.8,131.7 C133,132.3 132.8,132.9 132.2,133.2 C132.1,133.3 131.9,133.3 131.8,133.3 C131.3,133.3 130.9,133.1 130.7,132.6 Z M95.5,129.7 C95,129.4 94.9,128.7 95.2,128.2 C95.5,127.7 96.2,127.5 96.7,127.9 C97.2,128.2 97.3,128.9 97,129.4 C96.8,129.7 96.4,129.9 96.1,129.9 C95.9,129.9 95.7,129.8 95.5,129.7 Z M137.3,129.3 C137,128.8 137.1,128.1 137.6,127.8 C138.1,127.5 138.8,127.6 139.1,128.1 C139.4,128.6 139.3,129.3 138.8,129.6 C138.6,129.7 138.4,129.8 138.2,129.8 C137.9,129.8 137.6,129.6 137.3,129.3 Z M89.5,124.8 C89.1,124.4 89.1,123.7 89.5,123.2 C89.9,122.8 90.6,122.8 91.1,123.2 C91.5,123.6 91.5,124.3 91.1,124.8 C90.9,125 90.6,125.1 90.3,125.1 C90,125.1 89.8,125 89.5,124.8 Z M143.2,124.8 C142.8,124.4 142.8,123.7 143.2,123.2 C143.6,122.8 144.3,122.8 144.8,123.2 C145.2,123.6 145.2,124.3 144.8,124.8 C144.6,125 144.3,125.1 144,125.1 C143.7,125.1 143.5,125 143.2,124.8 Z M84.7,118.9 C84.4,118.4 84.5,117.7 85,117.4 C85.5,117.1 86.2,117.2 86.5,117.7 C86.8,118.2 86.7,118.9 86.2,119.2 C86,119.3 85.8,119.4 85.6,119.4 C85.2,119.4 84.9,119.2 84.7,118.9 Z M148.1,119.1 C147.6,118.8 147.4,118.1 147.8,117.6 C148.1,117.1 148.8,116.9 149.3,117.3 C149.8,117.6 150,118.3 149.6,118.8 C149.4,119.1 149,119.3 148.7,119.3 C148.5,119.3 148.3,119.3 148.1,119.1 Z M81,112.1 C80.8,111.5 81,110.9 81.6,110.6 C82.2,110.4 82.8,110.6 83.1,111.2 C83.3,111.8 83.1,112.4 82.5,112.7 C82.4,112.8 82.2,112.8 82.1,112.8 C81.6,112.8 81.2,112.6 81,112.1 Z M151.8,112.7 C151.2,112.5 151,111.8 151.2,111.2 C151.4,110.6 152.1,110.4 152.7,110.6 C153.3,110.8 153.5,111.5 153.3,112.1 C153.1,112.5 152.7,112.8 152.3,112.8 C152.1,112.8 152,112.7 151.8,112.7 Z M78.8,104.8 C78.7,104.2 79.1,103.6 79.7,103.5 C80.3,103.4 80.9,103.8 81,104.4 C81.1,105 80.7,105.6 80.1,105.7 C80,105.7 80,105.7 79.9,105.7 C79.4,105.7 78.9,105.4 78.8,104.8 Z M154.2,105.6 C153.6,105.5 153.2,104.9 153.3,104.3 C153.4,103.7 154,103.3 154.6,103.4 C155.2,103.5 155.6,104.1 155.5,104.7 C155.4,105.2 154.9,105.6 154.4,105.6 C154.4,105.6 154.3,105.6 154.2,105.6 Z M78,97.2 C78,96.6 78.5,96.1 79.1,96.1 C79.7,96.1 80.2,96.6 80.2,97.2 C80.2,97.8 79.7,98.3 79.1,98.3 C78.5,98.3 78,97.8 78,97.2 Z M154,97.1 C154,97.1 154,97.1 154,97.1 C154,97 154,97 154,96.9 C154,96.3 154.5,95.8 155.1,95.8 C155.7,95.8 156.2,96.3 156.2,96.9 C156.2,96.9 156.2,97 156.2,97 C156.2,97 156.2,97.1 156.2,97.1 C156.2,97.7 155.7,98.2 155.1,98.2 C154.5,98.2 154,97.7 154,97.1 Z M79.6,90.9 C79,90.8 78.6,90.2 78.7,89.6 C78.8,89 79.4,88.6 80,88.7 C80.6,88.8 81,89.4 80.9,90 C80.8,90.5 80.3,90.9 79.8,90.9 C79.8,90.9 79.7,90.9 79.6,90.9 Z M153.3,89.8 C153.2,89.2 153.6,88.6 154.2,88.5 C154.8,88.4 155.4,88.8 155.5,89.4 C155.6,90 155.2,90.6 154.6,90.7 C154.5,90.7 154.4,90.7 154.4,90.7 C153.9,90.7 153.4,90.3 153.3,89.8 Z M81.6,83.7 C81,83.5 80.8,82.8 81,82.2 C81.2,81.6 81.9,81.4 82.5,81.6 C83.1,81.8 83.3,82.5 83.1,83.1 C82.9,83.5 82.5,83.8 82.1,83.8 C81.9,83.8 81.7,83.7 81.6,83.7 Z M151.2,82.9 C151,82.3 151.2,81.7 151.8,81.4 C152.4,81.2 153,81.4 153.3,82 C153.5,82.6 153.3,83.2 152.7,83.5 C152.6,83.6 152.4,83.6 152.3,83.6 C151.8,83.6 151.4,83.3 151.2,82.9 Z M84.9,77 C84.4,76.7 84.2,76 84.6,75.5 C84.9,75 85.6,74.8 86.1,75.2 C86.6,75.5 86.8,76.2 86.4,76.7 C86.2,77 85.8,77.2 85.5,77.2 C85.3,77.2 85.1,77.1 84.9,77 Z M147.7,76.5 C147.4,76 147.5,75.3 148,75 C148.5,74.7 149.2,74.8 149.5,75.3 C149.8,75.8 149.7,76.5 149.2,76.9 C149,77 148.8,77.1 148.6,77.1 C148.3,77 148,76.8 147.7,76.5 Z M89.4,71.1 C89,70.7 89,70 89.4,69.5 C89.8,69.1 90.5,69.1 91,69.5 C91.4,69.9 91.4,70.6 91,71.1 C90.8,71.3 90.5,71.4 90.2,71.4 C89.9,71.4 89.6,71.3 89.4,71.1 Z M143.1,70.9 C142.7,70.5 142.7,69.8 143.1,69.3 C143.5,68.9 144.2,68.9 144.7,69.3 C145.1,69.7 145.1,70.4 144.7,70.9 C144.5,71.1 144.2,71.2 143.9,71.2 C143.6,71.3 143.3,71.2 143.1,70.9 Z M95,66.2 C94.7,65.7 94.8,65 95.3,64.7 C95.8,64.4 96.5,64.5 96.8,65 C97.1,65.5 97,66.2 96.5,66.5 C96.3,66.6 96.1,66.7 95.9,66.7 C95.6,66.7 95.2,66.5 95,66.2 Z M137.5,66.4 C137,66.1 136.8,65.4 137.2,64.9 C137.5,64.4 138.2,64.2 138.7,64.6 C139.2,64.9 139.4,65.6 139,66.1 C138.8,66.4 138.4,66.6 138.1,66.6 C137.9,66.6 137.7,66.5 137.5,66.4 Z M101.5,62.5 C101.3,61.9 101.5,61.3 102.1,61 C102.7,60.8 103.3,61 103.6,61.6 C103.8,62.2 103.6,62.8 103,63.1 C102.9,63.2 102.7,63.2 102.6,63.2 C102.1,63.2 101.7,62.9 101.5,62.5 Z M131.1,63 C130.5,62.8 130.3,62.1 130.5,61.5 C130.7,60.9 131.4,60.7 132,60.9 C132.6,61.1 132.8,61.8 132.6,62.4 C132.4,62.8 132,63.1 131.6,63.1 C131.4,63.1 131.3,63 131.1,63 Z M108.5,60.1 C108.4,59.5 108.8,58.9 109.4,58.8 C110,58.7 110.6,59.1 110.7,59.7 C110.8,60.3 110.4,60.9 109.8,61 C109.7,61 109.7,61 109.6,61 C109.1,61 108.6,60.6 108.5,60.1 Z M124.2,60.9 C123.6,60.8 123.2,60.2 123.3,59.6 C123.4,59 124,58.6 124.6,58.7 C125.2,58.8 125.6,59.4 125.5,60 C125.4,60.5 124.9,60.9 124.4,60.9 C124.4,60.9 124.3,60.9 124.2,60.9 Z M115.9,59.1 C115.9,58.5 116.4,58 117,58 C117.6,58 118.1,58.5 118.1,59.1 C118.1,59.7 117.6,60.2 117,60.2 C116.4,60.2 115.9,59.7 115.9,59.1 Z" id="Shape" fill="#D8EDFE"></path>
                    <path d="M116.5,115 C116.5,114.4 117,113.9 117.6,113.9 C118.2,113.9 118.7,114.4 118.7,115 C118.7,115.6 118.2,116.1 117.6,116.1 C117,116.1 116.5,115.6 116.5,115 Z M110.1,114.6 C109.5,114.4 109.3,113.7 109.5,113.1 C109.7,112.5 110.4,112.3 111,112.5 C111.6,112.7 111.8,113.4 111.6,114 C111.4,114.4 111,114.7 110.6,114.7 C110.4,114.7 110.2,114.7 110.1,114.6 Z M123.6,114 C123.4,113.4 123.6,112.8 124.2,112.5 C124.8,112.3 125.4,112.5 125.7,113.1 C125.9,113.7 125.7,114.3 125.1,114.6 C125,114.7 124.8,114.7 124.7,114.7 C124.2,114.7 123.8,114.4 123.6,114 Z M103.7,110.4 C103.3,110 103.3,109.3 103.7,108.8 C104.1,108.4 104.8,108.4 105.3,108.8 C105.7,109.2 105.7,109.9 105.3,110.4 C105.1,110.6 104.8,110.7 104.5,110.7 C104.2,110.7 103.9,110.6 103.7,110.4 Z M129.8,110.4 C129.4,110 129.4,109.3 129.8,108.8 C130.2,108.4 130.9,108.4 131.4,108.8 C131.8,109.2 131.8,109.9 131.4,110.4 C131.2,110.6 130.9,110.7 130.6,110.7 C130.3,110.7 130,110.6 129.8,110.4 Z M99.5,104 C99.3,103.4 99.5,102.8 100.1,102.5 C100.7,102.3 101.3,102.5 101.6,103.1 C101.8,103.7 101.6,104.3 101,104.6 C100.9,104.7 100.7,104.7 100.6,104.7 C100.1,104.7 99.6,104.5 99.5,104 Z M134.2,104.6 C133.6,104.4 133.4,103.7 133.6,103.1 C133.8,102.5 134.5,102.3 135.1,102.5 C135.7,102.7 135.9,103.4 135.7,104 C135.5,104.4 135.1,104.7 134.7,104.7 C134.5,104.7 134.3,104.7 134.2,104.6 Z M98,96.6 C98,96 98.5,95.5 99.1,95.5 C99.7,95.5 100.2,96 100.2,96.6 C100.2,97.2 99.7,97.7 99.1,97.7 C98.5,97.7 98,97.2 98,96.6 Z M134.9,96.5 C134.9,96.5 134.9,96.5 134.9,96.5 C134.9,96.5 134.9,96.5 134.9,96.5 C134.9,95.8 135.4,95.3 136,95.3 C136.6,95.3 137.1,95.8 137.1,96.4 C137.1,96.4 137.1,96.4 137.1,96.4 C137.1,96.4 137.1,96.4 137.1,96.4 C137.1,96.4 137.1,96.4 137.1,96.4 C137.1,97 136.6,97.5 136,97.5 C135.4,97.6 134.9,97.1 134.9,96.5 Z M100,90.5 C99.4,90.3 99.2,89.6 99.4,89 C99.6,88.4 100.3,88.2 100.9,88.4 C101.5,88.6 101.7,89.3 101.5,89.9 C101.3,90.3 100.9,90.6 100.5,90.6 C100.3,90.6 100.2,90.6 100,90.5 Z M133.6,89.8 C133.4,89.2 133.6,88.6 134.2,88.3 C134.8,88.1 135.4,88.3 135.7,88.9 C135.9,89.5 135.7,90.1 135.1,90.4 C135,90.5 134.8,90.5 134.7,90.5 C134.2,90.5 133.7,90.2 133.6,89.8 Z M103.7,84.3 C103.3,83.9 103.3,83.2 103.7,82.7 C104.1,82.3 104.8,82.3 105.3,82.7 C105.7,83.1 105.7,83.8 105.3,84.3 C105.1,84.5 104.8,84.6 104.5,84.6 C104.2,84.6 103.9,84.5 103.7,84.3 Z M129.8,84.2 C129.4,83.8 129.4,83.1 129.8,82.6 C130.2,82.2 130.9,82.2 131.4,82.6 C131.8,83 131.8,83.7 131.4,84.2 C131.2,84.4 130.9,84.5 130.6,84.5 C130.3,84.5 130,84.4 129.8,84.2 Z M109.4,79.9 C109.2,79.3 109.4,78.7 110,78.4 C110.6,78.2 111.2,78.4 111.5,79 C111.7,79.6 111.5,80.2 110.9,80.5 C110.8,80.6 110.6,80.6 110.5,80.6 C110,80.6 109.6,80.3 109.4,79.9 Z M124.1,80.5 C123.5,80.3 123.3,79.6 123.5,79 C123.7,78.4 124.4,78.2 125,78.4 C125,78.4 125,78.4 125,78.4 C125.6,78.6 125.8,79.3 125.6,79.9 C125.4,80.3 125,80.6 124.6,80.6 C124.4,80.5 124.3,80.5 124.1,80.5 Z M117.5,79.2 C116.9,79.2 116.4,78.7 116.4,78.1 C116.4,77.5 116.9,77 117.5,77 C118.1,77 118.6,77.5 118.6,78.1 C118.6,78.7 118.1,79.2 117.5,79.2 C116.9,79.2 117.5,79.2 117.5,79.2 Z" id="Shape" fill="#00FFCE"></path>
                    <path d="M117.1,97.2375 C116.8,97.2375 116.5,97.1375 116.3,96.9375 C116.1,96.7375 116,96.4375 116,96.1375 C116,95.8375 116.1,95.5375 116.3,95.3375 C116.6,95.0375 116.9,94.9375 117.3,95.0375 C117.4,95.0375 117.4,95.0375 117.5,95.1375 C117.6,95.1375 117.6,95.2375 117.7,95.2375 C117.8,95.2375 117.8,95.3375 117.9,95.3375 C118,95.4375 118,95.4375 118,95.5375 C118,95.6375 118.1,95.6375 118.1,95.7375 C118.1,95.8375 118.2,95.8375 118.2,95.9375 C118.2,96.0375 118.2,96.0375 118.2,96.1375 C118.2,96.4375 118.1,96.7375 117.9,96.9375 C117.8,97.0375 117.8,97.0375 117.7,97.0375 C117.6,97.0375 117.6,97.1375 117.5,97.1375 C117.4,97.1375 117.4,97.1375 117.3,97.2375 C117.2,97.2375 117.1,97.2375 117.1,97.2375 Z" id="Shape" fill="#59EAE3"></path>
                    <path d="M117.1,98.2 C117,98.2 117,98.2 116.9,98.2 C116.8,98.2 116.8,98.2 116.7,98.1 C116.6,98.1 116.6,98 116.5,98 C116.4,98 116.4,97.9 116.3,97.9 C116.1,97.7 116,97.4 116,97.1 C116,96.8 116.1,96.5 116.3,96.3 C116.4,96.2 116.4,96.2 116.5,96.2 C116.6,96.2 116.6,96.1 116.7,96.1 C116.8,96.1 116.8,96 116.9,96 C117,96 117.2,96 117.3,96 C117.4,96 117.4,96 117.5,96.1 C117.6,96.1 117.6,96.2 117.7,96.2 C117.8,96.2 117.8,96.3 117.9,96.3 C118.1,96.5 118.2,96.8 118.2,97.1 C118.2,97.4 118.1,97.7 117.9,97.9 C117.8,98 117.8,98 117.7,98 C117.6,98 117.6,98.1 117.5,98.1 C117.4,98.1 117.4,98.1 117.3,98.2 C117.3,98.2 117.2,98.2 117.1,98.2 Z" id="Shape" fill="#59EAE3"></path>
                    <path d="M117.1,98.2 C117,98.2 117,98.2 116.9,98.2 C116.8,98.2 116.8,98.2 116.7,98.1 C116.6,98.1 116.6,98 116.5,98 C116.4,98 116.4,97.9 116.3,97.9 C116.1,97.7 116,97.4 116,97.1 C116,97 116,97 116,96.9 C116,96.8 116,96.8 116.1,96.7 C116.1,96.6 116.2,96.6 116.2,96.5 C116.2,96.4 116.3,96.4 116.3,96.3 C116.3,96.2 116.4,96.2 116.5,96.2 C116.6,96.2 116.6,96.1 116.7,96.1 C116.8,96.1 116.8,96 116.9,96 C117,96 117.2,96 117.3,96 C117.4,96 117.4,96 117.5,96.1 C117.6,96.1 117.6,96.2 117.7,96.2 C117.8,96.2 117.8,96.3 117.9,96.3 C118,96.4 118,96.4 118,96.5 C118,96.6 118.1,96.6 118.1,96.7 C118.1,96.8 118.1,96.8 118.2,96.9 C118.2,97 118.2,97 118.2,97.1 C118.2,97.2 118.2,97.2 118.2,97.3 C118.2,97.4 118.2,97.4 118.1,97.5 C118.1,97.6 118,97.6 118,97.7 C118,97.8 117.9,97.8 117.9,97.9 C117.8,98 117.8,98 117.7,98 C117.6,98 117.6,98.1 117.5,98.1 C117.4,98.1 117.4,98.1 117.3,98.2 C117.3,98.2 117.2,98.2 117.1,98.2 Z" id="Shape" fill="#59EAE3"></path>
                    <path d="M117.1,98.2 C117,98.2 117,98.2 116.9,98.2 C116.8,98.2 116.8,98.2 116.7,98.1 C116.6,98.1 116.6,98 116.5,98 C116.4,98 116.4,97.9 116.3,97.9 C116.1,97.7 116,97.4 116,97.1 C116,96.8 116.1,96.5 116.3,96.3 C116.4,96.2 116.4,96.2 116.5,96.2 C116.6,96.2 116.6,96.1 116.7,96.1 C116.8,96.1 116.8,96 116.9,96 C117,96 117.2,96 117.3,96 C117.4,96 117.4,96 117.5,96.1 C117.6,96.2 117.6,96.2 117.7,96.2 C117.8,96.2 117.8,96.3 117.9,96.3 C118.1,96.5 118.2,96.8 118.2,97.1 C118.2,97.4 118.1,97.7 117.9,97.9 C117.8,98 117.8,98 117.7,98 C117.6,98 117.6,98.1 117.5,98.1 C117.4,98.1 117.4,98.1 117.3,98.2 C117.3,98.2 117.2,98.2 117.1,98.2 Z" id="Shape" fill="#59EAE3"></path>
                    <polygon id="Shape" fill="url(#linearGradient-1)" opacity="0.27" points="143.6 1 143.6 193.2 98 193.2 98 1"></polygon>
                    <polygon id="Shape" fill="url(#linearGradient-2)" opacity="0.27" points="0 74 241.2 74 241.2 119.6 0 119.6"></polygon>
                    <polygon id="Shape" fill="url(#linearGradient-3)" opacity="0.27" points="41 148.3 168.3 21 200.5 53.2 73.1 180.5"></polygon>
                    <polygon id="Shape" fill="url(#linearGradient-4)" opacity="0.27" points="34 78 207.2 78 207.2 123.5 34 123.5"></polygon>
                    <polygon id="Shape" fill="url(#linearGradient-5)" opacity="0.27" points="51.1 0 221.7 170.5 189.5 202.7 19 32.2"></polygon>
                    <path d="M155.400209,94.9 C156.300209,96.4 156.300209,98.3 155.400209,99.9 C153.200209,103.7 150.500209,108.6 148.600209,111.8 C145.500209,117.2 142.400209,122.6 139.300209,128 C138.400209,129.6 137.200209,130.7 135.400209,131.1 C132.100209,131.1 128.900209,131.1 125.600209,131.1 C125.000209,131.1 122.700209,131.1 122.100209,131 C121.700209,130.3 122.600209,129.9 123.000209,129.5 C125.200209,125.7 127.300209,121.9 129.500209,118.1 C129.600209,118 129.700209,117.9 129.700209,117.7 C129.800209,117.5 130.000209,117.4 130.100209,117.2 C133.700209,111 137.300209,104.7 140.900209,98.5 C141.500209,97.5 141.600209,96.9 140.300209,95.4 C139.300209,94.2 138.500209,92.9 137.900209,91.4 C137.000209,89 135.500209,86.9 134.200209,84.7 C133.700209,83.8 133.200209,82.9 132.700209,82 C131.700209,80.3 130.800209,78.7 129.800209,77 C130.800209,77 131.800209,77 132.800209,77 C136.900209,77 141.000209,77 145.100209,77 C146.400209,79.3 147.800209,81.6 149.100209,83.9 C150.900209,86.9 153.400209,91.4 155.400209,94.9 Z" id="Shape" fill="#E3421D"></path>
                    <path d="M101.8,63.2068276 C99.8,63.2068276 98.3,64.0068276 97.3,65.7068276 C96.4,67.2068276 95.6,68.7068276 94.7,70.1068276 C93.1,72.9068276 91.4,75.7068276 89.8,78.6068276 C88.9,80.3068276 87.8,81.8068276 87,83.6068276 C89.4,87.7068276 91.8,91.9068276 94.2,96.0068276 C94.3,96.2068276 94.4,96.5068276 94.7,96.5068276 C95.8,95.0068276 96.7,93.4068276 97.6,91.8068276 C98.4,90.4068276 99.2,89.0068276 100,87.6068276 C102,84.0068276 104.1,80.5068276 106.1,76.9068276 C106.4,76.5068276 106.7,76.5068276 107,76.5068276 C113.9,76.5068276 120.9,76.5068276 127.8,76.5068276 C128.4,76.5068276 129.1,76.5068276 129.7,76.5068276 C130.7,76.5068276 131.7,76.5068276 132.7,76.5068276 C136.8,76.5068276 140.9,76.5068276 145,76.5068276 C144.9,76.3068276 144.8,76.1068276 144.7,75.9068276 C142.8,72.6068276 140.9,69.2068276 139,65.9068276 C137.9,63.9068276 136.2,62.9068276 133.8,63.0068276 L101.8,63.2068276 Z" id="Shape" fill="#3E85F7"></path>
                    <path d="M102.61547,112.5 C101.71547,110.6 100.61547,108.9 99.6154701,107.1 C97.8154701,103.9 95.9154701,100.7 94.1154701,97.5 C94.0154701,97.3 93.9154701,97.2 94.1154701,97 C95.2154701,95.5 96.1154701,93.9 97.0154701,92.3 C97.8154701,90.9 98.6154701,89.5 99.4154701,88.1 C101.41547,84.5 103.51547,81 105.51547,77.4 C105.81547,77 106.11547,77 106.41547,77 C113.31547,77 120.31547,77 127.21547,77 C127.81547,77 128.51547,77 129.11547,77 C130.11547,78.7 131.01547,80.3 132.01547,82 C132.51547,82.9 133.01547,83.8 133.51547,84.7 C134.51547,86.4 135.61547,88 136.51547,89.8 C137.61547,92 139.01547,94.1 140.21547,96.3 C140.71547,97.2 140.51547,97.7 140.11547,98.5 C136.51547,104.7 132.91547,110.9 129.31547,117.2 C129.21547,117.4 129.11547,117.5 128.91547,117.7 C128.61547,117.6 128.21547,117.6 127.91547,117.6 C120.71547,117.6 113.61547,117.6 106.41547,117.6 C106.11547,117.6 105.71547,117.7 105.41547,117.4 C104.71547,115.9 103.81547,114.4 102.91547,113 C102.91547,112.8 102.81547,112.6 102.61547,112.5 Z M117.31547,107.5 C122.91547,107.6 127.41547,102.9 127.51547,97.5 C127.51547,91.9 123.21547,87.3 117.51547,87.2 C111.81547,87.2 107.31547,91.5 107.31547,97.3 C107.21547,103.1 111.71547,107.5 117.31547,107.5 Z" id="Shape" fill="#EFEFEF"></path>
                    <path d="M129.25,118 C129.35,117.9 129.45,117.8 129.45,117.6 C129.15,117.5 128.75,117.5 128.45,117.5 C121.25,117.5 114.15,117.5 106.95,117.5 C106.65,117.5 106.25,117.6 105.95,117.3 C105.25,115.8 104.35,114.3 103.45,112.9 C103.15,112.9 103.15,112.7 103.15,112.4 C102.25,110.5 101.15,108.8 100.15,107 C98.35,103.8 96.45,100.6 94.65,97.4 C94.55,97.2 94.45,97.1 94.65,96.9 C94.35,96.9 94.25,96.6 94.15,96.4 C91.75,92.3 89.35,88.1 86.95,84 C86.85,84.1 86.75,84.2 86.75,84.3 C84.75,87.8 82.75,91.3 80.75,94.8 C79.75,96.5 79.75,98.2 80.75,99.9 L97.15,128.6 C97.85,129.9 99.05,130.6 100.45,130.9 C107.55,130.9 114.75,130.9 121.85,130.9 C122.15,130.3 122.55,129.7 122.85,129.1 C125.05,125.4 127.15,121.7 129.25,118" id="Shape" fill="#FFEB5C"></path>
                    <path d="M106,112 C106.2,112.1 106.3,112.3 106.3,112.5 C106,112.5 106,112.3 106,112 Z" id="Shape" fill="#FED03A"></path>
                    <circle id="Oval" fill="#FFFFFF" cx="118.1" cy="97.1" r="10.1"></circle>
                    <path d="M151.082258,141.48958 L164.482258,137.08958 C165.682258,136.68958 166.782258,137.68958 166.582258,138.88958 L163.982258,152.68958 C163.782258,153.88958 162.282258,154.38958 161.382258,153.58958 L150.682258,144.18958 C149.582258,143.38958 149.882258,141.88958 151.082258,141.48958 Z" id="Shape" fill="#E3421D"></path>
                    <circle id="Oval" fill="#FC7800" cx="60" cy="85" r="4"></circle>
                    <circle id="Oval" fill="#3E85F7" cx="147" cy="47" r="4"></circle>
                </g>
            </g>
        </g>
    </g>
</svg>