<?xml version="1.0" encoding="UTF-8"?>
<svg width="193px" height="193px" viewBox="0 0 193 193" version="1.1" xmlns="http://www.w3.org/2000/svg" xmlns:xlink="http://www.w3.org/1999/xlink">
    <!-- Generator: Sketch 48.1 (47250) - http://www.bohemiancoding.com/sketch -->
    <title>Group 2</title>
    <desc>Created with Sketch.</desc>
    <defs>
        <linearGradient x1="-3.36747779%" y1="43.5392264%" x2="103.367265%" y2="56.3978256%" id="linearGradient-1">
            <stop stop-color="#FFFFFF" stop-opacity="0" offset="0%"></stop>
            <stop stop-color="#736CED" offset="50.81%"></stop>
            <stop stop-color="#FFFFFF" stop-opacity="0" offset="100%"></stop>
        </linearGradient>
        <linearGradient x1="43.5683513%" y1="103.352608%" x2="56.4269568%" y2="-3.38218656%" id="linearGradient-2">
            <stop stop-color="#FFFFFF" stop-opacity="0" offset="0%"></stop>
            <stop stop-color="#736CED" offset="50.81%"></stop>
            <stop stop-color="#FFFFFF" stop-opacity="0" offset="100%"></stop>
        </linearGradient>
        <linearGradient x1="9.67475261%" y1="86.7449355%" x2="90.3267074%" y2="13.2828262%" id="linearGradient-3">
            <stop stop-color="#FFFFFF" stop-opacity="0" offset="0%"></stop>
            <stop stop-color="#736CED" offset="50.81%"></stop>
            <stop stop-color="#FFFFFF" stop-opacity="0" offset="100%"></stop>
        </linearGradient>
        <linearGradient x1="86.7487367%" y1="90.3250379%" x2="13.2475934%" y2="9.71591469%" id="linearGradient-4">
            <stop stop-color="#FFFFFF" stop-opacity="0" offset="0%"></stop>
            <stop stop-color="#736CED" offset="50.81%"></stop>
            <stop stop-color="#FFFFFF" stop-opacity="0" offset="100%"></stop>
        </linearGradient>
    </defs>
    <g id="8.-How-It-Works" stroke="none" stroke-width="1" fill="none" fill-rule="evenodd" transform="translate(-225.000000, -1465.000000)">
        <g id="Group-25" transform="translate(163.000000, 1465.000000)" fill-rule="nonzero">
            <g id="Group-19">
                <g id="Group-2" transform="translate(62.000000, 0.000000)">
                    <path d="M95.9,175.2 C95.9,174.6 96.4,174.1 97,174.1 C97.6,174.1 98.1,174.6 98.1,175.2 C98.1,175.8 97.6,176.3 97,176.3 C97,176.3 97,176.3 97,176.3 C96.4,176.3 95.9,175.8 95.9,175.2 Z M89.5,176.1 C88.9,176.1 88.4,175.5 88.5,174.9 C88.5,174.3 89.1,173.8 89.7,173.9 C90.3,173.9 90.8,174.5 90.7,175.1 C90.7,175.6 90.2,176.1 89.5,176.1 C89.6,176.1 89.5,176.1 89.5,176.1 Z M103.3,174.7 C103.2,174.1 103.7,173.5 104.3,173.5 C104.9,173.4 105.5,173.9 105.5,174.5 C105.6,175.1 105.1,175.7 104.5,175.7 C104.5,175.7 104.4,175.7 104.4,175.7 C103.9,175.7 103.4,175.3 103.3,174.7 Z M82,175.2 C81.4,175.1 81,174.5 81.1,173.9 C81.2,173.3 81.8,172.9 82.4,173 C83,173.1 83.4,173.7 83.3,174.3 C83.2,174.8 82.7,175.2 82.2,175.2 C82.1,175.2 82.1,175.2 82,175.2 Z M110.7,173.6 C110.6,173 111,172.4 111.6,172.3 C112.2,172.2 112.8,172.5 112.9,173.1 C113,173.7 112.7,174.3 112.1,174.4 C112,174.4 111.9,174.4 111.9,174.4 C111.3,174.5 110.8,174.1 110.7,173.6 Z M74.6,173.6 C74,173.4 73.7,172.8 73.8,172.2 C74,171.6 74.6,171.3 75.2,171.4 C75.8,171.6 76.1,172.2 76,172.8 C75.9,173.3 75.4,173.6 74.9,173.6 C74.8,173.6 74.7,173.6 74.6,173.6 Z M117.9,171.8 C117.7,171.2 118,170.6 118.6,170.4 C119.2,170.2 119.8,170.5 120,171.1 C120.2,171.7 119.9,172.3 119.3,172.5 C119.2,172.5 119.1,172.6 119,172.6 C118.5,172.5 118.1,172.2 117.9,171.8 Z M67.4,171.2 C66.8,171 66.5,170.3 66.8,169.8 C67,169.2 67.7,168.9 68.2,169.1 C68.8,169.3 69.1,170 68.8,170.5 C68.6,170.9 68.2,171.2 67.8,171.2 C67.7,171.3 67.6,171.3 67.4,171.2 Z M124.9,169.2 C124.7,168.6 124.9,168 125.5,167.7 C126.1,167.5 126.7,167.7 127,168.3 C127.2,168.9 127,169.5 126.4,169.8 C126.3,169.9 126.1,169.9 126,169.9 C125.5,169.9 125.1,169.6 124.9,169.2 Z M60.5,168.2 C59.9,167.9 59.7,167.3 60,166.7 C60.3,166.1 60.9,165.9 61.5,166.2 C62,166.5 62.3,167.1 62,167.7 C61.8,168.1 61.4,168.3 61,168.3 C60.9,168.3 60.7,168.3 60.5,168.2 Z M131.6,166 C131.3,165.5 131.5,164.8 132,164.5 C132.5,164.2 133.2,164.4 133.5,164.9 C133.8,165.4 133.6,166.1 133.1,166.4 C132.9,166.5 132.7,166.5 132.6,166.5 C132.2,166.6 131.8,166.4 131.6,166 Z M53.9,164.6 C53.9,164.6 53.9,164.6 53.9,164.6 C53.4,164.3 53.2,163.6 53.5,163.1 C53.8,162.6 54.5,162.4 55,162.7 C55.5,163 55.7,163.7 55.4,164.2 C55.2,164.5 54.8,164.7 54.4,164.7 C54.3,164.7 54.1,164.7 53.9,164.6 Z M138,162.2 C137.6,161.7 137.8,161 138.3,160.7 C138.8,160.4 139.5,160.5 139.8,161 C140.1,161.5 140,162.2 139.5,162.6 C139.3,162.7 139.1,162.8 138.9,162.8 C138.6,162.6 138.2,162.5 138,162.2 Z M47.7,160.3 C47.2,159.9 47.1,159.2 47.5,158.7 C47.9,158.2 48.6,158.1 49.1,158.5 C49.6,158.9 49.7,159.6 49.3,160.1 C49.1,160.4 48.7,160.5 48.4,160.5 C48.2,160.5 47.9,160.4 47.7,160.3 Z M144,157.7 C143.6,157.2 143.7,156.5 144.1,156.1 C144.6,155.7 145.3,155.8 145.7,156.2 C146.1,156.7 146,157.4 145.6,157.8 C145.4,158 145.1,158.1 144.9,158.1 C144.5,158.1 144.2,158 144,157.7 Z M41.9,155.4 C41.9,155.4 41.9,155.4 41.9,155.4 C41.5,155 41.4,154.3 41.8,153.8 C42.2,153.3 42.9,153.3 43.4,153.7 C43.8,154.1 43.9,154.8 43.5,155.3 C43.3,155.5 43,155.7 42.7,155.7 C42.4,155.7 42.1,155.6 41.9,155.4 Z M149.5,152.7 C149.1,152.3 149.1,151.6 149.5,151.1 C149.9,150.7 150.6,150.7 151.1,151.1 C151.5,151.5 151.5,152.2 151.1,152.7 C150.9,152.9 150.6,153 150.3,153 C150,153 149.7,152.9 149.5,152.7 Z M36.7,150 C36.3,149.5 36.3,148.8 36.8,148.4 C37.3,148 38,148 38.4,148.5 C38.8,149 38.8,149.7 38.3,150.1 C38.1,150.3 37.8,150.4 37.6,150.4 C37.2,150.4 36.9,150.3 36.7,150 Z M154.5,147.2 C154,146.8 153.9,146.1 154.3,145.6 C154.7,145.1 155.4,145 155.9,145.4 C156.4,145.8 156.5,146.5 156.1,147 C155.9,147.3 155.6,147.4 155.2,147.4 C155,147.5 154.7,147.4 154.5,147.2 Z M31.9,144.1 C31.5,143.6 31.6,142.9 32.1,142.5 C32.6,142.1 33.3,142.2 33.7,142.7 C34.1,143.2 34,143.9 33.5,144.3 C33.3,144.4 33.1,144.5 32.8,144.5 C32.5,144.6 32.1,144.4 31.9,144.1 Z M159,141.3 C158.5,141 158.3,140.3 158.7,139.8 C159,139.3 159.7,139.1 160.2,139.5 C160.7,139.8 160.9,140.5 160.5,141 C160.3,141.3 159.9,141.5 159.6,141.5 C159.4,141.5 159.2,141.4 159,141.3 Z M27.8,137.8 C27.5,137.3 27.7,136.6 28.2,136.3 C28.7,136 29.4,136.2 29.7,136.7 C30,137.2 29.8,137.9 29.3,138.2 C29.1,138.3 28.9,138.4 28.7,138.4 C28.3,138.4 28,138.2 27.8,137.8 Z M162.8,134.9 C162.3,134.6 162,133.9 162.3,133.4 C162.6,132.9 163.3,132.6 163.8,132.9 C164.3,133.2 164.6,133.9 164.3,134.4 C164.3,134.4 164.3,134.4 164.3,134.4 C164.1,134.8 163.7,135 163.3,135 C163.2,135 163,135 162.8,134.9 Z M24.2,131.1 C23.9,130.5 24.2,129.9 24.7,129.6 C25.3,129.3 25.9,129.6 26.2,130.1 C26.5,130.7 26.2,131.3 25.7,131.6 C25.6,131.7 25.4,131.7 25.2,131.7 C24.8,131.8 24.4,131.5 24.2,131.1 Z M166.1,128.2 C165.5,128 165.3,127.3 165.5,126.7 C165.7,126.1 166.4,125.9 167,126.1 C167.6,126.3 167.8,127 167.6,127.6 C167.4,128 167,128.3 166.6,128.3 C166.4,128.3 166.2,128.3 166.1,128.2 Z M21.4,124.2 C21.2,123.6 21.5,123 22.1,122.8 C22.7,122.6 23.3,122.9 23.5,123.5 C23.7,124.1 23.4,124.7 22.8,124.9 C22.7,124.9 22.6,125 22.4,125 C22,124.9 21.6,124.6 21.4,124.2 Z M168.6,121.2 C168,121 167.7,120.4 167.8,119.8 C168,119.2 168.6,118.9 169.2,119 C169.8,119.2 170.1,119.8 170,120.4 C169.9,120.9 169.4,121.2 168.9,121.2 C168.9,121.3 168.8,121.3 168.6,121.2 Z M19.2,116.9 C19.1,116.3 19.4,115.7 20,115.6 C20.6,115.5 21.2,115.8 21.3,116.4 C21.4,117 21.1,117.6 20.5,117.7 C20.4,117.7 20.3,117.7 20.2,117.7 C19.8,117.8 19.4,117.4 19.2,116.9 Z M170.5,114 C169.9,113.9 169.5,113.3 169.6,112.7 C169.7,112.1 170.3,111.7 170.9,111.8 C171.5,111.9 171.9,112.5 171.8,113.1 C171.7,113.6 171.2,114 170.7,114 C170.7,114 170.6,114 170.5,114 Z M17.8,109.5 C17.8,109.5 17.8,109.5 17.8,109.5 C17.7,108.9 18.1,108.3 18.7,108.2 C19.3,108.1 19.9,108.5 20,109.1 C20.1,109.7 19.7,110.3 19.1,110.4 C19,110.4 19,110.4 18.9,110.4 C18.3,110.5 17.9,110.1 17.8,109.5 Z M171.7,106.7 C171.1,106.6 170.6,106.1 170.7,105.5 C170.8,104.9 171.3,104.4 171.9,104.5 C172.5,104.6 173,105.1 172.9,105.7 C172.8,106.3 172.4,106.7 171.8,106.7 C171.8,106.7 171.7,106.7 171.7,106.7 Z M17,102 C17,101.4 17.4,100.9 18.1,100.8 C18.7,100.8 19.2,101.2 19.3,101.9 C19.3,102.5 18.9,103 18.2,103.1 C18.2,103.1 18.2,103.1 18.1,103.1 C17.6,103.1 17.1,102.6 17,102 Z M171,98.1 C171,98.1 171,98.1 171,98.1 C171,98 171,98 171,97.9 C171,97.3 171.5,96.8 172.1,96.8 C172.7,96.8 173.2,97.3 173.2,97.9 C173.2,97.9 173.2,98 173.2,98 C173.2,98 173.2,98.1 173.2,98.1 C173.2,98.7 172.7,99.2 172.1,99.2 C171.5,99.2 171,98.7 171,98.1 Z M18.1,95.6 C17.5,95.6 17,95 17,94.4 C17,93.8 17.6,93.3 18.2,93.3 C18.8,93.3 19.3,93.9 19.3,94.5 C19.2,95.1 18.8,95.6 18.1,95.6 C18.1,95.6 18.1,95.6 18.1,95.6 Z M170.7,90.6 C170.6,90 171.1,89.4 171.7,89.4 C172.3,89.3 172.9,89.8 172.9,90.4 C172.9,90.4 172.9,90.4 172.9,90.4 C173,91 172.5,91.6 171.9,91.6 C171.9,91.6 171.8,91.6 171.8,91.6 C171.2,91.6 170.7,91.2 170.7,90.6 Z M18.7,88.2 C18.1,88.1 17.7,87.6 17.8,86.9 C17.9,86.3 18.4,85.9 19.1,85.9 C19.7,86 20.1,86.6 20,87.2 C19.9,87.8 19.4,88.2 18.9,88.2 C18.8,88.2 18.8,88.2 18.7,88.2 Z M169.6,83.4 C169.5,82.8 169.9,82.2 170.5,82.1 C171.1,82 171.7,82.4 171.8,83 C171.9,83.6 171.5,84.2 170.9,84.3 C170.8,84.3 170.8,84.3 170.7,84.3 C170.2,84.3 169.7,83.9 169.6,83.4 Z M20,80.9 C19.4,80.8 19,80.2 19.2,79.6 C19.3,79 19.9,78.6 20.5,78.8 C21.1,78.9 21.5,79.6 21.3,80.1 C21.2,80.6 20.7,81 20.2,81 C20.2,80.9 20.1,80.9 20,80.9 Z M167.8,76.3 C167.6,75.7 168,75.1 168.6,74.9 C169.2,74.7 169.8,75.1 170,75.7 C170.2,76.3 169.8,76.9 169.2,77.1 C169.1,77.1 169,77.1 168.9,77.1 C168.4,77.1 168,76.7 167.8,76.3 Z M22,73.7 C21.4,73.5 21.1,72.9 21.3,72.3 C21.5,71.7 22.1,71.4 22.7,71.6 C23.3,71.8 23.6,72.4 23.4,73 C23.2,73.5 22.8,73.8 22.4,73.8 C22.3,73.8 22.1,73.7 22,73.7 Z M165.4,69.3 C165.2,68.7 165.4,68.1 166,67.8 C166.6,67.6 167.2,67.8 167.5,68.4 C167.7,69 167.5,69.6 166.9,69.9 C166.8,70 166.6,70 166.5,70 C166,70 165.6,69.8 165.4,69.3 Z M24.7,66.8 C24.1,66.5 23.9,65.9 24.2,65.3 C24.5,64.7 25.1,64.5 25.7,64.8 C26.3,65.1 26.5,65.7 26.2,66.3 C26,66.7 25.6,66.9 25.2,66.9 C25,66.9 24.9,66.8 24.7,66.8 Z M162.3,62.7 C162,62.2 162.2,61.5 162.8,61.2 C163.3,60.9 164,61.1 164.3,61.7 C164.6,62.2 164.4,62.9 163.8,63.2 C163.6,63.3 163.5,63.3 163.3,63.3 C162.9,63.3 162.5,63.1 162.3,62.7 Z M28.1,60.1 C27.6,59.8 27.4,59.1 27.7,58.6 C28,58.1 28.7,57.9 29.2,58.2 C29.7,58.5 29.9,59.2 29.6,59.7 C29.4,60.1 29,60.3 28.6,60.3 C28.4,60.3 28.3,60.2 28.1,60.1 Z M158.6,56.4 C158.3,55.9 158.4,55.2 158.9,54.9 C159.4,54.6 160.1,54.7 160.4,55.2 C160.7,55.7 160.6,56.4 160.1,56.7 C159.9,56.8 159.7,56.9 159.5,56.9 C159.1,56.9 158.8,56.7 158.6,56.4 Z M32.1,53.8 C31.6,53.4 31.5,52.7 31.9,52.2 C32.3,51.7 33,51.6 33.5,52 C34,52.4 34.1,53.1 33.8,53.6 C33.6,53.9 33.2,54.1 32.9,54.1 C32.5,54 32.3,54 32.1,53.8 Z M154.2,50.5 C153.8,50 153.9,49.3 154.4,48.9 C154.9,48.5 155.6,48.6 156,49.1 C156.4,49.6 156.3,50.3 155.8,50.7 C155.6,50.9 155.3,50.9 155.1,50.9 C154.8,50.9 154.4,50.7 154.2,50.5 Z M36.6,48 C36.1,47.6 36.1,46.9 36.5,46.4 C36.9,45.9 37.6,45.9 38.1,46.3 C38.6,46.7 38.6,47.4 38.2,47.9 C38,48.1 37.7,48.3 37.4,48.3 C37.1,48.2 36.9,48.1 36.6,48 Z M149.3,45 C148.9,44.6 148.9,43.9 149.3,43.4 C149.7,43 150.5,43 150.9,43.4 C151.3,43.8 151.3,44.5 150.9,45 C150.7,45.2 150.4,45.3 150.1,45.3 C149.9,45.3 149.6,45.2 149.3,45 Z M41.8,42.5 C41.4,42 41.4,41.3 41.9,40.9 C42.4,40.5 43.1,40.5 43.5,41 C43.9,41.5 43.9,42.2 43.4,42.6 C43.2,42.8 42.9,42.9 42.6,42.9 C42.3,42.9 42,42.8 41.8,42.5 Z M144,40 C143.5,39.6 143.5,38.9 143.9,38.4 C144.3,37.9 145,37.9 145.5,38.3 C146,38.7 146,39.4 145.6,39.9 C145.4,40.2 145.1,40.3 144.7,40.3 C144.4,40.3 144.2,40.2 144,40 Z M47.4,37.7 C47,37.2 47.1,36.5 47.6,36.1 C48.1,35.7 48.8,35.8 49.2,36.3 C49.6,36.8 49.5,37.5 49,37.9 C48.8,38.1 48.6,38.1 48.3,38.1 C47.9,38.1 47.6,37.9 47.4,37.7 Z M138.1,35.5 C137.6,35.2 137.5,34.5 137.8,34 C138.1,33.5 138.8,33.4 139.4,33.7 C139.9,34 140,34.7 139.7,35.3 C139.5,35.6 139.1,35.8 138.8,35.8 C138.5,35.8 138.3,35.7 138.1,35.5 Z M53.4,33.3 C53.1,32.8 53.2,32.1 53.8,31.8 C53.8,31.8 53.8,31.8 53.8,31.8 C54.3,31.5 55,31.6 55.3,32.1 C55.6,32.6 55.5,33.3 54.9,33.6 C54.7,33.7 54.5,33.8 54.3,33.8 C54,33.9 53.6,33.7 53.4,33.3 Z M131.9,31.7 C131.4,31.4 131.2,30.7 131.5,30.2 C131.8,29.7 132.5,29.5 133,29.8 C133.5,30.1 133.7,30.8 133.4,31.3 C133.2,31.7 132.8,31.9 132.4,31.9 C132.3,31.8 132.1,31.8 131.9,31.7 Z M59.9,29.6 C59.6,29 59.8,28.4 60.4,28.1 C60.9,27.8 61.6,28 61.9,28.6 C62.2,29.2 62,29.8 61.4,30.1 C61.2,30.2 61.1,30.2 60.9,30.2 C60.4,30.2 60.1,30 59.9,29.6 Z M125.3,28.4 C124.7,28.2 124.5,27.5 124.7,26.9 C124.9,26.3 125.6,26.1 126.2,26.3 C126.8,26.5 127,27.2 126.8,27.8 C126.6,28.2 126.2,28.5 125.8,28.5 C125.6,28.5 125.5,28.5 125.3,28.4 Z M66.6,26.5 C66.4,25.9 66.7,25.3 67.2,25.1 C67.8,24.9 68.4,25.2 68.6,25.7 C68.8,26.3 68.5,26.9 68,27.1 C67.9,27.2 67.7,27.2 67.6,27.2 C67.2,27.2 66.8,27 66.6,26.5 Z M118.5,25.9 C117.9,25.7 117.6,25.1 117.8,24.5 C118,23.9 118.6,23.6 119.2,23.8 C119.8,24 120.1,24.6 119.9,25.2 C119.7,25.7 119.3,26 118.8,26 C118.7,25.9 118.6,25.9 118.5,25.9 Z M73.7,24.1 C73.5,23.5 73.9,22.9 74.5,22.7 C75.1,22.5 75.7,22.9 75.9,23.5 C76.1,24.1 75.7,24.7 75.1,24.9 C75,24.9 74.9,24.9 74.8,24.9 C74.3,24.9 73.8,24.6 73.7,24.1 Z M111.4,23.9 C110.8,23.8 110.4,23.2 110.5,22.6 C110.6,22 111.2,21.6 111.8,21.7 C112.4,21.8 112.8,22.4 112.7,23 C112.6,23.5 112.1,23.9 111.6,23.9 C111.5,24 111.5,24 111.4,23.9 Z M80.9,22.4 C80.8,21.8 81.2,21.2 81.8,21.1 C82.4,21 83,21.4 83.1,22 C83.2,22.6 82.8,23.2 82.2,23.3 C82.1,23.3 82.1,23.3 82,23.3 C81.5,23.3 81,22.9 80.9,22.4 Z M104.1,22.7 C103.5,22.6 103.1,22.1 103.1,21.5 C103.2,20.9 103.7,20.5 104.3,20.5 C104.9,20.6 105.3,21.1 105.3,21.7 C105.2,22.3 104.8,22.7 104.2,22.7 C104.2,22.7 104.2,22.7 104.1,22.7 Z M88.3,21.4 C88.3,20.8 88.7,20.2 89.3,20.2 C89.9,20.2 90.5,20.6 90.5,21.2 C90.5,21.8 90.1,22.3 89.5,22.4 C89.5,22.4 89.4,22.4 89.4,22.4 C88.8,22.4 88.3,22 88.3,21.4 Z M96.8,22.2 C96.2,22.2 95.7,21.7 95.7,21.1 C95.7,20.5 96.2,20 96.8,20 C97.4,20 97.9,20.5 97.9,21.1 C98,21.7 97.5,22.2 96.8,22.2 C96.8,22.2 96.8,22.2 96.8,22.2 Z" id="Shape" fill="#D8EDFE"></path>
                    <circle id="Oval" fill="#D7FFFF" cx="95.5" cy="98.5" r="57.5"></circle>
                    <path d="M96.3128056,155.2 C96.3128056,154.6 96.8128056,154.1 97.4128056,154 C98.0128056,154 98.5128056,154.5 98.6128056,155.1 C98.6128056,155.7 98.1128056,156.2 97.5128056,156.3 C97.5128056,156.3 97.5128056,156.3 97.5128056,156.3 C96.8128056,156.2 96.3128056,155.8 96.3128056,155.2 Z M89.9128056,156 C89.3128056,155.9 88.8128056,155.4 88.9128056,154.8 C89.0128056,154.2 89.5128056,153.7 90.1128056,153.8 C90.7128056,153.9 91.2128056,154.4 91.1128056,155 C91.0128056,155.6 90.6128056,156 90.0128056,156 C90.0128056,156 90.0128056,156 89.9128056,156 Z M103.612806,154.6 C103.512806,154 103.912806,153.4 104.512806,153.3 C105.112806,153.2 105.712806,153.6 105.812806,154.2 C105.912806,154.8 105.512806,155.4 104.912806,155.5 C104.812806,155.5 104.812806,155.5 104.712806,155.5 C104.212806,155.5 103.712806,155.1 103.612806,154.6 Z M82.5128056,154.8 C81.9128056,154.7 81.5128056,154.1 81.7128056,153.5 C81.8128056,152.9 82.4128056,152.5 83.0128056,152.7 C83.6128056,152.8 84.0128056,153.4 83.8128056,154 C83.7128056,154.5 83.2128056,154.9 82.7128056,154.9 C82.7128056,154.8 82.6128056,154.8 82.5128056,154.8 Z M110.812806,153.1 C110.612806,152.5 111.012806,151.9 111.612806,151.7 C112.212806,151.5 112.812806,151.9 113.012806,152.5 C113.212806,153.1 112.812806,153.7 112.212806,153.9 C112.112806,153.9 112.012806,153.9 111.912806,153.9 C111.412806,153.9 111.012806,153.6 110.812806,153.1 Z M75.3128056,152.7 C74.7128056,152.5 74.4128056,151.9 74.6128056,151.3 C74.8128056,150.7 75.5128056,150.4 76.0128056,150.6 C76.6128056,150.8 76.9128056,151.5 76.7128056,152 C76.5128056,152.5 76.1128056,152.7 75.7128056,152.7 C75.5128056,152.8 75.4128056,152.7 75.3128056,152.7 Z M117.812806,150.7 C117.512806,150.1 117.812806,149.5 118.412806,149.2 C119.012806,148.9 119.612806,149.2 119.912806,149.8 C120.212806,150.4 119.912806,151 119.312806,151.3 C119.212806,151.4 119.012806,151.4 118.812806,151.4 C118.412806,151.3 118.012806,151.1 117.812806,150.7 Z M68.4128056,149.6 C67.8128056,149.3 67.6128056,148.6 67.9128056,148.1 C68.2128056,147.6 68.9128056,147.3 69.4128056,147.6 C69.9128056,147.9 70.2128056,148.6 69.9128056,149.1 C69.7128056,149.5 69.3128056,149.7 68.9128056,149.7 C68.8128056,149.8 68.6128056,149.7 68.4128056,149.6 Z M124.412806,147.4 C124.112806,146.9 124.212806,146.2 124.812806,145.9 C125.312806,145.6 126.012806,145.7 126.312806,146.3 C126.612806,146.8 126.512806,147.5 125.912806,147.8 C125.712806,147.9 125.512806,148 125.312806,148 C125.012806,147.9 124.612806,147.7 124.412806,147.4 Z M62.0128056,145.7 C61.5128056,145.3 61.4128056,144.7 61.7128056,144.1 C62.1128056,143.6 62.7128056,143.5 63.3128056,143.8 C63.8128056,144.1 63.9128056,144.8 63.6128056,145.4 C63.4128056,145.7 63.0128056,145.9 62.7128056,145.9 C62.4128056,145.9 62.2128056,145.9 62.0128056,145.7 Z M130.512806,143.3 C130.112806,142.8 130.212806,142.1 130.712806,141.7 C131.212806,141.3 131.912806,141.4 132.312806,141.9 C132.712806,142.4 132.612806,143.1 132.112806,143.5 C131.912806,143.7 131.712806,143.7 131.412806,143.7 C131.112806,143.7 130.712806,143.6 130.512806,143.3 Z M56.1128056,141.1 C55.6128056,140.7 55.6128056,140 56.0128056,139.5 C56.4128056,139 57.1128056,139 57.6128056,139.4 C58.1128056,139.8 58.1128056,140.5 57.7128056,141 C57.5128056,141.2 57.2128056,141.4 56.9128056,141.4 C56.6128056,141.3 56.3128056,141.3 56.1128056,141.1 Z M136.112806,138.4 C135.712806,138 135.612806,137.3 136.112806,136.8 C136.512806,136.4 137.212806,136.3 137.712806,136.8 C138.112806,137.2 138.212806,137.9 137.712806,138.4 C137.512806,138.6 137.212806,138.7 136.912806,138.7 C136.612806,138.8 136.312806,138.6 136.112806,138.4 Z M50.9128056,135.7 C50.5128056,135.2 50.6128056,134.5 51.0128056,134.1 C51.5128056,133.7 52.2128056,133.8 52.6128056,134.2 C53.0128056,134.7 52.9128056,135.4 52.5128056,135.8 C52.3128056,136 52.0128056,136.1 51.8128056,136.1 C51.4128056,136.1 51.1128056,135.9 50.9128056,135.7 Z M140.912806,132.9 C140.412806,132.5 140.312806,131.8 140.712806,131.3 C141.112806,130.8 141.812806,130.7 142.312806,131.1 C142.812806,131.5 142.912806,132.2 142.512806,132.7 C142.312806,133 141.912806,133.1 141.612806,133.1 C141.412806,133.1 141.112806,133.1 140.912806,132.9 Z M46.4128056,129.7 C46.1128056,129.2 46.2128056,128.5 46.7128056,128.2 C47.2128056,127.9 47.9128056,128 48.2128056,128.5 C48.5128056,129 48.4128056,129.7 47.9128056,130 C47.7128056,130.1 47.5128056,130.2 47.3128056,130.2 C47.0128056,130.2 46.6128056,130 46.4128056,129.7 Z M145.112806,126.8 C144.612806,126.5 144.412806,125.8 144.712806,125.3 C145.012806,124.8 145.712806,124.6 146.212806,124.9 C146.712806,125.2 146.912806,125.9 146.612806,126.4 C146.412806,126.8 146.012806,127 145.612806,127 C145.512806,127 145.312806,126.9 145.112806,126.8 Z M42.7128056,123.1 C42.4128056,122.5 42.7128056,121.9 43.2128056,121.6 C43.8128056,121.3 44.4128056,121.6 44.7128056,122.1 C45.0128056,122.7 44.7128056,123.3 44.2128056,123.6 C44.0128056,123.7 43.9128056,123.7 43.7128056,123.7 C43.3128056,123.7 42.9128056,123.5 42.7128056,123.1 Z M148.412806,120.3 C147.812806,120.1 147.612806,119.4 147.812806,118.8 C148.012806,118.2 148.712806,118 149.312806,118.2 C149.912806,118.4 150.112806,119.1 149.912806,119.7 C149.712806,120.1 149.312806,120.4 148.912806,120.4 C148.712806,120.3 148.612806,120.3 148.412806,120.3 Z M39.9128056,116.2 C39.7128056,115.6 40.0128056,115 40.6128056,114.8 C41.2128056,114.6 41.8128056,114.9 42.0128056,115.5 C42.2128056,116.1 41.9128056,116.7 41.3128056,116.9 C41.2128056,116.9 41.1128056,117 40.9128056,117 C40.5128056,116.9 40.0128056,116.6 39.9128056,116.2 Z M150.912806,113.3 C150.312806,113.1 149.912806,112.5 150.112806,111.9 C150.312806,111.3 150.912806,110.9 151.512806,111.1 C152.112806,111.3 152.512806,111.9 152.312806,112.5 C152.212806,113 151.712806,113.3 151.212806,113.3 C151.112806,113.3 151.012806,113.3 150.912806,113.3 Z M38.0128056,108.9 C38.0128056,108.9 38.0128056,108.9 38.0128056,108.9 C37.9128056,108.3 38.3128056,107.7 38.9128056,107.6 C39.5128056,107.5 40.1128056,107.9 40.2128056,108.5 C40.3128056,109.1 39.9128056,109.7 39.3128056,109.8 C39.2128056,109.8 39.2128056,109.8 39.1128056,109.8 C38.5128056,109.8 38.1128056,109.4 38.0128056,108.9 Z M152.412806,106.1 C151.812806,106 151.412806,105.5 151.412806,104.9 C151.512806,104.3 152.012806,103.9 152.712806,103.9 C153.312806,104 153.712806,104.5 153.712806,105.1 C153.612806,105.7 153.112806,106.1 152.612806,106.1 C152.512806,106.1 152.512806,106.1 152.412806,106.1 Z M37.0128056,101.4 C37.0128056,101.4 37.0128056,101.4 37.0128056,101.4 C37.0128056,100.8 37.4128056,100.3 38.0128056,100.2 C38.6128056,100.2 39.1128056,100.6 39.2128056,101.2 C39.2128056,101.8 38.8128056,102.3 38.2128056,102.4 C38.2128056,102.4 38.1128056,102.4 38.1128056,102.4 C37.5128056,102.5 37.0128056,102 37.0128056,101.4 Z M151.912806,97.6 C151.912806,97.6 151.912806,97.6 151.912806,97.6 C151.912806,97.5 151.912806,97.5 151.912806,97.5 C151.912806,96.9 152.412806,96.4 153.012806,96.4 C153.612806,96.4 154.112806,96.9 154.112806,97.5 C154.112806,97.5 154.112806,97.5 154.112806,97.6 C154.112806,97.6 154.112806,97.6 154.112806,97.7 C154.112806,98.3 153.612806,98.8 153.012806,98.8 C152.412806,98.7 151.912806,98.2 151.912806,97.6 Z M38.0128056,95.1 C37.4128056,95.1 36.9128056,94.5 37.0128056,93.9 C37.0128056,93.3 37.6128056,92.8 38.2128056,92.9 C38.8128056,92.9 39.3128056,93.5 39.2128056,94.1 C39.2128056,94.7 38.7128056,95.1 38.0128056,95.1 C38.1128056,95.1 38.1128056,95.1 38.0128056,95.1 Z M151.412806,90.3 C151.312806,89.7 151.712806,89.1 152.412806,89 C153.012806,88.9 153.612806,89.4 153.612806,90 C153.712806,90.6 153.212806,91.2 152.612806,91.2 C152.612806,91.2 152.512806,91.2 152.512806,91.2 C152.012806,91.3 151.512806,90.9 151.412806,90.3 Z M38.8128056,87.8 C38.2128056,87.7 37.8128056,87.1 37.9128056,86.5 C37.9128056,86.5 37.9128056,86.5 37.9128056,86.5 C38.0128056,85.9 38.6128056,85.5 39.2128056,85.6 C39.8128056,85.7 40.2128056,86.3 40.1128056,86.9 C40.0128056,87.4 39.5128056,87.8 39.0128056,87.8 C39.0128056,87.8 38.9128056,87.8 38.8128056,87.8 Z M150.112806,83.2 C149.912806,82.6 150.312806,82 150.912806,81.8 C151.512806,81.6 152.112806,82 152.312806,82.6 C152.512806,83.2 152.112806,83.8 151.512806,84 C151.412806,84 151.312806,84 151.212806,84 C150.612806,84 150.212806,83.7 150.112806,83.2 Z M40.5128056,80.6 C39.9128056,80.4 39.6128056,79.8 39.8128056,79.2 C40.0128056,78.6 40.6128056,78.3 41.2128056,78.5 C41.8128056,78.7 42.1128056,79.3 41.9128056,79.9 C41.7128056,80.4 41.3128056,80.7 40.8128056,80.7 C40.8128056,80.7 40.7128056,80.7 40.5128056,80.6 Z M147.812806,76.4 C147.612806,75.8 147.812806,75.2 148.412806,74.9 C149.012806,74.7 149.612806,74.9 149.912806,75.5 C149.912806,75.5 149.912806,75.5 149.912806,75.5 C150.112806,76.1 149.912806,76.7 149.312806,77 C149.212806,77.1 149.012806,77.1 148.912806,77.1 C148.412806,77.1 147.912806,76.8 147.812806,76.4 Z M43.2128056,73.7 C42.6128056,73.4 42.4128056,72.8 42.7128056,72.2 C43.0128056,71.6 43.6128056,71.4 44.2128056,71.7 C44.8128056,72 45.0128056,72.6 44.7128056,73.2 C44.5128056,73.6 44.1128056,73.8 43.7128056,73.8 C43.5128056,73.8 43.3128056,73.8 43.2128056,73.7 Z M144.612806,69.9 C144.312806,69.4 144.512806,68.7 145.012806,68.4 C145.512806,68.1 146.212806,68.3 146.512806,68.8 C146.812806,69.3 146.612806,70 146.112806,70.3 C145.912806,70.4 145.712806,70.4 145.512806,70.4 C145.212806,70.4 144.812806,70.2 144.612806,69.9 Z M46.7128056,67.2 C46.2128056,66.9 46.0128056,66.2 46.4128056,65.7 C46.7128056,65.2 47.4128056,65 47.9128056,65.4 C48.4128056,65.7 48.6128056,66.4 48.2128056,66.9 C48.0128056,67.2 47.6128056,67.4 47.3128056,67.4 C47.1128056,67.4 46.8128056,67.4 46.7128056,67.2 Z M140.712806,63.8 C140.312806,63.3 140.412806,62.6 140.912806,62.2 C141.412806,61.8 142.112806,61.9 142.512806,62.4 C142.912806,62.9 142.812806,63.6 142.312806,64 C142.112806,64.1 141.912806,64.2 141.612806,64.2 C141.212806,64.3 140.912806,64.1 140.712806,63.8 Z M51.0128056,61.2 C50.5128056,60.8 50.5128056,60.1 50.9128056,59.6 C51.3128056,59.1 52.0128056,59.1 52.5128056,59.5 C53.0128056,59.9 53.0128056,60.6 52.6128056,61.1 C52.4128056,61.4 52.1128056,61.5 51.8128056,61.5 C51.4128056,61.5 51.2128056,61.4 51.0128056,61.2 Z M136.012806,58.3 C135.612806,57.9 135.612806,57.2 136.012806,56.7 C136.412806,56.3 137.212806,56.3 137.612806,56.7 C137.612806,56.7 137.612806,56.7 137.612806,56.7 C138.012806,57.1 138.012806,57.9 137.612806,58.3 C137.412806,58.5 137.112806,58.6 136.812806,58.6 C136.512806,58.7 136.212806,58.5 136.012806,58.3 Z M56.0128056,55.8 C55.6128056,55.3 55.6128056,54.6 56.1128056,54.2 C56.6128056,53.8 57.3128056,53.8 57.7128056,54.3 C58.1128056,54.8 58.1128056,55.5 57.6128056,55.9 C57.4128056,56.1 57.1128056,56.2 56.8128056,56.2 C56.5128056,56.2 56.2128056,56.1 56.0128056,55.8 Z M130.612806,53.5 C130.112806,53.1 130.012806,52.4 130.412806,51.9 C130.812806,51.4 131.512806,51.3 132.012806,51.7 C132.512806,52.1 132.612806,52.8 132.212806,53.3 C132.012806,53.6 131.712806,53.7 131.312806,53.7 C131.112806,53.7 130.812806,53.6 130.612806,53.5 Z M61.6128056,51.1 C61.3128056,50.6 61.4128056,49.9 61.9128056,49.5 C62.4128056,49.1 63.1128056,49.3 63.5128056,49.8 C63.9128056,50.3 63.7128056,51 63.2128056,51.4 C63.0128056,51.5 62.8128056,51.6 62.6128056,51.6 C62.2128056,51.6 61.8128056,51.4 61.6128056,51.1 Z M124.712806,49.3 C124.212806,49 124.012806,48.3 124.312806,47.8 C124.612806,47.3 125.312806,47.1 125.812806,47.4 C126.312806,47.7 126.512806,48.4 126.212806,48.9 C126.012806,49.2 125.612806,49.4 125.212806,49.4 C125.112806,49.5 124.912806,49.5 124.712806,49.3 Z M67.8128056,47.2 C67.5128056,46.7 67.7128056,46 68.3128056,45.7 C68.8128056,45.4 69.5128056,45.6 69.8128056,46.2 C70.1128056,46.7 69.9128056,47.4 69.3128056,47.7 C69.1128056,47.8 69.0128056,47.8 68.8128056,47.8 C68.4128056,47.8 68.1128056,47.6 67.8128056,47.2 Z M118.312806,46 C117.712806,45.8 117.512806,45.1 117.712806,44.5 C118.012806,43.9 118.612806,43.7 119.212806,43.9 C119.812806,44.1 120.012806,44.8 119.812806,45.4 C119.612806,45.8 119.212806,46.1 118.812806,46.1 C118.612806,46.1 118.412806,46.1 118.312806,46 Z M74.5128056,44.1 C74.3128056,43.5 74.6128056,42.9 75.2128056,42.7 C75.8128056,42.5 76.4128056,42.8 76.6128056,43.4 C76.8128056,44 76.5128056,44.6 75.9128056,44.8 C75.8128056,44.8 75.6128056,44.9 75.5128056,44.9 C75.1128056,44.8 74.7128056,44.5 74.5128056,44.1 Z M111.512806,43.5 C110.912806,43.3 110.612806,42.7 110.712806,42.1 C110.912806,41.5 111.512806,41.2 112.112806,41.3 C112.712806,41.5 113.012806,42.1 112.912806,42.7 C112.812806,43.2 112.312806,43.5 111.812806,43.5 C111.712806,43.6 111.612806,43.6 111.512806,43.5 Z M81.5128056,41.8 C81.4128056,41.2 81.7128056,40.6 82.3128056,40.5 C82.3128056,40.5 82.3128056,40.5 82.3128056,40.5 C82.9128056,40.4 83.5128056,40.7 83.6128056,41.3 C83.7128056,41.9 83.4128056,42.5 82.8128056,42.6 C82.7128056,42.6 82.6128056,42.6 82.6128056,42.6 C82.1128056,42.7 81.7128056,42.3 81.5128056,41.8 Z M104.412806,41.9 C103.812806,41.8 103.412806,41.2 103.512806,40.6 C103.612806,40 104.212806,39.6 104.812806,39.7 C105.412806,39.8 105.812806,40.4 105.712806,41 C105.612806,41.6 105.112806,41.9 104.612806,41.9 C104.512806,41.9 104.512806,41.9 104.412806,41.9 Z M88.8128056,40.5 C88.7128056,39.9 89.2128056,39.3 89.8128056,39.3 C89.8128056,39.3 89.8128056,39.3 89.8128056,39.3 C90.4128056,39.2 91.0128056,39.7 91.0128056,40.3 C91.1128056,40.9 90.6128056,41.5 90.0128056,41.5 C90.0128056,41.5 89.9128056,41.5 89.9128056,41.5 C89.3128056,41.5 88.9128056,41.1 88.8128056,40.5 Z M97.2128056,41.3 C96.6128056,41.3 96.1128056,40.8 96.1128056,40.1 C96.1128056,39.5 96.6128056,39 97.2128056,39 C97.8128056,39 98.3128056,39.5 98.3128056,40.2 C98.4128056,40.8 97.9128056,41.3 97.2128056,41.3 C97.3128056,41.3 97.3128056,41.3 97.2128056,41.3 Z" id="Shape" fill="#59EAE3"></path>
                    <circle id="Oval" fill="#F3FEFF" cx="95.7" cy="97.7" r="37.7"></circle>
                    <path d="M95.2,137.2 C94.6,137.2 94.1,136.7 94.1,136.1 C94.1,135.5 94.6,135 95.2,135 C95.8,135 96.3,135.5 96.3,136.1 C96.3,136.7 95.8,137.2 95.2,137.2 Z M87.5,136.5 C86.9,136.4 86.5,135.8 86.6,135.2 C86.7,134.6 87.3,134.2 87.9,134.3 C88.5,134.4 88.9,135 88.8,135.6 C88.7,136.1 88.2,136.5 87.7,136.5 C87.7,136.5 87.6,136.5 87.5,136.5 Z M101.5,135.6 C101.4,135 101.8,134.4 102.4,134.3 C103,134.2 103.6,134.6 103.7,135.2 C103.8,135.8 103.4,136.4 102.8,136.5 C102.7,136.5 102.7,136.5 102.6,136.5 C102,136.5 101.6,136.1 101.5,135.6 Z M80.2,134.3 C79.6,134.1 79.4,133.4 79.6,132.8 C79.8,132.2 80.5,132 81.1,132.2 C81.7,132.4 81.9,133.1 81.7,133.7 C81.5,134.1 81.1,134.4 80.7,134.4 C80.5,134.4 80.3,134.4 80.2,134.3 Z M108.7,133.7 C108.5,133.1 108.7,132.5 109.3,132.2 C109.9,132 110.5,132.2 110.8,132.8 C111,133.4 110.8,134 110.2,134.3 C110.1,134.4 109.9,134.4 109.8,134.4 C109.3,134.3 108.8,134.1 108.7,133.7 Z M73.4,130.7 C72.9,130.4 72.8,129.7 73.1,129.2 C73.4,128.7 74.1,128.5 74.6,128.9 C75.1,129.2 75.2,129.9 74.9,130.4 C74.7,130.7 74.3,130.9 74,130.9 C73.8,130.9 73.6,130.8 73.4,130.7 Z M115.3,130.3 C115,129.8 115.1,129.1 115.6,128.8 C116.1,128.5 116.8,128.6 117.1,129.1 C117.4,129.6 117.3,130.3 116.8,130.6 C116.6,130.7 116.4,130.8 116.2,130.8 C115.9,130.8 115.5,130.7 115.3,130.3 Z M67.5,125.8 C67.1,125.4 67.1,124.7 67.5,124.2 C67.9,123.8 68.6,123.8 69.1,124.2 C69.5,124.6 69.5,125.3 69.1,125.8 C68.9,126 68.6,126.1 68.3,126.1 C68,126.2 67.7,126 67.5,125.8 Z M121.2,125.8 C120.8,125.4 120.8,124.7 121.2,124.2 C121.6,123.8 122.3,123.8 122.8,124.2 C123.2,124.6 123.2,125.3 122.8,125.8 C122.6,126 122.3,126.1 122,126.1 C121.7,126.1 121.4,126 121.2,125.8 Z M62.6,119.9 C62.3,119.4 62.4,118.7 62.9,118.4 C63.4,118.1 64.1,118.2 64.4,118.7 C64.7,119.2 64.6,119.9 64.1,120.2 C63.9,120.3 63.7,120.4 63.5,120.4 C63.2,120.4 62.8,120.2 62.6,119.9 Z M126.1,120.2 C125.6,119.9 125.4,119.2 125.8,118.7 C126.1,118.2 126.8,118 127.3,118.4 C127.8,118.7 128,119.4 127.6,119.9 C127.4,120.2 127,120.4 126.7,120.4 C126.5,120.3 126.3,120.3 126.1,120.2 Z M59,113.2 C58.8,112.6 59,112 59.6,111.7 C60.2,111.5 60.8,111.7 61.1,112.3 C61.3,112.9 61.1,113.5 60.5,113.8 C60.4,113.9 60.2,113.9 60.1,113.9 C59.6,113.9 59.2,113.6 59,113.2 Z M129.8,113.7 C129.2,113.5 129,112.8 129.2,112.2 C129.4,111.6 130.1,111.4 130.7,111.6 C131.3,111.8 131.5,112.5 131.3,113.1 C131.1,113.5 130.7,113.8 130.3,113.8 C130.1,113.8 129.9,113.8 129.8,113.7 Z M56.8,105.8 C56.7,105.2 57.1,104.6 57.7,104.5 C58.3,104.4 58.9,104.8 59,105.4 C59.1,106 58.7,106.6 58.1,106.7 C58,106.7 58,106.7 57.9,106.7 C57.3,106.7 56.9,106.4 56.8,105.8 Z M132.2,106.6 C131.6,106.5 131.2,105.9 131.3,105.3 C131.4,104.7 132,104.3 132.6,104.4 C133.2,104.5 133.6,105.1 133.5,105.7 C133.4,106.2 132.9,106.6 132.4,106.6 C132.3,106.7 132.2,106.6 132.2,106.6 Z M56,98.2 C56,97.6 56.5,97.1 57.1,97.1 C57.7,97.1 58.2,97.6 58.2,98.2 C58.2,98.8 57.7,99.3 57.1,99.3 C56.5,99.3 56,98.8 56,98.2 Z M132,98.1 C132,98.1 132,98.1 132,98.1 C132,98 132,98 132,97.9 C132,97.3 132.5,96.8 133.1,96.8 C133.7,96.8 134.2,97.3 134.2,97.9 C134.2,97.9 134.2,98 134.2,98 C134.2,98 134.2,98.1 134.2,98.1 C134.2,98.7 133.7,99.2 133.1,99.2 C132.5,99.2 132,98.7 132,98.1 Z M57.6,91.9 C57,91.8 56.6,91.2 56.7,90.6 C56.8,90 57.4,89.6 58,89.7 C58.6,89.8 59,90.4 58.9,91 C58.8,91.5 58.3,91.9 57.8,91.9 C57.8,91.9 57.7,91.9 57.6,91.9 Z M131.3,90.8 C131.2,90.2 131.6,89.6 132.2,89.5 C132.8,89.4 133.4,89.8 133.5,90.4 C133.6,91 133.2,91.6 132.6,91.7 C132.5,91.7 132.4,91.7 132.4,91.7 C131.8,91.7 131.4,91.3 131.3,90.8 Z M59.5,84.7 C58.9,84.5 58.7,83.8 58.9,83.2 C59.1,82.6 59.8,82.4 60.4,82.6 C61,82.8 61.2,83.5 61,84.1 C60.8,84.5 60.4,84.8 60,84.8 C59.8,84.8 59.7,84.8 59.5,84.7 Z M129.1,83.9 C128.9,83.3 129.1,82.7 129.7,82.4 C130.3,82.2 130.9,82.4 131.2,83 C131.4,83.6 131.2,84.2 130.6,84.5 C130.5,84.6 130.3,84.6 130.2,84.6 C129.7,84.6 129.3,84.3 129.1,83.9 Z M62.9,78 C62.4,77.7 62.2,77 62.6,76.5 C62.9,76 63.6,75.8 64.1,76.2 C64.6,76.5 64.8,77.2 64.4,77.7 C64.2,78 63.8,78.2 63.5,78.2 C63.3,78.2 63,78.2 62.9,78 Z M125.7,77.5 C125.4,77 125.5,76.3 126,76 C126.5,75.7 127.2,75.8 127.5,76.3 C127.8,76.8 127.7,77.5 127.2,77.9 C127,78 126.8,78.1 126.6,78.1 C126.3,78 125.9,77.8 125.7,77.5 Z M67.4,72.1 C67,71.7 67,71 67.4,70.5 C67.8,70.1 68.5,70.1 69,70.5 C69.4,70.9 69.4,71.6 69,72.1 C68.8,72.3 68.5,72.4 68.2,72.4 C67.9,72.4 67.6,72.3 67.4,72.1 Z M121.1,72 C120.7,71.6 120.7,70.9 121.1,70.4 C121.5,70 122.2,70 122.7,70.4 C123.1,70.8 123.1,71.5 122.7,72 C122.5,72.2 122.2,72.3 121.9,72.3 C121.6,72.3 121.3,72.2 121.1,72 Z M73,67.2 C72.7,66.7 72.8,66 73.3,65.7 C73.8,65.4 74.5,65.5 74.8,66 C75.1,66.5 75,67.2 74.5,67.5 C74.3,67.6 74.1,67.7 73.9,67.7 C73.6,67.7 73.2,67.5 73,67.2 Z M115.5,67.4 C115,67.1 114.8,66.4 115.2,65.9 C115.5,65.4 116.2,65.2 116.7,65.6 C117.2,65.9 117.4,66.6 117,67.1 C116.8,67.4 116.4,67.6 116.1,67.6 C115.9,67.6 115.7,67.5 115.5,67.4 Z M79.4,63.5 C79.2,62.9 79.4,62.3 80,62 C80.6,61.8 81.2,62 81.5,62.6 C81.7,63.2 81.5,63.8 80.9,64.1 C80.8,64.2 80.6,64.2 80.5,64.2 C80,64.2 79.6,63.9 79.4,63.5 Z M109.1,64 C108.5,63.8 108.3,63.1 108.5,62.5 C108.7,61.9 109.4,61.7 110,61.9 C110.6,62.1 110.8,62.8 110.6,63.4 C110.4,63.8 110,64.1 109.6,64.1 C109.4,64.1 109.3,64.1 109.1,64 Z M86.5,61.1 C86.4,60.5 86.8,59.9 87.4,59.8 C88,59.7 88.6,60.1 88.7,60.7 C88.8,61.3 88.4,61.9 87.8,62 C87.7,62 87.7,62 87.6,62 C87.1,62 86.6,61.6 86.5,61.1 Z M102.2,61.9 C101.6,61.8 101.2,61.2 101.3,60.6 C101.4,60 102,59.6 102.6,59.7 C103.2,59.8 103.6,60.4 103.5,61 C103.4,61.5 102.9,61.9 102.4,61.9 C102.3,62 102.3,61.9 102.2,61.9 Z M93.9,60.1 C93.9,59.5 94.4,59 95,59 C95.6,59 96.1,59.5 96.1,60.1 C96.1,60.7 95.6,61.2 95,61.2 C94.4,61.3 93.9,60.8 93.9,60.1 Z" id="Shape" fill="#D8EDFE"></path>
                    <path d="M94.5,117 C94.5,116.4 95,115.9 95.6,115.9 C96.2,115.9 96.7,116.4 96.7,117 C96.7,117.6 96.2,118.1 95.6,118.1 C95,118.1 94.5,117.6 94.5,117 Z M88.1,116.6 C87.5,116.4 87.3,115.7 87.5,115.1 C87.7,114.5 88.4,114.3 89,114.5 C89.6,114.7 89.8,115.4 89.6,116 C89.4,116.4 89,116.7 88.6,116.7 C88.4,116.7 88.3,116.7 88.1,116.6 Z M101.7,116 C101.5,115.4 101.7,114.8 102.3,114.5 C102.9,114.3 103.5,114.5 103.8,115.1 C104,115.7 103.8,116.3 103.2,116.6 C103.1,116.7 102.9,116.7 102.8,116.7 C102.3,116.7 101.8,116.4 101.7,116 Z M81.8,112.4 C81.4,112 81.4,111.3 81.8,110.8 C82.2,110.4 82.9,110.4 83.4,110.8 C83.8,111.2 83.8,111.9 83.4,112.4 C83.2,112.6 82.9,112.7 82.6,112.7 C82.3,112.7 82,112.6 81.8,112.4 Z M107.9,112.4 C107.5,112 107.5,111.3 107.9,110.8 C108.3,110.4 109,110.4 109.5,110.8 C109.9,111.2 109.9,111.9 109.5,112.4 C109.3,112.6 109,112.7 108.7,112.7 C108.4,112.7 108.1,112.6 107.9,112.4 Z M77.5,106.1 C77.3,105.5 77.5,104.9 78.1,104.6 C78.7,104.4 79.3,104.6 79.6,105.2 C79.8,105.8 79.6,106.4 79,106.7 C78.9,106.8 78.7,106.8 78.6,106.8 C78.1,106.7 77.7,106.5 77.5,106.1 Z M112.3,106.6 C111.7,106.4 111.5,105.7 111.7,105.1 C111.9,104.5 112.6,104.3 113.2,104.5 C113.8,104.7 114,105.4 113.8,106 C113.6,106.4 113.2,106.7 112.8,106.7 C112.5,106.7 112.4,106.7 112.3,106.6 Z M76,98.6 C76,98 76.5,97.5 77.1,97.5 C77.7,97.5 78.2,98 78.2,98.6 C78.2,99.2 77.7,99.7 77.1,99.7 C76.5,99.7 76,99.2 76,98.6 Z M113,98.5 C113,98.5 113,98.5 113,98.5 C113,98.5 113,98.5 113,98.5 C113,97.8 113.5,97.3 114.1,97.3 C114.7,97.3 115.2,97.8 115.2,98.4 C115.2,98.4 115.2,98.4 115.2,98.4 C115.2,98.4 115.2,98.4 115.2,98.4 C115.2,98.4 115.2,98.4 115.2,98.4 C115.2,99 114.7,99.5 114.1,99.5 C113.5,99.6 113,99.1 113,98.5 Z M78.1,92.5 C77.5,92.3 77.3,91.6 77.5,91 C77.7,90.4 78.4,90.2 79,90.4 C79.6,90.6 79.8,91.3 79.6,91.9 C79.4,92.3 79,92.6 78.6,92.6 C78.4,92.6 78.2,92.6 78.1,92.5 Z M111.6,91.8 C111.4,91.2 111.6,90.6 112.2,90.3 C112.8,90.1 113.4,90.3 113.7,90.9 C113.9,91.5 113.7,92.1 113.1,92.4 C113,92.5 112.8,92.5 112.7,92.5 C112.2,92.5 111.8,92.2 111.6,91.8 Z M81.7,86.3 C81.3,85.9 81.3,85.2 81.7,84.7 C82.1,84.3 82.8,84.3 83.3,84.7 C83.7,85.1 83.7,85.8 83.3,86.3 C83.1,86.5 82.8,86.6 82.5,86.6 C82.2,86.6 82,86.5 81.7,86.3 Z M107.8,86.2 C107.4,85.8 107.4,85.1 107.8,84.6 C108.2,84.2 108.9,84.2 109.4,84.6 C109.8,85 109.8,85.7 109.4,86.2 C109.2,86.4 108.9,86.5 108.6,86.5 C108.3,86.5 108.1,86.4 107.8,86.2 Z M87.5,81.9 C87.3,81.3 87.5,80.7 88.1,80.4 C88.7,80.2 89.3,80.4 89.6,81 C89.8,81.6 89.6,82.2 89,82.5 C88.9,82.6 88.7,82.6 88.6,82.6 C88.1,82.6 87.6,82.3 87.5,81.9 Z M102.2,82.5 C101.6,82.3 101.4,81.6 101.6,81 C101.8,80.4 102.5,80.2 103.1,80.4 C103.1,80.4 103.1,80.4 103.1,80.4 C103.7,80.6 103.9,81.3 103.7,81.9 C103.5,82.3 103.1,82.6 102.7,82.6 C102.5,82.6 102.3,82.5 102.2,82.5 Z M95.6,81.2 C95,81.2 94.5,80.7 94.5,80.1 C94.5,79.5 95,79 95.6,79 C96.2,79 96.7,79.5 96.7,80.1 C96.7,80.7 96.2,81.2 95.6,81.2 C94.9,81.2 95.6,81.2 95.6,81.2 Z" id="Shape" fill="#00FFCE"></path>
                    <path d="M95.1,99.2375 C94.8,99.2375 94.5,99.1375 94.3,98.9375 C94.1,98.7375 94,98.4375 94,98.1375 C94,97.8375 94.1,97.5375 94.3,97.3375 C94.6,97.0375 94.9,96.9375 95.3,97.0375 C95.4,97.0375 95.4,97.0375 95.5,97.1375 C95.6,97.1375 95.6,97.2375 95.7,97.2375 C95.8,97.2375 95.8,97.3375 95.9,97.3375 C96,97.4375 96,97.4375 96,97.5375 C96,97.6375 96.1,97.6375 96.1,97.7375 C96.1,97.8375 96.2,97.8375 96.2,97.9375 C96.2,98.0375 96.2,98.0375 96.2,98.1375 C96.2,98.4375 96.1,98.7375 95.9,98.9375 C95.8,99.0375 95.8,99.0375 95.7,99.0375 C95.6,99.0375 95.6,99.1375 95.5,99.1375 C95.4,99.1375 95.4,99.1375 95.3,99.2375 C95.3,99.2375 95.2,99.2375 95.1,99.2375 Z" id="Shape" fill="#59EAE3"></path>
                    <path d="M95.1,99.2 C95,99.2 95,99.2 94.9,99.2 C94.8,99.2 94.8,99.2 94.7,99.1 C94.6,99.1 94.6,99 94.5,99 C94.4,99 94.4,98.9 94.3,98.9 C94.1,98.7 94,98.4 94,98.1 C94,97.8 94.1,97.5 94.3,97.3 C94.4,97.2 94.4,97.2 94.5,97.2 C94.6,97.2 94.6,97.1 94.7,97.1 C94.8,97.1 94.8,97 94.9,97 C95,97 95.2,97 95.3,97 C95.4,97 95.4,97 95.5,97.1 C95.6,97.1 95.6,97.2 95.7,97.2 C95.8,97.2 95.8,97.3 95.9,97.3 C96.1,97.5 96.2,97.8 96.2,98.1 C96.2,98.4 96.1,98.7 95.9,98.9 C95.8,99 95.8,99 95.7,99 C95.6,99 95.6,99.1 95.5,99.1 C95.4,99.1 95.4,99.1 95.3,99.2 C95.3,99.1 95.2,99.2 95.1,99.2 Z" id="Shape" fill="#59EAE3"></path>
                    <path d="M95.1,99.2 C95,99.2 95,99.2 94.9,99.2 C94.8,99.2 94.8,99.2 94.7,99.1 C94.6,99.1 94.6,99 94.5,99 C94.4,99 94.4,98.9 94.3,98.9 C94.1,98.7 94,98.4 94,98.1 C94,98 94,98 94,97.9 C94,97.8 94,97.8 94.1,97.7 C94.1,97.6 94.2,97.6 94.2,97.5 C94.2,97.4 94.3,97.4 94.3,97.3 C94.4,97.2 94.4,97.2 94.5,97.2 C94.6,97.2 94.6,97.1 94.7,97.1 C94.8,97.1 94.8,97 94.9,97 C95,97 95.2,97 95.3,97 C95.4,97 95.4,97 95.5,97.1 C95.6,97.1 95.6,97.2 95.7,97.2 C95.8,97.2 95.8,97.3 95.9,97.3 C96,97.4 96,97.4 96,97.5 C96,97.6 96.1,97.6 96.1,97.7 C96.1,97.8 96.1,97.8 96.2,97.9 C96.2,98 96.2,98 96.2,98.1 C96.2,98.2 96.2,98.2 96.2,98.3 C96.2,98.4 96.2,98.4 96.1,98.5 C96.1,98.6 96,98.6 96,98.7 C96,98.8 95.9,98.8 95.9,98.9 C95.8,99 95.8,99 95.7,99 C95.6,99 95.6,99.1 95.5,99.1 C95.4,99.1 95.4,99.1 95.3,99.2 C95.3,99.2 95.2,99.2 95.1,99.2 Z" id="Shape" fill="#59EAE3"></path>
                    <path d="M95.1,99.2 C95,99.2 95,99.2 94.9,99.2 C94.8,99.2 94.8,99.2 94.7,99.1 C94.6,99.1 94.6,99 94.5,99 C94.4,99 94.4,98.9 94.3,98.9 C94.1,98.7 94,98.4 94,98.1 C94,97.8 94.1,97.5 94.3,97.3 C94.4,97.2 94.4,97.2 94.5,97.2 C94.6,97.2 94.6,97.1 94.7,97.1 C94.8,97.1 94.8,97 94.9,97 C95,97 95.2,97 95.3,97 C95.4,97 95.4,97 95.5,97.1 C95.6,97.1 95.6,97.2 95.7,97.2 C95.8,97.2 95.8,97.3 95.9,97.3 C96.1,97.5 96.2,97.8 96.2,98.1 C96.2,98.4 96.1,98.7 95.9,98.9 C95.8,99 95.8,99 95.7,99 C95.6,99 95.6,99.1 95.5,99.1 C95.4,99.1 95.4,99.1 95.3,99.2 C95.3,99.2 95.2,99.2 95.1,99.2 Z" id="Shape" fill="#59EAE3"></path>
                    <rect id="Rectangle-path" fill="url(#linearGradient-1)" opacity="0.27" x="0" y="59" width="192.2" height="74"></rect>
                    <polygon id="Shape" fill="url(#linearGradient-2)" opacity="0.27" points="133 0 133 192.2 59 192.2 59 0"></polygon>
                    <polygon id="Shape" fill="url(#linearGradient-3)" opacity="0.27" points="190.2 54.4 54.3 190.3 2 138 137.9 2"></polygon>
                    <polygon id="Shape" fill="url(#linearGradient-4)" opacity="0.27" points="54.3 2 190.2 138 137.9 190.3 2 54.4"></polygon>
                    <path d="M129,133 L63,133 C60.8,133 59,131.2 59,129 L59,63 C59,60.8 60.8,59 63,59 L129,59 C131.2,59 133,60.8 133,63 L133,129 C133,131.2 131.2,133 129,133 Z" id="Shape" fill="#FDA300"></path>
                    <path d="M96.1,124.2 C80.6,124.2 68,111.6 68,96.1 C68,80.6 80.6,68 96.1,68 C111.6,68 124.2,80.6 124.2,96.1 C124.2,111.6 111.6,124.2 96.1,124.2 Z M96.1,71.3 C82.4,71.3 71.3,82.4 71.3,96.1 C71.3,109.8 82.4,120.9 96.1,120.9 C109.8,120.9 120.9,109.8 120.9,96.1 C120.9,82.4 109.8,71.3 96.1,71.3 Z" id="Shape" fill="#FFFFFF"></path>
                    <polygon id="Shape" fill="#FFFFFF" points="108.2 87.8 96.1 92.7 84 87.8 96.1 83"></polygon>
                    <polygon id="Shape" fill="#FFFFFF" points="84 92 94.1 96.2 94.1 109.6 84 106.1"></polygon>
                    <polygon id="Shape" fill="#FFFFFF" points="108.1 92 98 96.2 98 109.6 108.1 106.1"></polygon>
                    <path d="M16.1232999,122.083673 L29.6232999,118.083673 C30.8232999,117.683673 31.9232999,118.783673 31.6232999,119.983673 L28.6232999,133.683673 C28.3232999,134.883673 26.8232999,135.383673 25.9232999,134.483673 L15.5232999,124.783673 C14.6232999,123.983673 14.9232999,122.383673 16.1232999,122.083673 Z" id="Shape" fill="#FC7800"></path>
                    <path d="M159.048287,56.45 L161.648287,61.65 C161.748287,61.95 162.048287,62.05 162.248287,62.15 L167.948287,62.95 C168.648287,63.05 168.948287,63.95 168.448287,64.35 L164.248287,68.45 C164.048287,68.65 163.948287,68.95 164.048287,69.25 L165.048287,74.95 C165.148287,75.65 164.448287,76.15 163.848287,75.85 L158.748287,73.15 C158.548287,73.05 158.248287,73.05 157.948287,73.15 L152.848287,75.85 C152.248287,76.15 151.448287,75.65 151.648287,74.95 L152.648287,69.25 C152.648287,68.95 152.648287,68.65 152.448287,68.45 L148.248287,64.35 C147.748287,63.85 148.048287,63.05 148.748287,62.95 L154.448287,62.15 C154.748287,62.15 154.948287,61.95 155.048287,61.65 L157.648287,56.45 C157.848287,55.85 158.748287,55.85 159.048287,56.45 Z" id="Shape" fill="#FC7800"></path>
                    <circle id="Oval" fill="#FC7800" cx="112" cy="153" r="4"></circle>
                </g>
            </g>
        </g>
    </g>
</svg>