<?xml version="1.0" encoding="UTF-8"?>
<svg width="203px" height="203px" viewBox="0 0 203 203" version="1.1" xmlns="http://www.w3.org/2000/svg" xmlns:xlink="http://www.w3.org/1999/xlink">
    <!-- Generator: Sketch 48.1 (47250) - http://www.bohemiancoding.com/sketch -->
    <title>Group 6</title>
    <desc>Created with Sketch.</desc>
    <defs>
        <linearGradient x1="92.0413917%" y1="92.0690578%" x2="7.92073617%" y2="7.94840221%" id="linearGradient-1">
            <stop stop-color="#FFFFFF" stop-opacity="0" offset="0%"></stop>
            <stop stop-color="#D1F9FD" stop-opacity="0.2166" offset="10.96%"></stop>
            <stop stop-color="#A2F4FA" stop-opacity="0.4698" offset="23.78%"></stop>
            <stop stop-color="#80EFF8" stop-opacity="0.694" offset="35.13%"></stop>
            <stop stop-color="#6BEDF7" stop-opacity="0.8784" offset="44.46%"></stop>
            <stop stop-color="#63ECF7" offset="50.61%"></stop>
            <stop stop-color="#6EEDF8" stop-opacity="0.875" offset="56.79%"></stop>
            <stop stop-color="#8AF1F9" stop-opacity="0.6584" offset="67.48%"></stop>
            <stop stop-color="#B8F6FB" stop-opacity="0.3763" offset="81.42%"></stop>
            <stop stop-color="#F6FEFF" stop-opacity="0.04258668" offset="97.9%"></stop>
            <stop stop-color="#FFFFFF" stop-opacity="0" offset="100%"></stop>
        </linearGradient>
        <linearGradient x1="49.995624%" y1="100.001408%" x2="49.995624%" y2="-0.00704225352%" id="linearGradient-2">
            <stop stop-color="#FFFFFF" stop-opacity="0" offset="0%"></stop>
            <stop stop-color="#C2D8F8" stop-opacity="0.2628" offset="13.3%"></stop>
            <stop stop-color="#93B9F2" stop-opacity="0.5026" offset="25.44%"></stop>
            <stop stop-color="#71A3EE" stop-opacity="0.713" offset="36.09%"></stop>
            <stop stop-color="#5C95EC" stop-opacity="0.886" offset="44.84%"></stop>
            <stop stop-color="#5490EB" offset="50.61%"></stop>
            <stop stop-color="#5F97EC" stop-opacity="0.8835" offset="56.37%"></stop>
            <stop stop-color="#7BA9F0" stop-opacity="0.6817" offset="66.33%"></stop>
            <stop stop-color="#A9C7F5" stop-opacity="0.4187" offset="79.32%"></stop>
            <stop stop-color="#E7F0FC" stop-opacity="0.1079" offset="94.67%"></stop>
            <stop stop-color="#FFFFFF" stop-opacity="0" offset="100%"></stop>
        </linearGradient>
        <linearGradient x1="89.9623583%" y1="10.0785762%" x2="10.0026991%" y2="89.9883541%" id="linearGradient-3">
            <stop stop-color="#FFFFFF" stop-opacity="0" offset="0%"></stop>
            <stop stop-color="#F5FFFD" stop-opacity="0.02716136" offset="1.374717%"></stop>
            <stop stop-color="#ACFFEF" stop-opacity="0.2406" offset="12.18%"></stop>
            <stop stop-color="#6FFFE3" stop-opacity="0.4413" offset="22.33%"></stop>
            <stop stop-color="#3FFFDA" stop-opacity="0.623" offset="31.53%"></stop>
            <stop stop-color="#1DFFD3" stop-opacity="0.7825" offset="39.61%"></stop>
            <stop stop-color="#08FFCF" stop-opacity="0.9136" offset="46.24%"></stop>
            <stop stop-color="#00FFCE" offset="50.61%"></stop>
            <stop stop-color="#0BFFD0" stop-opacity="0.9143" offset="54.85%"></stop>
            <stop stop-color="#27FFD5" stop-opacity="0.7657" offset="62.18%"></stop>
            <stop stop-color="#55FFDE" stop-opacity="0.5721" offset="71.75%"></stop>
            <stop stop-color="#95FFEB" stop-opacity="0.3408" offset="83.17%"></stop>
            <stop stop-color="#E5FFFA" stop-opacity="0.08036643" offset="96.03%"></stop>
            <stop stop-color="#FFFFFF" stop-opacity="0" offset="100%"></stop>
        </linearGradient>
        <linearGradient x1="100.003888%" y1="49.9878901%" x2="-0.00622009569%" y2="49.9878901%" id="linearGradient-4">
            <stop stop-color="#FFFFFF" stop-opacity="0" offset="0%"></stop>
            <stop stop-color="#C8D8FF" stop-opacity="0.2451" offset="12.41%"></stop>
            <stop stop-color="#99B6FF" stop-opacity="0.4901" offset="24.81%"></stop>
            <stop stop-color="#779DFF" stop-opacity="0.7058" offset="35.72%"></stop>
            <stop stop-color="#628EFF" stop-opacity="0.8831" offset="44.7%"></stop>
            <stop stop-color="#5A89FF" offset="50.61%"></stop>
            <stop stop-color="#6591FF" stop-opacity="0.8803" offset="56.53%"></stop>
            <stop stop-color="#81A5FF" stop-opacity="0.6728" offset="66.77%"></stop>
            <stop stop-color="#AFC6FF" stop-opacity="0.4025" offset="80.12%"></stop>
            <stop stop-color="#EDF2FF" stop-opacity="0.08300465" offset="95.9%"></stop>
            <stop stop-color="#FFFFFF" stop-opacity="0" offset="100%"></stop>
        </linearGradient>
    </defs>
    <g id="8.-How-It-Works" stroke="none" stroke-width="1" fill="none" fill-rule="evenodd" transform="translate(-616.000000, -1884.000000)">
        <g id="Group-25" transform="translate(163.000000, 1465.000000)" fill-rule="nonzero">
            <g id="Group-23" transform="translate(400.000000, 419.000000)">
                <g id="Group-6" transform="translate(53.000000, 0.000000)">
                    <polygon id="Shape" fill="url(#linearGradient-1)" opacity="0.27" points="32.1 0 202.7 170.5 170.5 202.7 0 32.2"></polygon>
                    <path d="M102.9,176.2 C102.9,175.6 103.4,175.1 104,175.1 C104.6,175.1 105.1,175.6 105.1,176.2 C105.1,176.8 104.6,177.3 104,177.3 C104,177.3 104,177.3 104,177.3 C103.4,177.3 102.9,176.8 102.9,176.2 Z M96.5,177.1 C95.9,177.1 95.4,176.5 95.5,175.9 C95.5,175.3 96.1,174.8 96.7,174.9 C97.3,174.9 97.8,175.5 97.7,176.1 C97.7,176.6 97.2,177.1 96.5,177.1 C96.6,177.1 96.6,177.1 96.5,177.1 Z M110.4,175.7 C110.3,175.1 110.8,174.5 111.4,174.5 C112,174.4 112.6,174.9 112.6,175.5 C112.7,176.1 112.2,176.7 111.6,176.7 C111.6,176.7 111.5,176.7 111.5,176.7 C110.9,176.7 110.4,176.3 110.4,175.7 Z M89,176.2 C88.4,176.1 88,175.5 88.1,174.9 C88.2,174.3 88.8,173.9 89.4,174 C90,174.1 90.4,174.7 90.3,175.3 C90.2,175.8 89.7,176.2 89.2,176.2 C89.2,176.2 89.1,176.2 89,176.2 Z M117.7,174.6 C117.6,174 118,173.4 118.6,173.3 C119.2,173.2 119.8,173.5 119.9,174.1 C120,174.7 119.7,175.3 119.1,175.4 C119,175.4 118.9,175.4 118.9,175.4 C118.3,175.5 117.8,175.1 117.7,174.6 Z M81.7,174.6 C81.1,174.4 80.8,173.8 80.9,173.2 C81.1,172.6 81.7,172.3 82.3,172.4 C82.9,172.6 83.2,173.2 83.1,173.8 C83,174.3 82.5,174.6 82,174.6 C81.8,174.6 81.8,174.6 81.7,174.6 Z M124.9,172.7 C124.7,172.1 125,171.5 125.6,171.3 C126.2,171.1 126.8,171.4 127,172 C127.2,172.6 126.9,173.2 126.3,173.4 C126.2,173.4 126.1,173.5 126,173.5 C125.5,173.5 125.1,173.2 124.9,172.7 Z M74.5,172.2 C73.9,172 73.6,171.3 73.9,170.8 C74.1,170.2 74.8,169.9 75.3,170.1 C75.9,170.3 76.2,171 75.9,171.5 C75.7,171.9 75.3,172.2 74.9,172.2 C74.7,172.3 74.6,172.3 74.5,172.2 Z M131.9,170.2 C131.7,169.6 131.9,169 132.5,168.7 C133.1,168.5 133.7,168.7 134,169.3 C134.2,169.9 134,170.5 133.4,170.8 C133.3,170.9 133.1,170.9 133,170.9 C132.5,170.9 132.1,170.6 131.9,170.2 Z M67.6,169.2 C67,168.9 66.8,168.3 67.1,167.7 C67.4,167.1 68,166.9 68.6,167.2 C69.1,167.5 69.4,168.1 69.1,168.7 C68.9,169.1 68.5,169.3 68.1,169.3 C67.9,169.3 67.7,169.3 67.6,169.2 Z M138.6,167 C138.3,166.5 138.5,165.8 139,165.5 C139.5,165.2 140.2,165.4 140.5,165.9 C140.8,166.4 140.6,167.1 140.1,167.4 C139.9,167.5 139.7,167.5 139.6,167.5 C139.2,167.6 138.8,167.4 138.6,167 Z M61,165.6 C61,165.6 61,165.6 61,165.6 C60.5,165.3 60.3,164.6 60.6,164.1 C60.9,163.6 61.6,163.4 62.1,163.7 C62.6,164 62.8,164.7 62.5,165.2 C62.3,165.5 61.9,165.7 61.5,165.7 C61.3,165.7 61.1,165.7 61,165.6 Z M145,163.2 C144.6,162.7 144.8,162 145.3,161.7 C145.8,161.4 146.5,161.5 146.8,162 C147.1,162.5 147,163.2 146.5,163.6 C146.3,163.7 146.1,163.8 145.9,163.8 C145.6,163.6 145.2,163.5 145,163.2 Z M54.7,161.3 C54.2,160.9 54.1,160.2 54.5,159.7 C54.9,159.2 55.6,159.1 56.1,159.5 C56.6,159.9 56.7,160.6 56.3,161.1 C56.1,161.4 55.7,161.5 55.4,161.5 C55.2,161.5 54.9,161.4 54.7,161.3 Z M151,158.7 C150.6,158.2 150.7,157.5 151.1,157.1 C151.6,156.7 152.3,156.8 152.7,157.2 C153.1,157.7 153,158.4 152.6,158.8 C152.4,159 152.1,159.1 151.9,159.1 C151.5,159.1 151.2,159 151,158.7 Z M49,156.4 C49,156.4 49,156.4 49,156.4 C48.6,156 48.5,155.3 48.9,154.8 C49.3,154.3 50,154.3 50.5,154.7 C50.9,155.1 51,155.8 50.6,156.3 C50.4,156.5 50.1,156.7 49.8,156.7 C49.5,156.7 49.2,156.6 49,156.4 Z M156.5,153.7 C156.1,153.3 156.1,152.6 156.5,152.1 C156.9,151.7 157.6,151.7 158.1,152.1 C158.5,152.5 158.5,153.2 158.1,153.7 C157.9,153.9 157.6,154 157.3,154 C157,154 156.7,153.9 156.5,153.7 Z M43.7,151 C43.3,150.5 43.3,149.8 43.8,149.4 C44.3,149 45,149 45.4,149.5 C45.8,150 45.8,150.7 45.3,151.1 C45.1,151.3 44.8,151.4 44.6,151.4 C44.2,151.4 43.9,151.2 43.7,151 Z M161.5,148.2 C161,147.8 160.9,147.1 161.3,146.6 C161.7,146.1 162.4,146 162.9,146.4 C163.4,146.8 163.5,147.5 163.1,148 C162.9,148.3 162.6,148.4 162.2,148.4 C162,148.5 161.7,148.4 161.5,148.2 Z M38.9,145.1 C38.5,144.6 38.6,143.9 39.1,143.5 C39.6,143.1 40.3,143.2 40.7,143.7 C41.1,144.2 41,144.9 40.5,145.3 C40.3,145.4 40.1,145.5 39.8,145.5 C39.5,145.6 39.2,145.4 38.9,145.1 Z M166,142.3 C165.5,142 165.3,141.3 165.7,140.8 C166,140.3 166.7,140.1 167.2,140.5 C167.7,140.8 167.9,141.5 167.5,142 C167.3,142.3 166.9,142.5 166.6,142.5 C166.4,142.4 166.2,142.4 166,142.3 Z M34.8,138.8 C34.5,138.3 34.7,137.6 35.2,137.3 C35.7,137 36.4,137.2 36.7,137.7 C37,138.2 36.8,138.9 36.3,139.2 C36.1,139.3 35.9,139.4 35.7,139.4 C35.4,139.4 35,139.2 34.8,138.8 Z M169.9,135.9 C169.4,135.6 169.1,134.9 169.4,134.4 C169.7,133.9 170.4,133.6 170.9,133.9 C171.4,134.2 171.7,134.9 171.4,135.4 C171.4,135.4 171.4,135.4 171.4,135.4 C171.2,135.8 170.8,136 170.4,136 C170.2,136 170,136 169.9,135.9 Z M31.3,132.1 C31,131.5 31.3,130.9 31.8,130.6 C32.4,130.3 33,130.6 33.3,131.1 C33.6,131.7 33.3,132.3 32.8,132.6 C32.7,132.7 32.5,132.7 32.3,132.7 C31.9,132.8 31.5,132.5 31.3,132.1 Z M173.1,129.2 C172.5,129 172.3,128.3 172.5,127.7 C172.7,127.1 173.4,126.9 174,127.1 C174.6,127.3 174.8,128 174.6,128.6 C174.4,129 174,129.3 173.6,129.3 C173.4,129.3 173.2,129.3 173.1,129.2 Z M28.4,125.1 C28.2,124.5 28.5,123.9 29.1,123.7 C29.7,123.5 30.3,123.8 30.5,124.4 C30.7,125 30.4,125.6 29.8,125.8 C29.7,125.8 29.6,125.9 29.4,125.9 C29,125.9 28.6,125.6 28.4,125.1 Z M175.7,122.2 C175.1,122 174.8,121.4 174.9,120.8 C175.1,120.2 175.7,119.9 176.3,120 C176.9,120.2 177.2,120.8 177.1,121.4 C177,121.9 176.5,122.2 176,122.2 C175.9,122.3 175.8,122.2 175.7,122.2 Z M26.3,117.9 C26.2,117.3 26.5,116.7 27.1,116.6 C27.7,116.5 28.3,116.8 28.4,117.4 C28.5,118 28.2,118.6 27.6,118.7 C27.5,118.7 27.4,118.7 27.3,118.7 C26.8,118.8 26.4,118.4 26.3,117.9 Z M177.6,115 C177,114.9 176.6,114.3 176.7,113.7 C176.8,113.1 177.4,112.7 178,112.8 C178.6,112.9 179,113.5 178.9,114.1 C178.8,114.6 178.3,115 177.8,115 C177.7,115 177.6,115 177.6,115 Z M24.8,110.5 C24.8,110.5 24.8,110.5 24.8,110.5 C24.7,109.9 25.1,109.3 25.7,109.2 C26.3,109.1 26.9,109.5 27,110.1 C27.1,110.7 26.7,111.3 26.1,111.4 C26,111.4 26,111.4 25.9,111.4 C25.4,111.5 24.9,111.1 24.8,110.5 Z M178.7,107.7 C178.1,107.6 177.6,107.1 177.7,106.5 C177.8,105.9 178.3,105.4 178.9,105.5 C179.5,105.6 180,106.1 179.9,106.7 C179.8,107.3 179.4,107.7 178.8,107.7 C178.8,107.7 178.8,107.7 178.7,107.7 Z M24.1,103 C24.1,102.4 24.5,101.9 25.2,101.8 C25.8,101.8 26.3,102.2 26.4,102.9 C26.4,103.5 26,104 25.3,104.1 C25.3,104.1 25.3,104.1 25.2,104.1 C24.6,104 24.1,103.6 24.1,103 Z M178.1,99.1 C178.1,99.1 178.1,99.1 178.1,99.1 C178.1,99 178.1,99 178.1,98.9 C178.1,98.3 178.6,97.8 179.2,97.8 C179.8,97.8 180.3,98.3 180.3,98.9 C180.3,98.9 180.3,99 180.3,99 C180.3,99 180.3,99.1 180.3,99.1 C180.3,99.7 179.8,100.2 179.2,100.2 C178.6,100.2 178.1,99.7 178.1,99.1 Z M25.1,96.6 C24.5,96.6 24,96 24,95.4 C24,94.8 24.6,94.3 25.2,94.3 C25.8,94.3 26.3,94.9 26.3,95.5 C26.3,96.1 25.8,96.6 25.1,96.6 C25.2,96.6 25.1,96.6 25.1,96.6 Z M177.7,91.6 C177.6,91 178.1,90.4 178.7,90.4 C179.3,90.3 179.9,90.8 179.9,91.4 C179.9,91.4 179.9,91.4 179.9,91.4 C180,92 179.5,92.6 178.9,92.6 C178.9,92.6 178.8,92.6 178.8,92.6 C178.2,92.6 177.8,92.2 177.7,91.6 Z M25.7,89.2 C25.1,89.1 24.7,88.6 24.8,87.9 C24.9,87.3 25.4,86.9 26.1,86.9 C26.7,87 27.1,87.6 27,88.2 C26.9,88.8 26.4,89.2 25.9,89.2 C25.8,89.2 25.8,89.2 25.7,89.2 Z M176.6,84.4 C176.5,83.8 176.9,83.2 177.5,83.1 C178.1,83 178.7,83.4 178.8,84 C178.9,84.6 178.5,85.2 177.9,85.3 C177.8,85.3 177.8,85.3 177.7,85.3 C177.2,85.3 176.7,84.9 176.6,84.4 Z M27,81.9 C26.4,81.8 26,81.2 26.2,80.6 C26.3,80 26.9,79.6 27.5,79.8 C28.1,79.9 28.5,80.6 28.3,81.1 C28.2,81.6 27.7,82 27.2,82 C27.2,81.9 27.1,81.9 27,81.9 Z M174.9,77.2 C174.7,76.6 175.1,76 175.7,75.8 C176.3,75.6 176.9,76 177.1,76.6 C177.3,77.2 176.9,77.8 176.3,78 C176.2,78 176.1,78 176,78 C175.5,78 175,77.7 174.9,77.2 Z M29,74.7 C28.4,74.5 28.1,73.9 28.3,73.3 C28.5,72.7 29.1,72.4 29.7,72.6 C30.3,72.8 30.6,73.4 30.4,74 C30.2,74.5 29.8,74.8 29.4,74.8 C29.3,74.8 29.2,74.7 29,74.7 Z M172.4,70.3 C172.2,69.7 172.4,69.1 173,68.8 C173.6,68.6 174.2,68.8 174.5,69.4 C174.7,70 174.5,70.6 173.9,70.9 C173.8,71 173.6,71 173.5,71 C173,71 172.6,70.8 172.4,70.3 Z M31.7,67.8 C31.1,67.5 30.9,66.9 31.2,66.3 C31.5,65.7 32.1,65.5 32.7,65.8 C33.3,66.1 33.5,66.7 33.2,67.3 C33,67.7 32.6,67.9 32.2,67.9 C32.1,67.9 31.9,67.8 31.7,67.8 Z M169.3,63.7 C169,63.2 169.2,62.5 169.8,62.2 C170.3,61.9 171,62.1 171.3,62.7 C171.6,63.2 171.4,63.9 170.8,64.2 C170.6,64.3 170.5,64.3 170.3,64.3 C169.9,64.3 169.5,64.1 169.3,63.7 Z M35.1,61.1 C34.6,60.8 34.4,60.1 34.7,59.6 C35,59.1 35.7,58.9 36.2,59.2 C36.7,59.5 36.9,60.2 36.6,60.7 C36.4,61.1 36,61.3 35.6,61.3 C35.5,61.3 35.3,61.2 35.1,61.1 Z M165.6,57.4 C165.3,56.9 165.4,56.2 165.9,55.9 C166.4,55.6 167.1,55.7 167.4,56.2 C167.7,56.7 167.6,57.4 167.1,57.7 C166.9,57.8 166.7,57.9 166.5,57.9 C166.1,57.9 165.8,57.7 165.6,57.4 Z M39.1,54.8 C38.6,54.4 38.5,53.7 38.9,53.2 C39.3,52.7 40,52.6 40.5,53 C41,53.4 41.1,54.1 40.8,54.6 C40.6,54.9 40.2,55.1 39.9,55.1 C39.5,55 39.3,55 39.1,54.8 Z M161.2,51.5 C160.8,51 160.9,50.3 161.4,49.9 C161.9,49.5 162.6,49.6 163,50.1 C163.4,50.6 163.3,51.3 162.8,51.7 C162.6,51.9 162.3,51.9 162.1,51.9 C161.8,51.9 161.5,51.7 161.2,51.5 Z M43.7,49 C43.2,48.6 43.2,47.9 43.6,47.4 C44,46.9 44.7,46.9 45.2,47.3 C45.7,47.7 45.7,48.4 45.3,48.9 C45.1,49.1 44.8,49.3 44.5,49.3 C44.1,49.2 43.9,49.1 43.7,49 Z M156.4,46 C156,45.6 156,44.9 156.4,44.4 C156.8,44 157.6,44 158,44.4 C158.4,44.8 158.4,45.5 158,46 C157.8,46.2 157.5,46.3 157.2,46.3 C156.9,46.3 156.6,46.2 156.4,46 Z M48.8,43.5 C48.4,43 48.4,42.3 48.9,41.9 C49.4,41.5 50.1,41.5 50.5,42 C50.9,42.5 50.9,43.2 50.4,43.6 C50.2,43.8 49.9,43.9 49.6,43.9 C49.3,43.9 49,43.8 48.8,43.5 Z M151,41 C150.5,40.6 150.5,39.9 150.9,39.4 C151.3,38.9 152,38.9 152.5,39.3 C153,39.7 153,40.4 152.6,40.9 C152.4,41.2 152.1,41.3 151.7,41.3 C151.5,41.3 151.2,41.2 151,41 Z M54.4,38.6 C54,38.1 54.1,37.4 54.6,37 C55.1,36.6 55.8,36.7 56.2,37.2 C56.6,37.7 56.5,38.4 56,38.8 C55.8,39 55.6,39 55.3,39 C54.9,39.1 54.6,38.9 54.4,38.6 Z M145.2,36.5 C144.7,36.2 144.6,35.5 144.9,35 C145.2,34.5 145.9,34.4 146.5,34.7 C147,35 147.1,35.7 146.8,36.3 C146.6,36.6 146.2,36.8 145.9,36.8 C145.6,36.7 145.4,36.7 145.2,36.5 Z M60.4,34.3 C60.1,33.8 60.2,33.1 60.8,32.8 C60.8,32.8 60.8,32.8 60.8,32.8 C61.3,32.5 62,32.6 62.3,33.1 C62.6,33.6 62.5,34.3 61.9,34.6 C61.7,34.7 61.5,34.8 61.3,34.8 C61,34.8 60.7,34.7 60.4,34.3 Z M138.9,32.7 C138.4,32.4 138.2,31.7 138.5,31.2 C138.8,30.7 139.5,30.5 140,30.8 C140.5,31.1 140.7,31.8 140.4,32.3 C140.2,32.7 139.8,32.9 139.4,32.9 C139.3,32.8 139.1,32.8 138.9,32.7 Z M66.9,30.6 C66.6,30 66.8,29.4 67.4,29.1 C67.9,28.8 68.6,29 68.9,29.6 C69.2,30.2 69,30.8 68.4,31.1 C68.2,31.2 68.1,31.2 67.9,31.2 C67.5,31.2 67.1,31 66.9,30.6 Z M132.3,29.4 C131.7,29.2 131.5,28.5 131.7,27.9 C131.9,27.3 132.6,27.1 133.2,27.3 C133.8,27.5 134,28.2 133.8,28.8 C133.6,29.2 133.2,29.5 132.8,29.5 C132.6,29.5 132.5,29.5 132.3,29.4 Z M73.7,27.5 C73.5,26.9 73.8,26.3 74.3,26.1 C74.9,25.9 75.5,26.2 75.7,26.7 C75.9,27.3 75.6,27.9 75.1,28.1 C75,28.2 74.8,28.2 74.7,28.2 C74.3,28.2 73.8,27.9 73.7,27.5 Z M125.5,26.8 C124.9,26.6 124.6,26 124.8,25.4 C125,24.8 125.6,24.5 126.2,24.7 C126.8,24.9 127.1,25.5 126.9,26.1 C126.7,26.6 126.3,26.9 125.8,26.9 C125.7,26.9 125.6,26.9 125.5,26.8 Z M80.7,25.1 C80.5,24.5 80.9,23.9 81.5,23.7 C82.1,23.5 82.7,23.9 82.9,24.5 C83.1,25.1 82.7,25.7 82.1,25.9 C82,25.9 81.9,25.9 81.8,25.9 C81.3,25.9 80.8,25.6 80.7,25.1 Z M118.4,24.9 C117.8,24.8 117.4,24.2 117.5,23.6 C117.6,23 118.2,22.6 118.8,22.7 C119.4,22.8 119.8,23.4 119.7,24 C119.6,24.5 119.1,24.9 118.6,24.9 C118.6,25 118.5,25 118.4,24.9 Z M87.9,23.4 C87.8,22.8 88.2,22.2 88.8,22.1 C89.4,22 90,22.4 90.1,23 C90.2,23.6 89.8,24.2 89.2,24.3 C89.1,24.3 89.1,24.3 89,24.3 C88.5,24.3 88,23.9 87.9,23.4 Z M111.2,23.7 C110.6,23.6 110.2,23.1 110.2,22.5 C110.3,21.9 110.8,21.5 111.4,21.5 C112,21.6 112.4,22.1 112.4,22.7 C112.3,23.3 111.9,23.7 111.3,23.7 C111.3,23.7 111.2,23.7 111.2,23.7 Z M95.3,22.4 C95.3,21.8 95.7,21.2 96.3,21.2 C96.9,21.2 97.5,21.6 97.5,22.2 C97.5,22.8 97.1,23.3 96.5,23.4 C96.5,23.4 96.4,23.4 96.4,23.4 C95.9,23.4 95.4,23 95.3,22.4 Z M103.8,23.2 C103.2,23.2 102.7,22.7 102.7,22.1 C102.7,21.5 103.2,21 103.8,21 C104.4,21 104.9,21.5 104.9,22.1 C105,22.7 104.5,23.2 103.8,23.2 C103.9,23.2 103.9,23.2 103.8,23.2 Z" id="Shape" fill="#D8EDFE"></path>
                    <circle id="Oval" fill="#D7FFFF" cx="102.5" cy="98.5" r="57.5"></circle>
                    <path d="M103.3,156.2 C103.3,155.6 103.8,155.1 104.4,155 C105,155 105.5,155.5 105.6,156.1 C105.6,156.7 105.1,157.2 104.5,157.3 C104.5,157.3 104.5,157.3 104.5,157.3 C103.8,157.3 103.3,156.9 103.3,156.2 Z M96.9,157.1 C96.3,157 95.8,156.5 95.9,155.9 C96,155.3 96.5,154.8 97.1,154.9 C97.7,155 98.2,155.5 98.1,156.1 C98,156.7 97.6,157.1 97,157.1 C97,157.1 97,157.1 96.9,157.1 Z M110.7,155.7 C110.6,155.1 111,154.5 111.6,154.4 C112.2,154.3 112.8,154.7 112.9,155.3 C113,155.9 112.6,156.5 112,156.6 C111.9,156.6 111.9,156.6 111.8,156.6 C111.2,156.6 110.7,156.2 110.7,155.7 Z M89.5,155.9 C88.9,155.8 88.5,155.2 88.7,154.6 C88.8,154 89.4,153.6 90,153.8 C90.6,153.9 91,154.5 90.8,155.1 C90.7,155.6 90.2,156 89.7,156 C89.7,155.9 89.6,155.9 89.5,155.9 Z M117.9,154.2 C117.7,153.6 118.1,153 118.7,152.8 C119.3,152.6 119.9,153 120.1,153.6 C120.3,154.2 119.9,154.8 119.3,155 C119.2,155 119.1,155 119,155 C118.5,155 118,154.7 117.9,154.2 Z M82.3,153.8 C81.7,153.6 81.4,153 81.6,152.4 C81.8,151.8 82.5,151.5 83,151.7 C83.6,151.9 83.9,152.6 83.7,153.1 C83.5,153.6 83.1,153.8 82.7,153.8 C82.6,153.8 82.5,153.8 82.3,153.8 Z M124.8,151.8 C124.5,151.2 124.8,150.6 125.4,150.3 C126,150 126.6,150.3 126.9,150.9 C127.2,151.5 126.9,152.1 126.3,152.4 C126.2,152.5 126,152.5 125.8,152.5 C125.4,152.4 125,152.2 124.8,151.8 Z M75.5,150.7 C74.9,150.4 74.7,149.7 75,149.2 C75.3,148.7 76,148.4 76.5,148.7 C77,149 77.3,149.7 77,150.2 C76.8,150.6 76.4,150.8 76,150.8 C75.8,150.9 75.6,150.8 75.5,150.7 Z M131.4,148.5 C131.1,148 131.2,147.3 131.8,147 C132.3,146.7 133,146.8 133.3,147.4 C133.6,147.9 133.5,148.6 132.9,148.9 C132.7,149 132.5,149.1 132.3,149.1 C132,149 131.6,148.8 131.4,148.5 Z M69,146.8 C68.5,146.4 68.4,145.8 68.7,145.2 C69.1,144.7 69.7,144.6 70.3,144.9 C70.8,145.2 70.9,145.9 70.6,146.5 C70.4,146.8 70,147 69.7,147 C69.4,147 69.2,147 69,146.8 Z M137.5,144.4 C137.1,143.9 137.2,143.2 137.7,142.8 C138.2,142.4 138.9,142.5 139.3,143 C139.7,143.5 139.6,144.2 139.1,144.6 C138.9,144.8 138.7,144.8 138.4,144.8 C138.1,144.8 137.8,144.7 137.5,144.4 Z M63.2,142.2 C62.7,141.8 62.7,141.1 63.1,140.6 C63.5,140.1 64.2,140.1 64.7,140.5 C65.2,140.9 65.2,141.6 64.8,142.1 C64.6,142.3 64.3,142.5 64,142.5 C63.6,142.4 63.4,142.3 63.2,142.2 Z M143.1,139.5 C142.7,139.1 142.6,138.4 143.1,137.9 C143.5,137.5 144.2,137.4 144.7,137.9 C145.1,138.3 145.2,139 144.7,139.5 C144.5,139.7 144.2,139.8 143.9,139.8 C143.6,139.8 143.3,139.7 143.1,139.5 Z M57.9,136.8 C57.5,136.3 57.6,135.6 58,135.2 C58.5,134.8 59.2,134.9 59.6,135.3 C60,135.8 59.9,136.5 59.5,136.9 C59.3,137.1 59,137.2 58.8,137.2 C58.5,137.2 58.1,137 57.9,136.8 Z M148,134 C147.5,133.6 147.4,132.9 147.8,132.4 C148.2,131.9 148.9,131.8 149.4,132.2 C149.9,132.6 150,133.3 149.6,133.8 C149.4,134.1 149,134.2 148.7,134.2 C148.4,134.2 148.2,134.2 148,134 Z M53.4,130.7 C53.1,130.2 53.2,129.5 53.7,129.2 C54.2,128.9 54.9,129 55.2,129.5 C55.5,130 55.4,130.7 54.9,131 C54.7,131.1 54.5,131.2 54.3,131.2 C54,131.3 53.6,131.1 53.4,130.7 Z M152.1,127.9 C151.6,127.6 151.4,126.9 151.7,126.4 C152,125.9 152.7,125.7 153.2,126 C153.7,126.3 153.9,127 153.6,127.5 C153.4,127.9 153,128.1 152.6,128.1 C152.5,128.1 152.3,128 152.1,127.9 Z M49.7,124.2 C49.4,123.6 49.7,123 50.2,122.7 C50.8,122.4 51.4,122.7 51.7,123.2 C52,123.8 51.7,124.4 51.2,124.7 C51,124.8 50.9,124.8 50.7,124.8 C50.3,124.8 49.9,124.6 49.7,124.2 Z M155.5,121.3 C154.9,121.1 154.7,120.4 154.9,119.8 C155.1,119.2 155.8,119 156.4,119.2 C157,119.4 157.2,120.1 157,120.7 C156.8,121.1 156.4,121.4 156,121.4 C155.7,121.4 155.6,121.4 155.5,121.3 Z M46.9,117.3 C46.7,116.7 47,116.1 47.6,115.9 C48.2,115.7 48.8,116 49,116.6 C49.2,117.2 48.9,117.8 48.3,118 C48.2,118 48.1,118.1 47.9,118.1 C47.5,118 47.1,117.7 46.9,117.3 Z M157.9,114.4 C157.3,114.2 156.9,113.6 157.1,113 C157.3,112.4 157.9,112 158.5,112.2 C159.1,112.4 159.5,113 159.3,113.6 C159.2,114.1 158.7,114.4 158.2,114.4 C158.1,114.4 158,114.4 157.9,114.4 Z M45,110 C45,110 45,110 45,110 C44.9,109.4 45.3,108.8 45.9,108.7 C46.5,108.6 47.1,109 47.2,109.6 C47.3,110.2 46.9,110.8 46.3,110.9 C46.2,110.9 46.2,110.9 46.1,110.9 C45.6,110.9 45.1,110.5 45,110 Z M159.5,107.2 C158.9,107.1 158.5,106.6 158.5,106 C158.6,105.4 159.1,105 159.8,105 C160.4,105.1 160.8,105.6 160.8,106.2 C160.7,106.8 160.2,107.2 159.7,107.2 C159.6,107.2 159.5,107.2 159.5,107.2 Z M44,102.5 C44,102.5 44,102.5 44,102.5 C44,101.9 44.4,101.4 45,101.3 C45.6,101.3 46.1,101.7 46.2,102.3 C46.2,102.9 45.8,103.4 45.2,103.5 C45.2,103.5 45.1,103.5 45.1,103.5 C44.6,103.6 44.1,103.1 44,102.5 Z M158.9,98.7 C158.9,98.7 158.9,98.7 158.9,98.7 C158.9,98.6 158.9,98.6 158.9,98.6 C158.9,98 159.4,97.5 160,97.5 C160.6,97.5 161.1,98 161.1,98.6 C161.1,98.6 161.1,98.6 161.1,98.7 C161.1,98.7 161.1,98.7 161.1,98.8 C161.1,99.4 160.6,99.9 160,99.9 C159.4,99.8 158.9,99.3 158.9,98.7 Z M45.1,96.2 C44.5,96.2 44,95.6 44.1,95 C44.1,94.4 44.7,93.9 45.3,94 C45.9,94 46.4,94.6 46.3,95.2 C46.2,95.8 45.7,96.2 45.1,96.2 C45.1,96.2 45.1,96.2 45.1,96.2 Z M158.5,91.4 C158.4,90.8 158.8,90.2 159.5,90.1 C160.1,90 160.7,90.5 160.7,91.1 C160.8,91.7 160.3,92.3 159.7,92.3 C159.7,92.3 159.6,92.3 159.6,92.3 C159,92.4 158.5,92 158.5,91.4 Z M45.8,88.9 C45.2,88.8 44.8,88.2 44.9,87.6 C44.9,87.6 44.9,87.6 44.9,87.6 C45,87 45.6,86.6 46.2,86.7 C46.8,86.8 47.2,87.4 47.1,88 C47,88.5 46.5,88.9 46,88.9 C46,88.9 45.9,88.9 45.8,88.9 Z M157.1,84.3 C156.9,83.7 157.3,83.1 157.9,82.9 C158.5,82.7 159.1,83.1 159.3,83.7 C159.5,84.3 159.1,84.9 158.5,85.1 C158.4,85.1 158.3,85.1 158.2,85.1 C157.7,85.1 157.2,84.8 157.1,84.3 Z M47.6,81.7 C47,81.5 46.7,80.9 46.9,80.3 C47.1,79.7 47.7,79.4 48.3,79.6 C48.9,79.8 49.2,80.4 49,81 C48.8,81.5 48.4,81.8 47.9,81.8 C47.8,81.8 47.7,81.8 47.6,81.7 Z M154.8,77.4 C154.6,76.8 154.8,76.2 155.4,75.9 C156,75.7 156.6,75.9 156.9,76.5 C156.9,76.5 156.9,76.5 156.9,76.5 C157.1,77.1 156.9,77.7 156.3,78 C156.2,78.1 156,78.1 155.9,78.1 C155.4,78.1 155,77.9 154.8,77.4 Z M50.2,74.8 C49.6,74.5 49.4,73.9 49.7,73.3 C50,72.7 50.6,72.5 51.2,72.8 C51.8,73.1 52,73.7 51.7,74.3 C51.5,74.7 51.1,74.9 50.7,74.9 C50.5,74.9 50.4,74.9 50.2,74.8 Z M151.6,71 C151.3,70.5 151.5,69.8 152,69.5 C152.5,69.2 153.2,69.4 153.5,69.9 C153.8,70.4 153.6,71.1 153.1,71.4 C152.9,71.5 152.7,71.5 152.5,71.5 C152.2,71.5 151.9,71.3 151.6,71 Z M53.7,68.3 C53.2,68 53,67.3 53.4,66.8 C53.7,66.3 54.4,66.1 54.9,66.5 C55.4,66.8 55.6,67.5 55.2,68 C55,68.3 54.6,68.5 54.3,68.5 C54.1,68.5 53.9,68.5 53.7,68.3 Z M147.7,64.9 C147.3,64.4 147.4,63.7 147.9,63.3 C148.4,62.9 149.1,63 149.5,63.5 C149.9,64 149.8,64.7 149.3,65.1 C149.1,65.2 148.9,65.3 148.6,65.3 C148.2,65.4 147.9,65.2 147.7,64.9 Z M58,62.3 C57.5,61.9 57.5,61.2 57.9,60.7 C58.3,60.2 59,60.2 59.5,60.6 C60,61 60,61.7 59.6,62.2 C59.4,62.5 59.1,62.6 58.8,62.6 C58.4,62.6 58.2,62.5 58,62.3 Z M143,59.4 C142.6,59 142.6,58.3 143,57.8 C143.4,57.4 144.2,57.4 144.6,57.8 C144.6,57.8 144.6,57.8 144.6,57.8 C145,58.2 145,59 144.6,59.4 C144.4,59.6 144.1,59.7 143.8,59.7 C143.5,59.8 143.2,59.6 143,59.4 Z M63,56.9 C62.6,56.4 62.6,55.7 63.1,55.3 C63.6,54.9 64.3,54.9 64.7,55.4 C65.1,55.9 65.1,56.6 64.6,57 C64.4,57.2 64.1,57.3 63.8,57.3 C63.5,57.3 63.2,57.2 63,56.9 Z M137.6,54.6 C137.1,54.2 137,53.5 137.4,53 C137.8,52.5 138.5,52.4 139,52.8 C139.5,53.2 139.6,53.9 139.2,54.4 C139,54.7 138.7,54.8 138.3,54.8 C138.1,54.8 137.8,54.7 137.6,54.6 Z M68.7,52.2 C68.4,51.7 68.5,51 69,50.6 C69.5,50.2 70.2,50.4 70.6,50.9 C71,51.4 70.8,52.1 70.3,52.5 C70.1,52.6 69.9,52.7 69.7,52.7 C69.2,52.7 68.9,52.5 68.7,52.2 Z M131.7,50.4 C131.2,50.1 131,49.4 131.3,48.9 C131.6,48.4 132.3,48.2 132.8,48.5 C133.3,48.8 133.5,49.5 133.2,50 C133,50.3 132.6,50.5 132.2,50.5 C132.1,50.6 131.9,50.5 131.7,50.4 Z M74.9,48.3 C74.6,47.8 74.8,47.1 75.4,46.8 C75.9,46.5 76.6,46.7 76.9,47.3 C77.2,47.8 77,48.5 76.4,48.8 C76.2,48.9 76.1,48.9 75.9,48.9 C75.5,48.9 75.1,48.7 74.9,48.3 Z M125.3,47.1 C124.7,46.9 124.5,46.2 124.7,45.6 C125,45 125.6,44.8 126.2,45 C126.8,45.2 127,45.9 126.8,46.5 C126.6,46.9 126.2,47.2 125.8,47.2 C125.6,47.2 125.4,47.2 125.3,47.1 Z M81.5,45.1 C81.3,44.5 81.6,43.9 82.2,43.7 C82.8,43.5 83.4,43.8 83.6,44.4 C83.8,45 83.5,45.6 82.9,45.8 C82.8,45.8 82.6,45.9 82.5,45.9 C82.1,45.9 81.7,45.6 81.5,45.1 Z M118.5,44.6 C117.9,44.4 117.6,43.8 117.7,43.2 C117.9,42.6 118.5,42.3 119.1,42.4 C119.7,42.6 120,43.2 119.9,43.8 C119.8,44.3 119.3,44.6 118.8,44.6 C118.7,44.7 118.6,44.6 118.5,44.6 Z M88.6,42.9 C88.5,42.3 88.8,41.7 89.4,41.6 C89.4,41.6 89.4,41.6 89.4,41.6 C90,41.5 90.6,41.8 90.7,42.4 C90.8,43 90.5,43.6 89.9,43.7 C89.8,43.7 89.7,43.7 89.7,43.7 C89.1,43.8 88.7,43.4 88.6,42.9 Z M111.5,43 C110.9,42.9 110.5,42.3 110.6,41.7 C110.7,41.1 111.3,40.7 111.9,40.8 C112.5,40.9 112.9,41.5 112.8,42.1 C112.7,42.7 112.2,43 111.7,43 C111.6,43 111.5,43 111.5,43 Z M95.8,41.6 C95.7,41 96.2,40.4 96.8,40.4 C96.8,40.4 96.8,40.4 96.8,40.4 C97.4,40.3 98,40.8 98,41.4 C98.1,42 97.6,42.6 97,42.6 C97,42.6 96.9,42.6 96.9,42.6 C96.4,42.6 95.9,42.2 95.8,41.6 Z M104.3,42.3 C103.7,42.3 103.2,41.8 103.2,41.1 C103.2,40.5 103.7,40 104.3,40 C104.9,40 105.4,40.5 105.4,41.2 C105.4,41.9 104.9,42.3 104.3,42.3 C104.3,42.3 104.3,42.3 104.3,42.3 Z" id="Shape" fill="#59EAE3"></path>
                    <circle id="Oval" fill="#F3FEFF" cx="101.7" cy="98.7" r="37.7"></circle>
                    <path d="M102.2,138.2 C101.6,138.2 101.1,137.7 101.1,137.1 C101.1,136.5 101.6,136 102.2,136 C102.8,136 103.3,136.5 103.3,137.1 C103.3,137.7 102.8,138.2 102.2,138.2 Z M94.6,137.5 C94,137.4 93.6,136.8 93.7,136.2 C93.8,135.6 94.4,135.2 95,135.3 C95.6,135.4 96,136 95.9,136.6 C95.8,137.1 95.3,137.5 94.8,137.5 C94.7,137.5 94.6,137.5 94.6,137.5 Z M108.5,136.6 C108.4,136 108.8,135.4 109.4,135.3 C110,135.2 110.6,135.6 110.7,136.2 C110.8,136.8 110.4,137.4 109.8,137.5 C109.7,137.5 109.7,137.5 109.6,137.5 C109.1,137.5 108.6,137.1 108.5,136.6 Z M87.2,135.3 C86.6,135.1 86.4,134.4 86.6,133.8 C86.8,133.2 87.5,133 88.1,133.2 C88.7,133.4 88.9,134.1 88.7,134.7 C88.5,135.1 88.1,135.4 87.7,135.4 C87.5,135.4 87.4,135.3 87.2,135.3 Z M115.7,134.7 C115.5,134.1 115.7,133.5 116.3,133.2 C116.9,133 117.5,133.2 117.8,133.8 C118,134.4 117.8,135 117.2,135.3 C117.1,135.4 116.9,135.4 116.8,135.4 C116.3,135.3 115.9,135.1 115.7,134.7 Z M80.5,131.7 C80,131.4 79.9,130.7 80.2,130.2 C80.5,129.7 81.2,129.5 81.7,129.9 C82.2,130.2 82.3,130.9 82,131.4 C81.8,131.7 81.4,131.9 81.1,131.9 C80.9,131.9 80.7,131.8 80.5,131.7 Z M122.3,131.3 C122,130.8 122.1,130.1 122.6,129.8 C123.1,129.5 123.8,129.6 124.1,130.1 C124.4,130.6 124.3,131.3 123.8,131.6 C123.6,131.7 123.4,131.8 123.2,131.8 C122.9,131.8 122.6,131.6 122.3,131.3 Z M74.5,126.8 C74.1,126.4 74.1,125.7 74.5,125.2 C74.9,124.8 75.6,124.8 76.1,125.2 C76.5,125.6 76.5,126.3 76.1,126.8 C75.9,127 75.6,127.1 75.3,127.1 C75,127.1 74.8,127 74.5,126.8 Z M128.2,126.8 C127.8,126.4 127.8,125.7 128.2,125.2 C128.6,124.8 129.3,124.8 129.8,125.2 C130.2,125.6 130.2,126.3 129.8,126.8 C129.6,127 129.3,127.1 129,127.1 C128.7,127.1 128.4,127 128.2,126.8 Z M69.7,120.9 C69.4,120.4 69.5,119.7 70,119.4 C70.5,119.1 71.2,119.2 71.5,119.7 C71.8,120.2 71.7,120.9 71.2,121.2 C71,121.3 70.8,121.4 70.6,121.4 C70.2,121.4 69.9,121.2 69.7,120.9 Z M133.1,121.1 C132.6,120.8 132.4,120.1 132.8,119.6 C133.1,119.1 133.8,118.9 134.3,119.3 C134.8,119.6 135,120.3 134.6,120.8 C134.4,121.1 134,121.3 133.7,121.3 C133.5,121.3 133.3,121.3 133.1,121.1 Z M66,114.2 C65.8,113.6 66,113 66.6,112.7 C67.2,112.5 67.8,112.7 68.1,113.3 C68.3,113.9 68.1,114.5 67.5,114.8 C67.4,114.9 67.2,114.9 67.1,114.9 C66.6,114.8 66.2,114.6 66,114.2 Z M136.8,114.7 C136.2,114.5 136,113.8 136.2,113.2 C136.4,112.6 137.1,112.4 137.7,112.6 C138.3,112.8 138.5,113.5 138.3,114.1 C138.1,114.5 137.7,114.8 137.3,114.8 C137.1,114.8 137,114.7 136.8,114.7 Z M63.8,106.8 C63.7,106.2 64.1,105.6 64.7,105.5 C65.3,105.4 65.9,105.8 66,106.4 C66.1,107 65.7,107.6 65.1,107.7 C65,107.7 65,107.7 64.9,107.7 C64.4,107.7 63.9,107.4 63.8,106.8 Z M139.2,107.6 C138.6,107.5 138.2,106.9 138.3,106.3 C138.4,105.7 139,105.3 139.6,105.4 C140.2,105.5 140.6,106.1 140.5,106.7 C140.4,107.2 139.9,107.6 139.4,107.6 C139.3,107.6 139.3,107.6 139.2,107.6 Z M63,99.2 C63,98.6 63.5,98.1 64.1,98.1 C64.7,98.1 65.2,98.6 65.2,99.2 C65.2,99.8 64.7,100.3 64.1,100.3 C63.5,100.3 63,99.8 63,99.2 Z M139,99.1 C139,99.1 139,99.1 139,99.1 C139,99 139,99 139,98.9 C139,98.3 139.5,97.8 140.1,97.8 C140.7,97.8 141.2,98.3 141.2,98.9 C141.2,98.9 141.2,99 141.2,99 C141.2,99 141.2,99.1 141.2,99.1 C141.2,99.7 140.7,100.2 140.1,100.2 C139.5,100.2 139,99.7 139,99.1 Z M64.6,92.9 C64,92.8 63.6,92.2 63.7,91.6 C63.8,91 64.4,90.6 65,90.7 C65.6,90.8 66,91.4 65.9,92 C65.8,92.5 65.3,92.9 64.8,92.9 C64.8,92.9 64.7,92.9 64.6,92.9 Z M138.3,91.8 C138.2,91.2 138.6,90.6 139.2,90.5 C139.8,90.4 140.4,90.8 140.5,91.4 C140.6,92 140.2,92.6 139.6,92.7 C139.5,92.7 139.4,92.7 139.4,92.7 C138.9,92.7 138.4,92.3 138.3,91.8 Z M66.6,85.7 C66,85.5 65.8,84.8 66,84.2 C66.2,83.6 66.9,83.4 67.5,83.6 C68.1,83.8 68.3,84.5 68.1,85.1 C67.9,85.5 67.5,85.8 67.1,85.8 C66.9,85.8 66.7,85.8 66.6,85.7 Z M136.2,84.9 C136,84.3 136.2,83.7 136.8,83.4 C137.4,83.2 138,83.4 138.3,84 C138.5,84.6 138.3,85.2 137.7,85.5 C137.6,85.6 137.4,85.6 137.3,85.6 C136.8,85.6 136.3,85.3 136.2,84.9 Z M69.9,79 C69.4,78.7 69.2,78 69.6,77.5 C69.9,77 70.6,76.8 71.1,77.2 C71.6,77.5 71.8,78.2 71.4,78.7 C71.2,79 70.8,79.2 70.5,79.2 C70.3,79.2 70.1,79.1 69.9,79 Z M132.7,78.5 C132.4,78 132.5,77.3 133,77 C133.5,76.7 134.2,76.8 134.5,77.3 C134.8,77.8 134.7,78.5 134.2,78.9 C134,79 133.8,79.1 133.6,79.1 C133.3,79 132.9,78.8 132.7,78.5 Z M74.4,73.1 C74,72.7 74,72 74.4,71.5 C74.8,71.1 75.5,71.1 76,71.5 C76.4,71.9 76.4,72.6 76,73.1 C75.8,73.3 75.5,73.4 75.2,73.4 C74.9,73.4 74.6,73.3 74.4,73.1 Z M128.1,72.9 C127.7,72.5 127.7,71.8 128.1,71.3 C128.5,70.9 129.2,70.9 129.7,71.3 C130.1,71.7 130.1,72.4 129.7,72.9 C129.5,73.1 129.2,73.2 128.9,73.2 C128.6,73.3 128.3,73.2 128.1,72.9 Z M80,68.2 C79.7,67.7 79.8,67 80.3,66.7 C80.8,66.4 81.5,66.5 81.8,67 C82.1,67.5 82,68.2 81.5,68.5 C81.3,68.6 81.1,68.7 80.9,68.7 C80.6,68.7 80.2,68.5 80,68.2 Z M122.5,68.4 C122,68.1 121.8,67.4 122.2,66.9 C122.5,66.4 123.2,66.2 123.7,66.6 C124.2,66.9 124.4,67.6 124,68.1 C123.8,68.4 123.4,68.6 123.1,68.6 C122.9,68.6 122.7,68.5 122.5,68.4 Z M86.5,64.5 C86.3,63.9 86.5,63.3 87.1,63 C87.7,62.8 88.3,63 88.6,63.6 C88.8,64.2 88.6,64.8 88,65.1 C87.9,65.2 87.7,65.2 87.6,65.2 C87.1,65.2 86.6,64.9 86.5,64.5 Z M116.1,65 C115.5,64.8 115.3,64.1 115.5,63.5 C115.7,62.9 116.4,62.7 117,62.9 C117.6,63.1 117.8,63.8 117.6,64.4 C117.4,64.8 117,65.1 116.6,65.1 C116.4,65.1 116.3,65 116.1,65 Z M93.5,62.1 C93.4,61.5 93.8,60.9 94.4,60.8 C95,60.7 95.6,61.1 95.7,61.7 C95.8,62.3 95.4,62.9 94.8,63 C94.7,63 94.7,63 94.6,63 C94.1,63 93.6,62.6 93.5,62.1 Z M109.2,62.9 C108.6,62.8 108.2,62.2 108.3,61.6 C108.4,61 109,60.6 109.6,60.7 C110.2,60.8 110.6,61.4 110.5,62 C110.4,62.5 109.9,62.9 109.4,62.9 C109.4,62.9 109.3,62.9 109.2,62.9 Z M100.9,61.1 C100.9,60.5 101.4,60 102,60 C102.6,60 103.1,60.5 103.1,61.1 C103.1,61.7 102.6,62.2 102,62.2 C101.4,62.2 100.9,61.7 100.9,61.1 Z" id="Shape" fill="#D8EDFE"></path>
                    <path d="M101.4,117 C101.4,116.4 101.9,115.9 102.5,115.9 C103.1,115.9 103.6,116.4 103.6,117 C103.6,117.6 103.1,118.1 102.5,118.1 C101.9,118.1 101.4,117.6 101.4,117 Z M95.1,116.6 C94.5,116.4 94.3,115.7 94.5,115.1 C94.7,114.5 95.4,114.3 96,114.5 C96.6,114.7 96.8,115.4 96.6,116 C96.4,116.4 96,116.7 95.6,116.7 C95.4,116.7 95.2,116.7 95.1,116.6 Z M108.6,116 C108.4,115.4 108.6,114.8 109.2,114.5 C109.8,114.3 110.4,114.5 110.7,115.1 C110.9,115.7 110.7,116.3 110.1,116.6 C110,116.7 109.8,116.7 109.7,116.7 C109.2,116.7 108.8,116.4 108.6,116 Z M88.7,112.4 C88.3,112 88.3,111.3 88.7,110.8 C89.1,110.4 89.8,110.4 90.3,110.8 C90.7,111.2 90.7,111.9 90.3,112.4 C90.1,112.6 89.8,112.7 89.5,112.7 C89.2,112.7 88.9,112.6 88.7,112.4 Z M114.8,112.4 C114.4,112 114.4,111.3 114.8,110.8 C115.2,110.4 115.9,110.4 116.4,110.8 C116.8,111.2 116.8,111.9 116.4,112.4 C116.2,112.6 115.9,112.7 115.6,112.7 C115.3,112.7 115,112.6 114.8,112.4 Z M84.5,106 C84.3,105.4 84.5,104.8 85.1,104.5 C85.7,104.3 86.3,104.5 86.6,105.1 C86.8,105.7 86.6,106.3 86,106.6 C85.9,106.7 85.7,106.7 85.6,106.7 C85.1,106.7 84.6,106.5 84.5,106 Z M119.2,106.6 C118.6,106.4 118.4,105.7 118.6,105.1 C118.8,104.5 119.5,104.3 120.1,104.5 C120.7,104.7 120.9,105.4 120.7,106 C120.5,106.4 120.1,106.7 119.7,106.7 C119.5,106.7 119.3,106.7 119.2,106.6 Z M83,98.6 C83,98 83.5,97.5 84.1,97.5 C84.7,97.5 85.2,98 85.2,98.6 C85.2,99.2 84.7,99.7 84.1,99.7 C83.5,99.7 83,99.2 83,98.6 Z M119.9,98.5 C119.9,98.5 119.9,98.5 119.9,98.5 C119.9,98.5 119.9,98.5 119.9,98.5 C119.9,97.8 120.4,97.3 121,97.3 C121.6,97.3 122.1,97.8 122.1,98.4 C122.1,98.4 122.1,98.4 122.1,98.4 C122.1,98.4 122.1,98.4 122.1,98.4 C122.1,98.4 122.1,98.4 122.1,98.4 C122.1,99 121.6,99.5 121,99.5 C120.4,99.6 119.9,99.1 119.9,98.5 Z M85,92.5 C84.4,92.3 84.2,91.6 84.4,91 C84.6,90.4 85.3,90.2 85.9,90.4 C86.5,90.6 86.7,91.3 86.5,91.9 C86.3,92.3 85.9,92.6 85.5,92.6 C85.3,92.6 85.2,92.6 85,92.5 Z M118.6,91.8 C118.4,91.2 118.6,90.6 119.2,90.3 C119.8,90.1 120.4,90.3 120.7,90.9 C120.9,91.5 120.7,92.1 120.1,92.4 C120,92.5 119.8,92.5 119.7,92.5 C119.1,92.5 118.7,92.2 118.6,91.8 Z M88.7,86.3 C88.3,85.9 88.3,85.2 88.7,84.7 C89.1,84.3 89.8,84.3 90.3,84.7 C90.7,85.1 90.7,85.8 90.3,86.3 C90.1,86.5 89.8,86.6 89.5,86.6 C89.2,86.6 88.9,86.5 88.7,86.3 Z M114.8,86.2 C114.4,85.8 114.4,85.1 114.8,84.6 C115.2,84.2 115.9,84.2 116.4,84.6 C116.8,85 116.8,85.7 116.4,86.2 C116.2,86.4 115.9,86.5 115.6,86.5 C115.3,86.5 115,86.4 114.8,86.2 Z M94.4,81.9 C94.2,81.3 94.4,80.7 95,80.4 C95.6,80.2 96.2,80.4 96.5,81 C96.7,81.6 96.5,82.2 95.9,82.5 C95.8,82.6 95.6,82.6 95.5,82.6 C95,82.6 94.6,82.3 94.4,81.9 Z M109.1,82.5 C108.5,82.3 108.3,81.6 108.5,81 C108.7,80.4 109.4,80.2 110,80.4 C110,80.4 110,80.4 110,80.4 C110.6,80.6 110.8,81.3 110.6,81.9 C110.4,82.3 110,82.6 109.6,82.6 C109.4,82.5 109.3,82.5 109.1,82.5 Z M102.5,81.2 C101.9,81.2 101.4,80.7 101.4,80.1 C101.4,79.5 101.9,79 102.5,79 C103.1,79 103.6,79.5 103.6,80.1 C103.6,80.7 103.1,81.2 102.5,81.2 C101.9,81.2 102.5,81.2 102.5,81.2 Z" id="Shape" fill="#00FFCE"></path>
                    <path d="M102.1,100.2375 C101.8,100.2375 101.5,100.1375 101.3,99.9375 C101.1,99.7375 101,99.4375 101,99.1375 C101,98.8375 101.1,98.5375 101.3,98.3375 C101.6,98.0375 101.9,97.9375 102.3,98.0375 C102.4,98.0375 102.4,98.0375 102.5,98.1375 C102.6,98.1375 102.6,98.2375 102.7,98.2375 C102.8,98.2375 102.8,98.3375 102.9,98.3375 C103,98.4375 103,98.4375 103,98.5375 C103,98.6375 103.1,98.6375 103.1,98.7375 C103.1,98.8375 103.2,98.8375 103.2,98.9375 C103.2,99.0375 103.2,99.0375 103.2,99.1375 C103.2,99.4375 103.1,99.7375 102.9,99.9375 C102.8,100.0375 102.8,100.0375 102.7,100.0375 C102.6,100.0375 102.6,100.1375 102.5,100.1375 C102.4,100.1375 102.4,100.1375 102.3,100.2375 C102.2,100.2375 102.1,100.2375 102.1,100.2375 Z" id="Shape" fill="#59EAE3"></path>
                    <path d="M102.1,100.2 C102,100.2 102,100.2 101.9,100.2 C101.8,100.2 101.8,100.2 101.7,100.1 C101.6,100.1 101.6,100 101.5,100 C101.4,100 101.4,99.9 101.3,99.9 C101.1,99.7 101,99.4 101,99.1 C101,98.8 101.1,98.5 101.3,98.3 C101.4,98.2 101.4,98.2 101.5,98.2 C101.6,98.2 101.6,98.1 101.7,98.1 C101.8,98.1 101.8,98 101.9,98 C102,98 102.2,98 102.3,98 C102.4,98 102.4,98 102.5,98.1 C102.6,98.1 102.6,98.2 102.7,98.2 C102.8,98.2 102.8,98.3 102.9,98.3 C103.1,98.5 103.2,98.8 103.2,99.1 C103.2,99.4 103.1,99.7 102.9,99.9 C102.8,100 102.8,100 102.7,100 C102.6,100 102.6,100.1 102.5,100.1 C102.4,100.1 102.4,100.1 102.3,100.2 C102.3,100.2 102.2,100.2 102.1,100.2 Z" id="Shape" fill="#59EAE3"></path>
                    <path d="M102.1,100.2 C102,100.2 102,100.2 101.9,100.2 C101.8,100.2 101.8,100.2 101.7,100.1 C101.6,100.1 101.6,100 101.5,100 C101.4,100 101.4,99.9 101.3,99.9 C101.1,99.7 101,99.4 101,99.1 C101,99 101,99 101,98.9 C101,98.8 101,98.8 101.1,98.7 C101.1,98.6 101.2,98.6 101.2,98.5 C101.2,98.4 101.3,98.4 101.3,98.3 C101.3,98.2 101.4,98.2 101.5,98.2 C101.6,98.2 101.6,98.1 101.7,98.1 C101.8,98.1 101.8,98 101.9,98 C102,98 102.2,98 102.3,98 C102.4,98 102.4,98 102.5,98.1 C102.6,98.1 102.6,98.2 102.7,98.2 C102.8,98.2 102.8,98.3 102.9,98.3 C103,98.4 103,98.4 103,98.5 C103,98.6 103.1,98.6 103.1,98.7 C103.1,98.8 103.1,98.8 103.2,98.9 C103.2,99 103.2,99 103.2,99.1 C103.2,99.2 103.2,99.2 103.2,99.3 C103.2,99.4 103.2,99.4 103.1,99.5 C103.1,99.6 103,99.6 103,99.7 C103,99.8 102.9,99.8 102.9,99.9 C102.8,100 102.8,100 102.7,100 C102.6,100 102.6,100.1 102.5,100.1 C102.4,100.1 102.4,100.1 102.3,100.2 C102.3,100.2 102.2,100.2 102.1,100.2 Z" id="Shape" fill="#59EAE3"></path>
                    <path d="M102.1,100.2 C102,100.2 102,100.2 101.9,100.2 C101.8,100.2 101.8,100.2 101.7,100.1 C101.6,100.1 101.6,100 101.5,100 C101.4,100 101.4,99.9 101.3,99.9 C101.1,99.7 101,99.4 101,99.1 C101,98.8 101.1,98.5 101.3,98.3 C101.4,98.2 101.4,98.2 101.5,98.2 C101.6,98.2 101.6,98.1 101.7,98.1 C101.8,98.1 101.8,98 101.9,98 C102,98 102.2,98 102.3,98 C102.4,98 102.4,98 102.5,98.1 C102.6,98.2 102.6,98.2 102.7,98.2 C102.8,98.2 102.8,98.3 102.9,98.3 C103.1,98.5 103.2,98.8 103.2,99.1 C103.2,99.4 103.1,99.7 102.9,99.9 C102.8,100 102.8,100 102.7,100 C102.6,100 102.6,100.1 102.5,100.1 C102.4,100.1 102.4,100.1 102.3,100.2 C102.3,100.2 102.2,100.2 102.1,100.2 Z" id="Shape" fill="#59EAE3"></path>
                    <polygon id="Shape" fill="url(#linearGradient-2)" opacity="0.51" points="124.6 12 124.6 182.4 79 182.4 79 12"></polygon>
                    <polygon id="Shape" fill="url(#linearGradient-3)" opacity="0.47" points="22 149.1 150 21 182.2 53.2 54.1 181.3"></polygon>
                    <polygon id="Shape" fill="url(#linearGradient-4)" opacity="0.27" points="18 74 185.2 74 185.2 119.6 18 119.6"></polygon>
                    <path d="M147.048287,143.45 L149.648287,148.65 C149.748287,148.95 150.048287,149.05 150.248287,149.15 L155.948287,149.95 C156.648287,150.05 156.948287,150.95 156.448287,151.35 L152.248287,155.45 C152.048287,155.65 151.948287,155.95 152.048287,156.25 L153.048287,161.95 C153.148287,162.65 152.448287,163.15 151.848287,162.85 L146.748287,160.15 C146.548287,160.05 146.248287,160.05 145.948287,160.15 L140.848287,162.85 C140.248287,163.15 139.448287,162.65 139.648287,161.95 L140.648287,156.25 C140.648287,155.95 140.648287,155.65 140.448287,155.45 L136.248287,151.35 C135.748287,150.85 136.048287,150.05 136.748287,149.95 L142.448287,149.15 C142.748287,149.15 142.948287,148.95 143.048287,148.65 L145.648287,143.45 C145.848287,142.85 146.748287,142.85 147.048287,143.45 Z" id="Shape" fill="#3E85F7"></path>
                    <circle id="Oval" fill="#3E85F7" cx="47.6" cy="80.6" r="4.6"></circle>
                    <circle id="Oval" fill="#00FFCE" cx="178.6" cy="84.6" r="4.6"></circle>
                    <path d="M145,98.4 C145,98.8 145,99.3 145,99.7 C144.8,101 144,101.9 143.4,103 C142.3,105 141.1,106.9 140,108.9 C139.9,109.1 139.8,109.3 139.5,109.4 C139.2,109.4 139.1,109.2 138.9,109 C136.2,106.3 133.5,103.6 130.8,100.9 C130.6,100.6 130.4,100.4 130.2,100.2 C126.8,96.8 123.4,93.3 119.9,89.9 C119.7,89.7 119.6,89.6 119.4,89.5 C119.1,88.9 118.5,88.7 117.9,88.4 C114.9,86.6 111.8,84.9 108.8,83.1 C107,82 105.2,81 103.3,79.9 C102.8,79.6 102.2,79.6 101.7,79.9 C99.5,81.2 97.2,82.5 95,83.8 C92.6,85.2 90.1,86.6 87.7,88 C87.2,88.3 86.7,88.6 86.2,88.9 C85.8,89.2 85.5,89.5 85.6,90 C85.6,90 85.6,90.1 85.6,90.1 C85.6,95.9 85.4,101.8 85.5,107.6 C85.5,108.3 85.7,108.9 86.3,109.2 C86.5,109.7 86.9,110 87.3,110.3 C90.7,113.7 94.2,117.2 97.6,120.6 C97.8,120.8 98.1,121.1 98.4,121.2 C98.6,121.4 98.7,121.5 98.9,121.7 C103.4,126.2 108,130.8 112.5,135.3 C112.7,135.5 113,135.6 112.9,136 C102.6,136 92.4,136 82.1,136 C80.9,135.9 80.2,135.2 79.7,134.2 C77.2,129.8 74.6,125.4 72.1,121 C69.4,116.3 66.7,111.6 64,106.9 C62.8,104.8 61.6,102.8 60.4,100.8 C60,100.1 60,99.3 60,98.5 C60,97.5 60.6,96.7 61.1,95.9 C63,92.6 64.9,89.3 66.8,86 C68.5,83.1 70.1,80.3 71.8,77.4 C73.8,73.9 75.8,70.5 77.8,67 C78.5,65.8 79.2,64.6 79.9,63.4 C80.4,62.5 81.1,62 82.2,62 C95.7,62 109.2,62 122.7,62 C123.9,62 124.6,62.8 125.2,63.8 C127.4,67.6 129.6,71.4 131.8,75.3 C134.1,79.2 136.3,83.1 138.6,87 C140.5,90.2 142.3,93.5 144.2,96.7 C144.7,97.1 144.9,97.7 145,98.4 Z" id="Shape" fill="#3E85F7"></path>
                    <path d="M113.167277,136.265685 C113.067277,136.065685 112.867277,135.965685 112.767277,135.765685 C108.167277,131.165685 103.567277,126.565685 99.067277,122.065685 C98.867277,121.865685 98.767277,121.765685 98.667277,121.565685 C98.567277,121.465685 98.467277,121.365685 98.367277,121.265685 C94.667277,117.565685 90.967277,113.865685 87.267277,110.165685 C87.167277,110.065685 86.867277,109.965685 87.067277,109.765685 C87.367277,109.665685 87.567277,109.865685 87.867277,109.965685 C89.267277,110.765685 90.567277,111.565685 91.967277,112.365685 C95.367277,114.365685 98.667277,116.265685 102.067277,118.265685 C102.567277,118.565685 103.067277,118.565685 103.667277,118.265685 C105.167277,117.365685 106.667277,116.565685 108.267277,115.665685 C111.167277,114.065685 113.967277,112.365685 116.867277,110.765685 C117.567277,110.365685 118.267277,109.965685 118.967277,109.565685 C119.567277,109.265685 119.867277,108.765685 119.867277,108.065685 C119.867277,104.665685 119.767277,101.365685 119.867277,97.9656854 C119.967277,95.5656854 119.967277,93.0656854 119.967277,90.6656854 C119.967277,90.4656854 119.967277,90.3656854 120.067277,90.1656854 C120.167277,89.9656854 120.267277,89.9656854 120.467277,90.0656854 C120.567277,90.1656854 120.667277,90.2656854 120.767277,90.3656854 C124.167277,93.7656854 127.667277,97.2656854 131.067277,100.665685 C131.267277,100.865685 131.367277,100.965685 131.567277,101.065685 C131.667277,101.165685 131.867277,101.365685 131.967277,101.465685 C134.467277,103.965685 137.067277,106.565685 139.567277,109.065685 C139.767277,109.265685 139.867277,109.365685 139.967277,109.565685 C140.167277,109.765685 140.067277,109.965685 139.967277,110.065685 C138.967277,111.765685 137.967277,113.565685 136.967277,115.265685 C135.467277,117.765685 134.067277,120.365685 132.567277,122.865685 C131.167277,125.265685 129.767277,127.665685 128.367277,130.165685 C127.567277,131.665685 126.667277,133.065685 125.867277,134.565685 C125.267277,135.565685 124.567277,136.265685 123.367277,136.365685 C119.767277,136.265685 116.467277,136.265685 113.167277,136.265685 Z" id="Shape" fill="#3E7ADC"></path>
                    <path d="M120.3,89.4638259 C120.3,92.6638259 120.3,95.7638259 120.3,98.9638259 C120.3,101.863826 120.3,104.763826 120.3,107.563826 C120.3,108.263826 120,108.763826 119.4,109.063826 C114.3,111.963826 109.1,114.963826 104,117.863826 C103.4,118.263826 102.8,118.163826 102.2,117.863826 C97.4,115.063826 92.7,112.363826 87.9,109.563826 C87.7,109.463826 87.6,109.363826 87.4,109.263826 C87.2,109.263826 87.1,109.063826 86.9,108.963826 C86.2,108.563826 86,107.963826 86,107.163826 C86,101.263826 86.1,95.4638259 86.1,89.5638259 C86.1,88.8638259 86.4,88.3638259 87,88.0638259 C92.1,85.1638259 97.3,82.1638259 102.4,79.2638259 C103,78.8638259 103.6,78.9638259 104.2,79.2638259 C109.3,82.2638259 114.5,85.2638259 119.6,88.1638259 C119.9,88.3638259 120.2,88.5638259 120.4,88.9638259 C120.3,89.1638259 120.2,89.3638259 120.3,89.4638259 Z" id="Shape" fill="#FEFEFE"></path>
                    <path d="M86,112 C86.2,112 86.3,112.1 86.5,112.3 C86.6,112.5 86.8,112.6 86.9,112.8 C90.5,116.4 94.1,120 97.7,123.6 C97.8,123.7 98,123.9 98.1,124 C97.9,124 97.8,123.8 97.7,123.7 C93.9,119.9 90.1,116.1 86.3,112.2 C86.2,112.2 86.1,112.1 86,112 Z" id="Shape" fill="#4E88EA"></path>
                    <path d="M119.1,92.4 C119.1,92.3 119,92.1 119,92 C119.1,92.1 119.3,92.2 119.4,92.3 C123,95.8 126.5,99.4 130.1,103 C130.2,103.1 130.3,103.3 130.4,103.4 C130.2,103.3 130,103.1 129.9,103 C126.5,99.6 123,96.1 119.6,92.7 C119.4,92.5 119.3,92.3 119.1,92.4 Z" id="Shape" fill="#4E88EA"></path>
                    <path d="M115.944444,105.7 C115.244444,105.2 114.544444,104.8 113.844444,104.4 C112.744444,103.7 111.644444,103.1 110.544444,102.4 C110.244444,102.2 110.144444,102.1 110.244444,101.8 C110.244444,99.8 110.244444,97.8 110.244444,95.8 C110.244444,95.5 110.244444,95.3 109.844444,95.5 C107.744444,96.6 105.644444,97.7 103.544444,98.9 C103.344444,99 103.244444,99.1 103.244444,99.4 C103.244444,102 103.344444,104.6 103.344444,107.2 C103.344444,107.3 103.344444,107.3 103.344444,107.4 C103.544444,107.4 103.644444,107.3 103.844444,107.2 C105.644444,106.2 107.444444,105.1 109.244444,104.1 C109.544444,103.9 109.744444,103.9 109.944444,104.1 C111.544444,105.1 113.144444,106.1 114.744444,107 C114.844444,107.1 115.044444,107.1 115.044444,107.3 C114.744444,107.5 114.444444,107.7 114.144444,107.8 C110.544444,109.9 106.844444,112 103.244444,114.1 C102.644444,114.5 102.144444,114.4 101.544444,114.1 C97.8444444,111.9 94.0444444,109.7 90.3444444,107.6 C90.2444444,107.5 90.0444444,107.4 89.8444444,107.3 C90.1444444,107 90.4444444,106.9 90.7444444,106.7 C92.1444444,105.8 93.6444444,105 95.0444444,104.1 C95.3444444,103.9 95.4444444,103.9 95.7444444,104.1 C97.4444444,105.1 99.2444444,106.1 101.044444,107.2 C101.144444,107.3 101.344444,107.3 101.444444,107.4 C101.544444,107.3 101.544444,107.1 101.544444,107 C101.544444,104.6 101.544444,102.1 101.444444,99.7 C101.444444,99.5 101.444444,99.3 101.244444,99.2 C99.1444444,98 97.0444444,96.7 94.9444444,95.5 C94.8444444,95.5 94.8444444,95.4 94.6444444,95.4 C94.6444444,96.9 94.6444444,98.2 94.6444444,99.6 C94.6444444,100.4 94.6444444,101.2 94.6444444,102 C94.6444444,102.2 94.6444444,102.4 94.4444444,102.5 C92.6444444,103.6 90.8444444,104.6 89.1444444,105.7 C89.1444444,105.7 89.0444444,105.7 89.0444444,105.7 C88.9444444,105.6 89.0444444,105.4 89.0444444,105.3 C89.0444444,100.9 89.0444444,96.4 89.0444444,92 C89.0444444,91.4 89.2444444,91.1 89.7444444,90.8 C93.5444444,88.6 97.3444444,86.5 101.144444,84.3 C101.444444,84.1 101.544444,84.1 101.544444,84.5 C101.544444,86.4 101.544444,88.3 101.544444,90.3 C101.544444,90.6 101.444444,90.7 101.244444,90.9 C99.4444444,91.9 97.7444444,92.9 95.9444444,93.9 C95.9444444,94.1 96.0444444,94.1 96.1444444,94.1 C98.1444444,95.3 100.044444,96.4 102.044444,97.6 C102.244444,97.7 102.344444,97.8 102.544444,97.6 C104.744444,96.4 106.944444,95.3 109.144444,94.1 C109.144444,94.1 109.244444,94 109.344444,94 C108.944444,93.8 108.544444,93.5 108.244444,93.3 C106.744444,92.4 105.244444,91.6 103.744444,90.7 C103.544444,90.6 103.444444,90.5 103.444444,90.3 C103.444444,88.2 103.444444,86.2 103.444444,84.1 C103.444444,84.1 103.444444,84 103.444444,84 C103.644444,84 103.744444,84.1 103.844444,84.1 C107.744444,86.3 111.544444,88.6 115.444444,90.8 C115.944444,91.1 116.244444,91.5 116.244444,92.1 C116.244444,96.5 116.244444,101 116.244444,105.4 C115.944444,105.4 115.944444,105.5 115.944444,105.7 Z" id="Shape" fill="#3E7ADC"></path>
                </g>
            </g>
        </g>
    </g>
</svg>