<?xml version="1.0" encoding="UTF-8"?>
<svg width="158px" height="157px" viewBox="0 0 158 157" version="1.1" xmlns="http://www.w3.org/2000/svg" xmlns:xlink="http://www.w3.org/1999/xlink">
    <!-- Generator: Sketch 48.1 (47250) - http://www.bohemiancoding.com/sketch -->
    <title>Group 4</title>
    <desc>Created with Sketch.</desc>
    <defs>
        <linearGradient x1="97.8090566%" y1="49.9932075%" x2="1.03924528%" y2="49.9932075%" id="linearGradient-1">
            <stop stop-color="#3DD7EC" offset="0%"></stop>
            <stop stop-color="#3DE3EC" stop-opacity="0.4998" offset="50.02%"></stop>
            <stop stop-color="#3DEAEC" stop-opacity="0" offset="100%"></stop>
        </linearGradient>
        <linearGradient x1="2.19823633%" y1="49.9936508%" x2="98.9444444%" y2="49.9936508%" id="linearGradient-2">
            <stop stop-color="#3DD7EC" offset="0%"></stop>
            <stop stop-color="#3DE3EC" stop-opacity="0.4998" offset="50.02%"></stop>
            <stop stop-color="#3DEAEC" stop-opacity="0" offset="100%"></stop>
        </linearGradient>
        <linearGradient x1="97.7756785%" y1="50.0209812%" x2="1.09759916%" y2="50.0209812%" id="linearGradient-3">
            <stop stop-color="#3DEAEC" stop-opacity="0" offset="0%"></stop>
            <stop stop-color="#3DD7EC" offset="53.31%"></stop>
            <stop stop-color="#3DE3EC" stop-opacity="0.4998" offset="76.67%"></stop>
            <stop stop-color="#3DEAEC" stop-opacity="0" offset="100%"></stop>
        </linearGradient>
        <linearGradient x1="0.515374332%" y1="60.1799465%" x2="98.6588235%" y2="40.0255348%" id="linearGradient-4">
            <stop stop-color="#7FF6FF" offset="0%"></stop>
            <stop stop-color="#75F4FC" stop-opacity="0.895" offset="10.5%"></stop>
            <stop stop-color="#56EFF3" stop-opacity="0.53" offset="47%"></stop>
            <stop stop-color="#44EBEE" stop-opacity="0.2188" offset="78.12%"></stop>
            <stop stop-color="#3DEAEC" stop-opacity="0" offset="100%"></stop>
        </linearGradient>
    </defs>
    <g id="8.-How-It-Works" stroke="none" stroke-width="1" fill="none" fill-rule="evenodd" transform="translate(-1041.000000, -1484.000000)">
        <g id="Group-25" transform="translate(163.000000, 1465.000000)" fill-rule="nonzero">
            <g id="Group-21" transform="translate(800.000000, 19.000000)">
                <g id="Group-4" transform="translate(78.000000, 0.000000)">
                    <path d="M78.9,155.1 C78.9,154.5 79.4,154 80,154 C80.6,154 81.1,154.5 81.1,155.1 C81.1,155.7 80.6,156.2 80,156.2 C80,156.2 80,156.2 80,156.2 C79.4,156.2 78.9,155.7 78.9,155.1 Z M72.5,156 C71.9,156 71.4,155.4 71.5,154.8 C71.5,154.2 72.1,153.7 72.7,153.8 C73.3,153.8 73.8,154.4 73.7,155 C73.7,155.6 73.2,156 72.5,156 C72.5,156 72.5,156 72.5,156 Z M86.3,154.7 C86.2,154.1 86.7,153.5 87.3,153.5 C87.9,153.4 88.5,153.9 88.5,154.5 C88.6,155.1 88.1,155.7 87.5,155.7 C87.5,155.7 87.4,155.7 87.4,155.7 C86.9,155.7 86.4,155.3 86.3,154.7 Z M65,155.1 C64.4,155 64,154.4 64.1,153.8 C64.2,153.2 64.8,152.8 65.4,152.9 C66,153 66.4,153.6 66.3,154.2 C66.2,154.7 65.7,155.1 65.2,155.1 C65.1,155.2 65.1,155.2 65,155.1 Z M93.7,153.6 C93.6,153 94,152.4 94.6,152.3 C95.2,152.2 95.8,152.5 95.9,153.1 C96,153.7 95.7,154.3 95.1,154.4 C95,154.4 94.9,154.4 94.9,154.4 C94.3,154.4 93.8,154.1 93.7,153.6 Z M57.6,153.5 C57,153.3 56.7,152.7 56.8,152.1 C57,151.5 57.6,151.2 58.2,151.3 C58.8,151.5 59.1,152.1 59,152.7 C58.9,153.2 58.4,153.5 57.9,153.5 C57.8,153.6 57.7,153.5 57.6,153.5 Z M100.9,151.7 C100.7,151.1 101,150.5 101.6,150.3 C102.2,150.1 102.8,150.4 103,151 C103.2,151.6 102.9,152.2 102.3,152.4 C102.2,152.4 102.1,152.5 102,152.5 C101.5,152.5 101,152.2 100.9,151.7 Z M50.4,151.2 C49.8,151 49.5,150.3 49.8,149.8 C50,149.2 50.7,148.9 51.2,149.1 C51.8,149.3 52.1,150 51.8,150.5 C51.6,150.9 51.2,151.2 50.8,151.2 C50.7,151.3 50.6,151.2 50.4,151.2 Z M107.9,149.2 C107.7,148.6 107.9,148 108.5,147.7 C109.1,147.5 109.7,147.7 110,148.3 C110.2,148.9 110,149.5 109.4,149.8 C109.3,149.9 109.1,149.9 109,149.9 C108.5,149.8 108.1,149.6 107.9,149.2 Z M43.5,148.2 C42.9,147.9 42.7,147.3 43,146.7 C43.3,146.1 43.9,145.9 44.5,146.2 C45,146.5 45.3,147.1 45,147.7 C44.8,148.1 44.4,148.3 44,148.3 C43.8,148.3 43.7,148.3 43.5,148.2 Z M114.6,146 C114.3,145.5 114.5,144.8 115,144.5 C115.5,144.2 116.2,144.4 116.5,144.9 C116.8,145.4 116.6,146.1 116.1,146.4 C115.9,146.5 115.7,146.5 115.6,146.5 C115.2,146.5 114.8,146.3 114.6,146 Z M36.9,144.5 C36.9,144.5 36.9,144.5 36.9,144.5 C36.4,144.2 36.2,143.5 36.5,143 C36.8,142.5 37.5,142.3 38,142.6 C38.5,142.9 38.7,143.6 38.4,144.1 C38.2,144.4 37.8,144.6 37.4,144.6 C37.3,144.7 37.1,144.6 36.9,144.5 Z M121,142.1 C120.6,141.6 120.8,140.9 121.3,140.6 C121.8,140.3 122.5,140.4 122.8,140.9 C123.1,141.4 123,142.1 122.5,142.5 C122.3,142.6 122.1,142.7 121.9,142.7 C121.6,142.6 121.2,142.4 121,142.1 Z M30.7,140.2 C30.2,139.8 30.1,139.1 30.5,138.6 C30.9,138.1 31.6,138 32.1,138.4 C32.6,138.8 32.7,139.5 32.3,140 C32.1,140.3 31.7,140.4 31.4,140.4 C31.1,140.5 30.9,140.4 30.7,140.2 Z M127,137.7 C126.6,137.2 126.7,136.5 127.1,136.1 C127.6,135.7 128.3,135.8 128.7,136.2 C129.1,136.7 129,137.4 128.6,137.8 C128.4,138 128.1,138.1 127.9,138.1 C127.5,138.1 127.2,137.9 127,137.7 Z M24.9,135.4 C24.9,135.4 24.9,135.4 24.9,135.4 C24.5,135 24.4,134.3 24.8,133.8 C25.2,133.3 25.9,133.3 26.4,133.7 C26.8,134.1 26.9,134.8 26.5,135.3 C26.3,135.5 26,135.7 25.7,135.7 C25.4,135.7 25.1,135.6 24.9,135.4 Z M132.5,132.7 C132.1,132.3 132.1,131.6 132.5,131.1 C132.9,130.7 133.6,130.7 134.1,131.1 C134.5,131.5 134.5,132.2 134.1,132.7 C133.9,132.9 133.6,133 133.3,133 C133,133 132.7,132.9 132.5,132.7 Z M19.7,130 C19.3,129.5 19.3,128.8 19.8,128.4 C20.3,128 21,128 21.4,128.5 C21.8,129 21.8,129.7 21.3,130.1 C21.1,130.3 20.8,130.4 20.6,130.4 C20.2,130.3 19.9,130.2 19.7,130 Z M137.5,127.2 C137,126.8 136.9,126.1 137.3,125.6 C137.7,125.1 138.4,125 138.9,125.4 C139.4,125.8 139.5,126.5 139.1,127 C138.9,127.3 138.6,127.4 138.2,127.4 C137.9,127.4 137.7,127.3 137.5,127.2 Z M14.9,124.1 C14.5,123.6 14.6,122.9 15.1,122.5 C15.6,122.1 16.3,122.2 16.7,122.7 C17.1,123.2 17,123.9 16.5,124.3 C16.3,124.4 16.1,124.5 15.8,124.5 C15.5,124.5 15.1,124.4 14.9,124.1 Z M142,121.2 C141.5,120.9 141.3,120.2 141.7,119.7 C142,119.2 142.7,119 143.2,119.4 C143.7,119.7 143.9,120.4 143.5,120.9 C143.3,121.2 142.9,121.4 142.6,121.4 C142.4,121.4 142.2,121.3 142,121.2 Z M10.8,117.8 C10.5,117.3 10.7,116.6 11.2,116.3 C11.7,116 12.4,116.2 12.7,116.7 C13,117.2 12.8,117.9 12.3,118.2 C12.1,118.3 11.9,118.4 11.7,118.4 C11.3,118.3 11,118.1 10.8,117.8 Z M145.8,114.9 C145.3,114.6 145,113.9 145.3,113.4 C145.6,112.9 146.3,112.6 146.8,112.9 C147.3,113.2 147.6,113.9 147.3,114.4 C147.3,114.4 147.3,114.4 147.3,114.4 C147.1,114.8 146.7,115 146.3,115 C146.2,115 146,114.9 145.8,114.9 Z M7.2,111.1 C6.9,110.5 7.2,109.9 7.7,109.6 C8.3,109.3 8.9,109.6 9.2,110.1 C9.5,110.7 9.2,111.3 8.7,111.6 C8.6,111.7 8.4,111.7 8.2,111.7 C7.8,111.7 7.4,111.5 7.2,111.1 Z M149.1,108.2 C148.5,108 148.3,107.3 148.5,106.7 C148.7,106.1 149.4,105.9 150,106.1 C150.6,106.3 150.8,107 150.6,107.6 C150.4,108 150,108.3 149.6,108.3 C149.4,108.2 149.2,108.2 149.1,108.2 Z M4.4,104.1 C4.2,103.5 4.5,102.9 5.1,102.7 C5.7,102.5 6.3,102.8 6.5,103.4 C6.7,104 6.4,104.6 5.8,104.8 C5.7,104.8 5.6,104.9 5.4,104.9 C5,104.8 4.6,104.6 4.4,104.1 Z M151.6,101.2 C151,101 150.7,100.4 150.8,99.8 C151,99.2 151.6,98.9 152.2,99 C152.8,99.2 153.1,99.8 153,100.4 C152.9,100.9 152.4,101.2 151.9,101.2 C151.9,101.2 151.7,101.2 151.6,101.2 Z M2.2,96.9 C2.1,96.3 2.4,95.7 3,95.6 C3.6,95.5 4.2,95.8 4.3,96.4 C4.4,97 4.1,97.6 3.5,97.7 C3.4,97.7 3.3,97.7 3.2,97.7 C2.8,97.7 2.4,97.4 2.2,96.9 Z M153.5,94 C152.9,93.9 152.5,93.3 152.6,92.7 C152.7,92.1 153.3,91.7 153.9,91.8 C154.5,91.9 154.9,92.5 154.8,93.1 C154.7,93.6 154.2,94 153.7,94 C153.7,94 153.6,94 153.5,94 Z M0.8,89.5 C0.8,89.5 0.8,89.5 0.8,89.5 C0.7,88.9 1.1,88.3 1.7,88.2 C2.3,88.1 2.9,88.5 3,89.1 C3.1,89.7 2.7,90.3 2.1,90.4 C2,90.4 2,90.4 1.9,90.4 C1.3,90.4 0.9,90 0.8,89.5 Z M154.7,86.6 C154.1,86.5 153.6,86 153.7,85.4 C153.8,84.8 154.3,84.3 154.9,84.4 C155.5,84.5 156,85 155.9,85.6 C155.8,86.2 155.4,86.6 154.8,86.6 C154.8,86.6 154.7,86.6 154.7,86.6 Z M0,81.9 C0,81.3 0.4,80.8 1.1,80.7 C1.7,80.7 2.2,81.1 2.3,81.8 C2.3,82.4 1.9,82.9 1.2,83 C1.2,83 1.2,83 1.1,83 C0.6,83 0.1,82.5 0,81.9 Z M154,78.1 C154,78.1 154,78 154,78.1 C154,78 154,78 154,77.9 C154,77.3 154.5,76.8 155.1,76.8 C155.7,76.8 156.2,77.3 156.2,77.9 C156.2,77.9 156.2,78 156.2,78 C156.2,78 156.2,78.1 156.2,78.1 C156.2,78.7 155.7,79.2 155.1,79.2 C154.5,79.2 154,78.7 154,78.1 Z M1.1,75.6 C0.5,75.6 0,75 0,74.4 C0,73.8 0.6,73.3 1.2,73.3 C1.8,73.3 2.3,73.9 2.3,74.5 C2.2,75.1 1.7,75.6 1.1,75.6 C1.1,75.6 1.1,75.6 1.1,75.6 Z M153.7,70.6 C153.6,70 154.1,69.4 154.7,69.4 C155.3,69.3 155.9,69.8 155.9,70.4 C155.9,70.4 155.9,70.4 155.9,70.4 C156,71 155.5,71.6 154.9,71.6 C154.9,71.6 154.8,71.6 154.8,71.6 C154.2,71.6 153.7,71.2 153.7,70.6 Z M1.7,68.1 C1.1,68 0.7,67.5 0.8,66.8 C0.9,66.2 1.4,65.8 2.1,65.8 C2.7,65.9 3.1,66.5 3,67.1 C2.9,67.7 2.4,68.1 1.9,68.1 C1.8,68.2 1.7,68.1 1.7,68.1 Z M152.6,63.3 C152.5,62.7 152.9,62.1 153.5,62 C154.1,61.9 154.7,62.3 154.8,62.9 C154.9,63.5 154.5,64.1 153.9,64.2 C153.8,64.2 153.8,64.2 153.7,64.2 C153.2,64.2 152.7,63.9 152.6,63.3 Z M3,60.8 C2.4,60.7 2,60.1 2.2,59.5 C2.3,58.9 2.9,58.5 3.5,58.7 C4.1,58.8 4.5,59.5 4.3,60 C4.2,60.5 3.7,60.9 3.2,60.9 C3.2,60.8 3.1,60.8 3,60.8 Z M150.8,56.2 C150.6,55.6 151,55 151.6,54.8 C152.2,54.6 152.8,55 153,55.6 C153.2,56.2 152.8,56.8 152.2,57 C152.1,57 152,57 151.9,57 C151.4,57 151,56.7 150.8,56.2 Z M5,53.6 C4.4,53.4 4.1,52.8 4.3,52.2 C4.5,51.6 5.1,51.3 5.7,51.5 C6.3,51.7 6.6,52.3 6.4,52.9 C6.2,53.4 5.8,53.7 5.4,53.7 C5.3,53.7 5.1,53.7 5,53.6 Z M148.4,49.3 C148.2,48.7 148.4,48.1 149,47.8 C149.6,47.6 150.2,47.8 150.5,48.4 C150.7,49 150.5,49.6 149.9,49.9 C149.8,50 149.6,50 149.5,50 C149,50 148.6,49.7 148.4,49.3 Z M7.7,46.7 C7.1,46.4 6.9,45.8 7.2,45.2 C7.5,44.6 8.1,44.4 8.7,44.7 C9.3,45 9.5,45.6 9.2,46.2 C9,46.6 8.6,46.8 8.2,46.8 C8,46.8 7.9,46.8 7.7,46.7 Z M145.3,42.7 C145,42.2 145.2,41.5 145.8,41.2 C146.3,40.9 147,41.1 147.3,41.7 C147.6,42.2 147.4,42.9 146.8,43.2 C146.6,43.3 146.5,43.3 146.3,43.3 C145.9,43.2 145.5,43 145.3,42.7 Z M11.1,40.1 C10.6,39.8 10.4,39.1 10.7,38.6 C11,38.1 11.7,37.9 12.2,38.2 C12.7,38.5 12.9,39.2 12.6,39.7 C12.4,40.1 12,40.3 11.6,40.3 C11.4,40.2 11.2,40.2 11.1,40.1 Z M141.5,36.3 C141.2,35.8 141.3,35.1 141.8,34.8 C142.3,34.5 143,34.6 143.3,35.1 C143.6,35.6 143.5,36.3 143,36.6 C142.8,36.7 142.6,36.8 142.4,36.8 C142.1,36.8 141.8,36.7 141.5,36.3 Z M15.1,33.8 C14.6,33.4 14.5,32.7 14.9,32.2 C15.3,31.7 16,31.6 16.5,32 C17,32.4 17.1,33.1 16.8,33.6 C16.6,33.9 16.2,34.1 15.9,34.1 C15.5,34 15.3,33.9 15.1,33.8 Z M137.2,30.4 C136.8,29.9 136.9,29.2 137.4,28.8 C137.9,28.4 138.6,28.5 139,29 C139.4,29.5 139.3,30.2 138.8,30.6 C138.6,30.8 138.3,30.8 138.1,30.8 C137.8,30.8 137.4,30.7 137.2,30.4 Z M19.6,27.9 C19.1,27.5 19.1,26.8 19.5,26.3 C19.9,25.8 20.6,25.8 21.1,26.2 C21.6,26.6 21.6,27.3 21.2,27.8 C21,28 20.7,28.2 20.4,28.2 C20.1,28.2 19.8,28.1 19.6,27.9 Z M132.3,24.9 C131.9,24.5 131.9,23.8 132.3,23.3 C132.7,22.9 133.5,22.9 133.9,23.3 C134.3,23.7 134.3,24.4 133.9,24.9 C133.7,25.1 133.4,25.2 133.1,25.2 C132.9,25.3 132.6,25.2 132.3,24.9 Z M24.8,22.5 C24.4,22 24.4,21.3 24.9,20.9 C25.4,20.5 26.1,20.5 26.5,21 C26.9,21.5 26.9,22.2 26.4,22.6 C26.2,22.8 25.9,22.9 25.6,22.9 C25.3,22.9 25,22.7 24.8,22.5 Z M127,19.9 C126.5,19.5 126.5,18.8 126.9,18.3 C127.3,17.8 128,17.8 128.5,18.2 C129,18.6 129,19.3 128.6,19.8 C128.4,20.1 128.1,20.2 127.7,20.2 C127.4,20.2 127.2,20.1 127,19.9 Z M30.4,17.6 C30,17.1 30.1,16.4 30.6,16 C31.1,15.6 31.8,15.7 32.2,16.2 C32.6,16.7 32.5,17.4 32,17.8 C31.8,18 31.6,18 31.3,18 C30.9,18 30.6,17.9 30.4,17.6 Z M121.1,15.5 C120.6,15.2 120.5,14.5 120.8,14 C121.1,13.5 121.8,13.4 122.4,13.7 C122.9,14 123,14.7 122.7,15.3 C122.5,15.6 122.1,15.8 121.8,15.8 C121.5,15.7 121.3,15.6 121.1,15.5 Z M36.4,13.3 C36.1,12.8 36.2,12.1 36.8,11.8 C36.8,11.8 36.8,11.8 36.8,11.8 C37.3,11.5 38,11.6 38.3,12.1 C38.6,12.6 38.5,13.3 37.9,13.6 C37.7,13.7 37.5,13.8 37.3,13.8 C37,13.8 36.6,13.6 36.4,13.3 Z M114.9,11.6 C114.4,11.3 114.2,10.6 114.5,10.1 C114.8,9.6 115.5,9.4 116,9.7 C116.5,10 116.7,10.7 116.4,11.2 C116.2,11.6 115.8,11.8 115.4,11.8 C115.3,11.8 115.1,11.7 114.9,11.6 Z M42.9,9.5 C42.6,8.9 42.8,8.3 43.4,8 C43.9,7.7 44.6,7.9 44.9,8.5 C45.2,9.1 45,9.7 44.4,10 C44.2,10.1 44.1,10.1 43.9,10.1 C43.4,10.2 43.1,9.9 42.9,9.5 Z M108.3,8.4 C107.7,8.2 107.5,7.5 107.7,6.9 C107.9,6.3 108.6,6.1 109.2,6.3 C109.8,6.5 110,7.2 109.8,7.8 C109.6,8.2 109.2,8.5 108.8,8.5 C108.6,8.5 108.5,8.5 108.3,8.4 Z M49.6,6.5 C49.4,5.9 49.7,5.3 50.2,5.1 C50.8,4.9 51.4,5.2 51.6,5.7 C51.8,6.3 51.5,6.9 51,7.1 C50.9,7.2 50.7,7.2 50.6,7.2 C50.2,7.2 49.8,6.9 49.6,6.5 Z M101.5,5.8 C100.9,5.6 100.6,5 100.8,4.4 C101,3.8 101.6,3.5 102.2,3.7 C102.8,3.9 103.1,4.5 102.9,5.1 C102.7,5.6 102.3,5.9 101.8,5.9 C101.7,5.9 101.6,5.8 101.5,5.8 Z M56.7,4 C56.5,3.4 56.9,2.8 57.5,2.6 C58.1,2.4 58.7,2.8 58.9,3.4 C59.1,4 58.7,4.6 58.1,4.8 C58,4.8 57.9,4.8 57.8,4.8 C57.3,4.9 56.8,4.5 56.7,4 Z M94.4,3.9 C93.8,3.8 93.4,3.2 93.5,2.6 C93.6,2 94.2,1.6 94.8,1.7 C95.4,1.8 95.8,2.4 95.7,3 C95.6,3.5 95.1,3.9 94.6,3.9 C94.5,3.9 94.5,3.9 94.4,3.9 Z M63.9,2.3 C63.8,1.7 64.2,1.1 64.8,1 C65.4,0.9 66,1.3 66.1,1.9 C66.2,2.5 65.8,3.1 65.2,3.2 C65.1,3.2 65.1,3.2 65,3.2 C64.5,3.3 64,2.9 63.9,2.3 Z M87.1,2.7 C86.5,2.6 86.1,2.1 86.1,1.5 C86.2,0.9 86.7,0.5 87.3,0.5 C87.9,0.6 88.3,1.1 88.3,1.7 C88.2,2.3 87.8,2.7 87.2,2.7 C87.2,2.7 87.2,2.7 87.1,2.7 Z M71.3,1.3 C71.3,0.7 71.7,0.1 72.3,0.1 C72.9,0.1 73.5,0.5 73.5,1.1 C73.5,1.7 73.1,2.2 72.5,2.3 C72.5,2.3 72.4,2.3 72.4,2.3 C71.8,2.4 71.3,1.9 71.3,1.3 Z M79.8,2.2 C79.2,2.2 78.7,1.7 78.7,1.1 C78.7,0.5 79.2,0 79.8,0 C80.4,0 80.9,0.5 80.9,1.1 C80.9,1.7 80.4,2.2 79.8,2.2 C79.8,2.2 79.8,2.2 79.8,2.2 Z" id="Shape" fill="#D8EDFE"></path>
                    <circle id="Oval" fill="#D7FFFF" cx="78.5" cy="78.5" r="57.5"></circle>
                    <path d="M78.3128056,135.2 C78.3128056,134.6 78.8128056,134.1 79.4128056,134 C80.0128056,134 80.5128056,134.5 80.6128056,135.1 C80.6128056,135.7 80.1128056,136.2 79.5128056,136.3 C79.5128056,136.3 79.5128056,136.3 79.5128056,136.3 C78.8128056,136.3 78.3128056,135.8 78.3128056,135.2 Z M71.9128056,136 C71.3128056,135.9 70.8128056,135.4 70.9128056,134.8 C71.0128056,134.2 71.5128056,133.7 72.1128056,133.8 C72.7128056,133.9 73.2128056,134.4 73.1128056,135 C73.0128056,135.6 72.6128056,136 72.0128056,136 C72.0128056,136.1 71.9128056,136.1 71.9128056,136 Z M85.6128056,134.6 C85.5128056,134 85.9128056,133.4 86.5128056,133.3 C87.1128056,133.2 87.7128056,133.6 87.8128056,134.2 C87.9128056,134.8 87.5128056,135.4 86.9128056,135.5 C86.8128056,135.5 86.8128056,135.5 86.7128056,135.5 C86.2128056,135.6 85.7128056,135.2 85.6128056,134.6 Z M64.5128056,134.9 C63.9128056,134.8 63.5128056,134.2 63.7128056,133.6 C63.8128056,133 64.4128056,132.6 65.0128056,132.8 C65.6128056,132.9 66.0128056,133.5 65.8128056,134.1 C65.7128056,134.6 65.2128056,135 64.7128056,135 C64.7128056,134.9 64.6128056,134.9 64.5128056,134.9 Z M92.8128056,133.1 C92.6128056,132.5 93.0128056,131.9 93.6128056,131.7 C94.2128056,131.5 94.8128056,131.9 95.0128056,132.5 C95.2128056,133.1 94.8128056,133.7 94.2128056,133.9 C94.1128056,133.9 94.0128056,133.9 93.9128056,133.9 C93.4128056,133.9 93.0128056,133.6 92.8128056,133.1 Z M57.3128056,132.7 C56.7128056,132.5 56.4128056,131.9 56.6128056,131.3 C56.8128056,130.7 57.5128056,130.4 58.0128056,130.6 C58.6128056,130.8 58.9128056,131.5 58.7128056,132 C58.5128056,132.5 58.1128056,132.7 57.7128056,132.7 C57.5128056,132.8 57.4128056,132.8 57.3128056,132.7 Z M99.8128056,130.7 C99.5128056,130.1 99.8128056,129.5 100.412806,129.2 C101.012806,128.9 101.612806,129.2 101.912806,129.8 C102.212806,130.4 101.912806,131 101.312806,131.3 C101.212806,131.4 101.012806,131.4 100.812806,131.4 C100.412806,131.4 100.012806,131.2 99.8128056,130.7 Z M50.4128056,129.7 C49.8128056,129.4 49.6128056,128.7 49.9128056,128.2 C50.2128056,127.7 50.9128056,127.4 51.4128056,127.7 C51.9128056,128 52.2128056,128.7 51.9128056,129.2 C51.7128056,129.6 51.3128056,129.8 50.9128056,129.8 C50.8128056,129.8 50.6128056,129.8 50.4128056,129.7 Z M106.412806,127.4 C106.112806,126.9 106.212806,126.2 106.812806,125.9 C107.312806,125.6 108.012806,125.7 108.312806,126.3 C108.612806,126.8 108.512806,127.5 107.912806,127.8 C107.712806,127.9 107.512806,128 107.312806,128 C107.012806,128 106.612806,127.8 106.412806,127.4 Z M44.0128056,125.8 C43.5128056,125.4 43.4128056,124.8 43.7128056,124.2 C44.1128056,123.7 44.7128056,123.6 45.3128056,123.9 C45.8128056,124.2 45.9128056,124.9 45.6128056,125.5 C45.4128056,125.8 45.0128056,126 44.7128056,126 C44.4128056,126 44.2128056,125.9 44.0128056,125.8 Z M112.512806,123.3 C112.112806,122.8 112.212806,122.1 112.712806,121.7 C113.212806,121.3 113.912806,121.4 114.312806,121.9 C114.712806,122.4 114.612806,123.1 114.112806,123.5 C113.912806,123.7 113.712806,123.7 113.412806,123.7 C113.112806,123.8 112.712806,123.6 112.512806,123.3 Z M38.1128056,121.1 C37.6128056,120.7 37.6128056,120 38.0128056,119.5 C38.4128056,119 39.1128056,119 39.6128056,119.4 C40.1128056,119.8 40.1128056,120.5 39.7128056,121 C39.5128056,121.2 39.2128056,121.4 38.9128056,121.4 C38.6128056,121.4 38.3128056,121.3 38.1128056,121.1 Z M118.112806,118.5 C117.712806,118.1 117.612806,117.4 118.112806,116.9 C118.512806,116.5 119.212806,116.4 119.712806,116.9 C120.112806,117.3 120.212806,118 119.712806,118.5 C119.512806,118.7 119.212806,118.8 118.912806,118.8 C118.612806,118.8 118.312806,118.7 118.112806,118.5 Z M32.9128056,115.7 C32.5128056,115.2 32.6128056,114.5 33.0128056,114.1 C33.5128056,113.7 34.2128056,113.8 34.6128056,114.2 C35.0128056,114.7 34.9128056,115.4 34.5128056,115.8 C34.3128056,116 34.0128056,116.1 33.8128056,116.1 C33.4128056,116.1 33.1128056,116 32.9128056,115.7 Z M122.912806,113 C122.412806,112.6 122.312806,111.9 122.712806,111.4 C123.112806,110.9 123.812806,110.8 124.312806,111.2 C124.812806,111.6 124.912806,112.3 124.512806,112.8 C124.312806,113.1 123.912806,113.2 123.612806,113.2 C123.412806,113.2 123.112806,113.1 122.912806,113 Z M28.4128056,109.7 C28.1128056,109.2 28.2128056,108.5 28.7128056,108.2 C29.2128056,107.9 29.9128056,108 30.2128056,108.5 C30.5128056,109 30.4128056,109.7 29.9128056,110 C29.7128056,110.1 29.5128056,110.2 29.3128056,110.2 C29.0128056,110.2 28.6128056,110 28.4128056,109.7 Z M127.112806,106.9 C126.612806,106.6 126.412806,105.9 126.712806,105.4 C127.012806,104.9 127.712806,104.7 128.212806,105 C128.712806,105.3 128.912806,106 128.612806,106.5 C128.412806,106.9 128.012806,107.1 127.612806,107.1 C127.512806,107 127.312806,107 127.112806,106.9 Z M24.7128056,103.2 C24.4128056,102.6 24.7128056,102 25.2128056,101.7 C25.8128056,101.4 26.4128056,101.7 26.7128056,102.2 C27.0128056,102.8 26.7128056,103.4 26.2128056,103.7 C26.0128056,103.8 25.9128056,103.8 25.7128056,103.8 C25.3128056,103.8 24.9128056,103.6 24.7128056,103.2 Z M130.412806,100.3 C129.812806,100.1 129.612806,99.4 129.812806,98.8 C130.012806,98.2 130.712806,98 131.312806,98.2 C131.912806,98.4 132.112806,99.1 131.912806,99.7 C131.712806,100.1 131.312806,100.4 130.912806,100.4 C130.712806,100.4 130.612806,100.4 130.412806,100.3 Z M21.9128056,96.2 C21.7128056,95.6 22.0128056,95 22.6128056,94.8 C23.2128056,94.6 23.8128056,94.9 24.0128056,95.5 C24.2128056,96.1 23.9128056,96.7 23.3128056,96.9 C23.2128056,96.9 23.1128056,97 22.9128056,97 C22.5128056,97 22.0128056,96.7 21.9128056,96.2 Z M132.912806,93.3 C132.312806,93.1 131.912806,92.5 132.112806,91.9 C132.312806,91.3 132.912806,90.9 133.512806,91.1 C134.112806,91.3 134.512806,91.9 134.312806,92.5 C134.212806,93 133.712806,93.3 133.212806,93.3 C133.112806,93.4 133.012806,93.4 132.912806,93.3 Z M20.0128056,88.9 C20.0128056,88.9 20.0128056,88.9 20.0128056,88.9 C19.9128056,88.3 20.3128056,87.7 20.9128056,87.6 C21.5128056,87.5 22.1128056,87.9 22.2128056,88.5 C22.3128056,89.1 21.9128056,89.7 21.3128056,89.8 C21.2128056,89.8 21.2128056,89.8 21.1128056,89.8 C20.5128056,89.8 20.1128056,89.5 20.0128056,88.9 Z M134.412806,86.1 C133.812806,86 133.412806,85.5 133.412806,84.9 C133.512806,84.3 134.012806,83.9 134.712806,83.9 C135.312806,84 135.712806,84.5 135.712806,85.1 C135.612806,85.7 135.112806,86.1 134.612806,86.1 C134.512806,86.2 134.512806,86.1 134.412806,86.1 Z M19.0128056,81.5 C19.0128056,81.5 19.0128056,81.5 19.0128056,81.5 C19.0128056,80.9 19.4128056,80.4 20.0128056,80.3 C20.6128056,80.3 21.1128056,80.7 21.2128056,81.3 C21.2128056,81.9 20.8128056,82.4 20.2128056,82.5 C20.2128056,82.5 20.1128056,82.5 20.1128056,82.5 C19.5128056,82.5 19.0128056,82.1 19.0128056,81.5 Z M133.912806,77.7 C133.912806,77.7 133.912806,77.6 133.912806,77.7 C133.912806,77.6 133.912806,77.6 133.912806,77.6 C133.912806,77 134.412806,76.5 135.012806,76.5 C135.612806,76.5 136.112806,77 136.112806,77.6 C136.112806,77.6 136.112806,77.6 136.112806,77.7 C136.112806,77.7 136.112806,77.7 136.112806,77.8 C136.112806,78.4 135.612806,78.9 135.012806,78.9 C134.412806,78.8 133.912806,78.3 133.912806,77.7 Z M20.0128056,75.2 C19.4128056,75.2 18.9128056,74.6 19.0128056,74 C19.0128056,73.4 19.6128056,72.9 20.2128056,73 C20.8128056,73 21.3128056,73.6 21.2128056,74.2 C21.2128056,74.7 20.7128056,75.2 20.0128056,75.2 C20.1128056,75.2 20.1128056,75.2 20.0128056,75.2 Z M133.412806,70.3 C133.312806,69.7 133.712806,69.1 134.412806,69 C135.012806,68.9 135.612806,69.4 135.612806,70 C135.712806,70.6 135.212806,71.2 134.612806,71.2 C134.612806,71.2 134.512806,71.2 134.512806,71.2 C134.012806,71.3 133.512806,70.9 133.412806,70.3 Z M20.8128056,67.8 C20.2128056,67.7 19.8128056,67.1 19.9128056,66.5 C19.9128056,66.5 19.9128056,66.5 19.9128056,66.5 C20.0128056,65.9 20.6128056,65.5 21.2128056,65.6 C21.8128056,65.7 22.2128056,66.3 22.1128056,66.9 C22.0128056,67.4 21.5128056,67.8 21.0128056,67.8 C21.0128056,67.9 20.9128056,67.8 20.8128056,67.8 Z M132.112806,63.3 C131.912806,62.7 132.312806,62.1 132.912806,61.9 C133.512806,61.7 134.112806,62.1 134.312806,62.7 C134.512806,63.3 134.112806,63.9 133.512806,64.1 C133.412806,64.1 133.312806,64.1 133.212806,64.1 C132.612806,64.1 132.212806,63.8 132.112806,63.3 Z M22.5128056,60.7 C21.9128056,60.5 21.6128056,59.9 21.8128056,59.3 C22.0128056,58.7 22.6128056,58.4 23.2128056,58.6 C23.8128056,58.8 24.1128056,59.4 23.9128056,60 C23.7128056,60.5 23.3128056,60.8 22.8128056,60.8 C22.8128056,60.7 22.7128056,60.7 22.5128056,60.7 Z M129.812806,56.4 C129.612806,55.8 129.812806,55.2 130.412806,54.9 C131.012806,54.7 131.612806,54.9 131.912806,55.5 C131.912806,55.5 131.912806,55.5 131.912806,55.5 C132.112806,56.1 131.912806,56.7 131.312806,57 C131.212806,57.1 131.012806,57.1 130.912806,57.1 C130.412806,57.1 129.912806,56.8 129.812806,56.4 Z M25.2128056,53.8 C24.6128056,53.5 24.4128056,52.9 24.7128056,52.3 C25.0128056,51.7 25.6128056,51.5 26.2128056,51.8 C26.8128056,52.1 27.0128056,52.7 26.7128056,53.3 C26.5128056,53.7 26.1128056,53.9 25.7128056,53.9 C25.5128056,53.9 25.3128056,53.9 25.2128056,53.8 Z M126.612806,49.9 C126.312806,49.4 126.512806,48.7 127.012806,48.4 C127.512806,48.1 128.212806,48.3 128.512806,48.8 C128.812806,49.3 128.612806,50 128.112806,50.3 C127.912806,50.4 127.712806,50.4 127.512806,50.4 C127.212806,50.5 126.812806,50.3 126.612806,49.9 Z M28.7128056,47.3 C28.2128056,47 28.0128056,46.3 28.4128056,45.8 C28.7128056,45.3 29.4128056,45.1 29.9128056,45.5 C30.4128056,45.8 30.6128056,46.5 30.2128056,47 C30.0128056,47.3 29.6128056,47.5 29.3128056,47.5 C29.1128056,47.5 28.8128056,47.4 28.7128056,47.3 Z M122.712806,43.9 C122.312806,43.4 122.412806,42.7 122.912806,42.3 C123.412806,41.9 124.112806,42 124.512806,42.5 C124.912806,43 124.812806,43.7 124.312806,44.1 C124.112806,44.2 123.912806,44.3 123.612806,44.3 C123.212806,44.3 122.912806,44.2 122.712806,43.9 Z M33.0128056,41.3 C32.5128056,40.9 32.5128056,40.2 32.9128056,39.7 C33.3128056,39.2 34.0128056,39.2 34.5128056,39.6 C35.0128056,40 35.0128056,40.7 34.6128056,41.2 C34.4128056,41.5 34.1128056,41.6 33.8128056,41.6 C33.4128056,41.6 33.2128056,41.5 33.0128056,41.3 Z M118.012806,38.4 C117.612806,38 117.612806,37.3 118.012806,36.8 C118.412806,36.4 119.212806,36.4 119.612806,36.8 C119.612806,36.8 119.612806,36.8 119.612806,36.8 C120.012806,37.2 120.012806,38 119.612806,38.4 C119.412806,38.6 119.112806,38.7 118.812806,38.7 C118.512806,38.7 118.212806,38.6 118.012806,38.4 Z M38.0128056,35.9 C37.6128056,35.4 37.6128056,34.7 38.1128056,34.3 C38.6128056,33.9 39.3128056,33.9 39.7128056,34.4 C40.1128056,34.9 40.1128056,35.6 39.6128056,36 C39.4128056,36.2 39.1128056,36.3 38.8128056,36.3 C38.5128056,36.3 38.2128056,36.1 38.0128056,35.9 Z M112.612806,33.5 C112.112806,33.1 112.012806,32.4 112.412806,31.9 C112.812806,31.4 113.512806,31.3 114.012806,31.7 C114.512806,32.1 114.612806,32.8 114.212806,33.3 C114.012806,33.6 113.712806,33.7 113.312806,33.7 C113.112806,33.8 112.812806,33.7 112.612806,33.5 Z M43.6128056,31.2 C43.3128056,30.7 43.4128056,30 43.9128056,29.6 C44.4128056,29.2 45.1128056,29.4 45.5128056,29.9 C45.9128056,30.4 45.7128056,31.1 45.2128056,31.5 C45.0128056,31.6 44.8128056,31.7 44.6128056,31.7 C44.2128056,31.7 43.8128056,31.5 43.6128056,31.2 Z M106.712806,29.4 C106.212806,29.1 106.012806,28.4 106.312806,27.9 C106.612806,27.4 107.312806,27.2 107.812806,27.5 C108.312806,27.8 108.512806,28.5 108.212806,29 C108.012806,29.3 107.612806,29.5 107.212806,29.5 C107.112806,29.6 106.912806,29.5 106.712806,29.4 Z M49.8128056,27.2 C49.5128056,26.7 49.7128056,26 50.3128056,25.7 C50.8128056,25.4 51.5128056,25.6 51.8128056,26.2 C52.1128056,26.7 51.9128056,27.4 51.3128056,27.7 C51.1128056,27.8 51.0128056,27.8 50.8128056,27.8 C50.4128056,27.8 50.0128056,27.6 49.8128056,27.2 Z M100.312806,26 C99.7128056,25.8 99.5128056,25.1 99.7128056,24.5 C100.012806,23.9 100.612806,23.7 101.212806,23.9 C101.812806,24.1 102.012806,24.8 101.812806,25.4 C101.612806,25.8 101.212806,26.1 100.812806,26.1 C100.612806,26.1 100.412806,26.1 100.312806,26 Z M56.5128056,24.1 C56.3128056,23.5 56.6128056,22.9 57.2128056,22.7 C57.8128056,22.5 58.4128056,22.8 58.6128056,23.4 C58.8128056,24 58.5128056,24.6 57.9128056,24.8 C57.8128056,24.8 57.6128056,24.9 57.5128056,24.9 C57.1128056,24.8 56.7128056,24.6 56.5128056,24.1 Z M93.5128056,23.6 C92.9128056,23.4 92.6128056,22.8 92.7128056,22.2 C92.9128056,21.6 93.5128056,21.3 94.1128056,21.4 C94.7128056,21.6 95.0128056,22.2 94.9128056,22.8 C94.8128056,23.3 94.3128056,23.6 93.8128056,23.6 C93.7128056,23.6 93.6128056,23.6 93.5128056,23.6 Z M63.5128056,21.9 C63.4128056,21.3 63.7128056,20.7 64.3128056,20.6 C64.3128056,20.6 64.3128056,20.6 64.3128056,20.6 C64.9128056,20.5 65.5128056,20.8 65.6128056,21.4 C65.7128056,22 65.4128056,22.6 64.8128056,22.7 C64.7128056,22.7 64.6128056,22.7 64.6128056,22.7 C64.1128056,22.7 63.7128056,22.4 63.5128056,21.9 Z M86.4128056,22 C85.8128056,21.9 85.4128056,21.3 85.5128056,20.7 C85.6128056,20.1 86.2128056,19.7 86.8128056,19.8 C87.4128056,19.9 87.8128056,20.5 87.7128056,21.1 C87.6128056,21.7 87.1128056,22 86.6128056,22 C86.5128056,22 86.5128056,22 86.4128056,22 Z M70.8128056,20.5 C70.7128056,19.9 71.2128056,19.3 71.8128056,19.3 C71.8128056,19.3 71.8128056,19.3 71.8128056,19.3 C72.4128056,19.2 73.0128056,19.7 73.0128056,20.3 C73.1128056,20.9 72.6128056,21.5 72.0128056,21.5 C72.0128056,21.5 71.9128056,21.5 71.9128056,21.5 C71.3128056,21.5 70.8128056,21.1 70.8128056,20.5 Z M79.2128056,21.3 C78.6128056,21.3 78.1128056,20.8 78.1128056,20.1 C78.1128056,19.5 78.6128056,19 79.2128056,19 C79.8128056,19 80.3128056,19.5 80.3128056,20.2 C80.4128056,20.8 79.9128056,21.3 79.2128056,21.3 C79.3128056,21.3 79.2128056,21.3 79.2128056,21.3 Z" id="Shape" fill="#59EAE3"></path>
                    <circle id="Oval" fill="#F3FEFF" cx="77.7" cy="77.7" r="37.7"></circle>
                    <path d="M78.2,117.2 C77.6,117.2 77.1,116.7 77.1,116.1 C77.1,115.5 77.6,115 78.2,115 C78.8,115 79.3,115.5 79.3,116.1 C79.3,116.7 78.8,117.2 78.2,117.2 Z M70.5,116.5 C69.9,116.4 69.5,115.8 69.6,115.2 C69.7,114.6 70.3,114.2 70.9,114.3 C71.5,114.4 71.9,115 71.8,115.6 C71.7,116.1 71.2,116.5 70.7,116.5 C70.7,116.5 70.6,116.5 70.5,116.5 Z M84.5,115.6 C84.4,115 84.8,114.4 85.4,114.3 C86,114.2 86.6,114.6 86.7,115.2 C86.8,115.8 86.4,116.4 85.8,116.5 C85.7,116.5 85.7,116.5 85.6,116.5 C85,116.5 84.6,116.1 84.5,115.6 Z M63.2,114.2 C62.6,114 62.4,113.3 62.6,112.7 C62.8,112.1 63.5,111.9 64.1,112.1 C64.7,112.3 64.9,113 64.7,113.6 C64.5,114 64.1,114.3 63.7,114.3 C63.5,114.3 63.3,114.3 63.2,114.2 Z M91.7,113.6 C91.5,113 91.7,112.4 92.3,112.1 C92.9,111.9 93.5,112.1 93.8,112.7 C94,113.3 93.8,113.9 93.2,114.2 C93.1,114.3 92.9,114.3 92.8,114.3 C92.2,114.3 91.8,114 91.7,113.6 Z M56.4,110.6 C55.9,110.3 55.8,109.6 56.1,109.1 C56.4,108.6 57.1,108.4 57.6,108.8 C58.1,109.1 58.2,109.8 57.9,110.3 C57.7,110.6 57.3,110.8 57,110.8 C56.8,110.8 56.6,110.8 56.4,110.6 Z M98.3,110.3 C98,109.8 98.1,109.1 98.6,108.8 C99.1,108.5 99.8,108.6 100.1,109.1 C100.4,109.6 100.3,110.3 99.8,110.6 C99.6,110.7 99.4,110.8 99.2,110.8 C98.9,110.8 98.5,110.6 98.3,110.3 Z M50.5,105.8 C50.1,105.4 50.1,104.7 50.5,104.2 C50.9,103.8 51.6,103.8 52.1,104.2 C52.5,104.6 52.5,105.3 52.1,105.8 C51.9,106 51.6,106.1 51.3,106.1 C51,106.1 50.7,106 50.5,105.8 Z M104.2,105.7 C103.8,105.3 103.8,104.6 104.2,104.1 C104.6,103.7 105.3,103.7 105.8,104.1 C106.2,104.5 106.2,105.2 105.8,105.7 C105.6,105.9 105.3,106 105,106 C104.7,106 104.4,105.9 104.2,105.7 Z M45.6,99.9 C45.3,99.4 45.4,98.7 45.9,98.4 C46.4,98.1 47.1,98.2 47.4,98.7 C47.7,99.2 47.6,99.9 47.1,100.2 C46.9,100.3 46.7,100.4 46.5,100.4 C46.2,100.4 45.8,100.2 45.6,99.9 Z M109.1,100.1 C108.6,99.8 108.4,99.1 108.8,98.6 C109.1,98.1 109.8,97.9 110.3,98.3 C110.8,98.6 111,99.3 110.6,99.8 C110.4,100.1 110,100.3 109.7,100.3 C109.5,100.3 109.3,100.2 109.1,100.1 Z M42,93.1 C41.8,92.5 42,91.9 42.6,91.6 C43.2,91.4 43.8,91.6 44.1,92.2 C44.3,92.8 44.1,93.4 43.5,93.7 C43.4,93.8 43.2,93.8 43.1,93.8 C42.6,93.8 42.2,93.5 42,93.1 Z M112.8,93.6 C112.2,93.4 112,92.7 112.2,92.1 C112.4,91.5 113.1,91.3 113.7,91.5 C114.3,91.7 114.5,92.4 114.3,93 C114.1,93.4 113.7,93.7 113.3,93.7 C113.1,93.7 112.9,93.7 112.8,93.6 Z M39.8,85.8 C39.7,85.2 40.1,84.6 40.7,84.5 C41.3,84.4 41.9,84.8 42,85.4 C42.1,86 41.7,86.6 41.1,86.7 C41,86.7 41,86.7 40.9,86.7 C40.3,86.7 39.9,86.3 39.8,85.8 Z M115.2,86.6 C114.6,86.5 114.2,85.9 114.3,85.3 C114.4,84.7 115,84.3 115.6,84.4 C116.2,84.5 116.6,85.1 116.5,85.7 C116.4,86.2 115.9,86.6 115.4,86.6 C115.3,86.6 115.2,86.6 115.2,86.6 Z M39,78.2 C39,77.6 39.5,77.1 40.1,77.1 C40.7,77.1 41.2,77.6 41.2,78.2 C41.2,78.8 40.7,79.3 40.1,79.3 C39.5,79.3 39,78.8 39,78.2 Z M115,78.1 C115,78.1 115,78 115,78.1 C115,78 115,78 115,77.9 C115,77.3 115.5,76.8 116.1,76.8 C116.7,76.8 117.2,77.3 117.2,77.9 C117.2,77.9 117.2,78 117.2,78 C117.2,78 117.2,78.1 117.2,78.1 C117.2,78.7 116.7,79.2 116.1,79.2 C115.5,79.2 115,78.7 115,78.1 Z M40.6,71.8 C40,71.7 39.6,71.1 39.7,70.5 C39.8,69.9 40.4,69.5 41,69.6 C41.6,69.7 42,70.3 41.9,70.9 C41.8,71.4 41.3,71.8 40.8,71.8 C40.8,71.9 40.7,71.9 40.6,71.8 Z M114.3,70.7 C114.2,70.1 114.6,69.5 115.2,69.4 C115.8,69.3 116.4,69.7 116.5,70.3 C116.6,70.9 116.2,71.5 115.6,71.6 C115.5,71.6 115.4,71.6 115.4,71.6 C114.8,71.6 114.4,71.3 114.3,70.7 Z M42.5,64.6 C41.9,64.4 41.7,63.7 41.9,63.1 C42.1,62.5 42.8,62.3 43.4,62.5 C44,62.7 44.2,63.4 44,64 C43.8,64.4 43.4,64.7 43,64.7 C42.8,64.7 42.7,64.7 42.5,64.6 Z M112.1,63.8 C111.9,63.2 112.1,62.6 112.7,62.3 C113.3,62.1 113.9,62.3 114.2,62.9 C114.4,63.5 114.2,64.1 113.6,64.4 C113.5,64.5 113.3,64.5 113.2,64.5 C112.7,64.5 112.3,64.3 112.1,63.8 Z M45.9,58 C45.4,57.7 45.2,57 45.6,56.5 C45.9,56 46.6,55.8 47.1,56.2 C47.6,56.5 47.8,57.2 47.4,57.7 C47.2,58 46.8,58.2 46.5,58.2 C46.3,58.2 46,58.1 45.9,58 Z M108.7,57.5 C108.4,57 108.5,56.3 109,56 C109.5,55.7 110.2,55.8 110.5,56.3 C110.8,56.8 110.7,57.5 110.2,57.9 C110,58 109.8,58.1 109.6,58.1 C109.3,58 108.9,57.8 108.7,57.5 Z M50.4,52.1 C50,51.7 50,51 50.4,50.5 C50.8,50.1 51.5,50.1 52,50.5 C52.4,50.9 52.4,51.6 52,52.1 C51.8,52.3 51.5,52.4 51.2,52.4 C50.9,52.4 50.6,52.3 50.4,52.1 Z M104.1,51.9 C103.7,51.5 103.7,50.8 104.1,50.3 C104.5,49.9 105.2,49.9 105.7,50.3 C106.1,50.7 106.1,51.4 105.7,51.9 C105.5,52.1 105.2,52.2 104.9,52.2 C104.6,52.2 104.3,52.1 104.1,51.9 Z M56,47.2 C55.7,46.7 55.8,46 56.3,45.7 C56.8,45.4 57.5,45.5 57.8,46 C58.1,46.5 58,47.2 57.5,47.5 C57.3,47.6 57.1,47.7 56.9,47.7 C56.6,47.7 56.2,47.5 56,47.2 Z M98.5,47.3 C98,47 97.8,46.3 98.2,45.8 C98.5,45.3 99.2,45.1 99.7,45.5 C100.2,45.8 100.4,46.5 100,47 C99.8,47.3 99.4,47.5 99.1,47.5 C98.9,47.5 98.7,47.5 98.5,47.3 Z M62.4,43.4 C62.2,42.8 62.4,42.2 63,41.9 C63.6,41.7 64.2,41.9 64.5,42.5 C64.7,43.1 64.5,43.7 63.9,44 C63.8,44.1 63.6,44.1 63.5,44.1 C63,44.1 62.6,43.9 62.4,43.4 Z M92.1,44 C91.5,43.8 91.3,43.1 91.5,42.5 C91.7,41.9 92.4,41.7 93,41.9 C93.6,42.1 93.8,42.8 93.6,43.4 C93.4,43.8 93,44.1 92.6,44.1 C92.4,44 92.2,44 92.1,44 Z M69.5,41.1 C69.4,40.5 69.8,39.9 70.4,39.8 C71,39.7 71.6,40.1 71.7,40.7 C71.8,41.3 71.4,41.9 70.8,42 C70.7,42 70.7,42 70.6,42 C70.1,41.9 69.6,41.6 69.5,41.1 Z M85.2,41.9 C84.6,41.8 84.2,41.2 84.3,40.6 C84.4,40 85,39.6 85.6,39.7 C86.2,39.8 86.6,40.4 86.5,41 C86.4,41.5 85.9,41.9 85.4,41.9 C85.3,41.9 85.3,41.9 85.2,41.9 Z M76.9,40.1 C76.9,39.5 77.4,39 78,39 C78.6,39 79.1,39.5 79.1,40.1 C79.1,40.7 78.6,41.2 78,41.2 C77.4,41.2 76.9,40.7 76.9,40.1 Z" id="Shape" fill="#D8EDFE"></path>
                    <path d="M76.5,97 C76.5,96.4 77,95.9 77.6,95.9 C78.2,95.9 78.7,96.4 78.7,97 C78.7,97.6 78.2,98.1 77.6,98.1 C77,98.2 76.5,97.7 76.5,97 Z M70.1,96.7 C69.5,96.5 69.3,95.8 69.5,95.2 C69.7,94.6 70.4,94.4 71,94.6 C71.6,94.8 71.8,95.5 71.6,96.1 C71.4,96.5 71,96.8 70.6,96.8 C70.4,96.8 70.3,96.7 70.1,96.7 Z M83.7,96.1 C83.5,95.5 83.7,94.9 84.3,94.6 C84.9,94.4 85.5,94.6 85.8,95.2 C86,95.8 85.8,96.4 85.2,96.7 C85.1,96.8 84.9,96.8 84.8,96.8 C84.3,96.8 83.8,96.5 83.7,96.1 Z M63.8,92.5 C63.4,92.1 63.4,91.4 63.8,90.9 C64.2,90.5 64.9,90.5 65.4,90.9 C65.8,91.3 65.8,92 65.4,92.5 C65.2,92.7 64.9,92.8 64.6,92.8 C64.3,92.8 64,92.7 63.8,92.5 Z M89.9,92.4 C89.5,92 89.5,91.3 89.9,90.8 C90.3,90.4 91,90.4 91.5,90.8 C91.9,91.2 91.9,91.9 91.5,92.4 C91.3,92.6 91,92.7 90.7,92.7 C90.4,92.7 90.1,92.6 89.9,92.4 Z M59.5,86.1 C59.3,85.5 59.5,84.9 60.1,84.6 C60.7,84.4 61.3,84.6 61.6,85.2 C61.8,85.8 61.6,86.4 61,86.7 C60.9,86.8 60.7,86.8 60.6,86.8 C60.1,86.8 59.7,86.5 59.5,86.1 Z M94.3,86.7 C93.7,86.5 93.5,85.8 93.7,85.2 C93.9,84.6 94.6,84.4 95.2,84.6 C95.8,84.8 96,85.5 95.8,86.1 C95.6,86.5 95.2,86.8 94.8,86.8 C94.5,86.8 94.4,86.7 94.3,86.7 Z M58,78.6 C58,78 58.5,77.5 59.1,77.5 C59.7,77.5 60.2,78 60.2,78.6 C60.2,79.2 59.7,79.7 59.1,79.7 C58.5,79.7 58,79.2 58,78.6 Z M95,78.6 C95,78.6 95,78.6 95,78.6 C95,78.5 95,78.5 95,78.6 C95,77.9 95.5,77.4 96.1,77.4 C96.7,77.4 97.2,77.9 97.2,78.5 C97.2,78.5 97.2,78.5 97.2,78.5 C97.2,78.5 97.2,78.5 97.2,78.5 C97.2,78.5 97.2,78.5 97.2,78.5 C97.2,79.1 96.7,79.6 96.1,79.6 C95.5,79.7 95,79.2 95,78.6 Z M60.1,72.6 C59.5,72.4 59.3,71.7 59.5,71.1 C59.7,70.5 60.4,70.3 61,70.5 C61.6,70.7 61.8,71.4 61.6,72 C61.4,72.4 61,72.7 60.6,72.7 C60.4,72.7 60.2,72.6 60.1,72.6 Z M93.6,71.9 C93.4,71.3 93.6,70.7 94.2,70.4 C94.8,70.2 95.4,70.4 95.7,71 C95.9,71.6 95.7,72.2 95.1,72.5 C95,72.6 94.8,72.6 94.7,72.6 C94.2,72.6 93.8,72.3 93.6,71.9 Z M63.7,66.3 C63.3,65.9 63.3,65.2 63.7,64.7 C64.1,64.3 64.8,64.3 65.3,64.7 C65.7,65.1 65.7,65.8 65.3,66.3 C65.1,66.5 64.8,66.6 64.5,66.6 C64.2,66.7 63.9,66.6 63.7,66.3 Z M89.8,66.3 C89.4,65.9 89.4,65.2 89.8,64.7 C90.2,64.3 90.9,64.3 91.4,64.7 C91.8,65.1 91.8,65.8 91.4,66.3 C91.2,66.5 90.9,66.6 90.6,66.6 C90.3,66.6 90.1,66.5 89.8,66.3 Z M69.5,62 C69.3,61.4 69.5,60.8 70.1,60.5 C70.7,60.3 71.3,60.5 71.6,61.1 C71.8,61.7 71.6,62.3 71,62.6 C70.9,62.7 70.7,62.7 70.6,62.7 C70.1,62.6 69.6,62.4 69.5,62 Z M84.2,62.5 C83.6,62.3 83.4,61.6 83.6,61 C83.8,60.4 84.5,60.2 85.1,60.4 C85.1,60.4 85.1,60.4 85.1,60.4 C85.7,60.6 85.9,61.3 85.7,61.9 C85.5,62.3 85.1,62.6 84.7,62.6 C84.5,62.6 84.3,62.6 84.2,62.5 Z M77.6,61.2 C77,61.2 76.5,60.7 76.5,60.1 C76.5,59.5 77,59 77.6,59 C78.2,59 78.7,59.5 78.7,60.1 C78.7,60.7 78.2,61.2 77.6,61.2 C76.9,61.2 77.6,61.2 77.6,61.2 Z" id="Shape" fill="#00FFCE"></path>
                    <path d="M78.1,79.2375 C77.8,79.2375 77.5,79.1375 77.3,78.9375 C77.1,78.7375 77,78.4375 77,78.1375 C77,77.8375 77.1,77.5375 77.3,77.3375 C77.6,77.0375 77.9,76.9375 78.3,77.0375 C78.4,77.0375 78.4,77.0375 78.5,77.1375 C78.6,77.1375 78.6,77.2375 78.7,77.2375 C78.8,77.2375 78.8,77.3375 78.9,77.3375 C79,77.4375 79,77.4375 79,77.5375 C79,77.6375 79.1,77.6375 79.1,77.7375 C79.1,77.8375 79.2,77.8375 79.2,77.9375 C79.2,78.0375 79.2,78.0375 79.2,78.1375 C79.2,78.4375 79.1,78.7375 78.9,78.9375 C78.8,79.0375 78.8,79.0375 78.7,79.0375 C78.6,79.0375 78.6,79.1375 78.5,79.1375 C78.4,79.1375 78.4,79.1375 78.3,79.2375 C78.3,79.2375 78.2,79.2375 78.1,79.2375 Z" id="Shape" fill="#59EAE3"></path>
                    <path d="M78.1,79.2 C78,79.2 78,79.2 77.9,79.2 C77.8,79.2 77.8,79.2 77.7,79.1 C77.6,79.1 77.6,79 77.5,79 C77.4,79 77.4,78.9 77.3,78.9 C77.1,78.7 77,78.4 77,78.1 C77,77.8 77.1,77.5 77.3,77.3 C77.4,77.2 77.4,77.2 77.5,77.2 C77.6,77.2 77.6,77.1 77.7,77.1 C77.8,77.1 77.8,77 77.9,77 C78,77 78.2,77 78.3,77 C78.4,77 78.4,77 78.5,77.1 C78.6,77.1 78.6,77.2 78.7,77.2 C78.8,77.2 78.8,77.3 78.9,77.3 C79.1,77.5 79.2,77.8 79.2,78.1 C79.2,78.4 79.1,78.7 78.9,78.9 C78.8,79 78.8,79 78.7,79 C78.6,79 78.6,79.1 78.5,79.1 C78.4,79.1 78.4,79.1 78.3,79.2 C78.3,79.2 78.2,79.2 78.1,79.2 Z" id="Shape" fill="#59EAE3"></path>
                    <path d="M78.1,79.2 C78,79.2 78,79.2 77.9,79.2 C77.8,79.2 77.8,79.2 77.7,79.1 C77.6,79.1 77.6,79 77.5,79 C77.4,79 77.4,78.9 77.3,78.9 C77.1,78.7 77,78.4 77,78.1 C77,78 77,78 77,77.9 C77,77.8 77,77.8 77.1,77.7 C77.1,77.6 77.2,77.6 77.2,77.5 C77.2,77.4 77.3,77.4 77.3,77.3 C77.3,77.2 77.4,77.2 77.5,77.2 C77.6,77.2 77.6,77.1 77.7,77.1 C77.8,77.1 77.8,77 77.9,77 C78,77 78.2,77 78.3,77 C78.4,77 78.4,77 78.5,77.1 C78.6,77.1 78.6,77.2 78.7,77.2 C78.8,77.2 78.8,77.3 78.9,77.3 C79,77.4 79,77.4 79,77.5 C79,77.6 79.1,77.6 79.1,77.7 C79.1,77.8 79.1,77.8 79.2,77.9 C79.2,78 79.2,78 79.2,78.1 C79.2,78.2 79.2,78.2 79.2,78.3 C79.2,78.4 79.2,78.4 79.1,78.5 C79.1,78.6 79,78.6 79,78.7 C79,78.8 78.9,78.8 78.9,78.9 C78.8,79 78.8,79 78.7,79 C78.6,79 78.6,79.1 78.5,79.1 C78.4,79.1 78.4,79.1 78.3,79.2 C78.3,79.2 78.2,79.2 78.1,79.2 Z" id="Shape" fill="#59EAE3"></path>
                    <path d="M78.1,79.2 C78,79.2 78,79.2 77.9,79.2 C77.8,79.2 77.8,79.2 77.7,79.1 C77.6,79.1 77.6,79 77.5,79 C77.4,79 77.4,78.9 77.3,78.9 C77.1,78.7 77,78.4 77,78.1 C77,77.8 77.1,77.5 77.3,77.3 C77.4,77.2 77.4,77.2 77.5,77.2 C77.6,77.2 77.6,77.1 77.7,77.1 C77.8,77.1 77.8,77 77.9,77 C78,77 78.2,77 78.3,77 C78.4,77 78.4,77 78.5,77.1 C78.6,77.1 78.6,77.2 78.7,77.2 C78.8,77.2 78.8,77.3 78.9,77.3 C79.1,77.5 79.2,77.8 79.2,78.1 C79.2,78.4 79.1,78.7 78.9,78.9 C78.8,79 78.8,79 78.7,79 C78.6,79 78.6,79.1 78.5,79.1 C78.4,79.1 78.4,79.1 78.3,79.2 C78.3,79.2 78.2,79.2 78.1,79.2 Z" id="Shape" fill="#59EAE3"></path>
                    <circle id="Oval" fill="url(#linearGradient-1)" cx="65" cy="68" r="53"></circle>
                    <circle id="Oval" fill="url(#linearGradient-2)" cx="102.7" cy="67.7" r="56.7"></circle>
                    <circle id="Oval" fill="url(#linearGradient-3)" cx="84.9" cy="68.9" r="47.9"></circle>
                    <circle id="Oval" fill="url(#linearGradient-4)" cx="70.4" cy="68.4" r="37.4"></circle>
                    <path d="M107.830612,96.35412 C106.330612,96.35412 105.330612,96.35412 104.230612,96.35412 C104.230612,96.35412 104.230612,96.35412 104.230612,96.35412 C103.730612,96.35412 103.230612,96.35412 102.730612,96.35412 C102.730612,96.35412 102.730612,96.35412 102.730612,96.35412 C102.030612,96.15412 101.330612,95.95412 100.530612,96.05412 C100.030612,96.05412 99.5306122,95.95412 99.1306122,95.95412 C99.1306122,95.95412 99.1306122,95.95412 99.1306122,95.95412 C98.8306122,95.65412 98.5306122,95.65412 98.1306122,95.75412 C97.8306122,95.75412 97.5306122,95.75412 97.2306122,95.65412 C97.2306122,95.65412 97.2306122,95.65412 97.2306122,95.65412 C96.2306122,95.45412 95.1306122,94.45412 94.1306122,95.45412 C92.9306122,96.75412 91.4306122,97.55412 89.7306122,98.05412 C89.0306122,98.05412 88.3306122,98.05412 87.6306122,98.05412 C87.6306122,98.05412 87.6306122,98.05412 87.6306122,98.05412 C84.5306122,97.25412 82.5306122,95.35412 81.8306122,92.25412 C81.7306122,91.65412 82.1306122,90.95412 81.5306122,90.45412 C81.5306122,90.45412 81.5306122,90.45412 81.5306122,90.45412 C77.6306122,88.15412 73.6306122,86.05412 70.3306122,82.85412 C69.6306122,82.15412 68.5306122,81.55412 67.4306122,82.45412 C67.0306122,82.45412 66.6306122,82.55412 66.3306122,82.55412 C66.3306122,82.55412 66.3306122,82.55412 66.3306122,82.55412 C64.9306122,82.25412 64.1306122,82.75412 63.8306122,84.25412 C63.5306122,85.75412 63.0306122,87.15412 62.7306122,88.65412 C62.7306122,89.05412 62.6306122,89.45412 62.6306122,89.75412 C62.6306122,89.75412 62.6306122,89.75412 62.6306122,89.75412 C62.2306122,90.95412 62.1306122,92.25412 62.1306122,93.45412 C62.1306122,95.05412 61.7306122,96.65412 62.3306122,98.25412 C62.3306122,98.25412 62.3306122,98.25412 62.3306122,98.25412 C66.7306122,101.95412 71.7306122,104.15412 77.3306122,105.25412 C77.7306122,105.25412 78.0306122,105.35412 78.4306122,105.35412 C78.4306122,105.35412 78.4306122,105.35412 78.4306122,105.35412 C78.7306122,105.65412 79.0306122,105.65412 79.4306122,105.55412 C79.6306122,105.65412 79.9306122,105.65412 80.0306122,105.95412 C80.6306122,105.95412 81.2306122,105.95412 81.8306122,105.95412 C81.9306122,105.95412 82.0306122,105.95412 82.1306122,105.95412 C83.0306122,105.95412 83.9306122,105.95412 84.9306122,105.95412 C85.0306122,105.95412 85.1306122,105.95412 85.2306122,105.95412 C86.0306122,105.95412 86.8306122,105.95412 87.6306122,105.95412 C87.7306122,105.65412 88.0306122,105.65412 88.2306122,105.55412 C88.2306122,105.55412 88.2306122,105.55412 88.2306122,105.55412 C88.2306122,105.55412 88.2306122,105.55412 88.2306122,105.55412 C88.6306122,105.55412 88.9306122,105.65412 89.2306122,105.35412 C89.6306122,105.35412 90.0306122,105.25412 90.3306122,105.25412 C90.3306122,105.25412 90.3306122,105.25412 90.3306122,105.25412 C90.3306122,105.25412 90.3306122,105.25412 90.3306122,105.25412 C97.0306122,104.15412 102.730612,101.25412 107.830612,96.35412 Z" id="Shape" fill="#0870E5"></path>
                    <path d="M57.1,82.4 C57.5,81.2 58.6,80 57.7,78.7 C56.5,76.9 55.8,75 55.3,72.9 C55.4,71.8 55.4,70.7 55.5,69.6 C55.5,69.6 55.5,69.6 55.5,69.6 C55.5,69.6 55.5,69.6 55.5,69.6 C55.9,68.4 56.4,67.1 57.1,66 C57.3,65.7 57.4,65.4 57.2,65 C56.3,62.9 55.9,60.7 55.5,58.5 C55.5,57.1 55.5,55.7 55.5,54.2 C55.5,54.2 55.5,54.2 55.5,54.2 C55.5,54.2 55.5,54.2 55.5,54.2 C55.6,53.8 55.6,53.4 55.2,53 C53,56.7 51.4,60.5 50.7,64.7 C50.7,65 50.7,65.3 50.6,65.6 C50.6,65.6 50.6,65.6 50.6,65.6 C50.3,65.9 50.3,66.2 50.4,66.6 C50.3,66.8 50.3,67.1 50,67.2 C50,67.9 50,68.6 50,69.3 C50,70.1 50,70.9 50,71.7 C50,72.3 50,72.9 50,73.5 C50,74.1 50,74.7 50,75.3 C50.1,75.4 50.2,75.5 50.3,75.6 C50.3,75.6 50.3,75.6 50.3,75.6 C50.3,76 50.2,76.5 50.5,76.9 C50.5,77.2 50.5,77.5 50.6,77.8 C50.6,77.8 50.6,77.8 50.6,77.8 C50.6,77.8 50.6,77.8 50.6,77.8 C51.3,81.6 52.6,85.1 54.6,88.4 C54.9,89 55.2,90.1 55.8,89.9 C56.6,89.7 56.3,88.6 56.3,87.9 C56.3,87.5 56.3,87.1 56.4,86.7 C56.4,86.7 56.4,86.7 56.4,86.7 C56.7,86.4 56.7,86.1 56.6,85.7 C56.6,85.1 56.7,84.5 56.7,83.9 C57.4,83.5 57.1,82.9 57.1,82.4 C57.1,82.4 57.1,82.4 57.1,82.4 Z M50.7,76.2 C50.7,76.2 50.7,76.2 50.7,76.2 C50.7,76.2 50.7,76.2 50.7,76.2 C50.5,76.3 50.7,76 50.7,76.2 Z" id="Shape" fill="#0870E5"></path>
                    <path d="M115.540954,82.7885438 C113.740954,81.5885438 111.940954,80.2885438 110.140954,79.0885438 C109.540954,78.6885438 109.040954,78.4885438 108.340954,79.0885438 C107.440954,79.8885438 106.240954,80.3885438 105.040954,80.3885438 C104.440954,80.3885438 103.940954,80.3885438 103.340954,80.3885438 C103.340954,80.3885438 103.340954,80.3885438 103.340954,80.3885438 C99.740954,79.6885438 97.740954,77.4885438 96.840954,73.9885438 C96.840954,73.2885438 96.840954,72.5885438 96.840954,71.9885438 C96.840954,71.9885438 96.840954,71.9885438 96.840954,71.9885438 C97.640954,70.6885438 97.340954,69.6885438 96.240954,68.7885438 C94.440954,67.4885438 92.740954,65.9885438 91.040954,64.5885438 C88.940954,62.8885438 87.040954,61.0885438 84.940954,59.3885438 C84.240954,58.8885438 84.040954,58.8885438 83.540954,59.2885438 C80.540954,61.4885438 77.640954,63.7885438 75.040954,66.3885438 C74.640954,66.7885438 74.340954,67.1885438 74.640954,67.7885438 C75.440954,69.3885438 75.440954,71.1885438 75.440954,72.9885438 C75.440954,73.2885438 75.440954,73.5885438 75.340954,73.8885438 C75.340954,73.8885438 75.340954,73.8885438 75.340954,73.8885438 C74.940954,74.8885438 74.640954,75.8885438 74.140954,76.7885438 C73.840954,77.3885438 74.040954,77.6885438 74.540954,77.9885438 C77.040954,79.9885438 79.640954,81.7885438 82.340954,83.5885438 C84.140954,84.8885438 85.840954,85.1885438 87.640954,83.9885438 C88.440954,83.9885438 89.240954,83.9885438 89.940954,83.9885438 C89.940954,83.9885438 89.940954,83.9885438 89.940954,83.9885438 C91.940954,84.6885438 93.840954,85.4885438 94.540954,87.5885438 C95.140954,89.3885438 96.440954,89.8885438 98.040954,90.0885438 C98.540954,90.1885438 99.040954,90.2885438 99.540954,90.2885438 C99.840954,90.2885438 100.140954,90.2885438 100.340954,90.3885438 C100.340954,90.3885438 100.340954,90.3885438 100.340954,90.3885438 C101.640954,90.7885438 103.040954,90.8885438 104.440954,90.8885438 C105.840954,90.8885438 107.240954,90.8885438 108.640954,90.8885438 C108.640954,90.8885438 108.640954,90.8885438 108.640954,90.8885438 C108.640954,90.8885438 108.640954,90.8885438 108.640954,90.8885438 C109.240954,90.8885438 109.940954,90.9885438 110.540954,90.6885438 C110.940954,90.6885438 111.340954,90.5885438 111.640954,90.5885438 C111.640954,90.5885438 111.640954,90.5885438 111.640954,90.5885438 C111.640954,90.5885438 111.640954,90.5885438 111.640954,90.5885438 C111.740954,90.5885438 111.840954,90.5885438 111.940954,90.4885438 C113.840954,88.3885438 114.740954,85.8885438 115.840954,83.3885438 C116.240954,83.1885438 115.840954,82.9885438 115.540954,82.7885438 Z" id="Shape" fill="#0870E5"></path>
                    <path d="M111.677088,50.6 C111.377088,50.2 110.977088,50 110.477088,50 C108.777088,50.1 107.177088,50.1 105.477088,50.5 C105.177088,50.5 104.877088,50.5 104.677088,50.6 C104.277088,50.6 103.977088,50.6 103.677088,50.8 C103.377088,50.8 103.077088,50.9 102.777088,50.9 C102.777088,50.9 102.777088,50.9 102.777088,50.9 C98.5770876,51.7 94.6770876,53.4 90.7770876,55.2 C89.7770876,55.7 89.7770876,56.1 90.5770876,56.8 C93.7770876,59.8 96.9770876,62.8 100.077088,65.8 C100.777088,66.4 101.277088,66.4 102.077088,66.1 C104.477088,65.2 106.777088,65.5 108.877088,66.9 C110.877088,68.2 111.677088,70.3 112.077088,72.5 C112.077088,72.8 112.077088,73 112.077088,73.3 C112.077088,73.3 112.077088,73.3 112.077088,73.3 C111.377088,74.8 111.577088,76 113.177088,76.9 C114.077088,77.4 114.877088,78.2 115.677088,78.8 C117.377088,80.1 117.477088,80 117.877088,77.9 C117.877088,77.5 117.977088,77.2 117.977088,76.8 C117.977088,76.8 117.977088,76.8 117.977088,76.8 C118.077088,76.7 118.077088,76.6 118.177088,76.5 C119.777088,67 117.477088,58.3 111.677088,50.6 Z M118.077088,76.5 C118.077088,76.5 118.077088,76.5 118.077088,76.5 C118.077088,76.5 118.077088,76.4 118.077088,76.4 C118.077088,76.4 118.077088,76.4 118.077088,76.5 Z" id="Shape" fill="#0870E5"></path>
                    <path d="M63.54257,62.0627417 C64.84257,61.7627417 66.14257,61.4627417 67.44257,61.8627417 C67.94257,62.0627417 68.34257,61.7627417 68.74257,61.3627417 C71.14257,58.5627417 73.94257,56.2627417 76.84257,53.9627417 C77.44257,53.4627417 78.34257,53.1627417 78.54257,52.5627417 C78.94257,51.5627417 77.54257,51.5627417 77.14257,50.9627417 C74.94257,47.7627417 72.24257,45.0627417 70.24257,41.6627417 C69.74257,40.8627417 69.24257,40.8627417 68.54257,41.2627417 C66.04257,42.6627417 63.74257,44.3627417 61.64257,46.2627417 C60.34257,47.3627417 59.84257,48.7627417 60.04257,50.3627417 C60.04257,50.8627417 60.04257,51.3627417 60.04257,51.8627417 C60.04257,51.8627417 60.04257,51.8627417 60.04257,51.8627417 C60.04257,51.8627417 60.04257,51.8627417 60.04257,51.8627417 C60.04257,55.1627417 60.94257,58.3627417 62.24257,61.4627417 C62.34257,62.0627417 62.74257,62.2627417 63.54257,62.0627417 Z" id="Shape" fill="#0870E5"></path>
                    <path d="M74,38.8 C76.8,41.9 79.3,45 82.2,47.8 C82.5,48.1 82.8,48.4 83.1,48.7 C83.1,48.7 83.1,48.7 83.1,48.7 C83.3,49.1 83.5,49.2 83.9,49 C88,46.8 92.4,45.6 96.9,44.7 C97.5,44.7 98.1,44.6 98.7,44.6 C98.7,44.6 98.7,44.6 98.7,44.6 C100.8,44.6 103,44.7 105.1,44.7 C105.4,44.9 105.9,45.2 106.1,44.8 C106.3,44.5 105.8,44.4 105.5,44.3 C105.5,44.3 105.5,44.3 105.5,44.3 C101.3,40.8 96.4,38.7 91,37.7 C90.6,37.7 90.2,37.6 89.9,37.6 C89.9,37.6 89.9,37.6 89.9,37.6 C86.2,36.8 82.5,36.8 78.8,37.6 C78.5,37.6 78.2,37.6 77.9,37.7 C76.7,37.9 75.4,38.2 74,38.8 Z" id="Shape" fill="#0870E5"></path>
                    <path d="M56.9317811,135.840962 L69.8317811,130.140962 C70.9317811,129.640962 72.2317811,130.540962 72.1317811,131.740962 L70.8317811,145.740962 C70.7317811,146.940962 69.3317811,147.640962 68.3317811,146.940962 L56.7317811,138.640962 C55.6317811,137.940962 55.8317811,136.340962 56.9317811,135.840962 Z" id="Shape" fill="#0870E5"></path>
                    <circle id="Oval" fill="#3E85F7" cx="21" cy="89" r="4"></circle>
                    <circle id="Oval" fill="#3E85F7" cx="134" cy="63" r="4"></circle>
                </g>
            </g>
        </g>
    </g>
</svg>