<?xml version="1.0" encoding="UTF-8"?>
<svg width="299px" height="203px" viewBox="0 0 299 203" version="1.1" xmlns="http://www.w3.org/2000/svg" xmlns:xlink="http://www.w3.org/1999/xlink">
    <!-- Generator: Sketch 48.1 (47250) - http://www.bohemiancoding.com/sketch -->
    <title>Group 5</title>
    <desc>Created with Sketch.</desc>
    <defs>
        <linearGradient x1="49.9869248%" y1="0.863381799%" x2="49.9869248%" y2="98.9008078%" id="linearGradient-1">
            <stop stop-color="#028090" offset="0%"></stop>
            <stop stop-color="#2FD3D8" offset="100%"></stop>
        </linearGradient>
        <linearGradient x1="49.9334307%" y1="1.39612278%" x2="49.9334307%" y2="98.3651589%" id="linearGradient-2">
            <stop stop-color="#3DD7EC" offset="0%"></stop>
            <stop stop-color="#3DEAEC" offset="100%"></stop>
        </linearGradient>
        <linearGradient x1="0.59047619%" y1="50.7761905%" x2="98.8047619%" y2="50.7761905%" id="linearGradient-3">
            <stop stop-color="#3DD7EC" offset="0%"></stop>
            <stop stop-color="#3DEAEC" offset="100%"></stop>
        </linearGradient>
        <linearGradient x1="0.59047619%" y1="50.1809524%" x2="98.8047619%" y2="50.1809524%" id="linearGradient-4">
            <stop stop-color="#3DD7EC" offset="0%"></stop>
            <stop stop-color="#3DEAEC" offset="100%"></stop>
        </linearGradient>
        <linearGradient x1="50.0578606%" y1="0.678656126%" x2="50.0578606%" y2="99.5373518%" id="linearGradient-5">
            <stop stop-color="#4F6DBA" offset="0%"></stop>
            <stop stop-color="#25407C" offset="100%"></stop>
        </linearGradient>
        <linearGradient x1="49.9730819%" y1="98.0226216%" x2="49.9730819%" y2="0.335306554%" id="linearGradient-6">
            <stop stop-color="#E8F5FA" offset="0%"></stop>
            <stop stop-color="#F1F5FA" offset="100%"></stop>
        </linearGradient>
    </defs>
    <g id="8.-How-It-Works" stroke="none" stroke-width="1" fill="none" fill-rule="evenodd" transform="translate(-38.000000, -958.000000)">
        <g id="HIW" transform="translate(0.000000, 370.000000)">
            <g id="step-2" transform="translate(20.000000, 588.000000)">
                <g id="Group-5" transform="translate(18.000000, 0.000000)">
                    <g id="Page-1" fill="#D1ECFF">
                        <path d="M19.8829922,114.614074 L18.8495252,114.614074 L18.8495252,117.379069 L22.8211813,117.379069 L22.8211813,114.614074 L21.7870807,114.614074 C22.9694531,114.614074 23.9281505,113.626949 23.9281505,112.409517 L23.9281505,106.07443 C23.9249823,104.924198 23.4130011,103.838556 22.5379442,103.124146 L22.4384627,103.042592 C21.6666891,102.412998 21.135065,101.52439 20.9335675,100.532045 L20.8353533,100.045333 L20.7371391,100.532045 C20.5356415,101.52439 20.0027502,102.412998 19.2316102,103.042592 L19.1321287,103.124146 C18.2570718,103.838556 17.7450906,104.924198 17.7419224,106.07443 L17.7419224,112.409517 C17.7419224,113.626949 18.7006198,114.614074 19.8829922,114.614074" id="Fill-1"></path>
                        <path d="M6.57655044,114.614074 L5.54308346,114.614074 L5.54308346,117.379069 L9.51473951,117.379069 L9.51473951,114.614074 L8.48063889,114.614074 C9.66301129,114.614074 10.6217087,113.626949 10.6217087,112.409517 L10.6217087,106.07443 C10.6185405,104.924198 10.1065594,103.838556 9.23150239,103.124146 L9.1320209,103.042592 C8.36024728,102.412998 7.82862325,101.52439 7.6271257,100.532045 L7.52891149,100.045333 L7.43006363,100.532045 C7.22919973,101.52439 6.69630842,102.412998 5.92516843,103.042592 L5.82568694,103.124146 C4.95062998,103.838556 4.43864879,104.924198 4.43548059,106.07443 L4.43548059,112.409517 C4.43548059,113.626949 5.39417804,114.614074 6.57655044,114.614074" id="Fill-3"></path>
                        <path d="M187.103145,108.207116 L196.006422,108.207116 C197.735626,108.207116 199.142307,109.655508 199.142307,111.435987 L199.142307,126.409235 L187.103145,126.409235 L187.103145,108.207116 Z M204.378708,97.4844438 L204.378708,126.409235 L199.775947,126.409235 L199.775947,111.435987 C199.775947,109.29602 198.084761,107.554687 196.006422,107.554687 L187.103145,107.554687 L187.103145,104.259267 C187.103145,102.1193 185.41196,100.377967 183.33362,100.377967 L164.746422,100.377967 L164.746422,101.030396 L183.33362,101.030396 C185.062824,101.030396 186.469505,102.478788 186.469505,104.259267 L186.469505,107.554687 L164.746422,107.554687 L164.746422,108.207116 L186.469505,108.207116 L186.469505,126.409235 L174.944226,126.409235 C173.894284,126.409235 173.043305,127.285447 173.043305,128.366522 L173.043305,157.282832 L169.107767,157.282832 L169.107767,157.939828 C169.107767,159.92256 170.668422,161.530145 172.594688,161.530145 L204.378708,161.530145 L222.216944,161.530145 L243.476203,161.530145 L243.476203,97.4844438 C243.476203,96.4040212 242.625224,95.5271565 241.575282,95.5271565 L206.279629,95.5271565 C205.229687,95.5271565 204.378708,96.4040212 204.378708,97.4844438 Z" id="Fill-5"></path>
                        <path d="M109.188226,52.8562163 L119.960107,59.2598078 C120.940348,59.842427 122.148066,59.842427 123.128308,59.2598078 L133.900189,52.8562163 L133.900189,74.7967541 L109.188226,74.7967541 L109.188226,52.8562163 Z M80.9627282,44.6741031 C80.9627282,49.5412241 78.8127874,53.9007553 75.4399212,56.8001501 C74.3944151,54.8500396 72.7672273,53.2437592 69.9494299,52.4556249 C69.9690727,52.2827311 69.9817455,52.1078801 69.9817455,51.929767 C69.9817455,50.0390275 68.8456289,48.4249179 67.2387176,47.7633549 C67.6474154,47.2133571 67.8945351,46.547227 67.9376226,45.829555 C68.0060557,44.7060722 67.5682104,43.6413079 66.7381419,42.90863 C66.4358956,42.6424389 66.1608958,42.3012185 65.9144098,41.9195475 C66.0081886,41.7075081 66.0956309,41.4941638 66.1995479,41.2840816 C67.2982798,39.0606033 68.2392353,36.3595468 66.9111257,33.1769977 C68.5465507,32.6935478 69.8163655,31.3156176 70.1864113,29.5912475 C76.6336991,31.656838 80.9627282,37.7120323 80.9627282,44.6741031 Z M65.6229354,47.4410549 C65.3466683,47.4410549 65.0773713,47.4704142 64.8156779,47.5213037 C64.7206319,46.892362 64.7136619,46.2823408 64.7992033,45.7010265 C64.9525442,44.6604021 65.2351476,43.6276069 65.6248363,42.6137321 C65.8428085,42.9066727 66.0728198,43.1813454 66.3256422,43.4044761 C67.0036371,44.0027536 67.3603765,44.8717891 67.3052498,45.7891044 C67.2646968,46.4584967 67.007439,47.0730849 66.5835337,47.5539251 C66.2736837,47.4821579 65.9536955,47.4410549 65.6229354,47.4410549 Z M50.2825089,44.6741031 C50.2825089,37.7165993 54.6128053,31.6555331 61.0588258,29.5899426 C61.4700583,31.5100414 62.9977645,32.9988846 64.9024866,33.3042214 L64.232729,37.4928162 C64.0103214,38.8824901 64.4234547,40.6075126 65.1983965,41.961303 C64.7022563,43.1519861 64.3550216,44.3720285 64.1731669,45.6025097 C64.074319,46.2725544 64.0838236,46.9719584 64.1985125,47.6909352 C62.4914861,48.2996516 61.2634916,49.9646506 61.2634916,51.929767 C61.2634916,52.1078801 61.276798,52.2827311 61.2964409,52.4556249 C58.4786434,53.2437592 56.8514557,54.8500396 55.8059495,56.8001501 C52.4330834,53.9007553 50.2825089,49.5412241 50.2825089,44.6741031 Z M66.315504,33.3988236 C67.5625077,36.3497604 66.6709761,38.8916241 65.6349745,40.9885312 C65.5950552,41.06878 65.5640069,41.1503336 65.5259884,41.2312348 C64.9658506,40.0770878 64.6819799,38.6985051 64.8574982,37.5985097 L65.5348594,33.36294 C65.5646405,33.3635925 65.5931543,33.367507 65.6223017,33.367507 C65.8523131,33.367507 66.0766217,33.344672 66.2977621,33.3113981 C66.3009303,33.3407574 66.3034648,33.3701168 66.315504,33.3988236 Z M65.6223017,24.3907352 C67.8520812,24.3907352 69.6649255,26.2573348 69.6649255,28.5532328 C69.6649255,30.8478259 67.8520812,32.715078 65.6223017,32.715078 C63.3937896,32.715078 61.5803116,30.8478259 61.5803116,28.5532328 C61.5803116,26.2573348 63.3937896,24.3907352 65.6223017,24.3907352 Z M203.764078,24.3907352 C205.99259,24.3907352 207.806068,26.2573348 207.806068,28.5532328 C207.806068,30.8478259 205.99259,32.715078 203.764078,32.715078 C201.534932,32.715078 199.721454,30.8478259 199.721454,28.5532328 C199.721454,26.2573348 201.534932,24.3907352 203.764078,24.3907352 Z M167.504657,161.459562 L167.504657,152.790737 L167.500855,152.786822 C167.500855,152.773774 167.504657,152.76203 167.504657,152.748981 C167.504657,151.134872 166.395787,149.788911 164.920039,149.470525 L164.920039,80.6131594 L155.760772,80.6131594 L152.786465,75.59337 C152.290325,75.0831705 151.6193,74.7967541 150.918494,74.7967541 L134.533829,74.7967541 L134.533829,52.7355169 C134.533829,52.6546157 134.502147,52.583501 134.455258,52.5267396 L145.489466,45.9665651 C146.470341,45.383946 147.073566,44.3067855 147.073566,43.1415472 L147.073566,28.8794473 L199.103655,28.8794473 C199.260797,31.2732097 201.121798,33.1893939 203.447257,33.3511963 L203.447257,42.1420258 L183.867779,42.1420258 C183.167607,42.1420258 182.600499,42.7259499 182.600499,43.446884 L182.600499,80.4546191 C182.600499,81.1755533 183.167607,81.7594773 183.867779,81.7594773 L223.659109,81.7594773 C224.359915,81.7594773 224.926389,81.1755533 224.926389,80.4546191 L224.926389,43.446884 C224.926389,42.7259499 224.359915,42.1420258 223.659109,42.1420258 L204.080898,42.1420258 L204.080898,33.3511963 C206.510907,33.1822172 208.439708,31.0977062 208.439708,28.5532328 C208.439708,25.8978464 206.341725,23.7383061 203.764078,23.7383061 C201.292248,23.7383061 199.267767,25.7243003 199.103655,28.2270183 L147.073566,28.2270183 L147.073566,16.5550619 C147.073566,15.3898235 146.470341,14.3133155 145.489466,13.7300439 L123.128308,0.437453703 C122.148066,-0.145817901 120.940348,-0.145817901 119.960107,0.437453703 L97.5989486,13.7300439 C96.6187074,14.3133155 96.0148484,15.3898235 96.0148484,16.5550619 L96.0148484,28.2270183 L70.2833582,28.2270183 C70.1186118,25.7243003 68.0941317,23.7383061 65.6223017,23.7383061 C63.0446539,23.7383061 60.9466716,25.8978464 60.9466716,28.5532328 C60.9466716,28.6895905 60.9561762,28.8233384 60.9663144,28.956434 C60.9358997,28.956434 60.9042177,28.956434 60.8725357,28.9662204 C54.159119,31.1159743 49.6488688,37.4288781 49.6488688,44.6741031 C49.6488688,49.7943666 51.933775,54.3744188 55.5075051,57.3932082 C54.3929322,59.7921899 54.0190845,62.6126409 53.3594652,65.0566402 C53.1313547,65.8995786 53.7263428,66.7386024 54.5760541,66.7386024 L62.6004722,66.7386024 C62.2937904,67.8594756 61.7602654,68.9144534 61.0676968,69.8630853 C60.2528357,70.9774342 59.8162576,72.4003821 59.951223,73.9309807 C60.1920062,76.6627013 62.326106,78.9096671 64.9747216,79.2110893 C68.4109518,79.6018943 71.3180925,76.8421193 71.3180925,73.3829403 C71.3180925,72.1152705 70.9277702,70.9415506 70.2630817,69.9824799 C69.5730477,68.9875255 69.0433246,67.8927495 68.7169999,66.7386024 L76.6698166,66.7386024 C77.519528,66.7386024 78.1138824,65.8995786 77.8870392,65.0566402 C77.2267863,62.6126409 76.852305,59.7921899 75.7383657,57.3932082 C79.3120958,54.3744188 81.5963683,49.7943666 81.5963683,44.6741031 C81.5963683,37.4099577 77.0702772,31.0924868 70.334683,28.9538243 C70.3156738,28.9479524 70.2979319,28.9499097 70.2795564,28.9479524 C70.2814573,28.9251174 70.2814573,28.9022824 70.2833582,28.8794473 L96.0148484,28.8794473 L96.0148484,43.1415472 C96.0148484,44.3067855 96.6187074,45.383946 97.5989486,45.9665651 L108.633157,52.5267396 C108.586268,52.583501 108.554586,52.6546157 108.554586,52.7355169 L108.554586,74.7967541 L92.1699204,74.7967541 C91.4691144,74.7967541 90.7980896,75.0831705 90.302583,75.59337 L87.3276428,80.6131594 L78.1683754,80.6131594 L78.1683754,99.6223333 L42.7117772,99.6223333 C40.3673089,99.6223333 38.2617229,101.099433 37.4044078,103.345746 L31.8556216,117.878604 L1.90092025,117.878604 C0.850344994,117.878604 0,118.754816 0,119.835891 L0,199.806082 C0,200.887157 0.850344994,201.763369 1.90092025,201.763369 L78.1683754,201.763369 L112.961552,201.763369 L121.544207,201.763369 L154.605012,201.763369 L164.920039,201.763369 L164.920039,191.145738 L169.281384,191.145738 L169.281384,194.109723 L169.281384,199.034258 C169.281384,200.541369 170.468192,201.763369 171.931901,201.763369 C173.396243,201.763369 174.583051,200.541369 174.583051,199.034258 L174.583051,191.145738 L238.348153,191.145738 L238.348153,194.109723 L238.348153,199.034258 C238.348153,200.541369 239.534961,201.763369 240.99867,201.763369 C242.463012,201.763369 243.64982,200.541369 243.64982,199.034258 L243.64982,191.145738 L252.679191,191.145738 L252.679191,161.459562 L167.504657,161.459562 Z" id="Fill-7"></path>
                    </g>
                    <g id="TerraHub-Station" transform="translate(45.023166, 0.000000)" fill-rule="nonzero">
                        <path d="M78.3518533,202.011086 L1.90482625,202.011086 C0.82542471,202.011086 0,201.160798 0,200.048883 L0,119.925604 C0,118.81369 0.82542471,117.963402 1.90482625,117.963402 L31.9375869,117.963402 L37.5250772,103.377695 C38.4139961,101.153865 40.509305,99.6495094 42.8585907,99.6495094 L79.0502896,99.6495094 L79.0502896,202.011086 L78.3518533,202.011086 Z" id="Shape" fill="#63B0F3"></path>
                        <g id="Group" transform="translate(46.350772, 107.267083)" fill="#028090">
                            <path d="M22.6674324,1.43894868 L0.698436293,1.43894868 C0.317471042,1.43894868 0,1.11191489 0,0.719474339 C0,0.32703379 0.317471042,0 0.698436293,0 L22.6674324,0 C23.0483977,0 23.3658687,0.32703379 23.3658687,0.719474339 C23.3658687,1.11191489 23.0483977,1.43894868 22.6674324,1.43894868 Z" id="Shape"></path>
                            <path d="M22.6674324,4.67432236 L0.698436293,4.67432236 C0.317471042,4.67432236 0,4.34728857 0,3.95484802 C0,3.56240747 0.317471042,3.23537368 0.698436293,3.23537368 L22.6674324,3.23537368 C23.0483977,3.23537368 23.3658687,3.56240747 23.3658687,3.95484802 C23.3658687,4.34728857 23.0483977,4.67432236 22.6674324,4.67432236 Z" id="Shape"></path>
                            <path d="M22.6674324,7.90969604 L0.698436293,7.90969604 C0.317471042,7.90969604 0,7.58266225 0,7.1902217 C0,6.79778115 0.317471042,6.47074736 0.698436293,6.47074736 L22.6674324,6.47074736 C23.0483977,6.47074736 23.3658687,6.79778115 23.3658687,7.1902217 C23.3658687,7.58266225 23.0483977,7.90969604 22.6674324,7.90969604 Z" id="Shape"></path>
                            <path d="M22.6674324,11.1450697 L0.698436293,11.1450697 C0.317471042,11.1450697 0,10.8180359 0,10.4255954 C0,10.0331548 0.317471042,9.70612104 0.698436293,9.70612104 L22.6674324,9.70612104 C23.0483977,9.70612104 23.3658687,10.0331548 23.3658687,10.4255954 C23.3658687,10.8180359 23.0483977,11.1450697 22.6674324,11.1450697 Z" id="Shape"></path>
                        </g>
                        <path d="M48.5730695,160.803198 L10.1590734,160.803198 C9.46063707,160.803198 8.88918919,160.214537 8.88918919,159.495063 L8.88918919,131.370157 C8.88918919,130.650683 9.46063707,130.062022 10.1590734,130.062022 L48.5730695,130.062022 C49.2715058,130.062022 49.8429537,130.650683 49.8429537,131.370157 L49.8429537,159.495063 C49.8429537,160.214537 49.2715058,160.803198 48.5730695,160.803198 Z" id="Shape" fill="#ABFFEF"></path>
                        <rect id="Rectangle-path" fill="#00FFCE" x="11.4289575" y="132.003246" width="36.1916988" height="26.22811"></rect>
                        <g id="Group" transform="translate(16.508494, 132.121651)" fill="#ABFFEF">
                            <rect id="Rectangle-path" x="12.6988417" y="0" width="1" height="26.22811"></rect>
                            <rect id="Rectangle-path" x="6.34942085" y="0" width="1" height="26.22811"></rect>
                            <rect id="Rectangle-path" x="9.9475983e-14" y="0" width="1" height="26.22811"></rect>
                            <rect id="Rectangle-path" x="19.0482625" y="0" width="1" height="26.22811"></rect>
                            <rect id="Rectangle-path" x="25.3976834" y="0" width="1" height="26.22811"></rect>
                        </g>
                        <g id="Group" transform="translate(11.428958, 138.662327)" fill="#ABFFEF">
                            <rect id="Rectangle-path" x="2.84217094e-14" y="6.47074736" width="36.1916988" height="1"></rect>
                            <rect id="Rectangle-path" x="2.84217094e-14" y="12.9414947" width="36.1916988" height="1"></rect>
                            <rect id="Rectangle-path" x="2.84217094e-14" y="0" width="36.1916988" height="1"></rect>
                        </g>
                        <path d="M43.6454303,149.541721 C43.2644651,149.541721 42.946994,149.345501 42.8200056,148.953061 L41.5501214,146.075163 C41.3596388,145.617316 40.9786736,145.355689 40.5342141,145.355689 C40.0897546,145.355689 39.7087894,145.617316 39.5183068,146.075163 L38.8198705,147.644925 C38.5023994,148.298993 37.9309516,148.691434 37.2325153,148.691434 C36.534079,148.691434 35.8991369,148.298993 35.6451601,147.644925 C35.4546774,147.252485 35.0737122,146.990858 34.6292527,146.925451 C34.1847933,146.925451 33.803828,147.121671 33.6133454,147.514112 C33.5498512,147.644925 33.3593685,147.710332 33.1688859,147.644925 C33.0418975,147.579519 32.9784033,147.383298 33.0418975,147.187078 C33.3593685,146.598417 33.9943106,146.205977 34.6927469,146.271383 C35.3911832,146.271383 35.9626311,146.729231 36.2166079,147.317892 C36.4070906,147.775739 36.7880558,148.037366 37.2325153,148.037366 C37.6769747,148.037366 38.05794,147.775739 38.2484226,147.317892 L38.9468589,145.748129 C39.2643299,145.094062 39.8357778,144.701621 40.5342141,144.701621 C41.2326504,144.701621 41.8675925,145.094062 42.1215693,145.748129 L43.3914535,148.626027 C43.4549477,148.822247 43.6454303,148.822247 43.7089245,148.822247 C43.7724187,148.822247 43.8994072,148.75684 43.9629014,148.56062 L46.8201407,137.441471 C46.883635,137.245251 47.0106234,137.179844 47.201106,137.179844 C47.3915886,137.245251 47.4550828,137.376064 47.4550828,137.572285 L44.5978434,148.691434 C44.470855,149.083874 44.153384,149.345501 43.7724187,149.410908 C43.6454303,149.541721 43.6454303,149.541721 43.6454303,149.541721 Z" id="Shape" fill="#F94421"></path>
                        <path d="M30.438635,148.021068 C30.3116465,148.021068 30.1846581,147.955661 30.1211639,147.824848 L27.3274187,141.545799 C27.2639245,141.349579 27.3274187,141.218765 27.4544072,141.087952 C27.6448898,141.022545 27.7718782,141.087952 27.8988666,141.218765 L30.6926118,147.497814 C30.756106,147.694034 30.6926118,147.824848 30.5656234,147.955661 C30.5656234,148.021068 30.5021292,148.021068 30.438635,148.021068 Z" id="Shape" fill="#F94421"></path>
                        <path d="M20.6605268,148.579841 C19.9620906,148.579841 19.3271485,148.1874 19.0731716,147.533332 L17.1683454,143.281893 C17.1048512,143.085673 17.1683454,142.954859 17.2953338,142.824046 C17.4858164,142.758639 17.6128048,142.824046 17.7397933,142.954859 L19.6446195,147.206299 C19.8351021,147.664146 20.2160674,147.925773 20.6605268,147.925773 C21.1049863,147.925773 21.4859516,147.664146 21.6764342,147.206299 L24.5971678,140.600216 C24.660662,140.469402 24.8511446,140.338589 25.0416272,140.469402 C25.2321099,140.534809 25.2956041,140.73103 25.1686156,140.92725 L22.2478821,147.533332 C21.9939052,148.1874 21.3589631,148.579841 20.6605268,148.579841 Z" id="Shape" fill="#F94421"></path>
                        <path d="M11.7490013,150.724164 C11.685507,150.724164 11.685507,150.724164 11.6220128,150.724164 C11.4315302,150.658758 11.368036,150.462537 11.4950244,150.266317 L14.6062406,143.202387 C14.6697348,143.006167 14.8602175,142.94076 15.0507001,143.071574 C15.2411827,143.13698 15.3046769,143.333201 15.1776885,143.529421 L12.0664723,150.593351 C11.9394839,150.658758 11.8759897,150.724164 11.7490013,150.724164 Z" id="Shape" fill="#F94421"></path>
                        <path d="M15.9370463,144.470437 C14.8576448,144.470437 13.9687259,143.554742 13.9687259,142.442827 C13.9687259,141.330912 14.8576448,140.415218 15.9370463,140.415218 C17.0164479,140.415218 17.9053668,141.330912 17.9053668,142.442827 C17.9053668,143.554742 17.0164479,144.470437 15.9370463,144.470437 Z M15.9370463,141.069285 C15.1751158,141.069285 14.603668,141.723353 14.603668,142.442827 C14.603668,143.227708 15.23861,143.816369 15.9370463,143.816369 C16.6354826,143.816369 17.2704247,143.162302 17.2704247,142.442827 C17.2704247,141.657946 16.6989768,141.069285 15.9370463,141.069285 Z" id="Shape" fill="#F94421"></path>
                        <path d="M26.0961197,141.882138 C25.0167181,141.882138 24.1277992,140.966443 24.1277992,139.854528 C24.1277992,138.742613 25.0167181,137.826919 26.0961197,137.826919 C27.1755212,137.826919 28.0644402,138.742613 28.0644402,139.854528 C28.1279344,140.901036 27.2390154,141.882138 26.0961197,141.882138 Z M26.0961197,138.41558 C25.3341892,138.41558 24.7627413,139.069647 24.7627413,139.789122 C24.7627413,140.574003 25.3976834,141.162663 26.0961197,141.162663 C26.8580502,141.162663 27.4294981,140.508596 27.4294981,139.789122 C27.4929923,139.00424 26.8580502,138.41558 26.0961197,138.41558 Z" id="Shape" fill="#F94421"></path>
                        <path d="M31.8105985,150.941184 C30.7311969,150.941184 29.842278,150.02549 29.842278,148.913575 C29.842278,147.80166 30.7311969,146.885965 31.8105985,146.885965 C32.89,146.885965 33.7789189,147.80166 33.7789189,148.913575 C33.7789189,150.02549 32.89,150.941184 31.8105985,150.941184 Z M31.8105985,147.474626 C31.048668,147.474626 30.4772201,148.128694 30.4772201,148.848168 C30.4772201,149.567642 31.1121622,150.22171 31.8105985,150.22171 C32.572529,150.22171 33.1439768,149.567642 33.1439768,148.848168 C33.1439768,148.128694 32.572529,147.474626 31.8105985,147.474626 Z" id="Shape" fill="#F94421"></path>
                        <path d="M67.7483205,140.984951 L59.684556,140.984951 C58.9861197,140.984951 58.4146718,140.39629 58.4146718,139.676815 L58.4146718,131.370157 C58.4146718,130.650683 58.9861197,130.062022 59.684556,130.062022 L67.7483205,130.062022 C68.4467568,130.062022 69.0182046,130.650683 69.0182046,131.370157 L69.0182046,139.676815 C69.0182046,140.39629 68.4467568,140.984951 67.7483205,140.984951 Z" id="Shape" fill="#62EEF9"></path>
                        <path d="M67.7483205,153.926445 L59.684556,153.926445 C58.9861197,153.926445 58.4146718,153.337784 58.4146718,152.61831 L58.4146718,144.311652 C58.4146718,143.592178 58.9861197,143.003517 59.684556,143.003517 L67.7483205,143.003517 C68.4467568,143.003517 69.0182046,143.592178 69.0182046,144.311652 L69.0182046,152.61831 C69.0182046,153.337784 68.4467568,153.926445 67.7483205,153.926445 Z" id="Shape" fill="#62EEF9"></path>
                        <path d="M67.7483205,166.86794 L59.684556,166.86794 C58.9861197,166.86794 58.4146718,166.279279 58.4146718,165.559805 L58.4146718,157.253147 C58.4146718,156.533672 58.9861197,155.945011 59.684556,155.945011 L67.7483205,155.945011 C68.4467568,155.945011 69.0182046,156.533672 69.0182046,157.253147 L69.0182046,165.559805 C69.0182046,166.279279 68.4467568,166.86794 67.7483205,166.86794 Z" id="Shape" fill="#62EEF9"></path>
                        <ellipse id="Oval" fill="#6BF9EE" cx="10.8575097" cy="168.325817" rx="1.96832046" ry="2.0276095"></ellipse>
                        <ellipse id="Oval" fill="#6BF9EE" cx="17.2069305" cy="168.325817" rx="1.96832046" ry="2.0276095"></ellipse>
                        <ellipse id="Oval" fill="#6BF9EE" cx="23.5563514" cy="168.325817" rx="1.96832046" ry="2.0276095"></ellipse>
                        <g id="Group" transform="translate(5.079537, 100.726407)">
                            <g transform="translate(12.698842, 0.000000)">
                                <path d="M2.15880309,14.5203003 C0.952413127,14.5203003 0,13.5391989 0,12.2964705 L0,5.95201499 C0,4.77469334 0.507953668,3.72818521 1.39687259,3.00871087 L1.523861,2.94330411 C2.28579151,2.28923653 2.85723938,1.43894868 3.04772201,0.457847307 L3.17471042,0 L3.30169884,0.457847307 C3.49218147,1.43894868 4.06362934,2.35464329 4.82555985,2.94330411 L4.95254826,3.00871087 C5.84146718,3.72818521 6.34942085,4.8401001 6.34942085,5.95201499 L6.34942085,12.2964705 C6.34942085,13.5391989 5.39700772,14.5203003 4.19061776,14.5203003 L2.15880309,14.5203003 Z" id="Shape" fill="#00FFCE"></path>
                                <rect id="Rectangle-path" fill="#2C8FB1" x="1.26988417" y="14.2356442" width="4.00013514" height="2.74708384"></rect>
                            </g>
                            <g transform="translate(0.000000, 0.000000)">
                                <path d="M2.15880309,14.5203003 C0.952413127,14.5203003 2.30926389e-14,13.5391989 2.30926389e-14,12.2964705 L2.30926389e-14,5.95201499 C2.30926389e-14,4.77469334 0.507953668,3.72818521 1.39687259,3.00871087 L1.523861,2.94330411 C2.28579151,2.28923653 2.85723938,1.43894868 3.04772201,0.457847307 L3.17471042,0 L3.30169884,0.457847307 C3.49218147,1.43894868 4.06362934,2.35464329 4.82555985,2.94330411 L4.95254826,3.00871087 C5.84146718,3.72818521 6.34942085,4.8401001 6.34942085,5.95201499 L6.34942085,12.2964705 C6.34942085,13.5391989 5.39700772,14.5203003 4.19061776,14.5203003 L2.15880309,14.5203003 Z" id="Shape" fill="#00FFCE"></path>
                                <rect id="Rectangle-path" fill="#2C8FB1" x="1.26988417" y="14.2356442" width="4.00013514" height="2.74708384"></rect>
                            </g>
                            <path d="M2.85723938,14.8872406 C2.66675676,14.8872406 2.53976834,14.7564271 2.53976834,14.5602068 L2.53976834,8.73900536 C2.53976834,8.54278509 2.66675676,8.41197157 2.85723938,8.41197157 C3.04772201,8.41197157 3.17471042,8.54278509 3.17471042,8.73900536 L3.17471042,14.5602068 C3.17471042,14.7564271 2.9842278,14.8872406 2.85723938,14.8872406 Z" id="Shape" fill="#2C8FB1"></path>
                            <path d="M3.68266409,9.47246539 C3.04772201,9.47246539 2.53976834,8.94921133 2.53976834,8.29514374 C2.53976834,7.64107616 3.04772201,7.1178221 3.68266409,7.1178221 C4.31760618,7.1178221 4.82555985,7.64107616 4.82555985,8.29514374 C4.82555985,8.94921133 4.31760618,9.47246539 3.68266409,9.47246539 Z M3.68266409,7.70648292 C3.36519305,7.70648292 3.17471042,7.96810995 3.17471042,8.22973699 C3.17471042,8.49136402 3.42868726,8.75299105 3.68266409,8.75299105 C3.93664093,8.75299105 4.19061776,8.49136402 4.19061776,8.22973699 C4.19061776,7.96810995 3.93664093,7.70648292 3.68266409,7.70648292 Z" id="Shape" fill="#2C8FB1"></path>
                            <path d="M2.41277992,9.47246539 C1.77783784,9.47246539 1.26988417,8.94921133 1.26988417,8.29514374 C1.26988417,7.64107616 1.77783784,7.1178221 2.41277992,7.1178221 C3.04772201,7.1178221 3.55567568,7.64107616 3.55567568,8.29514374 C3.55567568,8.94921133 3.04772201,9.47246539 2.41277992,9.47246539 Z M2.41277992,7.70648292 C2.09530888,7.70648292 1.90482625,7.96810995 1.90482625,8.22973699 C1.90482625,8.49136402 2.15880309,8.75299105 2.41277992,8.75299105 C2.66675676,8.75299105 2.92073359,8.49136402 2.92073359,8.22973699 C2.92073359,7.96810995 2.73025097,7.70648292 2.41277992,7.70648292 Z" id="Shape" fill="#2C8FB1"></path>
                            <path d="M15.5560811,14.8872406 C15.3655985,14.8872406 15.23861,14.7564271 15.23861,14.5602068 L15.23861,8.73900536 C15.23861,8.54278509 15.3655985,8.41197157 15.5560811,8.41197157 C15.7465637,8.41197157 15.8735521,8.54278509 15.8735521,8.73900536 L15.8735521,14.5602068 C15.8735521,14.7564271 15.7465637,14.8872406 15.5560811,14.8872406 Z" id="Shape" fill="#2C8FB1"></path>
                            <path d="M16.3815058,9.47246539 C15.7465637,9.47246539 15.23861,8.94921133 15.23861,8.29514374 C15.23861,7.64107616 15.7465637,7.1178221 16.3815058,7.1178221 C17.0164479,7.1178221 17.5244015,7.64107616 17.5244015,8.29514374 C17.5244015,8.94921133 17.0164479,9.47246539 16.3815058,9.47246539 Z M16.3815058,7.70648292 C16.0640347,7.70648292 15.8735521,7.96810995 15.8735521,8.22973699 C15.8735521,8.49136402 16.127529,8.75299105 16.3815058,8.75299105 C16.6354826,8.75299105 16.8894595,8.49136402 16.8894595,8.22973699 C16.8894595,7.96810995 16.6989768,7.70648292 16.3815058,7.70648292 Z" id="Shape" fill="#2C8FB1"></path>
                            <path d="M15.1116216,9.47246539 C14.4766795,9.47246539 13.9687259,8.94921133 13.9687259,8.29514374 C13.9687259,7.64107616 14.4766795,7.1178221 15.1116216,7.1178221 C15.7465637,7.1178221 16.2545174,7.64107616 16.2545174,8.29514374 C16.2545174,8.94921133 15.7465637,9.47246539 15.1116216,9.47246539 Z M15.1116216,7.70648292 C14.7941506,7.70648292 14.603668,7.96810995 14.603668,8.22973699 C14.603668,8.49136402 14.8576448,8.75299105 15.1116216,8.75299105 C15.3655985,8.75299105 15.6195753,8.49136402 15.6195753,8.22973699 C15.6195753,7.96810995 15.3655985,7.70648292 15.1116216,7.70648292 Z" id="Shape" fill="#2C8FB1"></path>
                        </g>
                        <path d="M68.7856614,63.8711715 L68.7856614,63.4133242 L63.3251594,63.4133242 L63.3251594,64.263612 C63.3251594,66.160408 62.6267231,67.9917972 61.4838274,69.4961527 C60.6584027,70.6080675 60.2139432,72.0470162 60.3409316,73.5513717 C60.5949085,76.2984555 62.6902174,78.5222853 65.3569741,78.8493191 C68.7856614,79.2417596 71.706395,76.4946758 71.706395,73.0281176 C71.706395,71.7853892 71.3254297,70.6080675 70.6269934,69.6269662 C69.4840977,67.9263905 68.7856614,65.9641877 68.7856614,63.8711715 Z" id="Shape" fill="#FFEB97"></path>
                        <g id="Group" transform="translate(64.129151, 66.060826)" fill="#F7B454">
                            <path d="M1.58735521,0 C1.77783784,0 1.90482625,0.130813516 1.90482625,0.32703379 L1.90482625,6.14823526 C1.90482625,6.34445554 1.77783784,6.47526905 1.58735521,6.47526905 C1.39687259,6.47526905 1.26988417,6.34445554 1.26988417,6.14823526 L1.26988417,0.32703379 C1.26988417,0.196220274 1.39687259,0 1.58735521,0 Z" id="Shape"></path>
                            <path d="M1.14289575,5.17659789 C1.77783784,5.17659789 2.28579151,5.69985195 2.28579151,6.35391954 C2.28579151,7.00798712 1.77783784,7.53124118 1.14289575,7.53124118 C0.507953668,7.53124118 4.12114787e-13,7.00798712 4.12114787e-13,6.35391954 C4.12114787e-13,5.69985195 0.507953668,5.17659789 1.14289575,5.17659789 Z M1.14289575,6.8771736 C1.4603668,6.8771736 1.65084942,6.61554657 1.65084942,6.35391954 C1.65084942,6.0922925 1.39687259,5.83066547 1.14289575,5.83066547 C0.888918919,5.83066547 0.634942085,6.0922925 0.634942085,6.35391954 C0.634942085,6.61554657 0.82542471,6.8771736 1.14289575,6.8771736 Z" id="Shape"></path>
                            <path d="M2.41277992,5.17659789 C3.04772201,5.17659789 3.55567568,5.69985195 3.55567568,6.35391954 C3.55567568,7.00798712 3.04772201,7.53124118 2.41277992,7.53124118 C1.77783784,7.53124118 1.26988417,7.00798712 1.26988417,6.35391954 C1.26988417,5.69985195 1.77783784,5.17659789 2.41277992,5.17659789 Z M2.41277992,6.8771736 C2.73025097,6.8771736 2.92073359,6.61554657 2.92073359,6.35391954 C2.92073359,6.0922925 2.66675676,5.83066547 2.41277992,5.83066547 C2.15880309,5.83066547 1.90482625,6.0922925 1.90482625,6.35391954 C1.90482625,6.61554657 2.09530888,6.8771736 2.41277992,6.8771736 Z" id="Shape"></path>
                        </g>
                        <path d="M66.1609653,60.7342174 C57.3352703,60.7342174 50.1604247,53.3432538 50.1604247,44.2517144 C50.1604247,36.9915643 54.6685135,30.6471087 61.3988996,28.4886857 C61.5893822,28.4232789 61.7163707,28.5540925 61.7798649,28.684906 C61.8433591,28.8811262 61.7163707,29.0119398 61.5893822,29.0773465 C55.112973,31.1703628 50.7953668,37.2531913 50.7953668,44.1863076 C50.7953668,52.8854065 57.7162355,60.0147431 66.1609653,60.0147431 C74.605695,60.0147431 81.5265637,52.8854065 81.5265637,44.1863076 C81.5265637,37.1877845 77.1454633,31.104956 70.6690541,29.0773465 C70.4785714,29.0119398 70.4150772,28.8157195 70.4785714,28.684906 C70.5420656,28.5540925 70.7325483,28.4232789 70.8595367,28.4886857 C77.5899228,30.6471087 82.1615058,36.9915643 82.1615058,44.2517144 C82.1615058,53.3432538 74.9866602,60.7342174 66.1609653,60.7342174 Z" id="Shape" fill="#3DD7EC"></path>
                        <path d="M54.5981786,66.613313 C53.7727539,66.613313 53.1378118,65.7630251 53.3917886,64.9127373 C54.9156496,59.2877561 54.9156496,51.7659789 65.7096651,51.7659789 C76.5036805,51.7659789 76.5036805,59.3531628 78.0275415,64.9127373 C78.2815183,65.7630251 77.6465763,66.613313 76.8211515,66.613313 L54.5981786,66.613313 Z" id="Shape" fill="#0870E5"></path>
                        <path d="M64.7005985,48.141293 C64.57361,48.141293 64.4466216,48.0758863 64.3831274,47.879666 C64.1291506,46.8985646 64.0656564,45.98287 64.1926448,45.0671754 C64.4466216,43.4974132 64.8910811,41.927651 65.6530116,40.4232956 C66.6689189,38.3302793 67.5578378,35.7794158 66.3514479,32.8361117 C66.2879537,32.6398914 66.3514479,32.5090779 66.5419305,32.3782643 C66.7324131,32.3128576 66.8594015,32.3782643 66.98639,32.5744846 C68.3197683,35.7794158 67.3673552,38.5264996 66.2879537,40.7503294 C65.5895174,42.1892781 65.0815637,43.6936335 64.8910811,45.1979889 C64.7640927,45.98287 64.8275869,46.8331579 65.0180695,47.7488525 C65.0815637,47.9450728 64.9545753,48.0758863 64.7640927,48.141293 C64.7640927,48.141293 64.7640927,48.141293 64.7005985,48.141293 Z" id="Shape" fill="#3DD7EC"></path>
                        <path d="M66.7935177,48.33 C66.6665293,48.33 66.6030351,48.2645933 66.5395409,48.1991865 C66.4125524,48.068373 66.4760466,47.8721527 66.6030351,47.7413392 C67.3649656,47.2180851 67.809425,46.433204 67.8729192,45.5175094 C67.9364134,44.6018148 67.5554482,43.751527 66.9205061,43.0974594 C65.4601393,41.7893242 64.5077262,39.1076471 64.8251972,37.1454444 L65.5236335,32.6323781 C65.5236335,32.4361578 65.7141161,32.3053443 65.9045988,32.370751 C66.0950814,32.370751 66.2220698,32.5669713 66.1585756,32.7631916 L65.4601393,37.2762579 C65.2061625,39.0422404 66.0315872,41.4622904 67.3649656,42.5742053 C68.1903903,43.2936796 68.6348497,44.4055945 68.5713555,45.5175094 C68.5078613,46.6294243 67.9364134,47.6759324 67.0474945,48.2645933 C66.9205061,48.33 66.8570119,48.33 66.7935177,48.33 Z" id="Shape" fill="#3DD7EC"></path>
                        <ellipse id="Oval" fill="#0870E5" cx="65.9704826" cy="51.7495221" rx="4.38110039" ry="4.51306631"></ellipse>
                        <path d="M66.2879537,32.9748907 C63.6846911,32.9748907 61.5893822,30.8164677 61.5893822,28.1347906 C61.5893822,25.4531135 63.6846911,23.2946905 66.2879537,23.2946905 C68.8912162,23.2946905 70.9865251,25.4531135 70.9865251,28.1347906 C70.9865251,30.8164677 68.827722,32.9748907 66.2879537,32.9748907 Z M66.2879537,24.0141648 C64.0656564,24.0141648 62.2243243,25.9109608 62.2243243,28.2001974 C62.2243243,30.4894339 64.0656564,32.3862299 66.2879537,32.3862299 C68.510251,32.3862299 70.351583,30.4894339 70.351583,28.2001974 C70.351583,25.8455541 68.510251,24.0141648 66.2879537,24.0141648 Z" id="Shape" fill="#3DD7EC"></path>
                        <path d="M204.705328,32.9748907 C202.102066,32.9748907 200.006757,30.8164677 200.006757,28.1347906 C200.006757,25.4531135 202.102066,23.2946905 204.705328,23.2946905 C207.308591,23.2946905 209.4039,25.4531135 209.4039,28.1347906 C209.4039,30.8164677 207.308591,32.9748907 204.705328,32.9748907 Z M204.705328,24.0141648 C202.483031,24.0141648 200.641699,25.9109608 200.641699,28.2001974 C200.641699,30.4894339 202.483031,32.3862299 204.705328,32.3862299 C206.927625,32.3862299 208.768958,30.4894339 208.768958,28.2001974 C208.768958,25.8455541 206.927625,24.0141648 204.705328,24.0141648 Z" id="Shape" fill="#3DD7EC"></path>
                        <path d="M109.52751,80.9304002 C109.337027,80.9304002 109.210039,80.7995866 109.210039,80.6033664 L109.210039,52.7400874 C109.210039,52.5438672 109.337027,52.4130536 109.52751,52.4130536 C109.717992,52.4130536 109.844981,52.5438672 109.844981,52.7400874 L109.844981,80.6033664 C109.844981,80.7995866 109.717992,80.9304002 109.52751,80.9304002 Z" id="Shape" fill="#00FFCE"></path>
                        <path d="M134.925193,80.9304002 C134.73471,80.9304002 134.607722,80.7995866 134.607722,80.6033664 L134.607722,52.7400874 C134.607722,52.5438672 134.73471,52.4130536 134.925193,52.4130536 C135.115676,52.4130536 135.242664,52.5438672 135.242664,52.7400874 L135.242664,80.6033664 C135.242664,80.7995866 135.115676,80.9304002 134.925193,80.9304002 Z" id="Shape" fill="#00FFCE"></path>
                        <rect id="Rectangle-path" fill="url(#linearGradient-1)" x="78.7328185" y="80.2372673" width="86.9235714" height="121.46035"></rect>
                        <path d="M199.816274,28.4782812 L70.1611004,28.4782812 C69.9706178,28.4782812 69.8436293,28.3474677 69.8436293,28.1512474 C69.8436293,27.9550272 69.9706178,27.8242137 70.1611004,27.8242137 L199.816274,27.8242137 C200.006757,27.8242137 200.133745,27.9550272 200.133745,28.1512474 C200.133745,28.3474677 200.006757,28.4782812 199.816274,28.4782812 Z" id="Shape" fill="#3DD7EC"></path>
                        <path d="M96.5111969,16.5969649 L96.5111969,43.2175154 C96.5111969,44.3948371 97.146139,45.4413452 98.0985521,46.030006 L120.512008,59.3729847 C121.464421,59.9616455 122.734305,59.9616455 123.686718,59.3729847 L146.100174,46.030006 C147.052587,45.4413452 147.687529,44.3948371 147.687529,43.2175154 L147.687529,16.5969649 C147.687529,15.4196432 147.052587,14.3731351 146.100174,13.7844743 L123.686718,0.441495617 C122.734305,-0.147165206 121.464421,-0.147165206 120.512008,0.441495617 L98.0985521,13.7190675 C97.146139,14.3077283 96.5111969,15.4196432 96.5111969,16.5969649 Z" id="Shape" fill="#00FFCE"></path>
                        <path d="M133.464826,27.8497139 C133.274344,25.2334436 131.115541,23.1404273 128.512278,23.1404273 C128.004324,23.1404273 127.496371,23.2058341 126.988417,23.4020543 C126.797934,23.4674611 126.607452,23.5328678 126.416969,23.5982746 C125.147085,21.1128178 122.607317,19.4122421 119.686583,19.4122421 C115.813436,19.4122421 112.638726,22.420953 112.130772,26.2145449 C109.019556,26.6723922 106.67027,29.4848828 106.67027,32.7552207 C106.67027,36.4179992 109.52751,39.3613033 113.083185,39.3613033 L116.384884,39.3613033 L116.384884,37.2028803 L113.083185,37.2028803 C110.670405,37.2028803 108.702085,35.1752708 108.702085,32.689814 C108.702085,30.2043572 110.670405,28.1767477 113.083185,28.1767477 L114.099093,28.1767477 L114.099093,27.1302395 C114.099093,23.9907152 116.575367,21.4398516 119.623089,21.4398516 C122.670811,21.4398516 125.147085,23.9907152 125.147085,27.1302395 L125.147085,30.8584248 L123.55973,30.8584248 L126.162992,33.9979491 L128.766255,30.8584248 L127.1789,30.8584248 L127.1789,27.1302395 C127.1789,26.6069855 127.115405,26.0837314 127.051911,25.5604773 C127.1789,25.4950706 127.369382,25.4296638 127.496371,25.3642571 C127.750347,25.2988503 128.067819,25.2334436 128.38529,25.2334436 C129.972645,25.2334436 131.306023,26.6069855 131.306023,28.2421544 C131.306023,28.3075612 131.306023,28.4383747 131.306023,28.5037815 L131.242529,29.4194761 L132.131448,29.6156964 C133.845792,30.0081369 134.988687,31.5778991 134.988687,33.3438816 C134.988687,35.4368978 133.337838,37.2028803 131.242529,37.2028803 L123.496236,37.2028803 C121.464421,37.2028803 119.750077,35.5023046 119.750077,33.3438816 L119.750077,30.9238315 L121.337432,30.9238315 L118.73417,27.7843071 L116.130907,30.9238315 L117.718263,30.9238315 L117.718263,33.3438816 C117.718263,36.6142195 120.321525,39.2958965 123.496236,39.2958965 L131.242529,39.2958965 C134.417239,39.2958965 137.020502,36.6142195 137.020502,33.3438816 C137.14749,30.9238315 135.687124,28.7000017 133.464826,27.8497139 Z" id="Shape" fill="#FFFFFF"></path>
                        <path d="M87.6220077,80.2347961 L156.195753,80.2347961 L153.211525,75.1984758 C152.703571,74.6752217 152.068629,74.4135947 151.370193,74.4135947 L92.5110618,74.4135947 C91.8126255,74.4135947 91.1141892,74.6752217 90.6697297,75.1984758 L87.6220077,80.2347961 Z" id="Shape" fill="#3DD7EC"></path>
                        <path d="M67.4943436,195.054152 L10.8575097,195.054152 C6.98436293,195.054152 3.80965251,191.783814 3.80965251,187.794002 C3.80965251,183.804189 6.98436293,180.533851 10.8575097,180.533851 L67.4943436,180.533851 C71.3674903,180.533851 74.5422008,183.804189 74.5422008,187.794002 C74.5422008,191.783814 71.3674903,195.054152 67.4943436,195.054152 Z" id="Shape" fill="#1A90D8"></path>
                        <path d="M74.2247297,186.557845 C68.3197683,186.557845 63.4942085,181.586932 63.4942085,175.504103 L63.4942085,161.768684 L64.1291506,161.768684 L64.1291506,175.504103 C64.1291506,181.259898 68.7007336,185.903778 74.2247297,185.903778 C79.7487259,185.903778 84.3203089,181.194491 84.3203089,175.504103 L84.955251,175.504103 C85.0187452,181.586932 80.1931853,186.557845 74.2247297,186.557845 Z" id="Shape" fill="#EFF5FA"></path>
                        <path d="M72.2564093,161.254473 C67.4308494,161.254473 63.4942085,157.199254 63.4942085,152.228341 L63.4942085,148.827189 L64.1291506,148.827189 L64.1291506,152.228341 C64.1291506,156.806814 67.7483205,160.600406 72.2564093,160.600406 C76.7644981,160.600406 80.383668,156.872221 80.383668,152.228341 L81.01861,152.228341 C81.01861,157.264661 77.0819691,161.254473 72.2564093,161.254473 Z" id="Shape" fill="#EFF5FA"></path>
                        <ellipse id="Oval" fill="#028090" cx="63.4307143" cy="135.201184" rx="2.47627413" ry="2.55086357"></ellipse>
                        <ellipse id="Oval" fill="#028090" cx="63.4307143" cy="148.789754" rx="2.47627413" ry="2.55086357"></ellipse>
                        <ellipse id="Oval" fill="#028090" cx="63.4307143" cy="161.731249" rx="2.47627413" ry="2.55086357"></ellipse>
                        <path d="M74.2247297,178.995741 C68.3197683,178.995741 63.4942085,174.024827 63.4942085,167.941999 L63.4942085,135.23862 L64.1291506,135.23862 L64.1291506,167.941999 C64.1291506,173.697794 68.7007336,178.341673 74.2247297,178.341673 C79.7487259,178.341673 84.3203089,173.632387 84.3203089,167.941999 L84.955251,167.941999 C85.0187452,174.024827 80.1931853,178.995741 74.2247297,178.995741 Z" id="Shape" fill="#EFF5FA"></path>
                        <rect id="Rectangle-path" fill="url(#linearGradient-2)" x="78.7328185" y="80.2372673" width="43.4935328" height="121.46035"></rect>
                        <path d="M88.5744208,189.753733 C87.3680309,189.753733 86.3521236,188.707225 86.3521236,187.464497 L86.3521236,176.999415 C86.3521236,175.756687 87.3680309,174.710179 88.5744208,174.710179 C89.7808108,174.710179 90.7967181,175.756687 90.7967181,176.999415 L90.7967181,187.464497 C90.7967181,188.772632 89.7808108,189.753733 88.5744208,189.753733 Z" id="Shape" fill="#028090"></path>
                        <path d="M94.9238417,189.753733 C93.7174517,189.753733 92.7015444,188.707225 92.7015444,187.464497 L92.7015444,176.999415 C92.7015444,175.756687 93.7174517,174.710179 94.9238417,174.710179 C96.1302317,174.710179 97.146139,175.756687 97.146139,176.999415 L97.146139,187.464497 C97.146139,188.772632 96.1302317,189.753733 94.9238417,189.753733 Z" id="Shape" fill="#028090"></path>
                        <path d="M101.273263,189.753733 C100.066873,189.753733 99.0509653,188.707225 99.0509653,187.464497 L99.0509653,176.999415 C99.0509653,175.756687 100.066873,174.710179 101.273263,174.710179 C102.479653,174.710179 103.49556,175.756687 103.49556,176.999415 L103.49556,187.464497 C103.49556,188.772632 102.479653,189.753733 101.273263,189.753733 Z" id="Shape" fill="#028090"></path>
                        <ellipse id="Oval" fill="url(#linearGradient-3)" cx="88.320444" cy="176.730795" rx="1.33337838" ry="1.37354192"></ellipse>
                        <ellipse id="Oval" fill="url(#linearGradient-4)" cx="94.6698649" cy="187.083991" rx="1.33337838" ry="1.37354192"></ellipse>
                        <ellipse id="Oval" fill="url(#linearGradient-3)" cx="101.019286" cy="176.730795" rx="1.33337838" ry="1.37354192"></ellipse>
                        <path d="M155.941776,119.00991 L131.433012,119.00991 C131.052046,119.00991 130.798069,118.748283 130.798069,118.355842 L130.798069,100.303577 C130.798069,99.9111364 131.052046,99.6495094 131.433012,99.6495094 L155.941776,99.6495094 C156.322741,99.6495094 156.576718,99.9111364 156.576718,100.303577 L156.576718,118.355842 C156.576718,118.682876 156.259247,119.00991 155.941776,119.00991 Z" id="Shape" fill="#ABFFEF"></path>
                        <rect id="Rectangle-path" fill="#00FFCE" x="132.067954" y="100.943659" width="22.7944208" height="16.482503"></rect>
                        <g id="Group" transform="translate(135.242664, 100.726407)" fill="#ABFFEF">
                            <rect id="Rectangle-path" x="8.2542471" y="0" width="1" height="16.482503"></rect>
                            <rect id="Rectangle-path" x="4.44459459" y="0" width="1" height="16.482503"></rect>
                            <rect id="Rectangle-path" x="0" y="0" width="1" height="16.482503"></rect>
                            <rect id="Rectangle-path" x="12.0638996" y="0" width="1" height="16.482503"></rect>
                            <rect id="Rectangle-path" x="16.5084942" y="0" width="1" height="16.482503"></rect>
                        </g>
                        <g id="Group" transform="translate(132.067954, 104.650813)" fill="#ABFFEF">
                            <rect id="Rectangle-path" x="0" y="3.88244842" width="22.7944208" height="1"></rect>
                            <rect id="Rectangle-path" x="0" y="8.41197157" width="22.7944208" height="1"></rect>
                            <rect id="Rectangle-path" x="0" y="0" width="22.7944208" height="1"></rect>
                        </g>
                        <g id="Group" transform="translate(138.417375, 122.310638)" fill="#6BF9EE">
                            <ellipse id="Oval" cx="1.20638996" cy="1.2427284" rx="1.20638996" ry="1.2427284"></ellipse>
                            <ellipse id="Oval" cx="5.65098456" cy="1.2427284" rx="1.20638996" ry="1.2427284"></ellipse>
                            <ellipse id="Oval" cx="9.46063707" cy="1.2427284" rx="1.20638996" ry="1.2427284"></ellipse>
                        </g>
                        <path d="M200.768687,135.866346 L200.133745,135.866346 L200.133745,111.273405 C200.133745,109.507422 198.736873,108.068474 197.022529,108.068474 L165.719884,108.068474 L165.719884,107.414406 L197.022529,107.414406 C199.117838,107.414406 200.768687,109.180389 200.768687,111.273405 L200.768687,135.866346 Z" id="Shape" fill="#EFF5FA"></path>
                        <path d="M244.26222,161.9587 L205.086293,161.9587 L205.086293,97.082189 C205.086293,95.9702741 205.911718,95.1199862 206.99112,95.1199862 L242.357394,95.1199862 C243.436795,95.1199862 244.26222,95.9702741 244.26222,97.082189 L244.26222,161.9587 Z" id="Shape" fill="url(#linearGradient-5)"></path>
                        <path d="M222.801178,157.894858 L173.974131,157.894858 L173.974131,128.788851 C173.974131,127.676936 174.799556,126.826648 175.878958,126.826648 L220.896351,126.826648 C221.975753,126.826648 222.801178,127.676936 222.801178,128.788851 L222.801178,157.894858 Z" id="Shape" fill="url(#linearGradient-6)"></path>
                        <path d="M223.372625,162.006861 L173.65666,162.006861 C171.751834,162.006861 170.164479,160.371692 170.164479,158.40949 L170.164479,157.886236 L226.864807,157.886236 L226.864807,158.40949 C226.864807,160.371692 225.277452,162.006861 223.372625,162.006861 Z" id="Shape" fill="#F1F5FA"></path>
                        <path d="M202.483031,159.913845 L193.403359,159.913845 C192.51444,159.913845 191.75251,159.128964 191.75251,158.213269 L191.75251,157.886236 L204.13388,157.886236 L204.13388,158.213269 C204.13388,159.194371 203.37195,159.913845 202.483031,159.913845 Z" id="Shape" fill="#CBD6EB"></path>
                        <path d="M188.069846,128.748524 L187.434903,128.748524 L187.434903,104.155583 C187.434903,102.3896 186.038031,100.950652 184.323687,100.950652 L165.719884,100.950652 L165.719884,100.296584 L184.323687,100.296584 C186.418996,100.296584 188.069846,102.062567 188.069846,104.155583 L188.069846,128.748524 Z" id="Shape" fill="#EFF5FA"></path>
                        <rect id="Rectangle-path" fill="#4F6DBA" x="165.719884" y="161.768684" width="87.9394788" height="29.7600749"></rect>
                        <g id="Group" transform="translate(170.164479, 191.641801)" fill="#4F6DBA">
                            <path d="M2.66675676,10.5958948 C1.20638996,10.5958948 9.66338121e-13,9.35316641 9.66338121e-13,7.84881097 L9.66338121e-13,0 L5.33351351,0 L5.33351351,7.84881097 C5.27001931,9.41857317 4.12712355,10.5958948 2.66675676,10.5958948 Z" id="Shape"></path>
                            <path d="M71.875444,10.5958948 C70.4150772,10.5958948 69.2086873,9.35316641 69.2086873,7.84881097 L69.2086873,0 L74.5422008,0 L74.5422008,7.84881097 C74.4787066,9.41857317 73.3358108,10.5958948 71.875444,10.5958948 Z" id="Shape"></path>
                        </g>
                        <g id="Group" transform="translate(227.309266, 170.711639)" fill="#25407C">
                            <path d="M16.3180116,1.43894868 L0.698436293,1.43894868 C0.317471042,1.43894868 0,1.11191489 0,0.719474339 C0,0.32703379 0.317471042,0 0.698436293,0 L16.3180116,0 C16.6989768,0 17.0164479,0.32703379 17.0164479,0.719474339 C16.9529537,1.11191489 16.6989768,1.43894868 16.3180116,1.43894868 Z" id="Shape"></path>
                            <path d="M16.3180116,4.67432236 L0.698436293,4.67432236 C0.317471042,4.67432236 0,4.34728857 0,3.95484802 C0,3.56240747 0.317471042,3.23537368 0.698436293,3.23537368 L16.3180116,3.23537368 C16.6989768,3.23537368 17.0164479,3.56240747 17.0164479,3.95484802 C16.9529537,4.34728857 16.6989768,4.67432236 16.3180116,4.67432236 Z" id="Shape"></path>
                            <path d="M16.3180116,7.90969604 L0.698436293,7.90969604 C0.317471042,7.90969604 0,7.58266225 0,7.1902217 C0,6.79778115 0.317471042,6.47074736 0.698436293,6.47074736 L16.3180116,6.47074736 C16.6989768,6.47074736 17.0164479,6.79778115 17.0164479,7.1902217 C16.9529537,7.58266225 16.6989768,7.90969604 16.3180116,7.90969604 Z" id="Shape"></path>
                            <path d="M16.3180116,11.1450697 L0.698436293,11.1450697 C0.317471042,11.1450697 0,10.8180359 0,10.4255954 C0,10.0331548 0.317471042,9.70612104 0.698436293,9.70612104 L16.3180116,9.70612104 C16.6989768,9.70612104 17.0164479,10.0331548 17.0164479,10.4255954 C16.9529537,10.8180359 16.6989768,11.1450697 16.3180116,11.1450697 Z" id="Shape"></path>
                        </g>
                        <ellipse id="Oval" fill="#00FFCE" cx="235.81749" cy="106.388877" rx="1" ry="1"></ellipse>
                        <ellipse id="Oval" fill="#00FFCE" cx="235.81749" cy="113.506699" rx="1" ry="1"></ellipse>
                        <path d="M155.370328,202.124654 L113.654633,202.124654 L113.654633,167.786106 C113.654633,164.450361 116.257896,161.768684 119.4961,161.768684 L149.465367,161.768684 C152.703571,161.768684 155.306834,164.450361 155.306834,167.786106 L155.306834,202.124654 L155.370328,202.124654 Z" id="Shape" fill="#7FF4EB"></path>
                        <path d="M153.021042,141.620511 L133.909286,141.620511 C132.893378,141.620511 132.067954,140.770223 132.067954,139.723715 C132.067954,138.677207 132.893378,137.826919 133.909286,137.826919 L153.021042,137.826919 C154.03695,137.826919 154.862375,138.677207 154.862375,139.723715 C154.862375,140.770223 154.03695,141.620511 153.021042,141.620511 Z" id="Shape" fill="#028090"></path>
                        <g id="Group" transform="translate(134.607722, 139.970462)">
                            <path d="M18.1593436,0 L3.97903932e-13,0 C2.2222973,0 4.06362934,1.83138923 4.06362934,4.18603252 L4.06362934,17.1365706 C4.06362934,18.6409261 5.2065251,19.8182477 6.66689189,19.8182477 C8.12725869,19.8182477 9.27015444,18.6409261 9.27015444,17.1365706 L9.27015444,13.0159449 C9.27015444,11.1845556 10.7305212,9.6802002 12.5083591,9.6802002 C14.2861969,9.6802002 15.7465637,11.1845556 15.7465637,13.0159449 L15.7465637,17.1365706 L22.222973,17.1365706 L22.222973,4.18603252 C22.1594788,1.83138923 20.3816409,0 18.1593436,0 Z" id="Shape" fill="#EEF5FA"></path>
                            <path d="M33.7022111,13.0418657 C33.7022111,11.2104765 32.2418443,9.70612104 30.4640065,9.70612104 L13.3840644,9.70612104 C12.9396049,9.70612104 12.5586397,10.1639684 12.7491223,10.6218157 L15.6698559,19.713355 C15.6698559,19.7787618 15.7333501,19.8441685 15.7333501,19.9095753 L15.7333501,34.8223162 C15.7333501,35.9996378 16.6857632,36.9807392 17.828659,36.9807392 L33.1307632,36.9807392 C33.5117285,36.9807392 33.8291995,36.6537054 33.8291995,36.2612648 L33.8291995,13.0418657 L33.7022111,13.0418657 C33.7022111,13.0418657 33.7022111,13.0418657 33.7022111,13.0418657 Z" id="Shape" fill="#F8FCFF"></path>
                            <path d="M12.190888,9.70612104 C10.4130502,9.70612104 8.9526834,11.2104765 8.9526834,13.0418657 L8.9526834,17.1624915 C8.9526834,18.6668469 7.80978764,19.8441685 6.34942085,19.8441685 L15.4925869,19.8441685 L15.4925869,17.1624915 L15.4925869,13.0418657 C15.4925869,11.2104765 14.0322201,9.70612104 12.190888,9.70612104 Z" id="Shape" fill="#CBD6EB"></path>
                        </g>
                        <path d="M153.973456,175.357254 C153.973456,176.272948 153.275019,176.992422 152.3861,176.992422 L171.180386,176.992422 C172.069305,176.992422 172.767741,176.272948 172.767741,175.357254 L153.973456,175.357254 Z" id="Shape" fill="#CBD6EB"></path>
                        <path d="M87.8373994,113.469442 L88.2818589,110.264511 C88.2818589,110.199104 88.2183647,110.068291 88.1548705,110.068291 L85.869079,109.545037 C85.7420906,109.545037 85.6785963,109.348817 85.7420906,109.28341 L89.1707778,104.247089 C89.2977662,104.116276 89.4882489,104.181683 89.4882489,104.377903 L88.8533068,107.517427 C88.8533068,107.648241 88.916801,107.713648 88.9802952,107.713648 L91.2025925,108.040681 C91.3295809,108.040681 91.3930751,108.171495 91.3295809,108.302308 L88.1548705,113.600256 C88.0278821,113.731069 87.7739052,113.600256 87.8373994,113.469442 Z" id="Shape" fill="#FFE259"></path>
                        <polygon id="Shape" fill="#2C4684" points="175.434498 191.534122 170.164479 194.477426 170.164479 191.534122"></polygon>
                        <polygon id="Shape" fill="#2C4684" points="244.643185 191.534122 239.373166 194.477426 239.373166 191.534122"></polygon>
                        <g id="Group" transform="translate(120.004054, 180.522652)" fill="#4F6DBA">
                            <ellipse id="Oval" cx="1.20638996" cy="1.2427284" rx="1.20638996" ry="1.2427284"></ellipse>
                            <ellipse id="Oval" cx="5.01604247" cy="1.2427284" rx="1.20638996" ry="1.2427284"></ellipse>
                            <ellipse id="Oval" cx="8.82569498" cy="1.2427284" rx="1.20638996" ry="1.2427284"></ellipse>
                        </g>
                        <path d="M204.13388,43.2112587 C203.943398,43.2112587 203.816409,43.0804451 203.816409,42.8842249 L203.816409,32.6807706 C203.816409,32.4845503 203.943398,32.3537368 204.13388,32.3537368 C204.324363,32.3537368 204.451351,32.4845503 204.451351,32.6807706 L204.451351,42.8842249 C204.451351,43.0804451 204.324363,43.2112587 204.13388,43.2112587 Z" id="Shape" fill="#3DD7EC"></path>
                        <path d="M224.64251,81.76176 L184.768147,81.76176 C184.06971,81.76176 183.498263,81.1730992 183.498263,80.4536249 L183.498263,43.367993 C183.498263,42.6485187 184.06971,42.0598579 184.768147,42.0598579 L224.64251,42.0598579 C225.340946,42.0598579 225.912394,42.6485187 225.912394,43.367993 L225.912394,80.4536249 C225.912394,81.1730992 225.340946,81.76176 224.64251,81.76176 Z" id="Shape" fill="#736CED"></path>
                        <rect id="Rectangle-path" fill="#63ECF7" x="187.307915" y="45.2952315" width="34.6678378" height="21.2571964"></rect>
                        <g id="Group" transform="translate(187.307915, 73.255569)" fill="#00FFCE">
                            <ellipse id="Oval" cx="0.888918919" cy="0.915694613" rx="1" ry="1"></ellipse>
                            <ellipse id="Oval" cx="7.23833977" cy="0.915694613" rx="1" ry="1"></ellipse>
                        </g>
                        <g id="Group" transform="translate(193.022394, 51.017271)" fill="#CCFFF5">
                            <path d="M12.5083591,1.43894868 L0.698436293,1.43894868 C0.317471042,1.43894868 0,1.11191489 0,0.719474339 C0,0.32703379 0.317471042,0 0.698436293,0 L12.5083591,0 C12.8893243,0 13.2067954,0.32703379 13.2067954,0.719474339 C13.2067954,1.11191489 12.8893243,1.43894868 12.5083591,1.43894868 Z" id="Shape"></path>
                            <path d="M22.0324903,1.43894868 L15.9370463,1.43894868 C15.5560811,1.43894868 15.23861,1.11191489 15.23861,0.719474339 C15.23861,0.32703379 15.5560811,0 15.9370463,0 L22.0324903,0 C22.4134556,0 22.7309266,0.32703379 22.7309266,0.719474339 C22.7309266,1.11191489 22.4134556,1.43894868 22.0324903,1.43894868 Z" id="Shape"></path>
                            <path d="M9.58762548,3.88244842 L22.0324903,3.88244842 C22.4134556,3.88244842 22.7309266,4.20948221 22.7309266,4.60192276 C22.7309266,4.99436331 22.4134556,5.3213971 22.0324903,5.3213971 L9.58762548,5.3213971 C9.20666023,5.3213971 8.88918919,4.99436331 8.88918919,4.60192276 C8.88918919,4.20948221 9.20666023,3.88244842 9.58762548,3.88244842 Z" id="Shape"></path>
                            <path d="M0.698436293,7.76489683 L22.0324903,7.76489683 C22.4134556,7.76489683 22.7309266,8.09193063 22.7309266,8.48437117 C22.7309266,8.87681172 22.4134556,9.20384551 22.0324903,9.20384551 L0.698436293,9.20384551 C0.317471042,9.20384551 0,8.87681172 0,8.48437117 C0,8.09193063 0.317471042,7.76489683 0.698436293,7.76489683 Z" id="Shape"></path>
                            <path d="M0.698436293,3.88244842 L6.15893822,3.88244842 C6.53990347,3.88244842 6.85737452,4.20948221 6.85737452,4.60192276 C6.85737452,4.99436331 6.53990347,5.3213971 6.15893822,5.3213971 L0.698436293,5.3213971 C0.317471042,5.3213971 0,4.99436331 0,4.60192276 C0,4.20948221 0.317471042,3.88244842 0.698436293,3.88244842 Z" id="Shape"></path>
                        </g>
                    </g>
                </g>
            </g>
        </g>
    </g>
</svg>