<?xml version="1.0" encoding="UTF-8"?>
<svg width="81px" height="72px" viewBox="0 0 81 72" version="1.1" xmlns="http://www.w3.org/2000/svg" xmlns:xlink="http://www.w3.org/1999/xlink">
    <!-- Generator: Sketch 48.1 (47250) - http://www.bohemiancoding.com/sketch -->
    <title>Group</title>
    <desc>Created with Sketch.</desc>
    <defs>
        <linearGradient x1="-0.0454545455%" y1="49.9762313%" x2="100.005682%" y2="49.9762313%" id="linearGradient-1">
            <stop stop-color="#FFB94A" offset="0%"></stop>
            <stop stop-color="#FFBF4D" offset="100%"></stop>
        </linearGradient>
    </defs>
    <g id="Page-1" stroke="none" stroke-width="1" fill="none" fill-rule="evenodd">
        <g id="Group">
            <g transform="translate(6.000000, 20.000000)">
                <g transform="translate(0.000000, 1.000000)"></g>
            </g>
            <g id="Group-4" fill-rule="nonzero">
                <path d="M71.5,24.5 L71.5,66.8 C71.5,69.2 73.5,71.2 75.9,71.2 C78.3,71.2 80.3,69.2 80.3,66.8 L80.3,24.5 L71.5,24.5 Z" id="Shape" fill="url(#linearGradient-1)"></path>
                <rect id="Rectangle-path" fill="#5AEDF9" x="14" y="10.9" width="64.4" height="48.7"></rect>
                <rect id="Rectangle-path" fill="#7EBCFF" x="11" y="7.9" width="64.4" height="48.7"></rect>
                <path d="M71.5,66.8 L71.5,24.5 L71.5,21.2 C71.5,19.6 70.2,18.3 68.6,18.3 L29.7,18.3 L26.6,14.9 C26.1,13.8 25.1,13.1 23.9,13.1 L3.8,13.1 C2.2,13.1 0.9,14.4 0.9,16 L0.9,18.2 L0.9,66.2 C0.9,68.9 3.1,71.1 5.8,71.1 L76,71.1 C73.5,71.2 71.5,69.2 71.5,66.8 Z" id="Shape" fill="#FFE259"></path>
                <polygon id="Shape" fill="#FFCB4A" points="71.5 66.8 71.5 24.5"></polygon>
                <path d="M49.2,46.3 C49,43.4 46.5,41.1 43.6,41.1 C43,41.1 42.5,41.2 41.9,41.4 C41.7,41.5 41.5,41.6 41.3,41.7 C39.9,39 37,37.1 33.7,37.1 C29.3,37.1 25.7,40.4 25.2,44.6 C21.7,45.1 19,48.2 19,51.8 C19,55.8 22.3,59.1 26.3,59.1 L30.1,59.1 L30.1,56.8 L26.3,56.8 C23.6,56.8 21.4,54.6 21.4,51.9 C21.4,49.2 23.6,47 26.3,47 L27.5,47 L27.5,45.8 C27.5,42.4 30.3,39.6 33.7,39.6 C37.1,39.6 39.9,42.4 39.9,45.8 L39.9,49.9 L38.1,49.9 L41.1,53.4 L44.1,49.9 L42.3,49.9 L42.3,45.8 C42.3,45.2 42.2,44.6 42.1,44.1 C42.3,44 42.5,43.9 42.6,43.9 C42.9,43.8 43.3,43.7 43.6,43.7 C45.4,43.7 46.9,45.2 46.9,47 C46.9,47.1 46.9,47.2 46.9,47.3 L46.8,48.3 L47.8,48.5 C49.7,49 51,50.6 51,52.6 C51,54.9 49.1,56.8 46.8,56.8 L38.1,56.8 C35.8,56.8 33.9,54.9 33.9,52.6 L33.9,49.9 L35.7,49.9 L32.7,46.4 L29.7,49.9 L31.5,49.9 L31.5,52.6 C31.5,56.2 34.4,59.2 38.1,59.2 L46.8,59.2 C50.4,59.2 53.4,56.3 53.4,52.6 C53.4,49.7 51.7,47.3 49.2,46.3 Z" id="Shape" fill="#FFB94A"></path>
                <path d="M9.1,27.4 C9,27.4 8.8,27.4 8.8,27.3 L6.3,24.9 C6.2,24.8 6.1,24.7 6.1,24.5 C6.1,24.4 6.2,24.2 6.3,24.1 L8.8,21.7 C9,21.5 9.3,21.5 9.5,21.7 C9.7,21.9 9.7,22.2 9.5,22.4 L7.4,24.5 L9.5,26.6 C9.7,26.8 9.7,27.1 9.5,27.3 C9.3,27.4 9.2,27.4 9.1,27.4 Z" id="Shape" fill="#FFFFFF"></path>
                <path d="M16.9,27.4 C16.8,27.4 16.6,27.3 16.5,27.2 C16.3,27 16.3,26.7 16.5,26.5 L18.6,24.4 L16.5,22.3 C16.3,22.1 16.3,21.8 16.5,21.6 C16.7,21.4 17,21.4 17.2,21.6 L19.7,24 C19.8,24.1 19.9,24.2 19.9,24.4 C19.9,24.5 19.8,24.7 19.7,24.8 L17.2,27.2 C17.1,27.4 17,27.4 16.9,27.4 Z" id="Shape" fill="#FFFFFF"></path>
                <path d="M11.7,28.7 C11.6,28.7 11.6,28.7 11.5,28.7 C11.2,28.6 11.1,28.3 11.2,28.1 L13.7,20.8 C13.8,20.5 14.1,20.4 14.3,20.5 C14.6,20.6 14.7,20.9 14.6,21.1 L12.1,28.4 C12.1,28.5 11.9,28.7 11.7,28.7 Z" id="Shape" fill="#FFFFFF"></path>
                <path d="M65,7.6 C65,3.7 61.9,0.6 58,0.6 C54.1,0.6 51,3.7 51,7.6 L51,18.2 L53,18.2 L53,7.6 C53,4.8 55.2,2.6 58,2.6 C60.8,2.6 63,4.8 63,7.6 L63,29.2 C63,29.2 63,29.2 63,29.2 C63,29.2 63,29.2 63,29.2 C63,30.3 62.1,31.2 61,31.2 C59.9,31.2 59,30.3 59,29.2 L59,9.2 C59,8.6 58.6,8.2 58,8.2 C57.4,8.2 57,8.6 57,9.2 L57,29.2 C57,31.4 58.8,33.2 61,33.2 C63.2,33.2 65,31.4 65,29.2 C65,29.2 65,29.2 65,29.2 C65,29.2 65,29.2 65,29.2 L65,7.6 Z" id="Shape" fill="#0870E5"></path>
            </g>
        </g>
    </g>
</svg>