<svg xmlns="http://www.w3.org/2000/svg" width="514" height="350" viewBox="0 0 514 350">
  <defs>
    <linearGradient id="resource-level-lock---illustration-a" x1="20.716%" x2="94.592%" y1="32.087%" y2="94.879%">
      <stop offset="0%" stop-color="#FBF9F9" stop-opacity="0"/>
      <stop offset="19.4%" stop-color="#F2F4F7" stop-opacity=".194"/>
      <stop offset="58.84%" stop-color="#E7EEF5" stop-opacity=".588"/>
      <stop offset="100%" stop-color="#E3ECF4"/>
    </linearGradient>
    <linearGradient id="resource-level-lock---illustration-b" x1="9.965%" x2="94.577%" y1="26.231%" y2="94.832%">
      <stop offset="0%" stop-color="#FBF9F9" stop-opacity="0"/>
      <stop offset="19.4%" stop-color="#F2F4F7" stop-opacity=".194"/>
      <stop offset="58.84%" stop-color="#E7EEF5" stop-opacity=".588"/>
      <stop offset="100%" stop-color="#E3ECF4"/>
    </linearGradient>
    <linearGradient id="resource-level-lock---illustration-c" x1="21.378%" x2="82.167%" y1="36.246%" y2="65.175%">
      <stop offset="0%" stop-color="#FFF"/>
      <stop offset="34.67%" stop-color="#FCFDFE"/>
      <stop offset="65.11%" stop-color="#F1F8FC"/>
      <stop offset="93.86%" stop-color="#DFEFF9"/>
      <stop offset="100%" stop-color="#DAECF8"/>
    </linearGradient>
    <linearGradient id="resource-level-lock---illustration-d" x1="27.25%" x2="80.627%" y1="93.813%" y2="-5.766%">
      <stop offset="0%" stop-color="#FBF9F9" stop-opacity="0"/>
      <stop offset="14.77%" stop-color="#F1F6F9" stop-opacity=".148"/>
      <stop offset="39.98%" stop-color="#D6EEFB" stop-opacity=".4"/>
      <stop offset="72.34%" stop-color="#AAE1FD" stop-opacity=".723"/>
      <stop offset="100%" stop-color="#7FD4FF"/>
    </linearGradient>
    <linearGradient id="resource-level-lock---illustration-e" x1="98.651%" x2=".901%" y1="49.78%" y2="50.2%">
      <stop offset="0%" stop-color="#7FB2FF"/>
      <stop offset="39.57%" stop-color="#7FBCFF"/>
      <stop offset="100%" stop-color="#7FD4FF"/>
    </linearGradient>
    <linearGradient id="resource-level-lock---illustration-f" x1="50.025%" x2="50.025%" y1="91.638%" y2="14.58%">
      <stop offset="0%" stop-color="#FFE255"/>
      <stop offset="100%" stop-color="#FBF9F9" stop-opacity="0"/>
    </linearGradient>
    <linearGradient id="resource-level-lock---illustration-g" x1="50.025%" x2="50.025%" y1="84.624%" y2="6.048%">
      <stop offset="0%" stop-color="#FFA300"/>
      <stop offset="100%" stop-color="#FFD254"/>
    </linearGradient>
    <linearGradient id="resource-level-lock---illustration-h" x1="13.693%" x2="79.79%" y1="78.71%" y2="26.624%">
      <stop offset="0%" stop-color="#FFAE14"/>
      <stop offset="100%" stop-color="#FFE255"/>
    </linearGradient>
    <linearGradient id="resource-level-lock---illustration-i" x1="-.009%" x2="99.962%" y1="50.009%" y2="50.009%">
      <stop offset="0%" stop-color="#7FB2FF"/>
      <stop offset="39.57%" stop-color="#7FBCFF"/>
      <stop offset="100%" stop-color="#7FD4FF"/>
    </linearGradient>
    <linearGradient id="resource-level-lock---illustration-j" x1="23.792%" x2="76.254%" y1="-19.672%" y2="93.368%">
      <stop offset="0%" stop-color="#3DD7EC"/>
      <stop offset="26.69%" stop-color="#42CDED"/>
      <stop offset="72.1%" stop-color="#4FB2F0"/>
      <stop offset="100%" stop-color="#589EF2"/>
    </linearGradient>
    <linearGradient id="resource-level-lock---illustration-k" x1="50.618%" x2="49.644%" y1="15.103%" y2="72.447%">
      <stop offset="66.12%" stop-color="#FBF9F9"/>
      <stop offset="100%" stop-color="#FBF9F9" stop-opacity="0"/>
    </linearGradient>
    <linearGradient id="resource-level-lock---illustration-l" x1="30.625%" x2="56.308%" y1="75.588%" y2="32.206%">
      <stop offset="0%" stop-color="#7FB2FF"/>
      <stop offset="39.57%" stop-color="#7FBCFF"/>
      <stop offset="100%" stop-color="#7FD4FF"/>
    </linearGradient>
    <linearGradient id="resource-level-lock---illustration-m" x1="45.52%" x2="84.903%" y1="48.588%" y2="61.374%">
      <stop offset="0%" stop-color="#FFF"/>
      <stop offset="34.67%" stop-color="#FCFDFE"/>
      <stop offset="65.11%" stop-color="#F1F8FC"/>
      <stop offset="93.86%" stop-color="#DFEFF9"/>
      <stop offset="100%" stop-color="#DAECF8"/>
    </linearGradient>
  </defs>
  <g fill="none" fill-rule="evenodd" transform="translate(-8 -28)">
    <path fill="url(#resource-level-lock---illustration-a)" fill-rule="nonzero" d="M182.9,261.6 L188.8,258 C188.7,257.9 188.7,257.8 188.7,257.7 C188.5,257.1 188.4,256.6 188.3,256 C188.1,255.7 187.9,255.4 187.7,255 C186.6,253.4 185.8,251.5 185.3,249.6 C185.2,249.3 185.3,249 185.4,248.8 L117.2,209 L115.7,209.9 L81.6,190 L63.4,203.8 C63.5,203.9 63.5,204 63.5,204.1 C63.7,204.7 63.8,205.2 63.9,205.8 C64.1,206.1 64.3,206.4 64.5,206.8 C65.6,208.4 66.4,210.3 66.9,212.2 C67,212.5 66.9,212.8 66.8,213 L80.2,220.8 L71.2,226.3 L148.9,271.5 L156.3,267 C156.1,266.5 156.3,265.9 156.7,265.6 C156.8,265.5 157,265.4 157.1,265.3 C157.1,265.3 157.1,265.2 157.1,265.2 C156,264.1 155.3,262.6 154.3,261.4 C154.1,261.2 154,260.8 154.1,260.5 L125.2,239.8 C120.9,237.4 119.6,234.8 121.3,232.7 C122,232.1 123.1,232 123.9,232.6 C124.6,233.1 125.4,233.8 126.6,234.4 L182.9,261.6 Z"/>
    <path fill="#1B2760" fill-rule="nonzero" d="M177.1,257.3 C177.1,257.3 178.5,263.3 181.3,262.9 C184.2,262.5 182.3,261.5 183.5,261.4 C184.7,261.3 185.3,262 189,262.4 C192.6,262.8 195.4,263.4 197.5,262.4 C198.8,261.8 194.4,259.1 191.2,256.4 C189.2,254.7 188,252.6 188,252.6 L182.2,253.1 L177.1,257.3 Z"/>
    <path fill="url(#resource-level-lock---illustration-b)" fill-rule="nonzero" d="M120.4,354.2 L126.3,350.6 C126.2,350.5 126.2,350.4 126.2,350.3 C126,349.7 125.9,349.2 125.8,348.6 C125.6,348.3 125.4,348 125.2,347.6 C124.1,346 123.3,344.1 122.8,342.2 C122.7,341.9 122.8,341.6 122.9,341.4 L54.8,301.5 L53.3,302.4 L19,282.7 L0.8,296.5 C0.9,296.6 0.9,296.7 0.9,296.8 C1.1,297.4 1.2,297.9 1.3,298.5 C1.5,298.8 1.7,299.1 1.9,299.5 C3,301.1 3.8,303 4.3,304.9 C4.4,305.2 4.3,305.5 4.2,305.7 L17.6,313.5 L8.6,319 L86.3,364.2 L93.7,359.7 C93.5,359.2 93.7,358.6 94.1,358.3 C94.2,358.2 94.4,358.1 94.5,358 C94.5,358 94.5,357.9 94.5,357.9 C93.4,356.8 92.7,355.3 91.7,354.1 C91.5,353.9 91.4,353.5 91.5,353.2 L62.6,332.5 C58.3,330.1 57,327.5 58.7,325.4 C59.4,324.8 60.5,324.7 61.3,325.3 C62,325.8 62.8,326.5 64,327.1 L120.4,354.2 Z"/>
    <path fill="#1B2760" fill-rule="nonzero" d="M149.3,271.5 C149.3,271.5 151.9,276.1 156.5,277.5 C161,278.9 166.3,279 166,277.8 C165.8,276.6 159.4,269.7 159.2,265.2 L149.3,271.5 Z"/>
    <path fill="#F3B2DE" fill-rule="nonzero" d="M147.1,264.9 C146.5,263.3 146.1,258.7 145.5,256.9 C144.9,255 144.7,245.2 144.8,243.4 C145.1,239.8 144.8,222.6 144.8,222.6 C144.8,222.6 146,180.2 145.9,174.8 C145.7,169.4 146.5,157 146.5,157 L185.4,140 C185.4,140 186.9,150.7 188.4,153 C190,155.5 189.1,184.1 189.7,198.7 C190.2,210.4 188.8,235.2 190.6,243.3 L189.4,253.1 C189.4,253.1 189.4,253.1 186.4,252.9 C183.4,252.7 177.1,257.2 177.1,257.2 L177,253.7 C177,253.7 177.4,249.6 176,246.7 C174.6,243.8 175.1,242.7 173.9,240 C172.7,237.3 173.4,221.7 173.3,218.7 C173.2,215.7 170.1,202.6 170.1,202.6 C170.1,202.6 165.3,224.3 164.4,229.5 C163.5,234.7 161.2,241.7 161.9,244.1 C162.5,246.5 160.8,252 160.6,254.7 L160.2,267.4 C160.2,267.4 151,269.7 149.4,271.5 C147.8,273.3 147.1,264.9 147.1,264.9 Z"/>
    <path fill="#D486C0" fill-rule="nonzero" d="M146.5,157 C146.5,157 149.4,159.8 152.6,159.5 C155.8,159.2 171,152.9 173.1,153.6 C175.2,154.4 179.8,154.5 179.8,154.5 L185.5,156.5 L189.1,156 L187.5,148.1 L180.3,146.3 L146.5,157 Z"/>
    <path fill="#1D2630" fill-rule="nonzero" d="M187.4,148.2 C190.8,145.8 199.1,124.4 199.1,124.4 C199.1,124.4 193.1,107.9 192.8,104.4 C192.5,101 191.7,91.7 187.6,87.5 C183.5,83.3 179.6,83 176.7,83.6 C173.8,84.2 155.2,89.2 155.2,89.2 C155.2,89.2 141.2,97.1 139,102.6 C136.8,108.1 128.8,133.6 130.8,138.8 C131.8,141.4 133.5,144.6 135.7,147.2 C137.9,149.8 141.8,150.3 144.6,150.4 C144.6,150.4 146.4,150.9 145.5,152.4 C145.5,152.4 143,155.9 146.4,157.1 C149.8,158.4 161.9,152.3 167.6,152 C173.3,151.7 178.2,150.2 179.7,149.9 C181.4,149.4 187.4,148.2 187.4,148.2 Z"/>
    <polygon fill="#090C0F" fill-rule="nonzero" points="151.7 91.6 158.2 95.6 155.3 89.2"/>
    <path fill="#303A44" fill-rule="nonzero" d="M156.9,85.1 C156.9,85.1 154.9,88.2 155.3,89.2 C155.7,90.3 155.6,95.1 159.3,96.1 C163,97.1 169.9,97.4 171.1,93.8 C172.3,90.2 170.9,88.1 170.9,88.1 L156.9,85.1 Z"/>
    <path fill="#FFC8C1" fill-rule="nonzero" d="M151.2,79.8 C151.2,79.8 146.8,79.5 146.8,76.9 C146.7,74.3 145.8,71.3 150.9,72.9 C156,74.5 151.9,64.8 151.9,64.8 L166.6,61.2 C166.6,61.2 174.7,58.8 176.1,63.1 C177.5,67.4 177.9,81.8 174.1,85.4 C171.6,87.8 165.9,91.3 160,88.8 C157,87.7 154.4,84 151.2,79.8 Z"/>
    <path fill="#DA1F38" fill-rule="nonzero" d="M165.4,47.8 C162.6,48 159.9,48.1 157.3,49.3 C156.6,49.6 156,49.9 155.3,50.3 C153.4,52 151.8,54.2 150.6,56.2 C148.6,59.6 147.7,63.5 148.3,67.4 C148.5,69.2 149.1,71 149.9,72.6 L151.8,76.6 C154.1,78.3 153.3,73.9 153.3,73.9 C153.3,73.9 152.5,64.9 161.6,66.2 C170.7,67.5 176.8,63.2 177.7,61.5 C178.5,59.8 177.2,57.6 177.2,57.6 L179.6,55.4 C180.7,51.2 172.5,48.4 165.4,47.8 Z"/>
    <path fill="#090C0F" fill-rule="nonzero" d="M187.2,109.3 L193,119.7 L190.1,129.3 C190.1,129.2 185.5,129.5 187.2,109.3 Z"/>
    <path fill="url(#resource-level-lock---illustration-c)" fill-rule="nonzero" d="M207.2,142.3 L185.6,152.1 C184.8,152.5 183.8,151.8 184,150.9 L189.9,122.4 C190,121.5 190.6,120.8 191.4,120.4 L213,110.6 C213.8,110.2 214.8,110.9 214.6,111.8 L208.7,140.3 C208.6,141.2 208,141.9 207.2,142.3 Z"/>
    <path fill="#FFC8C1" fill-rule="nonzero" d="M175.3,137 C175.3,137 178.8,135.1 179.8,134.4 C180.8,133.7 184.3,132.1 185.7,131.8 C187.1,131.5 188.1,131.7 188.1,131.7 L187.6,134.1 L186.3,135.1 C186.3,135.1 192.9,136 194.3,136.4 C195.7,136.8 196,138.2 195.4,138.8 C194.8,139.4 192.5,143 192.5,143 C192.5,143 190.5,144 188.4,144.6 C186.3,145.3 175.5,143.8 175.5,143.8 L175.3,137 Z"/>
    <polygon fill="#303A44" fill-rule="nonzero" points="168.3 136.1 175.3 137 175.4 144.8 167.9 145.5"/>
    <path fill="#FFC8C1" fill-rule="nonzero" d="M213.5,129.7 L213.6,131.9 C213.3,132.9 213.3,133.2 212.9,134.9 C212.5,136.6 208.6,137.1 208.6,137.1 L206.5,135.8 C206.5,135.8 205.5,134.2 205.3,133.4 C205.1,132.6 206.5,131.3 206.5,131.3 C206.5,131.3 206.8,129.7 207.4,128.1 C207.4,128.1 211.7,125.9 212.7,125.9 C213.7,125.9 214.7,126.4 214.3,127 C213.9,127.5 213.5,129.7 213.5,129.7 Z"/>
    <g fill-rule="nonzero" transform="translate(77)">
      <path fill="url(#resource-level-lock---illustration-d)" d="M232,130.4 L0.3,265.9 L69.1,310 C81.6,302.4 93.1,293.4 105.1,285 C112,280.2 119.1,275.5 126.7,271.8 C128.3,271 130,270.2 131.6,269.5 C137.3,265.6 143.1,261.9 149.4,259 C153.4,257.1 157.2,255.9 161.2,255.6 C161.5,255.4 161.8,255.1 162.2,254.9 C164.7,250.4 168.6,246.3 172.8,243.9 C174.8,242.7 176.9,241.9 179,241.3 C181.5,239.1 184.4,237.2 187.2,236.1 C188.6,235.2 190,234.4 191.5,233.7 C192.8,232.9 194,232.2 195.3,231.5 C197.3,230.4 199.3,229.6 201.3,229 C202.4,227.3 203.6,225.7 205,224.1 C205.7,223.2 206.4,222.4 207.2,221.5 C214.1,212.2 220.5,202.2 228.7,194 C240.9,181.9 255.7,175.4 272.7,173.8 C285.9,172.5 298.5,175.1 310.6,179.7 L232,130.4 Z"/>
      <path fill="url(#resource-level-lock---illustration-e)" d="M379.3,328 L233.9,244 C231.2,242.5 229.6,239.6 229.6,236.6 L229.6,133.9 C229.6,131.3 232.5,129.6 234.8,130.9 L380.2,214.9 C382.9,216.4 384.5,219.3 384.5,222.3 L384.5,325 C384.4,327.6 381.6,329.3 379.3,328 Z"/>
      <polygon fill="url(#resource-level-lock---illustration-f)" points="251.8 153.2 251.8 .4 330 45.2 330 193.1"/>
      <g transform="translate(251 99)">
        <path fill="url(#resource-level-lock---illustration-g)" d="M5.1,109.4 L55.9,139 C60.2,141.5 63.5,140.4 67.8,138 L74.7,134 C77.4,132.5 79,129.6 79,126.6 L79,75.4 C79,72.3 77.4,69.5 74.7,68 L23.4,37.9 C22.3,37.3 21,37.3 19.9,37.9 L5,46.8 C2.4,48.4 0.8,51.2 0.8,54.2 L0.8,102 C0.8,105.1 2.5,107.9 5.1,109.4 Z"/>
        <path fill="#FFE255" d="M57.8,75.8 C55,75.8 52.8,73.6 52.8,70.8 C52.8,65.2 52.9,60.1 52.9,55.5 C53.2,33.8 53.3,21.8 46.9,15.4 C46.1,14.6 42.4,11.7 41.3,11.2 C37.7,9.4 33.4,9.6 29.9,11.8 C26.7,13.8 24.9,17 24.9,20.6 L24.9,49.4 C24.9,52.2 22.7,54.4 19.9,54.4 C17.1,54.4 14.9,52.2 14.9,49.4 L14.9,20.6 C14.9,13.6 18.6,7.1 24.7,3.3 C31.2,-0.7 39.1,-1.1 45.8,2.3 C48.2,3.5 52.8,7.2 54,8.4 C63.4,17.8 63.2,32 62.9,55.7 C62.8,60.2 62.8,65.4 62.8,70.9 C62.8,73.6 60.6,75.8 57.8,75.8 Z"/>
        <path fill="url(#resource-level-lock---illustration-h)" d="M31.4,84.9 C26.7,82.2 22.9,84.4 22.8,89.8 C22.8,95.2 26.6,101.8 31.3,104.5 C36,107.2 39.8,105 39.9,99.6 C39.9,94.2 36.1,87.6 31.4,84.9"/>
      </g>
      <path fill="url(#resource-level-lock---illustration-i)" d="M346,347.9 L200.6,263.9 C197.9,262.4 196.3,259.5 196.3,256.5 L196.3,153.8 C196.3,151.2 199.2,149.5 201.5,150.8 L346.9,234.8 C349.6,236.3 351.2,239.2 351.2,242.2 L351.2,344.8 C351.1,347.6 348.3,349.3 346,347.9 Z"/>
      <g transform="translate(203 166)">
        <path fill="#FF3A61" d="M3,0.5 C1.5,-0.4 0.2,0.3 0.2,2.1 C0.2,3.9 1.4,6 3,6.9 C4.5,7.8 5.8,7.1 5.8,5.3 C5.8,3.6 4.5,1.4 3,0.5"/>
        <path fill="#FFF255" d="M11.8,6 C10.3,5.1 9,5.8 9,7.6 C9,9.4 10.2,11.5 11.8,12.4 C13.3,13.3 14.6,12.6 14.6,10.8 C14.6,9 13.3,6.9 11.8,6"/>
        <path fill="#38EFF4" d="M20.6,11.4 C19.1,10.5 17.8,11.2 17.8,13 C17.8,14.8 19,16.9 20.6,17.8 C22.1,18.7 23.4,18 23.4,16.2 C23.4,14.5 22.2,12.3 20.6,11.4"/>
      </g>
      <path fill="url(#resource-level-lock---illustration-j)" d="M281,363.5 C279.7,363.5 278.5,363.2 277.3,362.5 L125.9,276 C124.9,275.4 124.4,274.5 124.3,273.3 C124.3,272.2 124.9,271.2 125.8,270.6 L195.9,229.9 C196.1,229.8 196.4,229.8 196.6,230.1 C196.7,230.3 196.7,230.6 196.4,230.8 L126.3,271.5 C125.6,271.9 125.3,272.6 125.3,273.3 C125.3,274.1 125.7,274.7 126.3,275.1 L277.7,361.6 C279.7,362.7 282.2,362.7 284.1,361.5 L410.2,286.7 C410.8,286.3 411.2,285.6 411.2,284.9 C411.2,284.2 410.8,283.5 410.2,283.1 L384.2,268 C384,267.9 383.9,267.6 384,267.3 C384.1,267 384.4,267 384.7,267.1 L410.8,282.2 C411.8,282.8 412.3,283.7 412.3,284.8 C412.3,285.9 411.7,286.9 410.8,287.5 L284.7,362.3 C283.6,363.1 282.3,363.5 281,363.5 Z"/>
      <polygon fill="url(#resource-level-lock---illustration-k)" points="251.8 293.5 251.8 180 330 224.7 330 338.7" opacity=".1"/>
      <path fill="url(#resource-level-lock---illustration-l)" d="M256.1,230 L306.9,259.6 C311.2,262.1 314.5,261 318.8,258.6 L325.7,254.6 C328.4,253.1 330,250.2 330,247.2 L330,225.2 L290.2,202.2 C288.9,204.9 285.9,205.6 282.4,203.6 C278.9,201.6 275.9,197.4 274.6,193.2 L251.8,180 L251.8,222.5 C251.8,225.6 253.5,228.4 256.1,230 Z"/>
      <path fill="#CAE2FF" d="M282.4,203.5 C285.9,205.5 288.9,204.8 290.2,202.1 L274.6,193.1 C275.9,197.3 278.9,201.5 282.4,203.5 Z"/>
      <g transform="translate(179 177)">
        <path fill="#FFF" d="M71.9,41.2 L2.2,1 C1.3,0.5 0.6,0.9 0.6,1.9 C0.6,2.9 1.3,4.2 2.2,4.7 L71.9,44.9 C72.8,45.4 73.5,45 73.5,44 C73.5,43 72.8,41.7 71.9,41.2"/>
        <path fill="#CFEFFF" d="M109.1,62.7 L82.2,47.1 C81.3,46.6 80.6,47 80.6,48 C80.6,49 81.3,50.3 82.2,50.8 L109.1,66.4 C110,66.9 110.7,66.5 110.7,65.5 C110.7,64.5 110,63.2 109.1,62.7"/>
        <path fill="#FFF" d="M47.5,41.1 L2.2,15 C1.3,14.5 0.6,14.9 0.6,15.9 C0.6,16.9 1.3,18.2 2.2,18.7 L47.5,44.8 C48.4,45.3 49.1,44.9 49.1,43.9 C49.1,42.9 48.4,41.6 47.5,41.1"/>
        <path fill="#CFEFFF" d="M109.1 76.7L57.7 47C56.8 46.5 56.1 46.9 56.1 47.9 56.1 48.9 56.8 50.2 57.7 50.7L109.1 80.4C110 80.9 110.7 80.5 110.7 79.5 110.7 78.5 110 77.2 109.1 76.7M65.7 65.7L38.8 50.1C37.9 49.6 37.2 50 37.2 51 37.2 52 37.9 53.3 38.8 53.8L65.7 69.4C66.6 69.9 67.3 69.5 67.3 68.5 67.3 67.5 66.6 66.2 65.7 65.7"/>
        <path fill="#FFF" d="M28.2,44 L2.2,29 C1.3,28.5 0.6,28.9 0.6,29.9 C0.6,30.9 1.3,32.2 2.2,32.7 L28.2,47.7 C29.1,48.2 29.8,47.8 29.8,46.8 C29.8,45.8 29.1,44.6 28.2,44"/>
        <path fill="#CFEFFF" d="M109.1,90.7 L76.1,71.6 C75.2,71.1 74.5,71.5 74.5,72.5 C74.5,73.5 75.2,74.8 76.1,75.3 L109.1,94.4 C110,94.9 110.7,94.5 110.7,93.5 C110.7,92.5 110,91.2 109.1,90.7"/>
      </g>
      <path fill="#FF3A61" d="M441.1,170.8 L403.1,148.8 C401.4,147.8 400,148.6 400,150.6 L399.9,194.3 C399.9,196.3 401.3,198.7 403,199.7 L441,221.7 C442.7,222.7 444.1,221.9 444.1,219.9 L444.2,176.2 C444.2,174.2 442.8,171.8 441.1,170.8"/>
      <path fill="#3DD7EC" d="M167.8,215.5 L128.6,192.8 C126.5,191.6 124.8,192.6 124.8,195 L124.7,240.1 C124.7,242.5 126.4,245.5 128.5,246.7 L167.7,269.4 C169.8,270.6 171.5,269.6 171.5,267.2 L171.6,222.1 C171.7,219.7 169.9,216.7 167.8,215.5"/>
      <path fill="#589EF2" d="M249.9,322.9 L208.6,299 C206.9,298 205.5,298.8 205.5,300.8 L205.4,348.3 C205.4,350.3 206.8,352.7 208.5,353.7 L249.8,377.6 C251.5,378.6 252.9,377.8 252.9,375.8 L253,328.3 C253,326.3 251.6,323.9 249.9,322.9"/>
      <path fill="#FFA6BF" d="M422,191.5 C419,189.8 416.6,185.6 416.6,182.2 C416.6,178.8 419,177.4 422,179.1 C425,180.8 427.4,185 427.4,188.4 C427.4,191.8 425,193.2 422,191.5 M422,176.4 C413.3,171.4 406.2,176.2 406.2,176.2 C406.2,176.2 413.2,189.2 421.9,194.2 C430.6,199.2 437.7,194.4 437.7,194.4 C437.7,194.4 430.7,181.5 422,176.4"/>
      <path fill="#4FF0FC" d="M227.8,344.7 C224.2,342.6 221.3,337.6 221.4,333.6 C221.4,329.5 224.3,327.8 227.9,329.9 C231.5,332 234.3,337 234.3,341.1 C234.3,345.1 231.4,346.8 227.8,344.7 M230.3,321.8 L225.5,319 C224.8,318.6 224.2,318.9 224.2,319.7 L224.2,322.2 C224.2,322.8 223.9,323.1 223.5,323.1 C222.7,323 222,323.1 221.3,323.3 C221.1,323.4 220.8,323.3 220.6,323.2 C220.4,323.1 220.2,322.9 220,322.6 L218.1,320.3 C217.9,320.1 217.7,319.9 217.5,319.7 C217.1,319.5 216.6,319.5 216.4,319.8 L214,323.2 C213.7,323.7 213.9,324.7 214.4,325.4 L216.3,327.7 C216.7,328.2 217,328.9 216.9,329.4 C216.8,329.9 216.8,330.3 216.8,330.8 C216.8,331.3 216.8,331.8 216.9,332.3 C217,332.9 216.7,333.3 216.3,333.3 L214.4,333.5 C213.8,333.6 213.6,334.3 213.9,335.2 L216.3,341.4 C216.5,342 216.9,342.5 217.4,342.7 C217.6,342.8 217.8,342.9 218,342.9 L219.9,342.7 C220.1,342.7 220.3,342.7 220.5,342.9 C220.8,343 221,343.3 221.2,343.6 C221.9,344.6 222.6,345.5 223.4,346.3 C223.8,346.8 224.1,347.5 224.1,348 L224.1,350.5 C224.1,351.3 224.7,352.3 225.3,352.7 L230.1,355.5 C230.8,355.9 231.4,355.6 231.4,354.8 L231.4,352.3 C231.4,351.7 231.7,351.4 232.1,351.4 C232.9,351.5 233.6,351.4 234.3,351.2 C234.5,351.1 234.8,351.2 235,351.3 C235.2,351.4 235.4,351.6 235.6,351.9 L237.5,354.2 C237.7,354.4 237.9,354.6 238.1,354.8 C238.5,355 239,355 239.2,354.7 L241.6,351.3 C241.9,350.8 241.7,349.8 241.2,349.1 L239.3,346.8 C238.9,346.3 238.6,345.6 238.7,345.1 C238.8,344.6 238.8,344.2 238.8,343.7 C238.8,343.2 238.8,342.7 238.7,342.2 C238.6,341.6 238.9,341.2 239.3,341.2 L241.2,341 C241.8,340.9 242,340.2 241.7,339.3 L239.3,333.1 C239.1,332.5 238.7,332 238.2,331.8 C238,331.7 237.8,331.6 237.6,331.6 L235.7,331.8 C235.5,331.8 235.3,331.8 235.1,331.6 C234.8,331.5 234.6,331.2 234.4,330.9 C233.7,329.9 233,329 232.2,328.2 C231.8,327.7 231.5,327 231.5,326.5 L231.5,324 C231.5,323.2 231,322.2 230.3,321.8"/>
      <g fill="#78F5FF" transform="translate(131 217)">
        <polyline points="8.6 9 .6 4.4 .6 19.3 8.6 23.9 8.6 9"/>
        <polyline points="20.1 6.9 12.1 2.2 12 25.9 20 30.5 20.1 6.9"/>
        <polyline points="31.6 4.7 23.6 .1 23.5 32.5 31.5 37.1 31.6 4.7"/>
      </g>
    </g>
    <path fill="#FFE164" fill-rule="nonzero" d="M114.7 346.3C114.8 349.3 116.4 351.9 119 353.3 121.9 354.9 125.7 356.7 127.7 357 128.3 357.1 128.8 357.1 129.2 357.2 130.5 357.3 131.3 355.9 130.7 354.8L124.6 344.9 117.2 342.8 114.7 345.1 114.7 346.3zM84.5 361C84.5 361 86.6 365.8 90.8 367.6 95.1 369.5 100.2 370.1 100.1 368.9 100 367.7 94.5 360.3 94.9 356L83.2 357.2 84.5 361z"/>
    <path fill="#1A0B3F" fill-rule="nonzero" d="M116,135.8 C116,135.8 118.4,131 116,128.8 C113.6,126.6 108.7,124.5 101.3,130.9 C93.9,137.3 90.6,139.8 88.6,141.2 C86.6,142.6 86.1,146.7 83.6,152.1 C81.1,157.4 77,160 74.1,165.7 C71.2,171.4 69.3,179.3 70.2,183.6 C71.1,187.9 71.5,190 73.2,191.1 C75,192.2 112.9,189.1 112.9,189.1 C112.9,189.1 117,179.9 118.7,176.2 C120.3,172.5 119,169.3 118.9,166.5 C118.8,163.7 118,159.6 119.2,156.7 C120.4,153.9 119.7,149.8 119.5,148.3 C119.3,146.8 118.4,142.6 117.9,140.8 C117.4,139.1 116,135.8 116,135.8 Z"/>
    <path fill="#1A0B3F" fill-rule="nonzero" d="M76.5,165 C74.9,165.3 75.8,162.8 76.1,161.9 C76.5,160.7 77,159.6 77.6,158.6 C78.8,156.8 80.5,155.3 81.9,153.6 C84.3,150.4 86.1,146.7 89.3,144.2 C90.2,143.5 89.3,142.1 88.4,142.8 C84.7,145.7 82.8,149.9 79.9,153.5 C78.4,155.4 76.6,156.9 75.5,159.1 C74.5,161.1 74,163.3 73.9,165.6 C73.9,165.9 74.1,166.2 74.3,166.3 C75.2,166.8 76,166.9 77,166.7 C78.1,166.4 77.6,164.8 76.5,165 Z"/>
    <path fill="#724C44" fill-rule="nonzero" d="M87.4 359.2C87.4 359.2 91.4 365.5 93.6 364 95.7 362.5 95.1 361.9 95.4 361 95.8 360.1 94.9 355.9 94.9 355.9L87.4 359.2zM124.5 344.8L124.4 340.9 117.1 342.6 117.4 347.1C117.9 348.9 119.6 350 121.5 349.7L121.9 349.6C124.2 349.4 125.5 346.9 124.5 344.8z"/>
    <path fill="#6FFFE5" fill-rule="nonzero" d="M81.3,354.1 C80.7,352.4 80.3,347.6 79.6,345.7 C79,343.7 78.8,333.5 78.9,331.6 C79.2,327.8 78.8,309.9 78.8,309.9 C78.8,309.9 80.1,265.5 79.9,259.9 C79.7,254.3 84,224.3 84,224.3 L118,222.5 C118,222.5 119.6,232.6 121.2,235 C122.8,237.4 125.3,272.7 125.8,284.9 C126.3,297.1 124.8,323.1 126.7,331.5 L125.4,341.8 C125.4,341.8 125.4,341.8 122.3,341.6 C119.2,341.4 114.6,346.1 114.6,346.1 L112.4,342.4 C112.4,342.4 111.6,339 111.4,335.1 C111.2,331.7 111.5,330.9 110.3,328.1 C109.1,325.3 108.7,308.9 108.6,305.8 C108.5,302.7 105.3,289 105.3,289 C105.3,289 100.3,311.7 99.3,317.1 C98.3,322.5 95.7,329.8 95.6,332.4 C95.5,334.9 94.4,340.6 94.2,343.4 L94.8,356.7 C94.8,356.7 86.2,358.1 84.5,359.9 C83.1,361.9 81.3,354.1 81.3,354.1 Z"/>
    <path fill="#F43A1C" fill-rule="nonzero" d="M96.2,173.1 L82.4,188.5 C82.4,188.5 85.5,199.5 85.4,207.6 C85.3,215.7 81.8,223.5 82.9,224 C84,224.5 109.9,227.1 113.2,225.8 C116.5,224.5 118.3,222.5 118.3,221.7 C118.3,220.9 116.9,214.6 118.4,213.4 C119.9,212.2 124.6,206.2 123.9,203.2 C123.2,200.2 122.2,198 120.6,194.7 C119,191.4 113.5,184 113.5,184 L107.9,180.2 L96.2,173.1 Z"/>
    <polygon fill="#CE2715" fill-rule="nonzero" points="96.2 173.1 90.4 179.6 98.6 187.8"/>
    <path fill="#FFF" fill-rule="nonzero" d="M96.6,173.1 C96.4,173.3 96.3,173.5 96.2,173.8 C96,176.6 95.5,186.6 100.4,187.8 C106.1,189.2 104.1,180.3 104.1,180.3 C104.1,180.3 100.4,175.8 97.6,172 C97.3,171.5 96.9,172.7 96.6,173.1 Z"/>
    <path fill="#CE2715" fill-rule="nonzero" d="M114.3,212.1 C109.1,213.8 104.3,216.2 99.9,219.5 C99.2,220 99.2,220.9 100,221.3 C101.9,222.5 104.5,221.7 106.6,221.4 C110.1,221 113.5,220.6 117,220.3 C118.4,220.1 118.3,218 116.9,218.2 C114.3,218.5 111.7,218.8 109.1,219.1 C107.2,219.3 102.7,220.6 101,219.5 C101,220.1 101,220.7 101.1,221.3 C105.3,218.1 109.9,215.7 115,214.1 C116.3,213.7 115.7,211.7 114.3,212.1 Z"/>
    <circle cx="109.6" cy="192.4" r="2.2" fill="#FFF" fill-rule="nonzero"/>
    <path fill="#FFF" fill-rule="nonzero" d="M108.4,177 L105.7,175.8 L101.3,178.2 L101.4,180.4 L104.2,180.3 L104.3,180.3 C104,180.4 104.2,180.3 105,180.8 C106.9,181.9 111.3,185.2 112.6,183.1 C113.8,180.9 108.4,177 108.4,177 Z"/>
    <g fill-rule="nonzero" transform="translate(95 138)">
      <path fill="#724C44" d="M21.4,7.6 C20.9,4.2 17.3,0.2 15.7,0.1 C14.1,2.08305595e-14 13.9,2.1 10.4,3.8 C6.9,5.5 2.6,12 1.3,13.2 C-0.1,14.5 0.7,22.4 0.2,23.4 C-0.3,24.4 2.3,36.3 2.3,36.3 C2.5,36.6 2.7,37 2.8,37.2 C5.1,40.4 10.1,41.7 12.6,38.1 C12.8,37.8 13,37.4 13.2,37.1 C13.3,36.6 13.4,36.1 13.4,35.6 C13.6,32.8 17.7,30.2 20.3,28.7 C21.9,27.8 22.9,26.3 23,24.5 C23.6,18.7 21.9,10.5 21.4,7.6 Z"/>
      <ellipse cx="9.484" cy="12.933" fill="#1A0B3F" rx="1" ry="1.6" transform="rotate(-15.094 9.484 12.933)"/>
      <ellipse cx="18.592" cy="10.633" fill="#1A0B3F" rx="1" ry="1.6" transform="rotate(-15.094 18.592 10.633)"/>
      <path fill="#4F280B" d="M17.2,19.7 C18.6,18.5 20,17.6 18.9,15.8 C17.1,12.8 15.7,9.8 14.7,6.4 C14.5,5.9 13.7,6.1 13.9,6.6 C14.5,8.7 15.3,10.8 16.3,12.8 C16.8,13.8 17.6,14.8 18,15.8 C18.3,16.5 18.5,16.8 18,17.6 C17.7,18.1 17,18.6 16.6,19 C16.2,19.5 16.8,20.1 17.2,19.7 Z"/>
      <path fill="#F95346" d="M16.1,22.9 C15.2,23.6 13.9,23.5 13.1,22.7 C12.7,22.3 12.1,22.9 12.5,23.3 C13.6,24.5 15.5,24.5 16.7,23.5 C17.2,23.2 16.6,22.6 16.1,22.9 Z"/>
      <path fill="#1A0B3F" d="M7.8 10.1C8.3 8.9 9.5 8.2 10.8 8.2 11.4 8.2 11.3 7.4 10.8 7.3 9.2 7.2 7.7 8.1 7 9.6 6.8 10.1 7.6 10.6 7.8 10.1zM17.6 7.5C18.1 7.3 18.7 7.5 19.1 8 19.4 8.5 20.1 8 19.8 7.6 19.3 6.8 18.3 6.4 17.4 6.8 16.8 6.8 17 7.7 17.6 7.5z"/>
      <path fill="#F95346" d="M15.4,25.5 C14.3,25.1 13.7,24.2 13.3,23.2 C13.1,22.7 12.3,22.9 12.5,23.4 C13,24.8 13.8,25.8 15.2,26.3 C15.7,26.5 15.9,25.7 15.4,25.5 Z"/>
      <path fill="#642C25" d="M13,34.9 C13,34.9 10.8,36 9.4,35.3 C8,34.6 13.6,32.8 16.6,30.8 C19.7,29 13,34.9 13,34.9 Z"/>
    </g>
    <path fill="url(#resource-level-lock---illustration-m)" fill-rule="nonzero" d="M141.4,221.6 L117,232.7 C116,233.1 115,232.3 115.2,231.3 L121.9,199 C122.1,198 122.7,197.2 123.6,196.8 L148,185.7 C149,185.3 150,186.1 149.8,187.1 L143.1,219.4 C142.9,220.4 142.3,221.2 141.4,221.6 Z"/>
    <path fill="#724C44" fill-rule="nonzero" d="M150.5,203.7 L150.6,206.1 C150.3,207.2 150.3,207.6 149.8,209.5 C149.3,211.4 144.9,212 144.9,212 L142.5,210.5 C142.5,210.5 141.4,208.7 141.1,207.8 C140.8,206.9 142.5,205.4 142.5,205.4 C142.5,205.4 142.8,203.6 143.5,201.7 C143.5,201.7 148.4,199.3 149.5,199.3 C150.6,199.3 151.8,199.9 151.4,200.5 C151,201.1 150.5,203.7 150.5,203.7 Z"/>
    <path fill="#CE2715" fill-rule="nonzero" d="M86.4,202.4 C86.4,202.4 88.1,208.8 88.8,214.3 C89.3,218.1 94,220.3 92,221.3 C90,222.3 80.6,222.7 81.7,217 C82.8,211.2 86.4,202.4 86.4,202.4 Z"/>
    <path fill="#724C44" fill-rule="nonzero" d="M125.6,214.8 C124.3,214.5 118.1,214 118.1,214 L119.3,213 L119.7,210.8 C119.7,210.8 118.7,210.6 117.4,211 C116.2,211.4 113,213.1 112.1,213.7 C111.3,214.2 109,215.7 108.3,216.2 C104.9,218 100.6,219.9 98.4,220.8 C95.1,222.1 89.1,221.5 84.9,219.1 C84.5,217 84.3,215 84.9,212.9 C85.2,211.5 85.7,210.2 85.9,208.8 C86.1,208.2 86.3,207.6 86.3,206.8 C86.5,204.2 86.4,201.5 86,198.9 C85.9,198.3 85.8,197.7 85.7,197 C85.6,194.2 84.9,191.6 83.3,189.1 C83.2,188.9 83,188.9 82.9,188.9 C82.7,188.9 82.5,188.9 82.3,189.2 C78.7,196.1 74.4,202.8 72.8,210.3 C72.7,210.6 72.6,210.8 72.5,211.1 C71.8,214.2 72.5,215.3 72.4,217.2 C72.2,223 74.8,227.7 80.2,230.2 C85.6,232.7 91.6,231.9 96.9,229.5 C99.5,228.3 102.5,227.1 105.2,225.6 C106.3,224.7 106.8,224.3 108.1,223.3 C108.1,223.3 108.1,223.3 108.2,223.3 C108.4,223.1 108.6,223 108.7,222.9 C109.9,223 118.8,223.6 120.6,222.9 C122.5,222.2 124.3,221.2 124.3,221.2 C124.3,221.2 126.3,217.8 126.8,217.1 C127.3,216.3 126.9,215.1 125.6,214.8 Z"/>
    <path fill="#A34B88" fill-rule="nonzero" d="M170 202.4C170.3 195.9 171.2 189.6 172.2 183.2 172.6 180.3 173.2 177.6 174.6 175.1 176 172.7 177.7 170.6 178.8 168.1 179.1 167.5 178.2 167 177.9 167.6 176.7 170.4 174.7 172.6 173.3 175.3 172 177.7 171.6 180.3 171.2 183 170.2 189.5 169.2 195.9 169 202.5 169 203.1 170 203.1 170 202.4zM150.5 158C149.2 160.7 149.4 164.3 147 166.3 146.5 166.7 147.2 167.4 147.7 167 150.3 164.8 150 161.3 151.4 158.5 151.7 157.9 150.8 157.4 150.5 158z"/>
    <path fill="#FFD6F4" fill-rule="nonzero" d="M161.5,249.4 C161.5,249.4 153.5,258.3 156,261 C158.5,263.7 156.2,268.5 156.2,268.5 L160.5,267.1 L161.5,249.4 Z"/>
    <path fill="#A34B88" fill-rule="nonzero" d="M155.8,255.3 C154.2,256.3 152.7,257.4 151.4,258.7 C150.4,259.6 149.1,260.8 149.4,262.2 C150.2,265.7 155.1,261.7 156.4,263.8 C156.7,264.4 157.6,263.8 157.3,263.3 C156.3,261.6 154.3,262.3 152.7,262.6 C152.4,262.7 152,262.7 151.7,262.7 C150.8,262.7 151,262.7 151,261.5 C151,260.4 150.9,260.5 151.5,259.9 C151.8,259.6 152,259.4 152.3,259.1 C153.5,258 154.9,257 156.3,256.1 C156.9,255.9 156.4,255 155.8,255.3 Z"/>
    <path fill="#FFD6F4" fill-rule="nonzero" d="M189.7,234.4 C189.7,234.4 186.3,239.6 186.8,242.1 C187.3,244.6 185.4,252.7 185.4,252.7 C185.4,252.7 189.5,256.4 189.9,248.8 C190.3,241.2 190.6,243.2 190.6,243.2 L189.7,234.4 Z"/>
    <path fill="#A34B88" fill-rule="nonzero" d="M187.1,238.6 C186,239.7 184.9,240.8 183.8,241.8 C183.2,242.4 182.2,243 182,243.9 C181.9,244.5 182.2,244.8 182.6,245.2 C183.6,246 185.2,246.4 186.3,247 C186.9,247.3 187.4,246.4 186.8,246.1 C186.1,245.7 185.3,245.4 184.6,245 C183.5,244.5 182.8,244.2 183.9,243.1 C185.2,241.8 186.5,240.5 187.8,239.3 C188.3,238.8 187.6,238.1 187.1,238.6 Z"/>
    <path fill="#303A44" fill-rule="nonzero" d="M187.6,124.9 C187.6,124.4 187.5,123.9 187.4,123.4 C187.2,122.2 187,121.1 186.8,119.9 C186.8,119.7 186.8,119.5 186.9,119.3 C187,118.6 186.9,118 186.8,117.5 C186.8,116.9 186.9,116.2 187.1,115.6 C187.2,115.2 186.8,114.9 186.5,115 C185.8,115.2 185.1,115.3 184.4,115.5 C183.8,115.4 183,115.5 182.3,115.8 C182.1,115.9 181.9,116 181.7,116.1 C179.5,116.6 177.2,117.2 175,117.7 C171.8,118 168.6,117.9 165.7,118 C165.7,118 165.6,118 165.6,118 C164.8,117.7 164,117.4 163.1,117.2 C160.3,116.8 159.9,119.6 158,120.9 C158,120.9 158,120.9 158,120.9 C157.1,121.1 156.5,121.4 156,121.8 C155.1,122.1 154.2,122.5 153.6,123.2 C152.9,123.5 152.4,124 152,124.6 C151.9,124 150.9,124 151,124.6 C151,124.7 151,124.7 151,124.8 C150.8,124.8 150.6,124.9 150.5,125.2 C150.5,125.2 150.5,125.3 150.5,125.3 C150.5,125.3 150.5,125.3 150.5,125.3 C150.5,125.3 150.5,125.3 150.5,125.3 C150.3,126.9 150.9,128.7 151,130.4 C151,130.4 151,130.4 151,130.4 C150.6,131.1 150.4,131.9 150.4,132.6 C150.3,132.9 150.1,133.3 149.9,133.6 C149.8,133.9 149.9,134.1 150,134.3 C150,134.5 150.2,134.6 150.3,134.6 C154.5,135.3 158.7,136 162.9,135.1 C165.3,134.6 167.5,133.6 169.9,133.2 C172.2,132.8 174.5,132.6 176.7,131.9 C179,131.3 181.3,130.4 183.5,129.5 C184.7,129 186.6,128.6 187.4,127.6 C187.9,126.9 187.7,125.8 187.6,124.9 Z M185.8,116.1 C185.8,116.1 185.8,116.2 185.8,116.1 C185.8,116.2 185.7,116.1 185.8,116.1 C185.8,116.1 185.8,116.1 185.8,116.1 Z"/>
    <path fill="#0C66D0" fill-rule="nonzero" d="M147.3,136.2 C147.9,136.5 148.6,136.8 149.2,137.1 C149.4,137.4 149.9,137.4 150.1,137.1 C152.2,133.5 155.4,136.1 158.3,136.5 C161.2,136.9 164.1,136.8 167,136.9 C167.6,136.9 167.6,135.9 167,135.9 C164.7,135.8 162.4,135.7 160,135.6 C157.9,135.5 156.3,134.7 154.3,134.2 C152.2,133.7 150.2,134.7 149.1,136.6 C149.4,136.6 149.7,136.6 150,136.6 C149.3,135.6 148.4,135.2 147.2,135.2 C146.7,135.3 146.7,136.3 147.3,136.2 Z"/>
    <path fill="#090C0F" fill-rule="nonzero" d="M138.9,138.9 C138.2,139 137.8,138.2 138.3,137.7 C140.6,135.8 144.1,133.1 146,133.1 C148.8,133.2 149.1,134.2 149.2,134.5 C149.3,134.8 145.6,137.6 145.2,138.4 C144.8,139.2 143.2,143.4 142,142.9 C140.8,142.4 141,139 141.3,138.5 C141.6,138.4 140.3,138.6 138.9,138.9 Z"/>
    <path fill="#0C66D0" fill-rule="nonzero" d="M147.7 135.7C148.3 134.4 148.7 134.1 149.7 133.1 149.8 133 150.1 132.9 150.3 132.7 150.8 132 150.7 130.9 150.7 130 150.8 126.1 149.7 122.4 150.9 118.6 151.1 118 150.1 117.7 149.9 118.3 148.8 121.9 149.5 125.4 149.6 129.1 149.6 130.3 149.7 131.3 148.9 132.2 148.7 132.4 148.4 132.4 148.2 132.6 147.5 133.4 147 134.3 146.6 135.4 146.4 136 147.4 136.3 147.7 135.7zM187.3 98C185.3 102.6 186.4 107.4 186.3 112.2 186.3 114.5 186 116.6 186.3 118.9 186.8 122.1 187.2 125.3 187.7 128.6 187.8 129.2 188.8 129 188.7 128.3 188 123.2 187.1 118.2 187.3 113 187.5 108.1 186.1 103.1 188.2 98.4 188.4 97.9 187.6 97.4 187.3 98z"/>
    <path fill="#0C66D0" fill-rule="nonzero" d="M150.8 123.6C151.5 122.9 152.2 122.3 153.1 121.9 153.7 121.6 153.2 120.7 152.6 121 151.7 121.5 150.8 122.1 150.1 122.8 149.7 123.4 150.4 124.1 150.8 123.6zM148 132.5C146.4 133 144.8 133.4 143.1 133.7 142.5 133.8 142.7 134.8 143.4 134.7 145.1 134.4 146.7 134 148.3 133.5 148.9 133.2 148.6 132.3 148 132.5zM187.7 104.5C187.7 104.4 188.4 103.7 188.5 103.6 188.8 103.3 189.1 102.9 189.4 102.6 189.8 102.1 189.1 101.4 188.7 101.9 188.2 102.4 187.8 102.9 187.3 103.4 186.9 103.8 186.5 104.2 186.7 104.8 187 105.4 187.9 105.1 187.7 104.5z"/>
    <path fill="#090C0F" fill-rule="nonzero" d="M144.7 150.3C144.7 150.3 150.8 149.1 155.7 148.3 160.6 147.5 151.6 153.3 148.2 154.1 144.8 154.9 144.8 153.8 144.8 153.8L145.6 152.4 144.7 150.3zM167.9 145.5L164.8 146.1C164.8 146.1 165.3 136.5 168.3 136.1L167.9 145.5z"/>
    <polygon fill="#090C0F" fill-rule="nonzero" points="175.4 144.8 184 149.4 185.3 144.9 175.4 144"/>
    <path fill="#1B2760" fill-rule="nonzero" d="M158 269.2C158.8 268.7 159.6 268.3 160.3 267.8 160.6 267.6 161 267.4 161.3 267.2 161.5 267.1 161.6 267 161.8 266.9 162.2 266.8 162.1 266.7 161.7 266.6 161.2 266.8 160.6 268 160.2 268.5 159.5 269.2 158.8 269.8 158 270.4 157.5 270.8 157.9 271.5 158.5 271.3 159.5 270.8 160.5 270.4 161.5 269.9 162.5 269.4 164 268.4 165.1 268.8 165.7 269 166 268 165.4 267.8 164.4 267.5 163.6 267.8 162.7 268.3 161.1 269 159.6 269.7 158 270.4 158.2 270.7 158.3 271 158.5 271.3 159.7 270.5 160.7 269.6 161.6 268.5 162 268 163 267.1 162.8 266.3 162.7 265.8 162.2 265.7 161.8 265.8 161.2 265.9 160.5 266.5 160 266.8 159.1 267.3 158.3 267.8 157.4 268.3 157 268.7 157.5 269.5 158 269.2zM185.8 254.9C186.6 254.2 187.4 253.6 188.2 253 188.8 252.5 189.9 252.1 190.4 251.5 190.8 251 190 251.5 189.8 251.6 189.4 251.8 189 252 188.7 252.2 187.8 252.7 186.9 253.2 186 253.7 185.6 253.9 185.7 254.7 186.3 254.6 187.3 254.5 188.3 254.3 189.3 254.2 189.8 254.1 190.3 254.1 190.8 254 191 254 191.1 254 191.3 253.9 191.8 254 192 253.8 191.7 253.3 191.2 253.7 191.9 254.4 192.4 254 192.4 254 192.5 253.9 192.5 253.9 192.6 253.8 192.7 253.6 192.6 253.4 192.4 252.6 191.6 252.8 190.9 252.9 189.3 253.1 187.7 253.3 186.1 253.5 186.2 253.8 186.3 254.1 186.4 254.4 187.9 253.6 189.5 252.8 190.9 251.8 191.4 251.4 191.9 250.7 191.2 250.2 190.4 249.6 189.3 250.5 188.7 251 187.4 251.9 186.1 252.9 184.9 253.9 184.6 254.6 185.3 255.3 185.8 254.9z"/>
    <path fill="#ED675A" fill-rule="nonzero" d="M188 140.3C190.3 139.9 192.5 139.4 194.7 138.6 195.3 138.4 195 137.4 194.4 137.6 192.2 138.4 190 138.9 187.7 139.3 187.1 139.5 187.4 140.5 188 140.3zM190.1 142.3C191.4 141.9 192.7 141.3 194 140.6 194.6 140.3 194.1 139.4 193.5 139.7 192.3 140.3 191.1 140.9 189.9 141.3 189.2 141.6 189.5 142.5 190.1 142.3zM186.6 133.9C185.7 134.6 184.7 135.2 183.7 135.7 183.1 136 183.6 136.8 184.2 136.6 185.3 136.1 186.4 135.4 187.3 134.6 187.8 134.2 187.1 133.5 186.6 133.9zM206.9 132C208.9 131.2 210.8 130.3 212.6 129.3 213.2 129 212.7 128.1 212.1 128.4 210.3 129.4 208.5 130.2 206.6 131 206 131.3 206.3 132.3 206.9 132zM205.8 134.6C207.8 134.6 209.7 134.3 211.6 133.9 212.2 133.8 212 132.8 211.3 132.9 209.5 133.3 207.7 133.5 205.8 133.6 205.1 133.6 205.1 134.6 205.8 134.6zM207.3 136.5C209 136.6 210.6 136.5 212.3 136.2 212.9 136.1 212.7 135.1 212 135.2 210.4 135.4 208.9 135.5 207.3 135.4 206.6 135.5 206.6 136.5 207.3 136.5z"/>
    <path fill="#DA1F38" fill-rule="nonzero" d="M173.8,64.7 C177.2,63.8 178.4,60.4 178.8,57.3 C178.9,56.7 177.9,56.7 177.8,57.3 C177.4,60 176.5,63 173.6,63.8 C172.9,63.9 173.2,64.9 173.8,64.7 Z"/>
    <path fill="#DA1F38" fill-rule="nonzero" d="M174.2,64.2 C177.1,63.3 179.9,62 181.5,59.3 C181.8,58.7 181,58.2 180.6,58.8 C179.2,61.3 176.6,62.4 173.9,63.3 C173.3,63.4 173.6,64.4 174.2,64.2 Z"/>
    <path fill="#00CCBD" fill-rule="nonzero" d="M96.6 230.6C103.1 231.5 109.5 230.6 115.5 228 116.1 227.7 115.6 226.9 115 227.1 109.3 229.6 103 230.4 96.9 229.6 96.3 229.6 96 230.5 96.6 230.6zM105.1 291.5C104.6 283 107.2 275 108.7 266.8 109.4 263.2 109.6 259.6 109.9 255.9 110.2 251.7 111.7 246.8 116.4 246 117 245.9 116.8 244.9 116.1 245 107.7 246.4 109.1 257.7 108.1 263.8 106.7 273.1 103.4 282 104 291.5 104.1 292.2 105.1 292.2 105.1 291.5zM91.2 349.6C90.8 349.7 85.9 350.6 85.8 349.9 85.8 350 89.2 347.8 89.5 347.4 91.3 345.3 88.5 342.8 87.4 341.1 87 340.6 86.2 341.1 86.5 341.6 87.1 342.5 87.8 343.5 88.4 344.4 88.9 345.1 89.1 345.2 88.8 346.1 88.6 347.1 88.2 347.3 87.4 347.9 86.6 348.4 84.7 348.8 84.5 349.9 84 352.2 90.5 350.9 91.5 350.6 92.1 350.5 91.9 349.5 91.2 349.6zM120.8 328.2C119.1 329.1 117.6 330.3 116.4 331.8 115.8 332.6 114.2 334.5 114.6 335.7 115 336.9 116.3 336.5 117.1 336.1 119.4 335 121.7 333.7 124 332.5 124.6 332.2 124.1 331.3 123.5 331.6 122.2 332.3 120.8 333 119.5 333.7 118.9 334 118.4 334.3 117.8 334.6 117.2 334.9 115.8 335.8 116 334.3 116.2 333.3 117.5 332 118.2 331.3 119.1 330.4 120.2 329.6 121.4 329 121.8 328.7 121.3 327.9 120.8 328.2z"/>
    <path fill="#482C25" fill-rule="nonzero" d="M117.7 213.1C117.3 213.5 116.8 213.8 116.3 214 115.7 214.2 116 215.2 116.6 215 117.3 214.7 117.9 214.3 118.5 213.8 118.9 213.4 118.2 212.7 117.7 213.1zM120.2 218.7C122.1 218.1 124 217.6 126 217.5 126.6 217.4 126.6 216.4 126 216.5 123.9 216.7 121.9 217.1 120 217.7 119.3 217.9 119.5 218.9 120.2 218.7z"/>
    <path fill="#482C25" fill-rule="nonzero" d="M120.1 221.2C122.2 220.7 124.1 219.8 125.7 218.5 126.2 218.1 125.5 217.4 125 217.8 123.5 219 121.7 219.8 119.8 220.2 119.3 220.3 119.5 221.3 120.1 221.2zM142.8 205.4C144.3 204.5 145.8 203.8 147.4 203.3 148 203.1 147.8 202.1 147.1 202.3 145.4 202.8 143.8 203.5 142.2 204.5 141.8 204.9 142.3 205.7 142.8 205.4zM141.7 208.6C143.4 208.3 145 207.9 146.7 207.2 147.6 206.9 148.9 206.6 149.3 205.7 149.6 205.1 148.7 204.6 148.4 205.2 148 206.1 145.7 206.6 144.8 206.8 143.7 207.2 142.5 207.4 141.4 207.6 140.8 207.8 141.1 208.8 141.7 208.6zM143.3 211.2C145.5 210.6 147.4 209.5 148.9 207.9 149.3 207.4 148.6 206.7 148.2 207.2 146.8 208.7 145 209.7 143 210.2 142.4 210.4 142.7 211.4 143.3 211.2z"/>
    <ellipse cx="136.269" cy="203.914" fill="#C0D7F8" fill-rule="nonzero" rx="2" ry="1.2" transform="rotate(-72.362 136.27 203.914)"/>
    <ellipse cx="202.116" cy="126.586" fill="#C0D7F8" fill-rule="nonzero" rx="2" ry="1.2" transform="rotate(-72.362 202.116 126.586)"/>
    <g fill-rule="nonzero" transform="translate(163 67)">
      <ellipse cx="12.236" cy="4.606" fill="#105EF9" rx="1.3" ry="1" transform="rotate(-88.729 12.236 4.606)"/>
      <ellipse cx="3.819" cy="7.906" fill="#105EF9" rx="1.3" ry="1" transform="rotate(-83.736 3.819 7.906)"/>
      <path fill="#D8233D" d="M13.4 1.5C12.6 1.3 11.9 1.4 11.3 2 10.6 2.6 9.7 1.6 10.3 1 11.3.1 12.6-.2 13.8.2 14.7.4 14.3 1.8 13.4 1.5zM3.7 5C3 5 2.4 5.2 1.9 5.7 1.3 6.3.2 5.5.8 4.8 1.5 4 2.5 3.6 3.5 3.6 4.4 3.6 4.6 5 3.7 5z"/>
      <path fill="#9E2B18" d="M8.8 11.1C9.2 10.8 9.9 10.4 10.2 9.9 10.8 8.9 9.7 7.8 9.2 7.1 8.5 6.1 8 5.2 8 4 8 3.6 8.7 3.5 8.7 3.9 8.7 5.3 9.5 6.3 10.2 7.3 10.6 7.9 11.1 8.5 11.2 9.2 11.3 10.3 10 11 9.3 11.7 8.8 12 8.4 11.4 8.8 11.1zM7.4 15.4C6.3 16.5 4.4 16.2 3.6 14.8 3.4 14.4 3.9 14 4.2 14.4 4.8 15.5 6.1 15.7 7 14.8 7.3 14.5 7.7 15.1 7.4 15.4z"/>
    </g>
    <path fill="#FB8499" fill-rule="nonzero" d="M166.6,65.2 C169.3,66.5 172.4,66.2 174.5,64 C175.7,62.7 177.2,60 175.3,58.7 C174.8,58.4 174.2,59.1 174.7,59.5 C176.8,61.1 180.6,62.4 180.9,58.6 C181.3,54.1 177,51.1 173.2,50.2 C172.6,50.1 172.3,51 172.9,51.2 C175.2,51.7 177.3,52.7 178.7,54.6 C179.3,55.5 179.9,56.5 179.9,57.7 C179.9,60.8 176.9,60 175.4,58.8 C175.2,59.1 175,59.3 174.8,59.6 C176.3,60.6 173.8,63.4 173.1,64 C171.3,65.3 169.1,65.4 167.1,64.4 C166.6,64.1 166.1,65 166.6,65.2 Z"/>
    <path fill="#FFF" d="M22.6577,11.3286 C12.3817,11.9106 11.9097,12.3816 11.3287,22.6576 C10.7477,12.3816 10.2767,11.9106 -0.0003,11.3286 C10.2767,10.7476 10.7477,10.2766 11.3287,-0.0004 C11.9097,10.2766 12.3817,10.7476 22.6577,11.3286" transform="translate(395 214)"/>
  </g>
</svg>
