<?xml version="1.0" encoding="UTF-8"?>
<svg width="92px" height="68px" viewBox="0 0 92 68" version="1.1" xmlns="http://www.w3.org/2000/svg" xmlns:xlink="http://www.w3.org/1999/xlink">
    <!-- Generator: Sketch 48.1 (47250) - http://www.bohemiancoding.com/sketch -->
    <title>Group</title>
    <desc>Created with Sketch.</desc>
    <defs>
        <linearGradient x1="90.2238095%" y1="86.5382003%" x2="9.7484127%" y2="13.3726655%" id="linearGradient-1">
            <stop stop-color="#7FB2FF" offset="0%"></stop>
            <stop stop-color="#7FBCFF" offset="39.57%"></stop>
            <stop stop-color="#7FD4FF" offset="100%"></stop>
        </linearGradient>
        <linearGradient x1="91.4410448%" y1="51.0559701%" x2="7.4858209%" y2="65.0485075%" id="linearGradient-2">
            <stop stop-color="#5A92E8" offset="0%"></stop>
            <stop stop-color="#649CEE" stop-opacity="0.629" offset="37.1%"></stop>
            <stop stop-color="#7FB5FF" stop-opacity="0" offset="100%"></stop>
        </linearGradient>
    </defs>
    <g id="Page-1" stroke="none" stroke-width="1" fill="none" fill-rule="evenodd">
        <g id="Group">
            <g transform="translate(31.000000, 20.000000)"></g>
            <g id="Group-2" fill-rule="nonzero">
                <path d="M77.9,59.8 L19,59.8 C17.5,59.8 16.2,58.5 16.2,57 L16.2,3.7 C16.2,2.2 17.5,0.9 19,0.9 L89,0.9 C90.5,0.9 91.8,2.2 91.8,3.7 L91.8,45.8 L77.9,59.8 Z" id="Shape" fill="url(#linearGradient-1)"></path>
                <polygon id="Shape" fill="url(#linearGradient-2)" points="78.4 46.3 65 59.7 77.9 59.7"></polygon>
                <path d="M77.9,47.6 L77.9,59.8 L91.9,45.8 L79.7,45.8 C78.7,45.8 77.9,46.6 77.9,47.6 Z" id="Shape" fill="#ABE7FF"></path>
                <circle id="Oval" fill="#FF9A8D" cx="24.2" cy="8.5" r="2"></circle>
                <circle id="Oval" fill="#FFF255" cx="31.2" cy="8.5" r="2"></circle>
                <circle id="Oval" fill="#38EFF4" cx="38.2" cy="8.5" r="2"></circle>
                <path d="M75.7,22.5 L32.4,22.5 C31.8,22.5 31.2,22 31.2,21.3 C31.2,20.7 31.7,20.1 32.4,20.1 L75.7,20.1 C76.3,20.1 76.9,20.6 76.9,21.3 C76.8,22 76.3,22.5 75.7,22.5 Z" id="Shape" fill="#ABE7FF"></path>
                <path d="M45.7,28.5 L32.4,28.5 C31.8,28.5 31.2,28 31.2,27.3 C31.2,26.7 31.7,26.1 32.4,26.1 L45.7,26.1 C46.3,26.1 46.9,26.6 46.9,27.3 C46.8,28 46.3,28.5 45.7,28.5 Z" id="Shape" fill="#ABE7FF"></path>
                <path d="M75.7,28.5 L52.4,28.5 C51.8,28.5 51.2,28 51.2,27.3 C51.2,26.7 51.7,26.1 52.4,26.1 L75.7,26.1 C76.3,26.1 76.9,26.6 76.9,27.3 C76.8,28 76.3,28.5 75.7,28.5 Z" id="Shape" fill="#ABE7FF"></path>
                <path d="M55.7,34.5 L32.4,34.5 C31.8,34.5 31.2,34 31.2,33.3 C31.2,32.7 31.7,32.1 32.4,32.1 L55.7,32.1 C56.3,32.1 56.9,32.6 56.9,33.3 C56.8,34 56.3,34.5 55.7,34.5 Z" id="Shape" fill="#ABE7FF"></path>
                <path d="M75.7,34.5 L62.4,34.5 C61.8,34.5 61.2,34 61.2,33.3 C61.2,32.7 61.7,32.1 62.4,32.1 L75.7,32.1 C76.3,32.1 76.9,32.6 76.9,33.3 C76.8,34 76.3,34.5 75.7,34.5 Z" id="Shape" fill="#ABE7FF"></path>
                <path d="M37.7,40.5 L32.4,40.5 C31.8,40.5 31.2,40 31.2,39.3 C31.2,38.7 31.7,38.1 32.4,38.1 L37.7,38.1 C38.3,38.1 38.9,38.6 38.9,39.3 C38.8,40 38.3,40.5 37.7,40.5 Z" id="Shape" fill="#ABE7FF"></path>
                <path d="M75.7,40.5 L44.4,40.5 C43.8,40.5 43.2,40 43.2,39.3 C43.2,38.7 43.7,38.1 44.4,38.1 L75.7,38.1 C76.3,38.1 76.9,38.6 76.9,39.3 C76.8,40 76.3,40.5 75.7,40.5 Z" id="Shape" fill="#ABE7FF"></path>
                <path d="M11.6,28.7 L6.4,27.3 L5.4,28.3 L9.3,32.2 L8.7,35.9 L5,36.5 L1.1,32.6 L0.1,33.6 L1.5,38.8 C2.1,40.9 3.7,42.5 5.7,43 C9.1,43.9 12.2,45.7 14.7,48.2 L32.5,66 C34.1,67.6 36.8,67.9 38.6,66.4 C40.6,64.7 40.7,61.7 38.9,59.9 L20.9,41.9 C18.4,39.4 16.6,36.3 15.7,32.9 C15.2,30.9 13.6,29.3 11.6,28.7 Z M36.8,64.1 C36,64.9 34.8,64.9 34.1,64.1 C33.3,63.3 33.3,62.1 34.1,61.4 C34.9,60.6 36.1,60.6 36.8,61.4 C37.6,62.1 37.6,63.3 36.8,64.1 Z" id="Shape" fill="#0870E5"></path>
            </g>
        </g>
    </g>
</svg>