<?xml version="1.0" encoding="UTF-8"?>
<svg width="435px" height="332px" viewBox="0 0 435 332" version="1.1" xmlns="http://www.w3.org/2000/svg" xmlns:xlink="http://www.w3.org/1999/xlink">
    <!-- Generator: Sketch 48.1 (47250) - http://www.bohemiancoding.com/sketch -->
    <title>3-illustration</title>
    <desc>Created with Sketch.</desc>
    <defs>
        <linearGradient x1="49.9722694%" y1="97.9397708%" x2="49.9722694%" y2="-33.6999151%" id="linearGradient-1">
            <stop stop-color="#7FB2FF" offset="0%"></stop>
            <stop stop-color="#7FBCFF" offset="39.57%"></stop>
            <stop stop-color="#7FD4FF" offset="100%"></stop>
        </linearGradient>
        <linearGradient x1="-0.00477114042%" y1="49.9800687%" x2="99.9644686%" y2="49.9800687%" id="linearGradient-2">
            <stop stop-color="#7AACFC" offset="0%"></stop>
            <stop stop-color="#74AAFC" offset="100%"></stop>
        </linearGradient>
        <linearGradient x1="60.1875%" y1="150.245468%" x2="43.0950617%" y2="33.9249245%" id="linearGradient-3">
            <stop stop-color="#7FB2FF" offset="0%"></stop>
            <stop stop-color="#82B3FF" offset="2.347016%"></stop>
            <stop stop-color="#A6C1FF" offset="30.67%"></stop>
            <stop stop-color="#C0CCFF" offset="57.23%"></stop>
            <stop stop-color="#D0D2FF" offset="81.11%"></stop>
            <stop stop-color="#D5D4FF" offset="100%"></stop>
        </linearGradient>
        <linearGradient x1="48.7054012%" y1="71.3175227%" x2="38.674537%" y2="-4.21117825%" id="linearGradient-4">
            <stop stop-color="#70A6FC" offset="0%"></stop>
            <stop stop-color="#78ADFC" offset="100%"></stop>
        </linearGradient>
        <linearGradient x1="-0.0184804928%" y1="49.9786585%" x2="100.039322%" y2="49.9786585%" id="linearGradient-5">
            <stop stop-color="#FBF9F9" stop-opacity="0" offset="0%"></stop>
            <stop stop-color="#EEEFF5" stop-opacity="0.1458" offset="14.58%"></stop>
            <stop stop-color="#DAE1EF" stop-opacity="0.4228" offset="42.28%"></stop>
            <stop stop-color="#CFD9EC" stop-opacity="0.7055" offset="70.55%"></stop>
            <stop stop-color="#CBD6EB" offset="100%"></stop>
        </linearGradient>
        <linearGradient x1="0.0287101248%" y1="49.9786585%" x2="100.014424%" y2="49.9786585%" id="linearGradient-6">
            <stop stop-color="#FBF9F9" stop-opacity="0" offset="0%"></stop>
            <stop stop-color="#EEEFF5" stop-opacity="0.1458" offset="14.58%"></stop>
            <stop stop-color="#DAE1EF" stop-opacity="0.4228" offset="42.28%"></stop>
            <stop stop-color="#CFD9EC" stop-opacity="0.7055" offset="70.55%"></stop>
            <stop stop-color="#CBD6EB" offset="100%"></stop>
        </linearGradient>
        <linearGradient x1="50.0010969%" y1="89.5827422%" x2="50.0010969%" y2="17.2259209%" id="linearGradient-7">
            <stop stop-color="#FABCE5" offset="0%"></stop>
            <stop stop-color="#FBF9F9" stop-opacity="0" offset="100%"></stop>
        </linearGradient>
        <linearGradient x1="-0.0726899384%" y1="49.9786585%" x2="99.9851129%" y2="49.9786585%" id="linearGradient-8">
            <stop stop-color="#FBF9F9" stop-opacity="0" offset="0%"></stop>
            <stop stop-color="#F9F7F8" stop-opacity="0.02937245" offset="2.937245%"></stop>
            <stop stop-color="#E0E5F1" stop-opacity="0.3964" offset="39.64%"></stop>
            <stop stop-color="#D0DAED" stop-opacity="0.7306" offset="73.06%"></stop>
            <stop stop-color="#CBD6EB" offset="100%"></stop>
        </linearGradient>
        <linearGradient x1="49.9537428%" y1="98.1662551%" x2="49.9537428%" y2="0.595679012%" id="linearGradient-9">
            <stop stop-color="#297D9F" offset="0%"></stop>
            <stop stop-color="#2B86A9" offset="53.25%"></stop>
            <stop stop-color="#2D92B6" offset="100%"></stop>
        </linearGradient>
        <linearGradient x1="71.9322763%" y1="-32.713786%" x2="45.007701%" y2="68.7656379%" id="linearGradient-10">
            <stop stop-color="#469BBA" offset="0%"></stop>
            <stop stop-color="#44A8C5" stop-opacity="0.9182" offset="8.177722%"></stop>
            <stop stop-color="#41BDD6" stop-opacity="0.7534" offset="24.66%"></stop>
            <stop stop-color="#3FCCE3" stop-opacity="0.5681" offset="43.19%"></stop>
            <stop stop-color="#3DD4EA" stop-opacity="0.3474" offset="65.26%"></stop>
            <stop stop-color="#3DD7EC" stop-opacity="0" offset="100%"></stop>
        </linearGradient>
        <linearGradient x1="50.1132353%" y1="0.130194805%" x2="50.1132353%" y2="100.027056%" id="linearGradient-11">
            <stop stop-color="#BAE5FF" offset="0%"></stop>
            <stop stop-color="#BDE6FF" stop-opacity="0.7141" offset="28.59%"></stop>
            <stop stop-color="#C7E9FE" stop-opacity="0.4841" offset="51.59%"></stop>
            <stop stop-color="#D8EEFC" stop-opacity="0.2735" offset="72.65%"></stop>
            <stop stop-color="#F0F6FA" stop-opacity="0.07569736" offset="92.43%"></stop>
            <stop stop-color="#FBF9F9" stop-opacity="0" offset="100%"></stop>
        </linearGradient>
        <linearGradient x1="50.1212185%" y1="-0.00614334471%" x2="50.1212185%" y2="99.9798635%" id="linearGradient-12">
            <stop stop-color="#BAE5FF" offset="0%"></stop>
            <stop stop-color="#BDE6FF" stop-opacity="0.7141" offset="28.59%"></stop>
            <stop stop-color="#C7E9FE" stop-opacity="0.4841" offset="51.59%"></stop>
            <stop stop-color="#D8EEFC" stop-opacity="0.2735" offset="72.65%"></stop>
            <stop stop-color="#F0F6FA" stop-opacity="0.07569736" offset="92.43%"></stop>
            <stop stop-color="#FBF9F9" stop-opacity="0" offset="100%"></stop>
        </linearGradient>
        <linearGradient x1="50.0700855%" y1="0.19872093%" x2="50.0700855%" y2="100.029535%" id="linearGradient-13">
            <stop stop-color="#BAE5FF" offset="0%"></stop>
            <stop stop-color="#BDE6FF" stop-opacity="0.7141" offset="28.59%"></stop>
            <stop stop-color="#C7E9FE" stop-opacity="0.4841" offset="51.59%"></stop>
            <stop stop-color="#D8EEFC" stop-opacity="0.2735" offset="72.65%"></stop>
            <stop stop-color="#F0F6FA" stop-opacity="0.07569736" offset="92.43%"></stop>
            <stop stop-color="#FBF9F9" stop-opacity="0" offset="100%"></stop>
        </linearGradient>
        <linearGradient x1="50.1123711%" y1="111.228158%" x2="50.1123711%" y2="-1.05342105%" id="linearGradient-14">
            <stop stop-color="#00FFCE" stop-opacity="0.5" offset="0%"></stop>
            <stop stop-color="#FBF9F9" stop-opacity="0" offset="100%"></stop>
        </linearGradient>
        <linearGradient x1="50.2806122%" y1="111.228158%" x2="50.2806122%" y2="-1.05342105%" id="linearGradient-15">
            <stop stop-color="#00FFCE" stop-opacity="0.5" offset="0%"></stop>
            <stop stop-color="#FBF9F9" stop-opacity="0" offset="100%"></stop>
        </linearGradient>
    </defs>
    <g id="Page-1" stroke="none" stroke-width="1" fill="none" fill-rule="evenodd">
        <g id="3-illustration" transform="translate(0.000000, -18.000000)">
            <path d="M395.9,246.5 C394.1,238.3 391.8,230.2 389,222.5 C415.3,216.4 435,192.9 435,164.7 C435,131.9 408.4,105.4 375.7,105.4 C367.5,105.4 359.6,107.1 352.5,110.1 C348.7,77.7 321.2,52.5 287.8,52.5 C255,52.5 227.8,76.8 223.3,108.4 C209.5,109.5 196.1,112.4 183.5,116.9 C174.8,108.3 162.9,102.9 149.7,102.9 C123.3,102.9 101.8,124.3 101.8,150.8 C101.8,159 103.9,166.7 107.5,173.4 C83.9,204.6 69.7,244.5 69.7,288.1 L400.5,288.1 C400.5,287.9 400.5,287.8 400.5,287.6 L433.5,287.6 C433.3,269.3 417.9,253.5 395.9,246.5 Z" id="Shape" fill="url(#linearGradient-1)" fill-rule="nonzero"></path>
            <path d="M314.8,237.6 C311.9,234.8 308.7,232.1 305.2,229.6 C290,232.8 276.34668,232.831641 260.84668,234.431641 C236.24668,237.031641 210.3,244.4 186.6,252 L175.6,254.6 L175.6,287.8 L343,287.8 L433.4,287.5 C433.3,287.6 354.5,276.2 314.8,237.6 Z" id="Shape" fill="url(#linearGradient-2)" fill-rule="nonzero"></path>
            <path d="M378.2,207.2 L402.9,197.1 C402.9,197.1 351.2,211.8 311.5,173.2 C271.8,134.6 175.5,156.9 175.5,156.9 L175.5,188.5 C175.5,188.5 261,197.5 305.1,229.6 C330.1,224.3 354.6,216.8 378.2,207.2 Z" id="Shape" fill="#7DB5FC" fill-rule="nonzero"></path>
            <path d="M259.2,236.8 C274.7,235.2 290,232.8 305.2,229.6 C261.1,197.5 175.6,188.5 175.6,188.5 L175.6,254.7 L186.6,252.1 C210.3,244.4 234.6,239.3 259.2,236.8 Z" id="Shape" fill="url(#linearGradient-3)" fill-rule="nonzero" opacity="0.2"></path>
            <path d="M175.6,254.6 L188.039062,251.736328 C224.139062,240.536328 261.90625,234.871582 298.5,230.5 C300.8,230.3 303,230 305.2,229.6 C261.1,197.5 175.6,188.4 175.6,188.4 L175.6,254.6 Z" id="Shape" fill="url(#linearGradient-4)" fill-rule="nonzero"></path>
            <ellipse id="Oval" fill="url(#linearGradient-5)" fill-rule="nonzero" cx="256.3" cy="326.9" rx="48.7" ry="8.2"></ellipse>
            <ellipse id="Oval" fill="url(#linearGradient-6)" fill-rule="nonzero" cx="101.4" cy="326.9" rx="72.1" ry="8.2"></ellipse>
            <path d="M301.6,323.4 C298.5,320.1 292,314 292,314 L276.5,321.7 C283.9,324.9 292.6,326.2 300.8,325.3 C301.8,325.2 302.2,324.1 301.6,323.4 Z" id="Shape" fill="#1D2630" fill-rule="nonzero"></path>
            <path d="M267.9,330.1 C267.9,330.1 267.9,330.1 267.9,330.1 C267.9,330 267.9,330 267.9,330.1 C267.9,330 267.9,330 267.9,330.1 C267.8,328.3 262.4,325.2 262.4,325.2 C262,324.7 261.6,324.2 261.3,323.7 C260.5,323 259.8,322.3 259.4,321.2 C259.4,321.2 259.4,321.1 259.4,321.1 C259.3,321 259.3,320.9 259.2,320.8 L242.7,324.9 C242.7,324.9 242.9,325.1 243.2,325.5 C249.6,330.1 259.6,332.3 267.8,331.1 C268,330.8 268,330.4 267.9,330.1 Z" id="Shape" fill="#1D2630" fill-rule="nonzero"></path>
            <circle id="Oval" fill="#FBF9F9" fill-rule="nonzero" cx="241.1" cy="235.7" r="2.5"></circle>
            <path d="M300.3,222.4 C300.3,215.3 301.6,201.9 301.9,197.5 C302.3,192.2 306,161 303.4,154.5 L255.9,149.5 L251.3,155 C251.3,155 247,177.6 247,180.3 C247,182.9 243.2,230.7 242.9,235.9 C242.5,241.2 243.7,274.6 242.9,276.9 C242.1,279.2 243.9,313.4 242.8,316 C241.8,318.6 242.1,322.8 242.7,325 C243.2,327 255.6,322.3 259.6,321.7 C259.3,315 259.5,308.6 260.5,301.8 C261.7,293.5 263.4,285.4 264,277 C264,276.6 264.1,276.3 264.2,276 C265.8,265.2 275.7,216.6 276.2,214.5 C276.8,212.2 273.8,257.7 273.4,259.2 C273,260.7 271.5,272.4 272.6,275.4 C273.7,278.4 276,284.8 274.9,287.1 C273.7,289.4 271.9,302.9 273,307 C274.1,311.1 276.1,313.4 274.9,316.8 C274.2,318.9 274.9,320.5 275.5,321.3 C275.8,321.8 276.5,321.9 277,321.6 L292,314 C292,314 291.9,314 291.9,314 C291.9,314 292,314 292,314 C291.4,307 292.4,299.9 293.9,293.6 C294.6,290.6 295.5,256.3 296.4,253.4 C296.5,249.5 297.6,243.1 298.7,237.4 C298.3,232.3 298.5,227.1 300.3,222.4 Z" id="Shape" fill="#392E6F" fill-rule="nonzero"></path>
            <polygon id="Shape" fill="#1A0840" fill-rule="nonzero" points="303.4 154.5 278.7 159.6 268 159.6 255.3 160 249.8 163.1 251.4 155 286.9 153.1"></polygon>
            <path d="M319,134.7 C314.5,124.7 312.7,113.6 308,103.7 C305,97.2 300.2,92 296.8,85.8 C291.9,81.6 286.5,77.5 282.3,75.3 C271.8,69.9 265.9,74.1 265.9,74.1 C265.9,74.1 246.5,87.4 244.8,91.9 C243.1,96.4 237.2,104.3 235.5,105.4 C233.8,106.5 231.3,106.8 231.3,106.8 C231.3,106.8 228.2,108.5 226.2,106.8 C224.2,105.1 209.3,96.7 205.6,94.1 C201.9,91.6 201.9,91.6 201.9,91.6 L194,101.5 L200.8,105.7 C200.8,105.7 202.8,108.8 204.5,111.1 C206.2,113.4 209.6,122.7 212.1,125.2 C214.6,127.7 226.8,136.5 232.7,134.8 C238.6,133.1 244.3,135.4 246.2,134 C246.2,134 247.3,142.5 247,144.1 C246.7,145.8 244.2,149.2 245.9,152.3 C247.6,155.4 256.6,156 263.1,156 L274.9,156 C277.5,156 279.2,154 281.2,154.3 C283.2,154.6 290.8,155.7 294.3,156 C297.8,156.3 301.5,155.7 303.5,154.6 C303.5,154.6 304.3,159.4 305.5,160.5 C306.7,161.6 313.1,155.1 314.5,152.3 C315.7,149.9 321.1,145.8 320,136.2 C319.6,135.7 319.2,135.3 319,134.7 Z" id="Shape" fill="#FFFFFF" fill-rule="nonzero"></path>
            <path d="M291.7,31.7 C291.4,29.9 289.9,28.6 288.2,28.4 L273.5,26.8 C272.1,26.7 270.8,27.2 270,28.2 L265.9,33.2 C265.5,33.7 265.2,34.4 265,35.1 L262.7,48 C262.5,49.4 261.6,50.6 260.3,51.1 C260.1,51.2 260,51.2 259.9,51.3 C259.8,51.3 259.8,51.4 259.7,51.4 C259.3,51.7 259,52.1 259,52.7 C258.6,54.4 259.4,56.5 260.5,57.8 C261.1,58.5 261.8,58.9 262.8,59.1 C263.5,59.3 264.2,59.5 264.8,59.8 C264.9,60 265,60.2 265.1,60.4 C266,62.8 267.1,67.3 266.5,73 C266.4,74.1 266.7,75.3 267.5,76.1 C269.3,78.1 272.8,81.4 275.6,80.8 C279.5,80 281.6,74.1 284.9,70.6 C287.8,67.3 297.3,64.1 291.7,31.7 Z" id="Shape" fill="#FFC8C1" fill-rule="nonzero"></path>
            <polygon id="Shape" fill="url(#linearGradient-7)" fill-rule="nonzero" opacity="0.5" points="61 146.9 30.7 1.1 194.8 0.6 166.2 147.2"></polygon>
            <path d="M184.3,86.8 L181.5,83.6 C181.5,83.6 179.9,80.9 179.2,80.1 C178.5,79.2 177.6,77.9 177.4,77.2 C177.1,76.5 175.3,73 175.4,72.1 C175.5,71.3 175.4,70.3 175.4,70.3 C175.4,70.3 178.4,69.5 178.9,68.9 C179.4,68.3 182.3,68.5 186.1,69.7 C189.9,71 195.1,80 195.1,80 C195.1,80 194.7,77.3 195.4,76.3 C196.1,75.3 194.6,72.8 195.4,71.9 C196.2,71 197.2,73.2 198.2,75.7 C199.2,78.2 199.9,82 199.9,83 C199.9,84 201.9,91.6 201.9,91.6 L195.7,99.3 L184.3,86.8 Z" id="Shape" fill="#FFC8C1" fill-rule="nonzero"></path>
            <ellipse id="Oval" fill="url(#linearGradient-8)" fill-rule="nonzero" cx="361.2" cy="326.9" rx="48.7" ry="8.2"></ellipse>
            <path d="M385.9,317.7 C385.9,317.7 383,325.1 387.2,326.2 C391.4,327.3 397.3,331.7 400.7,330.6 C403.2,329.8 399.1,326.3 396.4,323.4 C395.5,322.4 394.4,321.8 394.2,321 C393.5,317.8 385.9,317.7 385.9,317.7 Z" id="Shape" fill="#392E6F" fill-rule="nonzero"></path>
            <path d="M396.1,307.4 L385.8,306.7 C385.9,308.3 385.8,310.9 385.8,312.3 C385.8,314.6 385.9,315.9 386,318.1 C386.9,320.2 389.5,321.9 391.5,322.8 C393.4,323.7 394.4,322.7 394.4,320.9 L396.1,307.4 Z" id="Shape" fill="#FB8C7A" fill-rule="nonzero"></path>
            <path d="M400.1,164.2 C393.4,146.2 391.5,150.7 391.5,150.7 L356,150.7 C356,150.7 351.7,173.1 349.2,188 C346.7,202.9 346.7,244.4 348.2,260.9 C349.7,277.4 350.3,310.2 350.3,310.2 L360.3,311 C360.3,311 366.8,265.1 368.2,253.6 C369.7,242.1 375.9,193.6 375.9,193.6 C375.9,193.6 383.2,252.4 383,260.9 C383,262.7 383,265.5 383,268.9 C383.1,270.6 383.2,272.3 383.4,274 C383.7,277.7 384.4,281.4 384.7,285.1 C385.3,292.2 385.7,303.8 385.7,311 L395.5,311 C395.5,311 398,294.6 399.6,279.7 C401.6,260.4 403.9,237.5 404,234.5 C404.3,229.1 406.9,182.5 400.1,164.2 Z" id="Shape" fill="#0870E5" fill-rule="nonzero"></path>
            <path d="M395.1,64.6 C394.4,61.5 393.9,57.9 393.6,53.8 C392.7,40.2 386.6,24.6 372.9,24 C368.2,23.8 364.8,25.7 362.4,28.2 C360.4,29.8 358.2,31.4 357,33.7 C356.1,35.3 355.4,38.2 356.8,39.8 C356.8,39.8 356.9,39.8 356.9,39.9 C356.9,40.1 356.8,40.3 356.8,40.3 L355.1,57.6 C353.9,59.3 352.9,60.8 352,62.2 C348.3,66.7 345,71.9 345.7,78 C346.1,81.7 348,84.7 350.7,86.7 C353.8,89.4 357.7,91 357.7,91 L375.2,81 C375.2,81 386.3,88.6 392.7,90.6 C392.8,90.6 392.9,90.7 393,90.7 C393.2,91.6 394.2,92.4 395.3,91.8 C404.4,86.6 399.2,72.8 395.1,64.6 Z" id="Shape" fill="#502900" fill-rule="nonzero"></path>
            <path d="M355.4,61 C355.4,61 355.5,82.7 363.9,82.9 C372.3,83.1 371.6,80.1 371.6,80.1 L366.5,71.4 L355.4,61 Z" id="Shape" fill="#3B1D00" fill-rule="nonzero"></path>
            <path d="M368.7,78.8 C368.7,78.8 349.2,93.9 344.8,110.9 L351.6,114.1 C351.6,114.1 351.3,117.6 352.2,119.8 C353.1,122 354.7,126.9 354.7,126.9 C354.7,126.9 356.7,148.2 356.8,150.6 L393,150.6 C393,150.6 393,116.1 393,114.6 L404.3,110.8 C404.3,110.8 403.5,97.5 380.7,77.1 L368.7,78.8 Z" id="Shape" fill="#FFE259" fill-rule="nonzero"></path>
            <polygon id="Shape" fill="#FDCF59" fill-rule="nonzero" points="356.6 149.7 369.4 140.4 393 148.5 374 128.7 356.1 136.7"></polygon>
            <path d="M404.3,110.9 C404.3,110.9 411.9,138.7 404.3,147.5 C396.4,156.5 369.8,133.8 363.5,132.3 C357.2,130.8 375.5,126 375.5,126 L393.3,130 L393.1,114.6 L404.3,110.9 Z" id="Shape" fill="#FC9A90" fill-rule="nonzero"></path>
            <path d="M403.3,141.9 C403.3,141.9 391.1,145.5 383.5,138 C375.9,130.5 369.1,132.8 369.1,132.8 L376,128 L390.3,132.2 L403.3,141.9 Z" id="Shape" fill="#F66F66" fill-rule="nonzero"></path>
            <path d="M388.2,123.3 C379.9,121.7 348.7,128.1 348.7,128.1 L352.1,119.8 C351.7,118.6 351.5,117.4 351.5,116.2 C351.5,115.5 351.6,114.9 351.7,114.3 L344.7,111 C341.4,117.4 339.1,124.3 338.6,130.8 C337,155.2 363.8,135.8 363.8,135.8 C363.8,135.8 374.9,128.7 378.1,129.8 C381.3,130.8 387.8,137.9 389.2,138.5 C390.6,139.1 400.7,142.1 400.7,142.1 L403.3,141.9 L403.3,132 C403.3,132 396.5,124.9 388.2,123.3 Z" id="Shape" fill="#FB8C7A" fill-rule="nonzero"></path>
            <path d="M353.4,122.4 C352.1,120.9 351.7,119.3 351.5,117.4 C351.4,116.7 351.4,115.9 351.5,115.1 L351,113.6 C351,113.6 339,127 338.8,128.5 C338.6,130 338.2,137.6 339.8,139.6 C341.5,141.6 356,130.5 356,130.5 L353.7,122.7 C353.7,122.6 353.6,122.5 353.4,122.4 Z" id="Shape" fill="#F66F66" fill-rule="nonzero"></path>
            <path d="M366.9,124.9 C366.9,124.9 357.9,119.8 356.3,119.9 C354.8,120 347.6,122.7 345.9,124.9 C344.2,127.1 341.9,130.1 342.1,131.6 C342.3,133.1 344.2,135 344.8,134.1 C345.4,133.2 347.3,133 347.3,133 L349.4,132.8 L351.9,132.8 L366.9,124.9 Z" id="Shape" fill="#FC9A90" fill-rule="nonzero"></path>
            <path d="M350.5,317.4 L340.3,323.6 C339.6,323.8 339.1,324.7 339.5,325.4 C339.9,326.4 340.9,327.4 343.1,327.3 C345.4,327.2 350.5,326.4 354.3,325.9 C355.5,325.7 358,325.9 358.9,324.5 C360.1,322.6 359.6,318.8 359.7,317.3 L356,318.9 L350.5,317.4 Z" id="Shape" fill="#392E6F" fill-rule="nonzero"></path>
            <path d="M352.8,320.6 L353.6,320.6 C355.9,319.9 357.7,318.5 359.6,317.2 L360.3,311.1 L350.3,310.3 L350.4,318 C350.3,319.4 351.4,320.6 352.8,320.6 Z" id="Shape" fill="#FB8C7A" fill-rule="nonzero"></path>
            <path d="M383.2,64.9 C382.1,69.1 380.8,74 379.9,78.3 C377.8,87.3 371.3,89 369.1,87.1 C367,85.2 368,79.8 369,78.1 C370,76.4 365.6,73.4 365.6,73.4 C365.6,73.4 358.3,69.3 356,63.4 C353.7,57.6 356.9,40.1 356.9,40.1 C356.9,40.1 357.1,39.2 359.9,39.5 C362.7,39.9 373.8,31.4 373.8,31.4 C373.8,31.4 376.1,31.6 378.1,34.8 C379.1,36.3 380.7,40.8 382.2,45.3 C382.3,46 382.4,46.7 382.5,47.4 C382.6,47.6 384.1,54.7 383.2,64.9 Z" id="Shape" fill="#FB8C7A" fill-rule="nonzero"></path>
            <path d="M291.2,26.6 C291,25.5 290.3,24.4 287.8,23.6 C283.8,22.3 277.9,19 270.1,23.6 C262.8,27.9 255.4,39.1 259.8,51.3 C260.1,52.3 261.5,52.3 261.8,51.3 L267.5,34.3 C268.2,32.2 270.2,30.7 272.4,30.6 C274.2,30.5 276.4,30.6 278.3,30.8 C280.2,31.1 283,30.9 285.5,30.6 C286.4,30.6 287.3,30.5 288.2,30.3 C289.2,30.1 290.5,29.9 291.2,29 C292.1,28.2 291.8,27.3 291.2,26.6 Z" id="Shape" fill="#1A0840" fill-rule="nonzero"></path>
            <ellipse id="Oval" fill="#1A0840" fill-rule="nonzero" transform="translate(276.995970, 45.692670) rotate(-7.648786) translate(-276.995970, -45.692670) " cx="276.99597" cy="45.69267" rx="1.09999715" ry="1.79999534"></ellipse>
            <ellipse id="Oval" fill="#1A0840" fill-rule="nonzero" transform="translate(290.602630, 44.696110) rotate(-7.648786) translate(-290.602630, -44.696110) " cx="290.60263" cy="44.69611" rx="1.09999715" ry="1.79999534"></ellipse>
            <ellipse id="Oval" fill="#1A0840" fill-rule="nonzero" transform="translate(360.302050, 49.192990) rotate(-7.648786) translate(-360.302050, -49.192990) " cx="360.30205" cy="49.19299" rx="1.09999715" ry="1.79999534"></ellipse>
            <ellipse id="Oval" fill="#1A0840" fill-rule="nonzero" transform="translate(372.894900, 48.090920) rotate(-7.648786) translate(-372.894900, -48.090920) " cx="372.8949" cy="48.09092" rx="1.09999715" ry="1.79999534"></ellipse>
            <path d="M285.3,42.5 C285.3,42.5 293,41.5 294.7,41.8 C294.7,41.8 294.7,47.2 294,47.8 C293.3,48.4 288,49.1 286.9,48.3 C286,47.5 285.3,42.5 285.3,42.5 Z" id="Shape" stroke="#1A0840" stroke-linecap="round" stroke-linejoin="round"></path>
            <path d="M283.8,55.7 C285.6,55.1 288.3,54.6 288.1,52.2 C287.7,48.6 286.1,44.9 284.5,41.8 C284.2,41.2 283.3,41.7 283.6,42.3 C284.7,44.4 285.6,46.6 286.3,48.9 C286.5,49.7 286.9,50.8 287,51.6 C287.1,54 285.4,54.1 283.6,54.8 C283,55 283.2,55.9 283.8,55.7 Z" id="Shape" fill="#A22D13" fill-rule="nonzero"></path>
            <path d="M277.1,57.7 C277,57.5 276.9,57.4 276.7,57.3 C276.4,57.2 276.2,57.3 275.9,57.4 C275.9,57.3 275.8,57.3 275.7,57.3 C275.6,57.2 275.5,57 275.5,56.9 C275.4,56.2 274.4,56.2 274.5,56.9 C274.5,57.2 274.7,57.5 274.8,57.8 C274.5,58.5 274.6,59.4 275.3,59.9 C275.4,60 275.6,60 275.8,60 C275.9,60.2 276,60.5 276.1,60.7 C276.4,61.2 277.1,61 277.1,60.4 C277.2,59.6 277.3,58.5 277.1,57.7 Z" id="Shape" fill="#FF3A61" fill-rule="nonzero"></path>
            <path d="M278.8,57.6 C277.5,57.1 276,56.7 275.1,55.5 C274.9,55.2 274.4,55.1 274.2,55.5 C273.5,56.7 274,58.7 274.7,59.9 C275.5,61.3 277.1,61.6 278.5,61.8 C279.1,61.9 279.1,60.9 278.5,60.8 C277.4,60.7 276.1,60.5 275.5,59.4 C275,58.6 274.6,56.8 275,56 C274.7,56 274.4,56 274.1,56 C275.2,57.4 276.8,57.9 278.4,58.5 C279.1,58.8 279.4,57.8 278.8,57.6 Z" id="Shape" fill="#A22D13" fill-rule="nonzero"></path>
            <path d="M274.4,41.3 C275.6,40.5 277,40.2 278.5,40.4 C279.1,40.5 279.4,39.5 278.8,39.4 C277.1,39.1 275.4,39.4 274,40.4 C273.4,40.8 273.9,41.7 274.4,41.3 Z" id="Shape" fill="#1A0840" fill-rule="nonzero"></path>
            <path d="M287.8,39.7 C288.8,39.5 289.8,39.4 290.7,40 C291.2,40.4 291.7,39.5 291.2,39.1 C290.1,38.4 288.8,38.5 287.5,38.7 C286.9,38.9 287.1,39.8 287.8,39.7 Z" id="Shape" fill="#1A0840" fill-rule="nonzero"></path>
            <path d="M365.9,57.4 C365.1,57.2 363.3,56.8 363.1,56 C362.9,55.4 363.9,54.2 364.1,53.5 C364.7,51.8 365,50 365.2,48.3 C365.3,47.7 364.3,47.7 364.2,48.3 C364,49.8 363.8,51.3 363.3,52.7 C362.9,54 362,54.9 361.5,56.1 C361.4,56.3 361.5,56.5 361.6,56.6 C362.6,57.5 364.3,57.9 365.5,58.3 C366.3,58.6 366.5,57.6 365.9,57.4 Z" id="Shape" fill="#1A0840" fill-rule="nonzero"></path>
            <path d="M358.6,44.4 C359.4,44 360.4,43.7 361.2,44.2 C361.8,44.5 362.3,43.7 361.7,43.3 C360.5,42.6 359.2,43 358.1,43.5 C357.5,43.8 358,44.6 358.6,44.4 Z" id="Shape" fill="#502900" fill-rule="nonzero"></path>
            <path d="M370.4,43.6 C371.4,43.1 372.7,43.2 373.6,43.9 C374.1,44.3 374.8,43.6 374.3,43.2 C373,42.2 371.3,42 369.9,42.7 C369.4,43 369.9,43.9 370.4,43.6 Z" id="Shape" fill="#502900" fill-rule="nonzero"></path>
            <path d="M370.2,62.4 C372.3,63 374.8,62.2 375.2,59.8 C375.3,59.2 374.3,59.2 374.2,59.8 C374,61.6 371.9,61.8 370.5,61.4 C369.9,61.3 369.6,62.2 370.2,62.4 Z" id="Shape" fill="#D8483D" fill-rule="nonzero"></path>
            <path d="M373,75.4 C372.4,74 365.6,73.5 365.6,73.5 C369.3,76.3 369.5,77.6 369,78.2 C369,78.3 369,78.5 369,78.6 C369,78.6 369,78.7 369,78.7 C371.4,78.5 373.6,76.7 373,75.4 Z" id="Shape" fill="#F66F66" fill-rule="nonzero"></path>
            <path d="M354.6,103.4 C352.4,106.8 350.9,110.4 350.1,114.3 C349.8,115.6 351.8,116.1 352,114.8 C352.8,111 354.2,107.6 356.3,104.3 C357.1,103.4 355.3,102.4 354.6,103.4 Z" id="Shape" fill="#FF9226" fill-rule="nonzero"></path>
            <path d="M394.1,113.7 C392.1,109.2 390,104.7 388,100.2 C387.5,99 385.7,100 386.3,101.2 C388.3,105.7 390.4,110.2 392.4,114.7 C392.9,115.9 394.7,114.9 394.1,113.7 Z" id="Shape" fill="#FF9226" fill-rule="nonzero"></path>
            <polygon id="Shape" fill="#F66F66" fill-rule="nonzero" points="394.3 114.3 396.8 126.9 393.3 125 393 114.8"></polygon>
            <path d="M400.7,141.2 C397.5,139.1 394.3,137 391.2,134.8 C390.7,134.4 390.2,135.3 390.7,135.7 C393.8,137.9 397,140 400.2,142.1 C400.7,142.5 401.2,141.6 400.7,141.2 Z" id="Shape" fill="#EC7269" fill-rule="nonzero"></path>
            <path d="M403.4,139.6 C400.9,136.2 397.9,133.2 394.4,130.8 C393.9,130.4 393.4,131.3 393.9,131.7 C397.2,134 400.1,136.8 402.5,140.1 C403,140.6 403.8,140.1 403.4,139.6 Z" id="Shape" fill="#EC7269" fill-rule="nonzero"></path>
            <path d="M403.4,134.3 C401.2,132.2 398.7,130.4 396,128.8 C395.4,128.5 394.9,129.3 395.5,129.7 C398.1,131.2 400.5,133 402.7,135 C403.2,135.4 403.9,134.7 403.4,134.3 Z" id="Shape" fill="#EC7269" fill-rule="nonzero"></path>
            <path d="M344.5,133.8 C346.9,131.4 349.7,129.4 352.7,127.8 C353.3,127.5 352.8,126.6 352.2,126.9 C349.1,128.5 346.3,130.6 343.8,133.1 C343.3,133.6 344,134.3 344.5,133.8 Z" id="Shape" fill="#EC7269" fill-rule="nonzero"></path>
            <path d="M342.7,131.7 C345.3,128.4 348.6,126 352.6,124.7 C353.2,124.5 352.9,123.5 352.3,123.7 C348.2,125.1 344.7,127.6 342,131 C341.6,131.5 342.3,132.2 342.7,131.7 Z" id="Shape" fill="#EC7269" fill-rule="nonzero"></path>
            <path d="M396.5,155.5 C396.5,155.2 396.4,154.9 396.4,154.7 C396.2,154.6 396.1,154.5 395.8,154.5 C382.4,154.3 369.1,154.1 355.7,153.8 C355.6,154.5 355.4,155.1 355.1,155.7 C355.3,155.8 355.4,155.9 355.7,155.9 C369.1,156.1 382.4,156.3 395.8,156.6 C396.2,156.6 396.5,156.4 396.7,156.1 C396.6,155.9 396.5,155.7 396.5,155.5 Z" id="Shape" fill="#0A33E2" fill-rule="nonzero"></path>
            <path d="M390,156.6 C390.8,159.9 392.6,162.7 394.5,165.4 C395.9,167.5 397.5,169.3 400,170.1 C401.2,170.5 401.8,168.6 400.5,168.2 C398,167.4 396.7,165.1 395.3,163.1 C393.8,160.9 392.5,158.7 391.9,156.1 C391.6,154.8 389.7,155.4 390,156.6 Z" id="Shape" fill="#0A33E2" fill-rule="nonzero"></path>
            <path d="M371.6,227 C371.6,227 364.4,192.5 370,187.4 C370,187.4 376,192.6 375.3,198.2 C374.6,203.8 371.6,227 371.6,227 Z" id="Shape" fill="#134EDF" fill-rule="nonzero"></path>
            <path d="M376,192 C373.5,188.7 370.8,185.6 368,182.7 C367.1,181.7 365.6,183.2 366.5,184.2 C369.6,187.4 372.6,190.8 375.2,194.5 C375.5,194.8 375.8,195 376.2,194.9 C376,193.9 376,192.9 376,192 Z" id="Shape" fill="#0A33E2" fill-rule="nonzero"></path>
            <path d="M374,188.8 C374,178 374,167.2 374,156.5 C374,155.2 372,155.2 372,156.5 C372,167.3 372,178.1 372,188.8 C372,190 374,190 374,188.8 Z" id="Shape" fill="#0A33E2" fill-rule="nonzero"></path>
            <path d="M366.6,155.5 C367.4,164.2 367.2,173.3 371.7,181.2 C372.3,182.3 374.1,181.3 373.4,180.2 C369.1,172.7 369.4,163.9 368.6,155.5 C368.4,154.3 366.4,154.3 366.6,155.5 Z" id="Shape" fill="#0A33E2" fill-rule="nonzero"></path>
            <path d="M365.1,276.4 C365.1,276.4 357.8,290.1 358,294 C358.3,297.9 358,303.2 358,303.2 L356.4,310.3 L360.2,311.1 L365.1,276.4 Z" id="Shape" fill="#2190F4" fill-rule="nonzero"></path>
            <path d="M400.9,267.3 C400.9,267.3 396,275.6 396,280.3 C396,285 394.7,293.4 394.4,296.6 C394.1,299.7 393.2,306.7 393.2,306.7 L393.2,311 L395.5,311 L400.9,267.3 Z" id="Shape" fill="#2190F4" fill-rule="nonzero"></path>
            <polygon id="Shape" fill="#CC625C" fill-rule="nonzero" points="360.3 311.1 350.4 315 350.3 310.3"></polygon>
            <polygon id="Shape" fill="#CC625C" fill-rule="nonzero" points="395.6 311.1 385.7 314.6 385.8 311.1"></polygon>
            <path d="M292.4,315.5 C292.7,314.6 294.1,313.3 295.1,313.5 C295.6,313.2 295.8,313.4 295.6,314 C295.3,314.4 295,314.8 294.6,315.2 C293.6,316.3 292.4,317.3 291.2,318.2 C290.8,318.5 291.2,319.1 291.7,319 C294.5,318.3 297.4,317.7 300.2,317 C300.8,316.9 300.6,315.9 299.9,316 C297.1,316.7 294.2,317.3 291.4,318 C291.6,318.3 291.7,318.6 291.9,318.8 C292.9,318 298.2,314.2 296.7,312.5 C296.2,311.9 294.7,312.4 294.1,312.6 C292.8,313 291.9,313.8 291.4,315.1 C291.2,315.8 292.2,316.1 292.4,315.5 Z" id="Shape" fill="#1D2630" fill-rule="nonzero"></path>
            <path d="M258.3,323.8 C258.9,323 259.7,322.2 260.5,321.6 C260.9,321.3 261.3,321 261.8,320.8 C262,320.7 262.2,320.6 262.4,320.5 C262.6,320.4 262.8,320.1 262.5,320.6 C261.4,322.4 259.4,323.7 257.7,324.8 C257.2,325.1 257.7,326 258.2,325.7 C258.9,325.3 260,325.2 260.8,325.1 C261.7,324.9 262.5,324.7 263.4,324.6 C264,324.5 263.8,323.5 263.1,323.6 C262.1,323.8 261.1,324 260.2,324.2 C259.4,324.4 258.5,324.4 257.8,324.9 C258,325.2 258.1,325.5 258.3,325.8 C259.6,324.9 261,324.1 262.1,323 C262.7,322.4 264.2,321 263.8,320 C263,317.9 258.3,322.6 257.7,323.4 C257.2,323.6 257.9,324.3 258.3,323.8 Z" id="Shape" fill="#1D2630" fill-rule="nonzero"></path>
            <path d="M295.5,265.1 C295.5,265.1 288.8,295.7 288.8,304.2 C288.8,312.7 285.7,317.1 285.7,317.1 L292.1,313.9 C292.1,313.9 291.9,299.7 294.1,292.3 L295.5,265.1 Z" id="Shape" fill="#7E78B5" fill-rule="nonzero"></path>
            <path d="M262.9,286.5 C262.9,286.5 256.6,313.6 255.3,315.6 C254,317.6 249.6,317.7 249.6,317.7 L251.6,320.8 L256.7,321.3 L256.9,322.2 L259.4,321.2 L262.9,286.5 Z" id="Shape" fill="#7E78B5" fill-rule="nonzero"></path>
            <path d="M276.8,214.4 C276.2,209.7 280,205.4 281.2,201 C281.5,200 281.4,198.7 281.8,197.8 C282.4,196.5 283.4,195.9 284.5,195.3 C286.3,194.3 288,193.1 289.5,191.8 C290,191.4 289.3,190.7 288.8,191.1 C287.5,192.2 286.2,193.2 284.7,194.1 C283.8,194.6 282.6,195 281.8,195.7 C280.4,197 280.5,199.2 280.1,200.9 C278.9,205.6 275,209.8 275.7,214.8 C276,215.3 276.9,215 276.8,214.4 Z" id="Shape" fill="#1A0840" fill-rule="nonzero"></path>
            <path d="M261.9,161 C261.1,164 260.2,167 259.2,169.9 C258.7,171.4 258.1,172.8 257.6,174.3 C257.2,175.4 256.7,176.5 256.2,177.6 C255.8,178.6 255.8,179.3 254.5,179.5 C253.2,179.7 253.4,179.1 253.2,177.9 C253,176.9 252.9,175.9 252.8,174.9 C252.7,173.4 252.7,171.9 252.7,170.3 C252.8,167.1 253.2,163.9 253.5,160.7 C253.6,160.1 252.6,160.1 252.5,160.7 C252,165.3 251.4,169.9 251.7,174.4 C251.8,176 251.7,180.9 253.8,181.5 C256.4,182.2 257.8,176.2 258.5,174.6 C260.2,170.3 261.6,165.9 262.8,161.4 C263,160.6 262.1,160.3 261.9,161 Z" id="Shape" fill="#1A0840" fill-rule="nonzero"></path>
            <path d="M253.3,180.7 C253.7,200.3 250.9,219.6 249.2,239.1 C248.4,248.8 247.9,258.5 248.1,268.3 C248.2,273.4 248,278.3 247.2,283.3 C246.5,287.7 246,292 246.1,296.5 C246.3,302.1 245.2,307.2 244.3,312.6 C243.6,316.7 243.5,320.7 245.3,324.5 C245.6,325.1 246.4,324.6 246.2,324 C244.1,319.5 245,314.6 245.9,309.9 C246.7,305.7 247.3,301.8 247.2,297.5 C246.9,288.2 249.3,279.2 249.2,269.8 C248.9,250.7 251.1,231.9 252.8,212.9 C253.8,202.2 254.5,191.5 254.3,180.8 C254.3,180.1 253.3,180.1 253.3,180.7 Z" id="Shape" fill="#1A0840" fill-rule="nonzero"></path>
            <path d="M279.3,158.9 C281.1,165.5 283.2,173.2 282.1,180.1 C281.2,185.8 278.5,191.3 280.7,197 C280.9,197.6 281.9,197.3 281.7,196.7 C279.2,190.2 283.2,183.9 283.4,177.4 C283.6,171.1 282,164.5 280.4,158.5 C280.1,158.1 279.1,158.3 279.3,158.9 Z" id="Shape" fill="#1A0840" fill-rule="nonzero"></path>
            <path d="M283.9,194.6 C285.7,189 285.8,182.7 286.5,176.9 C287.3,170.4 288.1,163.9 289,157.4 C289.1,156.8 288.1,156.8 288,157.4 C287.2,163.6 286.4,169.8 285.7,176 C285.3,178.9 285,181.9 284.6,184.8 C284.2,188 284,191.3 283,194.4 C282.7,195 283.7,195.3 283.9,194.6 Z" id="Shape" fill="#1A0840" fill-rule="nonzero"></path>
            <path d="M272.3,43.7 C272.3,43.7 280,42.7 281.7,43 C281.7,43 281.7,48.4 281,49 C280.3,49.6 275,50.3 273.9,49.5 C272.9,48.7 272.3,43.7 272.3,43.7 Z" id="Shape" stroke="#1A0840" stroke-linecap="round" stroke-linejoin="round"></path>
            <path d="M281.7,42.9 L285.3,42.5" id="Shape" stroke="#1A0840" stroke-linecap="round" stroke-linejoin="round"></path>
            <path d="M272.3,43.7 L261,48.1" id="Shape" stroke="#1A0840" stroke-linecap="round" stroke-linejoin="round"></path>
            <path d="M264.6,59.9 C264.6,59.9 265.4,59.6 266,60.2 C266.6,60.8 266.1,65 266.1,65 L264.6,59.9 Z" id="Shape" fill="#F79087" fill-rule="nonzero"></path>
            <path d="M285.7,69.7 C285.7,69.7 277.9,69.9 278,72.6 C278.2,75.2 281.8,74.5 281.8,74.5 L285.7,69.7 Z" id="Shape" fill="#FFDCD9" fill-rule="nonzero"></path>
            <path d="M265.7,83 C265,81.2 264.8,79.2 265.3,77.3 C265.4,77 265.5,76.7 265.7,76.4 L265.5,74.4 L258.9,79.2 L266.8,86.3 L266.6,84.5 C266.1,84 265.9,83.5 265.7,83 Z" id="Shape" fill="#BAD3F7" fill-rule="nonzero"></path>
            <path d="M275,80.7 C273,83.1 271.2,85.7 269.6,88.4 C269.8,88.3 270.1,88.3 270.3,88.2 C265,85.4 265.3,79.1 266.3,74 C266.4,73.4 265.5,73.1 265.3,73.7 C264.2,79.2 264.1,86 269.7,89 C269.9,89.1 270.2,89.1 270.4,88.8 C272,86.2 273.7,83.7 275.6,81.3 C276.1,80.9 275.4,80.2 275,80.7 Z" id="Shape" fill="#33AFF4" fill-rule="nonzero"></path>
            <path d="M275.4,81.4 C277.4,83.4 279.2,85.7 281.9,86.7 C282.2,86.8 282.5,86.5 282.5,86.2 C282.5,84.2 282.5,82.1 282.6,80.1 C282.6,78.4 282.8,76.7 282.1,75.1 C281.9,74.5 280.9,74.8 281.1,75.4 C281.8,77.1 281.5,79.2 281.5,81 C281.5,82.8 281.5,84.5 281.4,86.3 C281.6,86.1 281.8,86 282,85.8 C279.4,84.8 277.8,82.6 275.9,80.7 C275.7,80.3 275,81 275.4,81.4 Z" id="Shape" fill="#33AFF4" fill-rule="nonzero"></path>
            <path d="M274.1,134.9 C273,134.3 273.3,132.6 274.5,132.4 C281.4,131.4 294.3,129.8 295.5,130.4 C297.1,131.3 299,134.5 294.8,136.1 C290.6,137.7 284.1,142 278,141.6 C272,141.2 275.9,137.7 276.1,136.6 C276.3,136.3 275.3,135.6 274.1,134.9 Z" id="Shape" fill="#BAD3F7" fill-rule="nonzero"></path>
            <path d="M281.5,153.6 C282.1,150.2 287.2,145.8 282.6,143.1 C280.4,141.8 280.5,140 280.8,137.7 C281,136.1 281.1,134.4 281.2,132.8 C281.5,129 281.6,125.2 281.6,121.4 C281.6,114.7 281.6,107.9 279.7,101.5 C277.8,95.1 274.8,88.9 275.6,82 C275.7,81.4 274.7,81.4 274.6,82 C273.8,88.2 276.2,93.9 278.1,99.7 C280.3,106.5 280.6,113.4 280.6,120.5 C280.6,124 280.5,127.4 280.3,130.9 C280.2,132.7 280.1,134.5 279.9,136.3 C279.8,137.8 279.3,139.5 279.5,141 C279.8,143.7 282.7,143.2 283.5,145.5 C284.4,148.1 281,150.9 280.6,153.5 C280.5,153.9 281.4,154.2 281.5,153.6 Z" id="Shape" fill="#33AFF4" fill-rule="nonzero"></path>
            <g id="Group" transform="translate(279.000000, 91.000000)" fill="#33AFF4" fill-rule="nonzero">
                <path d="M4.5,11.9 C4.6,11.8 4.7,11.8 4.7,11.7 C5.1,11.6 5.3,11.2 5.3,10.7 C5.3,10.2 4.8,9.8 4.3,9.8 C4.1,9.8 4,9.9 3.8,9.9 C3.6,10 3.4,10.1 3.3,10.2 C3.2,10.3 3.1,10.4 3,10.6 C2.9,10.8 2.9,11.1 3.1,11.2 C3.3,11.4 3.5,11.6 3.7,11.8 C4,12.1 4.3,12.1 4.5,11.9 Z" id="Shape"></path>
                <path d="M5.4,20.5 C5.4,20.5 5.4,20.5 5.4,20.5 C5.3,20.3 5.3,20.2 5.3,20.1 C5.3,20 5.2,19.8 5,19.8 C4.8,19.4 4.2,19.4 4.1,19.9 C3.9,20.6 3.6,21.7 4.1,22.5 C4.5,23.2 5.4,22.9 5.7,22.3 C5.9,21.7 6,20.9 5.4,20.5 Z" id="Shape"></path>
                <path d="M2.2,1.1 C2.2,0.8 1.9,0.6 1.7,0.6 C1.6,0.5 1.4,0.5 1.2,0.5 C0.9,0.5 0.7,0.7 0.7,1 C0.5,1.2 0.4,1.6 0.5,2 C0.6,2.2 0.7,2.3 0.8,2.4 C0.8,2.6 0.9,2.7 1,2.9 C1.2,3.2 1.6,3.2 1.9,2.9 C1.9,2.8 2,2.8 2,2.7 C2.4,2.4 2.5,1.8 2.4,1.4 C2.3,1.2 2.2,1.1 2.2,1.1 Z" id="Shape"></path>
            </g>
            <path d="M303.5,136.5 C303.5,136.2 303.6,135.8 303.8,135.6 C304.8,134.7 307.4,132.8 310.3,134.3 C311.8,135.1 311.5,136 310.6,136.7 C309.9,137.2 310.1,138.3 310.9,138.5 C311.2,138.6 311.4,138.8 311.4,139 C311.3,139.8 307.6,141.3 305.7,142.1 C305.1,142.4 304.4,141.9 304.3,141.3 L303.5,136.5 Z" id="Shape" fill="#BAD3F7" fill-rule="nonzero"></path>
            <path d="M303.7,154.3 C305.3,147.6 304.5,140.9 304,134.2 C303.4,126.5 303.8,119.2 307.3,112.2 C307.6,111.6 306.7,111.1 306.4,111.7 C303.3,118 302.4,124.5 302.8,131.5 C303.2,139.1 304.5,146.6 302.8,154.1 C302.6,154.7 303.5,155 303.7,154.3 Z" id="Shape" fill="#33AFF4" fill-rule="nonzero"></path>
            <path d="M253.1,122.9 C253.1,122.9 252.7,140.2 251.6,141.8 C250.6,143.4 248.8,144.9 250.7,147.2 C252.6,149.5 258.6,153.7 253.1,155.3 C253.1,155.3 243.6,155.1 245.8,147.5 C248,139.9 245.3,136.9 247.3,133.1 C248.6,130.9 253.1,122.9 253.1,122.9 Z" id="Shape" fill="#BAD3F7" fill-rule="nonzero"></path>
            <path d="M202.3,107.9 C202.3,107.9 214.3,124.2 216.6,125.8 C218.8,127.4 227.9,130.9 230.4,131.3 C232.9,131.7 241,132 242.3,132 C243.6,132 248.7,130.9 248.1,132 C247.5,133.1 247,135.3 241.2,134.3 C235.3,133.2 234.6,135.8 230.9,135 C227.2,134.3 217.3,130.8 212.3,125.2 C207.1,119.5 202.3,107.9 202.3,107.9 Z" id="Shape" fill="#BAD3F7" fill-rule="nonzero"></path>
            <path d="M246.2,134.1 C251.2,132.2 252,126 254.2,121.8 C255.6,119.3 257.6,117.2 259.1,114.8 C260.5,112.5 260,110.2 259.3,107.8 C259.1,107.2 258.2,107.4 258.3,108.1 C258.8,109.7 259.4,111.5 258.8,113.2 C258.4,114.5 257.3,115.6 256.5,116.6 C255.3,118.1 254.3,119.7 253.4,121.3 C251.3,125.1 250.5,131.4 246,133.1 C245.4,133.4 245.6,134.3 246.2,134.1 Z" id="Shape" fill="#33AFF4" fill-rule="nonzero"></path>
            <path d="M201.3,105.4 C202.1,103.4 202.7,99.9 204.6,98.7 C205.2,98.3 205.9,98.1 206.5,97.6 C206.7,97.4 207.2,96.2 207.3,96.2 C207.9,96 207.7,95.1 207,95.2 C206.3,95.4 206.4,95.7 206.1,96.2 C205.4,97.3 204.2,97.4 203.3,98.3 C201.7,100 201.1,103 200.3,105 C200.1,105.7 201.1,105.9 201.3,105.4 Z" id="Shape" fill="#33AFF4" fill-rule="nonzero"></path>
            <path d="M199,101.4 C198.7,100.5 197.6,100.6 197.2,101.3 C197.1,101.6 197.2,101.8 197.4,101.9 C197.4,102.1 197.6,102.2 197.7,102.4 C198.4,102.9 199.3,102.2 199,101.4 Z" id="Shape" fill="#33AFF4" fill-rule="nonzero"></path>
            <path d="M234.8,109.2 C233.7,108.1 230.4,107.4 228.2,107.1 C227.2,106.9 226.4,107.9 226.7,108.8 C227.2,110.5 227.8,112.9 228.3,114.6 C229.1,117.5 235.1,119.9 234.3,116.5 C233.7,113.7 228.7,109.1 226.9,107.4 C227.8,108.2 229.3,109.5 230.4,110.5 C231.9,111.9 236.6,110.9 234.8,109.2 Z" id="Shape" fill="#BAD3F7" fill-rule="nonzero"></path>
            <path d="M180.8,69.4 C182.8,70.7 184.6,72.2 186.2,73.9 C187.6,75.5 188.6,77.3 190.3,78.7 C190.8,79.1 191.5,78.4 191,78 C189.2,76.5 188,74.4 186.5,72.7 C185,71.1 183.2,69.7 181.3,68.5 C180.8,68.2 180.3,69 180.8,69.4 Z" id="Shape" fill="#EC7269" fill-rule="nonzero"></path>
            <path d="M178.5,69.4 C180.6,72.5 182.9,75.4 185.5,78.1 C185.9,78.6 186.7,77.9 186.2,77.4 C183.7,74.8 181.4,71.9 179.3,68.9 C179,68.4 178.1,68.9 178.5,69.4 Z" id="Shape" fill="#EC7269" fill-rule="nonzero"></path>
            <path d="M184.4,77.8 C181.7,75.7 179.4,73.3 177.5,70.5 C177.1,70 176.3,70.5 176.6,71 C178.6,73.9 181,76.5 183.8,78.7 C184.4,79.1 184.9,78.2 184.4,77.8 Z" id="Shape" fill="#EC7269" fill-rule="nonzero"></path>
            <path d="M194.6,79.4 C194,79.9 193.4,80.3 192.7,80.8 C192.2,81.2 191.7,81.5 191.5,82 C191,83.2 192,84.2 192.8,84.8 C193.3,85.2 194,84.5 193.5,84.1 C193.2,83.8 192.8,83.5 192.5,83.2 C192.1,82.6 192.5,82.1 192.9,81.8 C193.6,81.3 194.3,80.8 195,80.2 C195.6,79.9 195.1,79 194.6,79.4 Z" id="Shape" fill="#EC7269" fill-rule="nonzero"></path>
            <polygon id="Shape" fill="#F79087" fill-rule="nonzero" points="201.9 91.6 192.8 96.2 195.7 99.4"></polygon>
            <path d="M170.4,317.2 L55.1,317.2 C52.3,317.2 50.1,315 50.1,312.2 L50.1,152 C50.1,149.2 52.3,147 55.1,147 L170.5,147 C173.3,147 175.5,149.2 175.5,152 L175.5,312.1 C175.4,314.9 173.2,317.2 170.4,317.2 Z" id="Shape" fill="#3DD7EC" fill-rule="nonzero"></path>
            <path d="M71.1,327.5 L70.6,327.5 C67.9,327.5 65.7,325.3 65.7,322.6 L65.7,317.2 L76,317.2 L76,322.6 C76,325.3 73.8,327.5 71.1,327.5 Z" id="Shape" fill="#3DD7EC" fill-rule="nonzero"></path>
            <path d="M154.9,327.5 L154.4,327.5 C151.7,327.5 149.5,325.3 149.5,322.6 L149.5,317.2 L159.9,317.2 L159.9,322.6 C159.9,325.3 157.7,327.5 154.9,327.5 Z" id="Shape" fill="#3DD7EC" fill-rule="nonzero"></path>
            <polygon id="Shape" fill="#23A2B7" fill-rule="nonzero" points="76 317.2 65.6 320.8 65.6 317.2"></polygon>
            <polygon id="Shape" fill="#23A2B7" fill-rule="nonzero" points="159.9 317.2 149.5 320.8 149.5 317.2"></polygon>
            <path d="M126.2,282.5 C126,279.5 123.5,277.2 120.4,277.2 C119.8,277.2 119.2,277.3 118.7,277.5 C118.5,277.6 118.3,277.7 118.1,277.8 C116.6,275 113.7,273 110.3,273 C105.8,273 102.1,276.4 101.5,280.7 C97.9,281.2 95.2,284.4 95.2,288.1 C95.2,292.2 98.6,295.6 102.7,295.6 L106.6,295.6 L106.6,293.2 L102.7,293.2 C99.9,293.2 97.6,290.9 97.6,288.1 C97.6,285.3 99.9,283 102.7,283 L103.9,283 L103.9,281.8 C103.9,278.3 106.8,275.4 110.3,275.4 C113.8,275.4 116.7,278.3 116.7,281.8 L116.7,286 L114.8,286 L117.9,289.5 L121,286 L119,286 L119,281.8 C119,281.2 118.9,280.6 118.8,280 C119,279.9 119.2,279.8 119.4,279.8 C119.7,279.7 120.1,279.6 120.4,279.6 C122.3,279.6 123.8,281.1 123.8,283 C123.8,283.1 123.8,283.2 123.8,283.3 L123.7,284.3 L124.7,284.5 C126.7,285 128,286.7 128,288.7 C128,291.1 126.1,293 123.7,293 L114.7,293 C112.3,293 110.4,291.1 110.4,288.7 L110.4,286 L112.3,286 L109.2,282.5 L106.1,286 L108,286 L108,288.8 C108,292.5 111,295.6 114.8,295.6 L123.8,295.6 C127.5,295.6 130.6,292.6 130.6,288.8 C130.4,286 128.7,283.5 126.2,282.5 Z" id="Shape" fill="#FFFFFF" fill-rule="nonzero"></path>
            <path d="M159.9,210.3 L65.7,210.3 C62.9,210.3 60.7,208.1 60.7,205.3 L60.7,166.7 C60.7,163.9 62.9,161.7 65.7,161.7 L159.9,161.7 C162.7,161.7 164.9,163.9 164.9,166.7 L164.9,205.3 C164.9,208 162.6,210.3 159.9,210.3 Z" id="Shape" fill="url(#linearGradient-9)" fill-rule="nonzero"></path>
            <g id="Group" transform="translate(67.000000, 166.000000)" fill="#2BBAC9" fill-rule="nonzero">
                <g id="Shape">
                    <path d="M31.8,57.1 C18,57.1 6.8,45.9 6.8,32.1 C6.8,18.3 18,7.1 31.8,7.1 C45.6,7.1 56.8,18.3 56.8,32.1 C56.8,45.9 45.6,57.1 31.8,57.1 Z M31.8,12 C20.8,12 11.8,21 11.8,32 C11.8,43 20.8,52 31.8,52 C42.8,52 51.8,43 51.8,32 C51.9,21 42.9,12 31.8,12 Z"></path>
                    <path d="M31.8,26.4 C30.4,26.4 29.3,25.3 29.3,23.9 L29.3,2.8 C29.3,1.4 30.4,0.3 31.8,0.3 C33.2,0.3 34.3,1.4 34.3,2.8 L34.3,23.9 C34.3,25.2 33.2,26.4 31.8,26.4 Z"></path>
                    <path d="M31.8,63.9 C30.4,63.9 29.3,62.8 29.3,61.4 L29.3,40.3 C29.3,38.9 30.4,37.8 31.8,37.8 C33.2,37.8 34.3,38.9 34.3,40.3 L34.3,61.4 C34.3,62.8 33.2,63.9 31.8,63.9 Z"></path>
                    <path d="M20.6,15.1 C19.7,15.1 18.9,14.7 18.4,13.9 L15,8 C14.3,6.8 14.7,5.3 15.9,4.6 C17.1,3.9 18.6,4.3 19.3,5.5 L22.7,11.4 C23.4,12.6 23,14.1 21.8,14.8 C21.4,15 21,15.1 20.6,15.1 Z"></path>
                    <path d="M13.6,24.1 C13.2,24.1 12.7,24 12.4,23.8 L5.2,19.7 C4,19 3.6,17.5 4.3,16.3 C5,15.1 6.5,14.7 7.7,15.4 L14.9,19.5 C16.1,20.2 16.5,21.7 15.8,22.9 C15.3,23.6 14.5,24.1 13.6,24.1 Z"></path>
                    <path d="M9.3,34.6 L2.5,34.6 C1.1,34.6 0,33.5 0,32.1 C0,30.7 1.1,29.6 2.5,29.6 L9.3,29.6 C10.7,29.6 11.8,30.7 11.8,32.1 C11.8,33.5 10.7,34.6 9.3,34.6 Z"></path>
                    <path d="M6.4,49.2 C5.5,49.2 4.7,48.8 4.2,48 C3.5,46.8 3.9,45.3 5.1,44.6 L12.3,40.5 C13.5,39.8 15,40.2 15.7,41.4 C16.4,42.6 16,44.1 14.8,44.8 L7.6,48.9 C7.3,49.1 6.9,49.2 6.4,49.2 Z"></path>
                    <path d="M17.2,60 C16.8,60 16.3,59.9 16,59.7 C14.8,59 14.4,57.5 15.1,56.3 L18.5,50.4 C19.2,49.2 20.7,48.8 21.9,49.5 C23.1,50.2 23.5,51.7 22.8,52.9 L19.4,58.8 C18.9,59.5 18,60 17.2,60 Z"></path>
                    <path d="M31.8,63.9 C30.4,63.9 29.3,62.8 29.3,61.4 L29.3,53.1 C29.3,51.7 30.4,50.6 31.8,50.6 C33.2,50.6 34.3,51.7 34.3,53.1 L34.3,61.4 C34.3,62.8 33.2,63.9 31.8,63.9 Z"></path>
                    <path d="M46.5,60 C45.6,60 44.8,59.6 44.3,58.8 L40.9,52.9 C40.2,51.7 40.6,50.2 41.8,49.5 C43,48.8 44.5,49.2 45.2,50.4 L48.6,56.3 C49.3,57.5 48.9,59 47.7,59.7 C47.3,59.9 46.9,60 46.5,60 Z"></path>
                    <path d="M57.2,49.2 C56.8,49.2 56.3,49.1 56,48.9 L37.5,38.2 C36.3,37.5 35.9,36 36.6,34.8 C37.3,33.6 38.8,33.2 40,33.9 L58.5,44.6 C59.7,45.3 60.1,46.8 59.4,48 C58.9,48.8 58.1,49.2 57.2,49.2 Z"></path>
                    <path d="M24.4,30.3 C24,30.3 23.5,30.2 23.2,30 L5.2,19.6 C4,18.9 3.6,17.4 4.3,16.2 C5,15 6.5,14.6 7.7,15.3 L25.7,25.7 C26.9,26.4 27.3,27.9 26.6,29.1 C26.2,29.9 25.3,30.3 24.4,30.3 Z"></path>
                    <path d="M61.1,34.6 L54.3,34.6 C52.9,34.6 51.8,33.5 51.8,32.1 C51.8,30.7 52.9,29.6 54.3,29.6 L61.1,29.6 C62.5,29.6 63.6,30.7 63.6,32.1 C63.6,33.5 62.5,34.6 61.1,34.6 Z"></path>
                    <path d="M39.2,30.3 C38.3,30.3 37.5,29.9 37,29.1 C36.3,27.9 36.7,26.4 37.9,25.7 L55.9,15.3 C57.1,14.6 58.6,15 59.3,16.2 C60,17.4 59.6,18.9 58.4,19.6 L40.4,30 C40,30.2 39.6,30.3 39.2,30.3 Z"></path>
                    <path d="M6.4,49.2 C5.5,49.2 4.7,48.8 4.2,48 C3.5,46.8 3.9,45.3 5.1,44.6 L23.1,34.2 C24.3,33.5 25.8,33.9 26.5,35.1 C27.2,36.3 26.8,37.8 25.6,38.5 L7.6,48.9 C7.3,49.1 6.9,49.2 6.4,49.2 Z"></path>
                    <path d="M43.3,14.7 C42.9,14.7 42.4,14.6 42.1,14.4 C40.9,13.7 40.5,12.2 41.2,11 L44.4,5.5 C45.1,4.3 46.6,3.9 47.8,4.6 C49,5.3 49.4,6.8 48.7,8 L45.5,13.5 C45,14.2 44.2,14.7 43.3,14.7 Z"></path>
                    <path d="M31.8,41.5 C26.6,41.5 22.4,37.3 22.4,32.1 C22.4,26.9 26.6,22.7 31.8,22.7 C37,22.7 41.2,26.9 41.2,32.1 C41.3,37.3 37,41.5 31.8,41.5 Z M31.8,27.6 C29.4,27.6 27.4,29.6 27.4,32 C27.4,34.4 29.4,36.4 31.8,36.4 C34.2,36.4 36.2,34.4 36.2,32 C36.3,29.6 34.3,27.6 31.8,27.6 Z"></path>
                </g>
                <g transform="translate(61.000000, 30.000000)" id="Shape">
                    <path d="M15.4,26.8 C10.5,26.8 5.9,23.8 4,18.9 C2.9,15.9 3,12.6 4.3,9.6 C5.6,6.6 8,4.4 11.1,3.3 C14.1,2.2 17.4,2.3 20.4,3.6 C23.3,4.9 25.6,7.3 26.7,10.4 C27.8,13.5 27.7,16.7 26.4,19.7 C25.1,22.6 22.7,24.9 19.6,26 C18.2,26.5 16.8,26.8 15.4,26.8 Z M15.4,7.5 C14.6,7.5 13.7,7.7 12.9,8 C11.1,8.7 9.7,10 8.9,11.7 C8.1,13.4 8,15.4 8.7,17.1 C10.1,20.8 14.2,22.6 17.8,21.3 C21.5,19.9 23.3,15.8 22,12.2 C21.3,10.4 20,9 18.3,8.2 C17.4,7.8 16.4,7.5 15.4,7.5 Z"></path>
                    <path d="M12,8.2 C11,8.2 10,7.6 9.7,6.6 L8.6,3.6 C8.1,2.3 8.8,0.9 10.1,0.4 C11.4,-0.1 12.8,0.6 13.3,1.9 L14.4,4.9 C14.9,6.2 14.2,7.6 12.9,8.1 C12.6,8.1 12.3,8.2 12,8.2 Z"></path>
                    <path d="M5.9,15.6 C5.8,15.6 5.6,15.6 5.5,15.6 L2.3,15.1 C0.9,14.9 2.24820162e-15,13.6 0.2,12.2 C0.4,10.8 1.7,9.9 3.1,10.1 L6.3,10.6 C7.7,10.8 8.6,12.1 8.4,13.5 C8.1,14.7 7.1,15.6 5.9,15.6 Z"></path>
                    <path d="M7.2,27.1 C6.6,27.1 6.1,26.9 5.6,26.5 C4.5,25.6 4.4,24 5.3,23 L7.4,20.5 C8.3,19.4 9.9,19.3 10.9,20.2 C12,21.1 12.1,22.7 11.2,23.7 L9.1,26.2 C8.6,26.8 7.9,27.1 7.2,27.1 Z"></path>
                    <path d="M19.8,29.2 C18.8,29.2 17.8,28.6 17.5,27.6 L16.4,24.6 C15.9,23.3 16.6,21.9 17.9,21.4 C19.2,20.9 20.6,21.6 21.1,22.9 L22.2,25.9 C22.7,27.2 22,28.6 20.7,29.1 C20.4,29.1 20.1,29.2 19.8,29.2 Z"></path>
                    <path d="M28,19.3 C27.9,19.3 27.7,19.3 27.6,19.3 L24.4,18.8 C23,18.6 22.1,17.3 22.3,15.9 C22.5,14.5 23.8,13.6 25.2,13.8 L28.4,14.3 C29.8,14.5 30.7,15.8 30.5,17.2 C30.3,18.4 29.2,19.3 28,19.3 Z"></path>
                    <path d="M21.5,9.7 C20.9,9.7 20.4,9.5 19.9,9.1 C18.8,8.2 18.7,6.6 19.6,5.6 L21.7,3.1 C22.6,2 24.2,1.9 25.2,2.8 C26.3,3.7 26.4,5.3 25.5,6.3 L23.4,8.8 C22.9,9.4 22.2,9.7 21.5,9.7 Z"></path>
                    <path d="M15.9,11.3 C14,11 12.3,12.2 11.9,14.1 C11.6,16 12.8,17.7 14.7,18.1 C16.6,18.4 18.3,17.2 18.7,15.3 C19,13.4 17.8,11.6 15.9,11.3 Z"></path>
                </g>
            </g>
            <rect id="Rectangle-path" fill="#3DD7EC" fill-rule="nonzero" x="58.7" y="210.3" width="108.1" height="25.5"></rect>
            <path d="M65.7,211.3 L159.8,211.3 C162.6,211.3 164.9,209 164.9,206.2 L164.9,205.2 C164.9,208 162.6,210.3 159.8,210.3 L65.7,210.3 C62.9,210.3 60.6,208 60.6,205.2 L60.6,206.2 C60.7,209 62.9,211.3 65.7,211.3 Z" id="Shape" fill="#73FCFF" fill-rule="nonzero"></path>
            <polygon id="Shape" fill="url(#linearGradient-10)" fill-rule="nonzero" points="115.7 210.3 63.8 210.3 100.2 161.7 152.1 161.7"></polygon>
            <path d="M2.3,326.1 L0.9,324.6 C1,324.5 10.8,315.3 12.1,307.7 C13,302.6 17.9,301.1 22.6,299.6 C26.1,298.5 29.7,297.4 31.5,294.9 C33.2,292.4 31.8,285.9 30.3,279 C28.2,269.6 25.9,259 28.9,250.8 C33.2,239 43.7,234.9 48,233.7 L48.5,235.6 C44.5,236.7 34.7,240.5 30.8,251.4 C28,259.1 30.3,269.4 32.3,278.5 C34.1,286.5 35.4,292.8 33.2,296 C31.1,299.1 27.1,300.3 23.3,301.5 C18.9,302.9 14.8,304.2 14.2,308 C12.7,316.4 2.8,325.7 2.3,326.1 Z" id="Shape" fill="url(#linearGradient-11)" fill-rule="nonzero"></path>
            <path d="M50.1,240.4 L47.7,240.4 C46.2,240.4 44.9,239.2 44.9,237.6 L44.9,234 C44.9,232.5 46.1,231.2 47.7,231.2 L50.1,231.2 L50.1,240.4 Z" id="Shape" fill="#3AC3CE" fill-rule="nonzero"></path>
            <path d="M223.1,337.8 C222.7,337.3 212.8,325.4 211.4,315 C210.7,309.9 206.8,308.3 202.2,306.5 C198.4,305 194.4,303.4 192.3,299.5 C190.1,295.6 191.5,287.6 193.2,277.6 C195.2,265.9 197.5,252.7 194.7,242.8 C190.7,228.7 180.9,223.9 176.9,222.5 L177.6,220.6 C181.9,222.1 192.4,227.3 196.6,242.2 C199.5,252.5 197.2,266 195.2,277.9 C193.7,286.8 192.2,295.2 194,298.5 C195.8,301.7 199.2,303.1 202.9,304.6 C207.6,306.5 212.5,308.4 213.3,314.7 C214.6,324.5 224.4,336.3 224.5,336.4 L223.1,337.8 Z" id="Shape" fill="url(#linearGradient-12)" fill-rule="nonzero"></path>
            <path d="M175.4,227.1 L177.8,227.1 C179.3,227.1 180.6,225.9 180.6,224.3 L180.6,220.7 C180.6,219.2 179.4,217.9 177.8,217.9 L175.4,217.9 L175.4,227.1 Z" id="Shape" fill="#2C8FB1" fill-rule="nonzero"></path>
            <path d="M3.6,350 L1.7,349.3 C1.9,348.8 6.7,336.2 13.5,331.4 C21.6,325.7 26.1,322.1 30.4,318.6 C31.8,317.5 33.1,316.4 34.6,315.3 C38.7,312.1 36.9,308.2 33.2,301.5 C29.9,295.5 26.1,288.7 28.9,281.1 C33.2,269.3 43.7,265.2 48,264 L48.5,265.9 C44.5,267 34.7,270.8 30.8,281.7 C28.4,288.4 31.9,294.8 35,300.4 C38.4,306.5 41.5,312.2 35.9,316.7 C34.5,317.8 33.1,318.9 31.8,320 C27.4,323.5 22.9,327.1 14.8,332.8 C8.4,337.5 3.7,349.9 3.6,350 Z" id="Shape" fill="url(#linearGradient-13)" fill-rule="nonzero"></path>
            <path d="M50.1,270.7 L47.7,270.7 C46.2,270.7 44.9,269.5 44.9,267.9 L44.9,264.3 C44.9,262.8 46.1,261.5 47.7,261.5 L50.1,261.5 L50.1,270.7 Z" id="Shape" fill="#3AC3CE" fill-rule="nonzero"></path>
            <circle id="Oval" fill="#B3FFF9" fill-rule="nonzero" cx="68.8" cy="235.7" r="2"></circle>
            <circle id="Oval" fill="#FFE259" fill-rule="nonzero" cx="78.8" cy="235.7" r="2"></circle>
            <path d="M158.7,138.4 L158.7,100.4 L149,100.4 L149,137.7 C152.2,137.8 155.5,138.3 158.7,138.4 Z" id="Shape" fill="url(#linearGradient-14)" fill-rule="nonzero"></path>
            <g id="Group" transform="translate(149.000000, 120.000000)" fill-rule="nonzero">
                <path d="M3.4,22.9 C1.5,22.9 0,21.4 0,19.5 L0,9.8 C0,8 0.8,6.4 2.2,5.3 L2.4,5.2 C3.6,4.2 4.5,2.9 4.8,1.4 L5,0.7 L5.2,1.4 C5.5,2.9 6.4,4.3 7.6,5.2 L7.8,5.3 C9.2,6.4 10,8.1 10,9.8 L10,19.5 C10,21.4 8.5,22.9 6.6,22.9 L3.4,22.9 Z" id="Shape" fill="#00FFCE"></path>
                <rect id="Rectangle-path" fill="#2C8FB1" x="1.7" y="22.9" width="6.3" height="4.2"></rect>
            </g>
            <path d="M138.5,138.4 L138.5,100.4 L128.7,100.4 L128.7,138.2 C132,138.3 135.3,138.4 138.5,138.4 Z" id="Shape" fill="url(#linearGradient-15)" fill-rule="nonzero"></path>
            <g id="Group" transform="translate(128.000000, 120.000000)" fill-rule="nonzero">
                <path d="M4.1,22.9 C2.2,22.9 0.7,21.4 0.7,19.5 L0.7,9.8 C0.7,8 1.5,6.4 2.9,5.3 L3.1,5.2 C4.3,4.2 5.2,2.9 5.5,1.4 L5.7,0.7 L5.9,1.4 C6.2,2.9 7.1,4.3 8.3,5.2 L8.5,5.3 C9.9,6.4 10.7,8.1 10.7,9.8 L10.7,19.5 C10.7,21.4 9.2,22.9 7.3,22.9 L4.1,22.9 Z" id="Shape" fill="#00FFCE"></path>
                <rect id="Rectangle-path" fill="#2C8FB1" x="2.5" y="22.9" width="6.3" height="4.2"></rect>
            </g>
            <path d="M133.6,143.4 C133.3,143.4 133.1,143.2 133.1,142.9 L133.1,134 C133.1,133.7 133.3,133.5 133.6,133.5 C133.9,133.5 134.1,133.7 134.1,134 L134.1,142.9 C134.1,143.2 133.9,143.4 133.6,143.4 Z" id="Shape" fill="#2C8FB1" fill-rule="nonzero"></path>
            <path d="M134.9,135.8 C133.9,135.8 133.1,135 133.1,134 C133.1,133 133.9,132.2 134.9,132.2 C135.9,132.2 136.7,133 136.7,134 C136.7,135 136,135.8 134.9,135.8 Z M134.9,133.2 C134.4,133.2 134.1,133.6 134.1,134 C134.1,134.4 134.5,134.8 134.9,134.8 C135.3,134.8 135.7,134.4 135.7,134 C135.7,133.6 135.4,133.2 134.9,133.2 Z" id="Shape" fill="#2C8FB1" fill-rule="nonzero"></path>
            <path d="M132.3,135.8 C131.3,135.8 130.5,135 130.5,134 C130.5,133 131.3,132.2 132.3,132.2 C133.3,132.2 134.1,133 134.1,134 C134.1,135 133.3,135.8 132.3,135.8 Z M132.3,133.2 C131.8,133.2 131.5,133.6 131.5,134 C131.5,134.4 131.9,134.8 132.3,134.8 C132.7,134.8 133.1,134.4 133.1,134 C133.1,133.6 132.8,133.2 132.3,133.2 Z" id="Shape" fill="#2C8FB1" fill-rule="nonzero"></path>
            <path d="M153.9,143.4 C153.6,143.4 153.4,143.2 153.4,142.9 L153.4,134 C153.4,133.7 153.6,133.5 153.9,133.5 C154.2,133.5 154.4,133.7 154.4,134 L154.4,142.9 C154.4,143.2 154.1,143.4 153.9,143.4 Z" id="Shape" fill="#2C8FB1" fill-rule="nonzero"></path>
            <path d="M155.2,135.8 C154.2,135.8 153.4,135 153.4,134 C153.4,133 154.2,132.2 155.2,132.2 C156.2,132.2 157,133 157,134 C157,135 156.2,135.8 155.2,135.8 Z M155.2,133.2 C154.7,133.2 154.4,133.6 154.4,134 C154.4,134.4 154.8,134.8 155.2,134.8 C155.6,134.8 156,134.4 156,134 C156,133.6 155.6,133.2 155.2,133.2 Z" id="Shape" fill="#2C8FB1" fill-rule="nonzero"></path>
            <path d="M152.5,135.8 C151.5,135.8 150.7,135 150.7,134 C150.7,133 151.5,132.2 152.5,132.2 C153.5,132.2 154.3,133 154.3,134 C154.3,135 153.5,135.8 152.5,135.8 Z M152.5,133.2 C152,133.2 151.7,133.6 151.7,134 C151.7,134.4 152.1,134.8 152.5,134.8 C152.9,134.8 153.3,134.4 153.3,134 C153.3,133.6 153,133.2 152.5,133.2 Z" id="Shape" fill="#2C8FB1" fill-rule="nonzero"></path>
            <g id="Group" transform="translate(28.000000, 75.000000)" fill="#3DD7EC" fill-rule="nonzero">
                <path d="M41.8,13.6 C40.1,11.9 37.5,11.8 35.7,13.3 L30.6,8.2 C32,6.4 32,3.8 30.3,2.1 C28.5,0.3 25.6,0.3 23.8,2.1 C22.1,3.8 22,6.4 23.5,8.2 L18,13.7 C16.2,12.3 13.6,12.3 11.9,14 C10.1,15.8 10.1,18.7 11.9,20.5 C12.8,21.4 14,21.8 15.2,21.8 C16.4,21.8 17.6,21.4 18.5,20.5 C20.2,18.8 20.3,16.2 18.8,14.4 L24.3,8.9 C25.1,9.6 26.1,9.9 27.2,9.9 C28.2,9.9 29.2,9.5 30.1,8.9 L35.2,14 C33.8,15.8 33.8,18.4 35.5,20.1 C36.4,21 37.6,21.4 38.8,21.4 C40,21.4 41.2,21 42.1,20.1 C43.6,18.3 43.6,15.4 41.8,13.6 Z M17.7,19.8 C16.3,21.2 14,21.2 12.6,19.8 C11.2,18.4 11.2,16.1 12.6,14.7 C13.3,14 14.2,13.6 15.1,13.6 C16,13.6 16.9,14 17.6,14.7 C19.1,16.1 19.1,18.4 17.7,19.8 Z M24.5,7.9 C23.1,6.5 23.1,4.2 24.5,2.8 C25.2,2.1 26.1,1.7 27,1.7 C27.9,1.7 28.8,2.1 29.5,2.8 C30.8,4.1 30.9,6.1 29.8,7.5 L29.1,8.2 C27.8,9.2 25.8,9.1 24.5,7.9 Z M41.1,19.4 C39.7,20.8 37.4,20.8 36,19.4 C34.6,18 34.6,15.7 36,14.3 C36.7,13.6 37.6,13.2 38.5,13.2 C39.4,13.2 40.3,13.6 41,14.3 C42.5,15.7 42.5,18 41.1,19.4 Z" id="Shape"></path>
                <path d="M25.1,23.8 C23.4,25.5 23.3,28.1 24.8,29.9 L19.7,35 C18,33.7 15.6,33.7 14,35 L8.5,29.5 C9.9,27.7 9.9,25.1 8.2,23.4 C6.4,21.6 3.5,21.6 1.7,23.4 C-0.1,25.2 -0.1,28.1 1.7,29.9 C2.6,30.8 3.8,31.2 5,31.2 C6,31.2 7,30.8 7.9,30.2 L13.4,35.7 C12,37.5 12,40.1 13.7,41.8 C14.6,42.7 15.8,43.1 17,43.1 C18.2,43.1 19.4,42.7 20.3,41.8 C22,40.1 22.1,37.5 20.6,35.7 L25.7,30.6 C26.5,31.3 27.5,31.6 28.6,31.6 C29.8,31.6 31,31.2 31.9,30.3 C33.7,28.5 33.7,25.6 31.9,23.8 C30.1,22 26.9,22 25.1,23.8 Z M2.4,29.2 C1,27.8 1,25.5 2.4,24.1 C3.1,23.4 4,23 4.9,23 C5.8,23 6.7,23.4 7.4,24.1 C8.8,25.5 8.8,27.8 7.4,29.2 C6.1,30.6 3.8,30.6 2.4,29.2 Z M19.4,41.1 C18,42.5 15.7,42.5 14.3,41.1 C12.9,39.7 12.9,37.4 14.3,36 C15,35.3 15.9,34.9 16.8,34.9 C17.6,34.9 18.3,35.2 19,35.6 L19.7,36.3 C20.8,37.8 20.7,39.8 19.4,41.1 Z M30.9,29.6 C29.5,31 27.2,31 25.8,29.6 C24.4,28.2 24.4,25.9 25.8,24.5 C26.5,23.8 27.4,23.4 28.3,23.4 C29.2,23.4 30.1,23.8 30.8,24.5 C32.3,25.9 32.3,28.2 30.9,29.6 Z" id="Shape"></path>
            </g>
            <path d="M184.9,131.3 L186.7,129.5 C186.9,129.3 186.9,129 186.7,128.8 C186.5,128.6 186.2,128.6 186,128.8 L184.2,130.6 L182.4,128.8 C182.2,128.6 181.9,128.6 181.7,128.8 C181.5,129 181.5,129.3 181.7,129.5 L183.5,131.3 L181.7,133.1 C181.5,133.3 181.5,133.6 181.7,133.8 C181.8,133.9 181.9,133.9 182.1,133.9 C182.3,133.9 182.4,133.9 182.5,133.8 L184.3,132 L186.1,133.8 C186.2,133.9 186.3,133.9 186.5,133.9 C186.7,133.9 186.8,133.9 186.9,133.8 C187.1,133.6 187.1,133.3 186.9,133.1 L184.9,131.3 Z" id="Shape" fill="#FBF9F9" fill-rule="nonzero"></path>
            <path d="M207.2,163.3 C204.7,163.3 202.7,161.3 202.7,158.8 C202.7,156.3 204.7,154.3 207.2,154.3 C209.7,154.3 211.7,156.3 211.7,158.8 C211.7,161.3 209.6,163.3 207.2,163.3 Z M207.2,155.3 C205.3,155.3 203.7,156.9 203.7,158.8 C203.7,160.7 205.3,162.3 207.2,162.3 C209.1,162.3 210.7,160.7 210.7,158.8 C210.7,156.9 209.1,155.3 207.2,155.3 Z" id="Shape" fill="#FBF9F9" fill-rule="nonzero"></path>
            <g id="Group" transform="translate(31.000000, 18.000000)" fill="#3DD7EC" fill-rule="nonzero">
                <path d="M59.8,100 L55.3,95.5 C55.8,94.8 56.1,94 56.1,93.1 C56.1,92.1 55.7,91.1 55,90.3 C53.5,88.8 50.9,88.8 49.5,90.3 C48.8,91 48.4,92 48.4,93.1 C48.4,94.2 48.8,95.1 49.5,95.9 C50.2,96.6 51.2,97 52.3,97 C53.2,97 54,96.7 54.7,96.2 L59.2,100.7 C58.7,101.4 58.4,102.2 58.4,103.1 C58.4,104 58.7,104.8 59.2,105.5 L55.1,109.6 C53.6,108.5 51.3,108.6 49.9,109.9 C48.4,111.4 48.4,113.9 49.9,115.4 C50.6,116.1 51.6,116.5 52.7,116.5 C53.8,116.5 54.7,116.1 55.5,115.4 C56.9,114 57,111.8 55.8,110.2 L59.9,106.1 C60.6,106.6 61.4,106.9 62.3,106.9 C63.3,106.9 64.3,106.5 65.1,105.8 C66.6,104.3 66.6,101.8 65.1,100.3 C63.6,99 61.3,98.9 59.8,100 Z M50.2,95.3 C49.6,94.7 49.3,94 49.3,93.2 C49.3,92.4 49.6,91.7 50.2,91.1 C50.8,90.5 51.5,90.2 52.3,90.2 C53.1,90.2 53.8,90.5 54.4,91.1 C55,91.7 55.3,92.4 55.3,93.2 C55.3,94 55,94.7 54.4,95.3 C53.2,96.4 51.3,96.4 50.2,95.3 Z M54.7,114.8 C53.6,115.9 51.7,115.9 50.6,114.8 C49.5,113.7 49.5,111.8 50.6,110.7 C51.7,109.6 53.6,109.6 54.7,110.7 C55.8,111.8 55.8,113.7 54.7,114.8 Z M64.3,105.2 C63.2,106.3 61.3,106.3 60.2,105.2 C59.6,104.6 59.3,103.9 59.3,103.1 C59.3,102.3 59.6,101.6 60.2,101 C60.8,100.4 61.5,100.1 62.3,100.1 C63.1,100.1 63.8,100.4 64.4,101 C65,101.6 65.3,102.3 65.3,103.1 C65.1,103.9 64.8,104.6 64.3,105.2 Z" id="Shape"></path>
                <path d="M58.8,9.2 C52.3,9.2 47,14.5 47,21 C47,24.1 48.2,26.9 50.1,29 L47.4,31.7 L46.4,30.7 C45.8,30.1 44.9,30.1 44.3,30.7 L37.6,37.4 C37.3,37.7 37.2,38.1 37.2,38.5 C37.2,38.9 37.4,39.3 37.6,39.6 L40.3,42.3 C40.6,42.6 41,42.7 41.4,42.7 C41.8,42.7 42.2,42.6 42.5,42.3 L49.2,35.6 C49.8,35 49.8,34.1 49.2,33.5 L48.2,32.5 L50.9,29.8 C53,31.7 55.8,32.9 58.9,32.9 C65.4,32.9 70.7,27.6 70.7,21.1 C70.7,14.6 65.4,9.2 58.8,9.2 Z M48.5,34.7 L41.8,41.4 C41.6,41.6 41.3,41.6 41.1,41.4 L38.4,38.7 C38.3,38.6 38.3,38.5 38.3,38.3 C38.3,38.2 38.4,38 38.4,37.9 L45.1,31.2 C45.3,31 45.6,31 45.8,31.2 L48.5,33.9 C48.7,34.2 48.7,34.5 48.5,34.7 Z M58.8,31.8 C52.8,31.8 48,26.9 48,21 C48,15.1 52.9,10.2 58.8,10.2 C64.8,10.2 69.6,15.1 69.6,21 C69.6,26.9 64.8,31.8 58.8,31.8 Z" id="Shape"></path>
                <path d="M142,0.5 L111,0.5 C108.6,0.5 106.7,2.4 106.7,4.8 L106.7,24.4 C106.7,26.8 108.6,28.7 111,28.7 L113.2,28.7 L111.4,33.4 C111.3,33.6 111.4,33.9 111.6,34 C111.7,34.1 111.8,34.1 111.9,34.1 C112,34.1 112.1,34.1 112.2,34 L118.3,28.8 L142,28.8 C144.4,28.8 146.3,26.9 146.3,24.5 L146.3,4.9 C146.3,2.4 144.4,0.5 142,0.5 Z M145.3,24.4 C145.3,26.2 143.8,27.7 142,27.7 L118.3,27.7 C118.2,27.7 118.1,27.7 118,27.8 L113.2,31.9 L114.5,28.4 C114.6,28.2 114.5,28.1 114.4,27.9 C114.3,27.7 114.2,27.7 114,27.7 L111,27.7 C109.2,27.7 107.7,26.2 107.7,24.4 L107.7,4.8 C107.7,3 109.2,1.5 111,1.5 L142,1.5 C143.8,1.5 145.3,3 145.3,4.8 L145.3,24.4 Z" id="Shape"></path>
                <path d="M121.4,10.3 C121.2,10.1 120.9,10.1 120.7,10.3 L116.7,14.3 C116.6,14.4 116.6,14.5 116.6,14.7 C116.6,14.9 116.7,15 116.7,15.1 L120.7,19.1 C120.8,19.2 120.9,19.2 121.1,19.2 C121.3,19.2 121.4,19.2 121.5,19.1 C121.7,18.9 121.7,18.6 121.5,18.4 L117.9,14.8 L121.5,11.2 C121.6,10.8 121.6,10.5 121.4,10.3 Z" id="Shape"></path>
                <path d="M132.4,10.3 C132.2,10.1 131.9,10.1 131.7,10.3 C131.5,10.5 131.5,10.8 131.7,11 L135.3,14.6 L131.7,18.2 C131.5,18.4 131.5,18.7 131.7,18.9 C131.8,19 131.9,19 132.1,19 C132.3,19 132.4,19 132.5,18.9 L136.5,14.9 C136.6,14.8 136.6,14.7 136.6,14.5 C136.6,14.3 136.5,14.2 136.5,14.1 L132.4,10.3 Z" id="Shape"></path>
                <path d="M128.9,9.2 C128.6,9.1 128.4,9.2 128.2,9.5 L123.8,19.5 C123.7,19.8 123.8,20 124.1,20.2 C124.2,20.2 124.2,20.2 124.3,20.2 C124.5,20.2 124.7,20.1 124.8,19.9 L129.2,9.9 C129.3,9.6 129.2,9.3 128.9,9.2 Z" id="Shape"></path>
                <path d="M5.8,21.9 C5.6,21.7 5.3,21.7 5.1,21.9 L3.3,23.7 L1.5,21.9 C1.3,21.7 1,21.7 0.8,21.9 C0.6,22.1 0.6,22.4 0.8,22.6 L2.6,24.4 L0.8,26.2 C0.6,26.4 0.6,26.7 0.8,26.9 C0.9,27 1,27 1.2,27 C1.4,27 1.5,27 1.6,26.9 L3.4,25.1 L5.2,26.9 C5.3,27 5.4,27 5.6,27 C5.8,27 5.9,27 6,26.9 C6.2,26.7 6.2,26.4 6,26.2 L4.2,24.4 L6,22.6 C6,22.4 6,22.1 5.8,21.9 Z" id="Shape"></path>
                <path d="M128.5,67.3 C128.3,67.1 128,67.1 127.8,67.3 L126,69.1 L124.2,67.3 C124,67.1 123.7,67.1 123.5,67.3 C123.3,67.5 123.3,67.8 123.5,68 L125.3,69.8 L123.5,71.6 C123.3,71.8 123.3,72.1 123.5,72.3 C123.6,72.4 123.7,72.4 123.9,72.4 C124.1,72.4 124.2,72.4 124.3,72.3 L126.1,70.5 L127.9,72.3 C128,72.4 128.1,72.4 128.3,72.4 C128.5,72.4 128.6,72.4 128.7,72.3 C128.9,72.1 128.9,71.8 128.7,71.6 L126.9,69.8 L128.7,68 C128.7,67.9 128.7,67.5 128.5,67.3 Z" id="Shape"></path>
                <path d="M68.6,50.8 C68.6,51.1 68.8,51.3 69.1,51.3 L84.6,51.3 C84.9,51.3 85.1,51.1 85.1,50.8 C85.1,50.5 84.9,50.3 84.6,50.3 L69.1,50.3 C68.8,50.3 68.6,50.5 68.6,50.8 Z" id="Shape"></path>
                <path d="M99.1,50.3 L92.2,50.3 C91.9,50.3 91.7,50.5 91.7,50.8 C91.7,51.1 91.9,51.3 92.2,51.3 L99.1,51.3 C99.4,51.3 99.6,51.1 99.6,50.8 C99.6,50.5 99.3,50.3 99.1,50.3 Z" id="Shape"></path>
                <path d="M77.7,56.3 L69,56.3 C68.7,56.3 68.5,56.5 68.5,56.8 C68.5,57.1 68.7,57.3 69,57.3 L77.7,57.3 C78,57.3 78.2,57.1 78.2,56.8 C78.2,56.5 78,56.3 77.7,56.3 Z" id="Shape"></path>
                <path d="M99.1,56.3 L83.6,56.3 C83.3,56.3 83.1,56.5 83.1,56.8 C83.1,57.1 83.3,57.3 83.6,57.3 L99.1,57.3 C99.4,57.3 99.6,57.1 99.6,56.8 C99.6,56.5 99.3,56.3 99.1,56.3 Z" id="Shape"></path>
                <path d="M68.6,62.8 C68.6,63.1 68.8,63.3 69.1,63.3 L89.7,63.3 C90,63.3 90.2,63.1 90.2,62.8 C90.2,62.5 90,62.3 89.7,62.3 L69.1,62.3 C68.8,62.3 68.6,62.5 68.6,62.8 Z" id="Shape"></path>
                <path d="M99.1,62.3 L94.7,62.3 C94.4,62.3 94.2,62.5 94.2,62.8 C94.2,63.1 94.4,63.3 94.7,63.3 L99.1,63.3 C99.4,63.3 99.6,63.1 99.6,62.8 C99.6,62.5 99.3,62.3 99.1,62.3 Z" id="Shape"></path>
                <path d="M76,68.3 L69.1,68.3 C68.8,68.3 68.6,68.5 68.6,68.8 C68.6,69.1 68.8,69.3 69.1,69.3 L76,69.3 C76.3,69.3 76.5,69.1 76.5,68.8 C76.5,68.5 76.3,68.3 76,68.3 Z" id="Shape"></path>
                <path d="M99.1,68.3 L81.9,68.3 C81.6,68.3 81.4,68.5 81.4,68.8 C81.4,69.1 81.6,69.3 81.9,69.3 L99.1,69.3 C99.4,69.3 99.6,69.1 99.6,68.8 C99.6,68.5 99.3,68.3 99.1,68.3 Z" id="Shape"></path>
            </g>
            <circle id="Oval" fill="#FBF9F9" fill-rule="nonzero" cx="194" cy="191.2" r="2.5"></circle>
            <g id="Group" transform="translate(151.000000, 233.000000)" fill="#73FCFF" fill-rule="nonzero">
                <path d="M0.9,8.4 C0.6,8.4 0.4,8.2 0.4,7.9 L0.4,0.7 C0.4,0.4 0.6,0.2 0.9,0.2 C1.2,0.2 1.4,0.4 1.4,0.7 L1.4,7.9 C1.4,8.2 1.1,8.4 0.9,8.4 Z" id="Shape"></path>
                <path d="M3.9,8.4 C3.6,8.4 3.4,8.2 3.4,7.9 L3.4,0.7 C3.4,0.4 3.6,0.2 3.9,0.2 C4.2,0.2 4.4,0.4 4.4,0.7 L4.4,7.9 C4.4,8.2 4.1,8.4 3.9,8.4 Z" id="Shape"></path>
                <path d="M6.9,8.4 C6.6,8.4 6.4,8.2 6.4,7.9 L6.4,0.7 C6.4,0.4 6.6,0.2 6.9,0.2 C7.2,0.2 7.4,0.4 7.4,0.7 L7.4,7.9 C7.4,8.2 7.1,8.4 6.9,8.4 Z" id="Shape"></path>
                <path d="M9.9,8.4 C9.6,8.4 9.4,8.2 9.4,7.9 L9.4,0.7 C9.4,0.4 9.6,0.2 9.9,0.2 C10.2,0.2 10.4,0.4 10.4,0.7 L10.4,7.9 C10.4,8.2 10.1,8.4 9.9,8.4 Z" id="Shape"></path>
                <path d="M12.9,8.4 C12.6,8.4 12.4,8.2 12.4,7.9 L12.4,0.7 C12.4,0.4 12.6,0.2 12.9,0.2 C13.2,0.2 13.4,0.4 13.4,0.7 L13.4,7.9 C13.4,8.2 13.1,8.4 12.9,8.4 Z" id="Shape"></path>
            </g>
        </g>
    </g>
</svg>