<?xml version="1.0" encoding="UTF-8"?>
<svg width="88px" height="60px" viewBox="0 0 88 60" version="1.1" xmlns="http://www.w3.org/2000/svg" xmlns:xlink="http://www.w3.org/1999/xlink">
    <!-- Generator: Sketch 48.1 (47250) - http://www.bohemiancoding.com/sketch -->
    <title>Group</title>
    <desc>Created with Sketch.</desc>
    <defs>
        <linearGradient x1="0.02484375%" y1="49.8995122%" x2="100.156094%" y2="49.8995122%" id="linearGradient-1">
            <stop stop-color="#3DD7EC" offset="0%"></stop>
            <stop stop-color="#6EC3F6" offset="100%"></stop>
        </linearGradient>
    </defs>
    <g id="Page-1" stroke="none" stroke-width="1" fill="none" fill-rule="evenodd">
        <g id="Group" fill-rule="nonzero">
            <g id="Group-6">
                <path d="M34.6,48.1 L33.8,48.1 C27.3,48.1 22,42.8 22,36.3 C22,30.8 25.7,26.2 30.8,24.9 C30.8,24.5 30.7,24 30.7,23.6 C30.7,14.5 38.1,7.1 47.2,7.1 C53.8,7.1 59.5,11 62.1,16.5 C63.6,15.4 65.5,14.8 67.5,14.8 C72.8,14.8 77.1,19.1 77.1,24.4 C77.1,24.7 77.1,25 77.1,25.2 C82.2,26.4 86,31 86,36.5 C86,42.9 80.8,48.1 74.4,48.1 L34.6,48.1 Z" id="Shape" fill="url(#linearGradient-1)"></path>
                <path d="M87.6,19.4 C87.6,19.3 87.6,19.3 87.6,19.2 C87.6,19.2 87.6,19.2 87.6,19.2 C87.6,19.2 87.6,19.2 87.6,19.2 C87.6,19.2 87.6,19.2 87.6,19.2 C87.6,19.1 87.5,19.1 87.5,19.1 C87.5,19.1 87.5,19.1 87.4,19.1 C87.3,19.1 87.3,19 87.2,19 C87.2,19 87.2,19 87.2,19 L81.4,18.5 C81.1,18.5 80.9,18.7 80.9,19 C80.9,19.3 81.1,19.5 81.4,19.5 L85.2,19.8 C82.1,21.2 79.3,22.9 76.9,25.1 C73.3,28.3 71.6,31.3 70.2,33.8 C68.8,36.3 67.8,37.9 65.8,38.4 C63,39 60.7,36.7 58.2,34.2 C55.6,31.7 52.9,29 49.4,29 C49.4,29 49.3,29 49.3,29 C43.9,29.1 38.7,35.3 33.5,48 C33.4,48.3 33.5,48.5 33.8,48.7 C33.9,48.7 33.9,48.7 34,48.7 C34.2,48.7 34.4,48.6 34.5,48.4 C39.5,36.3 44.5,30.1 49.4,30 C52.6,29.9 55.2,32.5 57.6,34.9 C60.3,37.6 62.8,40.1 66.1,39.3 C68.5,38.8 69.7,36.8 71.1,34.3 C72.5,31.9 74.2,28.9 77.6,25.9 C80,23.7 82.8,22 85.9,20.6 L83.6,24.1 C83.4,24.3 83.5,24.6 83.7,24.8 C83.8,24.9 83.9,24.9 84,24.9 C84.2,24.9 84.3,24.8 84.4,24.7 L87.6,19.8 C87.6,19.8 87.6,19.8 87.6,19.8 C87.6,19.6 87.6,19.5 87.6,19.4 C87.6,19.4 87.6,19.4 87.6,19.4 Z" id="Shape" fill="#00FFCE"></path>
                <path d="M44.8,42.9 C41.7,42.9 38.7,41.2 36,39.8 L35.9,39.8 C34.5,39.1 33.6,37.6 33.6,36 L33.6,34 C36.7,32.3 38.8,29 38.8,25.2 L38.7,25.2 C40.2,25.2 41.4,24 41.4,22.5 L41.4,19.8 C41.4,19.3 41,18.8 40.4,18.8 L38.6,18.8 L38.6,11.4 C39.2,11.3 39.7,11.1 40.2,10.7 C40.2,10.7 40.2,10.7 40.2,10.7 C40.2,10.7 40.2,10.7 40.2,10.7 C40.2,10.7 40.3,10.7 40.3,10.6 C40.3,10.6 40.3,10.6 40.3,10.6 L40.5,10.6 L40.4,10.5 C40.5,10.3 40.4,10.1 40.3,10 C40.3,10 40.3,9.9 40.3,9.9 C40.1,9.4 39.8,9.1 39.5,8.6 C39.3,8.3 39.1,8.1 39,7.8 C38.8,7.5 38.6,7.1 38.5,6.8 C38.4,6.7 38.4,6.6 38.3,6.6 C37.5,4.1 35.2,0.5 28.4,0.5 C23,0.5 20.4,2.8 19.2,5 C18.9,4.9 18.7,4.9 18.4,4.9 C16.9,4.9 15.7,6.1 15.7,7.6 L15.7,18.8 L13.9,18.8 C13.4,18.8 12.9,19.2 12.9,19.8 L12.9,22.5 C12.9,24 14.1,25.2 15.6,25.2 L15.5,25.2 C15.5,29 17.6,32.3 20.7,34 L20.7,35.9 C20.7,37.5 19.8,39 18.4,39.7 C15.6,41.1 12.5,42.8 9.4,42.8 C4.3,42.8 0.2,46.9 0.2,52 L0.2,56.6 C0.2,58.2 1.5,59.5 3.1,59.5 L27.1,59.5 L51.1,59.5 C52.7,59.5 54,58.2 54,56.6 L54,52.1 C54.1,47.1 49.9,42.9 44.8,42.9 Z" id="Shape" fill="#0870E5"></path>
            </g>
        </g>
    </g>
</svg>