<?xml version="1.0" encoding="UTF-8"?>
<svg width="554px" height="467px" viewBox="0 0 554 467" version="1.1" xmlns="http://www.w3.org/2000/svg" xmlns:xlink="http://www.w3.org/1999/xlink">
    <!-- Generator: Sketch 48.1 (47250) - http://www.bohemiancoding.com/sketch -->
    <title>3rd-illustration</title>
    <desc>Created with Sketch.</desc>
    <defs>
        <linearGradient x1="11.5806496%" y1="75.0628257%" x2="89.6943812%" y2="24.0745802%" id="linearGradient-1">
            <stop stop-color="#EFF4F9" stop-opacity="0" offset="0%"></stop>
            <stop stop-color="#EFF4F9" offset="50.45%"></stop>
            <stop stop-color="#EFF4F9" stop-opacity="0" offset="100%"></stop>
        </linearGradient>
        <linearGradient x1="86.3645349%" y1="33.4693201%" x2="27.9157807%" y2="48.7467662%" id="linearGradient-2">
            <stop stop-color="#E8F0F6" offset="0%"></stop>
            <stop stop-color="#DFE9F3" stop-opacity="0" offset="100%"></stop>
        </linearGradient>
        <linearGradient x1="98.0676824%" y1="100.17316%" x2="-1.49780138%" y2="11.1554228%" id="linearGradient-3">
            <stop stop-color="#C8D3E8" offset="0%"></stop>
            <stop stop-color="#DFE9F3" offset="100%"></stop>
        </linearGradient>
        <linearGradient x1="99.6334757%" y1="86.8469769%" x2="6.87115991%" y2="-6.90739368%" id="linearGradient-4">
            <stop stop-color="#C8D3E8" offset="0%"></stop>
            <stop stop-color="#DFE9F3" offset="100%"></stop>
        </linearGradient>
        <linearGradient x1="8.96452804%" y1="90.4009385%" x2="64.1176526%" y2="31.6999302%" id="linearGradient-5">
            <stop stop-color="#1991CB" offset="0%"></stop>
            <stop stop-color="#19A0CB" offset="100%"></stop>
        </linearGradient>
        <linearGradient x1="43.5607023%" y1="87.8059658%" x2="57.0188789%" y2="8.54010346%" id="linearGradient-6">
            <stop stop-color="#DFE9F4" offset="0%"></stop>
            <stop stop-color="#F0F8FC" offset="100%"></stop>
        </linearGradient>
        <linearGradient x1="54.7515094%" y1="71.0530387%" x2="4.36754717%" y2="2.33922652%" id="linearGradient-7">
            <stop stop-color="#C8D3E8" offset="0%"></stop>
            <stop stop-color="#DFE9F3" offset="100%"></stop>
        </linearGradient>
        <linearGradient x1="74.5740741%" y1="57.8504785%" x2="17.0785185%" y2="94.5461722%" id="linearGradient-8">
            <stop stop-color="#C8D3E8" offset="0%"></stop>
            <stop stop-color="#DFE9F3" offset="100%"></stop>
        </linearGradient>
        <linearGradient x1="58.8031824%" y1="96.0612565%" x2="41.4408517%" y2="4.27820374%" id="linearGradient-9">
            <stop stop-color="#DFE9F4" offset="0%"></stop>
            <stop stop-color="#F0F8FC" offset="100%"></stop>
        </linearGradient>
        <linearGradient x1="-0.070920418%" y1="96.1613909%" x2="100.873814%" y2="3.0940048%" id="linearGradient-10">
            <stop stop-color="#EFF4F9" stop-opacity="0" offset="0%"></stop>
            <stop stop-color="#E1EBF4" offset="50.45%"></stop>
            <stop stop-color="#EFF4F9" stop-opacity="0" offset="100%"></stop>
        </linearGradient>
        <linearGradient x1="49.9170381%" y1="100.424138%" x2="49.9170381%" y2="0.0905172414%" id="linearGradient-11">
            <stop stop-color="#F2F6F9" stop-opacity="0" offset="0%"></stop>
            <stop stop-color="#CFDAEB" offset="100%"></stop>
        </linearGradient>
        <linearGradient x1="-0.115957447%" y1="50.0465201%" x2="99.9085106%" y2="50.0465201%" id="linearGradient-12">
            <stop stop-color="#F2F6F9" stop-opacity="0" offset="0%"></stop>
            <stop stop-color="#CFDAEB" offset="100%"></stop>
        </linearGradient>
        <linearGradient x1="-0.0108486165%" y1="49.9464199%" x2="99.9780795%" y2="49.9464199%" id="linearGradient-13">
            <stop stop-color="#FFFFFF" offset="0%"></stop>
            <stop stop-color="#FBF9F9" offset="100%"></stop>
        </linearGradient>
        <linearGradient x1="49.7565147%" y1="100.01895%" x2="49.7565147%" y2="-0.000512163892%" id="linearGradient-14">
            <stop stop-color="#F2F6F9" stop-opacity="0" offset="0%"></stop>
            <stop stop-color="#CFDAEB" offset="100%"></stop>
        </linearGradient>
        <linearGradient x1="50%" y1="100.078788%" x2="50%" y2="-0.388888889%" id="linearGradient-15">
            <stop stop-color="#F2F6F9" stop-opacity="0" offset="0%"></stop>
            <stop stop-color="#CFDAEB" offset="100%"></stop>
        </linearGradient>
        <linearGradient x1="50.7090909%" y1="99.9838384%" x2="50.7090909%" y2="-0.483838384%" id="linearGradient-16">
            <stop stop-color="#F2F6F9" stop-opacity="0" offset="0%"></stop>
            <stop stop-color="#CFDAEB" offset="100%"></stop>
        </linearGradient>
        <linearGradient x1="0.37499716%" y1="50.0037745%" x2="100.00169%" y2="50.0037745%" id="linearGradient-17">
            <stop stop-color="#FFFFFF" offset="0%"></stop>
            <stop stop-color="#FBF9F9" offset="100%"></stop>
        </linearGradient>
        <linearGradient x1="0.232642694%" y1="50.0149461%" x2="100.256312%" y2="50.0149461%" id="linearGradient-18">
            <stop stop-color="#FFFFFF" offset="0%"></stop>
            <stop stop-color="#FBF9F9" offset="100%"></stop>
        </linearGradient>
        <linearGradient x1="50.2035398%" y1="100.034615%" x2="50.2035398%" y2="0.124615385%" id="linearGradient-19">
            <stop stop-color="#F2F6F9" stop-opacity="0" offset="0%"></stop>
            <stop stop-color="#CFDAEB" offset="100%"></stop>
        </linearGradient>
        <linearGradient x1="1.36746545%" y1="60.743377%" x2="98.370275%" y2="39.5783171%" id="linearGradient-20">
            <stop stop-color="#1991CB" offset="0%"></stop>
            <stop stop-color="#19A0CB" offset="100%"></stop>
        </linearGradient>
        <linearGradient x1="-1.51851427%" y1="58.3308866%" x2="101.681885%" y2="44.4545641%" id="linearGradient-21">
            <stop stop-color="#1991CB" offset="0%"></stop>
            <stop stop-color="#19A0CB" offset="100%"></stop>
        </linearGradient>
    </defs>
    <g id="1.-Homepage" stroke="none" stroke-width="1" fill="none" fill-rule="evenodd" transform="translate(-722.000000, -1015.000000)">
        <g id="WHAT-WE-DO" transform="translate(212.000000, 841.000000)" fill-rule="nonzero">
            <g id="Automation-of-Infrastructure" transform="translate(24.000000, 174.000000)">
                <g id="3rd-illustration" transform="translate(420.000000, 0.000000)">
                    <circle id="Oval" fill="#47D7EA" cx="423.2" cy="80.6" r="35.2"></circle>
                    <circle id="Oval" fill="#47D7EA" cx="233.6" cy="71.4" r="35.4"></circle>
                    <path d="M282,54.7 L217.9,100.2 L190.3,157.3 L243.7,194.6 L237.5,206.5 L325.5,256.9 L514.8,126.4 L394.7,51.4 C360,29.7 315.5,31 282,54.7 Z" id="Shape" fill="#47D7EA"></path>
                    <polygon id="Shape" fill="url(#linearGradient-1)" points="650 303.6 122.1 383.3 0.4 290.2 528.3 210.6"></polygon>
                    <polygon id="Shape" fill="url(#linearGradient-2)" points="230.8 348.6 156.1 357.1 110.4 296.8 215.5 326.2"></polygon>
                    <path d="M230,344 C228,342.5 226,341.2 223.8,340.1 C223.8,339.3 223.4,338.6 222.7,338.1 C222,337.6 221.2,337.1 220.5,336.7 C221.3,335.8 221.4,334.5 220.3,333.6 C217.3,331.4 214.1,329.6 210.9,328.1 C210.7,327.8 210.4,327.6 209.9,327.4 C209.5,327.2 209.1,327 208.6,326.8 C210.3,326.2 211.4,324.4 209.6,323.1 C197.4,313.8 183.3,307.6 167.5,304.5 C165.9,304.2 164.7,305.1 164.3,306.2 C162.7,305.7 161.2,305.3 159.6,304.8 C158.6,304.5 157.7,304.8 157.1,305.4 C152.9,304.4 148.7,303.3 144.6,302.1 C144.3,302 144.1,302 143.8,302 C143.7,302 143.6,301.9 143.5,301.9 C140.4,301.1 137.3,300.2 134.3,299.4 C133.5,299.2 132.8,299.3 132.3,299.6 C129.7,299 127.1,298.4 124.5,298 C122.8,297.5 121,296.9 119.3,296.3 C118.2,295.9 115.7,272.8 115.1,273.5 C112.6,273.2 110.3,274.2 107.7,274.2 C105.5,274.2 105.3,299.2 107.1,300.5 C111.8,304 117.8,306.4 123.8,308.6 C123.8,309.3 124.1,310.1 125.1,310.6 C128.7,312.5 132.1,313.4 136.3,313.6 C136.6,313.6 137,313.5 137.3,313.4 C147,317.1 150.9,320.8 160.7,324.3 C165.8,326.1 176.7,328 181.8,329.5 C187,331.1 193.1,331.8 197.7,334.5 C201.8,336.9 204.1,340.9 208.6,342.8 C211.1,343.8 213.8,344.1 216.5,344.2 C218.9,345.6 221.3,347 223.8,348.4 C225,349.1 226.3,348.7 227.1,347.9 C227.2,347.9 227.2,347.9 227.3,348 C229.9,348.8 232,345.4 230,344 Z" id="Shape" fill="url(#linearGradient-3)"></path>
                    <path d="M217.2,343.9 L204.9,334.7 C200.5,331.4 199.6,325.1 202.9,320.7 L212.2,308.2 L238.4,327.9 C242.4,330.9 246.1,339.9 243,344 C237.6,351.2 224.5,349.3 217.2,343.9 Z" id="Shape" fill="#FBF9F9"></path>
                    <path d="M198.9,304 C198.9,304 219.1,309.1 223,310.1 C226.9,311.1 232.4,318.3 233.2,319.1 C233.9,319.8 235.6,321.9 236.3,323.4 C237,324.9 236.5,328.4 234.8,327.5 C233.1,326.6 230.5,325.3 230.5,325.3 C230.5,325.3 234.2,333.4 234.2,335.8 C234.2,338.2 234.2,340.6 233.6,340.8 C233,341 232.1,341.5 231.6,342.1 C231.1,342.7 229.2,341.9 228.5,342.1 C227.8,342.3 226.3,341.5 225,341.4 C223.7,341.2 221.3,340.8 219.8,340.7 C218.3,340.5 216.7,340.3 215.2,339.4 C213.7,338.5 212.4,337.9 209.8,335.7 C207.2,333.5 206.1,331.6 203.5,330 C200.9,328.4 194.4,324.4 192.6,323.3 C190.8,322.2 186,310.9 198.9,304 Z" id="Shape" fill="#FFC8C2"></path>
                    <path d="M180.6,318.7 L190.9,322 C190.9,322 188.7,308.4 198.9,304 L193.1,298.2 C193,298.2 176.7,298.2 180.6,318.7 Z" id="Shape" fill="#50BFD8"></path>
                    <path d="M318.7,285.5 C317.6,284.5 316.4,283.7 315.2,283 C315.2,282.5 315,282 314.6,281.7 C314.2,281.4 313.8,281.1 313.3,280.8 C313.7,280.2 313.8,279.3 313.2,278.8 C311.5,277.4 309.7,276.2 307.8,275.2 C307.7,275 307.5,274.8 307.2,274.7 C307,274.6 306.7,274.4 306.5,274.3 C307.5,273.9 308.1,272.7 307.1,271.9 C300.1,265.8 292.1,261.7 283.1,259.7 C282.2,259.5 281.5,260.1 281.2,260.8 C280.3,260.5 279.4,260.2 278.5,259.9 C277.9,259.7 277.4,259.9 277.1,260.3 C274.7,259.7 272.3,258.9 270,258.2 C269.8,258.1 269.7,258.1 269.5,258.1 C269.4,258.1 269.4,258 269.3,258 C267.5,257.5 265.8,256.9 264,256.4 C263.6,256.3 263.2,256.3 262.8,256.6 C261.3,256.2 259.8,255.8 258.3,255.5 C257.3,255.2 256.3,254.8 255.3,254.4 C254.7,254.2 254.2,254.4 253.8,254.8 C252.4,254.6 250.9,254.5 249.5,254.5 C248.2,254.5 247.4,256.2 248.4,257.1 C251.1,259.4 254.5,261 257.9,262.4 C257.9,262.9 258.1,263.4 258.6,263.7 C260.7,265 262.6,265.5 265,265.7 C265.2,265.7 265.4,265.7 265.6,265.6 C271.2,268 276.7,270.4 282.3,272.7 C285.2,273.9 288.1,275.2 291,276.2 C294,277.2 297.5,277.7 300.1,279.5 C302.5,281.1 303.7,283.7 306.3,284.9 C307.7,285.6 309.3,285.7 310.8,285.8 C312.2,286.7 313.6,287.6 314.9,288.5 C315.6,288.9 316.3,288.7 316.8,288.2 C316.8,288.2 316.9,288.2 316.9,288.2 C318.6,288.6 319.8,286.4 318.7,285.5 Z" id="Shape" fill="url(#linearGradient-4)"></path>
                    <path d="M293.7,264.3 L302.6,269.6 C302.6,269.6 304.3,261.6 310.9,261.3 C317.5,261 315.6,261.3 315.6,261.3 L313.4,253 C313.3,253 299.8,246.9 293.7,264.3 Z" id="Shape" fill="#50BFD8"></path>
                    <g id="Group" transform="translate(306.000000, 103.000000)" fill="#85FFE8">
                        <path d="M21,47.4 C20.9,47.4 20.8,47.4 20.8,47.3 L0.7,35.7 C0.5,35.6 0.5,35.4 0.5,35.3 L0.5,12.1 C0.5,11.9 0.6,11.8 0.7,11.7 L20.8,0.1 C21,-2.84113011e-14 21.1,-2.84113011e-14 21.3,0.1 L41.4,11.7 C41.6,11.8 41.6,12 41.6,12.1 L41.6,35.3 C41.6,35.5 41.5,35.6 41.4,35.7 L21.3,47.3 C21.2,47.4 21.1,47.4 21,47.4 Z M1.4,35 L21,46.3 L40.6,35 L40.6,12.4 L21,1.1 L1.4,12.4 L1.4,35 Z" id="Shape"></path>
                        <path d="M21,47.4 C20.7,47.4 20.5,47.2 20.5,46.9 L20.5,23.7 C20.5,23.4 20.7,23.2 21,23.2 C21.3,23.2 21.5,23.4 21.5,23.7 L21.5,46.9 C21.5,47.2 21.3,47.4 21,47.4 Z" id="Shape"></path>
                        <path d="M21,24.2 C20.8,24.2 20.7,24.1 20.6,24 C20.5,23.8 20.5,23.5 20.8,23.3 L40.9,11.7 C41.1,11.6 41.4,11.6 41.6,11.9 C41.7,12.1 41.7,12.4 41.4,12.6 L21.3,24.2 C21.2,24.2 21.1,24.2 21,24.2 Z" id="Shape"></path>
                        <path d="M21,24.2 C20.9,24.2 20.8,24.2 20.8,24.1 L0.7,12.5 C0.5,12.4 0.4,12.1 0.5,11.8 C0.6,11.6 0.9,11.5 1.2,11.6 L21.3,23.2 C21.5,23.3 21.6,23.6 21.5,23.9 C21.3,24.1 21.2,24.2 21,24.2 Z" id="Shape"></path>
                        <path d="M61.2,47.4 C61.1,47.4 61,47.4 61,47.3 L40.9,35.7 C40.7,35.6 40.6,35.3 40.7,35 C40.8,34.8 41.1,34.7 41.4,34.8 L61.2,46.3 L80.8,35 L80.8,12.4 L61.2,1.1 L41.4,12.6 C41.2,12.7 40.9,12.7 40.7,12.4 C40.6,12.2 40.6,11.9 40.9,11.7 L61,0.1 C61.2,-1.42115486e-13 61.3,-1.42115486e-13 61.5,0.1 L81.6,11.7 C81.8,11.8 81.8,12 81.8,12.1 L81.8,35.3 C81.8,35.5 81.7,35.6 81.6,35.7 L61.5,47.3 C61.3,47.4 61.3,47.4 61.2,47.4 Z" id="Shape"></path>
                        <path d="M61.2,47.4 C60.9,47.4 60.7,47.2 60.7,46.9 L60.7,23.7 C60.7,23.4 60.9,23.2 61.2,23.2 C61.5,23.2 61.7,23.4 61.7,23.7 L61.7,46.9 C61.7,47.2 61.4,47.4 61.2,47.4 Z" id="Shape"></path>
                        <path d="M61.2,24.2 C61,24.2 60.9,24.1 60.8,24 C60.7,23.8 60.7,23.5 61,23.3 L81.1,11.7 C81.3,11.6 81.6,11.6 81.8,11.9 C81.9,12.1 81.9,12.4 81.6,12.6 L61.5,24.2 C61.3,24.2 61.3,24.2 61.2,24.2 Z" id="Shape"></path>
                        <path d="M61.2,24.2 C61.1,24.2 61,24.2 61,24.1 L40.9,12.5 C40.7,12.4 40.6,12.1 40.7,11.8 C40.8,11.6 41.1,11.5 41.4,11.6 L61.5,23.2 C61.7,23.3 61.8,23.6 61.7,23.9 C61.5,24.1 61.3,24.2 61.2,24.2 Z" id="Shape"></path>
                        <path d="M41.1,82.2 C41,82.2 40.9,82.2 40.9,82.1 L20.8,70.5 C20.6,70.4 20.6,70.2 20.6,70.1 L20.6,46.9 C20.6,46.6 20.8,46.4 21.1,46.4 C21.4,46.4 21.6,46.6 21.6,46.9 L21.6,69.8 L41.2,81.1 L60.8,69.8 L60.8,46.9 C60.8,46.6 61,46.4 61.3,46.4 C61.6,46.4 61.8,46.6 61.8,46.9 L61.8,70.1 C61.8,70.3 61.7,70.4 61.6,70.5 L41.5,82.1 C41.3,82.2 41.2,82.2 41.1,82.2 Z" id="Shape"></path>
                        <path d="M41.1,82.2 C40.8,82.2 40.6,82 40.6,81.7 L40.6,58.5 C40.6,58.2 40.8,58 41.1,58 C41.4,58 41.6,58.2 41.6,58.5 L41.6,81.7 C41.6,82 41.4,82.2 41.1,82.2 Z" id="Shape"></path>
                        <path d="M41.1,59 C40.9,59 40.8,58.9 40.7,58.8 C40.6,58.6 40.6,58.3 40.9,58.1 L61,46.5 C61.2,46.4 61.5,46.4 61.7,46.7 C61.8,46.9 61.8,47.2 61.5,47.4 L41.4,59 C41.3,59 41.2,59 41.1,59 Z" id="Shape"></path>
                        <path d="M41.1,59 C41,59 40.9,59 40.9,58.9 L20.8,47.3 C20.6,47.2 20.5,46.9 20.6,46.6 C20.7,46.4 21,46.3 21.3,46.4 L41.4,58 C41.6,58.1 41.7,58.4 41.6,58.7 C41.4,58.9 41.3,59 41.1,59 Z" id="Shape"></path>
                    </g>
                    <g id="Group" transform="translate(210.000000, 126.000000)" fill="#85FFE8">
                        <path d="M26.3,52.9 C11.8,52.9 0,41.1 0,26.6 C0,12.1 11.8,0.3 26.3,0.3 C40.8,0.3 52.6,12.1 52.6,26.6 C52.6,41.1 40.8,52.9 26.3,52.9 Z M26.3,1.4 C12.4,1.4 1,12.7 1,26.7 C1,40.7 12.3,52 26.3,52 C40.3,52 51.6,40.7 51.6,26.7 C51.6,12.7 40.3,1.4 26.3,1.4 Z" id="Shape"></path>
                        <g transform="translate(12.000000, 20.000000)" id="Shape">
                            <g>
                                <path d="M6.3,12.8 C6.2,12.8 6,12.8 5.9,12.7 L0.3,7.1 C0.2,7 0.2,6.9 0.2,6.7 C0.2,6.5 0.3,6.4 0.3,6.3 L5.9,0.7 C6.1,0.5 6.4,0.5 6.6,0.7 C6.8,0.9 6.8,1.2 6.6,1.4 L1.4,6.6 L6.6,11.8 C6.8,12 6.8,12.3 6.6,12.5 C6.6,12.7 6.5,12.8 6.3,12.8 Z"></path>
                                <path d="M22.3,12.8 C22.2,12.8 22,12.8 21.9,12.7 C21.7,12.5 21.7,12.2 21.9,12 L27.1,6.8 L21.9,1.6 C21.7,1.4 21.7,1.1 21.9,0.9 C22.1,0.7 22.4,0.7 22.6,0.9 L28.2,6.5 C28.3,6.6 28.3,6.7 28.3,6.9 C28.3,7.1 28.2,7.2 28.2,7.3 L22.6,12.9 C22.6,12.7 22.4,12.8 22.3,12.8 Z"></path>
                            </g>
                            <path d="M12.5,12.9 C12.4,12.9 12.4,12.9 12.3,12.9 C12,12.8 11.9,12.5 12,12.3 L15.7,0.9 C15.8,0.6 16.1,0.5 16.3,0.6 C16.6,0.7 16.7,1 16.6,1.2 L12.9,12.6 C12.9,12.7 12.7,12.9 12.5,12.9 Z"></path>
                        </g>
                    </g>
                    <g id="Group" transform="translate(320.000000, 200.000000)" fill="#FFFFFF">
                        <path d="M18.4,35.6 C8.6,35.6 0.6,27.6 0.6,17.8 C0.6,8 8.6,0 18.4,0 C28.2,0 36.2,8 36.2,17.8 C36.2,27.6 28.2,35.6 18.4,35.6 Z M18.4,1 C9.1,1 1.6,8.5 1.6,17.8 C1.6,27.1 9.1,34.6 18.4,34.6 C27.6,34.6 35.2,27.1 35.2,17.8 C35.2,8.5 27.6,1 18.4,1 Z" id="Shape"></path>
                        <g transform="translate(8.000000, 13.000000)" id="Shape">
                            <g>
                                <path d="M5,9 C4.9,9 4.7,9 4.6,8.9 L0.8,5.1 C0.6,4.9 0.6,4.6 0.8,4.4 L4.6,0.6 C4.8,0.4 5.1,0.4 5.3,0.6 C5.5,0.8 5.5,1.1 5.3,1.3 L1.9,4.7 L5.3,8.1 C5.5,8.3 5.5,8.6 5.3,8.8 C5.3,9 5.1,9 5,9 Z"></path>
                                <path d="M15.7,9 C15.6,9 15.4,9 15.3,8.9 C15.1,8.7 15.1,8.4 15.3,8.2 L18.7,4.8 L15.3,1.4 C15.1,1.2 15.1,0.9 15.3,0.7 C15.5,0.5 15.8,0.5 16,0.7 L19.8,4.5 C20,4.7 20,5 19.8,5.2 L16,9 C16,9 15.8,9 15.7,9 Z"></path>
                            </g>
                            <path d="M9.1,9.1 C9,9.1 9,9.1 8.9,9.1 C8.6,9 8.5,8.7 8.6,8.5 L11.1,0.9 C11.2,0.6 11.5,0.5 11.7,0.6 C12,0.7 12.1,1 12,1.2 L9.5,8.8 C9.5,9 9.3,9.1 9.1,9.1 Z"></path>
                        </g>
                    </g>
                    <path d="M311.4,245.9 C311.2,245.8 311.1,245.6 311,245.4 C308.1,239.3 304.4,235.3 298.4,232 C293.8,229.5 289.4,226.9 285.3,223.6 C285.3,223.6 285.2,223.5 285.2,223.5 C282.9,222 280.9,220.5 279.6,219.2 C279.2,219.2 278.9,219.1 278.6,218.8 C275.7,215.8 272.5,213 268.8,211.1 C267.2,210.3 265.4,209.5 264.2,208.1 C263.8,208.3 263.3,208.4 262.9,208.1 C262,207.5 261.3,206.6 260.3,206 C259.6,205.5 258.8,205.2 258.2,204.6 C258.1,204.5 258.1,204.5 258,204.4 C257.7,204.3 257.4,204.2 257.1,204 C256.6,203.8 256.3,203.4 256.2,202.9 C254.4,202.1 253,200.6 251.9,198.9 C251.5,198.4 251.1,198 250.8,197.5 C250.4,196.9 250.1,196.3 249.7,195.6 C247.6,192.6 245.2,189.6 244.2,186.1 C244.2,185.9 244.1,185.8 244.1,185.6 C242.8,183.3 241.3,180.9 239.8,178.7 C239.5,178.6 239.1,178.5 238.9,178.1 C237.9,176.8 237.3,175.4 236.1,174.3 C235.1,173.3 234,172.5 232.9,171.6 C231.8,170.6 230.7,169.7 229.4,168.9 C228.6,168.4 227.9,168 227.3,167.4 C220.6,163.6 212.9,160.3 212.6,157.4 C212.2,153.5 213.9,142 204.8,133.5 C195.6,125 165.5,125.2 165.5,125.2 C165.5,125.2 148.2,132.7 147.3,145.2 C146.9,151.5 147.2,156.6 147.9,160.5 C147.9,160.6 148,160.7 148,160.8 C148.9,162.7 150.3,164.3 151.4,166 C151.9,166.8 151.5,167.5 150.9,167.9 C151,168 151.1,168.1 151.2,168.2 C151.2,168.2 136.8,184.3 135.1,189.5 C133.4,194.8 109.6,251.9 109.3,254.9 C109,257.9 111.5,264.9 111.2,268.2 C110.9,271.5 107.3,293.7 110.4,296.5 C113.4,299.3 138.1,305.1 143.9,308.4 C149.7,311.7 155,317.5 160.3,318.4 C165.6,319.2 177.5,318.4 180.5,318.4 C180.5,318.4 176.3,301.2 193,297.9 C193,297.9 185.2,281.3 180.8,277.1 C176.4,272.9 172.2,267.3 172.2,267.3 L254,254.5 C254,254.5 271.7,259.9 273.5,260.6 C275.3,261.3 292.4,263.7 293.6,264.1 C294.7,264.5 295.3,258.3 301.1,253.8 C305.3,250.6 313.3,252.7 313.3,252.7 C313.3,252.7 312.4,249.7 311.4,245.9 Z" id="Shape" fill="url(#linearGradient-5)"></path>
                    <path d="M198.6,148.7 C194.5,137.9 171.7,121.6 165.4,125.4 C165.4,125.4 161.1,158.5 189.7,157.5 C190.2,157.5 190.7,157.4 191.2,157.4 C193.6,154.4 195.9,151.4 198.6,148.7 Z" id="Shape" fill="#107DAD" opacity="0.4"></path>
                    <path d="M164.6,112.8 C164.6,112.8 156.2,115.7 159.5,120.4 C162.8,125.1 168.9,127.6 172,125.4 C172,125.4 172,141.5 173.9,145.1 C175.8,148.7 187.8,161.2 192.5,156.5 C195.9,153.1 207.4,136.1 213.7,126.6 C216.9,121.9 218.3,116.2 217.9,110.6 C217.1,100.9 214.1,84.7 203.9,66.1 L195.9,66.1 L178.4,73.9 L165.4,80 L158.8,89.9 L164.6,112.8 Z" id="Shape" fill="#FFC8C2"></path>
                    <path d="M201.6,149.4 L203.5,152.4 C205,155.9 204.8,161.3 203.2,164.7 L202.1,167.1 C201.2,169 198.2,168.3 198.3,166.2 C198.4,164.8 196.9,163.7 195.6,164.3 L193.6,165.1 C192.2,165.7 190.8,164.6 190.9,163.1 L191.3,157.7 C191.3,157.3 191.5,156.9 191.8,156.6 L198.4,148.8 C199.2,147.8 201,148.1 201.6,149.4 Z" id="Shape" fill="#50BFD8"></path>
                    <path d="M203.8,66.1 L201.8,66.1 C212.3,85.2 215.2,101.8 215.9,111.4 C216.3,116.7 214.9,121.9 211.9,126.3 C205.6,135.7 193.8,153.2 190.4,156.6 C189.9,157.1 189.3,157.4 188.7,157.5 C190.2,157.8 191.5,157.6 192.4,156.6 C195.7,153.3 207.1,136.5 213.5,127 C216.8,122.1 218.3,116.3 217.8,110.4 C217,100.6 214,84.5 203.8,66.1 Z" id="Shape" fill="#FFE7DE"></path>
                    <path d="M166.9,89.5 C168.8,97.8 176,126.8 187.7,133.7 C191,135.6 193.3,138.9 193.9,142.6 C194.7,147.6 194.6,153.9 190.3,157.3 C190.1,157.4 189.9,157.5 189.7,157.5 C187.9,157.5 180.3,156.6 174,145.2 C174,145.1 173.9,145 173.9,144.9 L172.9,141 C172.9,140.9 172.9,140.9 172.9,140.8 L172.2,132.9 C172.2,132.9 172.2,132.9 172.2,132.8 L172,127 C172,126.3 171.3,125.9 170.7,126.1 C169.3,126.5 166.8,126.6 162.9,123.8 C162.9,123.8 153.6,117.3 164,113 C164.4,112.8 164.7,112.4 164.6,112 C164.3,108.7 163.3,94.8 165,89.3 C165.3,88.4 166.7,88.4 166.9,89.5 Z" id="Shape" fill="#FFB6B6"></path>
                    <path d="M171.4,117.7 C171.4,117.7 160.9,98.8 166.4,87.2 C166.4,87.2 176.9,88.6 185.3,80.5 C193.6,72.5 201.4,67.5 203.9,66.1 C206.4,64.7 209.2,63.6 208.6,61.9 C208,60.2 205.8,58.9 204.4,59.7 C203,60.5 206.9,48.6 203.3,45.8 C199.7,43 190.3,40.5 185,43.9 C179.7,47.2 174.5,55.8 173.1,63.6 C173.1,63.6 164.8,61.7 161.2,64.7 C158.7,66.8 151.3,75.3 152.6,89.3 C153.7,101.1 160.9,111.6 171.2,117.5 L171.4,117.7 Z" id="Shape" fill="#FC3E64"></path>
                    <polygon id="Shape" fill="#DFE9F3" points="387.2 304.6 281.9 320.4 254.1 294.6 254.1 292.5 359.1 279.8 387.2 302.6"></polygon>
                    <polygon id="Shape" fill="#F1F4F9" points="387.2 302.6 281.9 318.4 254.1 292.5 359.1 277.7"></polygon>
                    <g id="Group" transform="translate(259.000000, 281.000000)" fill="#FBF9F9">
                        <polygon id="Shape" points="117.9 19.4 123.3 18.6 125.4 20.4 120.1 21.2"></polygon>
                        <polygon id="Shape" points="111.4 20.3 116.8 19.5 119 21.4 113.6 22.2"></polygon>
                        <polygon id="Shape" points="104.9 21.3 110.4 20.5 112.5 22.3 107.1 23.2"></polygon>
                        <polygon id="Shape" points="98.4 22.3 103.9 21.4 106.1 23.3 100.6 24.1"></polygon>
                        <polygon id="Shape" points="91.7 23.2 97.3 22.4 99.5 24.3 93.9 25.1"></polygon>
                        <polygon id="Shape" points="85 24.2 90.6 23.4 92.8 25.3 87.2 26.1"></polygon>
                        <polygon id="Shape" points="78.3 25.2 84 24.4 86.2 26.2 80.5 27.1"></polygon>
                        <polygon id="Shape" points="71.4 26.2 77.2 25.4 79.4 27.3 73.7 28.1"></polygon>
                        <polygon id="Shape" points="64.5 27.2 70.3 26.4 72.5 28.3 66.8 29.1"></polygon>
                        <polygon id="Shape" points="57.6 28.2 63.5 27.4 65.7 29.3 59.9 30.1"></polygon>
                        <polygon id="Shape" points="50.6 29.3 56.5 28.4 58.7 30.3 52.8 31.2"></polygon>
                        <polygon id="Shape" points="43.5 30.3 49.4 29.4 51.6 31.4 45.7 32.2"></polygon>
                        <polygon id="Shape" points="36.4 31.3 42.4 30.5 44.6 32.4 38.6 33.3"></polygon>
                        <polygon id="Shape" points="29.1 32.4 35.2 31.5 37.4 33.5 31.4 34.4"></polygon>
                        <polygon id="Shape" points="21.8 33.5 27.9 32.6 30.2 34.5 24.1 35.4"></polygon>
                        <polygon id="Shape" points="113.5 15.6 118.9 14.9 122.5 17.9 117.1 18.7"></polygon>
                        <polygon id="Shape" points="106.4 16.7 111.8 15.9 115.4 18.9 110 19.7"></polygon>
                        <polygon id="Shape" points="99.3 17.7 104.8 16.9 108.4 20 102.9 20.8"></polygon>
                        <polygon id="Shape" points="92 18.7 97.6 17.9 101.2 21 95.7 21.8"></polygon>
                        <polygon id="Shape" points="84.8 19.8 90.4 19 94 22.1 88.4 22.9"></polygon>
                        <polygon id="Shape" points="77.4 20.8 83 20 86.7 23.1 81 24"></polygon>
                        <polygon id="Shape" points="70 21.9 75.7 21.1 79.4 24.2 73.7 25"></polygon>
                        <polygon id="Shape" points="62.4 23 68.2 22.1 71.8 25.3 66.1 26.1"></polygon>
                        <polygon id="Shape" points="54.9 24 60.7 23.2 64.4 26.4 58.6 27.2"></polygon>
                        <polygon id="Shape" points="47.1 25.2 53 24.3 56.7 27.5 50.8 28.4"></polygon>
                        <polygon id="Shape" points="98.6 13.5 104.1 12.7 107.6 15.8 102.2 16.5"></polygon>
                        <polygon id="Shape" points="91.3 14.5 96.8 13.7 100.5 16.8 94.9 17.6"></polygon>
                        <polygon id="Shape" points="84.1 15.5 89.7 14.7 93.3 17.8 87.7 18.6"></polygon>
                        <polygon id="Shape" points="76.7 16.5 82.3 15.7 86 18.8 80.4 19.7"></polygon>
                        <polygon id="Shape" points="69.3 17.6 75 16.8 78.7 19.9 73 20.7"></polygon>
                        <polygon id="Shape" points="61.8 18.6 67.5 17.8 71.2 21 65.5 21.8"></polygon>
                        <polygon id="Shape" points="54.3 19.7 60.1 18.9 63.8 22 58 22.9"></polygon>
                        <polygon id="Shape" points="46.5 20.8 52.4 19.9 56.1 23.1 50.2 24"></polygon>
                        <polygon id="Shape" points="38.9 21.8 44.8 21 48.5 24.2 42.6 25"></polygon>
                        <polygon id="Shape" points="31 22.9 37 22.1 40.7 25.3 34.7 26.2"></polygon>
                        <polygon id="Shape" points="23.1 24 29.2 23.2 32.9 26.4 26.9 27.3"></polygon>
                        <polygon id="Shape" points="92.9 10 98.4 9.2 102 12.3 96.5 13.1"></polygon>
                        <polygon id="Shape" points="85.7 11 91.2 10.2 94.8 13.3 89.3 14.1"></polygon>
                        <polygon id="Shape" points="78.4 12 84 11.2 87.6 14.3 82 15.1"></polygon>
                        <polygon id="Shape" points="71 13 76.6 12.2 80.3 15.3 74.6 16.1"></polygon>
                        <polygon id="Shape" points="63.6 14 69.3 13.2 72.9 16.4 67.2 17.2"></polygon>
                        <polygon id="Shape" points="56 15.1 61.7 14.3 65.4 17.4 59.6 18.2"></polygon>
                        <polygon id="Shape" points="48.4 16.1 54.2 15.3 57.9 18.5 52.1 19.3"></polygon>
                        <polygon id="Shape" points="40.6 17.2 46.5 16.3 50.3 19.5 44.4 20.4"></polygon>
                        <polygon id="Shape" points="32.9 18.2 38.9 17.4 42.6 20.6 36.7 21.4"></polygon>
                        <polygon id="Shape" points="84.8 6.9 90.4 6.1 94 9.2 88.4 9.9"></polygon>
                        <polygon id="Shape" points="96 0.9 101.4 0.1 105 3.2 99.6 3.9"></polygon>
                        <polygon id="Shape" points="89 1.8 94.5 1.1 98.1 4.1 92.6 4.8"></polygon>
                        <polygon id="Shape" points="82.3 2.7 87.9 1.9 91.4 5 85.9 5.7"></polygon>
                        <polygon id="Shape" points="75.6 3.5 81.2 2.8 84.8 5.9 79.2 6.6"></polygon>
                        <polygon id="Shape" points="30.9 9.4 36.9 8.6 40.6 11.8 34.7 12.6"></polygon>
                        <polygon id="Shape" points="23.1 10.4 29.1 9.6 32.8 12.8 26.8 13.6"></polygon>
                        <polygon id="Shape" points="77.5 7.8 83.1 7.1 86.7 10.2 81.1 11"></polygon>
                        <polygon id="Shape" points="70.2 8.8 75.8 8.1 79.4 11.2 73.8 11.9"></polygon>
                        <polygon id="Shape" points="62.7 9.8 68.4 9.1 72 12.2 66.3 13"></polygon>
                        <polygon id="Shape" points="55.2 10.8 61 10.1 64.6 13.2 58.9 14"></polygon>
                        <polygon id="Shape" points="47.5 11.9 53.4 11.1 57 14.2 51.2 15"></polygon>
                        <polygon id="Shape" points="39.9 12.9 45.8 12.1 49.5 15.3 43.6 16.1"></polygon>
                        <polygon id="Shape" points="32.1 13.9 38 13.1 41.8 16.3 35.8 17.1"></polygon>
                        <polygon id="Shape" points="24.3 15 30.3 14.2 34.1 17.4 28.1 18.2"></polygon>
                        <polygon id="Shape" points="25 19.3 31 18.5 34.8 21.7 28.8 22.5"></polygon>
                        <polygon id="Shape" points="15.1 25.2 21.2 24.3 25 27.6 18.9 28.4"></polygon>
                        <polygon id="Shape" points="39.4 26.3 45.4 25.4 49.1 28.6 43.2 29.5"></polygon>
                        <polygon id="Shape" points="31.5 27.4 37.5 26.5 41.3 29.8 35.3 30.6"></polygon>
                        <polygon id="Shape" points="17.3 29.6 29.9 27.8 33.5 30.9 20.9 32.7"></polygon>
                        <polygon id="Shape" points="8.1 21.7 20.8 20 24.4 23.1 11.8 24.8"></polygon>
                        <polygon id="Shape" points="3.7 17.9 20 15.7 23.6 18.8 7.3 21"></polygon>
                        <polygon id="Shape" points="39 8.4 72.4 4 75.9 7 42.5 11.5"></polygon>
                        <polygon id="Shape" points="105.5 12.5 114.6 11.2 118.1 14.2 109 15.5"></polygon>
                        <polygon id="Shape" points="99.2 9.2 110.4 7.6 113.9 10.6 102.7 12.2"></polygon>
                        <polygon id="Shape" points="92 5.9 106.2 4 109.7 7 95.5 8.9"></polygon>
                        <polygon id="Shape" points="15.2 11.5 20.8 10.8 22.6 12.3 17 13.1"></polygon>
                        <polygon id="Shape" points="9.6 14.1 15.2 13.4 17.1 14.9 11.4 15.7"></polygon>
                        <polygon id="Shape" points="7.6 12.5 13.3 11.7 15.1 13.3 9.4 14"></polygon>
                        <polygon id="Shape" points="0.4 13.4 6.2 12.6 8 14.2 2.3 15"></polygon>
                    </g>
                    <path d="M303.9,290.3 C303.9,290.3 304,288.8 303.9,287.3 C303.8,285.8 304.9,279.9 303.9,279 C302.9,278.1 301.8,272.7 302.1,269.8 C302.5,266.8 305.6,261.9 307.1,261.5 C308.6,261.1 313,260.2 317.3,261.5 C321.6,262.8 331.9,268.2 333.4,269.1 C334.9,270 336.7,274.7 337.7,275.6 C338.6,276.5 340.8,279.3 341,280.2 C341.2,281.1 339.5,281.9 339,281.7 C338.5,281.5 334.4,277.6 334.4,277.6 C334.4,277.6 335.1,280.4 335,283.1 C334.8,285.9 333.9,291.4 333.3,292 C332.7,292.6 331.3,293.3 330.9,292.9 C330.5,292.5 330.5,295.1 330.9,296 C331.3,296.9 330,298 330,298 C330,298 326.8,298 326.2,296.7 C325.6,295.4 323.7,292.4 323.7,292.4 C323.7,292.4 323.5,296.1 322.4,295.9 C321.3,295.7 318.5,292.4 317.4,290 C316.3,287.6 314.4,282.2 313.3,280.9 C312.2,279.6 311.1,277.8 310.2,277.6 C309.3,277.4 310.8,283 309.8,284.8 C308.8,286.8 308.4,290.6 303.9,290.3 Z" id="Shape" fill="#FFC8C2"></path>
                    <path d="M416,142.4 C415.8,142.4 415.6,142.4 415.4,142.3 C402.9,138.3 394.4,126.3 395,113.2 C395.6,98.4 407.6,86 422.4,85.1 C430.6,84.6 438.4,87.4 444.4,93 C450.3,98.5 453.7,106.3 453.7,114.4 C453.7,126.6 446.1,137.6 434.7,141.9 C434.1,142.1 433.3,142 432.8,141.7 C432.2,141.3 431.9,140.7 431.9,140 L431.9,129.1 C431.9,128.2 431.6,127.4 431,126.7 C430.8,126.4 430.7,126 430.8,125.7 C430.9,125.4 431.2,125.1 431.5,125 C438,123 442.2,118.3 442.2,113 C442.2,111.3 441.8,109.7 440.9,108.1 C440.7,107.7 440.6,107.3 440.6,106.8 C440.5,104.8 440.4,102.7 440,100.7 L439.4,98.4 C439.4,98.2 439.3,98.2 439.3,98.1 C439.3,98.1 439.2,98 439.1,98.1 L436.7,98.5 C435.2,98.8 433.6,99.2 431.8,99.9 C431.1,100.2 430.1,100.5 429.1,100.3 C426.5,99.8 423.7,99.8 421.1,100.3 C420.1,100.5 419.2,100.2 418.4,99.9 C416.6,99.2 415,98.7 413.5,98.5 L411.2,98.1 C411,98 410.9,98.1 410.9,98.1 C410.9,98.1 410.8,98.2 410.8,98.3 L410.2,100.7 C409.7,102.7 409.6,104.8 409.6,106.8 C409.6,107.3 409.5,107.7 409.3,108.1 C408.5,109.7 408,111.3 408,113 C408,118.3 412.2,123 418.7,125 C419,125.1 419.3,125.4 419.4,125.7 C419.5,126 419.4,126.4 419.2,126.7 C418.6,127.4 418.3,128.2 418.3,129.1 L418.3,131.4 C418.3,131.6 418.2,131.8 418,131.9 C417.4,132.1 416.8,132.2 416.1,132.2 C413.5,132.1 411.4,130.9 409.9,128.3 C409.2,127.1 408.1,126.7 407.3,126.6 C406.6,126.5 406.1,126.6 405.8,126.7 C405.9,126.8 406.1,127 406.3,127.1 C406.8,127.5 407.4,128 408,128.9 C408.3,129.3 408.5,129.7 408.8,130.2 C409.7,131.9 410.9,134 412.9,134.5 C415.1,135 416.7,134.9 417.6,134.8 L417.8,134.8 C417.9,134.8 418.1,134.8 418.2,134.9 C418.3,135 418.4,135.1 418.4,135.3 L418.4,140.5 C418.4,141.2 418.1,141.8 417.5,142.2 C416.8,142.2 416.4,142.4 416,142.4 Z M424.2,85.9 C423.6,85.9 423,85.9 422.3,86 C408,86.9 396.4,98.8 395.8,113.2 C395.3,125.9 403.4,137.5 415.6,141.3 C415.9,141.4 416.3,141.3 416.6,141.1 C416.9,140.9 417.1,140.6 417.1,140.2 L417.1,135.5 C416.1,135.6 414.5,135.7 412.4,135.1 C410,134.5 408.6,132.1 407.6,130.3 C407.3,129.8 407.1,129.4 406.9,129 C406.4,128.2 405.8,127.8 405.4,127.4 C404.9,127 404.5,126.7 404.5,126.2 C404.5,126 404.6,125.5 405.3,125.3 C406.6,124.9 409.1,125.1 410.5,127.4 C411.9,129.7 413.6,130.7 415.9,130.8 C416.3,130.8 416.8,130.8 417.1,130.7 L417.1,128.8 C417.1,127.7 417.5,126.6 418.2,125.8 L418.3,125.2 L418.2,125.7 C411.3,123.6 406.8,118.5 406.8,112.7 C406.8,110.8 407.3,109 408.2,107.3 C408.3,107.1 408.4,106.8 408.4,106.5 C408.5,104.5 408.6,102.3 409.1,100.2 L409.7,97.9 C409.7,97.6 409.9,97.2 410.3,97 C410.6,96.8 411,96.7 411.4,96.9 L413.7,97.3 C415.3,97.6 416.9,98.1 418.8,98.8 C419.7,99.1 420.3,99.3 420.9,99.1 C423.7,98.6 426.5,98.6 429.3,99.1 C429.9,99.2 430.5,99.1 431.4,98.8 C433.3,98.1 434.9,97.6 436.5,97.3 L438.8,96.9 C439.1,96.8 439.5,96.8 439.8,97 C440.1,97.2 440.3,97.6 440.4,98 L441,100.3 C441.5,102.4 441.6,104.5 441.7,106.6 C441.7,106.9 441.8,107.2 441.9,107.4 C442.8,109.1 443.3,110.9 443.3,112.8 C443.3,118.5 438.8,123.6 431.9,125.8 L431.9,125.9 C432.6,126.7 433,127.8 433,128.9 L433,139.8 C433,140.2 433.2,140.5 433.5,140.7 C433.8,140.9 434.2,141 434.5,140.8 C445.5,136.7 452.9,126 452.9,114.3 C452.9,106.4 449.7,99 443.9,93.6 C438.3,88.6 431.5,85.9 424.2,85.9 Z" id="Shape" fill="#85FFE8"></path>
                    <path d="M487.9,237.3 L329.9,261.6 C327.2,262 325,259.6 325.6,257 L349.4,149.1 C349.7,147.6 351,146.4 352.6,146.1 L510.6,121.8 C513.3,121.4 515.5,123.8 514.9,126.4 L491.1,234.3 C490.7,235.9 489.5,237.1 487.9,237.3 Z" id="Shape" fill="url(#linearGradient-6)"></path>
                    <polygon id="Shape" fill="url(#linearGradient-7)" points="420.2 293.7 404.4 278.3 404.4 277.5 420.2 275.6 457.4 288.2"></polygon>
                    <polygon id="Shape" fill="url(#linearGradient-8)" points="414.7 208.4 403.7 250.2 417.2 248.2"></polygon>
                    <path d="M451.7,203.1 L414.7,208.3 L420.2,293.7 L456.5,288.6 C458.2,288.4 459.5,286.8 459.4,285.1 L454.2,205.2 C454.1,203.9 452.9,203 451.7,203.1 Z M440,256.1 C435.8,256.4 432.1,251.8 431.6,245.8 C431.2,239.8 434.2,234.7 438.3,234.4 C442.5,234.1 446.2,238.7 446.7,244.7 C447.2,250.7 444.2,255.8 440,256.1 Z" id="Shape" fill="url(#linearGradient-9)"></path>
                    <polygon id="Shape" fill="url(#linearGradient-10)" points="619.7 316.9 122.2 391.8 122.1 383.3 619.5 308.4"></polygon>
                    <polygon id="Shape" fill="#DFE9F3" points="420.2 293.7 404.4 278.3 404.4 277.5 420.2 292.9"></polygon>
                    <path d="M456.4,343.4 C454.3,337.6 457.9,332 458.1,331.8 L459.8,332.9 C459.8,332.9 456.6,337.9 458.3,342.8 L456.4,343.4 Z" id="Shape" fill="url(#linearGradient-11)"></path>
                    <path d="M467.8,331.9 L466.3,330.5 C472.6,323.6 473.7,304.8 473.7,304.6 L475.7,304.7 C475.6,305.6 474.6,324.5 467.8,331.9 Z" id="Shape" fill="url(#linearGradient-12)"></path>
                    <path d="M453.6,442.8 L451.9,441.8 C454.5,437.5 456.4,432.9 457.4,428.1 C460.5,413.5 454,376.6 450.1,359.1 C447.1,345.6 454.3,336.6 461.3,327.9 C468.9,318.5 476.7,308.8 473.1,292.6 C471.4,284.6 468.8,277.7 465.4,271.9 C457.8,258.9 438.9,242.8 432.7,239.2 L433.7,237.5 C440.1,241.2 459.3,257.7 467.1,271 C470.6,277 473.3,284.1 475.1,292.3 C478.8,309.4 470.7,319.5 462.9,329.3 C455.9,338 449.3,346.2 452.1,358.8 C456,376.4 462.6,413.8 459.4,428.7 C458.3,433.4 456.4,438.2 453.6,442.8 Z" id="Shape" fill="url(#linearGradient-13)"></path>
                    <path d="M414,365.2 L412,365 C412.4,361.3 413.4,358.2 414.5,355.3 C416.4,349.9 418.3,344.4 416.3,334.1 C416,332.7 415.7,331.3 415.5,329.8 C413.7,320.4 411.4,308.7 405.9,287.6 L407.8,287.1 C413.3,308.3 415.6,320 417.4,329.4 C417.7,330.9 418,332.3 418.2,333.7 C420.4,344.5 418.3,350.4 416.3,356 C415.3,359 414.3,361.8 414,365.2 Z" id="Shape" fill="url(#linearGradient-14)"></path>
                    <polygon id="Shape" fill="url(#linearGradient-15)" points="381.1 258 377.5 248.8 379.4 248.1 383 257.3"></polygon>
                    <polygon id="Shape" fill="url(#linearGradient-16)" points="397.1 255.9 393.4 246.7 395.3 246 398.9 255.2"></polygon>
                    <path d="M385.8,444.8 L383.9,444.2 C386.9,434.9 390.6,389.4 391.5,372.8 C392.3,359.3 391,351.9 389.8,344.6 C388.5,337.1 387.3,329.9 388.4,317 C389.2,307.9 390.6,301.1 391.9,295 C394,285 395.5,277.7 392.1,267.7 C389.5,260.3 385,253.6 378.5,247.6 L379.9,246.1 C386.6,252.3 391.3,259.3 394,267 C397.7,277.5 396.1,285 393.9,295.3 C392.6,301.3 391.2,308.1 390.5,317 C389.4,329.7 390.6,336.7 391.9,344.1 C393.1,351.5 394.4,359.1 393.6,372.7 C392.6,389.5 388.9,435.3 385.8,444.8 Z" id="Shape" fill="url(#linearGradient-17)"></path>
                    <path d="M416.1,467 C414.9,451.7 414.9,436.5 416.1,421.8 C416.8,413 417.8,403.6 418.8,394.4 C421.7,366.9 424.8,338.6 420.2,321.8 C418.6,315.9 417.2,313.2 415.2,309.5 C413.3,305.9 410.8,301.4 407.4,292.2 C401.7,276.8 397.9,260.8 396.1,244.4 L398.1,244.2 C399.9,260.4 403.7,276.4 409.3,291.6 C412.6,300.7 415,305.1 416.9,308.7 C418.9,312.4 420.4,315.3 422.1,321.4 C426.7,338.5 423.7,367.1 420.7,394.7 C419.7,403.8 418.7,413.3 418,422 C416.8,436.6 416.8,451.7 418,466.9 L416.1,467 Z" id="Shape" fill="url(#linearGradient-18)"></path>
                    <polygon id="Shape" fill="#FFFFFF" points="375.4 245.7 379.9 245 379.9 248.3 375.4 249"></polygon>
                    <polygon id="Shape" fill="#FFFFFF" points="393.9 243 398.4 242.4 398.4 245.6 393.9 246.3"></polygon>
                    <ellipse id="Oval" fill="#CBD6EA" transform="translate(432.439140, 170.830180) rotate(-67.648536) translate(-432.439140, -170.830180) " cx="432.43914" cy="170.83018" rx="9.60032687" ry="6.80023154"></ellipse>
                    <ellipse id="Oval" fill="#CBD6EA" transform="translate(359.814160, 249.868620) rotate(-67.648536) translate(-359.814160, -249.868620) " cx="359.81416" cy="249.86862" rx="2.80009534" ry="2.0000681"></ellipse>
                    <path d="M463.2,280.2 C454.1,262.5 442.5,256 442.3,256 L443.2,254.2 C443.7,254.5 455.5,261 464.9,279.3 L463.2,280.2 Z" id="Shape" fill="url(#linearGradient-19)"></path>
                    <path d="M207.8,101.3 C207.8,101.3 209.8,104.6 208.2,105.3 C207.5,105.6 206.5,105.7 205.6,105.7 C204.4,105.7 203.2,105 202.8,103.9 L207.8,101.3 Z" id="Shape" fill="#FFB6B6"></path>
                    <path d="M203.3,104.2 C206.3,103.1 212.1,100.5 208.7,96.6 C204.7,92.2 197.5,92.9 194.4,87.3 C194.1,86.7 193.2,87.2 193.5,87.8 C195.1,90.7 197.9,92.2 200.8,93.4 C202.8,94.2 204.8,94.9 206.6,96.2 C208.7,97.7 209.2,99.8 206.7,101.4 C205.5,102.2 204.2,102.7 202.9,103.2 C202.5,103.4 202.7,104.4 203.3,104.2 Z" id="Shape" fill="#B5503F"></path>
                    <path d="M188.9,96 C188.7,95.4 188.1,94.9 187.4,95.1 C187.3,95.1 187.2,95.2 187.2,95.2 C187,95.2 186.9,95.2 186.7,95.2 C186.6,95.2 186.5,95.2 186.5,95.2 C185.9,95.2 185.3,95.7 185.3,96.4 C185,97.1 185.2,98 185.8,98.5 C186.6,99.3 187.9,99.4 188.7,98.6 C189.3,98 189.3,96.9 188.9,96 Z" id="Shape" fill="#063E5B"></path>
                    <path d="M207.9,89 C207.2,88.5 206.4,88.6 205.8,89.1 C205.2,89.6 205,90.4 205.2,91.2 C205.4,92 206.1,92.8 207,92.7 C207.5,92.6 207.9,92.3 208.1,91.9 C208.8,91.1 208.8,89.6 207.9,89 Z" id="Shape" fill="#063E5B"></path>
                    <path d="M181.4,94.4 C181.5,92.3 183.8,91.6 185.5,91.3 C186.8,91.1 186.2,89.2 185,89.4 C182.2,89.8 179.6,91.4 179.4,94.4 C179.3,95.7 181.3,95.7 181.4,94.4 Z" id="Shape" fill="#E01B4B"></path>
                    <path d="M204.1,85.6 C205.4,83.9 207.5,83.6 209.3,84.7 C210.4,85.4 211.4,83.7 210.3,83 C207.8,81.4 204.6,81.9 202.7,84.2 C201.9,85.1 203.3,86.6 204.1,85.6 Z" id="Shape" fill="#E01B4B"></path>
                    <path d="M187.7,114.2 C188.5,116.2 190.6,117.8 192.8,118.2 C195.3,118.6 196.9,117 198.3,115.2 C198.7,114.7 198,114 197.6,114.5 C196.5,115.9 195.4,117.2 193.5,117.2 C191.6,117.2 189.4,115.8 188.6,114 C188.4,113.4 187.4,113.6 187.7,114.2 Z" id="Shape" fill="#B5503F"></path>
                    <path d="M211,129.8 C211,129.8 207.2,136.3 200.9,138.5 C198.5,139.3 197,141.7 197.6,144.1 C197.9,145.4 198,146.5 199.8,146.4 L211,129.8 Z" id="Shape" fill="#FFE7DE"></path>
                    <path d="M194,93.4 C194,93.4 198.6,97.1 200,98.2 C201.4,99.3 202.3,101.3 201.1,102 C199.7,102.8 195.7,100.5 194,98.6 C192.5,96.9 192.1,93.9 192,93 C191.9,92 192.7,92.3 194,93.4 Z" id="Shape" fill="#FFB6B6"></path>
                    <path d="M173.1,63.6 C173.1,63.6 164.3,71.3 161.6,77.1 C158.9,82.9 158.1,96.9 167,107.1 L171.5,117.6 C171.5,117.6 157.4,110.2 153.8,95.5 C150.2,80.8 154.2,66.5 163.3,63.5 C168.4,62 173.1,63.6 173.1,63.6 Z" id="Shape" fill="#F23361"></path>
                    <path d="M191.1,75.3 C191.1,75.3 200.6,65.9 195.5,57.5 C190.4,49.1 197.8,43.6 204.3,47.2 C210.7,50.8 204.4,59.7 204.4,59.7 C204.4,59.7 208,59 208.6,61.9 C209.2,64.8 202.7,71.8 191.1,75.3 Z" id="Shape" fill="#FF6C7E"></path>
                    <path d="M172,125.5 C172,125.5 176.5,127.9 174.9,131.2 C173.2,134.5 172.2,133 172.2,133 L172,125.5 Z" id="Shape" fill="#FC9F9F"></path>
                    <path d="M184,82.3 C195.2,80.1 191.2,64.2 188.1,57.1 C187.6,55.9 185.9,56.9 186.4,58.1 C189,64.1 193.1,78.5 183.5,80.4 C182.2,80.6 182.7,82.5 184,82.3 Z" id="Shape" fill="#E01B4B"></path>
                    <path d="M178.6,53.7 C178.8,51.4 179.7,49.3 181.1,47.5 C181.9,46.5 180.5,45.1 179.7,46.1 C177.9,48.3 176.9,50.9 176.6,53.7 C176.4,55 178.4,55 178.6,53.7 Z" id="Shape" fill="#FC3E64"></path>
                    <path d="M173.1,63.6 C173.1,63.6 186.1,80.7 160.5,80.3 C160.5,80.4 165,65.4 173.1,63.6 Z" id="Shape" fill="#F23361"></path>
                    <path d="M159.7,175 C163.9,178.4 168.3,181.4 173.1,183.9 C174.8,184.8 176.4,182.2 174.6,181.2 C170.1,178.8 165.8,176 161.8,172.7 C160.4,171.6 158.2,173.8 159.7,175 Z" id="Shape" fill="#107DAD"></path>
                    <path d="M214.4,160.6 C213.3,160.1 212.6,159.2 212.3,158.1 C211.9,158.2 211.6,158.6 211.5,159.1 C210.9,163.5 209.5,167.7 207.4,171.6 C206.4,173.3 209.1,174.9 210.1,173.1 C212.3,169.2 213.7,165 214.4,160.6 C214.4,160.6 214.4,160.6 214.4,160.6 Z" id="Shape" fill="#107DAD"></path>
                    <path d="M207.1,137.5 C209.4,140.4 210.3,143.8 210.9,147.4 C211.5,151.2 211.8,155.2 211,159 C210.9,159.6 211.8,159.9 212,159.3 C212.9,155.3 212.6,151.2 211.9,147.2 C211.3,143.4 210.3,139.9 207.9,136.9 C207.5,136.3 206.7,137 207.1,137.5 Z" id="Shape" fill="#2EFAFF"></path>
                    <path d="M253.7,201.5 C253.7,201.5 261.4,217.9 269.6,220.4 C277.8,222.9 287.8,226.7 288.4,227.1 C289,227.5 274.4,215.3 274.4,215.3 L253.7,201.5 Z" id="Shape" fill="#50BFD8"></path>
                    <path d="M301.1,254.1 C301.1,254.1 286.8,258.4 287.2,263.3 L293.6,264.4 C293.7,264.3 297.1,256.6 301.1,254.1 Z" id="Shape" fill="#107DAD"></path>
                    <path d="M315.1,260.2 C313,260.2 310.2,260 307.9,260.7 C308.1,260.6 308.2,260.4 308.2,260.2 C307.8,258 307.1,256 306.1,254.1 C307.8,254.5 308.5,256.5 309.4,257.9 C310,258.7 311.2,260.2 312.4,260 C314.6,259.6 313.3,254.8 313.3,253.4 C313.3,253.2 313.1,253 312.9,252.9 C313,252.7 312.9,252.4 312.6,252.3 C308.6,251.4 303.9,251.9 300.4,254.2 C297.4,256.2 293.8,260.2 293.3,263.9 C293.3,264.2 293.5,264.4 293.7,264.5 C294.7,265.5 295.9,266.4 297.2,267 C298.6,267.6 300.6,268.2 301.7,269.4 C302.1,269.8 302.6,269.4 302.5,269 C302.5,269 302.5,269 302.5,269 C303.3,266.4 304.2,263.6 306.9,262.3 C309.4,261.1 312.3,261.3 315,261.3 C315.7,261.2 315.7,260.2 315.1,260.2 Z M304.8,253.7 C305.9,255.6 306.6,257.7 307.1,259.8 C305.4,257.8 303.6,256 301.2,254.9 C302.3,254.2 303.5,253.7 304.7,253.4 C304.8,253.5 304.8,253.6 304.8,253.7 Z M312.4,253.2 C312.4,253.3 312.4,253.3 312.4,253.2 C312.5,254.5 312.7,255.7 312.7,257 C312.7,257.4 312.8,258.1 312.6,258.5 C312.2,259.2 311.4,258.4 311,258 C309.4,256.4 308.7,253.6 306.4,253 C308.4,252.7 310.5,252.8 312.4,253.2 Z M294.4,263.7 C295,260.9 297.4,257.9 299.8,255.9 C299.9,258.6 302,260.5 303.5,262.8 C301.5,261.5 297.4,258.5 296.3,260.6 C295.6,262 297,263.8 297.7,264.8 C298.2,265.4 298.7,266 299.2,266.6 C299.1,266.6 299,266.5 298.9,266.5 C297.2,265.8 295.8,265 294.4,263.7 Z M301.8,268 C301.1,267.2 300.3,266.5 299.6,265.6 C298.8,264.7 297,262.9 297.1,261.5 C297.2,260.1 299.8,261.8 300.5,262.2 C301.5,262.8 302.5,263.5 303.6,264 C302.8,265.3 302.3,266.6 301.8,268 Z M304.6,262.8 C303.2,260.6 300.8,258.6 300.8,255.8 C303.2,257 305.1,258.9 306.8,261 C306.8,261 306.9,261.1 306.9,261.1 C306.4,261.3 306,261.5 305.5,261.9 C305.2,262.1 304.9,262.4 304.6,262.8 Z" id="Shape" fill="url(#linearGradient-20)"></path>
                    <path d="M214.6,161.7 C224.3,166.2 234,171.6 240.1,180.8 C244.9,188.1 247.7,197 254.5,202.9 C258.2,206.1 262.6,208.2 266.8,210.7 C271.9,213.7 276,217.6 280.5,221.3 C284.7,224.7 289.1,227.8 293.8,230.4 C298.7,233.1 303.7,235.3 307.2,239.8 C309,242.1 310.4,244.8 311.2,247.6 C311.7,249.3 311.8,251 312.2,252.7 C313,255.7 313.9,258.7 315,261.5 C315.2,262.1 316.2,261.8 316,261.2 C315,258.5 314.2,255.6 313.4,252.8 C312.4,249.5 312.1,246.2 310.5,243 C305.5,233.3 294.5,230.3 286.1,224.3 C281.4,220.9 277.4,216.8 272.8,213.3 C268.6,210.1 263.8,208 259.4,205.2 C254.2,201.9 250.6,197.5 247.6,192.1 C245.7,188.7 244,185.2 242,181.8 C235.8,171.6 225.7,165.7 215.2,160.8 C214.5,160.6 214,161.5 214.6,161.7 Z" id="Shape" fill="#FFFFFF"></path>
                    <g id="Group" transform="translate(183.000000, 220.000000)" fill="#85FFE8">
                        <path d="M39.3,8.1 C38.2,4.2 34.1,1.7 30.1,2.6 C29.3,2.8 28.6,3.1 27.9,3.5 C27.4,3.8 27,4.1 26.5,4.5 C23.9,1.4 19.7,-0.2 15.5,0.7 C9.9,1.9 6.2,7.2 6.8,12.7 C2.1,14.4 -0.7,19.4 0.4,24.4 C1.6,29.9 7,33.4 12.5,32.1 L17.8,30.9 L17.2,28.1 L11.9,29.3 C8,30.2 4.1,27.7 3.2,23.7 C2.3,19.8 4.8,15.9 8.8,15 L10.2,14.7 L9.9,13.3 C8.9,8.8 11.8,4.4 16.2,3.4 C20.7,2.4 25.1,5.3 26.1,9.7 L27.3,15.4 L24.8,15.9 L29.8,20.1 L32.5,14.2 L30,14.7 L28.8,9 C28.6,8.2 28.4,7.5 28,6.8 L28.1,6.7 C28.4,6.3 28.8,6 29.2,5.8 C29.6,5.6 30.1,5.4 30.6,5.3 C33.3,4.7 35.9,6.4 36.5,9.1 C36.5,9.2 36.6,9.4 36.6,9.5 L36.8,10.7 L38,10.7 C40.9,10.8 43.4,12.8 44,15.6 C44.7,19 42.6,22.3 39.2,23.1 L27,25.8 C23.6,26.5 20.3,24.4 19.5,21 L18.6,17.1 L15.8,17.7 L16.7,21.6 C17.8,26.5 22.7,29.7 27.6,28.6 L39.8,25.9 C44.7,24.8 47.9,19.9 46.8,15 C46.1,11.4 43,8.6 39.3,8.1 Z" id="Shape"></path>
                        <polygon id="Shape" points="16.2 12.5 13.5 18.5 21.2 16.8"></polygon>
                    </g>
                    <path d="M177.3,182.3 C177.3,182.3 180.1,182 180.6,192.3 C181.1,202.6 184.2,218.9 184.4,220.4 C184.4,220.6 184.4,220.8 184.4,221.1 C184,222.8 181.7,223.3 180.5,222 C178.4,219.8 177.2,216.9 177.1,213.9 L176,188.2 C176,188.3 173.2,179.2 177.3,182.3 Z" id="Shape" fill="#FBF9F9"></path>
                    <path d="M208.8,173 C208.8,173 211.6,172.7 212.1,183 C212.6,193.2 215.7,209.6 215.9,211.1 C215.9,211.3 215.9,211.5 215.9,211.8 C215.5,213.5 213.2,214 212,212.7 C209.9,210.5 208.7,207.6 208.6,204.6 L207.5,178.9 C207.5,178.9 204.7,169.9 208.8,173 Z" id="Shape" fill="#FBF9F9"></path>
                    <path d="M157.3,239.2 C157.3,239.2 152.4,250.1 153.6,255 C154.8,260 160.1,270 164.9,272.3 C169.7,274.5 176.8,274.4 180.9,277.4 C182.8,278.8 177.5,273.3 172.3,267.6 C166.1,260.7 157.6,254.7 157.6,250 C157.5,241.3 157.3,239.2 157.3,239.2 Z" id="Shape" fill="#50BFD8"></path>
                    <path d="M171.9,265.1 C168.3,262.5 164.5,259.7 162.4,255.7 C160,251.4 159.9,245.6 160.2,240.8 C160.6,233.3 165.3,226.4 163.3,218.9 C162.8,217 159.8,217.8 160.3,219.7 C161.8,225.3 158.8,230.4 157.7,235.8 C156.8,240.4 156.8,245.3 157.5,250 C158.6,258.2 164,263.1 170.4,267.8 C172,269 173.5,266.3 171.9,265.1 Z" id="Shape" fill="#107DAD"></path>
                    <path d="M255.2,253.2 C253.7,248.4 251,244.3 246.9,241.4 C245.2,240.2 243.9,239.8 242.7,238.1 C241.2,236.1 241.4,234.5 241.2,232.1 C240.9,228.8 239.4,222.6 242.2,220 C243.6,218.6 241.5,216.5 240,217.8 C238,219.7 237.6,221.8 237.6,224.5 C237.6,228.7 237.6,234.2 238.7,238.2 C239.5,241.1 241.2,241.6 243.6,243 C247.9,245.5 250.8,249.3 252.3,254.1 C252.9,255.9 255.8,255.1 255.2,253.2 Z" id="Shape" fill="#107DAD"></path>
                    <path d="M139.7,263.6 C132,268.7 126.8,276.3 125,285.3 C124.9,286 125.2,287.1 126.1,287.2 C136,288.6 139.6,274.9 148.8,276 C150.8,276.2 150.7,273.2 148.8,272.9 C139.4,271.8 135.6,285.4 126.9,284.2 C127.3,284.8 127.6,285.5 128,286.1 C129.7,277.9 134.2,270.9 141.3,266.3 C142.8,265.2 141.3,262.5 139.7,263.6 Z" id="Shape" fill="#107DAD"></path>
                    <path d="M268.7,225.8 C265.6,230.9 263.6,236.4 262.7,242.4 C262.5,243.8 264.1,245.1 265.3,243.9 C270.3,238.9 275.4,233.9 280.4,228.9 C281.8,227.5 279.6,225.3 278.2,226.7 C273.2,231.7 268.1,236.7 263.1,241.7 C264,242.2 264.8,242.7 265.7,243.2 C266.5,237.5 268.4,232.3 271.4,227.4 C272.3,225.7 269.7,224.1 268.7,225.8 Z" id="Shape" fill="#107DAD"></path>
                    <path d="M139.2,263.4 C135.6,265.3 132,267.3 128.6,269.5 C126.1,271.1 123.6,272.7 122.4,275.5 C121.7,277.3 124.6,278.1 125.3,276.3 C126.4,273.7 130.7,271.6 133.1,270.2 C135.6,268.7 138.2,267.3 140.7,265.9 C142.4,265.1 140.9,262.5 139.2,263.4 Z" id="Shape" fill="#107DAD"></path>
                    <path d="M172.9,318.8 C174.5,318.8 176,318.8 177.6,318.8 C178.4,318.8 179.2,318.7 179.9,318.8 C180.1,318.8 180.3,318.7 180.5,318.7 C181.2,318.5 179.9,315.6 180,313.6 C180.6,307.4 183.1,303.9 183.1,303.9 C183.1,303.9 170.1,314.4 172.5,318.4 C172.7,318.5 172.8,318.7 172.9,318.8 Z" id="Shape" fill="#107DAD"></path>
                    <path d="M184.6,227.8 C184.2,227.9 183.8,227.7 183.6,227.3 L182,221.9 C181.9,221.5 182.1,221.1 182.5,221 C182.9,220.9 183.3,221.1 183.4,221.5 L185,226.9 C185.2,227.3 185,227.7 184.6,227.8 Z" id="Shape" fill="#FBF9F9"></path>
                    <path d="M215,218.4 C214.6,218.5 214.2,218.2 214.1,217.8 L213.4,212.2 C213.3,211.8 213.6,211.4 214,211.4 C214.4,211.3 214.8,211.6 214.8,212 L215.5,217.6 C215.7,218 215.4,218.3 215,218.4 Z" id="Shape" fill="#FBF9F9"></path>
                    <path d="M233.7,338.4 C232.7,334.1 230.9,324 225.9,322.6 C224.8,322.3 223.7,323.4 224,324.5 C224,324.5 224,324.6 224,324.6 C223.5,324.6 223.1,324.9 222.8,325.3 C222.5,325.3 222.2,325.3 222,325.4 C221.3,324.9 220.3,325.1 219.8,325.8 C219.3,325.3 218.6,325.2 218,325.5 C217.1,325.2 216.3,325.3 215.4,326.2 C214.8,326.8 214.7,327.5 214.8,328.2 C214.1,328.6 213.7,329.4 214.2,330.2 C214.3,330.4 214.5,330.5 214.6,330.7 C214,330.6 213.5,330.9 213.2,331.4 C213,331.3 212.8,331.3 212.6,331.3 C211.7,331 210.7,330.6 209.7,330.3 C208.2,329.8 207.2,331.8 208.2,332.9 C209.7,334.5 211.4,335.8 213.2,336.9 C214.9,338.2 216.9,339.2 219.2,339.8 C219.6,339.9 220,339.8 220.4,339.6 C220.6,339.9 220.9,340.1 221.3,340.3 C224.4,341.2 227.3,341.5 230.6,341.4 C231.4,341.4 231.9,340.8 232,340.2 C232.1,340.2 232.2,340.2 232.3,340.2 C233.3,340.5 233.9,339.3 233.7,338.4 Z M224.3,335.1 C224.5,335.4 224.7,335.6 225,335.7 C224.9,335.8 224.8,335.8 224.6,335.9 C224.4,336 224.2,336.2 224.1,336.4 C224.1,336.2 224,336 223.9,335.8 C223.7,335.5 223.5,335.2 223.3,334.9 C223.6,334.9 223.8,334.8 224,334.7 C224.1,334.8 224.2,335 224.3,335.1 Z M227.1,333.9 C227,333.6 226.8,333.2 226.7,332.9 C226.7,332.9 226.7,332.9 226.8,332.9 C226.9,333.1 227,333.2 227.1,333.4 C227.4,334.1 227.8,334.8 228.1,335.4 C227.9,335.3 227.8,335.3 227.6,335.3 C227.3,335.3 227.1,335.3 226.9,335.3 C227.2,334.9 227.3,334.5 227.1,333.9 Z M229.8,336.9 C229.9,336.9 230.1,336.9 230.2,336.8 C230.2,336.9 230.2,336.9 230.2,337 C230,337 229.9,337 229.8,336.9 Z" id="Shape" fill="#FFB6B6"></path>
                    <g id="Group" transform="translate(303.000000, 278.000000)" fill="#FFB6B6">
                        <path d="M31.7,1.3 C31.2,-0.4 28.7,-1.23789867e-14 28.7,1.7 C28.7,2.3 28.7,2.8 28.6,3.4 C28.2,2.6 27.8,1.8 27.3,1 C26.7,0.1 25.2,-0.1 24.6,1 C24.5,1.3 24.3,1.6 24.2,1.9 C23.6,1.4 22.9,1 22,0.6 C20.9,0.2 19.8,1.4 20.1,2.5 C20.8,4.8 21.4,7.1 22,9.4 C20.9,7.7 19.5,6.1 18.1,4.6 C17.3,3.7 16.1,4.2 15.7,5 C15.4,4.2 15.1,3.5 14.7,2.8 C13.7,1.1 11,2.7 12,4.3 C14.5,8.3 13.8,13.4 17.7,16.7 C18.8,17.6 20.8,16.8 20.3,15.2 C19.9,13.9 19.7,12.6 19.6,11.3 C20,12 20.5,12.8 20.9,13.6 C21.9,15.6 22.9,17.5 24.4,19.2 C25.5,20.4 27.2,19.1 27,17.7 C26.7,16.2 26.5,14.7 26.1,13.1 C26.3,13.2 26.4,13.2 26.6,13.2 C25.9,14.7 28.3,16 29.4,14.5 C32.2,10.7 32.9,6 31.7,1.3 Z" id="Shape"></path>
                        <path d="M3.5,3.3 C3.8,5.9 1.7,8.1 0.9,10.4 C0.3,12.3 3.3,13.1 3.9,11.2 C3.9,11.1 4,11 4,10.9 C4.1,10.9 4.2,10.8 4.3,10.8 C7.1,9 7,5.9 6.5,2.9 C6.2,1.2 3.3,1.5 3.5,3.3 Z" id="Shape"></path>
                    </g>
                    <g id="Group" transform="translate(211.000000, 274.000000)" fill="#E86D66">
                        <path d="M20.4,52.5 C20.7,53.1 21.5,52.6 21.3,52 C19.7,48.4 17.4,45.2 14.5,42.5 C14,42.1 13.3,42.8 13.8,43.2 C16.6,45.8 18.9,48.9 20.4,52.5 Z" id="Shape"></path>
                        <path d="M10,47.8 C9.7,47.3 8.8,47.8 9.1,48.3 C12.9,54.6 17,60.8 21.3,66.8 C21.7,67.3 22.5,66.8 22.2,66.3 C17.9,60.3 13.9,54.2 10,47.8 Z" id="Shape"></path>
                        <path d="M5.1,50.7 C4.8,50.1 3.9,50.6 4.2,51.2 C7.5,56.8 11.1,63.2 15.8,67.8 C16.3,68.2 17,67.5 16.5,67.1 C11.9,62.5 8.4,56.2 5.1,50.7 Z" id="Shape"></path>
                        <path d="M5.6,61.6 C3.9,59.9 1.6,57.8 1.5,55.2 C1.5,54.6 0.5,54.6 0.5,55.2 C0.6,57.4 1.9,59 3.3,60.5 C5.3,62.8 7.5,64.8 9.9,66.7 C10.4,67.1 11.1,66.4 10.6,66 C8.8,64.7 7.2,63.2 5.6,61.6 Z" id="Shape"></path>
                        <path d="M98.7,3.9 C99.1,3.9 99.5,3.4 99.1,3.1 C99,3 98.8,2.9 98.7,2.7 C98.4,2.5 97.9,2.5 97.9,2.9 C97.6,4.2 97.8,5.5 98.4,6.7 C98.7,7.3 99.6,6.8 99.3,6.2 C98.9,5.5 98.7,4.7 98.7,3.9 Z" id="Shape"></path>
                        <path d="M111.4,9.2 C110.4,6.5 108.4,4.3 106.4,2.3 C106,1.8 105.2,2.5 105.7,3 C107.7,5.1 109.9,7.3 110.7,10.2 C111,11.5 111,12.9 111.3,14.2 C111.6,15.7 112.4,16.9 112.3,18.4 C112.2,19 113.2,19 113.3,18.4 C113.4,17.1 112.9,16.1 112.5,14.8 C111.9,13 112,11 111.4,9.2 Z" id="Shape"></path>
                        <path d="M118.7,14.7 C118.4,13 117.9,11.3 117.4,9.6 C116.7,6.9 116.3,3.7 114.6,1.4 C114.2,0.9 113.5,1.6 113.9,2.1 C115.1,3.6 115.3,5.7 115.8,7.5 C116.3,9.2 116.8,10.9 117.2,12.7 C117.8,15.2 117.7,17.9 118.8,20.2 C119.1,20.8 120,20.3 119.7,19.7 C118.9,18 118.9,16.3 118.7,14.7 Z" id="Shape"></path>
                        <path d="M120.1,1.4 C120.9,6.8 120.2,12.6 120.1,18 C120.1,18.6 121.1,18.6 121.1,18 C121.2,12.5 121.9,6.6 121.1,1.1 C121,0.5 120,0.8 120.1,1.4 Z" id="Shape"></path>
                        <path d="M128.5,6.6 C127.1,6.3 126.3,5 125.3,4 C124.4,3.2 123.5,2.5 122.9,1.4 C122.6,0.8 121.7,1.3 122,1.9 C122.7,3.2 123.9,3.9 124.8,5 C125.8,6.1 126.7,7.2 128.2,7.6 C128.9,7.7 129.1,6.8 128.5,6.6 Z" id="Shape"></path>
                    </g>
                    <path d="M198.1,303.5 C196.5,302.2 191.8,297.2 189.7,299.7 C187.9,301.7 191.7,305.4 193.5,307.3 C189.9,307.4 187,304.1 183.3,304.5 C184.1,303.1 185,301.7 186.4,300.9 C188.2,299.8 190.8,298.7 192.8,298.7 C193.4,298.7 193.4,297.7 192.8,297.7 C188.4,297.9 184.5,300.5 182.3,304.2 C179.8,308.4 179.2,313.8 180.1,318.6 C180.2,318.9 180.4,319 180.7,318.9 C184,320 187.3,320.9 190.5,322.2 C190.5,322.2 190.5,322.2 190.5,322.2 C190.8,322.4 191.3,322.3 191.3,321.8 C191.1,316.8 191.6,311.9 194.3,308.2 C194.4,308.2 194.6,308.2 194.7,308.1 C195.1,308 195.1,307.6 195,307.3 C196,306.2 197.1,305.2 198.6,304.3 C199,304.1 198.6,303.3 198.1,303.5 Z M185.9,305.7 C188.4,306.4 190.5,308.1 193,308.3 C192,309.8 191.4,311.4 191,313.1 C189.7,311.7 188.4,310.4 186.9,309.2 C186.2,308.6 185.5,308.1 184.9,307.5 C183.5,306 184.2,305.2 185.9,305.7 Z M181,317.8 C183.8,318.6 186.7,319.2 189.6,319.6 C190.2,319.7 190.5,318.7 189.9,318.6 C187,318.2 184.1,317.6 181.2,316.8 C181.1,316.8 181,316.8 180.9,316.8 C180.8,316.2 180.8,315.7 180.8,315.1 C181.2,315.4 181.8,315.6 182.4,315.8 C185,316.6 187.7,317.4 190.4,318.2 C190.4,318.2 190.4,318.2 190.4,318.2 C190.4,319.1 190.4,320.1 190.4,321 C187.4,319.9 184.2,319 181.1,317.9 C181,317.9 181,317.9 181,317.8 Z M190.3,317.2 C188.8,316.8 187.3,316.3 185.8,315.9 C185,315.7 182.6,315.3 181.5,314.5 C184.5,314.9 187.5,314.9 190.6,314.5 C190.5,315.4 190.4,316.3 190.3,317.2 Z M182.7,305.4 C182.7,305.4 182.7,305.3 182.8,305.3 C183,306.9 183.9,308 185.2,309 C187,310.5 188.7,311.9 190.2,313.6 C187,313.9 183.9,313.9 180.8,313.4 C180.8,310.6 181.4,307.7 182.7,305.4 Z M194.2,306.6 C193.7,306 193.1,305.3 192.6,304.7 C192.2,304.3 191.9,303.9 191.5,303.4 C190.3,302.6 190.3,301.9 191.6,301.4 C192.1,300.5 192.6,300.3 193.1,301 C193.6,301.4 194.1,301.8 194.6,302.2 C195.4,302.8 196.3,303.5 197.1,304.1 C196,304.8 195.1,305.7 194.2,306.6 Z" id="Shape" fill="url(#linearGradient-21)"></path>
                    <g id="Group" transform="translate(300.000000, 57.000000)" fill="#85FFE8">
                        <path d="M24.7,28.8 L8.6,28.8 C8.4,28.8 8.3,28.7 8.2,28.6 L0.2,14.7 C0.1,14.5 0.1,14.4 0.2,14.2 L8.2,0.3 C8.3,0.1 8.5,0.1 8.6,0.1 L24.7,0.1 C24.9,0.1 25,0.2 25.1,0.3 L33.1,14.2 C33.2,14.4 33.2,14.5 33.1,14.7 L25.1,28.6 C25,28.7 24.9,28.8 24.7,28.8 Z M8.9,27.8 L24.4,27.8 L32.2,14.4 L24.4,1 L8.9,1 L1.1,14.4 L8.9,27.8 Z" id="Shape"></path>
                        <path d="M21.3,22.9 L12,22.9 C11.8,22.9 11.7,22.8 11.6,22.7 L6.9,14.6 C6.8,14.4 6.8,14.3 6.9,14.1 L11.6,6 C11.7,5.8 11.9,5.8 12,5.8 L21.3,5.8 C21.5,5.8 21.6,5.9 21.7,6 L26.4,14.1 C26.5,14.3 26.5,14.4 26.4,14.6 L21.7,22.7 C21.6,22.8 21.5,22.9 21.3,22.9 Z M12.3,21.9 L21,21.9 L25.4,14.3 L21,6.7 L12.3,6.7 L7.9,14.3 L12.3,21.9 Z M16.6,18.4 C14.4,18.4 12.5,16.6 12.5,14.3 C12.5,12 14.3,10.2 16.6,10.2 C18.8,10.2 20.7,12 20.7,14.3 C20.7,16.6 18.9,18.4 16.6,18.4 Z M16.6,11.3 C14.9,11.3 13.5,12.7 13.5,14.4 C13.5,16.1 14.9,17.5 16.6,17.5 C18.3,17.5 19.7,16.1 19.7,14.4 C19.7,12.7 18.3,11.3 16.6,11.3 Z" id="Shape"></path>
                        <path d="M28.1,6.8 L12,6.8 C11.7,6.8 11.5,6.6 11.5,6.3 C11.5,6 11.7,5.8 12,5.8 L28.1,5.8 C28.4,5.8 28.6,6 28.6,6.3 C28.6,6.6 28.3,6.8 28.1,6.8 Z" id="Shape"></path>
                        <path d="M17.9,28.8 C17.8,28.8 17.7,28.8 17.7,28.7 C17.5,28.6 17.4,28.3 17.5,28 L25.5,14.1 C25.6,13.9 25.9,13.8 26.2,13.9 C26.4,14 26.5,14.3 26.4,14.6 L18.4,28.5 C18.2,28.7 18.1,28.8 17.9,28.8 Z" id="Shape"></path>
                        <path d="M12,22.9 C11.8,22.9 11.7,22.8 11.6,22.7 L3.6,8.8 C3.5,8.6 3.5,8.3 3.8,8.1 C4,8 4.3,8 4.5,8.3 L12.5,22.2 C12.6,22.4 12.6,22.7 12.3,22.9 C12.2,22.9 12.1,22.9 12,22.9 Z" id="Shape"></path>
                    </g>
                    <path d="M263.1,109.5 C257.4,109.5 252.7,104.8 252.7,99.1 C252.7,93.4 257.4,88.7 263.1,88.7 C268.8,88.7 273.5,93.4 273.5,99.1 C273.5,104.8 268.8,109.5 263.1,109.5 Z M263.1,89.7 C257.9,89.7 253.7,93.9 253.7,99.1 C253.7,104.3 257.9,108.5 263.1,108.5 C268.3,108.5 272.5,104.3 272.5,99.1 C272.5,93.9 268.3,89.7 263.1,89.7 Z" id="Shape" fill="#FFFFFF"></path>
                    <path d="M298.9,189.1 C296.4,189.1 294.4,187.1 294.4,184.6 C294.4,182.1 296.4,180.1 298.9,180.1 C301.4,180.1 303.4,182.1 303.4,184.6 C303.4,187.1 301.4,189.1 298.9,189.1 Z M298.9,181.2 C297,181.2 295.4,182.7 295.4,184.7 C295.4,186.7 296.9,188.2 298.9,188.2 C300.9,188.2 302.4,186.7 302.4,184.7 C302.4,182.7 300.8,181.2 298.9,181.2 Z" id="Shape" fill="#85FFE8"></path>
                    <path d="M379.3,83.3 C376.8,83.3 374.8,81.3 374.8,78.8 C374.8,76.3 376.8,74.3 379.3,74.3 C381.8,74.3 383.8,76.3 383.8,78.8 C383.8,81.3 381.7,83.3 379.3,83.3 Z M379.3,75.4 C377.4,75.4 375.8,76.9 375.8,78.9 C375.8,80.9 377.3,82.4 379.3,82.4 C381.3,82.4 382.8,80.9 382.8,78.9 C382.8,76.9 381.2,75.4 379.3,75.4 Z" id="Shape" fill="#FFFFFF"></path>
                    <g id="Group" transform="translate(281.000000, 153.000000)" fill="#FFFFFF">
                        <path d="M5.7,6.1 C5.6,6.1 5.4,6.1 5.3,6 L0.6,1.3 C0.4,1.1 0.4,0.8 0.6,0.6 C0.8,0.4 1.1,0.4 1.3,0.6 L6,5.3 C6.2,5.5 6.2,5.8 6,6 C6,6.1 5.9,6.1 5.7,6.1 Z" id="Shape"></path>
                        <path d="M1,6.1 C0.9,6.1 0.7,6.1 0.6,6 C0.4,5.8 0.4,5.5 0.6,5.3 L5.3,0.6 C5.5,0.4 5.8,0.4 6,0.6 C6.2,0.8 6.2,1.1 6,1.3 L1.3,6 C1.3,6.1 1.1,6.1 1,6.1 Z" id="Shape"></path>
                    </g>
                    <g id="Group" transform="translate(461.000000, 113.000000)" fill="#FFFFFF">
                        <path d="M5.4,5.8 C5.3,5.8 5.1,5.8 5,5.7 L0.3,1 C0.1,0.8 0.1,0.5 0.3,0.3 C0.5,0.1 0.8,0.1 1,0.3 L5.7,5 C5.9,5.2 5.9,5.5 5.7,5.7 C5.7,5.8 5.6,5.8 5.4,5.8 Z" id="Shape"></path>
                        <path d="M0.7,5.8 C0.6,5.8 0.4,5.8 0.3,5.7 C0.1,5.5 0.1,5.2 0.3,5 L5,0.3 C5.2,0.1 5.5,0.1 5.7,0.3 C5.9,0.5 5.9,0.8 5.7,1 L1,5.7 C1,5.8 0.8,5.8 0.7,5.8 Z" id="Shape"></path>
                    </g>
                    <g id="Group" transform="translate(268.000000, 188.000000)" fill="#85FFE8">
                        <path d="M5.4,6.6 C5.3,6.6 5.1,6.6 5,6.5 L0.3,1.8 C0.1,1.6 0.1,1.3 0.3,1.1 C0.5,0.9 0.8,0.9 1,1.1 L5.7,5.8 C5.9,6 5.9,6.3 5.7,6.5 C5.7,6.5 5.5,6.6 5.4,6.6 Z" id="Shape"></path>
                        <path d="M0.7,6.6 C0.6,6.6 0.4,6.6 0.3,6.5 C0.1,6.3 0.1,6 0.3,5.8 L5,1.1 C5.2,0.9 5.5,0.9 5.7,1.1 C5.9,1.3 5.9,1.6 5.7,1.8 L1,6.5 C0.9,6.5 0.8,6.6 0.7,6.6 Z" id="Shape"></path>
                    </g>
                    <circle id="Oval" fill="#47D7EA" cx="273.3" cy="13.4" r="13.1"></circle>
                </g>
            </g>
        </g>
    </g>
</svg>