<?xml version="1.0" encoding="utf-8"?>
<!-- Generator: Adobe Illustrator 22.1.0, SVG Export Plug-In . SVG Version: 6.00 Build 0)  -->
<svg version="1.1" id="Layer_1" xmlns="http://www.w3.org/2000/svg" xmlns:xlink="http://www.w3.org/1999/xlink" x="0px" y="0px"
	 viewBox="0 0 1109 311" style="enable-background:new 0 0 1109 311;" xml:space="preserve">
<style type="text/css">
	.st0{fill:none;stroke:#A5A5A5;stroke-width:4;}
	.st1{fill:#A5A5A5;}
	.st2{fill:#FFFFFF;stroke:#A5A5A5;stroke-width:4;}
	.st3{fill:none;stroke:#A5A5A5;stroke-width:4;stroke-miterlimit:10;}
</style>
<title>Bitmap</title>
<desc>Created with Sketch.</desc>
<g>
	<g>
		<g>
			<line class="st0" x1="1015.2" y1="89.2" x2="1015.2" y2="111.9"/>
			<g>
				<path class="st1" d="M1012.1,107.3c0.2-0.1,0.4-0.1,0.4,0.1l2.7,4.3l2.7-4.3c0.1-0.2,0.3-0.2,0.4-0.1c0.2,0.1,0.2,0.3,0.1,0.4
					l-2.9,4.7c-0.1,0.1-0.2,0.2-0.3,0.2s-0.2-0.1-0.3-0.2l-2.9-4.7c0-0.1-0.1-0.1-0.1-0.2C1012,107.5,1012,107.4,1012.1,107.3z"/>
			</g>
		</g>
	</g>
	<g>
		<line class="st0" x1="215.4" y1="257.6" x2="222.9" y2="257.6"/>
		<line class="st0" x1="241.3" y1="257.6" x2="372" y2="257.5"/>
		<g>
			<g>
				<g>
					<line class="st0" x1="264.6" y1="43.3" x2="264.6" y2="65.7"/>
					<g>
						<path class="st1" d="M261.5,61.3c0.2-0.1,0.4-0.1,0.4,0.1l2.7,4.2l2.7-4.2c0.1-0.2,0.3-0.2,0.4-0.1c0.2,0.1,0.2,0.3,0.1,0.4
							l-2.9,4.6c-0.1,0.1-0.2,0.2-0.3,0.2s-0.2-0.1-0.3-0.2l-2.9-4.6c0-0.1-0.1-0.1-0.1-0.2C261.3,61.5,261.4,61.4,261.5,61.3z"/>
					</g>
				</g>
			</g>
			<g>
				<path class="st0" d="M114.4,122.1h64.1c0,0,19.2-0.2,19.2,20.6s0,20.8,0,20.8V196c0,0-0.2,16.8,18.6,16.6l64.9,0.6"/>
				<path class="st0" d="M129.6,122.1c0,0,17.5-4.6,17.4-18v-8.9c0,0-1-17.8,21.7-17.9s86.6-0.2,86.6-0.2"/>
				<g>
					<g id="Desktop">
						<g id="_x34_.-Blog" transform="translate(-166.000000, -997.000000)">
							<g id="SUBSCRIBE" transform="translate(135.000000, 913.000000)">
								<g id="Bitmap">
									<path class="st2" d="M315.4,109.4l-16.2,16.4c-1.7,1.7-4.5,1.8-6.3,0l-16.3-16.1c-1.7-1.7-1.8-4.5,0-6.3l16.1-16.3
										c1.7-1.7,4.5-1.8,6.3,0l16.3,16.1C317.1,104.9,317.1,107.7,315.4,109.4z"/>
									<path class="st2" d="M1066,155.7l-16.1,16.3c-1.7,1.7-4.5,1.8-6.3,0l-16.3-16.1c-1.7-1.7-1.8-4.5,0-6.3l16.1-16.3
										c1.7-1.7,4.5-1.8,6.3,0l16.3,16.1C1067.7,151.2,1067.7,154,1066,155.7z"/>
									<g>
										<g>
											<line class="st3" x1="53.1" y1="126" x2="53.1" y2="150"/>
											<g>
												<path class="st1" d="M50,145.6c0.2-0.1,0.4-0.1,0.4,0.1l2.7,4.2l2.7-4.2c0.1-0.2,0.3-0.2,0.4-0.1
													c0.2,0.1,0.2,0.3,0.1,0.4l-2.9,4.6c-0.1,0.1-0.2,0.2-0.3,0.2s-0.2-0.1-0.3-0.2l-2.9-4.6c0-0.1-0.1-0.1-0.1-0.2
													C49.8,145.7,49.9,145.6,50,145.6z"/>
											</g>
										</g>
									</g>
									<path class="st2" d="M72.5,109.4l-16.1,16.3c-1.7,1.7-4.5,1.8-6.3,0l-16.3-16.1c-1.7-1.7-1.8-4.5,0-6.3L49.9,87
										c1.7-1.7,4.5-1.8,6.3,0l16.2,16.1C74.2,104.8,74.2,107.6,72.5,109.4z"/>
									<circle class="st0" cx="53.1" cy="160.1" r="9.3"/>
									<circle class="st0" cx="136.5" cy="205.9" r="9.3"/>
									<path class="st0" d="M145.6,295.5c0,0.5,0,1-0.1,1.5c-0.7,4.4-4.5,7.8-9.2,7.8c-5.1,0-9.3-4.2-9.3-9.3s4.2-9.3,9.3-9.3
										S145.6,290.4,145.6,295.5z"/>
									<line class="st0" x1="153.3" y1="297" x2="145.5" y2="297"/>
									<path class="st0" d="M171.7,297H187c0,0,13.1,0.4,13.2,13.8s0,17.9,0,17.9s-0.2,13,14,12.8s14.2-0.3,14.2-0.3"/>
									<circle class="st0" cx="162.5" cy="295.5" r="9.3"/>
									<path class="st0" d="M145.6,384.6c0,0.6-0.1,1.2-0.2,1.7c-0.8,4.3-4.6,7.6-9.1,7.6c-5.1,0-9.3-4.2-9.3-9.3
										c0-5.1,4.2-9.3,9.3-9.3S145.6,379.5,145.6,384.6z"/>
									<circle class="st0" cx="237.6" cy="340" r="9.3"/>
									<circle class="st0" cx="263.4" cy="340" r="9.3"/>
									<circle class="st0" cx="237.6" cy="384.6" r="9.3"/>
									<circle class="st0" cx="295.7" cy="384.6" r="9.3"/>
									<circle class="st0" cx="321.7" cy="384.6" r="9.3"/>
									<circle class="st0" cx="412.6" cy="340" r="9.3"/>
									<circle class="st0" cx="322" cy="295.9" r="9.3"/>
									<circle class="st0" cx="296" cy="159.6" r="9.3"/>
									<circle class="st0" cx="826.8" cy="341.2" r="9.3"/>
									<circle class="st0" cx="852.3" cy="341.2" r="9.3"/>
									<circle class="st0" cx="826.8" cy="295.8" r="9.3"/>
									<circle class="st0" cx="936.7" cy="205.7" r="9.3"/>
									<circle class="st0" cx="1046.6" cy="205.7" r="9.3"/>
									
										<ellipse transform="matrix(0.1735 -0.9848 0.9848 0.1735 595.9645 1211.6769)" class="st0" cx="1019.9" cy="250.8" rx="9.3" ry="9.3"/>
									<circle class="st0" cx="1046.6" cy="250.8" r="9.3"/>
									<circle class="st0" cx="1129.5" cy="295.7" r="9.3"/>
									<circle class="st0" cx="936.9" cy="384.7" r="9.3"/>
									<path class="st3" d="M62.3,161.3h16.6c0,0,6.2-0.2,10,3.5s5.6,7.8,5.9,10.8s0,21,0,21s5.4,9,13.9,9.3s18.6,0,18.6,0"/>
									<path class="st3" d="M94.8,196.6l-0.2,85.5c0,0-0.9,15,14.9,15s17.8,0,17.8,0"/>
									<path class="st0" d="M1055.9,250.8h15.8c0,0,16.1,0.8,16.6,19v5.9c0,0,0.3,20.4,16.2,20.7c15.9,0.3,15.9,0.3,15.9,0.3"/>
									<path class="st0" d="M1010.7,250.8h-15.9c0,0-14.2,1.3-15,18.8c-0.8,17.5,0,51.3,0,51.3l-0.4,45.2c0,0-1.5,16.7-17,16.8
										c-15.5,0.2-16.4,0-16.4,0"/>
								</g>
								<polyline class="st0" points="946.3,206.9 1015.9,206.9 1037.3,206.9 								"/>
								<path class="st0" d="M1036.2,259.6"/>
								<line class="st0" x1="1046.6" y1="215" x2="1046.6" y2="241.5"/>
								<line class="st0" x1="1029.2" y1="250.8" x2="1037.3" y2="250.8"/>
							</g>
							<line class="st0" x1="280.5" y1="1299.3" x2="363.3" y2="1299.3"/>
							<line class="st0" x1="381.9" y1="1299.3" x2="421.6" y2="1299.3"/>
							<line class="st0" x1="439.8" y1="1299.3" x2="447.4" y2="1299.3"/>
							<path class="st0" d="M466,1299.3h161.7H696c0,0,18.6-0.5,19-15.5s2.3-28.9,19.3-28.9s85.3,0,85.3,0H901h52"/>
							<line class="st0" x1="971.1" y1="1254.2" x2="978.1" y2="1254.2"/>
							<line class="st0" x1="961.8" y1="1245" x2="961.8" y2="1218.1"/>
							<path class="st0" d="M971.1,1208.8h49.5c0,0,17.7-0.3,17.7-15.6v-56.1c0,0-2.1-17,14.5-17.2h9.4"/>
						</g>
					</g>
					<line class="st0" x1="105.3" y1="220.8" x2="105.3" y2="291.3"/>
				</g>
			</g>
		</g>
	</g>
</g>
</svg>
