<?xml version="1.0" encoding="utf-8"?>
<!-- Generator: Adobe Illustrator 22.0.1, SVG Export Plug-In . SVG Version: 6.00 Build 0)  -->
<svg version="1.1" id="Layer_1" xmlns="http://www.w3.org/2000/svg" xmlns:xlink="http://www.w3.org/1999/xlink" x="0px" y="0px"
	 viewBox="0 0 1440 770" style="enable-background:new 0 0 1440 770;" xml:space="preserve">
<style type="text/css">
	.st0{fill:url(#Rectangle_1_);}
	.st1{filter:url(#Adobe_OpacityMaskFilter);}
	.st2{fill:#FFFFFF;}
	.st3{mask:url(#background-b_3_);fill:#47D7EA;}
	.st4{fill:#47D7EA;}
	.st5{filter:url(#Adobe_OpacityMaskFilter_1_);}
	.st6{mask:url(#background-d_3_);fill:#47D7EA;}
	.st7{filter:url(#Adobe_OpacityMaskFilter_2_);}
	.st8{mask:url(#background-f_3_);fill:#47D7EA;}
	.st9{filter:url(#Adobe_OpacityMaskFilter_3_);}
	.st10{mask:url(#background-j_3_);fill:#47D7EA;}
	.st11{filter:url(#Adobe_OpacityMaskFilter_4_);}
	.st12{mask:url(#background-l_3_);fill:#47D7EA;}
	.st13{filter:url(#Adobe_OpacityMaskFilter_5_);}
	.st14{mask:url(#background-n_3_);fill:#47D7EA;}
	.st15{filter:url(#Adobe_OpacityMaskFilter_6_);}
	.st16{mask:url(#background-p_3_);fill:#47D7EA;}
	.st17{filter:url(#Adobe_OpacityMaskFilter_7_);}
	.st18{mask:url(#background-r_3_);fill:#47D7EA;}
	.st19{filter:url(#Adobe_OpacityMaskFilter_8_);}
	.st20{mask:url(#background-t_3_);fill:#47D7EA;}
	.st21{fill:#3DD7EC;}
	.st22{filter:url(#Adobe_OpacityMaskFilter_9_);}
	.st23{mask:url(#background-f_4_);fill:#47D7EA;}
</style>
<title>Rectangle</title>
<desc>Created with Sketch.</desc>
<g id="_x31_.-Homepage" transform="translate(0.000000, -50.000000)">
	<g id="HEADER" transform="translate(0.000000, 50.000000)">
		
			<linearGradient id="Rectangle_1_" gradientUnits="userSpaceOnUse" x1="414.6891" y1="782.0114" x2="413.6891" y2="781.0114" gradientTransform="matrix(1440 0 0 -770 -595746 602130)">
			<stop  offset="0" style="stop-color:#6FCAFA"/>
			<stop  offset="1" style="stop-color:#3E61DF"/>
		</linearGradient>
		<path id="Rectangle" class="st0" d="M-0.9-1.3h1440v700c-270.1,46.7-510.1,70-720,70s-449.9-23.3-720-70V-1.3z"/>
		<g transform="translate(162 114)">
			<g transform="translate(0 .69)">
				<defs>
					<filter id="Adobe_OpacityMaskFilter" filterUnits="userSpaceOnUse" x="271.2" y="331.3" width="29" height="45.1">
						<feColorMatrix  type="matrix" values="1 0 0 0 0  0 1 0 0 0  0 0 1 0 0  0 0 0 1 0"/>
					</filter>
				</defs>
				<mask maskUnits="userSpaceOnUse" x="271.2" y="331.3" width="29" height="45.1" id="background-b_3_">
					<g class="st1">
						<polygon id="background-a_3_" class="st2" points="271.2,331.3 300.2,331.3 300.2,376.4 271.2,376.4 						"/>
					</g>
				</mask>
				<path class="st3" d="M297.6,373.9c-2.1,2.1-5.5,2.1-7.6,0c-1-1-1.6-2.4-1.6-3.8c0-1.4,0.6-2.8,1.6-3.8c1-1,2.4-1.6,3.8-1.6
					s2.8,0.6,3.8,1.6c1,1,1.6,2.4,1.6,3.8C299.2,371.5,298.6,372.8,297.6,373.9 M273.8,357.7c-1-1-1.6-2.4-1.6-3.8
					c0-1.4,0.6-2.8,1.6-3.8c1-1,2.4-1.6,3.8-1.6s2.8,0.6,3.8,1.6c1,1,1.6,2.4,1.6,3.8c0,1.4-0.6,2.8-1.6,3.8
					C279.3,359.8,275.9,359.8,273.8,357.7 M290,333.9c1.1-1.1,2.4-1.6,3.8-1.6c1.4,0,2.8,0.5,3.8,1.6c2.1,2.1,2.1,5.5,0,7.6
					c-2.1,2.1-5.5,2.1-7.6,0C287.9,339.4,287.9,336,290,333.9 M293.8,363.7c-1.5,0-3,0.5-4.1,1.5l-7.2-7.2c1-1.2,1.5-2.6,1.5-4.1
					s-0.5-3-1.5-4.1l7.2-7.2c1.2,1,2.7,1.5,4.1,1.5c1.6,0,3.3-0.6,4.5-1.9c2.5-2.5,2.5-6.5,0-9s-6.5-2.5-9,0
					c-2.4,2.4-2.5,6.2-0.3,8.7l-7.2,7.2c-1.2-1-2.6-1.5-4.1-1.5c-1.7,0-3.3,0.7-4.5,1.9c-1.2,1.2-1.9,2.8-1.9,4.5s0.7,3.3,1.9,4.5
					c1.2,1.2,2.9,1.9,4.5,1.9c1.5,0,3-0.5,4.1-1.5l7.2,7.2c-1,1.2-1.5,2.6-1.5,4.1c0,1.7,0.7,3.3,1.9,4.5c1.2,1.2,2.9,1.9,4.5,1.9
					s3.3-0.6,4.5-1.9c1.2-1.2,1.9-2.8,1.9-4.5c0-1.7-0.7-3.3-1.9-4.5C297.1,364.3,295.5,363.7,293.8,363.7"/>
			</g>
			<path class="st4" d="M330.3,374.9c-1,1-2.4,1.6-3.8,1.6s-2.8-0.6-3.8-1.6c-2.1-2.1-2.1-5.5,0-7.6c1.1-1.1,2.4-1.6,3.8-1.6
				c1.4,0,2.8,0.5,3.8,1.6C332.4,369.4,332.4,372.8,330.3,374.9 M314.1,391.1c-1,1-2.4,1.6-3.8,1.6s-2.8-0.6-3.8-1.6
				c-2.1-2.1-2.1-5.5,0-7.6c1.1-1.1,2.4-1.6,3.8-1.6s2.8,0.5,3.8,1.6c1,1,1.6,2.4,1.6,3.8C315.7,388.7,315.2,390.1,314.1,391.1
				 M306.5,358.8c-2.1-2.1-2.1-5.5,0-7.6c2.1-2.1,5.5-2.1,7.6,0c1,1,1.6,2.4,1.6,3.8c0,1.4-0.6,2.8-1.6,3.8c-1,1-2.4,1.6-3.8,1.6
				S307.5,359.8,306.5,358.8 M331,366.6c-2.4-2.4-6.2-2.5-8.7-0.3l-7.2-7.2c1-1.2,1.5-2.6,1.5-4.1c0-1.7-0.7-3.3-1.9-4.5
				c-2.5-2.5-6.5-2.5-9,0c-2.5,2.5-2.5,6.5,0,9c1.2,1.2,2.8,1.9,4.5,1.9c1.5,0,3-0.5,4.1-1.5l7.2,7.2c-2,2.4-2,5.9,0,8.3l-7.2,7.2
				c-2.5-2.1-6.3-2-8.7,0.3c-2.5,2.5-2.5,6.5,0,9c1.2,1.2,2.8,1.9,4.5,1.9c1.7,0,3.3-0.7,4.5-1.9c1.2-1.2,1.9-2.8,1.9-4.5
				c0-1.5-0.5-3-1.5-4.1l7.2-7.2c1.2,1,2.6,1.5,4.1,1.5c1.7,0,3.3-0.7,4.5-1.9C333.5,373.2,333.5,369.1,331,366.6"/>
		</g>
		<g transform="rotate(-44 255.701 -363.715)">
			<path class="st4" d="M13.4,442.8c-0.2-0.2-0.5-0.2-0.7,0L8.4,447c-0.2,0.2-0.2,0.5,0,0.7l4.2,4.2c0.1,0.1,0.2,0.1,0.4,0.1
				c0.1,0,0.3,0,0.4-0.1c0.2-0.2,0.2-0.5,0-0.7l-3.9-3.9l3.9-3.9C13.6,443.3,13.6,443,13.4,442.8 M25.4,442.8
				c-0.2-0.2-0.5-0.2-0.7,0c-0.2,0.2-0.2,0.5,0,0.7l3.9,3.9l-3.9,3.9c-0.2,0.2-0.2,0.5,0,0.7c0.1,0.1,0.2,0.1,0.4,0.1
				c0.1,0,0.3,0,0.4-0.1l4.2-4.2c0.2-0.2,0.2-0.5,0-0.7L25.4,442.8z M20.5,442.6c-0.3-0.1-0.5,0.1-0.6,0.3l-2.7,8.6
				c-0.1,0.3,0.1,0.5,0.3,0.6c0.1,0,0.1,0,0.2,0c0.2,0,0.4-0.1,0.5-0.3l2.7-8.6C21,443,20.8,442.7,20.5,442.6 M-20.6,502
				c-0.2-0.2-0.5-0.2-0.7,0l-4.2,4.2c-0.2,0.2-0.2,0.5,0,0.7l4.2,4.2c0.1,0.1,0.2,0.1,0.4,0.1c0.1,0,0.3,0,0.4-0.1
				c0.2-0.2,0.2-0.5,0-0.7l-3.9-3.9l3.9-3.9C-20.4,502.6-20.4,502.2-20.6,502 M-8.6,502c-0.2-0.2-0.5-0.2-0.7,0
				c-0.2,0.2-0.2,0.5,0,0.7l3.9,3.9l-3.9,3.9c-0.2,0.2-0.2,0.5,0,0.7c0.1,0.1,0.2,0.1,0.4,0.1c0.1,0,0.3,0,0.4-0.1l4.2-4.2
				c0.2-0.2,0.2-0.5,0-0.7L-8.6,502z M-13.4,501.8c-0.3-0.1-0.5,0.1-0.6,0.3l-2.7,8.6c-0.1,0.3,0.1,0.5,0.3,0.6c0.1,0,0.1,0,0.2,0
				c0.2,0,0.4-0.1,0.5-0.3l2.7-8.6C-13,502.2-13.2,501.9-13.4,501.8"/>
			<g transform="translate(33 .99)">
				<defs>
					<filter id="Adobe_OpacityMaskFilter_1_" filterUnits="userSpaceOnUse" x="-55.3" y="-491.5" width="116.6" height="30.9">
						<feColorMatrix  type="matrix" values="1 0 0 0 0  0 1 0 0 0  0 0 1 0 0  0 0 0 1 0"/>
					</filter>
				</defs>
				<mask maskUnits="userSpaceOnUse" x="-55.3" y="-491.5" width="116.6" height="30.9" id="background-d_3_">
					<g class="st5">
						<polygon id="background-c_3_" class="st2" points="3,426.5 39.9,426.5 39.9,525.5 3,525.5 -33.9,525.5 -33.9,426.5 						"/>
					</g>
				</mask>
				<path class="st6" d="M20,524.5c-10.4,0-18.9-8.5-18.9-18.9s8.5-18.9,18.9-18.9c10.4,0,18.9,8.5,18.9,18.9
					C38.9,516,30.4,524.5,20,524.5 M-32.9,446.4c0-10.4,8.5-18.9,18.9-18.9c10.4,0,18.9,8.5,18.9,18.9c0,10.4-8.5,18.9-18.9,18.9
					C-24.4,465.3-32.9,456.8-32.9,446.4 M20,485.7c-3.9,0-7.4,1.1-10.5,3c0,0,0,0,0,0c0,0,0,0,0,0l0,0v0l1-3.7
					c0.1-0.3-0.1-0.5-0.4-0.6c-0.3-0.1-0.5,0.1-0.6,0.4l-0.7,2.5l-14-23.1c0,0,0,0,0,0c6.5-3.3,11-10,11-17.8
					c0-11-8.9-19.9-19.9-19.9c-11,0-19.9,8.9-19.9,19.9c0,11,8.9,19.9,19.9,19.9c2.8,0,5.5-0.6,8-1.7c0,0,0,0.1,0,0.1L8,487.8
					l-2.5-0.6c-0.3-0.1-0.5,0.1-0.6,0.4c-0.1,0.3,0.1,0.5,0.4,0.6l3.7,1c0,0,0,0,0.1,0c-5.3,3.6-8.9,9.6-8.9,16.5
					c0,11,8.9,19.9,19.9,19.9c11,0,19.9-8.9,19.9-19.9C39.9,494.7,31,485.7,20,485.7"/>
			</g>
			<path class="st4" d="M47.4,502c-0.2-0.2-0.5-0.2-0.7,0l-4.2,4.2c-0.2,0.2-0.2,0.5,0,0.7l4.2,4.2c0.1,0.1,0.2,0.1,0.4,0.1
				c0.1,0,0.3,0,0.4-0.1c0.2-0.2,0.2-0.5,0-0.7l-3.9-3.9l3.9-3.9C47.5,502.6,47.5,502.2,47.4,502 M59.4,502c-0.2-0.2-0.5-0.2-0.7,0
				c-0.2,0.2-0.2,0.5,0,0.7l3.9,3.9l-3.9,3.9c-0.2,0.2-0.2,0.5,0,0.7c0.1,0.1,0.2,0.1,0.4,0.1c0.1,0,0.3,0,0.4-0.1l4.2-4.2
				c0.2-0.2,0.2-0.5,0-0.7L59.4,502z M54.5,501.8c-0.3-0.1-0.5,0.1-0.6,0.3l-2.7,8.6c-0.1,0.3,0.1,0.5,0.3,0.6c0.1,0,0.1,0,0.2,0
				c0.2,0,0.4-0.1,0.5-0.3l2.7-8.6C54.9,502.2,54.8,501.9,54.5,501.8"/>
			<path class="st4" d="M-15,525.5c-10.4,0-18.9-8.5-18.9-18.9c0-10.4,8.5-18.9,18.9-18.9s18.9,8.5,18.9,18.9
				C3.9,517-4.6,525.5-15,525.5 M33.1,506.4c0-0.1-0.1-0.1-0.1-0.2l-2.7-2.7c-0.2-0.2-0.5-0.2-0.7,0c-0.2,0.2-0.2,0.5,0,0.7l1.8,1.8
				l-26.5,0c-0.2-6.9-3.9-12.9-9.4-16.4l13.9-23l0.7,2.5c0.1,0.2,0.3,0.4,0.5,0.4c0,0,0.1,0,0.1,0c0.3-0.1,0.4-0.3,0.4-0.6l-1-3.7v0
				l0,0c0,0,0,0,0-0.1c0,0,0-0.1-0.1-0.1c0,0-0.1-0.1-0.1-0.1c0,0,0,0,0,0c0,0,0,0,0,0c0,0,0,0,0,0c0,0-0.1,0-0.1,0c0,0,0,0-0.1,0
				c0,0,0,0,0,0c-0.1,0-0.1,0-0.2,0h0l-3.7,1c-0.3,0.1-0.4,0.3-0.4,0.6c0.1,0.3,0.3,0.4,0.6,0.4l2.5-0.6l-13.9,23
				c-2.9-1.6-6.1-2.5-9.6-2.5c-11,0-19.9,8.9-19.9,19.9c0,11,8.9,19.9,19.9,19.9c10.8,0,19.6-8.7,19.9-19.4l26.5,0l-1.8,1.8
				c-0.2,0.2-0.2,0.5,0,0.7c0.1,0.1,0.2,0.1,0.4,0.1c0.1,0,0.3,0,0.4-0.1L33,507c0,0,0.1-0.1,0.1-0.2c0-0.1,0-0.1,0-0.2
				C33.1,506.5,33.1,506.5,33.1,506.4"/>
		</g>
		<g transform="translate(638 152)">
			<path class="st4" d="M297.6,374.5c-2.1,2.1-5.5,2.1-7.6,0c-1-1-1.6-2.4-1.6-3.8c0-1.4,0.6-2.8,1.6-3.8c1-1,2.4-1.6,3.8-1.6
				s2.8,0.6,3.8,1.6c1,1,1.6,2.4,1.6,3.8C299.2,372.2,298.6,373.5,297.6,374.5 M273.8,358.4c-1-1-1.6-2.4-1.6-3.8
				c0-1.4,0.6-2.8,1.6-3.8c1-1,2.4-1.6,3.8-1.6s2.8,0.6,3.8,1.6c1,1,1.6,2.4,1.6,3.8c0,1.4-0.6,2.8-1.6,3.8
				C279.3,360.5,275.9,360.5,273.8,358.4 M290,334.6c1.1-1.1,2.4-1.6,3.8-1.6c1.4,0,2.8,0.5,3.8,1.6c2.1,2.1,2.1,5.5,0,7.6
				c-2.1,2.1-5.5,2.1-7.6,0C287.9,340.1,287.9,336.7,290,334.6 M293.8,364.3c-1.5,0-3,0.5-4.1,1.5l-7.2-7.2c1-1.2,1.5-2.6,1.5-4.1
				s-0.5-3-1.5-4.1l7.2-7.2c1.2,1,2.7,1.5,4.1,1.5c1.6,0,3.3-0.6,4.5-1.9c2.5-2.5,2.5-6.5,0-9s-6.5-2.5-9,0
				c-2.4,2.4-2.5,6.2-0.3,8.7l-7.2,7.2c-1.2-1-2.6-1.5-4.1-1.5c-1.7,0-3.3,0.7-4.5,1.9c-1.2,1.2-1.9,2.8-1.9,4.5s0.7,3.3,1.9,4.5
				c1.2,1.2,2.9,1.9,4.5,1.9c1.5,0,3-0.5,4.1-1.5l7.2,7.2c-1,1.2-1.5,2.6-1.5,4.1c0,1.7,0.7,3.3,1.9,4.5c1.2,1.2,2.9,1.9,4.5,1.9
				s3.3-0.6,4.5-1.9c1.2-1.2,1.9-2.8,1.9-4.5c0-1.7-0.7-3.3-1.9-4.5C297.1,365,295.5,364.3,293.8,364.3"/>
			<path class="st4" d="M330.3,374.9c-1,1-2.4,1.6-3.8,1.6s-2.8-0.6-3.8-1.6c-2.1-2.1-2.1-5.5,0-7.6c1.1-1.1,2.4-1.6,3.8-1.6
				c1.4,0,2.8,0.5,3.8,1.6C332.4,369.4,332.4,372.8,330.3,374.9 M314.1,391.1c-1,1-2.4,1.6-3.8,1.6s-2.8-0.6-3.8-1.6
				c-2.1-2.1-2.1-5.5,0-7.6c1.1-1.1,2.4-1.6,3.8-1.6s2.8,0.5,3.8,1.6c1,1,1.6,2.4,1.6,3.8C315.7,388.7,315.2,390.1,314.1,391.1
				 M306.5,358.8c-2.1-2.1-2.1-5.5,0-7.6c2.1-2.1,5.5-2.1,7.6,0c1,1,1.6,2.4,1.6,3.8c0,1.4-0.6,2.8-1.6,3.8c-1,1-2.4,1.6-3.8,1.6
				S307.5,359.8,306.5,358.8 M331,366.6c-2.4-2.4-6.2-2.5-8.7-0.3l-7.2-7.2c1-1.2,1.5-2.6,1.5-4.1c0-1.7-0.7-3.3-1.9-4.5
				c-2.5-2.5-6.5-2.5-9,0c-2.5,2.5-2.5,6.5,0,9c1.2,1.2,2.8,1.9,4.5,1.9c1.5,0,3-0.5,4.1-1.5l7.2,7.2c-2,2.4-2,5.9,0,8.3l-7.2,7.2
				c-2.5-2.1-6.3-2-8.7,0.3c-2.5,2.5-2.5,6.5,0,9c1.2,1.2,2.8,1.9,4.5,1.9c1.7,0,3.3-0.7,4.5-1.9c1.2-1.2,1.9-2.8,1.9-4.5
				c0-1.5-0.5-3-1.5-4.1l7.2-7.2c1.2,1,2.6,1.5,4.1,1.5c1.7,0,3.3-0.7,4.5-1.9C333.5,373.2,333.5,369.1,331,366.6"/>
		</g>
		<g transform="translate(773 182)">
			<defs>
				<filter id="Adobe_OpacityMaskFilter_2_" filterUnits="userSpaceOnUse" x="271.2" y="331" width="79.2" height="80">
					<feColorMatrix  type="matrix" values="1 0 0 0 0  0 1 0 0 0  0 0 1 0 0  0 0 0 1 0"/>
				</filter>
			</defs>
			<mask maskUnits="userSpaceOnUse" x="271.2" y="331" width="79.2" height="80" id="background-f_3_">
				<g class="st7">
					<polygon id="background-e_3_" class="st2" points="350.4,411 350.4,331 271.2,331 271.2,411 					"/>
				</g>
			</mask>
			<path class="st8" d="M330.9,375.8v-21.4l18.6-10.7v21.4L330.9,375.8z M311.3,409.7v-21.4l18.6-10.7V399L311.3,409.7z
				 M291.8,377.5l18.6,10.7v21.4L291.8,399V377.5z M272.2,343.7l18.6,10.7v21.4l-18.6-10.7V343.7z M291.3,332.1l18.6,10.7
				l-18.6,10.7l-18.6-10.7L291.3,332.1z M291.8,354.4l18.6-10.7v21.4l-18.6,10.7V354.4z M329.9,375.8l-18.6-10.7v-21.4l18.6,10.7
				V375.8z M310.8,387.4l-18.6-10.7l18.6-10.7l18.6,10.7L310.8,387.4z M330.4,332.1l18.6,10.7l-18.6,10.7l-18.6-10.7L330.4,332.1z
				 M350.4,342.8c0-0.1,0-0.2-0.1-0.2c0-0.1-0.1-0.1-0.2-0.2c0,0,0,0,0,0l-19.6-11.3c-0.2-0.1-0.3-0.1-0.5,0l-19.3,11.1l-19.3-11.1
				c-0.2-0.1-0.3-0.1-0.5,0l-19.6,11.3c0,0,0,0,0,0c-0.1,0-0.1,0.1-0.2,0.2c0,0.1-0.1,0.1-0.1,0.2c0,0,0,0,0,0v22.6
				c0,0.2,0.1,0.3,0.2,0.4l19.3,11.1v22.3c0,0.2,0.1,0.3,0.2,0.4l19.6,11.3c0,0,0,0,0,0c0.1,0,0.1,0.1,0.2,0.1c0.1,0,0.2,0,0.2-0.1
				c0,0,0,0,0,0l19.6-11.3c0.2-0.1,0.2-0.3,0.2-0.4V377l19.3-11.1c0.2-0.1,0.2-0.3,0.2-0.4L350.4,342.8
				C350.4,342.8,350.4,342.8,350.4,342.8z"/>
		</g>
		<path class="st4" d="M930.6,445.9c-0.4,0.1-0.8,0.1-1.1-0.1c-0.3-0.2-0.5-0.6-0.5-1l0-11.5c0-1.2-0.4-2.3-1.2-3.2c0,0,0-0.1,0-0.2
			c7.3-2.2,12-7.6,12-13.6c0-2-0.5-3.8-1.5-5.6c-0.1-0.3-0.2-0.5-0.2-0.9c-0.1-2.1-0.2-4.4-0.7-6.6l-0.6-2.4c0-0.4-0.2-0.8-0.6-1
			c-0.3-0.2-0.8-0.3-1.1-0.2l-2.5,0.4c-1.6,0.3-3.4,0.8-5.3,1.6c-0.9,0.4-1.6,0.5-2.2,0.4c-2.9-0.5-5.9-0.5-8.9,0
			c-0.6,0.1-1.3,0-2.2-0.4c-2-0.8-3.7-1.3-5.3-1.6l-2.4-0.4c-0.4-0.1-0.8-0.1-1.1,0.1c-0.3,0.2-0.6,0.6-0.6,0.9l-0.6,2.5
			c-0.5,2.2-0.7,4.5-0.7,6.6c0,0.3-0.1,0.6-0.2,0.9c-1,1.8-1.5,3.7-1.5,5.6c0,6,4.7,11.4,12.1,13.7c0,0,0,0.1,0,0.1
			c-0.8,0.9-1.2,2-1.2,3.2v2.1c-0.4,0.1-0.8,0.1-1.3,0.1c-2.4-0.1-4.2-1.2-5.7-3.6c-1.5-2.4-4.1-2.6-5.5-2.2
			c-0.8,0.3-0.9,0.7-0.9,0.9c0,0.5,0.4,0.9,0.9,1.3c0.5,0.4,1,0.9,1.6,1.7c0.2,0.3,0.5,0.8,0.8,1.3c1,1.9,2.5,4.4,5,5
			c2.2,0.6,3.9,0.5,5,0.4v5c0,0.4-0.2,0.7-0.5,1c-0.3,0.2-0.7,0.3-1,0.2c-12.8-4.1-21.4-16.3-20.8-29.7
			c0.6-15.1,12.8-27.7,27.9-28.6c0.7,0,1.3-0.1,2-0.1c7.6,0,14.8,2.8,20.4,8.1c6.1,5.7,9.4,13.5,9.4,21.8
			C950,430.3,942.2,441.5,930.6,445.9 M941.2,395.4c-6.3-5.9-14.5-8.8-23.2-8.3c-15.6,1-28.3,14-28.9,29.6
			c-0.5,13.9,8.3,26.5,21.5,30.7c0.2,0.1,0.4,0.1,0.7,0.1c0.5,0,0.9-0.1,1.3-0.4c0.6-0.4,0.9-1.1,0.9-1.8v-6.1l-0.7,0.1
			c-1,0.1-2.7,0.3-5-0.3c-2.1-0.5-3.4-2.8-4.4-4.6c-0.3-0.5-0.6-1-0.8-1.4c-0.6-0.9-1.3-1.5-1.8-1.9c-0.2-0.1-0.4-0.3-0.5-0.5
			c0.3-0.1,0.9-0.2,1.6-0.1c0.8,0.1,2,0.5,2.8,1.9c1.6,2.7,3.7,4,6.5,4.1c0.7,0,1.4-0.1,2-0.3l0.3-0.1v-2.8c0-0.9,0.3-1.8,0.9-2.5
			c0.2-0.3,0.3-0.7,0.2-1c-0.1-0.3-0.4-0.6-0.7-0.7c-6.9-2.1-11.3-7.1-11.3-12.7c0-1.8,0.4-3.5,1.3-5.2c0.2-0.4,0.3-0.8,0.3-1.3
			c0.1-2.1,0.2-4.3,0.7-6.4l0.6-2.5c0-0.1,0.1-0.2,0.1-0.2c0,0,0.1-0.1,0.3,0l2.5,0.4c1.6,0.3,3.3,0.8,5.2,1.5
			c0.8,0.3,1.8,0.6,2.8,0.4c2.8-0.5,5.7-0.5,8.5,0c1,0.2,2-0.1,2.8-0.4c1.9-0.7,3.6-1.2,5.2-1.5l2.6-0.4c0.1,0,0.2,0,0.3,0
			c0,0,0.1,0.1,0.1,0.3l0.6,2.5c0.5,2.1,0.6,4.3,0.7,6.4c0,0.5,0.1,0.9,0.3,1.3c0.9,1.6,1.3,3.4,1.3,5.2c0,5.6-4.4,10.6-11.3,12.7
			c-0.4,0.1-0.6,0.4-0.7,0.7c-0.1,0.4,0,0.7,0.2,1c0.6,0.7,0.9,1.6,0.9,2.5l0,11.5c0,0.7,0.4,1.4,0.9,1.8c0.6,0.4,1.3,0.5,2,0.2
			c12-4.5,20-16.1,20-28.9C951,409.4,947.4,401.2,941.2,395.4 M444.6,626.9c-0.4,0.1-0.8,0.1-1.1-0.1c-0.3-0.2-0.5-0.6-0.5-1l0-11.5
			c0-1.2-0.4-2.3-1.2-3.2c0,0,0-0.1,0-0.2c7.3-2.2,12-7.6,12-13.6c0-2-0.5-3.8-1.5-5.6c-0.1-0.3-0.2-0.5-0.2-0.9
			c-0.1-2.1-0.2-4.4-0.7-6.6l-0.6-2.4c0-0.4-0.2-0.8-0.6-1c-0.3-0.2-0.8-0.3-1.1-0.2l-2.5,0.4c-1.6,0.3-3.4,0.8-5.4,1.6
			c-0.9,0.4-1.6,0.5-2.2,0.4c-2.9-0.5-5.9-0.5-8.9,0c-0.6,0.1-1.3,0-2.2-0.4c-2-0.8-3.7-1.3-5.3-1.6l-2.4-0.4
			c-0.4-0.1-0.8-0.1-1.1,0.1c-0.3,0.2-0.6,0.6-0.6,0.9l-0.6,2.5c-0.5,2.2-0.7,4.5-0.7,6.6c0,0.3-0.1,0.6-0.2,0.9
			c-1,1.8-1.5,3.7-1.5,5.6c0,6,4.7,11.4,12.1,13.7c0,0,0,0.1,0,0.1c-0.8,0.9-1.2,2-1.2,3.2v2.1c-0.4,0.1-0.8,0.1-1.3,0.1
			c-2.4-0.1-4.2-1.2-5.7-3.6c-1.5-2.4-4.1-2.6-5.5-2.2c-0.8,0.3-0.9,0.7-0.9,0.9c0,0.5,0.4,0.9,0.9,1.3c0.5,0.4,1,0.9,1.6,1.7
			c0.2,0.3,0.5,0.8,0.8,1.3c1,1.9,2.5,4.4,5,5c2.2,0.6,3.9,0.5,5,0.4v5c0,0.4-0.2,0.7-0.5,1c-0.3,0.2-0.7,0.3-1,0.2
			c-12.8-4.1-21.4-16.3-20.8-29.7c0.6-15.1,12.8-27.7,27.9-28.6c0.7,0,1.3-0.1,2-0.1c7.6,0,14.8,2.8,20.4,8.1
			c6.1,5.7,9.4,13.5,9.4,21.8C464,611.3,456.2,622.5,444.6,626.9 M455.2,576.4c-6.3-5.9-14.5-8.8-23.2-8.3
			c-15.6,1-28.3,14-28.9,29.6c-0.5,13.9,8.3,26.5,21.5,30.7c0.2,0.1,0.4,0.1,0.7,0.1c0.5,0,0.9-0.1,1.3-0.4c0.6-0.4,0.9-1.1,0.9-1.8
			v-6.1l-0.7,0.1c-1,0.1-2.7,0.3-5-0.3c-2.1-0.5-3.4-2.8-4.4-4.6c-0.3-0.5-0.6-1-0.8-1.4c-0.6-0.9-1.3-1.5-1.8-1.9
			c-0.2-0.1-0.4-0.3-0.5-0.5c0.3-0.1,0.9-0.2,1.6-0.1c0.8,0.1,2,0.5,2.8,1.9c1.6,2.7,3.7,4,6.5,4.1c0.7,0,1.4-0.1,2-0.3l0.3-0.1
			v-2.8c0-0.9,0.3-1.8,0.9-2.5c0.2-0.3,0.3-0.7,0.2-1c-0.1-0.3-0.4-0.6-0.7-0.7c-6.9-2.1-11.3-7.1-11.3-12.7c0-1.8,0.4-3.5,1.3-5.2
			c0.2-0.4,0.3-0.8,0.3-1.3c0.1-2.1,0.2-4.3,0.7-6.4l0.6-2.5c0-0.1,0.1-0.2,0.1-0.2c0,0,0.1-0.1,0.3,0l2.5,0.4
			c1.6,0.3,3.3,0.8,5.2,1.5c0.8,0.3,1.8,0.6,2.8,0.4c2.8-0.5,5.7-0.5,8.5,0c1,0.2,2-0.1,2.8-0.4c1.9-0.7,3.6-1.2,5.2-1.5l2.6-0.4
			c0.1,0,0.2,0,0.3,0c0,0,0.1,0.1,0.1,0.3l0.6,2.5c0.5,2.1,0.6,4.3,0.7,6.4c0,0.5,0.1,0.9,0.3,1.3c0.9,1.6,1.3,3.4,1.3,5.2
			c0,5.6-4.4,10.6-11.3,12.7c-0.4,0.1-0.6,0.4-0.7,0.7c-0.1,0.4,0,0.7,0.2,1c0.6,0.7,0.9,1.6,0.9,2.5l0,11.5c0,0.7,0.4,1.4,0.9,1.8
			c0.6,0.4,1.3,0.5,2,0.2c12-4.5,20-16.1,20-28.9C465,590.4,461.4,582.2,455.2,576.4"/>
		<g transform="translate(766 79)">
			<defs>
				<filter id="Adobe_OpacityMaskFilter_3_" filterUnits="userSpaceOnUse" x="271.2" y="331" width="6.4" height="6.4">
					<feColorMatrix  type="matrix" values="1 0 0 0 0  0 1 0 0 0  0 0 1 0 0  0 0 0 1 0"/>
				</filter>
			</defs>
			<mask maskUnits="userSpaceOnUse" x="271.2" y="331" width="6.4" height="6.4" id="background-j_3_">
				<g class="st9">
					<polygon id="background-i_3_" class="st2" points="271.2,337.4 277.6,337.4 277.6,331 271.2,331 					"/>
				</g>
			</mask>
			<path class="st10" d="M275.1,334.2l2.3-2.3c0.2-0.2,0.2-0.5,0-0.7c-0.2-0.2-0.5-0.2-0.7,0l-2.3,2.3l-2.3-2.3
				c-0.2-0.2-0.5-0.2-0.7,0c-0.2,0.2-0.2,0.5,0,0.7l2.3,2.3l-2.3,2.3c-0.2,0.2-0.2,0.5,0,0.7c0.1,0.1,0.2,0.1,0.4,0.1
				c0.1,0,0.3,0,0.4-0.1l2.3-2.3l2.3,2.3c0.1,0.1,0.2,0.1,0.4,0.1c0.1,0,0.3,0,0.4-0.1c0.2-0.2,0.2-0.5,0-0.7L275.1,334.2z"/>
		</g>
		<path class="st4" d="M387.1,542.2l2.3-2.3c0.2-0.2,0.2-0.5,0-0.7s-0.5-0.2-0.7,0l-2.3,2.3l-2.3-2.3c-0.2-0.2-0.5-0.2-0.7,0
			s-0.2,0.5,0,0.7l2.3,2.3l-2.3,2.3c-0.2,0.2-0.2,0.5,0,0.7c0.1,0.1,0.2,0.1,0.4,0.1c0.1,0,0.3,0,0.4-0.1l2.3-2.3l2.3,2.3
			c0.1,0.1,0.2,0.1,0.4,0.1c0.1,0,0.3,0,0.4-0.1c0.2-0.2,0.2-0.5,0-0.7L387.1,542.2z"/>
		<g transform="translate(528 25)">
			<defs>
				<filter id="Adobe_OpacityMaskFilter_4_" filterUnits="userSpaceOnUse" x="271.2" y="331" width="6.4" height="6.4">
					<feColorMatrix  type="matrix" values="1 0 0 0 0  0 1 0 0 0  0 0 1 0 0  0 0 0 1 0"/>
				</filter>
			</defs>
			<mask maskUnits="userSpaceOnUse" x="271.2" y="331" width="6.4" height="6.4" id="background-l_3_">
				<g class="st11">
					<polygon id="background-k_3_" class="st2" points="271.2,337.4 277.6,337.4 277.6,331 271.2,331 					"/>
				</g>
			</mask>
			<path class="st12" d="M275.1,334.2l2.3-2.3c0.2-0.2,0.2-0.5,0-0.7c-0.2-0.2-0.5-0.2-0.7,0l-2.3,2.3l-2.3-2.3
				c-0.2-0.2-0.5-0.2-0.7,0c-0.2,0.2-0.2,0.5,0,0.7l2.3,2.3l-2.3,2.3c-0.2,0.2-0.2,0.5,0,0.7c0.1,0.1,0.2,0.1,0.4,0.1
				c0.1,0,0.3,0,0.4-0.1l2.3-2.3l2.3,2.3c0.1,0.1,0.2,0.1,0.4,0.1c0.1,0,0.3,0,0.4-0.1c0.2-0.2,0.2-0.5,0-0.7L275.1,334.2z"/>
		</g>
		<path class="st4" d="M363.1,377.2l2.3-2.3c0.2-0.2,0.2-0.5,0-0.7c-0.2-0.2-0.5-0.2-0.7,0l-2.3,2.3l-2.3-2.3
			c-0.2-0.2-0.5-0.2-0.7,0c-0.2,0.2-0.2,0.5,0,0.7l2.3,2.3l-2.3,2.3c-0.2,0.2-0.2,0.5,0,0.7c0.1,0.1,0.2,0.1,0.4,0.1
			c0.1,0,0.3,0,0.4-0.1l2.3-2.3l2.3,2.3c0.1,0.1,0.2,0.1,0.4,0.1c0.1,0,0.3,0,0.4-0.1c0.2-0.2,0.2-0.5,0-0.7L363.1,377.2z"/>
		<g transform="translate(867 132)">
			<defs>
				<filter id="Adobe_OpacityMaskFilter_5_" filterUnits="userSpaceOnUse" x="271.2" y="331" width="6.4" height="6.4">
					<feColorMatrix  type="matrix" values="1 0 0 0 0  0 1 0 0 0  0 0 1 0 0  0 0 0 1 0"/>
				</filter>
			</defs>
			<mask maskUnits="userSpaceOnUse" x="271.2" y="331" width="6.4" height="6.4" id="background-n_3_">
				<g class="st13">
					<polygon id="background-m_3_" class="st2" points="271.2,337.4 277.6,337.4 277.6,331 271.2,331 					"/>
				</g>
			</mask>
			<path class="st14" d="M275.1,334.2l2.3-2.3c0.2-0.2,0.2-0.5,0-0.7c-0.2-0.2-0.5-0.2-0.7,0l-2.3,2.3l-2.3-2.3
				c-0.2-0.2-0.5-0.2-0.7,0c-0.2,0.2-0.2,0.5,0,0.7l2.3,2.3l-2.3,2.3c-0.2,0.2-0.2,0.5,0,0.7c0.1,0.1,0.2,0.1,0.4,0.1
				c0.1,0,0.3,0,0.4-0.1l2.3-2.3l2.3,2.3c0.1,0.1,0.2,0.1,0.4,0.1c0.1,0,0.3,0,0.4-0.1c0.2-0.2,0.2-0.5,0-0.7L275.1,334.2z"/>
		</g>
		<g transform="translate(733 296)">
			<defs>
				<filter id="Adobe_OpacityMaskFilter_6_" filterUnits="userSpaceOnUse" x="271.2" y="331" width="6.4" height="6.4">
					<feColorMatrix  type="matrix" values="1 0 0 0 0  0 1 0 0 0  0 0 1 0 0  0 0 0 1 0"/>
				</filter>
			</defs>
			<mask maskUnits="userSpaceOnUse" x="271.2" y="331" width="6.4" height="6.4" id="background-p_3_">
				<g class="st15">
					<polygon id="background-o_3_" class="st2" points="271.2,337.4 277.6,337.4 277.6,331 271.2,331 					"/>
				</g>
			</mask>
			<path class="st16" d="M275.1,334.2l2.3-2.3c0.2-0.2,0.2-0.5,0-0.7c-0.2-0.2-0.5-0.2-0.7,0l-2.3,2.3l-2.3-2.3
				c-0.2-0.2-0.5-0.2-0.7,0c-0.2,0.2-0.2,0.5,0,0.7l2.3,2.3l-2.3,2.3c-0.2,0.2-0.2,0.5,0,0.7c0.1,0.1,0.2,0.1,0.4,0.1
				c0.1,0,0.3,0,0.4-0.1l2.3-2.3l2.3,2.3c0.1,0.1,0.2,0.1,0.4,0.1c0.1,0,0.3,0,0.4-0.1c0.2-0.2,0.2-0.5,0-0.7L275.1,334.2z"/>
		</g>
		<g transform="translate(675 347)">
			<defs>
				<filter id="Adobe_OpacityMaskFilter_7_" filterUnits="userSpaceOnUse" x="271.2" y="331" width="6.9" height="6.9">
					<feColorMatrix  type="matrix" values="1 0 0 0 0  0 1 0 0 0  0 0 1 0 0  0 0 0 1 0"/>
				</filter>
			</defs>
			<mask maskUnits="userSpaceOnUse" x="271.2" y="331" width="6.9" height="6.9" id="background-r_3_">
				<g class="st17">
					<polygon id="background-q_3_" class="st2" points="274.6,331 271.2,331 271.2,337.9 274.6,337.9 278.1,337.9 278.1,331 					
						"/>
				</g>
			</mask>
			<path class="st18" d="M274.6,336.9c-1.3,0-2.4-1.1-2.4-2.4c0-1.3,1.1-2.4,2.4-2.4c1.3,0,2.4,1.1,2.4,2.4
				C277.1,335.8,276,336.9,274.6,336.9 M274.6,331c-1.9,0-3.4,1.5-3.4,3.4c0,1.9,1.5,3.4,3.4,3.4c1.9,0,3.4-1.5,3.4-3.4
				C278.1,332.5,276.5,331,274.6,331"/>
		</g>
		<g transform="translate(695 247)">
			<defs>
				<filter id="Adobe_OpacityMaskFilter_8_" filterUnits="userSpaceOnUse" x="271.2" y="331" width="6.9" height="6.9">
					<feColorMatrix  type="matrix" values="1 0 0 0 0  0 1 0 0 0  0 0 1 0 0  0 0 0 1 0"/>
				</filter>
			</defs>
			<mask maskUnits="userSpaceOnUse" x="271.2" y="331" width="6.9" height="6.9" id="background-t_3_">
				<g class="st19">
					<polygon id="background-s_3_" class="st2" points="274.6,331 271.2,331 271.2,337.9 274.6,337.9 278.1,337.9 278.1,331 					
						"/>
				</g>
			</mask>
			<path class="st20" d="M274.6,336.9c-1.3,0-2.4-1.1-2.4-2.4c0-1.3,1.1-2.4,2.4-2.4c1.3,0,2.4,1.1,2.4,2.4
				C277.1,335.8,276,336.9,274.6,336.9 M274.6,331c-1.9,0-3.4,1.5-3.4,3.4c0,1.9,1.5,3.4,3.4,3.4c1.9,0,3.4-1.5,3.4-3.4
				C278.1,332.5,276.5,331,274.6,331"/>
		</g>
		<path class="st4" d="M449.6,523.9c-1.3,0-2.4-1.1-2.4-2.4c0-1.3,1.1-2.4,2.4-2.4c1.3,0,2.4,1.1,2.4,2.4
			C452.1,522.8,451,523.9,449.6,523.9 M449.6,518c-1.9,0-3.4,1.5-3.4,3.4c0,1.9,1.5,3.4,3.4,3.4c1.9,0,3.4-1.5,3.4-3.4
			C453.1,519.5,451.5,518,449.6,518"/>
		<path class="st4" d="M329.6,633.9c-1.3,0-2.4-1.1-2.4-2.4c0-1.3,1.1-2.4,2.4-2.4c1.3,0,2.4,1.1,2.4,2.4
			C332.1,632.8,331,633.9,329.6,633.9 M329.6,628c-1.9,0-3.4,1.5-3.4,3.4c0,1.9,1.5,3.4,3.4,3.4c1.9,0,3.4-1.5,3.4-3.4
			C333.1,629.5,331.5,628,329.6,628"/>
		<path class="st21" d="M534.7,386.6c-6,0-10.8-4.9-10.8-10.8c0-6,4.9-10.8,10.8-10.8c6,0,10.8,4.9,10.8,10.8
			C545.5,381.8,540.7,386.6,534.7,386.6 M524.4,389.5l-6.7,6.7c-0.2,0.2-0.5,0.2-0.7,0l-2.7-2.7c-0.2-0.2-0.2-0.5,0-0.7l6.7-6.7
			c0.1-0.1,0.2-0.1,0.4-0.1c0.1,0,0.3,0.1,0.4,0.1l2.7,2.7C524.6,389,524.6,389.3,524.4,389.5 M534.7,364c-6.5,0-11.8,5.3-11.8,11.8
			c0,3.1,1.2,5.9,3.1,8l-2.7,2.6l-1-1c-0.6-0.6-1.6-0.6-2.1,0l-6.7,6.7c-0.6,0.6-0.6,1.5,0,2.1l2.7,2.7c0.3,0.3,0.7,0.4,1.1,0.4
			c0.4,0,0.8-0.2,1.1-0.4l6.7-6.7c0.6-0.6,0.6-1.5,0-2.1l-1-1l2.7-2.6c2.1,1.9,4.9,3.1,8,3.1c6.5,0,11.8-5.3,11.8-11.8
			C546.5,369.3,541.2,364,534.7,364"/>
		<path class="st21" d="M385.8,705.8c0,6-4.9,10.8-10.8,10.8c-6,0-10.8-4.9-10.8-10.8c0-6,4.9-10.8,10.8-10.8
			C381,695,385.8,699.9,385.8,705.8 M388.7,716.2l6.7,6.7c0.2,0.2,0.2,0.5,0,0.7l-2.7,2.7c-0.2,0.2-0.5,0.2-0.7,0l-6.7-6.7
			c-0.1-0.1-0.1-0.2-0.1-0.4c0-0.1,0.1-0.3,0.1-0.4l2.7-2.7C388.2,716,388.6,716,388.7,716.2 M363.2,705.8c0,6.5,5.3,11.8,11.8,11.8
			c3.1,0,5.9-1.2,8-3.1l2.6,2.7l-1,1c-0.6,0.6-0.6,1.6,0,2.1l6.7,6.7c0.6,0.6,1.5,0.6,2.1,0l2.7-2.7c0.3-0.3,0.4-0.7,0.4-1.1
			c0-0.4-0.2-0.8-0.4-1.1l-6.7-6.7c-0.6-0.6-1.5-0.6-2.1,0l-1,1l-2.6-2.7c1.9-2.1,3.1-4.9,3.1-8c0-6.5-5.3-11.8-11.8-11.8
			C368.5,694,363.2,699.3,363.2,705.8"/>
		<path class="st21" d="M1045.8,725.8c0,6-4.9,10.8-10.8,10.8c-6,0-10.8-4.9-10.8-10.8s4.9-10.8,10.8-10.8
			C1041,715,1045.8,719.9,1045.8,725.8 M1048.7,736.2l6.7,6.7c0.2,0.2,0.2,0.5,0,0.7l-2.7,2.7c-0.2,0.2-0.5,0.2-0.7,0l-6.7-6.7
			c-0.1-0.1-0.1-0.2-0.1-0.4c0-0.1,0.1-0.3,0.1-0.4l2.7-2.7C1048.2,736,1048.6,736,1048.7,736.2 M1023.2,725.8
			c0,6.5,5.3,11.8,11.8,11.8c3.1,0,5.9-1.2,8-3.1l2.7,2.7l-1,1c-0.6,0.6-0.6,1.6,0,2.1l6.7,6.7c0.6,0.6,1.5,0.6,2.1,0l2.7-2.7
			c0.3-0.3,0.4-0.7,0.4-1.1c0-0.4-0.2-0.8-0.4-1.1l-6.7-6.7c-0.6-0.6-1.5-0.6-2.1,0l-1,1l-2.7-2.7c1.9-2.1,3.1-4.9,3.1-8
			c0-6.5-5.3-11.8-11.8-11.8C1028.5,714,1023.2,719.3,1023.2,725.8"/>
		<g transform="translate(773 182)">
			<defs>
				<filter id="Adobe_OpacityMaskFilter_9_" filterUnits="userSpaceOnUse" x="-460.3" y="258.4" width="80.6" height="79.8">
					<feColorMatrix  type="matrix" values="1 0 0 0 0  0 1 0 0 0  0 0 1 0 0  0 0 0 1 0"/>
				</filter>
			</defs>
			<mask maskUnits="userSpaceOnUse" x="-460.3" y="258.4" width="80.6" height="79.8" id="background-f_4_">
				<g class="st22">
					<polygon id="background-e_4_" class="st2" points="-412.2,357 -374.2,286.6 -443.9,249 -481.9,319.4 					"/>
				</g>
			</mask>
			<path class="st23" d="M-412.7,316.7l10.2-18.9l21.4-0.6l-10.2,18.9L-412.7,316.7z M-446,337.2l10.2-18.9l21.4-0.6l-10.2,18.9
				L-446,337.2z M-447.9,299.7l11.2,18.2l-10.2,18.9l-11.2-18.2L-447.9,299.7z M-449,260.6l11.2,18.2l-10.2,18.9l-11.2-18.2
				L-449,260.6z M-426.7,259.4l11.2,18.2l-21.4,0.6l-11.2-18.2L-426.7,259.4z M-436.9,279.3l21.4-0.6l-10.2,18.9l-21.4,0.6
				L-436.9,279.3z M-413.5,316.3l-11.2-18.2l10.2-18.9l11.2,18.2L-413.5,316.3z M-435.8,317.4l-11.2-18.3l21.4-0.6l11.2,18.2
				L-435.8,317.4z M-392.3,278l11.2,18.2l-21.4,0.6l-11.2-18.2L-392.3,278z M-379.8,297c0-0.1,0.1-0.1,0.1-0.2c0-0.1,0-0.2-0.1-0.2
				c0,0,0,0,0,0l-11.8-19.2c-0.1-0.2-0.3-0.2-0.4-0.2l-22.3,0.6l-11.7-19c-0.1-0.2-0.3-0.2-0.4-0.2l-22.6,0.6c0,0,0,0,0,0
				c-0.1,0-0.2,0-0.2,0.1s-0.1,0.1-0.2,0.2c0,0,0,0,0,0l-10.7,19.9c-0.1,0.2-0.1,0.3,0,0.5l11.7,19l-10.6,19.6
				c-0.1,0.2-0.1,0.3,0,0.5l11.8,19.2c0,0,0,0,0,0c0,0.1,0.1,0.1,0.2,0.2c0.1,0,0.2,0.1,0.2,0.1c0,0,0,0,0,0l22.6-0.6
				c0.2,0,0.3-0.1,0.4-0.3l10.6-19.6l22.3-0.6c0.2,0,0.3-0.1,0.4-0.3L-379.8,297C-379.8,297-379.8,297-379.8,297z"/>
		</g>
	</g>
</g>
</svg>
