<?xml version="1.0" encoding="utf-8"?>
<!-- Generator: Adobe Illustrator 22.0.1, SVG Export Plug-In . SVG Version: 6.00 Build 0)  -->
<svg version="1.1" id="Layer_1" xmlns="http://www.w3.org/2000/svg" xmlns:xlink="http://www.w3.org/1999/xlink" x="0px" y="0px"
	 viewBox="0 0 1440 763" style="enable-background:new 0 0 1440 763;" xml:space="preserve">
<style type="text/css">
	.st0{fill:url(#Rectangle_1_);}
	.st1{filter:url(#Adobe_OpacityMaskFilter);}
	.st2{fill:#FFFFFF;}
	.st3{mask:url(#mask-3_1_);fill:#47D7EA;}
	.st4{fill:#47D7EA;}
	.st5{filter:url(#Adobe_OpacityMaskFilter_1_);}
	.st6{mask:url(#mask-5_1_);fill:#47D7EA;}
	.st7{filter:url(#Adobe_OpacityMaskFilter_2_);}
	.st8{mask:url(#mask-7_1_);fill:#47D7EA;}
	.st9{filter:url(#Adobe_OpacityMaskFilter_3_);}
	.st10{mask:url(#mask-9_1_);fill:#47D7EA;}
	.st11{filter:url(#Adobe_OpacityMaskFilter_4_);}
	.st12{mask:url(#mask-11_1_);fill:#47D7EA;}
	.st13{filter:url(#Adobe_OpacityMaskFilter_5_);}
	.st14{mask:url(#mask-13_1_);fill:#47D7EA;}
	.st15{filter:url(#Adobe_OpacityMaskFilter_6_);}
	.st16{mask:url(#mask-15_1_);fill:#47D7EA;}
	.st17{filter:url(#Adobe_OpacityMaskFilter_7_);}
	.st18{mask:url(#mask-17_1_);fill:#47D7EA;}
	.st19{filter:url(#Adobe_OpacityMaskFilter_8_);}
	.st20{mask:url(#mask-19_1_);fill:#47D7EA;}
	.st21{fill:#3DD7EC;}
</style>
<title>HEADER</title>
<desc>Created with Sketch.</desc>
<g id="_x33_.-Pricing-_x26_-Plans">
	<g id="HEADER">
		
			<linearGradient id="Rectangle_1_" gradientUnits="userSpaceOnUse" x1="414.7125" y1="777.9816" x2="413.7125" y2="776.9816" gradientTransform="matrix(1440 0 0 -763 -595746 593600)">
			<stop  offset="0" style="stop-color:#6FCAFA"/>
			<stop  offset="1" style="stop-color:#3E61DF"/>
		</linearGradient>
		<polygon id="Rectangle" class="st0" points="0,0 1440,0 1440,763 0,763 		"/>
		<g id="line-icons" transform="translate(51.000000, 112.000000)">
			<g id="Page-1-Copy-6" transform="translate(221.000000, 114.000000)">
				<g id="Group-3" transform="translate(0.000000, 0.690100)">
					<g id="Clip-2">
					</g>
					<defs>
						<filter id="Adobe_OpacityMaskFilter" filterUnits="userSpaceOnUse" x="0" y="0.3" width="29" height="45.1">
							<feColorMatrix  type="matrix" values="1 0 0 0 0  0 1 0 0 0  0 0 1 0 0  0 0 0 1 0"/>
						</filter>
					</defs>
					<mask maskUnits="userSpaceOnUse" x="0" y="0.3" width="29" height="45.1" id="mask-3_1_">
						<g class="st1">
							<polygon id="path-2_1_" class="st2" points="0,0.3 29,0.3 29,45.4 0,45.4 							"/>
						</g>
					</mask>
					<path id="Fill-1" class="st3" d="M26.4,42.9c-2.1,2.1-5.5,2.1-7.6,0c-1-1-1.6-2.4-1.6-3.8c0-1.4,0.6-2.8,1.6-3.8
						s2.4-1.6,3.8-1.6s2.8,0.6,3.8,1.6c1,1,1.6,2.4,1.6,3.8C28,40.5,27.4,41.8,26.4,42.9 M2.6,26.7c-1-1-1.6-2.4-1.6-3.8
						c0-1.4,0.6-2.8,1.6-3.8c1-1,2.4-1.6,3.8-1.6s2.8,0.6,3.8,1.6c1,1,1.6,2.4,1.6,3.8c0,1.4-0.6,2.8-1.6,3.8
						C8.1,28.8,4.7,28.8,2.6,26.7 M18.8,2.9c1.1-1.1,2.4-1.6,3.8-1.6s2.8,0.5,3.8,1.6c2.1,2.1,2.1,5.5,0,7.6c-2.1,2.1-5.5,2.1-7.6,0
						C16.6,8.4,16.6,5,18.8,2.9 M22.6,32.7c-1.5,0-3,0.5-4.1,1.5L11.2,27c1-1.2,1.5-2.6,1.5-4.1c0-1.5-0.5-3-1.5-4.2l7.2-7.2
						c1.2,1,2.7,1.5,4.1,1.5c1.6,0,3.3-0.6,4.5-1.9c2.5-2.5,2.5-6.5,0-9s-6.5-2.5-9,0c-2.4,2.4-2.5,6.2-0.3,8.7L10.5,18
						c-1.2-1-2.6-1.5-4.2-1.5c-1.7,0-3.3,0.7-4.5,1.9C0.7,19.6,0,21.2,0,22.9c0,1.7,0.7,3.3,1.9,4.5c1.2,1.2,2.9,1.9,4.5,1.9
						c1.5,0,3-0.5,4.1-1.5l7.2,7.2c-1,1.2-1.5,2.6-1.5,4.2c0,1.7,0.7,3.3,1.9,4.5c1.2,1.2,2.9,1.9,4.5,1.9c1.6,0,3.3-0.6,4.5-1.9
						c1.2-1.2,1.9-2.8,1.9-4.5c0-1.7-0.7-3.3-1.9-4.5C25.9,33.3,24.3,32.7,22.6,32.7"/>
				</g>
				<path id="Fill-4" class="st4" d="M59.1,43.9c-1,1-2.4,1.6-3.8,1.6s-2.8-0.6-3.8-1.6c-2.1-2.1-2.1-5.5,0-7.6
					c1.1-1.1,2.4-1.6,3.8-1.6c1.4,0,2.8,0.5,3.8,1.6C61.2,38.4,61.2,41.8,59.1,43.9 M42.9,60.1c-1,1-2.4,1.6-3.8,1.6
					c-1.4,0-2.8-0.6-3.8-1.6c-2.1-2.1-2.1-5.5,0-7.6c1.1-1.1,2.4-1.6,3.8-1.6s2.8,0.5,3.8,1.6c1,1,1.6,2.4,1.6,3.8
					C44.5,57.7,44,59.1,42.9,60.1 M35.3,27.8c-2.1-2.1-2.1-5.5,0-7.6c2.1-2.1,5.5-2.1,7.6,0c1,1,1.6,2.4,1.6,3.8
					c0,1.4-0.6,2.8-1.6,3.8c-1,1-2.4,1.6-3.8,1.6C37.7,29.3,36.3,28.8,35.3,27.8 M59.8,35.6c-2.4-2.4-6.2-2.5-8.7-0.3L44,28.1
					c1-1.2,1.5-2.6,1.5-4.1c0-1.7-0.7-3.3-1.9-4.5c-2.5-2.5-6.5-2.5-9,0c-2.5,2.5-2.5,6.5,0,9c1.2,1.2,2.8,1.9,4.5,1.9
					c1.5,0,3-0.5,4.1-1.5l7.2,7.2c-2,2.4-2,5.9,0,8.3l-7.2,7.2c-2.5-2.1-6.3-2-8.7,0.3c-2.5,2.5-2.5,6.5,0,9
					c1.2,1.2,2.8,1.9,4.5,1.9c1.7,0,3.3-0.7,4.5-1.9c1.2-1.2,1.9-2.8,1.9-4.5c0-1.5-0.5-3-1.5-4.1l7.2-7.2c1.2,1,2.6,1.5,4.2,1.5
					c1.7,0,3.3-0.7,4.5-1.9C62.3,42.2,62.3,38.1,59.8,35.6"/>
			</g>
			<g id="Group" transform="translate(313.000000, 0.000000)">
				
					<g id="Page-1" transform="translate(74.000000, 74.000000) rotate(-44.000000) translate(-74.000000, -74.000000) translate(20.000000, 24.000000)">
					<path id="Fill-1_1_" class="st4" d="M48.2,16.3c-0.2-0.2-0.5-0.2-0.7,0l-4.2,4.2c-0.2,0.2-0.2,0.5,0,0.7l4.2,4.2
						c0.1,0.1,0.2,0.1,0.4,0.1c0.1,0,0.3,0,0.4-0.1c0.2-0.2,0.2-0.5,0-0.7l-3.9-3.9l3.9-3.9C48.4,16.8,48.4,16.5,48.2,16.3"/>
					<path id="Fill-3" class="st4" d="M60.2,16.3c-0.2-0.2-0.5-0.2-0.7,0s-0.2,0.5,0,0.7l3.9,3.9l-3.9,3.9c-0.2,0.2-0.2,0.5,0,0.7
						c0.1,0.1,0.2,0.1,0.4,0.1c0.1,0,0.3,0,0.4-0.1l4.2-4.2c0.2-0.2,0.2-0.5,0-0.7L60.2,16.3z"/>
					<path id="Fill-5" class="st4" d="M55.4,16.1c-0.3-0.1-0.5,0.1-0.6,0.3L52,25c-0.1,0.3,0.1,0.5,0.3,0.6c0.1,0,0.1,0,0.2,0
						c0.2,0,0.4-0.1,0.5-0.3l2.7-8.6C55.8,16.5,55.7,16.2,55.4,16.1"/>
					<path id="Fill-7" class="st4" d="M14.2,75.5c-0.2-0.2-0.5-0.2-0.7,0l-4.2,4.2c-0.2,0.2-0.2,0.5,0,0.7l4.2,4.2
						c0.1,0.1,0.2,0.1,0.4,0.1c0.1,0,0.3,0,0.4-0.1c0.2-0.2,0.2-0.5,0-0.7l-3.9-3.9l3.9-3.9C14.4,76.1,14.4,75.7,14.2,75.5"/>
					<path id="Fill-9" class="st4" d="M26.2,75.5c-0.2-0.2-0.5-0.2-0.7,0s-0.2,0.5,0,0.7l3.9,3.9L25.5,84c-0.2,0.2-0.2,0.5,0,0.7
						c0.1,0.1,0.2,0.1,0.4,0.1c0.1,0,0.3,0,0.4-0.1l4.2-4.2c0.2-0.2,0.2-0.5,0-0.7L26.2,75.5z"/>
					<path id="Fill-11" class="st4" d="M21.4,75.3c-0.3-0.1-0.5,0.1-0.6,0.3L18,84.2c-0.1,0.3,0.1,0.5,0.3,0.6c0.1,0,0.1,0,0.2,0
						c0.2,0,0.4-0.1,0.5-0.3l2.7-8.6C21.8,75.7,21.7,75.4,21.4,75.3"/>
					<g id="Group-15" transform="translate(33.000000, 0.989300)">
						<path id="Fill-13" class="st4" d="M54.8,98C44.4,98,36,89.5,36,79.1c0-10.4,8.5-18.9,18.9-18.9s18.9,8.5,18.9,18.9
							C73.7,89.5,65.3,98,54.8,98 M2,19.9C2,9.5,10.5,1,20.9,1c10.4,0,18.9,8.5,18.9,18.9c0,10.4-8.5,18.9-18.9,18.9
							C10.5,38.8,2,30.3,2,19.9 M54.8,59.2c-3.9,0-7.4,1.1-10.5,3c0,0,0,0,0,0c0,0,0,0,0,0l0,0v0l1-3.7c0.1-0.3-0.1-0.5-0.4-0.6
							c-0.3-0.1-0.5,0.1-0.6,0.4l-0.7,2.5l-14-23.1c0,0,0,0,0,0c6.5-3.3,11-10,11-17.8C40.7,8.9,31.8,0,20.9,0C9.9,0,1,8.9,1,19.9
							c0,11,8.9,19.9,19.9,19.9c2.8,0,5.5-0.6,8-1.7c0,0,0,0.1,0,0.1l13.9,23.1l-2.5-0.6c-0.3-0.1-0.5,0.1-0.6,0.4
							c-0.1,0.3,0.1,0.5,0.4,0.6l3.7,1c0,0,0,0,0.1,0c-5.3,3.6-8.9,9.6-8.9,16.5c0,11,8.9,19.9,19.9,19.9c11,0,19.9-8.9,19.9-19.9
							C74.7,68.2,65.8,59.2,54.8,59.2"/>
					</g>
					<path id="Fill-16" class="st4" d="M82.2,75.5c-0.2-0.2-0.5-0.2-0.7,0l-4.2,4.2c-0.2,0.2-0.2,0.5,0,0.7l4.2,4.2
						c0.1,0.1,0.2,0.1,0.4,0.1c0.1,0,0.3,0,0.4-0.1c0.2-0.2,0.2-0.5,0-0.7l-3.9-3.9l3.9-3.9C82.4,76.1,82.4,75.7,82.2,75.5"/>
					<path id="Fill-18" class="st4" d="M94.2,75.5c-0.2-0.2-0.5-0.2-0.7,0s-0.2,0.5,0,0.7l3.9,3.9L93.5,84c-0.2,0.2-0.2,0.5,0,0.7
						c0.1,0.1,0.2,0.1,0.4,0.1c0.1,0,0.3,0,0.4-0.1l4.2-4.2c0.2-0.2,0.2-0.5,0-0.7L94.2,75.5z"/>
					<path id="Fill-20" class="st4" d="M89.4,75.3c-0.3-0.1-0.5,0.1-0.6,0.3L86,84.2c-0.1,0.3,0.1,0.5,0.3,0.6c0.1,0,0.1,0,0.2,0
						c0.2,0,0.4-0.1,0.5-0.3l2.7-8.6C89.8,75.7,89.6,75.4,89.4,75.3"/>
					<g id="Group-24" transform="translate(0.000000, 37.989300)">
						<path id="Fill-22" class="st4" d="M19.9,61C9.5,61,1,52.5,1,42.1s8.5-18.9,18.9-18.9c10.4,0,18.9,8.5,18.9,18.9
							C38.8,52.5,30.3,61,19.9,61 M67.9,41.9c0-0.1-0.1-0.1-0.1-0.2l-2.7-2.7c-0.2-0.2-0.5-0.2-0.7,0c-0.2,0.2-0.2,0.5,0,0.7
							l1.8,1.8l-26.5,0c-0.2-6.9-3.9-12.9-9.4-16.4l13.9-23l0.7,2.5C45,5,45.2,5.1,45.4,5.1c0,0,0.1,0,0.1,0
							c0.3-0.1,0.4-0.3,0.4-0.6l-1-3.7v0l0,0c0,0,0,0,0-0.1c0,0,0-0.1-0.1-0.1c0,0-0.1-0.1-0.1-0.1c0,0,0,0,0,0c0,0,0,0,0,0
							c0,0,0,0,0,0c0,0-0.1,0-0.1,0c0,0,0,0-0.1,0c0,0,0,0,0,0c-0.1,0-0.1,0-0.2,0h0l-3.7,1c-0.3,0.1-0.4,0.3-0.4,0.6
							c0.1,0.3,0.3,0.4,0.6,0.4l2.5-0.6l-13.9,23c-2.9-1.6-6.1-2.5-9.6-2.5C8.9,22.2,0,31.2,0,42.1C0,53.1,8.9,62,19.9,62
							c10.8,0,19.6-8.7,19.9-19.4l26.5,0l-1.8,1.8c-0.2,0.2-0.2,0.5,0,0.7c0.1,0.1,0.2,0.1,0.4,0.1c0.1,0,0.3,0,0.4-0.1l2.7-2.7
							c0,0,0.1-0.1,0.1-0.2s0-0.1,0-0.2C67.9,42.1,67.9,42,67.9,41.9"/>
					</g>
				</g>
			</g>
			<g id="Page-1-Copy-7" transform="translate(1107.000000, 52.000000)">
				<g id="Group-3_1_" transform="translate(0.000000, 0.690100)">
					<g id="Clip-2_1_">
					</g>
					<defs>
						<filter id="Adobe_OpacityMaskFilter_1_" filterUnits="userSpaceOnUse" x="0" y="0.3" width="29" height="45.1">
							<feColorMatrix  type="matrix" values="1 0 0 0 0  0 1 0 0 0  0 0 1 0 0  0 0 0 1 0"/>
						</filter>
					</defs>
					<mask maskUnits="userSpaceOnUse" x="0" y="0.3" width="29" height="45.1" id="mask-5_1_">
						<g class="st5">
							<polygon id="path-4_1_" class="st2" points="0,0.3 29,0.3 29,45.4 0,45.4 							"/>
						</g>
					</mask>
					<path id="Fill-1_2_" class="st6" d="M26.4,42.9c-2.1,2.1-5.5,2.1-7.6,0c-1-1-1.6-2.4-1.6-3.8c0-1.4,0.6-2.8,1.6-3.8
						s2.4-1.6,3.8-1.6s2.8,0.6,3.8,1.6c1,1,1.6,2.4,1.6,3.8C28,40.5,27.4,41.8,26.4,42.9 M2.6,26.7c-1-1-1.6-2.4-1.6-3.8
						c0-1.4,0.6-2.8,1.6-3.8c1-1,2.4-1.6,3.8-1.6s2.8,0.6,3.8,1.6c1,1,1.6,2.4,1.6,3.8c0,1.4-0.6,2.8-1.6,3.8
						C8.1,28.8,4.7,28.8,2.6,26.7 M18.8,2.9c1.1-1.1,2.4-1.6,3.8-1.6s2.8,0.5,3.8,1.6c2.1,2.1,2.1,5.5,0,7.6c-2.1,2.1-5.5,2.1-7.6,0
						C16.6,8.4,16.6,5,18.8,2.9 M22.6,32.7c-1.5,0-3,0.5-4.1,1.5L11.2,27c1-1.2,1.5-2.6,1.5-4.1c0-1.5-0.5-3-1.5-4.2l7.2-7.2
						c1.2,1,2.7,1.5,4.1,1.5c1.6,0,3.3-0.6,4.5-1.9c2.5-2.5,2.5-6.5,0-9s-6.5-2.5-9,0c-2.4,2.4-2.5,6.2-0.3,8.7L10.5,18
						c-1.2-1-2.6-1.5-4.2-1.5c-1.7,0-3.3,0.7-4.5,1.9C0.7,19.6,0,21.2,0,22.9c0,1.7,0.7,3.3,1.9,4.5c1.2,1.2,2.9,1.9,4.5,1.9
						c1.5,0,3-0.5,4.1-1.5l7.2,7.2c-1,1.2-1.5,2.6-1.5,4.2c0,1.7,0.7,3.3,1.9,4.5c1.2,1.2,2.9,1.9,4.5,1.9c1.6,0,3.3-0.6,4.5-1.9
						c1.2-1.2,1.9-2.8,1.9-4.5c0-1.7-0.7-3.3-1.9-4.5C25.9,33.3,24.3,32.7,22.6,32.7"/>
				</g>
				<path id="Fill-4_1_" class="st4" d="M59.1,43.9c-1,1-2.4,1.6-3.8,1.6s-2.8-0.6-3.8-1.6c-2.1-2.1-2.1-5.5,0-7.6
					c1.1-1.1,2.4-1.6,3.8-1.6c1.4,0,2.8,0.5,3.8,1.6C61.2,38.4,61.2,41.8,59.1,43.9 M42.9,60.1c-1,1-2.4,1.6-3.8,1.6
					c-1.4,0-2.8-0.6-3.8-1.6c-2.1-2.1-2.1-5.5,0-7.6c1.1-1.1,2.4-1.6,3.8-1.6s2.8,0.5,3.8,1.6c1,1,1.6,2.4,1.6,3.8
					C44.5,57.7,44,59.1,42.9,60.1 M35.3,27.8c-2.1-2.1-2.1-5.5,0-7.6c2.1-2.1,5.5-2.1,7.6,0c1,1,1.6,2.4,1.6,3.8
					c0,1.4-0.6,2.8-1.6,3.8c-1,1-2.4,1.6-3.8,1.6C37.7,29.3,36.3,28.8,35.3,27.8 M59.8,35.6c-2.4-2.4-6.2-2.5-8.7-0.3L44,28.1
					c1-1.2,1.5-2.6,1.5-4.1c0-1.7-0.7-3.3-1.9-4.5c-2.5-2.5-6.5-2.5-9,0c-2.5,2.5-2.5,6.5,0,9c1.2,1.2,2.8,1.9,4.5,1.9
					c1.5,0,3-0.5,4.1-1.5l7.2,7.2c-2,2.4-2,5.9,0,8.3l-7.2,7.2c-2.5-2.1-6.3-2-8.7,0.3c-2.5,2.5-2.5,6.5,0,9
					c1.2,1.2,2.8,1.9,4.5,1.9c1.7,0,3.3-0.7,4.5-1.9c1.2-1.2,1.9-2.8,1.9-4.5c0-1.5-0.5-3-1.5-4.1l7.2-7.2c1.2,1,2.6,1.5,4.2,1.5
					c1.7,0,3.3-0.7,4.5-1.9C62.3,42.2,62.3,38.1,59.8,35.6"/>
			</g>
			<g id="Page-1-Copy-2" transform="translate(1232.000000, 302.000000)">
				<g id="Clip-2_2_">
				</g>
				<defs>
					<filter id="Adobe_OpacityMaskFilter_2_" filterUnits="userSpaceOnUse" x="0" y="0" width="79.2" height="80">
						<feColorMatrix  type="matrix" values="1 0 0 0 0  0 1 0 0 0  0 0 1 0 0  0 0 0 1 0"/>
					</filter>
				</defs>
				<mask maskUnits="userSpaceOnUse" x="0" y="0" width="79.2" height="80" id="mask-7_1_">
					<g class="st7">
						<polygon id="path-6_1_" class="st2" points="79.2,80 79.2,0 0,0 0,80 						"/>
					</g>
				</mask>
				<path id="Fill-1_3_" class="st8" d="M59.7,44.8V23.4l18.6-10.7v21.4L59.7,44.8z M40.1,78.7V57.2l18.6-10.7V68L40.1,78.7z
					 M20.6,46.5l18.6,10.7v21.4L20.6,68V46.5z M1,12.7l18.6,10.7v21.4L1,34.1V12.7z M20.1,1.1l18.6,10.7L20.1,22.5L1.5,11.8
					L20.1,1.1z M20.6,23.4l18.6-10.7v21.4L20.6,44.8V23.4z M58.7,44.8L40.1,34.1V12.7l18.6,10.7V44.8z M39.6,56.4L21.1,45.7L39.6,35
					l18.6,10.7L39.6,56.4z M59.2,1.1l18.6,10.7L59.2,22.5L40.6,11.8L59.2,1.1z M79.2,11.8c0-0.1,0-0.2-0.1-0.2
					c0-0.1-0.1-0.1-0.2-0.2c0,0,0,0,0,0L59.4,0.1c-0.2-0.1-0.3-0.1-0.5,0L39.6,11.2L20.3,0.1C20.2,0,20,0,19.8,0.1L0.3,11.4
					c0,0,0,0,0,0c-0.1,0-0.1,0.1-0.2,0.2C0,11.6,0,11.7,0,11.8c0,0,0,0,0,0v22.6c0,0.2,0.1,0.3,0.2,0.4L19.6,46v22.3
					c0,0.2,0.1,0.3,0.2,0.4L39.4,80c0,0,0,0,0,0c0.1,0,0.1,0.1,0.2,0.1c0.1,0,0.2,0,0.2-0.1c0,0,0,0,0,0l19.6-11.3
					c0.2-0.1,0.2-0.3,0.2-0.4V46L79,34.8c0.2-0.1,0.2-0.3,0.2-0.4L79.2,11.8C79.2,11.8,79.2,11.8,79.2,11.8z"/>
			</g>
			
				<g id="Page-1-Copy-3" transform="translate(49.127159, 232.704408) rotate(-345.000000) translate(-49.127159, -232.704408) translate(9.127159, 192.204408)">
				<path id="Fill-1_4_" class="st4" d="M59.8,45.6l0-21.4l18.6-10.7v21.4L59.8,45.6z M40.2,79.5l0-21.4l18.6-10.7v21.4L40.2,79.5z
					 M20.6,47.3l18.6,10.7l0,21.4L20.6,68.8L20.6,47.3z M1.1,13.5l18.6,10.7l0,21.4L1.1,34.9L1.1,13.5z M20.1,1.9l18.6,10.7
					L20.1,23.3L1.6,12.6L20.1,1.9z M20.6,24.2l18.6-10.7l0,21.4L20.6,45.6L20.6,24.2z M58.8,45.6L40.2,34.9l0-21.4l18.6,10.7
					L58.8,45.6z M39.7,57.2L21.1,46.5l18.6-10.7l18.6,10.7L39.7,57.2z M59.3,1.9l18.6,10.7L59.3,23.3L40.7,12.6L59.3,1.9z
					 M79.3,12.6c0-0.1,0-0.2-0.1-0.2c0-0.1-0.1-0.1-0.2-0.2c0,0,0,0,0,0L59.5,0.9c-0.2-0.1-0.3-0.1-0.5,0L39.7,12L20.4,0.9
					c-0.2-0.1-0.3-0.1-0.5,0L0.3,12.2c0,0,0,0,0,0c-0.1,0-0.1,0.1-0.2,0.2c0,0.1-0.1,0.1-0.1,0.2c0,0,0,0,0,0l0,22.6
					c0,0.2,0.1,0.3,0.2,0.4l19.3,11.1l0,22.3c0,0.2,0.1,0.3,0.2,0.4l19.6,11.3c0,0,0,0,0,0c0.1,0,0.1,0.1,0.2,0.1
					c0.1,0,0.2,0,0.2-0.1c0,0,0,0,0,0l19.6-11.3c0.2-0.1,0.2-0.3,0.2-0.4V46.8l19.3-11.1c0.2-0.1,0.2-0.3,0.2-0.4L79.3,12.6
					C79.3,12.6,79.3,12.6,79.3,12.6z"/>
			</g>
			<path id="Fill-1_5_" class="st4" d="M998.4,144.9c-0.4,0.1-0.8,0.1-1.1-0.1c-0.3-0.2-0.5-0.6-0.5-1l0-11.5c0-1.2-0.4-2.3-1.2-3.2
				c0,0,0-0.1,0-0.2c7.3-2.2,12-7.6,12-13.6c0-2-0.5-3.8-1.5-5.6c-0.1-0.3-0.2-0.5-0.2-0.9c-0.1-2.1-0.2-4.4-0.7-6.6l-0.6-2.4
				c0-0.4-0.2-0.8-0.6-1c-0.3-0.2-0.8-0.3-1.1-0.2l-2.5,0.4c-1.6,0.3-3.4,0.8-5.3,1.6c-0.9,0.4-1.6,0.5-2.2,0.4
				c-2.9-0.5-5.9-0.5-8.9,0c-0.6,0.1-1.3,0-2.2-0.4c-2-0.8-3.7-1.3-5.3-1.6l-2.4-0.4c-0.4-0.1-0.8-0.1-1.1,0.1
				c-0.3,0.2-0.6,0.6-0.6,0.9l-0.6,2.5c-0.5,2.2-0.7,4.5-0.7,6.6c0,0.3-0.1,0.6-0.2,0.9c-1,1.8-1.5,3.7-1.5,5.6
				c0,6,4.7,11.4,12.1,13.7c0,0,0,0.1,0,0.1c-0.8,0.9-1.2,2-1.2,3.2v2.1c-0.4,0.1-0.8,0.1-1.3,0.1c-2.4-0.1-4.2-1.2-5.7-3.6
				c-1.5-2.4-4.1-2.6-5.5-2.2c-0.8,0.3-0.9,0.7-0.9,0.9c0,0.5,0.4,0.8,0.9,1.3c0.5,0.4,1,0.9,1.6,1.7c0.2,0.3,0.5,0.8,0.8,1.3
				c1,1.9,2.5,4.4,5,5.1c2.2,0.6,3.9,0.5,5,0.4v5c0,0.4-0.2,0.7-0.5,1c-0.3,0.2-0.7,0.3-1,0.2c-12.8-4.1-21.4-16.3-20.8-29.7
				c0.6-15.1,12.8-27.7,27.9-28.6c0.7,0,1.3-0.1,2-0.1c7.6,0,14.8,2.8,20.4,8.1c6.1,5.7,9.4,13.5,9.4,21.8
				C1017.8,129.3,1010,140.5,998.4,144.9 M1009,94.4c-6.3-5.9-14.5-8.8-23.2-8.3c-15.6,1-28.3,14-28.9,29.6
				c-0.5,13.9,8.3,26.5,21.5,30.7c0.2,0.1,0.4,0.1,0.7,0.1c0.5,0,0.9-0.1,1.3-0.4c0.6-0.4,0.9-1.1,0.9-1.8v-6.1l-0.7,0.1
				c-1,0.1-2.7,0.3-5-0.3c-2.1-0.5-3.4-2.8-4.4-4.6c-0.3-0.5-0.6-1-0.8-1.4c-0.6-0.9-1.3-1.5-1.8-1.9c-0.2-0.1-0.4-0.3-0.5-0.5
				c0.3-0.1,0.9-0.2,1.6-0.1c0.8,0.1,2,0.5,2.8,1.9c1.6,2.7,3.7,4,6.5,4.1c0.7,0,1.4-0.1,2-0.3l0.3-0.1v-2.8c0-0.9,0.3-1.8,0.9-2.5
				c0.2-0.3,0.3-0.7,0.2-1c-0.1-0.3-0.4-0.6-0.7-0.7c-6.9-2.1-11.3-7.1-11.3-12.7c0-1.8,0.4-3.5,1.3-5.2c0.2-0.4,0.3-0.8,0.3-1.3
				c0.1-2.1,0.2-4.3,0.7-6.4l0.6-2.5c0-0.1,0.1-0.2,0.1-0.2c0,0,0.1-0.1,0.3,0l2.5,0.4c1.6,0.3,3.3,0.8,5.2,1.5
				c0.8,0.3,1.8,0.6,2.8,0.4c2.8-0.5,5.7-0.5,8.5,0c1,0.2,2-0.1,2.8-0.4c1.9-0.7,3.6-1.2,5.2-1.5l2.6-0.4c0.1,0,0.2,0,0.3,0
				c0,0,0.1,0.1,0.1,0.3l0.6,2.5c0.5,2.1,0.6,4.3,0.7,6.4c0,0.5,0.1,0.9,0.3,1.3c0.9,1.6,1.3,3.4,1.3,5.2c0,5.6-4.4,10.6-11.3,12.7
				c-0.4,0.1-0.6,0.4-0.7,0.7c-0.1,0.4,0,0.7,0.2,1c0.6,0.7,0.9,1.6,0.9,2.5l0,11.5c0,0.7,0.4,1.4,0.9,1.8c0.6,0.4,1.3,0.5,2,0.2
				c12-4.5,20-16.1,20-28.9C1018.8,108.4,1015.2,100.2,1009,94.4"/>
			<path id="Fill-1_6_" class="st4" d="M142.4,375.9c-0.4,0.1-0.8,0.1-1.1-0.1c-0.3-0.2-0.5-0.6-0.5-1l0-11.5c0-1.2-0.4-2.3-1.2-3.2
				c0,0,0-0.1,0-0.2c7.3-2.2,12-7.6,12-13.6c0-2-0.5-3.8-1.5-5.6c-0.1-0.3-0.2-0.5-0.2-0.9c-0.1-2.1-0.2-4.4-0.7-6.6l-0.6-2.4
				c0-0.4-0.2-0.8-0.6-1c-0.3-0.2-0.8-0.3-1.1-0.2l-2.5,0.4c-1.6,0.3-3.4,0.8-5.3,1.6c-0.9,0.4-1.6,0.5-2.2,0.4
				c-2.9-0.5-5.9-0.5-8.9,0c-0.6,0.1-1.3,0-2.2-0.4c-2-0.8-3.7-1.3-5.3-1.6l-2.4-0.4c-0.4-0.1-0.8-0.1-1.1,0.1
				c-0.3,0.2-0.6,0.6-0.6,0.9l-0.6,2.5c-0.5,2.2-0.7,4.5-0.7,6.6c0,0.3-0.1,0.6-0.2,0.9c-1,1.8-1.5,3.7-1.5,5.6
				c0,6,4.7,11.4,12.1,13.7c0,0,0,0.1,0,0.1c-0.8,0.9-1.2,2-1.2,3.2v2.1c-0.4,0.1-0.8,0.1-1.3,0.1c-2.4-0.1-4.2-1.2-5.7-3.6
				c-1.5-2.4-4.1-2.6-5.5-2.2c-0.8,0.3-0.9,0.7-0.9,0.9c0,0.5,0.4,0.9,0.9,1.3c0.5,0.4,1,0.9,1.6,1.7c0.2,0.4,0.5,0.8,0.8,1.3
				c1,1.9,2.5,4.4,5,5c2.2,0.6,3.9,0.5,5,0.4v5c0,0.4-0.2,0.7-0.5,1c-0.3,0.2-0.7,0.3-1,0.2c-12.8-4.1-21.4-16.3-20.8-29.7
				c0.6-15.1,12.8-27.7,27.9-28.6c0.7,0,1.3-0.1,2-0.1c7.6,0,14.8,2.8,20.4,8.1c6.1,5.7,9.4,13.5,9.4,21.8
				C161.8,360.3,154,371.5,142.4,375.9 M153,325.4c-6.3-5.9-14.5-8.8-23.2-8.3c-15.6,1-28.3,14-28.9,29.6
				c-0.5,13.9,8.3,26.5,21.5,30.7c0.2,0.1,0.4,0.1,0.7,0.1c0.5,0,0.9-0.1,1.3-0.4c0.6-0.4,0.9-1.1,0.9-1.8v-6.1l-0.7,0.1
				c-1,0.1-2.7,0.3-5-0.3c-2.1-0.5-3.4-2.8-4.4-4.6c-0.3-0.5-0.6-1-0.8-1.4c-0.6-0.9-1.3-1.5-1.8-1.9c-0.2-0.1-0.4-0.3-0.5-0.5
				c0.3-0.1,0.9-0.2,1.6-0.1c0.8,0.1,2,0.5,2.8,1.9c1.6,2.7,3.7,4,6.5,4.1c0.7,0,1.4-0.1,2-0.3l0.3-0.1v-2.8c0-0.9,0.3-1.8,0.9-2.5
				c0.2-0.3,0.3-0.7,0.2-1c-0.1-0.3-0.4-0.6-0.7-0.7c-6.9-2.1-11.3-7.1-11.3-12.7c0-1.8,0.4-3.5,1.3-5.2c0.2-0.4,0.3-0.8,0.3-1.3
				c0.1-2.1,0.2-4.3,0.7-6.4l0.6-2.5c0-0.1,0.1-0.2,0.1-0.2c0,0,0.1-0.1,0.3,0l2.5,0.4c1.6,0.3,3.3,0.8,5.2,1.5
				c0.8,0.3,1.8,0.6,2.8,0.4c2.8-0.5,5.7-0.5,8.5,0c1,0.2,2-0.1,2.8-0.4c1.9-0.7,3.6-1.2,5.2-1.5l2.6-0.4c0.1,0,0.2,0,0.3,0
				c0,0,0.1,0.1,0.1,0.3l0.6,2.5c0.5,2.1,0.6,4.3,0.7,6.4c0,0.5,0.1,0.9,0.3,1.3c0.9,1.6,1.3,3.4,1.3,5.2c0,5.6-4.4,10.6-11.3,12.7
				c-0.4,0.1-0.6,0.4-0.7,0.7c-0.1,0.4,0,0.7,0.2,1c0.6,0.7,0.9,1.6,0.9,2.5l0,11.5c0,0.7,0.4,1.4,0.9,1.8c0.6,0.4,1.3,0.5,2,0.2
				c12-4.5,20-16.1,20-28.9C162.8,339.4,159.2,331.2,153,325.4"/>
			<g id="Page-1-Copy-16" transform="translate(1255.000000, 59.000000)">
				<path id="Fill-1_7_" class="st4" d="M3.9,3.2l2.3-2.3c0.2-0.2,0.2-0.5,0-0.7C6,0,5.7,0,5.5,0.1L3.2,2.5L0.9,0.1
					C0.7,0,0.3,0,0.1,0.1S0,0.7,0.1,0.9l2.3,2.3L0.1,5.5C0,5.7,0,6,0.1,6.2c0.1,0.1,0.2,0.1,0.4,0.1c0.1,0,0.3,0,0.4-0.1l2.3-2.3
					l2.3,2.3c0.1,0.1,0.2,0.1,0.4,0.1c0.1,0,0.3,0,0.4-0.1c0.2-0.2,0.2-0.5,0-0.7L3.9,3.2z"/>
			</g>
			<g id="Page-1-Copy-21" transform="translate(101.000000, 138.000000)">
				<g id="Clip-2_3_">
				</g>
				<defs>
					<filter id="Adobe_OpacityMaskFilter_3_" filterUnits="userSpaceOnUse" x="0" y="0" width="6.4" height="6.4">
						<feColorMatrix  type="matrix" values="1 0 0 0 0  0 1 0 0 0  0 0 1 0 0  0 0 0 1 0"/>
					</filter>
				</defs>
				<mask maskUnits="userSpaceOnUse" x="0" y="0" width="6.4" height="6.4" id="mask-9_1_">
					<g class="st9">
						<polygon id="path-8_1_" class="st2" points="0,6.4 6.4,6.4 6.4,0 0,0 						"/>
					</g>
				</mask>
				<path id="Fill-1_8_" class="st10" d="M3.9,3.2l2.3-2.3c0.2-0.2,0.2-0.5,0-0.7C6,0,5.7,0,5.5,0.1L3.2,2.5L0.9,0.1
					C0.7,0,0.3,0,0.1,0.1S0,0.7,0.1,0.9l2.3,2.3L0.1,5.5C0,5.7,0,6,0.1,6.2c0.1,0.1,0.2,0.1,0.4,0.1c0.1,0,0.3,0,0.4-0.1l2.3-2.3
					l2.3,2.3c0.1,0.1,0.2,0.1,0.4,0.1c0.1,0,0.3,0,0.4-0.1c0.2-0.2,0.2-0.5,0-0.7L3.9,3.2z"/>
			</g>
			<g id="Page-1-Copy-17" transform="translate(896.000000, 35.000000)">
				<g id="Clip-2_4_">
				</g>
				<defs>
					<filter id="Adobe_OpacityMaskFilter_4_" filterUnits="userSpaceOnUse" x="0" y="0" width="6.4" height="6.4">
						<feColorMatrix  type="matrix" values="1 0 0 0 0  0 1 0 0 0  0 0 1 0 0  0 0 0 1 0"/>
					</filter>
				</defs>
				<mask maskUnits="userSpaceOnUse" x="0" y="0" width="6.4" height="6.4" id="mask-11_1_">
					<g class="st11">
						<polygon id="path-10_1_" class="st2" points="0,6.4 6.4,6.4 6.4,0 0,0 						"/>
					</g>
				</mask>
				<path id="Fill-1_9_" class="st12" d="M3.9,3.2l2.3-2.3c0.2-0.2,0.2-0.5,0-0.7C6,0,5.7,0,5.5,0.1L3.2,2.5L0.9,0.1
					C0.7,0,0.3,0,0.1,0.1S0,0.7,0.1,0.9l2.3,2.3L0.1,5.5C0,5.7,0,6,0.1,6.2c0.1,0.1,0.2,0.1,0.4,0.1c0.1,0,0.3,0,0.4-0.1l2.3-2.3
					l2.3,2.3c0.1,0.1,0.2,0.1,0.4,0.1c0.1,0,0.3,0,0.4-0.1c0.2-0.2,0.2-0.5,0-0.7L3.9,3.2z"/>
			</g>
			<g id="Page-1-Copy-18" transform="translate(57.000000, 43.000000)">
				<g id="Clip-2_5_">
				</g>
				<defs>
					<filter id="Adobe_OpacityMaskFilter_5_" filterUnits="userSpaceOnUse" x="0" y="0" width="6.4" height="6.4">
						<feColorMatrix  type="matrix" values="1 0 0 0 0  0 1 0 0 0  0 0 1 0 0  0 0 0 1 0"/>
					</filter>
				</defs>
				<mask maskUnits="userSpaceOnUse" x="0" y="0" width="6.4" height="6.4" id="mask-13_1_">
					<g class="st13">
						<polygon id="path-12_1_" class="st2" points="0,6.4 6.4,6.4 6.4,0 0,0 						"/>
					</g>
				</mask>
				<path id="Fill-1_10_" class="st14" d="M3.9,3.2l2.3-2.3c0.2-0.2,0.2-0.5,0-0.7C6,0,5.7,0,5.5,0.1L3.2,2.5L0.9,0.1
					C0.7,0,0.3,0,0.1,0.1S0,0.7,0.1,0.9l2.3,2.3L0.1,5.5C0,5.7,0,6,0.1,6.2c0.1,0.1,0.2,0.1,0.4,0.1c0.1,0,0.3,0,0.4-0.1l2.3-2.3
					l2.3,2.3c0.1,0.1,0.2,0.1,0.4,0.1c0.1,0,0.3,0,0.4-0.1c0.2-0.2,0.2-0.5,0-0.7L3.9,3.2z"/>
			</g>
			<g id="Page-1-Copy-19" transform="translate(1196.000000, 162.000000)">
				<path id="Fill-1_11_" class="st4" d="M3.9,3.2l2.3-2.3c0.2-0.2,0.2-0.5,0-0.7C6,0,5.7,0,5.5,0.1L3.2,2.5L0.9,0.1
					C0.7,0,0.3,0,0.1,0.1S0,0.7,0.1,0.9l2.3,2.3L0.1,5.5C0,5.7,0,6,0.1,6.2c0.1,0.1,0.2,0.1,0.4,0.1c0.1,0,0.3,0,0.4-0.1l2.3-2.3
					l2.3,2.3c0.1,0.1,0.2,0.1,0.4,0.1c0.1,0,0.3,0,0.4-0.1c0.2-0.2,0.2-0.5,0-0.7L3.9,3.2z"/>
			</g>
			<g id="Page-1-Copy-20" transform="translate(1242.000000, 226.000000)">
				<path id="Fill-1_12_" class="st4" d="M3.9,3.2l2.3-2.3c0.2-0.2,0.2-0.5,0-0.7C6,0,5.7,0,5.5,0.1L3.2,2.5L0.9,0.1
					C0.7,0,0.3,0,0.1,0.1S0,0.7,0.1,0.9l2.3,2.3L0.1,5.5C0,5.7,0,6,0.1,6.2c0.1,0.1,0.2,0.1,0.4,0.1c0.1,0,0.3,0,0.4-0.1l2.3-2.3
					l2.3,2.3c0.1,0.1,0.2,0.1,0.4,0.1c0.1,0,0.3,0,0.4-0.1c0.2-0.2,0.2-0.5,0-0.7L3.9,3.2z"/>
			</g>
			<g id="Page-1_1_" transform="translate(1144.000000, 277.000000)">
				<g id="Clip-2_6_">
				</g>
				<defs>
					<filter id="Adobe_OpacityMaskFilter_6_" filterUnits="userSpaceOnUse" x="0" y="0" width="6.9" height="6.9">
						<feColorMatrix  type="matrix" values="1 0 0 0 0  0 1 0 0 0  0 0 1 0 0  0 0 0 1 0"/>
					</filter>
				</defs>
				<mask maskUnits="userSpaceOnUse" x="0" y="0" width="6.9" height="6.9" id="mask-15_1_">
					<g class="st15">
						<polygon id="path-14_1_" class="st2" points="3.4,0 0,0 0,6.9 3.4,6.9 6.9,6.9 6.9,0 						"/>
					</g>
				</mask>
				<path id="Fill-1_13_" class="st16" d="M3.4,5.9C2.1,5.9,1,4.8,1,3.4S2.1,1,3.4,1s2.4,1.1,2.4,2.4S4.8,5.9,3.4,5.9 M3.4,0
					C1.5,0,0,1.5,0,3.4c0,1.9,1.5,3.4,3.4,3.4s3.4-1.5,3.4-3.4C6.9,1.5,5.3,0,3.4,0"/>
			</g>
			<g id="Page-1-Copy" transform="translate(1134.000000, 157.000000)">
				<path id="Fill-1_14_" class="st4" d="M3.4,5.9C2.1,5.9,1,4.8,1,3.4S2.1,1,3.4,1s2.4,1.1,2.4,2.4S4.8,5.9,3.4,5.9 M3.4,0
					C1.5,0,0,1.5,0,3.4c0,1.9,1.5,3.4,3.4,3.4s3.4-1.5,3.4-3.4C6.9,1.5,5.3,0,3.4,0"/>
			</g>
			<g id="Page-1-Copy-4" transform="translate(164.000000, 167.000000)">
				<g id="Clip-2_7_">
				</g>
				<defs>
					<filter id="Adobe_OpacityMaskFilter_7_" filterUnits="userSpaceOnUse" x="0" y="0" width="6.9" height="6.9">
						<feColorMatrix  type="matrix" values="1 0 0 0 0  0 1 0 0 0  0 0 1 0 0  0 0 0 1 0"/>
					</filter>
				</defs>
				<mask maskUnits="userSpaceOnUse" x="0" y="0" width="6.9" height="6.9" id="mask-17_1_">
					<g class="st17">
						<polygon id="path-16_1_" class="st2" points="3.4,0 0,0 0,6.9 3.4,6.9 6.9,6.9 6.9,0 						"/>
					</g>
				</mask>
				<path id="Fill-1_15_" class="st18" d="M3.4,5.9C2.1,5.9,1,4.8,1,3.4S2.1,1,3.4,1s2.4,1.1,2.4,2.4S4.8,5.9,3.4,5.9 M3.4,0
					C1.5,0,0,1.5,0,3.4c0,1.9,1.5,3.4,3.4,3.4s3.4-1.5,3.4-3.4C6.9,1.5,5.3,0,3.4,0"/>
			</g>
			<g id="Page-1-Copy-5" transform="translate(34.000000, 337.000000)">
				<g id="Clip-2_8_">
				</g>
				<defs>
					<filter id="Adobe_OpacityMaskFilter_8_" filterUnits="userSpaceOnUse" x="0" y="40" width="6.9" height="6.9">
						<feColorMatrix  type="matrix" values="1 0 0 0 0  0 1 0 0 0  0 0 1 0 0  0 0 0 1 0"/>
					</filter>
				</defs>
				<mask maskUnits="userSpaceOnUse" x="0" y="40" width="6.9" height="6.9" id="mask-19_1_">
					<g class="st19">
						<polygon id="path-18_1_" class="st2" points="3.4,0 0,0 0,6.9 3.4,6.9 6.9,6.9 6.9,0 						"/>
					</g>
				</mask>
				<path id="Fill-1_16_" class="st20" d="M3.4,45.9c-1.3,0-2.4-1.1-2.4-2.4C1,42.1,2.1,41,3.4,41s2.4,1.1,2.4,2.4
					C5.9,44.8,4.8,45.9,3.4,45.9 M3.4,40C1.5,40,0,41.5,0,43.4c0,1.9,1.5,3.4,3.4,3.4s3.4-1.5,3.4-3.4C6.9,41.5,5.3,40,3.4,40"/>
			</g>
			<path id="Fill-1_17_" class="st21" d="M212.5,45.6c-6,0-10.8-4.9-10.8-10.8c0-6,4.9-10.8,10.8-10.8s10.8,4.9,10.8,10.8
				C223.3,40.8,218.5,45.6,212.5,45.6 M202.2,48.5l-6.7,6.7c-0.2,0.2-0.5,0.2-0.7,0l-2.7-2.7c-0.2-0.2-0.2-0.5,0-0.7l6.7-6.7
				c0.1-0.1,0.2-0.1,0.4-0.1c0.1,0,0.3,0.1,0.4,0.1l2.7,2.7C202.4,48,202.4,48.3,202.2,48.5 M212.5,23c-6.5,0-11.8,5.3-11.8,11.8
				c0,3.1,1.2,5.9,3.1,8l-2.7,2.7l-1-1c-0.6-0.6-1.6-0.6-2.1,0l-6.7,6.7c-0.6,0.6-0.6,1.5,0,2.1l2.7,2.7c0.3,0.3,0.7,0.4,1.1,0.4
				c0.4,0,0.8-0.2,1.1-0.4l6.7-6.7c0.6-0.6,0.6-1.5,0-2.1l-1-1l2.7-2.6c2.1,1.9,4.9,3.1,8,3.1c6.5,0,11.8-5.3,11.8-11.8
				S219,23,212.5,23"/>
			<path id="Fill-1-Copy" class="st21" d="M93.6,454.8c0,6-4.9,10.8-10.8,10.8c-6,0-10.8-4.9-10.8-10.8c0-6,4.9-10.8,10.8-10.8
				C88.8,444,93.6,448.9,93.6,454.8 M96.5,465.2l6.7,6.7c0.2,0.2,0.2,0.5,0,0.7l-2.7,2.7c-0.2,0.2-0.5,0.2-0.7,0l-6.7-6.7
				c-0.1-0.1-0.1-0.2-0.1-0.4c0-0.1,0.1-0.3,0.1-0.4l2.7-2.7C96,465,96.3,465,96.5,465.2 M71,454.8c0,6.5,5.3,11.8,11.8,11.8
				c3.1,0,5.9-1.2,8-3.1l2.6,2.7l-1,1c-0.6,0.6-0.6,1.6,0,2.1l6.7,6.7c0.6,0.6,1.5,0.6,2.1,0l2.7-2.7c0.3-0.3,0.4-0.7,0.4-1.1
				c0-0.4-0.2-0.8-0.4-1.1l-6.7-6.7c-0.6-0.6-1.5-0.6-2.1,0l-1,1l-2.6-2.7c1.9-2.1,3.1-4.9,3.1-8c0-6.5-5.3-11.8-11.8-11.8
				C76.3,443,71,448.3,71,454.8"/>
			<path id="Fill-1-Copy-2" class="st21" d="M1233.6,484.8c0,6-4.9,10.8-10.8,10.8c-6,0-10.8-4.9-10.8-10.8s4.9-10.8,10.8-10.8
				C1228.8,474,1233.6,478.9,1233.6,484.8 M1236.5,495.2l6.7,6.7c0.2,0.2,0.2,0.5,0,0.7l-2.7,2.7c-0.2,0.2-0.5,0.2-0.7,0l-6.7-6.7
				c-0.1-0.1-0.1-0.2-0.1-0.4c0-0.1,0.1-0.3,0.1-0.4l2.7-2.7C1236,495,1236.3,495,1236.5,495.2 M1211,484.8
				c0,6.5,5.3,11.8,11.8,11.8c3.1,0,5.9-1.2,8-3.1l2.7,2.7l-1,1c-0.6,0.6-0.6,1.6,0,2.1l6.7,6.7c0.6,0.6,1.5,0.6,2.1,0l2.7-2.7
				c0.3-0.3,0.4-0.7,0.4-1.1c0-0.4-0.2-0.8-0.4-1.1l-6.7-6.7c-0.6-0.6-1.5-0.6-2.1,0l-1,1l-2.7-2.7c1.9-2.1,3.1-4.9,3.1-8
				c0-6.5-5.3-11.8-11.8-11.8S1211,478.3,1211,484.8"/>
		</g>
	</g>
</g>
</svg>
