<?xml version="1.0" encoding="utf-8"?>
<!-- Generator: Adobe Illustrator 22.1.0, SVG Export Plug-In . SVG Version: 6.00 Build 0)  -->
<svg version="1.1" id="Capa_1" xmlns="http://www.w3.org/2000/svg" xmlns:xlink="http://www.w3.org/1999/xlink" x="0px" y="0px"
	 viewBox="0 0 512 496.4" style="enable-background:new 0 0 512 496.4;" xml:space="preserve">
<style type="text/css">
	.st0{fill:url(#SVGID_1_);}
	.st1{fill:url(#SVGID_2_);}
	.st2{fill:url(#SVGID_3_);}
	.st3{fill:#FFFFFF;}
</style>
<g>
	<linearGradient id="SVGID_1_" gradientUnits="userSpaceOnUse" x1="151.07" y1="143.2565" x2="451.1235" y2="443.3101">
		<stop  offset="0" style="stop-color:#62E1FB"/>
		<stop  offset="1" style="stop-color:#00A2F3"/>
	</linearGradient>
	<ellipse class="st0" cx="256" cy="248.2" rx="254.5" ry="248.2"/>
	
		<linearGradient id="SVGID_2_" gradientUnits="userSpaceOnUse" x1="402.477" y1="138.5517" x2="111.037" y2="-152.8883" gradientTransform="matrix(1.0039 0 0 1.0039 -0.2212 214.9779)">
		<stop  offset="0" style="stop-color:#00A2F3;stop-opacity:0"/>
		<stop  offset="1" style="stop-color:#0075CD"/>
	</linearGradient>
	<path class="st1" d="M506.5,309.1c-0.2,0.8-0.3,1.5-0.5,2.3c-7.3,32.9-11.6,66.3-11.6,100v65.1c0,10-8.1,18-18,18h-65.1
		c-4.9,0-9.7,0.1-14.6,0.3L230.6,328.5c-2.8-2.9-4.3-8.1-4.3-15.6c0-32.9,8.4-56.5,25.2-71c1.7-1.6,5.1-4.3,10.2-8.2
		c-1.4-1.2-80.4-80.6-81.4-81.4c-3.8-3.2-5.6-7.6-5.6-13.2c0-10,7-19.8,21.1-29.4c14.1-9.6,32-14.4,53.7-14.4
		c27.2,0,48.6,7,64.2,20.9L506.5,309.1z"/>
	
		<linearGradient id="SVGID_3_" gradientUnits="userSpaceOnUse" x1="305.8265" y1="237.8421" x2="228.2864" y2="160.3022" gradientTransform="matrix(1.0039 0 0 1.0039 -0.2212 214.9779)">
		<stop  offset="0" style="stop-color:#00A2F3;stop-opacity:0"/>
		<stop  offset="1" style="stop-color:#0075CD"/>
	</linearGradient>
	<path class="st2" d="M383.4,495.4c-20.8,1.4-41.4,4.3-61.8,8.5l-94.4-94.4c-4.9-4.8-7.3-10.3-7.3-16.6c0-6.6,2.4-12.2,7.3-16.8
		c4.9-4.6,10.9-6.9,18.1-6.9c7.4,0,13.8,2.3,19.1,6.9L383.4,495.4z"/>
	<path class="st3" d="M174.7,139.2c0-10,7-19.8,21.2-29.4c14.1-9.6,32-14.4,53.7-14.4c27.2,0,48.6,7,64.2,20.9
		c15.6,14,23.5,31.7,23.5,53.3c0,8.9-1.3,17.5-3.9,25.7c-2.6,8.2-6.4,15.7-11.3,22.4c-4.9,6.8-9.3,12.4-13.2,16.8
		c-3.9,4.5-8.8,9.4-14.7,14.7c-5.9,5.3-9.5,8.6-10.6,9.7c-8.6,7.8-13.8,15.7-15.8,23.7c-2,8.1-3,20.3-3,36.7
		c0,8.9-6.6,13.4-19.9,13.4c-6.6,0-11.4-1.4-14.2-4.3c-2.8-2.9-4.3-8.1-4.3-15.6c0-32.9,8.4-56.5,25.2-70.9
		c1.9-1.7,5.8-4.9,11.9-9.5c6.1-4.6,10.6-8.4,13.6-11.5c3-3,6.4-7.1,10.4-12.1c4-5,6.9-10.5,8.7-16.4c1.8-5.9,2.8-12.2,2.8-18.8
		c0-13.8-4.5-24.6-13.5-32.2c-9-7.6-21.4-11.5-37.3-11.5c-9.2,0-17.1,1.4-23.5,4.2c-6.5,2.8-11,5.9-13.6,9.5
		c-2.6,3.5-5.5,6.7-8.6,9.5c-3.2,2.8-6.5,4.2-9.9,4.2c-4.3,0-8.4-1.6-12.1-4.8C176.6,149.2,174.7,144.8,174.7,139.2z M219.8,392.8
		c0-6.6,2.4-12.2,7.3-16.8c4.9-4.6,10.9-6.9,18.1-6.9c7.4,0,13.8,2.3,19.1,6.9c5.4,4.6,8.1,10.2,8.1,16.8c0,6.3-2.7,11.9-8.1,16.6
		c-5.4,4.8-11.8,7.1-19.1,7.1c-7.2,0-13.2-2.4-18.1-7.1C222.3,404.7,219.8,399.2,219.8,392.8z"/>
</g>
</svg>
