<?xml version="1.0" encoding="UTF-8"?>
<svg width="1261px" height="524px" viewBox="0 0 1261 524" version="1.1" xmlns="http://www.w3.org/2000/svg" xmlns:xlink="http://www.w3.org/1999/xlink">
    <!-- Generator: Sketch 48.1 (47250) - http://www.bohemiancoding.com/sketch -->
    <title>line icons</title>
    <desc>Created with Sketch.</desc>
    <defs>
        <polygon id="path-1" points="0.0004 0.31 28.9574 0.31 28.9574 45.4324 0.0004 45.4324 0.0004 0.31"></polygon>
        <polygon id="path-3" points="0.0004 0.31 28.9574 0.31 28.9574 45.4324 0.0004 45.4324 0.0004 0.31"></polygon>
        <polygon id="path-5" points="0.0004 0.31 28.9574 0.31 28.9574 45.4324 0.0004 45.4324 0.0004 0.31"></polygon>
        <polygon id="path-7" points="79.23 80.0438 79.23 0.0003 0.0004 0.0003 0.0004 80.0438 79.23 80.0438"></polygon>
        <polygon id="path-9" points="0.00025 6.375 6.37475 6.375 6.37475 0.00025 0.00025 0.00025"></polygon>
        <polygon id="path-11" points="0.00025 6.375 6.37475 6.375 6.37475 0.00025 0.00025 0.00025"></polygon>
        <polygon id="path-13" points="0.00025 6.375 6.37475 6.375 6.37475 0.00025 0.00025 0.00025"></polygon>
        <polygon id="path-15" points="3.42785 0.00045 0 0.00045 0 6.85645 3.42785 6.85645 6.8557 6.85645 6.8557 0.00045"></polygon>
        <polygon id="path-17" points="3.42785 0.00045 0 0.00045 0 6.85645 3.42785 6.85645 6.8557 6.85645 6.8557 0.00045"></polygon>
    </defs>
    <g id="2.1-Login" stroke="none" stroke-width="1" fill="none" fill-rule="evenodd" transform="translate(-102.000000, -185.000000)">
        <g id="line-icons" transform="translate(85.000000, 162.000000)">
            <g id="Page-1-Copy-6" transform="translate(187.000000, 114.000000)">
                <g id="Group-3" transform="translate(0.000000, 0.690100)">
                    <mask id="mask-2" fill="white">
                        <use xlink:href="#path-1"></use>
                    </mask>
                    <g id="Clip-2"></g>
                    <path d="M26.3774,42.8564 C24.2744,44.9584 20.8544,44.9584 18.7514,42.8564 C17.7324,41.8374 17.1714,40.4834 17.1714,39.0434 C17.1714,37.6024 17.7324,36.2494 18.7514,35.2304 C19.7704,34.2114 21.1244,33.6504 22.5644,33.6504 C24.0044,33.6504 25.3584,34.2114 26.3774,35.2304 C27.3964,36.2494 27.9574,37.6024 27.9574,39.0434 C27.9574,40.4834 27.3964,41.8374 26.3774,42.8564 M2.5794,26.6844 C1.5614,25.6664 1.0004,24.3114 1.0004,22.8714 C1.0004,21.4304 1.5614,20.0774 2.5794,19.0584 C3.5984,18.0404 4.9524,17.4784 6.3924,17.4784 C7.8324,17.4784 9.1874,18.0404 10.2054,19.0584 C11.2244,20.0774 11.7854,21.4304 11.7854,22.8714 C11.7854,24.3114 11.2244,25.6664 10.2054,26.6844 C8.1024,28.7864 4.6814,28.7864 2.5794,26.6844 M18.7514,2.8854 C19.8024,1.8354 21.1834,1.3094 22.5644,1.3094 C23.9454,1.3094 25.3264,1.8354 26.3774,2.8854 C28.4794,4.9884 28.4794,8.4104 26.3774,10.5124 C24.2744,12.6144 20.8544,12.6144 18.7514,10.5124 C16.6494,8.4104 16.6494,4.9884 18.7514,2.8854 M22.5644,32.6504 C21.0244,32.6504 19.5714,33.1954 18.4154,34.1864 L11.2494,27.0204 C12.2404,25.8644 12.7854,24.4104 12.7854,22.8714 C12.7854,21.3324 12.2404,19.8784 11.2494,18.7214 L18.4164,11.5554 C19.6064,12.5744 21.0844,13.0884 22.5644,13.0884 C24.2014,13.0884 25.8384,12.4654 27.0844,11.2194 C29.5764,8.7274 29.5764,4.6704 27.0844,2.1784 C24.5924,-0.3136 20.5364,-0.3126 18.0444,2.1784 C15.6714,4.5514 15.5634,8.3394 17.7094,10.8484 L10.5424,18.0144 C9.3854,17.0234 7.9324,16.4784 6.3924,16.4784 C4.6854,16.4784 3.0794,17.1434 1.8724,18.3514 C0.6654,19.5584 0.0004,21.1644 0.0004,22.8714 C0.0004,24.5784 0.6654,26.1834 1.8724,27.3914 C3.1184,28.6374 4.7554,29.2604 6.3924,29.2604 C7.8724,29.2604 9.3494,28.7464 10.5414,27.7274 L17.7084,34.8934 C16.7164,36.0504 16.1714,37.5034 16.1714,39.0434 C16.1714,40.7504 16.8364,42.3554 18.0444,43.5634 C19.2904,44.8094 20.9274,45.4324 22.5644,45.4324 C24.2014,45.4324 25.8384,44.8094 27.0844,43.5634 C28.2924,42.3554 28.9574,40.7504 28.9574,39.0434 C28.9574,37.3354 28.2924,35.7304 27.0844,34.5234 C25.8774,33.3154 24.2724,32.6504 22.5644,32.6504" id="Fill-1" fill-opacity="0.1" fill="#404A6D" mask="url(#mask-2)"></path>
                </g>
                <path d="M59.1138,43.9381 C58.0948,44.9571 56.7408,45.5181 55.3008,45.5181 C53.8608,45.5181 52.5058,44.9571 51.4878,43.9381 C49.3848,41.8351 49.3848,38.4151 51.4878,36.3121 C52.5388,35.2611 53.9198,34.7361 55.3008,34.7361 C56.6808,34.7361 58.0628,35.2611 59.1138,36.3121 C61.2158,38.4151 61.2158,41.8351 59.1138,43.9381 M42.9418,60.1101 C41.9228,61.1281 40.5688,61.6901 39.1288,61.6901 C37.6888,61.6901 36.3338,61.1281 35.3158,60.1101 C33.2138,58.0071 33.2138,54.5861 35.3158,52.4841 C36.3668,51.4331 37.7478,50.9081 39.1288,50.9081 C40.5098,50.9081 41.8898,51.4331 42.9418,52.4841 C43.9598,53.5021 44.5208,54.8571 44.5208,56.2971 C44.5208,57.7381 43.9598,59.0911 42.9418,60.1101 M35.3158,27.7661 C33.2138,25.6641 33.2138,22.2431 35.3158,20.1401 C37.4178,18.0391 40.8388,18.0391 42.9418,20.1401 C43.9598,21.1591 44.5208,22.5131 44.5208,23.9541 C44.5208,25.3941 43.9598,26.7481 42.9418,27.7661 C41.9228,28.7851 40.5688,29.3461 39.1288,29.3461 C37.6888,29.3461 36.3338,28.7851 35.3158,27.7661 M59.8208,35.6051 C57.4478,33.2321 53.6608,33.1251 51.1518,35.2691 L43.9848,28.1021 C44.9758,26.9461 45.5208,25.4931 45.5208,23.9541 C45.5208,22.2471 44.8558,20.6411 43.6488,19.4331 C41.1568,16.9411 37.1008,16.9411 34.6088,19.4331 C32.1168,21.9261 32.1168,25.9811 34.6088,28.4731 C35.8158,29.6811 37.4208,30.3461 39.1288,30.3461 C40.6678,30.3461 42.1218,29.8011 43.2778,28.8101 L50.4448,35.9761 C48.4068,38.3601 48.4068,41.8911 50.4448,44.2741 L43.2768,51.4411 C40.7688,49.2951 36.9818,49.4041 34.6088,51.7771 C32.1168,54.2701 32.1168,58.3251 34.6088,60.8171 C35.8158,62.0251 37.4208,62.6901 39.1288,62.6901 C40.8358,62.6901 42.4418,62.0251 43.6488,60.8171 C44.8558,59.6101 45.5208,58.0041 45.5208,56.2971 C45.5208,54.7581 44.9758,53.3041 43.9848,52.1481 L51.1508,44.9821 C52.3078,45.9731 53.7608,46.5181 55.3008,46.5181 C57.0088,46.5181 58.6138,45.8531 59.8208,44.6451 C62.3128,42.1531 62.3128,38.0981 59.8208,35.6051" id="Fill-4" fill-opacity="0.1" fill="#404A6D"></path>
            </g>
            <g id="Page-1-Copy-8" transform="translate(307.000000, 484.000000)">
                <g id="Group-3" transform="translate(0.000000, 0.690100)">
                    <mask id="mask-4" fill="white">
                        <use xlink:href="#path-3"></use>
                    </mask>
                    <g id="Clip-2"></g>
                    <path d="M26.3774,42.8564 C24.2744,44.9584 20.8544,44.9584 18.7514,42.8564 C17.7324,41.8374 17.1714,40.4834 17.1714,39.0434 C17.1714,37.6024 17.7324,36.2494 18.7514,35.2304 C19.7704,34.2114 21.1244,33.6504 22.5644,33.6504 C24.0044,33.6504 25.3584,34.2114 26.3774,35.2304 C27.3964,36.2494 27.9574,37.6024 27.9574,39.0434 C27.9574,40.4834 27.3964,41.8374 26.3774,42.8564 M2.5794,26.6844 C1.5614,25.6664 1.0004,24.3114 1.0004,22.8714 C1.0004,21.4304 1.5614,20.0774 2.5794,19.0584 C3.5984,18.0404 4.9524,17.4784 6.3924,17.4784 C7.8324,17.4784 9.1874,18.0404 10.2054,19.0584 C11.2244,20.0774 11.7854,21.4304 11.7854,22.8714 C11.7854,24.3114 11.2244,25.6664 10.2054,26.6844 C8.1024,28.7864 4.6814,28.7864 2.5794,26.6844 M18.7514,2.8854 C19.8024,1.8354 21.1834,1.3094 22.5644,1.3094 C23.9454,1.3094 25.3264,1.8354 26.3774,2.8854 C28.4794,4.9884 28.4794,8.4104 26.3774,10.5124 C24.2744,12.6144 20.8544,12.6144 18.7514,10.5124 C16.6494,8.4104 16.6494,4.9884 18.7514,2.8854 M22.5644,32.6504 C21.0244,32.6504 19.5714,33.1954 18.4154,34.1864 L11.2494,27.0204 C12.2404,25.8644 12.7854,24.4104 12.7854,22.8714 C12.7854,21.3324 12.2404,19.8784 11.2494,18.7214 L18.4164,11.5554 C19.6064,12.5744 21.0844,13.0884 22.5644,13.0884 C24.2014,13.0884 25.8384,12.4654 27.0844,11.2194 C29.5764,8.7274 29.5764,4.6704 27.0844,2.1784 C24.5924,-0.3136 20.5364,-0.3126 18.0444,2.1784 C15.6714,4.5514 15.5634,8.3394 17.7094,10.8484 L10.5424,18.0144 C9.3854,17.0234 7.9324,16.4784 6.3924,16.4784 C4.6854,16.4784 3.0794,17.1434 1.8724,18.3514 C0.6654,19.5584 0.0004,21.1644 0.0004,22.8714 C0.0004,24.5784 0.6654,26.1834 1.8724,27.3914 C3.1184,28.6374 4.7554,29.2604 6.3924,29.2604 C7.8724,29.2604 9.3494,28.7464 10.5414,27.7274 L17.7084,34.8934 C16.7164,36.0504 16.1714,37.5034 16.1714,39.0434 C16.1714,40.7504 16.8364,42.3554 18.0444,43.5634 C19.2904,44.8094 20.9274,45.4324 22.5644,45.4324 C24.2014,45.4324 25.8384,44.8094 27.0844,43.5634 C28.2924,42.3554 28.9574,40.7504 28.9574,39.0434 C28.9574,37.3354 28.2924,35.7304 27.0844,34.5234 C25.8774,33.3154 24.2724,32.6504 22.5644,32.6504" id="Fill-1" fill-opacity="0.1" fill="#404A6D" mask="url(#mask-4)"></path>
                </g>
                <path d="M59.1138,43.9381 C58.0948,44.9571 56.7408,45.5181 55.3008,45.5181 C53.8608,45.5181 52.5058,44.9571 51.4878,43.9381 C49.3848,41.8351 49.3848,38.4151 51.4878,36.3121 C52.5388,35.2611 53.9198,34.7361 55.3008,34.7361 C56.6808,34.7361 58.0628,35.2611 59.1138,36.3121 C61.2158,38.4151 61.2158,41.8351 59.1138,43.9381 M42.9418,60.1101 C41.9228,61.1281 40.5688,61.6901 39.1288,61.6901 C37.6888,61.6901 36.3338,61.1281 35.3158,60.1101 C33.2138,58.0071 33.2138,54.5861 35.3158,52.4841 C36.3668,51.4331 37.7478,50.9081 39.1288,50.9081 C40.5098,50.9081 41.8898,51.4331 42.9418,52.4841 C43.9598,53.5021 44.5208,54.8571 44.5208,56.2971 C44.5208,57.7381 43.9598,59.0911 42.9418,60.1101 M35.3158,27.7661 C33.2138,25.6641 33.2138,22.2431 35.3158,20.1401 C37.4178,18.0391 40.8388,18.0391 42.9418,20.1401 C43.9598,21.1591 44.5208,22.5131 44.5208,23.9541 C44.5208,25.3941 43.9598,26.7481 42.9418,27.7661 C41.9228,28.7851 40.5688,29.3461 39.1288,29.3461 C37.6888,29.3461 36.3338,28.7851 35.3158,27.7661 M59.8208,35.6051 C57.4478,33.2321 53.6608,33.1251 51.1518,35.2691 L43.9848,28.1021 C44.9758,26.9461 45.5208,25.4931 45.5208,23.9541 C45.5208,22.2471 44.8558,20.6411 43.6488,19.4331 C41.1568,16.9411 37.1008,16.9411 34.6088,19.4331 C32.1168,21.9261 32.1168,25.9811 34.6088,28.4731 C35.8158,29.6811 37.4208,30.3461 39.1288,30.3461 C40.6678,30.3461 42.1218,29.8011 43.2778,28.8101 L50.4448,35.9761 C48.4068,38.3601 48.4068,41.8911 50.4448,44.2741 L43.2768,51.4411 C40.7688,49.2951 36.9818,49.4041 34.6088,51.7771 C32.1168,54.2701 32.1168,58.3251 34.6088,60.8171 C35.8158,62.0251 37.4208,62.6901 39.1288,62.6901 C40.8358,62.6901 42.4418,62.0251 43.6488,60.8171 C44.8558,59.6101 45.5208,58.0041 45.5208,56.2971 C45.5208,54.7581 44.9758,53.3041 43.9848,52.1481 L51.1508,44.9821 C52.3078,45.9731 53.7608,46.5181 55.3008,46.5181 C57.0088,46.5181 58.6138,45.8531 59.8208,44.6451 C62.3128,42.1531 62.3128,38.0981 59.8208,35.6051" id="Fill-4" fill-opacity="0.1" fill="#404A6D"></path>
            </g>
            <g id="Group" transform="translate(279.000000, 0.000000)" fill="#404A6D" fill-opacity="0.1">
                <g id="Page-1" transform="translate(74.000000, 74.000000) rotate(-44.000000) translate(-74.000000, -74.000000) translate(20.000000, 24.000000)">
                    <path d="M48.2085,16.3164 C48.0135,16.1214 47.6965,16.1214 47.5015,16.3164 L43.2915,20.5264 C43.0965,20.7214 43.0965,21.0384 43.2915,21.2334 L47.5015,25.4434 C47.5995,25.5414 47.7275,25.5894 47.8545,25.5894 C47.9825,25.5894 48.1105,25.5414 48.2085,25.4434 C48.4035,25.2484 48.4035,24.9314 48.2085,24.7364 L44.3525,20.8794 L48.2085,17.0234 C48.4035,16.8284 48.4035,16.5114 48.2085,16.3164" id="Fill-1"></path>
                    <path d="M60.2256,16.3164 C60.0306,16.1214 59.7136,16.1214 59.5186,16.3164 C59.3236,16.5114 59.3236,16.8284 59.5186,17.0234 L63.3746,20.8794 L59.5186,24.7364 C59.3236,24.9314 59.3236,25.2484 59.5186,25.4434 C59.6166,25.5414 59.7446,25.5894 59.8716,25.5894 C59.9996,25.5894 60.1276,25.5414 60.2256,25.4434 L64.4356,21.2334 C64.6306,21.0384 64.6306,20.7214 64.4356,20.5264 L60.2256,16.3164 Z" id="Fill-3"></path>
                    <path d="M55.3911,16.1153 C55.1261,16.0363 54.8461,16.1763 54.7621,16.4393 L52.0131,25.0143 C51.9281,25.2773 52.0731,25.5583 52.3361,25.6433 C52.3871,25.6593 52.4381,25.6673 52.4891,25.6673 C52.7001,25.6673 52.8971,25.5323 52.9651,25.3193 L55.7141,16.7443 C55.7991,16.4813 55.6541,16.2003 55.3911,16.1153" id="Fill-5"></path>
                    <path d="M14.2251,75.5459 C14.0301,75.3509 13.7131,75.3509 13.5181,75.5459 L9.3081,79.7559 C9.1131,79.9509 9.1131,80.2679 9.3081,80.4629 L13.5181,84.6729 C13.6161,84.7709 13.7441,84.8189 13.8711,84.8189 C13.9991,84.8189 14.1271,84.7709 14.2251,84.6729 C14.4201,84.4779 14.4201,84.1609 14.2251,83.9659 L10.3691,80.1089 L14.2251,76.2529 C14.4201,76.0579 14.4201,75.7409 14.2251,75.5459" id="Fill-7"></path>
                    <path d="M26.2422,75.5459 C26.0472,75.3509 25.7302,75.3509 25.5352,75.5459 C25.3402,75.7409 25.3402,76.0579 25.5352,76.2529 L29.3912,80.1089 L25.5352,83.9659 C25.3402,84.1609 25.3402,84.4779 25.5352,84.6729 C25.6332,84.7709 25.7612,84.8189 25.8882,84.8189 C26.0162,84.8189 26.1442,84.7709 26.2422,84.6729 L30.4522,80.4629 C30.6472,80.2679 30.6472,79.9509 30.4522,79.7559 L26.2422,75.5459 Z" id="Fill-9"></path>
                    <path d="M21.4077,75.3457 C21.1437,75.2657 20.8627,75.4067 20.7787,75.6697 L18.0297,84.2447 C17.9447,84.5077 18.0897,84.7887 18.3527,84.8737 C18.4037,84.8897 18.4547,84.8977 18.5057,84.8977 C18.7167,84.8977 18.9137,84.7627 18.9817,84.5497 L21.7307,75.9747 C21.8157,75.7117 21.6707,75.4307 21.4077,75.3457" id="Fill-11"></path>
                    <g id="Group-15" transform="translate(33.000000, 0.989300)">
                        <path d="M54.8472,98 C44.4372,98 35.9682,89.53 35.9682,79.12 C35.9682,68.71 44.4372,60.241 54.8472,60.241 C65.2572,60.241 73.7272,68.71 73.7272,79.12 C73.7272,89.53 65.2572,98 54.8472,98 M1.9842,19.891 C1.9842,9.48 10.4532,1.011 20.8642,1.011 C31.2742,1.011 39.7432,9.48 39.7432,19.891 C39.7432,30.301 31.2742,38.77 20.8642,38.77 C10.4532,38.77 1.9842,30.301 1.9842,19.891 M54.8472,59.241 C50.9932,59.241 47.4042,60.361 44.3542,62.268 C44.3612,62.251 44.3722,62.236 44.3772,62.219 C44.3772,62.217 44.3802,62.216 44.3802,62.214 L44.3822,62.209 L44.3822,62.208 L45.3342,58.525 C45.4032,58.258 45.2432,57.985 44.9752,57.916 C44.7062,57.847 44.4352,58.008 44.3662,58.275 L43.7102,60.812 L29.7542,37.696 C29.7452,37.683 29.7312,37.674 29.7222,37.661 C36.2442,34.396 40.7432,27.667 40.7432,19.891 C40.7432,8.929 31.8252,0.011 20.8642,0.011 C9.9022,0.011 0.9842,8.929 0.9842,19.891 C0.9842,30.852 9.9022,39.77 20.8642,39.77 C23.7052,39.77 26.4032,39.16 28.8502,38.081 C28.8622,38.126 28.8722,38.172 28.8972,38.214 L42.8342,61.298 L40.3322,60.651 C40.0662,60.583 39.7922,60.743 39.7232,61.011 C39.6542,61.278 39.8152,61.551 40.0822,61.62 L43.7712,62.573 C43.7942,62.579 43.8152,62.579 43.8382,62.581 C38.4962,66.149 34.9682,72.229 34.9682,79.12 C34.9682,90.082 43.8862,99 54.8472,99 C65.8092,99 74.7272,90.082 74.7272,79.12 C74.7272,68.159 65.8092,59.241 54.8472,59.241" id="Fill-13"></path>
                    </g>
                    <path d="M82.1924,75.5459 C81.9974,75.3509 81.6804,75.3509 81.4854,75.5459 L77.2754,79.7559 C77.0804,79.9509 77.0804,80.2679 77.2754,80.4629 L81.4854,84.6729 C81.5834,84.7709 81.7114,84.8189 81.8384,84.8189 C81.9664,84.8189 82.0944,84.7709 82.1924,84.6729 C82.3874,84.4779 82.3874,84.1609 82.1924,83.9659 L78.3364,80.1089 L82.1924,76.2529 C82.3874,76.0579 82.3874,75.7409 82.1924,75.5459" id="Fill-16"></path>
                    <path d="M94.2095,75.5459 C94.0145,75.3509 93.6975,75.3509 93.5025,75.5459 C93.3075,75.7409 93.3075,76.0579 93.5025,76.2529 L97.3585,80.1089 L93.5025,83.9659 C93.3075,84.1609 93.3075,84.4779 93.5025,84.6729 C93.6005,84.7709 93.7285,84.8189 93.8555,84.8189 C93.9835,84.8189 94.1115,84.7709 94.2095,84.6729 L98.4195,80.4629 C98.6145,80.2679 98.6145,79.9509 98.4195,79.7559 L94.2095,75.5459 Z" id="Fill-18"></path>
                    <path d="M89.375,75.3457 C89.112,75.2657 88.83,75.4067 88.746,75.6697 L85.997,84.2447 C85.912,84.5077 86.057,84.7887 86.32,84.8737 C86.371,84.8897 86.422,84.8977 86.473,84.8977 C86.684,84.8977 86.881,84.7627 86.949,84.5497 L89.698,75.9747 C89.783,75.7117 89.638,75.4307 89.375,75.3457" id="Fill-20"></path>
                    <g id="Group-24" transform="translate(0.000000, 37.989300)">
                        <path d="M19.8799,61 C9.4699,61 0.9999,52.53 0.9999,42.12 C0.9999,31.71 9.4699,23.241 19.8799,23.241 C30.2899,23.241 38.7599,31.71 38.7599,42.12 C38.7599,52.53 30.2899,61 19.8799,61 M67.9079,41.928 C67.8829,41.866 67.8459,41.812 67.7999,41.766 L65.1059,39.073 C64.9109,38.878 64.5939,38.878 64.3989,39.073 C64.2039,39.269 64.2039,39.585 64.3989,39.78 L66.2389,41.62 L39.7339,41.62 C39.5619,34.717 35.8589,28.688 30.3589,25.259 L44.2619,2.231 L44.9179,4.77 C44.9759,4.995 45.1789,5.145 45.4009,5.145 C45.4419,5.145 45.4839,5.14 45.5259,5.129 C45.7939,5.06 45.9549,4.787 45.8849,4.52 L44.9339,0.836 L44.9339,0.835 L44.9319,0.83 C44.9259,0.806 44.9099,0.787 44.9009,0.765 C44.8859,0.729 44.8739,0.69 44.8499,0.659 C44.8219,0.62 44.7829,0.592 44.7449,0.562 C44.7309,0.552 44.7219,0.537 44.7069,0.527 C44.7059,0.527 44.7049,0.527 44.7049,0.526 C44.7039,0.526 44.7029,0.525 44.7019,0.524 C44.6669,0.504 44.6269,0.496 44.5879,0.484 C44.5639,0.478 44.5419,0.464 44.5179,0.46 C44.5049,0.458 44.4929,0.463 44.4809,0.462 C44.4289,0.458 44.3759,0.458 44.3259,0.471 L44.3229,0.471 L40.6339,1.424 C40.3669,1.493 40.2059,1.766 40.2759,2.033 C40.3439,2.301 40.6159,2.462 40.8839,2.393 L43.3859,1.746 L29.5039,24.739 C26.6499,23.152 23.3709,22.241 19.8799,22.241 C8.9179,22.241 -0.0001,31.159 -0.0001,42.12 C-0.0001,53.082 8.9179,62 19.8799,62 C30.6729,62 39.4659,53.35 39.7339,42.62 L66.2399,42.62 L64.3989,44.461 C64.2039,44.656 64.2039,44.973 64.3989,45.168 C64.4969,45.266 64.6249,45.314 64.7529,45.314 C64.8799,45.314 65.0079,45.266 65.1059,45.168 L67.7999,42.475 C67.8459,42.429 67.8829,42.374 67.9079,42.313 C67.9329,42.252 67.9469,42.187 67.9469,42.12 C67.9469,42.054 67.9329,41.988 67.9079,41.928" id="Fill-22"></path>
                    </g>
                </g>
            </g>
            <g id="Page-1-Copy-7" transform="translate(1073.000000, 52.000000)">
                <g id="Group-3" transform="translate(0.000000, 0.690100)">
                    <mask id="mask-6" fill="white">
                        <use xlink:href="#path-5"></use>
                    </mask>
                    <g id="Clip-2"></g>
                    <path d="M26.3774,42.8564 C24.2744,44.9584 20.8544,44.9584 18.7514,42.8564 C17.7324,41.8374 17.1714,40.4834 17.1714,39.0434 C17.1714,37.6024 17.7324,36.2494 18.7514,35.2304 C19.7704,34.2114 21.1244,33.6504 22.5644,33.6504 C24.0044,33.6504 25.3584,34.2114 26.3774,35.2304 C27.3964,36.2494 27.9574,37.6024 27.9574,39.0434 C27.9574,40.4834 27.3964,41.8374 26.3774,42.8564 M2.5794,26.6844 C1.5614,25.6664 1.0004,24.3114 1.0004,22.8714 C1.0004,21.4304 1.5614,20.0774 2.5794,19.0584 C3.5984,18.0404 4.9524,17.4784 6.3924,17.4784 C7.8324,17.4784 9.1874,18.0404 10.2054,19.0584 C11.2244,20.0774 11.7854,21.4304 11.7854,22.8714 C11.7854,24.3114 11.2244,25.6664 10.2054,26.6844 C8.1024,28.7864 4.6814,28.7864 2.5794,26.6844 M18.7514,2.8854 C19.8024,1.8354 21.1834,1.3094 22.5644,1.3094 C23.9454,1.3094 25.3264,1.8354 26.3774,2.8854 C28.4794,4.9884 28.4794,8.4104 26.3774,10.5124 C24.2744,12.6144 20.8544,12.6144 18.7514,10.5124 C16.6494,8.4104 16.6494,4.9884 18.7514,2.8854 M22.5644,32.6504 C21.0244,32.6504 19.5714,33.1954 18.4154,34.1864 L11.2494,27.0204 C12.2404,25.8644 12.7854,24.4104 12.7854,22.8714 C12.7854,21.3324 12.2404,19.8784 11.2494,18.7214 L18.4164,11.5554 C19.6064,12.5744 21.0844,13.0884 22.5644,13.0884 C24.2014,13.0884 25.8384,12.4654 27.0844,11.2194 C29.5764,8.7274 29.5764,4.6704 27.0844,2.1784 C24.5924,-0.3136 20.5364,-0.3126 18.0444,2.1784 C15.6714,4.5514 15.5634,8.3394 17.7094,10.8484 L10.5424,18.0144 C9.3854,17.0234 7.9324,16.4784 6.3924,16.4784 C4.6854,16.4784 3.0794,17.1434 1.8724,18.3514 C0.6654,19.5584 0.0004,21.1644 0.0004,22.8714 C0.0004,24.5784 0.6654,26.1834 1.8724,27.3914 C3.1184,28.6374 4.7554,29.2604 6.3924,29.2604 C7.8724,29.2604 9.3494,28.7464 10.5414,27.7274 L17.7084,34.8934 C16.7164,36.0504 16.1714,37.5034 16.1714,39.0434 C16.1714,40.7504 16.8364,42.3554 18.0444,43.5634 C19.2904,44.8094 20.9274,45.4324 22.5644,45.4324 C24.2014,45.4324 25.8384,44.8094 27.0844,43.5634 C28.2924,42.3554 28.9574,40.7504 28.9574,39.0434 C28.9574,37.3354 28.2924,35.7304 27.0844,34.5234 C25.8774,33.3154 24.2724,32.6504 22.5644,32.6504" id="Fill-1" fill-opacity="0.1" fill="#404A6D" mask="url(#mask-6)"></path>
                </g>
                <path d="M59.1138,43.9381 C58.0948,44.9571 56.7408,45.5181 55.3008,45.5181 C53.8608,45.5181 52.5058,44.9571 51.4878,43.9381 C49.3848,41.8351 49.3848,38.4151 51.4878,36.3121 C52.5388,35.2611 53.9198,34.7361 55.3008,34.7361 C56.6808,34.7361 58.0628,35.2611 59.1138,36.3121 C61.2158,38.4151 61.2158,41.8351 59.1138,43.9381 M42.9418,60.1101 C41.9228,61.1281 40.5688,61.6901 39.1288,61.6901 C37.6888,61.6901 36.3338,61.1281 35.3158,60.1101 C33.2138,58.0071 33.2138,54.5861 35.3158,52.4841 C36.3668,51.4331 37.7478,50.9081 39.1288,50.9081 C40.5098,50.9081 41.8898,51.4331 42.9418,52.4841 C43.9598,53.5021 44.5208,54.8571 44.5208,56.2971 C44.5208,57.7381 43.9598,59.0911 42.9418,60.1101 M35.3158,27.7661 C33.2138,25.6641 33.2138,22.2431 35.3158,20.1401 C37.4178,18.0391 40.8388,18.0391 42.9418,20.1401 C43.9598,21.1591 44.5208,22.5131 44.5208,23.9541 C44.5208,25.3941 43.9598,26.7481 42.9418,27.7661 C41.9228,28.7851 40.5688,29.3461 39.1288,29.3461 C37.6888,29.3461 36.3338,28.7851 35.3158,27.7661 M59.8208,35.6051 C57.4478,33.2321 53.6608,33.1251 51.1518,35.2691 L43.9848,28.1021 C44.9758,26.9461 45.5208,25.4931 45.5208,23.9541 C45.5208,22.2471 44.8558,20.6411 43.6488,19.4331 C41.1568,16.9411 37.1008,16.9411 34.6088,19.4331 C32.1168,21.9261 32.1168,25.9811 34.6088,28.4731 C35.8158,29.6811 37.4208,30.3461 39.1288,30.3461 C40.6678,30.3461 42.1218,29.8011 43.2778,28.8101 L50.4448,35.9761 C48.4068,38.3601 48.4068,41.8911 50.4448,44.2741 L43.2768,51.4411 C40.7688,49.2951 36.9818,49.4041 34.6088,51.7771 C32.1168,54.2701 32.1168,58.3251 34.6088,60.8171 C35.8158,62.0251 37.4208,62.6901 39.1288,62.6901 C40.8358,62.6901 42.4418,62.0251 43.6488,60.8171 C44.8558,59.6101 45.5208,58.0041 45.5208,56.2971 C45.5208,54.7581 44.9758,53.3041 43.9848,52.1481 L51.1508,44.9821 C52.3078,45.9731 53.7608,46.5181 55.3008,46.5181 C57.0088,46.5181 58.6138,45.8531 59.8208,44.6451 C62.3128,42.1531 62.3128,38.0981 59.8208,35.6051" id="Fill-4" fill-opacity="0.1" fill="#404A6D"></path>
            </g>
            <g id="Page-1-Copy-2" transform="translate(1198.000000, 302.000000)">
                <mask id="mask-8" fill="white">
                    <use xlink:href="#path-7"></use>
                </mask>
                <g id="Clip-2"></g>
                <path d="M59.6724,44.7998 L59.6724,23.3708 L78.2304,12.6568 L78.2304,34.0858 L59.6724,44.7998 Z M40.1144,78.6778 L40.1144,57.2488 L58.6724,46.5338 L58.6724,67.9628 L40.1144,78.6778 Z M20.5574,46.5338 L39.1144,57.2488 L39.1144,78.6778 L20.5574,67.9628 L20.5574,46.5338 Z M1.0004,12.6568 L19.5574,23.3708 L19.5574,44.7998 L1.0004,34.0858 L1.0004,12.6568 Z M20.0574,1.0768 L38.6144,11.7918 L20.0574,22.5058 L1.5004,11.7918 L20.0574,1.0768 Z M20.5574,23.3708 L39.1144,12.6568 L39.1144,34.0858 L20.5574,44.7998 L20.5574,23.3708 Z M58.6724,44.7998 L40.1144,34.0868 L40.1144,12.6568 L58.6724,23.3708 L58.6724,44.7998 Z M39.6144,56.3838 L21.0544,45.6668 L39.6144,34.9518 L58.1754,45.6668 L39.6144,56.3838 Z M59.1724,1.0768 L77.7304,11.7918 L59.1724,22.5058 L40.6144,11.7918 L59.1724,1.0768 Z M79.2234,11.7688 C79.2204,11.6918 79.2044,11.6138 79.1634,11.5418 C79.1214,11.4698 79.0624,11.4168 78.9964,11.3758 C78.9894,11.3708 78.9864,11.3628 78.9804,11.3598 L59.4224,0.0678 C59.2684,-0.0222 59.0764,-0.0222 58.9224,0.0678 L39.6144,11.2148 L20.3074,0.0678 C20.1534,-0.0222 19.9624,-0.0222 19.8074,0.0678 L0.2504,11.3598 C0.2434,11.3628 0.2404,11.3708 0.2344,11.3748 C0.1684,11.4168 0.1094,11.4698 0.0674,11.5418 C0.0254,11.6138 0.0094,11.6918 0.0064,11.7688 C0.0054,11.7778 0.0004,11.7838 0.0004,11.7918 L0.0004,34.3748 C0.0004,34.5538 0.0954,34.7188 0.2504,34.8078 L19.5574,45.9538 L19.5574,68.2518 C19.5574,68.4308 19.6524,68.5958 19.8074,68.6848 L39.3644,79.9768 C39.3714,79.9808 39.3804,79.9798 39.3874,79.9828 C39.4564,80.0188 39.5314,80.0438 39.6144,80.0438 C39.6984,80.0438 39.7734,80.0188 39.8424,79.9828 C39.8494,79.9798 39.8584,79.9808 39.8644,79.9768 L59.4224,68.6848 C59.5774,68.5958 59.6724,68.4308 59.6724,68.2518 L59.6724,45.9538 L78.9804,34.8078 C79.1344,34.7188 79.2304,34.5538 79.2304,34.3748 L79.2304,11.7918 C79.2304,11.7838 79.2244,11.7778 79.2234,11.7688 Z" id="Fill-1" fill-opacity="0.1" fill="#404A6D" mask="url(#mask-8)"></path>
            </g>
            <g id="Page-1-Copy-3" transform="translate(55.127159, 232.704408) rotate(-345.000000) translate(-55.127159, -232.704408) translate(15.127159, 192.204408)" fill="#404A6D" fill-opacity="0.1">
                <path d="M59.7554879,45.6011939 L59.7554879,24.1721939 L78.3134879,13.4581939 L78.3134879,34.8871939 L59.7554879,45.6011939 Z M40.1974879,79.4791939 L40.1974879,58.0501939 L58.7554879,47.3351939 L58.7554879,68.7641939 L40.1974879,79.4791939 Z M20.6404879,47.3351939 L39.1974879,58.0501939 L39.1974879,79.4791939 L20.6404879,68.7641939 L20.6404879,47.3351939 Z M1.08348788,13.4581939 L19.6404879,24.1721939 L19.6404879,45.6011939 L1.08348788,34.8871939 L1.08348788,13.4581939 Z M20.1404879,1.87819389 L38.6974879,12.5931939 L20.1404879,23.3071939 L1.58348788,12.5931939 L20.1404879,1.87819389 Z M20.6404879,24.1721939 L39.1974879,13.4581939 L39.1974879,34.8871939 L20.6404879,45.6011939 L20.6404879,24.1721939 Z M58.7554879,45.6011939 L40.1974879,34.8881939 L40.1974879,13.4581939 L58.7554879,24.1721939 L58.7554879,45.6011939 Z M39.6974879,57.1851939 L21.1374879,46.4681939 L39.6974879,35.7531939 L58.2584879,46.4681939 L39.6974879,57.1851939 Z M59.2554879,1.87819389 L77.8134879,12.5931939 L59.2554879,23.3071939 L40.6974879,12.5931939 L59.2554879,1.87819389 Z M79.3064879,12.5701939 C79.3034879,12.4931939 79.2874879,12.4151939 79.2464879,12.3431939 C79.2044879,12.2711939 79.1454879,12.2181939 79.0794879,12.1771939 C79.0724879,12.1721939 79.0694879,12.1641939 79.0634879,12.1611939 L59.5054879,0.869193887 C59.3514879,0.779193887 59.1594879,0.779193887 59.0054879,0.869193887 L39.6974879,12.0161939 L20.3904879,0.869193887 C20.2364879,0.779193887 20.0454879,0.779193887 19.8904879,0.869193887 L0.333487879,12.1611939 C0.326487879,12.1641939 0.323487879,12.1721939 0.317487879,12.1761939 C0.251487879,12.2181939 0.192487879,12.2711939 0.150487879,12.3431939 C0.108487879,12.4151939 0.0924878789,12.4931939 0.0894878789,12.5701939 C0.0884878789,12.5791939 0.0834878789,12.5851939 0.0834878789,12.5931939 L0.0834878789,35.1761939 C0.0834878789,35.3551939 0.178487879,35.5201939 0.333487879,35.6091939 L19.6404879,46.7551939 L19.6404879,69.0531939 C19.6404879,69.2321939 19.7354879,69.3971939 19.8904879,69.4861939 L39.4474879,80.7781939 C39.4544879,80.7821939 39.4634879,80.7811939 39.4704879,80.7841939 C39.5394879,80.8201939 39.6144879,80.8451939 39.6974879,80.8451939 C39.7814879,80.8451939 39.8564879,80.8201939 39.9254879,80.7841939 C39.9324879,80.7811939 39.9414879,80.7821939 39.9474879,80.7781939 L59.5054879,69.4861939 C59.6604879,69.3971939 59.7554879,69.2321939 59.7554879,69.0531939 L59.7554879,46.7551939 L79.0634879,35.6091939 C79.2174879,35.5201939 79.3134879,35.3551939 79.3134879,35.1761939 L79.3134879,12.5931939 C79.3134879,12.5851939 79.3074879,12.5791939 79.3064879,12.5701939 Z" id="Fill-1"></path>
            </g>
            <path d="M964.4122,144.8953 C964.0512,145.0313 963.6612,144.9813 963.3392,144.7593 C963.0102,144.5313 962.8222,144.1723 962.8222,143.7753 L962.8212,132.2453 C962.8212,131.0913 962.4042,129.9723 961.6472,129.0933 C961.6092,129.0483 961.6122,129.0093 961.6762,128.9373 C968.9792,126.6973 973.6992,121.3423 973.6992,115.2953 C973.6992,113.3443 973.2102,111.4493 972.2482,109.6633 C972.1122,109.4113 972.0452,109.1343 972.0362,108.7913 C971.9792,106.6633 971.8542,104.3913 971.3242,102.1933 L970.7422,99.8003 C970.7082,99.3943 970.4932,99.0353 970.1502,98.8143 C969.8072,98.5943 969.3922,98.5463 969.0942,98.6633 L966.6202,99.0863 C964.9742,99.3673 963.2242,99.8763 961.2702,100.6433 C960.3362,101.0093 959.6472,101.1213 959.0322,101.0073 C956.1252,100.4663 953.0842,100.4663 950.1772,101.0073 C949.5622,101.1223 948.8712,101.0103 947.9382,100.6433 C945.9842,99.8763 944.2342,99.3673 942.5892,99.0863 L940.1992,98.6853 C939.8172,98.5483 939.4002,98.5953 939.0582,98.8143 C938.7152,99.0353 938.5002,99.3943 938.4792,99.7243 L937.8842,102.1933 C937.3532,104.3953 937.2282,106.6663 937.1722,108.7913 C937.1632,109.1343 937.0962,109.4113 936.9612,109.6633 C935.9982,111.4493 935.5102,113.3443 935.5102,115.2953 C935.5102,121.3423 940.2292,126.6973 947.5912,128.9903 C947.5962,129.0093 947.6002,129.0483 947.5612,129.0933 C946.8042,129.9723 946.3872,131.0913 946.3872,132.2453 L946.3872,134.3073 C945.9862,134.4063 945.5462,134.4523 945.0662,134.4393 C942.6382,134.3853 940.8362,133.2453 939.3932,130.8513 C937.9382,128.4343 935.2762,128.2083 933.9382,128.6323 C933.1392,128.8863 933.0492,129.3173 933.0662,129.5523 C933.1032,130.0573 933.5002,130.4023 934.0012,130.8393 C934.4682,131.2463 935.0482,131.7513 935.6022,132.5623 C935.8422,132.9123 936.1042,133.3843 936.3832,133.8833 C937.4222,135.7473 938.8462,138.3003 941.3972,138.9333 C943.6192,139.4843 945.2932,139.4043 946.3872,139.3113 L946.3872,144.2673 C946.3872,144.6523 946.2072,145.0043 945.8952,145.2333 C945.5912,145.4553 945.2142,145.5183 944.8602,145.4073 C932.0722,141.3563 923.5032,129.1453 924.0222,115.7123 C924.6062,100.6053 936.8702,88.0213 951.9412,87.0633 C952.6032,87.0213 953.2632,87.0003 953.9192,87.0003 C961.5562,87.0003 968.7482,89.8343 974.3522,95.0923 C980.4422,100.8073 983.7952,108.5513 983.7952,116.8983 C983.7952,129.2883 976.0062,140.5393 964.4122,144.8953 M975.0362,94.3633 C968.7472,88.4623 960.5252,85.5153 951.8782,86.0653 C936.3012,87.0563 923.6262,100.0613 923.0232,115.6733 C922.4872,129.5563 931.3422,142.1743 944.5582,146.3603 C944.7742,146.4293 944.9942,146.4623 945.2112,146.4623 C945.6622,146.4623 946.1062,146.3183 946.4862,146.0393 C947.0582,145.6203 947.3872,144.9743 947.3872,144.2673 L947.3872,138.2163 L946.6392,138.2833 C945.6312,138.3773 943.9432,138.5343 941.6382,137.9623 C939.5082,137.4343 938.2602,135.1953 937.2562,133.3963 C936.9672,132.8763 936.6932,132.3853 936.4272,131.9973 C935.8012,131.0813 935.1412,130.5063 934.6582,130.0853 C934.4882,129.9373 934.2732,129.7503 934.1542,129.6153 C934.4282,129.5113 935.0052,129.4043 935.7282,129.5073 C936.5722,129.6293 937.7442,130.0513 938.5372,131.3673 C940.1512,134.0453 942.2792,135.3773 945.0432,135.4393 C945.7752,135.4503 946.4522,135.3603 947.0502,135.1533 L947.3872,135.0373 L947.3872,132.2453 C947.3872,131.3313 947.7182,130.4433 948.3192,129.7463 C948.5682,129.4573 948.6552,129.0703 948.5512,128.7123 C948.4512,128.3633 948.1792,128.0903 947.8262,127.9813 C940.9522,125.8733 936.5102,120.8933 936.5102,115.2953 C936.5102,113.5113 936.9572,111.7763 937.8412,110.1373 C938.0512,109.7483 938.1592,109.3163 938.1722,108.8183 C938.2262,106.7473 938.3482,104.5393 938.8562,102.4283 L939.4642,99.8813 C939.4742,99.7543 939.5532,99.6853 939.5992,99.6553 C939.6442,99.6253 939.7392,99.5813 939.9452,99.6483 L942.4212,100.0713 C943.9982,100.3413 945.6832,100.8323 947.5732,101.5743 C948.3252,101.8703 949.3232,102.1843 950.3592,101.9913 C953.1472,101.4723 956.0632,101.4723 958.8492,101.9913 C959.8842,102.1813 960.8822,101.8693 961.6352,101.5743 C963.5252,100.8323 965.2102,100.3413 966.7882,100.0713 L969.3492,99.6253 C969.4702,99.5833 969.5632,99.6263 969.6092,99.6553 C969.6552,99.6853 969.7342,99.7543 969.7572,99.9583 L970.3522,102.4283 C970.8602,104.5353 970.9812,106.7453 971.0362,108.8183 C971.0492,109.3163 971.1582,109.7483 971.3682,110.1373 C972.2512,111.7763 972.6992,113.5113 972.6992,115.2953 C972.6992,120.8933 968.2572,125.8733 961.3832,127.9813 C961.0292,128.0903 960.7582,128.3633 960.6572,128.7123 C960.5542,129.0703 960.6412,129.4573 960.8902,129.7463 C961.4902,130.4433 961.8212,131.3313 961.8212,132.2453 L961.8222,143.7753 C961.8222,144.4953 962.1762,145.1703 962.7702,145.5813 C963.3562,145.9863 964.1012,146.0823 964.7642,145.8313 C976.7452,141.3303 984.7952,129.7023 984.7952,116.8983 C984.7952,108.3973 981.2382,100.1833 975.0362,94.3633" id="Fill-1" fill-opacity="0.1" fill="#404A6D"></path>
            <path d="M188.4122,375.8953 C188.0512,376.0313 187.6612,375.9813 187.3392,375.7593 C187.0102,375.5313 186.8222,375.1723 186.8222,374.7753 L186.8212,363.2453 C186.8212,362.0913 186.4042,360.9723 185.6472,360.0933 C185.6092,360.0483 185.6122,360.0093 185.6762,359.9373 C192.9792,357.6973 197.6992,352.3423 197.6992,346.2953 C197.6992,344.3443 197.2102,342.4493 196.2482,340.6633 C196.1122,340.4113 196.0452,340.1343 196.0362,339.7913 C195.9792,337.6633 195.8542,335.3913 195.3242,333.1933 L194.7422,330.8003 C194.7082,330.3943 194.4932,330.0353 194.1502,329.8143 C193.8072,329.5943 193.3922,329.5463 193.0942,329.6633 L190.6202,330.0863 C188.9742,330.3673 187.2242,330.8763 185.2702,331.6433 C184.3362,332.0093 183.6472,332.1213 183.0322,332.0073 C180.1252,331.4663 177.0842,331.4663 174.1772,332.0073 C173.5622,332.1223 172.8712,332.0103 171.9382,331.6433 C169.9842,330.8763 168.2342,330.3673 166.5892,330.0863 L164.1992,329.6853 C163.8172,329.5483 163.4002,329.5953 163.0582,329.8143 C162.7152,330.0353 162.5002,330.3943 162.4792,330.7243 L161.8842,333.1933 C161.3532,335.3953 161.2282,337.6663 161.1722,339.7913 C161.1632,340.1343 161.0962,340.4113 160.9612,340.6633 C159.9982,342.4493 159.5102,344.3443 159.5102,346.2953 C159.5102,352.3423 164.2292,357.6973 171.5912,359.9903 C171.5962,360.0093 171.6002,360.0483 171.5612,360.0933 C170.8042,360.9723 170.3872,362.0913 170.3872,363.2453 L170.3872,365.3073 C169.9862,365.4063 169.5462,365.4523 169.0662,365.4393 C166.6382,365.3853 164.8362,364.2453 163.3932,361.8513 C161.9382,359.4343 159.2762,359.2083 157.9382,359.6323 C157.1392,359.8863 157.0492,360.3173 157.0662,360.5523 C157.1032,361.0573 157.5002,361.4023 158.0012,361.8393 C158.4682,362.2463 159.0482,362.7513 159.6022,363.5623 C159.8422,363.9123 160.1042,364.3843 160.3832,364.8833 C161.4222,366.7473 162.8462,369.3003 165.3972,369.9333 C167.6192,370.4843 169.2932,370.4043 170.3872,370.3113 L170.3872,375.2673 C170.3872,375.6523 170.2072,376.0043 169.8952,376.2333 C169.5912,376.4553 169.2142,376.5183 168.8602,376.4073 C156.0722,372.3563 147.5032,360.1453 148.0222,346.7123 C148.6062,331.6053 160.8702,319.0213 175.9412,318.0633 C176.6032,318.0213 177.2632,318.0003 177.9192,318.0003 C185.5562,318.0003 192.7482,320.8343 198.3522,326.0923 C204.4422,331.8073 207.7952,339.5513 207.7952,347.8983 C207.7952,360.2883 200.0062,371.5393 188.4122,375.8953 M199.0362,325.3633 C192.7472,319.4623 184.5252,316.5153 175.8782,317.0653 C160.3012,318.0563 147.6262,331.0613 147.0232,346.6733 C146.4872,360.5563 155.3422,373.1743 168.5582,377.3603 C168.7742,377.4293 168.9942,377.4623 169.2112,377.4623 C169.6622,377.4623 170.1062,377.3183 170.4862,377.0393 C171.0582,376.6203 171.3872,375.9743 171.3872,375.2673 L171.3872,369.2163 L170.6392,369.2833 C169.6312,369.3773 167.9432,369.5343 165.6382,368.9623 C163.5082,368.4343 162.2602,366.1953 161.2562,364.3963 C160.9672,363.8763 160.6932,363.3853 160.4272,362.9973 C159.8012,362.0813 159.1412,361.5063 158.6582,361.0853 C158.4882,360.9373 158.2732,360.7503 158.1542,360.6153 C158.4282,360.5113 159.0052,360.4043 159.7282,360.5073 C160.5722,360.6293 161.7442,361.0513 162.5372,362.3673 C164.1512,365.0453 166.2792,366.3773 169.0432,366.4393 C169.7752,366.4503 170.4522,366.3603 171.0502,366.1533 L171.3872,366.0373 L171.3872,363.2453 C171.3872,362.3313 171.7182,361.4433 172.3192,360.7463 C172.5682,360.4573 172.6552,360.0703 172.5512,359.7123 C172.4512,359.3633 172.1792,359.0903 171.8262,358.9813 C164.9522,356.8733 160.5102,351.8933 160.5102,346.2953 C160.5102,344.5113 160.9572,342.7763 161.8412,341.1373 C162.0512,340.7483 162.1592,340.3163 162.1722,339.8183 C162.2262,337.7473 162.3482,335.5393 162.8562,333.4283 L163.4642,330.8813 C163.4742,330.7543 163.5532,330.6853 163.5992,330.6553 C163.6442,330.6253 163.7392,330.5813 163.9452,330.6483 L166.4212,331.0713 C167.9982,331.3413 169.6832,331.8323 171.5732,332.5743 C172.3252,332.8703 173.3232,333.1843 174.3592,332.9913 C177.1472,332.4723 180.0632,332.4723 182.8492,332.9913 C183.8842,333.1813 184.8822,332.8693 185.6352,332.5743 C187.5252,331.8323 189.2102,331.3413 190.7882,331.0713 L193.3492,330.6253 C193.4702,330.5833 193.5632,330.6263 193.6092,330.6553 C193.6552,330.6853 193.7342,330.7543 193.7572,330.9583 L194.3522,333.4283 C194.8602,335.5353 194.9812,337.7453 195.0362,339.8183 C195.0492,340.3163 195.1582,340.7483 195.3682,341.1373 C196.2512,342.7763 196.6992,344.5113 196.6992,346.2953 C196.6992,351.8933 192.2572,356.8733 185.3832,358.9813 C185.0292,359.0903 184.7582,359.3633 184.6572,359.7123 C184.5542,360.0703 184.6412,360.4573 184.8902,360.7463 C185.4902,361.4433 185.8212,362.3313 185.8212,363.2453 L185.8222,374.7753 C185.8222,375.4953 186.1762,376.1703 186.7702,376.5813 C187.3562,376.9863 188.1012,377.0823 188.7642,376.8313 C200.7452,372.3303 208.7952,360.7023 208.7952,347.8983 C208.7952,339.3973 205.2382,331.1833 199.0362,325.3633" id="Fill-1" fill-opacity="0.1" fill="#404A6D"></path>
            <g id="Page-1-Copy-16" transform="translate(1221.000000, 59.000000)" fill="#404A6D" fill-opacity="0.1">
                <path d="M3.8945,3.1875 L6.2285,0.8535 C6.4235,0.6585 6.4235,0.3415 6.2285,0.1465 C6.0335,-0.0485 5.7165,-0.0485 5.5215,0.1465 L3.1875,2.4805 L0.8535,0.1465 C0.6585,-0.0485 0.3415,-0.0485 0.1465,0.1465 C-0.0485,0.3415 -0.0485,0.6585 0.1465,0.8535 L2.4805,3.1875 L0.1465,5.5215 C-0.0485,5.7165 -0.0485,6.0335 0.1465,6.2285 C0.2445,6.3265 0.3725,6.3755 0.4995,6.3755 C0.6275,6.3755 0.7555,6.3265 0.8535,6.2285 L3.1875,3.8945 L5.5215,6.2285 C5.6195,6.3265 5.7475,6.3755 5.8745,6.3755 C6.0025,6.3755 6.1305,6.3265 6.2285,6.2285 C6.4235,6.0335 6.4235,5.7165 6.2285,5.5215 L3.8945,3.1875 Z" id="Fill-1"></path>
            </g>
            <g id="Page-1-Copy-21" transform="translate(67.000000, 138.000000)">
                <mask id="mask-10" fill="white">
                    <use xlink:href="#path-9"></use>
                </mask>
                <g id="Clip-2"></g>
                <path d="M3.8945,3.1875 L6.2285,0.8535 C6.4235,0.6585 6.4235,0.3415 6.2285,0.1465 C6.0335,-0.0485 5.7165,-0.0485 5.5215,0.1465 L3.1875,2.4805 L0.8535,0.1465 C0.6585,-0.0485 0.3415,-0.0485 0.1465,0.1465 C-0.0485,0.3415 -0.0485,0.6585 0.1465,0.8535 L2.4805,3.1875 L0.1465,5.5215 C-0.0485,5.7165 -0.0485,6.0335 0.1465,6.2285 C0.2445,6.3265 0.3725,6.3755 0.4995,6.3755 C0.6275,6.3755 0.7555,6.3265 0.8535,6.2285 L3.1875,3.8945 L5.5215,6.2285 C5.6195,6.3265 5.7475,6.3755 5.8745,6.3755 C6.0025,6.3755 6.1305,6.3265 6.2285,6.2285 C6.4235,6.0335 6.4235,5.7165 6.2285,5.5215 L3.8945,3.1875 Z" id="Fill-1" fill-opacity="0.1" fill="#404A6D" mask="url(#mask-10)"></path>
            </g>
            <g id="Page-1-Copy-17" transform="translate(862.000000, 35.000000)">
                <mask id="mask-12" fill="white">
                    <use xlink:href="#path-11"></use>
                </mask>
                <g id="Clip-2"></g>
                <path d="M3.8945,3.1875 L6.2285,0.8535 C6.4235,0.6585 6.4235,0.3415 6.2285,0.1465 C6.0335,-0.0485 5.7165,-0.0485 5.5215,0.1465 L3.1875,2.4805 L0.8535,0.1465 C0.6585,-0.0485 0.3415,-0.0485 0.1465,0.1465 C-0.0485,0.3415 -0.0485,0.6585 0.1465,0.8535 L2.4805,3.1875 L0.1465,5.5215 C-0.0485,5.7165 -0.0485,6.0335 0.1465,6.2285 C0.2445,6.3265 0.3725,6.3755 0.4995,6.3755 C0.6275,6.3755 0.7555,6.3265 0.8535,6.2285 L3.1875,3.8945 L5.5215,6.2285 C5.6195,6.3265 5.7475,6.3755 5.8745,6.3755 C6.0025,6.3755 6.1305,6.3265 6.2285,6.2285 C6.4235,6.0335 6.4235,5.7165 6.2285,5.5215 L3.8945,3.1875 Z" id="Fill-1" fill-opacity="0.1" fill="#404A6D" mask="url(#mask-12)"></path>
            </g>
            <g id="Page-1-Copy-18" transform="translate(23.000000, 43.000000)">
                <mask id="mask-14" fill="white">
                    <use xlink:href="#path-13"></use>
                </mask>
                <g id="Clip-2"></g>
                <path d="M3.8945,3.1875 L6.2285,0.8535 C6.4235,0.6585 6.4235,0.3415 6.2285,0.1465 C6.0335,-0.0485 5.7165,-0.0485 5.5215,0.1465 L3.1875,2.4805 L0.8535,0.1465 C0.6585,-0.0485 0.3415,-0.0485 0.1465,0.1465 C-0.0485,0.3415 -0.0485,0.6585 0.1465,0.8535 L2.4805,3.1875 L0.1465,5.5215 C-0.0485,5.7165 -0.0485,6.0335 0.1465,6.2285 C0.2445,6.3265 0.3725,6.3755 0.4995,6.3755 C0.6275,6.3755 0.7555,6.3265 0.8535,6.2285 L3.1875,3.8945 L5.5215,6.2285 C5.6195,6.3265 5.7475,6.3755 5.8745,6.3755 C6.0025,6.3755 6.1305,6.3265 6.2285,6.2285 C6.4235,6.0335 6.4235,5.7165 6.2285,5.5215 L3.8945,3.1875 Z" id="Fill-1" fill-opacity="0.1" fill="#404A6D" mask="url(#mask-14)"></path>
            </g>
            <g id="Page-1-Copy-19" transform="translate(1162.000000, 162.000000)" fill="#404A6D" fill-opacity="0.1">
                <path d="M3.8945,3.1875 L6.2285,0.8535 C6.4235,0.6585 6.4235,0.3415 6.2285,0.1465 C6.0335,-0.0485 5.7165,-0.0485 5.5215,0.1465 L3.1875,2.4805 L0.8535,0.1465 C0.6585,-0.0485 0.3415,-0.0485 0.1465,0.1465 C-0.0485,0.3415 -0.0485,0.6585 0.1465,0.8535 L2.4805,3.1875 L0.1465,5.5215 C-0.0485,5.7165 -0.0485,6.0335 0.1465,6.2285 C0.2445,6.3265 0.3725,6.3755 0.4995,6.3755 C0.6275,6.3755 0.7555,6.3265 0.8535,6.2285 L3.1875,3.8945 L5.5215,6.2285 C5.6195,6.3265 5.7475,6.3755 5.8745,6.3755 C6.0025,6.3755 6.1305,6.3265 6.2285,6.2285 C6.4235,6.0335 6.4235,5.7165 6.2285,5.5215 L3.8945,3.1875 Z" id="Fill-1"></path>
            </g>
            <g id="Page-1-Copy-20" transform="translate(1208.000000, 226.000000)" fill="#404A6D" fill-opacity="0.1">
                <path d="M3.8945,3.1875 L6.2285,0.8535 C6.4235,0.6585 6.4235,0.3415 6.2285,0.1465 C6.0335,-0.0485 5.7165,-0.0485 5.5215,0.1465 L3.1875,2.4805 L0.8535,0.1465 C0.6585,-0.0485 0.3415,-0.0485 0.1465,0.1465 C-0.0485,0.3415 -0.0485,0.6585 0.1465,0.8535 L2.4805,3.1875 L0.1465,5.5215 C-0.0485,5.7165 -0.0485,6.0335 0.1465,6.2285 C0.2445,6.3265 0.3725,6.3755 0.4995,6.3755 C0.6275,6.3755 0.7555,6.3265 0.8535,6.2285 L3.1875,3.8945 L5.5215,6.2285 C5.6195,6.3265 5.7475,6.3755 5.8745,6.3755 C6.0025,6.3755 6.1305,6.3265 6.2285,6.2285 C6.4235,6.0335 6.4235,5.7165 6.2285,5.5215 L3.8945,3.1875 Z" id="Fill-1"></path>
            </g>
            <g id="Page-1" transform="translate(1110.000000, 277.000000)">
                <mask id="mask-16" fill="white">
                    <use xlink:href="#path-15"></use>
                </mask>
                <g id="Clip-2"></g>
                <path d="M3.4277,5.85645 C2.0887,5.85645 0.9997,4.76645 0.9997,3.42745 C0.9997,2.08845 2.0887,1.00045 3.4277,1.00045 C4.7667,1.00045 5.8557,2.08845 5.8557,3.42745 C5.8557,4.76645 4.7667,5.85645 3.4277,5.85645 M3.4277,0.00045 C1.5377,0.00045 -0.0003,1.53845 -0.0003,3.42745 C-0.0003,5.31845 1.5377,6.85645 3.4277,6.85645 C5.3177,6.85645 6.8557,5.31845 6.8557,3.42745 C6.8557,1.53845 5.3177,0.00045 3.4277,0.00045" id="Fill-1" fill-opacity="0.1" fill="#404A6D" mask="url(#mask-16)"></path>
            </g>
            <g id="Page-1-Copy" transform="translate(1100.000000, 157.000000)" fill="#404A6D" fill-opacity="0.1">
                <path d="M3.4277,5.85645 C2.0887,5.85645 0.9997,4.76645 0.9997,3.42745 C0.9997,2.08845 2.0887,1.00045 3.4277,1.00045 C4.7667,1.00045 5.8557,2.08845 5.8557,3.42745 C5.8557,4.76645 4.7667,5.85645 3.4277,5.85645 M3.4277,0.00045 C1.5377,0.00045 -0.0003,1.53845 -0.0003,3.42745 C-0.0003,5.31845 1.5377,6.85645 3.4277,6.85645 C5.3177,6.85645 6.8557,5.31845 6.8557,3.42745 C6.8557,1.53845 5.3177,0.00045 3.4277,0.00045" id="Fill-1"></path>
            </g>
            <g id="Page-1-Copy-4" transform="translate(130.000000, 167.000000)">
                <mask id="mask-18" fill="white">
                    <use xlink:href="#path-17"></use>
                </mask>
                <g id="Clip-2"></g>
                <path d="M3.4277,5.85645 C2.0887,5.85645 0.9997,4.76645 0.9997,3.42745 C0.9997,2.08845 2.0887,1.00045 3.4277,1.00045 C4.7667,1.00045 5.8557,2.08845 5.8557,3.42745 C5.8557,4.76645 4.7667,5.85645 3.4277,5.85645 M3.4277,0.00045 C1.5377,0.00045 -0.0003,1.53845 -0.0003,3.42745 C-0.0003,5.31845 1.5377,6.85645 3.4277,6.85645 C5.3177,6.85645 6.8557,5.31845 6.8557,3.42745 C6.8557,1.53845 5.3177,0.00045 3.4277,0.00045" id="Fill-1" fill-opacity="0.1" fill="#404A6D" mask="url(#mask-18)"></path>
            </g>
            <path d="M178.52275,45.634 C172.55875,45.634 167.70575,40.781 167.70575,34.817 C167.70575,28.852 172.55875,24 178.52275,24 C184.48675,24 189.33975,28.852 189.33975,34.817 C189.33975,40.781 184.48675,45.634 178.52275,45.634 M168.15575,48.542 L161.50475,55.194 C161.31475,55.384 160.98675,55.384 160.79775,55.194 L158.14575,52.542 C157.95075,52.347 157.95075,52.03 158.14575,51.835 L164.79775,45.184 C164.89175,45.089 165.01675,45.037 165.15075,45.037 C165.28375,45.037 165.40975,45.089 165.50375,45.184 L168.15575,47.835 C168.35075,48.03 168.35075,48.347 168.15575,48.542 M178.52275,23 C172.00675,23 166.70575,28.301 166.70575,34.817 C166.70575,37.895 167.89875,40.694 169.83475,42.799 L167.18375,45.449 L166.21075,44.477 C165.64475,43.909 164.65575,43.911 164.08975,44.477 L157.43875,51.128 C156.85375,51.713 156.85375,52.664 157.43875,53.249 L160.08975,55.901 C160.37375,56.184 160.75075,56.34 161.15075,56.34 C161.55175,56.34 161.92875,56.184 162.21175,55.901 L168.86275,49.249 C169.44775,48.664 169.44775,47.713 168.86275,47.128 L167.89075,46.156 L170.54175,43.506 C172.64675,45.442 175.44475,46.634 178.52275,46.634 C185.03875,46.634 190.33975,41.333 190.33975,34.817 C190.33975,28.301 185.03875,23 178.52275,23" id="Fill-1" fill-opacity="0.1" fill="#404A6D"></path>
            <path d="M108.52275,465.634 C102.55875,465.634 97.70575,460.781 97.70575,454.817 C97.70575,448.852 102.55875,444 108.52275,444 C114.48675,444 119.33975,448.852 119.33975,454.817 C119.33975,460.781 114.48675,465.634 108.52275,465.634 M98.15575,468.542 L91.50475,475.194 C91.31475,475.384 90.98675,475.384 90.79775,475.194 L88.14575,472.542 C87.95075,472.347 87.95075,472.03 88.14575,471.835 L94.79775,465.184 C94.89175,465.089 95.01675,465.037 95.15075,465.037 C95.28375,465.037 95.40975,465.089 95.50375,465.184 L98.15575,467.835 C98.35075,468.03 98.35075,468.347 98.15575,468.542 M108.52275,443 C102.00675,443 96.70575,448.301 96.70575,454.817 C96.70575,457.895 97.89875,460.694 99.83475,462.799 L97.18375,465.449 L96.21075,464.477 C95.64475,463.909 94.65575,463.911 94.08975,464.477 L87.43875,471.128 C86.85375,471.713 86.85375,472.664 87.43875,473.249 L90.08975,475.901 C90.37375,476.184 90.75075,476.34 91.15075,476.34 C91.55175,476.34 91.92875,476.184 92.21175,475.901 L98.86275,469.249 C99.44775,468.664 99.44775,467.713 98.86275,467.128 L97.89075,466.156 L100.54175,463.506 C102.64675,465.442 105.44475,466.634 108.52275,466.634 C115.03875,466.634 120.33975,461.333 120.33975,454.817 C120.33975,448.301 115.03875,443 108.52275,443" id="Fill-1-Copy" fill-opacity="0.1" fill="#404A6D" transform="translate(103.669875, 459.670000) rotate(-90.000000) translate(-103.669875, -459.670000) "></path>
            <path d="M1198.52275,495.634 C1192.55875,495.634 1187.70575,490.781 1187.70575,484.817 C1187.70575,478.852 1192.55875,474 1198.52275,474 C1204.48675,474 1209.33975,478.852 1209.33975,484.817 C1209.33975,490.781 1204.48675,495.634 1198.52275,495.634 M1188.15575,498.542 L1181.50475,505.194 C1181.31475,505.384 1180.98675,505.384 1180.79775,505.194 L1178.14575,502.542 C1177.95075,502.347 1177.95075,502.03 1178.14575,501.835 L1184.79775,495.184 C1184.89175,495.089 1185.01675,495.037 1185.15075,495.037 C1185.28375,495.037 1185.40975,495.089 1185.50375,495.184 L1188.15575,497.835 C1188.35075,498.03 1188.35075,498.347 1188.15575,498.542 M1198.52275,473 C1192.00675,473 1186.70575,478.301 1186.70575,484.817 C1186.70575,487.895 1187.89875,490.694 1189.83475,492.799 L1187.18375,495.449 L1186.21075,494.477 C1185.64475,493.909 1184.65575,493.911 1184.08975,494.477 L1177.43875,501.128 C1176.85375,501.713 1176.85375,502.664 1177.43875,503.249 L1180.08975,505.901 C1180.37375,506.184 1180.75075,506.34 1181.15075,506.34 C1181.55175,506.34 1181.92875,506.184 1182.21175,505.901 L1188.86275,499.249 C1189.44775,498.664 1189.44775,497.713 1188.86275,497.128 L1187.89075,496.156 L1190.54175,493.506 C1192.64675,495.442 1195.44475,496.634 1198.52275,496.634 C1205.03875,496.634 1210.33975,491.333 1210.33975,484.817 C1210.33975,478.301 1205.03875,473 1198.52275,473" id="Fill-1-Copy-2" fill-opacity="0.1" fill="#404A6D" transform="translate(1193.669875, 489.670000) rotate(-90.000000) translate(-1193.669875, -489.670000) "></path>
        </g>
    </g>
</svg>