<?xml version="1.0" encoding="utf-8"?>
<!-- Generator: Adobe Illustrator 22.0.1, SVG Export Plug-In . SVG Version: 6.00 Build 0)  -->
<svg version="1.1" id="Layer_1" xmlns="http://www.w3.org/2000/svg" xmlns:xlink="http://www.w3.org/1999/xlink" x="0px" y="0px"
	 viewBox="0 0 864 198" style="enable-background:new 0 0 864 198;" xml:space="preserve">
<style type="text/css">
	.st0{fill:none;stroke:#D1ECFF;stroke-width:4;}
	.st1{fill:#59EAE3;}
	.st2{fill:#D1ECFF;}
	.st3{fill:#D8EDFE;}
	.st4{fill:none;stroke:#00FFCE;stroke-width:4;}
	.st5{fill:none;stroke:url(#Path-14_1_);stroke-width:4;}
	.st6{fill:none;stroke:url(#Path-14-Copy_1_);stroke-width:4;}
</style>
<title>arrows</title>
<desc>Created with Sketch.</desc>
<g id="_x38_.-How-It-Works" transform="translate(-289.000000, -2235.000000)">
	<g id="arrows" transform="translate(289.000000, 2235.000000)">
		<circle id="Oval-2-Copy-4" class="st0" cx="33" cy="33" r="11"/>
		<path id="Shape-Copy-3" class="st1" d="M33.5,65.7c0-0.3,0.3-0.6,0.6-0.7c0.3,0,0.6,0.3,0.7,0.6c0,0.3-0.3,0.6-0.6,0.7l0,0
			C33.8,66.3,33.5,66.1,33.5,65.7z M29.9,66.2c-0.3-0.1-0.6-0.3-0.6-0.7c0.1-0.3,0.3-0.6,0.7-0.6c0.3,0.1,0.6,0.3,0.6,0.7
			C30.5,66,30.3,66.2,29.9,66.2C30,66.2,30,66.2,29.9,66.2z M37.7,65.4c-0.1-0.3,0.2-0.7,0.5-0.7c0.3-0.1,0.7,0.2,0.7,0.5
			c0.1,0.3-0.2,0.7-0.5,0.7c-0.1,0-0.1,0-0.1,0C38,65.9,37.7,65.7,37.7,65.4z M25.7,65.5c-0.3-0.1-0.6-0.4-0.5-0.7
			c0.1-0.3,0.4-0.6,0.7-0.5c0.3,0.1,0.6,0.4,0.5,0.7c-0.1,0.3-0.3,0.5-0.6,0.5C25.8,65.5,25.8,65.5,25.7,65.5z M41.8,64.5
			c-0.1-0.3,0.1-0.7,0.5-0.8c0.3-0.1,0.7,0.1,0.8,0.5c0.1,0.3-0.1,0.7-0.5,0.8c-0.1,0-0.1,0-0.2,0C42.1,65,41.8,64.8,41.8,64.5z
			 M21.6,64.3c-0.3-0.1-0.5-0.5-0.4-0.8c0.1-0.3,0.5-0.5,0.8-0.4c0.3,0.1,0.5,0.5,0.4,0.8s-0.3,0.4-0.6,0.4
			C21.8,64.3,21.8,64.3,21.6,64.3z M45.7,63.2c-0.2-0.3,0-0.7,0.3-0.8c0.3-0.2,0.7,0,0.8,0.3c0.2,0.3,0,0.7-0.3,0.8
			c-0.1,0.1-0.2,0.1-0.3,0.1C46,63.5,45.8,63.4,45.7,63.2z M17.8,62.6c-0.3-0.2-0.5-0.6-0.3-0.8c0.2-0.3,0.6-0.5,0.8-0.3
			c0.3,0.2,0.5,0.6,0.3,0.8c-0.1,0.2-0.3,0.3-0.6,0.3C18,62.7,17.9,62.6,17.8,62.6z M49.4,61.3c-0.2-0.3-0.1-0.7,0.2-0.8
			c0.3-0.2,0.7-0.1,0.8,0.2c0.2,0.3,0.1,0.7-0.2,0.8c-0.1,0.1-0.2,0.1-0.3,0.1C49.7,61.6,49.5,61.5,49.4,61.3z M14.1,60.4
			c-0.3-0.2-0.3-0.6-0.2-0.9c0.2-0.3,0.6-0.3,0.9-0.2c0.3,0.2,0.3,0.6,0.2,0.9c-0.1,0.2-0.3,0.3-0.5,0.3S14.2,60.5,14.1,60.4z
			 M52.8,59c-0.2-0.3-0.2-0.7,0.1-0.9c0.3-0.2,0.7-0.2,0.9,0.1c0.2,0.3,0.2,0.7-0.1,0.9c-0.1,0.1-0.2,0.1-0.4,0.1
			C53.2,59.2,53,59.2,52.8,59z M10.9,57.8c-0.3-0.2-0.3-0.6-0.1-0.9c0.2-0.3,0.6-0.3,0.9-0.1s0.3,0.6,0.1,0.9
			c-0.1,0.1-0.3,0.2-0.5,0.2C11.1,57.9,11,57.8,10.9,57.8z M56,56.2c-0.2-0.2-0.3-0.6,0-0.9c0.2-0.2,0.6-0.3,0.9,0
			c0.2,0.2,0.3,0.6,0,0.9c-0.1,0.1-0.3,0.2-0.5,0.2C56.3,56.4,56.1,56.4,56,56.2z M7.9,54.7c-0.2-0.3-0.2-0.7,0.1-0.9
			c0.3-0.2,0.7-0.2,0.9,0.1C9,54.1,9,54.5,8.8,54.8c-0.1,0.1-0.3,0.2-0.4,0.2C8.2,54.9,8,54.8,7.9,54.7z M58.8,53.1
			c-0.3-0.2-0.3-0.6-0.1-0.9c0.2-0.3,0.6-0.3,0.9-0.1c0.3,0.2,0.3,0.6,0.1,0.9c-0.1,0.2-0.3,0.2-0.5,0.2
			C59,53.2,58.9,53.2,58.8,53.1z M5.3,51.3c-0.2-0.3-0.1-0.7,0.2-0.8c0.3-0.2,0.7-0.1,0.8,0.2s0.1,0.7-0.2,0.8
			c-0.1,0.1-0.2,0.1-0.3,0.1C5.7,51.6,5.4,51.5,5.3,51.3z M61.1,49.7c-0.3-0.2-0.4-0.6-0.2-0.8c0.2-0.3,0.6-0.4,0.8-0.2
			c0.3,0.2,0.4,0.6,0.2,0.8c-0.1,0.2-0.3,0.3-0.6,0.3C61.3,49.8,61.2,49.7,61.1,49.7z M3.2,47.6c-0.2-0.3,0-0.7,0.3-0.8
			c0.3-0.2,0.7,0,0.8,0.3c0.2,0.3,0,0.7-0.3,0.8c-0.1,0.1-0.2,0.1-0.3,0.1C3.6,47.9,3.3,47.8,3.2,47.6z M63,46
			c-0.3-0.1-0.5-0.5-0.3-0.8c0.1-0.3,0.5-0.5,0.8-0.3s0.5,0.5,0.3,0.8c-0.1,0.2-0.3,0.4-0.6,0.4C63.1,46,63.1,46,63,46z M1.6,43.7
			C1.5,43.4,1.7,43,2,42.9c0.3-0.1,0.7,0.1,0.8,0.4S2.8,44,2.4,44.1c-0.1,0-0.1,0.1-0.2,0.1C2,44.1,1.8,43.9,1.6,43.7z M64.4,42.1
			c-0.3-0.1-0.6-0.5-0.5-0.8s0.5-0.6,0.8-0.5c0.3,0.1,0.6,0.5,0.5,0.8c-0.1,0.3-0.3,0.5-0.6,0.5C64.5,42.1,64.4,42.1,64.4,42.1z
			 M0.6,39.6L0.6,39.6c-0.1-0.3,0.2-0.7,0.5-0.7c0.3-0.1,0.7,0.2,0.7,0.5S1.6,40,1.3,40.1c-0.1,0-0.1,0-0.1,0
			C0.9,40.1,0.6,39.8,0.6,39.6z M65.3,38c-0.3-0.1-0.6-0.3-0.6-0.7c0.1-0.3,0.3-0.6,0.7-0.6c0.3,0.1,0.6,0.3,0.6,0.7
			C66,37.8,65.7,38,65.4,38C65.3,38,65.3,38,65.3,38z M0,35.3L0,35.3c0-0.3,0.2-0.6,0.6-0.7c0.3,0,0.6,0.2,0.7,0.6
			c0,0.3-0.2,0.6-0.6,0.7H0.6C0.3,35.9,0.1,35.7,0,35.3z M64.9,33.2L64.9,33.2C64.9,33.1,64.9,33.1,64.9,33.2c0-0.4,0.3-0.7,0.6-0.7
			c0.3,0,0.6,0.3,0.6,0.6c0,0,0,0,0,0.1c0,0,0,0,0,0.1c0,0.3-0.3,0.6-0.6,0.6C65.2,33.8,64.9,33.5,64.9,33.2z M0.6,31.8
			c-0.3,0-0.6-0.3-0.6-0.7c0-0.3,0.3-0.6,0.7-0.6c0.3,0,0.6,0.3,0.6,0.7C1.2,31.5,1,31.8,0.6,31.8L0.6,31.8z M64.7,29.1
			c-0.1-0.3,0.2-0.7,0.6-0.7c0.3-0.1,0.7,0.2,0.7,0.6c0.1,0.3-0.2,0.7-0.6,0.7h-0.1C65,29.6,64.7,29.4,64.7,29.1z M1,27.6
			c-0.3-0.1-0.6-0.4-0.5-0.7l0,0c0.1-0.3,0.4-0.6,0.7-0.5c0.3,0.1,0.6,0.4,0.5,0.7c-0.1,0.3-0.3,0.5-0.6,0.5
			C1.1,27.6,1.1,27.6,1,27.6z M63.9,25c-0.1-0.3,0.1-0.7,0.5-0.8c0.3-0.1,0.7,0.1,0.8,0.5s-0.1,0.7-0.5,0.8c-0.1,0-0.1,0-0.2,0
			C64.3,25.5,64,25.3,63.9,25z M2,23.6c-0.3-0.1-0.5-0.5-0.4-0.8c0.1-0.3,0.5-0.5,0.8-0.4c0.3,0.1,0.5,0.5,0.4,0.8
			c-0.1,0.3-0.3,0.5-0.6,0.5C2.1,23.6,2.1,23.6,2,23.6z M62.6,21.1c-0.1-0.3,0-0.7,0.3-0.8c0.3-0.1,0.7,0,0.8,0.3l0,0
			c0.1,0.3,0,0.7-0.3,0.8c-0.1,0.1-0.2,0.1-0.2,0.1C63,21.5,62.7,21.4,62.6,21.1z M3.5,19.7c-0.3-0.2-0.5-0.5-0.3-0.8
			s0.5-0.5,0.8-0.3s0.5,0.5,0.3,0.8c-0.1,0.2-0.3,0.3-0.6,0.3C3.7,19.7,3.6,19.7,3.5,19.7z M60.8,17.5c-0.2-0.3-0.1-0.7,0.2-0.8
			c0.3-0.2,0.7-0.1,0.8,0.2c0.2,0.3,0.1,0.7-0.2,0.8c-0.1,0.1-0.2,0.1-0.3,0.1C61.2,17.8,61,17.7,60.8,17.5z M5.5,16
			c-0.3-0.2-0.4-0.6-0.2-0.8c0.2-0.3,0.6-0.4,0.8-0.2c0.3,0.2,0.4,0.6,0.2,0.8C6.2,16,6,16.1,5.8,16.1C5.7,16.1,5.6,16.1,5.5,16z
			 M58.6,14.1c-0.2-0.3-0.2-0.7,0.1-0.9c0.3-0.2,0.7-0.2,0.9,0.1c0.2,0.3,0.2,0.7-0.1,0.9c-0.1,0.1-0.2,0.1-0.4,0.1
			C58.9,14.4,58.7,14.2,58.6,14.1z M7.9,12.6c-0.3-0.2-0.3-0.6-0.1-0.9c0.2-0.3,0.6-0.3,0.9-0.1C9,11.9,9,12.3,8.8,12.5
			c-0.1,0.2-0.3,0.2-0.5,0.2C8.1,12.8,8,12.7,7.9,12.6z M56,11c-0.2-0.2-0.2-0.6,0-0.9c0.2-0.2,0.7-0.2,0.9,0l0,0
			c0.2,0.2,0.2,0.7,0,0.9c-0.1,0.1-0.3,0.2-0.5,0.2C56.2,11.2,56.1,11.1,56,11z M10.7,9.6c-0.2-0.3-0.2-0.7,0.1-0.9s0.7-0.2,0.9,0.1
			c0.2,0.3,0.2,0.7-0.1,0.9c-0.1,0.1-0.3,0.2-0.5,0.2S10.9,9.7,10.7,9.6z M52.9,8.3c-0.3-0.2-0.3-0.6-0.1-0.9
			C53,7.1,53.4,7,53.7,7.2s0.3,0.6,0.1,0.9c-0.1,0.2-0.3,0.2-0.5,0.2C53.2,8.4,53,8.3,52.9,8.3z M14,6.9c-0.2-0.3-0.1-0.7,0.2-0.9
			s0.7-0.1,0.9,0.2c0.2,0.3,0.1,0.7-0.2,0.9c-0.1,0.1-0.2,0.1-0.3,0.1C14.2,7.2,14.1,7.1,14,6.9z M49.6,5.9
			c-0.3-0.2-0.4-0.6-0.2-0.8c0.2-0.3,0.6-0.4,0.8-0.2s0.4,0.6,0.2,0.8c-0.1,0.2-0.3,0.3-0.6,0.3C49.8,6,49.7,5.9,49.6,5.9z
			 M17.5,4.7c-0.2-0.3-0.1-0.7,0.3-0.8c0.3-0.2,0.7-0.1,0.8,0.3c0.2,0.3,0.1,0.7-0.3,0.8C18.2,5,18.1,5,18,5
			C17.8,5,17.6,4.9,17.5,4.7z M46,4c-0.3-0.1-0.5-0.5-0.3-0.8c0.2-0.3,0.5-0.5,0.8-0.3s0.5,0.5,0.3,0.8c-0.1,0.2-0.3,0.4-0.6,0.4
			C46.1,4.1,46,4.1,46,4z M21.2,2.9c-0.1-0.3,0.1-0.7,0.4-0.8c0.3-0.1,0.7,0.1,0.8,0.4c0.1,0.3-0.1,0.7-0.4,0.8
			c-0.1,0-0.2,0.1-0.2,0.1C21.5,3.3,21.3,3.2,21.2,2.9z M42.1,2.6c-0.3-0.1-0.5-0.5-0.5-0.8c0.1-0.3,0.5-0.5,0.8-0.5
			c0.3,0.1,0.5,0.5,0.5,0.8c-0.1,0.3-0.3,0.5-0.6,0.5C42.2,2.7,42.2,2.6,42.1,2.6z M25.2,1.6c-0.1-0.3,0.1-0.7,0.5-0.7l0,0
			C26,0.8,26.3,1,26.4,1.4c0.1,0.3-0.1,0.7-0.5,0.7c-0.1,0-0.1,0-0.1,0C25.5,2.1,25.3,1.9,25.2,1.6z M38.2,1.7
			c-0.3-0.1-0.6-0.4-0.5-0.7s0.4-0.6,0.7-0.5s0.6,0.4,0.5,0.7c-0.1,0.3-0.3,0.5-0.6,0.5C38.2,1.7,38.2,1.7,38.2,1.7z M29.3,0.9
			c-0.1-0.3,0.2-0.7,0.6-0.7l0,0c0.3-0.1,0.7,0.2,0.7,0.6c0.1,0.3-0.2,0.7-0.6,0.7h-0.1C29.6,1.5,29.3,1.2,29.3,0.9z M34.1,1.3
			c-0.3,0-0.6-0.3-0.6-0.7c0-0.3,0.3-0.6,0.6-0.6s0.6,0.3,0.6,0.7S34.4,1.3,34.1,1.3L34.1,1.3z"/>
		<circle id="Oval-2-Copy-3" class="st0" cx="432" cy="33" r="11"/>
		<circle id="Oval-2-Copy-2" class="st0" cx="830" cy="33" r="11"/>
		<path id="Shape-Copy-3_1_" class="st1" d="M830.5,65.7c0-0.3,0.3-0.6,0.6-0.7c0.3,0,0.6,0.3,0.7,0.6c0,0.3-0.3,0.6-0.6,0.7l0,0
			C830.8,66.3,830.5,66.1,830.5,65.7z M826.9,66.2c-0.3-0.1-0.6-0.3-0.6-0.7c0.1-0.3,0.3-0.6,0.7-0.6c0.3,0.1,0.6,0.3,0.6,0.7
			C827.5,66,827.3,66.2,826.9,66.2C827,66.2,827,66.2,826.9,66.2z M834.7,65.4c-0.1-0.3,0.2-0.7,0.5-0.7c0.3-0.1,0.7,0.2,0.7,0.5
			c0.1,0.3-0.2,0.7-0.5,0.7c-0.1,0-0.1,0-0.1,0C835,65.9,834.7,65.7,834.7,65.4z M822.7,65.5c-0.3-0.1-0.6-0.4-0.5-0.7
			c0.1-0.3,0.4-0.6,0.7-0.5c0.3,0.1,0.6,0.4,0.5,0.7c-0.1,0.3-0.3,0.5-0.6,0.5C822.8,65.5,822.8,65.5,822.7,65.5z M838.8,64.5
			c-0.1-0.3,0.1-0.7,0.5-0.8c0.3-0.1,0.7,0.1,0.8,0.5c0.1,0.3-0.1,0.7-0.5,0.8c-0.1,0-0.1,0-0.2,0C839.1,65,838.8,64.8,838.8,64.5z
			 M818.6,64.3c-0.3-0.1-0.5-0.5-0.4-0.8s0.5-0.5,0.8-0.4c0.3,0.1,0.5,0.5,0.4,0.8s-0.3,0.4-0.6,0.4
			C818.8,64.3,818.8,64.3,818.6,64.3z M842.7,63.2c-0.2-0.3,0-0.7,0.3-0.8c0.3-0.2,0.7,0,0.8,0.3s0,0.7-0.3,0.8
			c-0.1,0.1-0.2,0.1-0.3,0.1C843,63.5,842.8,63.4,842.7,63.2z M814.8,62.6c-0.3-0.2-0.5-0.6-0.3-0.8c0.2-0.3,0.6-0.5,0.8-0.3
			c0.3,0.2,0.5,0.6,0.3,0.8c-0.1,0.2-0.3,0.3-0.6,0.3C815,62.7,814.9,62.6,814.8,62.6z M846.4,61.3c-0.2-0.3-0.1-0.7,0.2-0.8
			c0.3-0.2,0.7-0.1,0.8,0.2c0.2,0.3,0.1,0.7-0.2,0.8c-0.1,0.1-0.2,0.1-0.3,0.1C846.7,61.6,846.5,61.5,846.4,61.3z M811.1,60.4
			c-0.3-0.2-0.3-0.6-0.2-0.9c0.2-0.3,0.6-0.3,0.9-0.2c0.3,0.2,0.3,0.6,0.2,0.9c-0.1,0.2-0.3,0.3-0.5,0.3
			C811.4,60.5,811.2,60.5,811.1,60.4z M849.8,59c-0.2-0.3-0.2-0.7,0.1-0.9c0.3-0.2,0.7-0.2,0.9,0.1s0.2,0.7-0.1,0.9
			c-0.1,0.1-0.2,0.1-0.4,0.1S850,59.2,849.8,59z M807.9,57.8c-0.3-0.2-0.3-0.6-0.1-0.9s0.6-0.3,0.9-0.1s0.3,0.6,0.1,0.9
			c-0.1,0.1-0.3,0.2-0.5,0.2C808.1,57.9,808,57.8,807.9,57.8z M853,56.2c-0.2-0.2-0.3-0.6,0-0.9c0.2-0.2,0.6-0.3,0.9,0
			c0.2,0.2,0.3,0.6,0,0.9c-0.1,0.1-0.3,0.2-0.5,0.2S853.1,56.4,853,56.2z M804.9,54.7c-0.2-0.3-0.2-0.7,0.1-0.9
			c0.3-0.2,0.7-0.2,0.9,0.1c0.2,0.3,0.2,0.7-0.1,0.9c-0.1,0.1-0.3,0.2-0.4,0.2C805.2,54.9,805,54.8,804.9,54.7z M855.8,53.1
			c-0.3-0.2-0.3-0.6-0.1-0.9c0.2-0.3,0.6-0.3,0.9-0.1c0.3,0.2,0.3,0.6,0.1,0.9c-0.1,0.2-0.3,0.2-0.5,0.2
			C856,53.2,855.9,53.2,855.8,53.1z M802.3,51.3c-0.2-0.3-0.1-0.7,0.2-0.8c0.3-0.2,0.7-0.1,0.8,0.2s0.1,0.7-0.2,0.8
			c-0.1,0.1-0.2,0.1-0.3,0.1C802.7,51.6,802.4,51.5,802.3,51.3z M858.1,49.7c-0.3-0.2-0.4-0.6-0.2-0.8s0.6-0.4,0.8-0.2
			c0.3,0.2,0.4,0.6,0.2,0.8c-0.1,0.2-0.3,0.3-0.6,0.3C858.3,49.8,858.2,49.7,858.1,49.7z M800.2,47.6c-0.2-0.3,0-0.7,0.3-0.8
			c0.3-0.2,0.7,0,0.8,0.3c0.2,0.3,0,0.7-0.3,0.8c-0.1,0.1-0.2,0.1-0.3,0.1C800.6,47.9,800.3,47.8,800.2,47.6z M860,46
			c-0.3-0.1-0.5-0.5-0.3-0.8s0.5-0.5,0.8-0.3c0.3,0.1,0.5,0.5,0.3,0.8c-0.1,0.2-0.3,0.4-0.6,0.4C860.1,46,860.1,46,860,46z
			 M798.6,43.7c-0.1-0.3,0.1-0.7,0.4-0.8c0.3-0.1,0.7,0.1,0.8,0.4c0.1,0.3-0.1,0.7-0.4,0.8c-0.1,0-0.1,0.1-0.2,0.1
			C799,44.1,798.8,43.9,798.6,43.7z M861.4,42.1c-0.3-0.1-0.6-0.5-0.5-0.8s0.5-0.6,0.8-0.5c0.3,0.1,0.6,0.5,0.5,0.8
			c-0.1,0.3-0.3,0.5-0.6,0.5C861.5,42.1,861.4,42.1,861.4,42.1z M797.6,39.6L797.6,39.6c-0.1-0.3,0.2-0.7,0.5-0.7
			c0.3-0.1,0.7,0.2,0.7,0.5s-0.2,0.7-0.5,0.7c-0.1,0-0.1,0-0.1,0C797.9,40.1,797.6,39.8,797.6,39.6z M862.3,38
			c-0.3-0.1-0.6-0.3-0.6-0.7c0.1-0.3,0.3-0.6,0.7-0.6c0.3,0.1,0.6,0.3,0.6,0.7c-0.1,0.3-0.3,0.6-0.6,0.6C862.3,38,862.3,38,862.3,38
			z M797,35.3L797,35.3c0-0.3,0.2-0.6,0.6-0.7c0.3,0,0.6,0.2,0.7,0.6c0,0.3-0.2,0.6-0.6,0.7h-0.1C797.3,35.9,797.1,35.7,797,35.3z
			 M861.9,33.2L861.9,33.2C861.9,33.1,861.9,33.1,861.9,33.2c0-0.4,0.3-0.7,0.6-0.7c0.3,0,0.6,0.3,0.6,0.6c0,0,0,0,0,0.1
			c0,0,0,0,0,0.1c0,0.3-0.3,0.6-0.6,0.6C862.2,33.8,861.9,33.5,861.9,33.2z M797.6,31.8c-0.3,0-0.6-0.3-0.6-0.7
			c0-0.3,0.3-0.6,0.7-0.6c0.3,0,0.6,0.3,0.6,0.7S798,31.8,797.6,31.8L797.6,31.8z M861.7,29.1c-0.1-0.3,0.2-0.7,0.6-0.7
			c0.3-0.1,0.7,0.2,0.7,0.6c0.1,0.3-0.2,0.7-0.6,0.7h-0.1C862,29.6,861.7,29.4,861.7,29.1z M798,27.6c-0.3-0.1-0.6-0.4-0.5-0.7l0,0
			c0.1-0.3,0.4-0.6,0.7-0.5c0.3,0.1,0.6,0.4,0.5,0.7c-0.1,0.3-0.3,0.5-0.6,0.5C798.1,27.6,798.1,27.6,798,27.6z M860.9,25
			c-0.1-0.3,0.1-0.7,0.5-0.8c0.3-0.1,0.7,0.1,0.8,0.5s-0.1,0.7-0.5,0.8c-0.1,0-0.1,0-0.2,0C861.3,25.5,861,25.3,860.9,25z M799,23.6
			c-0.3-0.1-0.5-0.5-0.4-0.8c0.1-0.3,0.5-0.5,0.8-0.4c0.3,0.1,0.5,0.5,0.4,0.8c-0.1,0.3-0.3,0.5-0.6,0.5
			C799.1,23.6,799.1,23.6,799,23.6z M859.6,21.1c-0.1-0.3,0-0.7,0.3-0.8c0.3-0.1,0.7,0,0.8,0.3l0,0c0.1,0.3,0,0.7-0.3,0.8
			c-0.1,0.1-0.2,0.1-0.2,0.1C860,21.5,859.7,21.4,859.6,21.1z M800.5,19.7c-0.3-0.2-0.5-0.5-0.3-0.8s0.5-0.5,0.8-0.3
			c0.3,0.2,0.5,0.5,0.3,0.8c-0.1,0.2-0.3,0.3-0.6,0.3C800.7,19.7,800.6,19.7,800.5,19.7z M857.8,17.5c-0.2-0.3-0.1-0.7,0.2-0.8
			c0.3-0.2,0.7-0.1,0.8,0.2c0.2,0.3,0.1,0.7-0.2,0.8c-0.1,0.1-0.2,0.1-0.3,0.1C858.2,17.8,858,17.7,857.8,17.5z M802.5,16
			c-0.3-0.2-0.4-0.6-0.2-0.8c0.2-0.3,0.6-0.4,0.8-0.2c0.3,0.2,0.4,0.6,0.2,0.8c-0.1,0.2-0.3,0.3-0.5,0.3
			C802.7,16.1,802.6,16.1,802.5,16z M855.6,14.1c-0.2-0.3-0.2-0.7,0.1-0.9s0.7-0.2,0.9,0.1c0.2,0.3,0.2,0.7-0.1,0.9
			c-0.1,0.1-0.2,0.1-0.4,0.1C855.9,14.4,855.7,14.2,855.6,14.1z M804.9,12.6c-0.3-0.2-0.3-0.6-0.1-0.9s0.6-0.3,0.9-0.1
			c0.3,0.2,0.3,0.6,0.1,0.9c-0.1,0.2-0.3,0.2-0.5,0.2C805.1,12.8,805,12.7,804.9,12.6z M853,11c-0.2-0.2-0.2-0.6,0-0.9
			c0.2-0.2,0.7-0.2,0.9,0l0,0c0.2,0.2,0.2,0.7,0,0.9c-0.1,0.1-0.3,0.2-0.5,0.2C853.2,11.2,853.1,11.1,853,11z M807.7,9.6
			c-0.2-0.3-0.2-0.7,0.1-0.9s0.7-0.2,0.9,0.1c0.2,0.3,0.2,0.7-0.1,0.9c-0.1,0.1-0.3,0.2-0.5,0.2S807.9,9.7,807.7,9.6z M849.9,8.3
			c-0.3-0.2-0.3-0.6-0.1-0.9c0.2-0.3,0.6-0.3,0.9-0.1c0.3,0.2,0.3,0.6,0.1,0.9c-0.1,0.2-0.3,0.2-0.5,0.2
			C850.2,8.4,850,8.3,849.9,8.3z M811,6.9c-0.2-0.3-0.1-0.7,0.2-0.9s0.7-0.1,0.9,0.2s0.1,0.7-0.2,0.9c-0.1,0.1-0.2,0.1-0.3,0.1
			C811.2,7.2,811.1,7.1,811,6.9z M846.6,5.9c-0.3-0.2-0.4-0.6-0.2-0.8c0.2-0.3,0.6-0.4,0.8-0.2c0.3,0.2,0.4,0.6,0.2,0.8
			c-0.1,0.2-0.3,0.3-0.6,0.3C846.8,6,846.7,5.9,846.6,5.9z M814.5,4.7c-0.2-0.3-0.1-0.7,0.3-0.8c0.3-0.2,0.7-0.1,0.8,0.3
			c0.2,0.3,0.1,0.7-0.3,0.8C815.2,5,815.1,5,815,5C814.8,5,814.6,4.9,814.5,4.7z M843,4c-0.3-0.1-0.5-0.5-0.3-0.8
			c0.2-0.3,0.5-0.5,0.8-0.3s0.5,0.5,0.3,0.8c-0.1,0.2-0.3,0.4-0.6,0.4C843.1,4.1,843,4.1,843,4z M818.2,2.9
			c-0.1-0.3,0.1-0.7,0.4-0.8c0.3-0.1,0.7,0.1,0.8,0.4s-0.1,0.7-0.4,0.8c-0.1,0-0.2,0.1-0.2,0.1C818.5,3.3,818.3,3.2,818.2,2.9z
			 M839.1,2.6c-0.3-0.1-0.5-0.5-0.5-0.8c0.1-0.3,0.5-0.5,0.8-0.5c0.3,0.1,0.5,0.5,0.5,0.8c-0.1,0.3-0.3,0.5-0.6,0.5
			C839.2,2.7,839.2,2.6,839.1,2.6z M822.2,1.6c-0.1-0.3,0.1-0.7,0.5-0.7l0,0c0.3-0.1,0.7,0.1,0.7,0.5s-0.1,0.7-0.5,0.7
			c-0.1,0-0.1,0-0.1,0C822.5,2.1,822.3,1.9,822.2,1.6z M835.2,1.7c-0.3-0.1-0.6-0.4-0.5-0.7s0.4-0.6,0.7-0.5
			c0.3,0.1,0.6,0.4,0.5,0.7s-0.3,0.5-0.6,0.5C835.2,1.7,835.2,1.7,835.2,1.7z M826.3,0.9c-0.1-0.3,0.2-0.7,0.6-0.7l0,0
			c0.3-0.1,0.7,0.2,0.7,0.6c0.1,0.3-0.2,0.7-0.6,0.7h-0.1C826.6,1.5,826.3,1.2,826.3,0.9z M831.1,1.3c-0.3,0-0.6-0.3-0.6-0.7
			c0-0.3,0.3-0.6,0.6-0.6c0.3,0,0.6,0.3,0.6,0.7S831.4,1.3,831.1,1.3L831.1,1.3z"/>
		<path id="Path-13" class="st0" d="M33,43v56.1c0,5.5,4.5,9.9,10,9.9h372.1 M448.9,109H820c5.5,0,10-4.4,10-9.9V44.5"/>
		<path id="Rectangle-17-Copy" class="st0" d="M436.9,95.6l8.5,8.5c2.7,2.7,2.7,7.2,0,9.9l-8.5,8.5c-2.7,3.4-7.2,3.4-9.9,0l-8.5-8.5
			c-2.7-2.7-2.7-7.2,0-9.9l8.5-8.5C429.8,92.8,434.2,92.8,436.9,95.6z"/>
		<path id="Shape" class="st2" d="M432.3,166.2c0-0.6,0.5-1.1,1.1-1.2c0.6,0,1.1,0.5,1.2,1.1c0,0.6-0.5,1.1-1.1,1.2l0,0
			C432.8,167.3,432.3,166.9,432.3,166.2z M425.9,167.1c-0.6-0.1-1.1-0.6-1-1.2c0.1-0.6,0.6-1.1,1.2-1c0.6,0.1,1.1,0.6,1,1.2
			c-0.1,0.6-0.5,1-1.1,1C426,167.1,426,167.1,425.9,167.1z M439.7,165.7c-0.1-0.6,0.3-1.2,0.9-1.3c0.6-0.1,1.2,0.3,1.3,0.9
			c0.1,0.6-0.3,1.2-0.9,1.3c-0.1,0-0.1,0-0.2,0C440.2,166.6,439.7,166.2,439.7,165.7z M418.5,165.9c-0.6-0.1-1-0.7-0.8-1.3
			c0.1-0.6,0.7-1,1.3-0.8c0.6,0.1,1,0.7,0.8,1.3c-0.1,0.5-0.6,0.9-1.1,0.9C418.7,165.9,418.6,165.9,418.5,165.9z M446.9,164.2
			c-0.2-0.6,0.2-1.2,0.8-1.4c0.6-0.2,1.2,0.2,1.4,0.8c0.2,0.6-0.2,1.2-0.8,1.4c-0.1,0-0.2,0-0.3,0C447.5,165,447,164.7,446.9,164.2z
			 M411.3,163.8c-0.6-0.2-0.9-0.8-0.7-1.4c0.2-0.6,0.9-0.9,1.4-0.7c0.6,0.2,0.9,0.9,0.7,1.4c-0.2,0.5-0.6,0.7-1,0.7
			C411.6,163.8,411.5,163.8,411.3,163.8z M453.8,161.8c-0.3-0.6,0-1.2,0.6-1.5s1.2,0,1.5,0.6c0.3,0.6,0,1.2-0.6,1.5
			c-0.1,0.1-0.3,0.1-0.5,0.1C454.4,162.4,454,162.2,453.8,161.8z M404.5,160.7c-0.6-0.3-0.8-1-0.5-1.5s1-0.8,1.5-0.5s0.8,1,0.5,1.5
			c-0.2,0.4-0.6,0.6-1,0.6C404.8,160.9,404.6,160.8,404.5,160.7z M460.4,158.5c-0.3-0.5-0.2-1.2,0.4-1.5c0.5-0.3,1.2-0.2,1.5,0.4
			c0.3,0.5,0.2,1.2-0.4,1.5c-0.2,0.1-0.4,0.2-0.6,0.2C461,159,460.6,158.8,460.4,158.5z M398,156.8c-0.5-0.4-0.6-1-0.3-1.6
			c0.4-0.5,1-0.6,1.6-0.3c0.5,0.3,0.6,1,0.3,1.6c-0.2,0.3-0.6,0.5-0.9,0.5C398.4,157,398.2,157,398,156.8z M466.5,154.4
			c-0.4-0.5-0.3-1.2,0.2-1.6c0.5-0.4,1.2-0.3,1.6,0.2c0.4,0.5,0.3,1.2-0.2,1.6c-0.2,0.2-0.4,0.2-0.7,0.2
			C467.1,154.8,466.8,154.7,466.5,154.4z M392.2,152.2c-0.5-0.4-0.5-1.1-0.1-1.6s1.1-0.5,1.6-0.1s0.5,1.1,0.1,1.6
			c-0.2,0.2-0.5,0.4-0.8,0.4C392.6,152.4,392.4,152.3,392.2,152.2z M472.1,149.5c-0.4-0.4-0.5-1.1,0-1.6c0.4-0.4,1.1-0.5,1.6,0
			c0.4,0.4,0.5,1.1,0,1.6c-0.2,0.2-0.5,0.3-0.8,0.3C472.6,149.8,472.3,149.7,472.1,149.5z M386.9,146.8c-0.4-0.5-0.3-1.2,0.1-1.6
			c0.5-0.4,1.2-0.3,1.6,0.1c0.4,0.5,0.3,1.2-0.1,1.6c-0.2,0.2-0.5,0.3-0.7,0.3C387.5,147.2,387.1,147,386.9,146.8z M477,144
			c-0.5-0.4-0.6-1.1-0.2-1.6c0.4-0.5,1.1-0.6,1.6-0.2c0.5,0.4,0.6,1.1,0.2,1.6c-0.2,0.3-0.6,0.4-0.9,0.4
			C477.4,144.2,477.2,144.2,477,144z M382.4,140.7c-0.3-0.5-0.2-1.2,0.3-1.5s1.2-0.2,1.5,0.3c0.3,0.5,0.2,1.2-0.3,1.5
			c-0.2,0.1-0.4,0.2-0.6,0.2C383,141.3,382.6,141.1,382.4,140.7z M481.1,137.9c-0.5-0.3-0.7-1-0.4-1.5c0.3-0.5,1-0.7,1.5-0.4
			s0.7,1,0.4,1.5c-0.2,0.4-0.6,0.6-1,0.6C481.5,138.1,481.3,138,481.1,137.9z M378.7,134.2c-0.3-0.6,0-1.2,0.5-1.5
			c0.6-0.3,1.2,0,1.5,0.5c0.3,0.6,0,1.2-0.5,1.5c-0.2,0.1-0.3,0.1-0.5,0.1C379.3,134.8,378.9,134.6,378.7,134.2z M484.5,131.3
			c-0.6-0.2-0.8-0.9-0.6-1.5c0.2-0.6,0.9-0.8,1.5-0.6s0.8,0.9,0.6,1.5c-0.2,0.4-0.6,0.7-1,0.7C484.7,131.4,484.6,131.4,484.5,131.3z
			 M375.9,127.3c-0.2-0.6,0.1-1.2,0.7-1.4c0.6-0.2,1.2,0.1,1.4,0.7s-0.1,1.2-0.7,1.4c-0.1,0-0.2,0.1-0.4,0.1
			C376.5,128,376.1,127.7,375.9,127.3z M486.9,124.4c-0.6-0.2-1-0.8-0.8-1.4c0.2-0.6,0.8-1,1.4-0.8c0.6,0.2,1,0.8,0.8,1.4
			c-0.1,0.5-0.6,0.8-1.1,0.8C487.1,124.4,487,124.4,486.9,124.4z M374,120L374,120c-0.1-0.6,0.3-1.2,0.9-1.3
			c0.6-0.1,1.2,0.3,1.3,0.9c0.1,0.6-0.3,1.2-0.9,1.3c-0.1,0-0.1,0-0.2,0C374.6,120.9,374.1,120.5,374,120z M488.5,117.2
			c-0.6-0.1-1-0.6-1-1.2c0.1-0.6,0.6-1,1.3-1c0.6,0.1,1,0.6,1,1.2c-0.1,0.6-0.6,1-1.1,1C488.6,117.2,488.5,117.2,488.5,117.2z
			 M373,112.5L373,112.5c0-0.6,0.4-1.1,1-1.2c0.6,0,1.1,0.4,1.2,1c0,0.6-0.4,1.1-1,1.2h-0.1C373.6,113.6,373.1,113.1,373,112.5z
			 M487.9,108.7L487.9,108.7C487.9,108.6,487.9,108.6,487.9,108.7c0-0.7,0.5-1.2,1.1-1.2s1.1,0.5,1.1,1.1c0,0,0,0,0,0.1
			c0,0,0,0,0,0.1c0,0.6-0.5,1.1-1.1,1.1C488.4,109.8,487.9,109.3,487.9,108.7z M374.1,106.2c-0.6,0-1.1-0.6-1-1.2
			c0-0.6,0.6-1.1,1.2-1c0.6,0,1.1,0.6,1,1.2C375.2,105.8,374.7,106.2,374.1,106.2L374.1,106.2z M487.5,101.4c-0.1-0.6,0.3-1.2,1-1.3
			c0.6-0.1,1.2,0.4,1.2,1c0.1,0.6-0.4,1.2-1,1.2h-0.1C488,102.4,487.5,102,487.5,101.4z M374.8,98.9c-0.6-0.1-1-0.7-0.9-1.3l0,0
			c0.1-0.6,0.7-1,1.3-0.9c0.6,0.1,1,0.7,0.9,1.3c-0.1,0.5-0.6,0.9-1.1,0.9C375,98.9,374.9,98.9,374.8,98.9z M486.1,94.3
			c-0.2-0.6,0.2-1.2,0.8-1.4c0.6-0.2,1.2,0.2,1.4,0.8c0.2,0.6-0.2,1.2-0.8,1.4c-0.1,0-0.2,0-0.3,0C486.7,95.1,486.2,94.8,486.1,94.3
			z M376.6,91.7c-0.6-0.2-0.9-0.8-0.7-1.4c0.2-0.6,0.8-0.9,1.4-0.7c0.6,0.2,0.9,0.8,0.7,1.4c-0.2,0.5-0.6,0.8-1.1,0.8
			C376.8,91.8,376.7,91.8,376.6,91.7z M483.8,87.4c-0.2-0.6,0-1.2,0.6-1.5c0.6-0.2,1.2,0,1.5,0.6l0,0c0.2,0.6,0,1.2-0.6,1.5
			c-0.1,0.1-0.3,0.1-0.4,0.1C484.4,88.1,484,87.9,483.8,87.4z M379.2,84.8c-0.6-0.3-0.8-0.9-0.5-1.5c0.3-0.6,0.9-0.8,1.5-0.5
			c0.6,0.3,0.8,0.9,0.5,1.5c-0.2,0.4-0.6,0.6-1,0.6C379.5,84.9,379.4,84.9,379.2,84.8z M480.6,81c-0.3-0.5-0.1-1.2,0.4-1.5
			s1.2-0.1,1.5,0.4s0.1,1.2-0.4,1.5c-0.2,0.1-0.4,0.1-0.6,0.1C481.2,81.5,480.9,81.3,480.6,81z M382.7,78.3c-0.5-0.3-0.7-1-0.3-1.5
			c0.3-0.5,1-0.7,1.5-0.3c0.5,0.3,0.7,1,0.3,1.5c-0.2,0.3-0.6,0.5-0.9,0.5C383.1,78.5,382.9,78.5,382.7,78.3z M476.7,74.9
			c-0.4-0.5-0.3-1.2,0.2-1.6c0.5-0.4,1.2-0.3,1.6,0.2s0.3,1.2-0.2,1.6c-0.2,0.1-0.4,0.2-0.7,0.2C477.2,75.4,476.9,75.2,476.7,74.9z
			 M387,72.3c-0.5-0.4-0.5-1.1-0.1-1.6s1.1-0.5,1.6-0.1s0.5,1.1,0.1,1.6c-0.2,0.3-0.5,0.4-0.8,0.4C387.4,72.6,387.2,72.5,387,72.3z
			 M472,69.4c-0.4-0.4-0.4-1.1,0-1.6c0.4-0.4,1.2-0.4,1.6,0l0,0c0.4,0.4,0.4,1.2,0,1.6c-0.2,0.2-0.5,0.3-0.8,0.3
			C472.5,69.8,472.2,69.6,472,69.4z M392,66.9c-0.4-0.5-0.4-1.2,0.1-1.6c0.5-0.4,1.2-0.4,1.6,0.1c0.4,0.5,0.4,1.2-0.1,1.6
			c-0.2,0.2-0.5,0.3-0.8,0.3C392.5,67.3,392.2,67.2,392,66.9z M466.6,64.6c-0.5-0.4-0.6-1.1-0.2-1.6s1.1-0.6,1.6-0.2
			c0.5,0.4,0.6,1.1,0.2,1.6c-0.2,0.3-0.5,0.4-0.9,0.4C467.1,64.8,466.8,64.7,466.6,64.6z M397.7,62.2c-0.3-0.5-0.2-1.2,0.3-1.6
			c0.5-0.4,1.2-0.2,1.6,0.3s0.2,1.2-0.3,1.6c-0.2,0.1-0.4,0.2-0.6,0.2C398.2,62.7,397.9,62.5,397.7,62.2z M460.7,60.4
			c-0.5-0.3-0.7-1-0.4-1.5c0.3-0.5,1-0.7,1.5-0.4s0.7,1,0.4,1.5c-0.2,0.3-0.6,0.5-1,0.5C461.1,60.6,460.9,60.5,460.7,60.4z
			 M403.9,58.3c-0.3-0.5-0.1-1.2,0.5-1.5c0.5-0.3,1.2-0.1,1.5,0.5c0.3,0.5,0.1,1.2-0.5,1.5c-0.2,0.1-0.3,0.1-0.5,0.1
			C404.5,58.9,404.1,58.7,403.9,58.3z M454.3,57.1c-0.6-0.2-0.8-0.9-0.6-1.5c0.3-0.6,0.9-0.8,1.5-0.6c0.6,0.2,0.8,0.9,0.6,1.5
			c-0.2,0.4-0.6,0.7-1,0.7C454.6,57.2,454.4,57.2,454.3,57.1z M410.5,55.1c-0.2-0.6,0.1-1.2,0.7-1.4c0.6-0.2,1.2,0.1,1.4,0.7
			c0.2,0.6-0.1,1.2-0.7,1.4c-0.1,0-0.3,0.1-0.4,0.1C411.1,55.9,410.7,55.6,410.5,55.1z M447.5,54.6c-0.6-0.2-0.9-0.8-0.8-1.4
			c0.2-0.6,0.8-0.9,1.4-0.8c0.6,0.2,0.9,0.8,0.8,1.4c-0.1,0.5-0.6,0.8-1.1,0.8C447.7,54.7,447.6,54.6,447.5,54.6z M417.6,52.9
			c-0.1-0.6,0.2-1.2,0.8-1.3l0,0c0.6-0.1,1.2,0.2,1.3,0.8c0.1,0.6-0.2,1.2-0.8,1.3c-0.1,0-0.2,0-0.2,0
			C418.1,53.8,417.7,53.4,417.6,52.9z M440.5,53c-0.6-0.1-1-0.7-0.9-1.3c0.1-0.6,0.7-1,1.3-0.9c0.6,0.1,1,0.7,0.9,1.3
			c-0.1,0.6-0.6,0.9-1.1,0.9C440.6,53,440.5,53,440.5,53z M424.8,51.6c-0.1-0.6,0.4-1.2,1-1.2l0,0c0.6-0.1,1.2,0.4,1.2,1
			c0.1,0.6-0.4,1.2-1,1.2h-0.1C425.4,52.6,424.9,52.2,424.8,51.6z M433.3,52.3c-0.6,0-1.1-0.5-1.1-1.2c0-0.6,0.5-1.1,1.1-1.1
			c0.6,0,1.1,0.5,1.1,1.2S433.9,52.3,433.3,52.3L433.3,52.3z"/>
		<path id="Shape-Copy-3_2_" class="st2" d="M432,141.2c0-0.3,0.3-0.6,0.6-0.7c0.3,0,0.6,0.3,0.7,0.6c0,0.3-0.3,0.6-0.6,0.7l0,0
			C432.3,141.8,432,141.6,432,141.2z M428.4,141.7c-0.3-0.1-0.6-0.3-0.6-0.7c0.1-0.3,0.3-0.6,0.7-0.6c0.3,0.1,0.6,0.3,0.6,0.7
			C429,141.5,428.8,141.7,428.4,141.7C428.4,141.7,428.4,141.7,428.4,141.7z M436.2,140.9c-0.1-0.3,0.2-0.7,0.5-0.7
			c0.3-0.1,0.7,0.2,0.7,0.5c0.1,0.3-0.2,0.7-0.5,0.7c-0.1,0-0.1,0-0.1,0C436.4,141.4,436.2,141.2,436.2,140.9z M424.2,141
			c-0.3-0.1-0.6-0.4-0.5-0.7c0.1-0.3,0.4-0.6,0.7-0.5c0.3,0.1,0.6,0.4,0.5,0.7c-0.1,0.3-0.3,0.5-0.6,0.5
			C424.3,141,424.2,141,424.2,141z M440.2,140c-0.1-0.3,0.1-0.7,0.5-0.8c0.3-0.1,0.7,0.1,0.8,0.5s-0.1,0.7-0.5,0.8
			c-0.1,0-0.1,0-0.2,0C440.6,140.5,440.3,140.3,440.2,140z M420.1,139.8c-0.3-0.1-0.5-0.5-0.4-0.8c0.1-0.3,0.5-0.5,0.8-0.4
			c0.3,0.1,0.5,0.5,0.4,0.8s-0.3,0.4-0.6,0.4C420.3,139.8,420.2,139.8,420.1,139.8z M444.1,138.7c-0.2-0.3,0-0.7,0.3-0.8
			c0.3-0.2,0.7,0,0.8,0.3c0.2,0.3,0,0.7-0.3,0.8c-0.1,0.1-0.2,0.1-0.3,0.1C444.5,139,444.2,138.9,444.1,138.7z M416.3,138.1
			c-0.3-0.2-0.5-0.6-0.3-0.8c0.2-0.3,0.6-0.5,0.8-0.3c0.3,0.2,0.5,0.6,0.3,0.8c-0.1,0.2-0.3,0.3-0.6,0.3
			C416.4,138.2,416.3,138.1,416.3,138.1z M447.9,136.8c-0.2-0.3-0.1-0.7,0.2-0.8c0.3-0.2,0.7-0.1,0.8,0.2c0.2,0.3,0.1,0.7-0.2,0.8
			c-0.1,0.1-0.2,0.1-0.3,0.1C448.2,137.1,448,137,447.9,136.8z M412.6,135.9c-0.3-0.2-0.3-0.6-0.2-0.9c0.2-0.3,0.6-0.3,0.9-0.2
			c0.3,0.2,0.3,0.6,0.2,0.9c-0.1,0.2-0.3,0.3-0.5,0.3S412.7,136,412.6,135.9z M451.3,134.5c-0.2-0.3-0.2-0.7,0.1-0.9
			c0.3-0.2,0.7-0.2,0.9,0.1c0.2,0.3,0.2,0.7-0.1,0.9c-0.1,0.1-0.2,0.1-0.4,0.1C451.6,134.7,451.5,134.7,451.3,134.5z M409.3,133.3
			c-0.3-0.2-0.3-0.6-0.1-0.9c0.2-0.3,0.6-0.3,0.9-0.1c0.3,0.2,0.3,0.6,0.1,0.9c-0.1,0.1-0.3,0.2-0.5,0.2
			C409.5,133.4,409.4,133.3,409.3,133.3z M454.5,131.7c-0.2-0.2-0.3-0.6,0-0.9c0.2-0.2,0.6-0.3,0.9,0c0.2,0.2,0.3,0.6,0,0.9
			c-0.1,0.1-0.3,0.2-0.5,0.2C454.8,131.9,454.6,131.9,454.5,131.7z M406.3,130.2c-0.2-0.3-0.2-0.7,0.1-0.9c0.3-0.2,0.7-0.2,0.9,0.1
			c0.2,0.3,0.2,0.7-0.1,0.9c-0.1,0.1-0.3,0.2-0.4,0.2C406.7,130.4,406.4,130.3,406.3,130.2z M457.2,128.6c-0.3-0.2-0.3-0.6-0.1-0.9
			c0.2-0.3,0.6-0.3,0.9-0.1c0.3,0.2,0.3,0.6,0.1,0.9c-0.1,0.2-0.3,0.2-0.5,0.2C457.5,128.7,457.4,128.7,457.2,128.6z M403.8,126.8
			c-0.2-0.3-0.1-0.7,0.2-0.8c0.3-0.2,0.7-0.1,0.8,0.2s0.1,0.7-0.2,0.8c-0.1,0.1-0.2,0.1-0.3,0.1C404.1,127.1,403.9,127,403.8,126.8z
			 M459.6,125.2c-0.3-0.2-0.4-0.6-0.2-0.8c0.2-0.3,0.6-0.4,0.8-0.2c0.3,0.2,0.4,0.6,0.2,0.8c-0.1,0.2-0.3,0.3-0.6,0.3
			C459.8,125.3,459.7,125.2,459.6,125.2z M401.7,123.1c-0.2-0.3,0-0.7,0.3-0.8c0.3-0.2,0.7,0,0.8,0.3c0.2,0.3,0,0.7-0.3,0.8
			c-0.1,0.1-0.2,0.1-0.3,0.1C402,123.4,401.8,123.3,401.7,123.1z M461.5,121.5c-0.3-0.1-0.5-0.5-0.3-0.8c0.1-0.3,0.5-0.5,0.8-0.3
			c0.3,0.1,0.5,0.5,0.3,0.8c-0.1,0.2-0.3,0.4-0.6,0.4C461.6,121.5,461.5,121.5,461.5,121.5z M400.1,119.2c-0.1-0.3,0.1-0.7,0.4-0.8
			s0.7,0.1,0.8,0.4c0.1,0.3-0.1,0.7-0.4,0.8c-0.1,0-0.1,0.1-0.2,0.1C400.4,119.6,400.2,119.4,400.1,119.2z M462.8,117.6
			c-0.3-0.1-0.6-0.5-0.5-0.8c0.1-0.3,0.5-0.6,0.8-0.5c0.3,0.1,0.6,0.5,0.5,0.8c-0.1,0.3-0.3,0.5-0.6,0.5
			C462.9,117.6,462.9,117.6,462.8,117.6z M399,115.1L399,115.1c-0.1-0.3,0.2-0.7,0.5-0.7c0.3-0.1,0.7,0.2,0.7,0.5
			c0.1,0.3-0.2,0.7-0.5,0.7c-0.1,0-0.1,0-0.1,0C399.4,115.6,399.1,115.3,399,115.1z M463.7,113.5c-0.3-0.1-0.6-0.3-0.6-0.7
			c0.1-0.3,0.3-0.6,0.7-0.6c0.3,0.1,0.6,0.3,0.6,0.7c-0.1,0.3-0.3,0.6-0.6,0.6C463.8,113.5,463.7,113.5,463.7,113.5z M398.5,110.8
			L398.5,110.8c0-0.3,0.2-0.6,0.6-0.7c0.3,0,0.6,0.2,0.7,0.6c0,0.3-0.2,0.6-0.6,0.7h-0.1C398.8,111.4,398.5,111.2,398.5,110.8z
			 M463.4,108.7L463.4,108.7C463.4,108.6,463.4,108.6,463.4,108.7c0-0.4,0.3-0.7,0.6-0.7c0.3,0,0.6,0.3,0.6,0.6c0,0,0,0,0,0.1
			c0,0,0,0,0,0.1c0,0.3-0.3,0.6-0.6,0.6C463.7,109.3,463.4,109,463.4,108.7z M399.1,107.3c-0.3,0-0.6-0.3-0.6-0.7
			c0-0.3,0.3-0.6,0.7-0.6c0.3,0,0.6,0.3,0.6,0.7C399.7,107,399.4,107.3,399.1,107.3L399.1,107.3z M463.2,104.6
			c-0.1-0.3,0.2-0.7,0.6-0.7c0.3-0.1,0.7,0.2,0.7,0.6c0.1,0.3-0.2,0.7-0.6,0.7h-0.1C463.5,105.1,463.2,104.9,463.2,104.6z
			 M399.5,103.1c-0.3-0.1-0.6-0.4-0.5-0.7l0,0c0.1-0.3,0.4-0.6,0.7-0.5c0.3,0.1,0.6,0.4,0.5,0.7c-0.1,0.3-0.3,0.5-0.6,0.5
			C399.6,103.1,399.5,103.1,399.5,103.1z M462.4,100.5c-0.1-0.3,0.1-0.7,0.5-0.8c0.3-0.1,0.7,0.1,0.8,0.5c0.1,0.3-0.1,0.7-0.5,0.8
			c-0.1,0-0.1,0-0.2,0C462.7,101,462.4,100.8,462.4,100.5z M400.5,99.1c-0.3-0.1-0.5-0.5-0.4-0.8c0.1-0.3,0.5-0.5,0.8-0.4
			c0.3,0.1,0.5,0.5,0.4,0.8c-0.1,0.3-0.3,0.5-0.6,0.5C400.6,99.1,400.5,99.1,400.5,99.1z M461.1,96.6c-0.1-0.3,0-0.7,0.3-0.8
			c0.3-0.1,0.7,0,0.8,0.3l0,0c0.1,0.3,0,0.7-0.3,0.8c-0.1,0.1-0.2,0.1-0.2,0.1C461.4,97,461.2,96.9,461.1,96.6z M402,95.2
			c-0.3-0.2-0.5-0.5-0.3-0.8c0.2-0.3,0.5-0.5,0.8-0.3c0.3,0.2,0.5,0.5,0.3,0.8c-0.1,0.2-0.3,0.3-0.6,0.3
			C402.1,95.2,402.1,95.2,402,95.2z M459.3,93c-0.2-0.3-0.1-0.7,0.2-0.8s0.7-0.1,0.8,0.2c0.2,0.3,0.1,0.7-0.2,0.8
			c-0.1,0.1-0.2,0.1-0.3,0.1C459.6,93.3,459.4,93.2,459.3,93z M403.9,91.5c-0.3-0.2-0.4-0.6-0.2-0.8c0.2-0.3,0.6-0.4,0.8-0.2
			c0.3,0.2,0.4,0.6,0.2,0.8c-0.1,0.2-0.3,0.3-0.5,0.3C404.2,91.6,404.1,91.6,403.9,91.5z M457.1,89.6c-0.2-0.3-0.2-0.7,0.1-0.9
			c0.3-0.2,0.7-0.2,0.9,0.1c0.2,0.3,0.2,0.7-0.1,0.9c-0.1,0.1-0.2,0.1-0.4,0.1C457.4,89.9,457.2,89.7,457.1,89.6z M406.4,88.1
			c-0.3-0.2-0.3-0.6-0.1-0.9c0.2-0.3,0.6-0.3,0.9-0.1c0.3,0.2,0.3,0.6,0.1,0.9c-0.1,0.2-0.3,0.2-0.5,0.2
			C406.6,88.3,406.5,88.2,406.4,88.1z M454.4,86.5c-0.2-0.2-0.2-0.6,0-0.9c0.2-0.2,0.7-0.2,0.9,0l0,0c0.2,0.2,0.2,0.7,0,0.9
			c-0.1,0.1-0.3,0.2-0.5,0.2C454.7,86.7,454.5,86.6,454.4,86.5z M409.2,85.1c-0.2-0.3-0.2-0.7,0.1-0.9c0.3-0.2,0.7-0.2,0.9,0.1
			c0.2,0.3,0.2,0.7-0.1,0.9c-0.1,0.1-0.3,0.2-0.5,0.2S409.3,85.2,409.2,85.1z M451.4,83.8c-0.3-0.2-0.3-0.6-0.1-0.9
			c0.2-0.3,0.6-0.3,0.9-0.1c0.3,0.2,0.3,0.6,0.1,0.9c-0.1,0.2-0.3,0.2-0.5,0.2C451.6,83.9,451.5,83.8,451.4,83.8z M412.4,82.4
			c-0.2-0.3-0.1-0.7,0.2-0.9c0.3-0.2,0.7-0.1,0.9,0.2c0.2,0.3,0.1,0.7-0.2,0.9c-0.1,0.1-0.2,0.1-0.3,0.1
			C412.7,82.7,412.5,82.6,412.4,82.4z M448,81.4c-0.3-0.2-0.4-0.6-0.2-0.8c0.2-0.3,0.6-0.4,0.8-0.2c0.3,0.2,0.4,0.6,0.2,0.8
			c-0.1,0.2-0.3,0.3-0.6,0.3C448.3,81.5,448.1,81.4,448,81.4z M415.9,80.2c-0.2-0.3-0.1-0.7,0.3-0.8c0.3-0.2,0.7-0.1,0.8,0.3
			c0.2,0.3,0.1,0.7-0.3,0.8c-0.1,0.1-0.2,0.1-0.3,0.1C416.3,80.5,416,80.4,415.9,80.2z M444.4,79.5c-0.3-0.1-0.5-0.5-0.3-0.8
			c0.2-0.3,0.5-0.5,0.8-0.3s0.5,0.5,0.3,0.8c-0.1,0.2-0.3,0.4-0.6,0.4C444.6,79.6,444.5,79.6,444.4,79.5z M419.7,78.4
			c-0.1-0.3,0.1-0.7,0.4-0.8c0.3-0.1,0.7,0.1,0.8,0.4c0.1,0.3-0.1,0.7-0.4,0.8c-0.1,0-0.2,0.1-0.2,0.1
			C420,78.8,419.8,78.7,419.7,78.4z M440.6,78.1c-0.3-0.1-0.5-0.5-0.5-0.8c0.1-0.3,0.5-0.5,0.8-0.5c0.3,0.1,0.5,0.5,0.5,0.8
			c-0.1,0.3-0.3,0.5-0.6,0.5C440.7,78.2,440.6,78.1,440.6,78.1z M423.7,77.1c-0.1-0.3,0.1-0.7,0.5-0.7l0,0c0.3-0.1,0.7,0.1,0.7,0.5
			c0.1,0.3-0.1,0.7-0.5,0.7c-0.1,0-0.1,0-0.1,0C423.9,77.6,423.7,77.4,423.7,77.1z M436.6,77.2c-0.3-0.1-0.6-0.4-0.5-0.7
			c0.1-0.3,0.4-0.6,0.7-0.5c0.3,0.1,0.6,0.4,0.5,0.7c-0.1,0.3-0.3,0.5-0.6,0.5C436.7,77.2,436.6,77.2,436.6,77.2z M427.7,76.4
			c-0.1-0.3,0.2-0.7,0.6-0.7l0,0c0.3-0.1,0.7,0.2,0.7,0.6c0.1,0.3-0.2,0.7-0.6,0.7h-0.1C428.1,77,427.8,76.7,427.7,76.4z
			 M432.5,76.8c-0.3,0-0.6-0.3-0.6-0.7c0-0.3,0.3-0.6,0.6-0.6c0.3,0,0.6,0.3,0.6,0.7S432.9,76.8,432.5,76.8L432.5,76.8z"/>
		<path id="Shape_1_" class="st3" d="M431.9,186.2c0-0.6,0.5-1.1,1.1-1.1s1.1,0.5,1.1,1.1c0,0.6-0.5,1.1-1.1,1.1l0,0
			C432.4,187.3,431.9,186.8,431.9,186.2z M425.5,187.1c-0.6,0-1.1-0.6-1-1.2c0-0.6,0.6-1.1,1.2-1c0.6,0,1.1,0.6,1,1.2
			C426.7,186.6,426.2,187.1,425.5,187.1C425.6,187.1,425.6,187.1,425.5,187.1z M439.4,185.7c-0.1-0.6,0.4-1.2,1-1.2
			c0.6-0.1,1.2,0.4,1.2,1c0.1,0.6-0.4,1.2-1,1.2h-0.1C439.9,186.7,439.4,186.3,439.4,185.7z M418,186.2c-0.6-0.1-1-0.7-0.9-1.3
			c0.1-0.6,0.7-1,1.3-0.9s1,0.7,0.9,1.3c-0.1,0.5-0.6,0.9-1.1,0.9C418.2,186.2,418.1,186.2,418,186.2z M446.7,184.6
			c-0.1-0.6,0.3-1.2,0.9-1.3c0.6-0.1,1.2,0.2,1.3,0.8c0.1,0.6-0.2,1.2-0.8,1.3c-0.1,0-0.2,0-0.2,0
			C447.3,185.5,446.8,185.1,446.7,184.6z M410.7,184.6c-0.6-0.2-0.9-0.8-0.8-1.4c0.2-0.6,0.8-0.9,1.4-0.8c0.6,0.2,0.9,0.8,0.8,1.4
			c-0.1,0.5-0.6,0.8-1.1,0.8C410.8,184.6,410.8,184.6,410.7,184.6z M453.9,182.7c-0.2-0.6,0.1-1.2,0.7-1.4s1.2,0.1,1.4,0.7
			s-0.1,1.2-0.7,1.4c-0.1,0-0.2,0.1-0.3,0.1C454.5,183.5,454.1,183.2,453.9,182.7z M403.5,182.2c-0.6-0.2-0.9-0.9-0.6-1.4
			c0.2-0.6,0.9-0.9,1.4-0.7c0.6,0.2,0.9,0.9,0.6,1.4c-0.2,0.4-0.6,0.7-1,0.7C403.7,182.3,403.6,182.3,403.5,182.2z M460.9,180.2
			c-0.2-0.6,0-1.2,0.6-1.5c0.6-0.2,1.2,0,1.5,0.6c0.2,0.6,0,1.2-0.6,1.5c-0.1,0.1-0.3,0.1-0.4,0.1
			C461.5,180.9,461.1,180.6,460.9,180.2z M396.6,179.2c-0.6-0.3-0.8-0.9-0.5-1.5c0.3-0.6,0.9-0.8,1.5-0.5c0.5,0.3,0.8,0.9,0.5,1.5
			c-0.2,0.4-0.6,0.6-1,0.6C396.9,179.3,396.7,179.3,396.6,179.2z M467.6,177c-0.3-0.5-0.1-1.2,0.4-1.5s1.2-0.1,1.5,0.4
			s0.1,1.2-0.4,1.5c-0.2,0.1-0.4,0.1-0.5,0.1C468.2,177.6,467.8,177.4,467.6,177z M390,175.6L390,175.6c-0.5-0.3-0.7-1-0.4-1.5
			c0.3-0.5,1-0.7,1.5-0.4s0.7,1,0.4,1.5c-0.2,0.3-0.6,0.5-1,0.5C390.3,175.7,390.1,175.7,390,175.6z M474,173.2
			c-0.4-0.5-0.2-1.2,0.3-1.5s1.2-0.2,1.5,0.3c0.3,0.5,0.2,1.2-0.3,1.6c-0.2,0.1-0.4,0.2-0.6,0.2C474.6,173.6,474.2,173.5,474,173.2z
			 M383.7,171.3c-0.5-0.4-0.6-1.1-0.2-1.6s1.1-0.6,1.6-0.2s0.6,1.1,0.2,1.6c-0.2,0.3-0.6,0.4-0.9,0.4
			C384.2,171.5,383.9,171.4,383.7,171.3z M480,168.7c-0.4-0.5-0.3-1.2,0.1-1.6c0.5-0.4,1.2-0.3,1.6,0.1c0.4,0.5,0.3,1.2-0.1,1.6
			c-0.2,0.2-0.5,0.3-0.7,0.3C480.5,169.1,480.2,169,480,168.7z M378,166.4L378,166.4c-0.4-0.4-0.5-1.1-0.1-1.6s1.1-0.5,1.6-0.1
			c0.4,0.4,0.5,1.1,0.1,1.6c-0.2,0.2-0.5,0.4-0.8,0.4C378.5,166.7,378.2,166.6,378,166.4z M485.5,163.7c-0.4-0.4-0.4-1.1,0-1.6
			c0.4-0.4,1.1-0.4,1.6,0c0.4,0.4,0.4,1.1,0,1.6c-0.2,0.2-0.5,0.3-0.8,0.3C486,164,485.7,163.9,485.5,163.7z M372.7,161
			c-0.4-0.5-0.4-1.2,0.1-1.6c0.5-0.4,1.2-0.4,1.6,0.1s0.4,1.2-0.1,1.6c-0.2,0.2-0.5,0.3-0.7,0.3C373.2,161.4,372.9,161.2,372.7,161z
			 M490.5,158.2c-0.5-0.4-0.6-1.1-0.2-1.6c0.4-0.5,1.1-0.6,1.6-0.2c0.5,0.4,0.6,1.1,0.2,1.6c-0.2,0.3-0.5,0.4-0.9,0.4
			C491,158.5,490.7,158.4,490.5,158.2z M367.9,155.1c-0.4-0.5-0.3-1.2,0.2-1.6s1.2-0.3,1.6,0.2c0.4,0.5,0.3,1.2-0.2,1.6
			c-0.2,0.1-0.4,0.2-0.7,0.2C368.5,155.6,368.2,155.4,367.9,155.1z M495,152.3c-0.5-0.3-0.7-1-0.3-1.5c0.3-0.5,1-0.7,1.5-0.3
			c0.5,0.3,0.7,1,0.3,1.5c-0.2,0.3-0.6,0.5-0.9,0.5C495.4,152.4,495.2,152.4,495,152.3z M363.8,148.8c-0.3-0.5-0.1-1.2,0.4-1.5
			s1.2-0.1,1.5,0.4c0.3,0.5,0.1,1.2-0.4,1.5c-0.2,0.1-0.4,0.2-0.6,0.2C364.4,149.4,364,149.2,363.8,148.8z M498.9,145.9
			c-0.5-0.3-0.8-1-0.5-1.5c0.3-0.5,1-0.8,1.5-0.5c0.5,0.3,0.8,1,0.5,1.5l0,0c-0.2,0.4-0.6,0.6-1,0.6C499.2,146,499,146,498.9,145.9z
			 M360.3,142.1c-0.3-0.6,0-1.2,0.5-1.5c0.6-0.3,1.2,0,1.5,0.5c0.3,0.6,0,1.2-0.5,1.5c-0.1,0.1-0.3,0.1-0.5,0.1
			C360.9,142.8,360.5,142.5,360.3,142.1z M502.1,139.2c-0.6-0.2-0.8-0.9-0.6-1.5c0.2-0.6,0.9-0.8,1.5-0.6c0.6,0.2,0.8,0.9,0.6,1.5
			c-0.2,0.4-0.6,0.7-1,0.7C502.4,139.3,502.2,139.3,502.1,139.2z M357.4,135.1c-0.2-0.6,0.1-1.2,0.7-1.4s1.2,0.1,1.4,0.7
			c0.2,0.6-0.1,1.2-0.7,1.4c-0.1,0-0.2,0.1-0.4,0.1C358,135.9,357.6,135.6,357.4,135.1z M504.7,132.2c-0.6-0.2-0.9-0.8-0.8-1.4
			c0.2-0.6,0.8-0.9,1.4-0.8c0.6,0.2,0.9,0.8,0.8,1.4c-0.1,0.5-0.6,0.8-1.1,0.8C504.9,132.3,504.8,132.2,504.7,132.2z M355.3,127.9
			c-0.1-0.6,0.2-1.2,0.8-1.3s1.2,0.2,1.3,0.8s-0.2,1.2-0.8,1.3c-0.1,0-0.2,0-0.3,0C355.8,128.8,355.4,128.4,355.3,127.9z M506.6,125
			c-0.6-0.1-1-0.7-0.9-1.3c0.1-0.6,0.7-1,1.3-0.9c0.6,0.1,1,0.7,0.9,1.3c-0.1,0.5-0.6,0.9-1.1,0.9C506.7,125,506.6,125,506.6,125z
			 M353.8,120.5L353.8,120.5c-0.1-0.6,0.3-1.2,0.9-1.3c0.6-0.1,1.2,0.3,1.3,0.9s-0.3,1.2-0.9,1.3c-0.1,0-0.1,0-0.2,0
			C354.4,121.5,353.9,121.1,353.8,120.5z M507.7,117.7c-0.6-0.1-1.1-0.6-1-1.2c0.1-0.6,0.6-1.1,1.2-1s1.1,0.6,1,1.2
			C508.8,117.3,508.4,117.7,507.7,117.7C507.8,117.7,507.8,117.7,507.7,117.7z M353.1,113c0-0.6,0.4-1.1,1.1-1.2
			c0.6,0,1.1,0.4,1.2,1.1c0,0.6-0.4,1.1-1.1,1.2c0,0,0,0-0.1,0C353.6,114,353.1,113.6,353.1,113z M507.1,109.1L507.1,109.1
			c0-0.1,0-0.1,0-0.2c0-0.6,0.5-1.1,1.1-1.1c0.6,0,1.1,0.5,1.1,1.1v0.1v0.1c0,0.6-0.5,1.1-1.1,1.1
			C507.6,110.2,507.1,109.7,507.1,109.1z M354.1,106.6c-0.6,0-1.1-0.6-1.1-1.2s0.6-1.1,1.2-1.1c0.6,0,1.1,0.6,1.1,1.2
			S354.8,106.6,354.1,106.6C354.2,106.6,354.1,106.6,354.1,106.6z M506.7,101.6c-0.1-0.6,0.4-1.2,1-1.2c0.6-0.1,1.2,0.4,1.2,1l0,0
			c0.1,0.6-0.4,1.2-1,1.2h-0.1C507.2,102.6,506.8,102.2,506.7,101.6z M354.7,99.2c-0.6-0.1-1-0.6-0.9-1.3c0.1-0.6,0.6-1,1.3-1
			c0.6,0.1,1,0.7,0.9,1.3c-0.1,0.6-0.6,1-1.1,1C354.8,99.2,354.8,99.2,354.7,99.2z M505.6,94.4c-0.1-0.6,0.3-1.2,0.9-1.3
			s1.2,0.3,1.3,0.9c0.1,0.6-0.3,1.2-0.9,1.3c-0.1,0-0.1,0-0.2,0C506.2,95.3,505.7,94.9,505.6,94.4z M356,91.9
			c-0.6-0.1-1-0.7-0.8-1.3c0.1-0.6,0.7-1,1.3-0.8c0.6,0.1,1,0.8,0.8,1.3c-0.1,0.5-0.6,0.9-1.1,0.9C356.2,91.9,356.1,91.9,356,91.9z
			 M503.9,87.2c-0.2-0.6,0.2-1.2,0.8-1.4c0.6-0.2,1.2,0.2,1.4,0.8c0.2,0.6-0.2,1.2-0.8,1.4c-0.1,0-0.2,0-0.3,0
			C504.5,88,504,87.7,503.9,87.2z M358,84.7c-0.6-0.2-0.9-0.8-0.7-1.4c0.2-0.6,0.8-0.9,1.4-0.7c0.6,0.2,0.9,0.8,0.7,1.4
			c-0.2,0.5-0.6,0.8-1,0.8C358.3,84.8,358.2,84.7,358,84.7z M501.4,80.3c-0.2-0.6,0-1.2,0.6-1.5c0.6-0.2,1.2,0,1.5,0.6
			c0.2,0.6,0,1.2-0.6,1.5c-0.1,0.1-0.3,0.1-0.4,0.1C502,81,501.6,80.8,501.4,80.3z M360.7,77.8c-0.6-0.3-0.8-0.9-0.5-1.5
			c0.3-0.6,0.9-0.8,1.5-0.5c0.6,0.3,0.8,0.9,0.5,1.5c-0.2,0.4-0.6,0.6-1,0.6C361.1,77.9,360.9,77.8,360.7,77.8z M498.3,73.7
			c-0.3-0.5-0.1-1.2,0.5-1.5c0.5-0.3,1.2-0.1,1.5,0.5c0.3,0.5,0.1,1.2-0.5,1.5c-0.2,0.1-0.3,0.1-0.5,0.1
			C498.9,74.3,498.5,74.1,498.3,73.7z M364.1,71.1c-0.5-0.3-0.7-1-0.4-1.5c0.3-0.5,1-0.7,1.5-0.4c0.5,0.3,0.7,1,0.4,1.5
			c-0.2,0.4-0.6,0.6-1,0.6C364.5,71.3,364.3,71.2,364.1,71.1z M494.6,67.4c-0.3-0.5-0.2-1.2,0.3-1.5c0.5-0.3,1.2-0.2,1.5,0.3
			c0.3,0.5,0.2,1.2-0.3,1.5c-0.2,0.1-0.4,0.2-0.6,0.2C495.1,67.9,494.8,67.7,494.6,67.4z M368.1,64.8c-0.5-0.4-0.6-1.1-0.2-1.6
			s1.1-0.6,1.6-0.2s0.6,1.1,0.3,1.6c-0.2,0.3-0.6,0.5-0.9,0.5C368.5,65,368.3,65,368.1,64.8z M490.2,61.5c-0.4-0.5-0.3-1.2,0.2-1.6
			c0.5-0.4,1.2-0.3,1.6,0.2s0.3,1.2-0.2,1.6c-0.2,0.2-0.5,0.2-0.7,0.2C490.8,61.9,490.5,61.7,490.2,61.5z M372.7,59
			c-0.5-0.4-0.5-1.1-0.1-1.6s1.1-0.5,1.6-0.1c0.5,0.4,0.5,1.1,0.1,1.6c-0.2,0.2-0.5,0.4-0.8,0.4C373.1,59.2,372.9,59.1,372.7,59z
			 M485.4,56c-0.4-0.4-0.4-1.1,0-1.6c0.4-0.4,1.2-0.4,1.6,0c0.4,0.4,0.4,1.1,0,1.6c-0.2,0.2-0.5,0.3-0.8,0.3
			C485.9,56.3,485.6,56.2,485.4,56z M377.8,53.5c-0.4-0.5-0.4-1.2,0.1-1.6c0.5-0.4,1.2-0.4,1.6,0.1s0.4,1.2-0.1,1.6
			c-0.2,0.2-0.5,0.3-0.8,0.3C378.3,53.9,378,53.8,377.8,53.5z M480,51c-0.5-0.4-0.5-1.1-0.1-1.6s1.1-0.5,1.6-0.1
			c0.5,0.4,0.5,1.1,0.1,1.6c-0.2,0.3-0.5,0.4-0.9,0.4C480.5,51.3,480.2,51.2,480,51z M383.4,48.6c-0.4-0.5-0.3-1.2,0.2-1.6
			s1.2-0.3,1.6,0.2c0.4,0.5,0.3,1.2-0.2,1.6c-0.2,0.2-0.4,0.2-0.7,0.2C383.9,49.1,383.6,48.9,383.4,48.6z M474.2,46.5
			c-0.5-0.3-0.6-1-0.3-1.5c0.3-0.5,1-0.6,1.6-0.3c0.5,0.3,0.6,1,0.3,1.6c-0.2,0.3-0.6,0.5-0.9,0.5C474.6,46.7,474.4,46.7,474.2,46.5
			z M389.4,44.3c-0.3-0.5-0.2-1.2,0.4-1.5l0,0c0.5-0.3,1.2-0.2,1.5,0.3c0.3,0.5,0.2,1.2-0.4,1.5c-0.2,0.1-0.4,0.2-0.6,0.2
			C390,44.8,389.7,44.7,389.4,44.3z M467.9,42.7c-0.5-0.3-0.7-1-0.4-1.5s1-0.7,1.5-0.4s0.7,1,0.4,1.5c-0.2,0.4-0.6,0.6-1,0.6
			C468.3,42.8,468.1,42.8,467.9,42.7z M395.9,40.6c-0.3-0.6-0.1-1.2,0.5-1.5c0.5-0.3,1.2-0.1,1.5,0.5c0.3,0.6,0.1,1.2-0.5,1.5
			c-0.2,0.1-0.3,0.1-0.5,0.1C396.5,41.2,396.1,41,395.9,40.6z M461.3,39.4c-0.6-0.2-0.8-0.9-0.6-1.5c0.2-0.6,0.9-0.8,1.5-0.6
			c0.6,0.2,0.8,0.9,0.6,1.5c-0.2,0.4-0.6,0.7-1,0.7C461.6,39.5,461.5,39.5,461.3,39.4z M402.7,37.5c-0.2-0.6,0.1-1.2,0.6-1.4
			c0.6-0.2,1.2,0.1,1.4,0.6c0.2,0.6-0.1,1.2-0.6,1.4c-0.1,0.1-0.3,0.1-0.4,0.1C403.3,38.2,402.8,37.9,402.7,37.5z M454.5,36.8
			c-0.6-0.2-0.9-0.8-0.7-1.4c0.2-0.6,0.8-0.9,1.4-0.7c0.6,0.2,0.9,0.8,0.7,1.4c-0.2,0.5-0.6,0.8-1.1,0.8
			C454.7,36.9,454.6,36.9,454.5,36.8z M409.7,35.1c-0.2-0.6,0.2-1.2,0.8-1.4s1.2,0.2,1.4,0.8c0.2,0.6-0.2,1.2-0.8,1.4
			c-0.1,0-0.2,0-0.3,0C410.3,35.9,409.8,35.6,409.7,35.1z M447.4,34.9c-0.6-0.1-1-0.7-0.9-1.3c0.1-0.6,0.7-1,1.3-0.9
			c0.6,0.1,1,0.7,0.9,1.3c-0.1,0.5-0.6,0.9-1.1,0.9C447.6,35,447.5,35,447.4,34.9z M416.9,33.4c-0.1-0.6,0.3-1.2,0.9-1.3
			c0.6-0.1,1.2,0.3,1.3,0.9s-0.3,1.2-0.9,1.3c-0.1,0-0.1,0-0.2,0C417.5,34.3,417,33.9,416.9,33.4z M440.2,33.7c-0.6-0.1-1-0.6-1-1.2
			c0.1-0.6,0.6-1,1.2-1c0.6,0.1,1,0.6,1,1.2C441.3,33.3,440.9,33.7,440.2,33.7L440.2,33.7z M424.3,32.4c0-0.6,0.4-1.2,1-1.2
			c0.6,0,1.2,0.4,1.2,1c0,0.6-0.4,1.1-1,1.2h-0.1C424.9,33.4,424.4,33,424.3,32.4z M432.8,33.2c-0.6,0-1.1-0.5-1.1-1.1
			c0-0.6,0.5-1.1,1.1-1.1c0.6,0,1.1,0.5,1.1,1.1C434,32.7,433.5,33.2,432.8,33.2C432.9,33.2,432.9,33.2,432.8,33.2z"/>
		<circle id="Oval-2-Copy-5" class="st4" cx="432" cy="185" r="11"/>
		
			<linearGradient id="Path-14_1_" gradientUnits="userSpaceOnUse" x1="0" y1="490.0768" x2="6.080744e-17" y2="489.0837" gradientTransform="matrix(1 0 0 -50.3103 432 24699.9258)">
			<stop  offset="0" style="stop-color:#D8EDFE"/>
			<stop  offset="1" style="stop-color:#D1ECFF"/>
		</linearGradient>
		<path id="Path-14" class="st5" d="M432,44v50"/>
		
			<linearGradient id="Path-14-Copy_1_" gradientUnits="userSpaceOnUse" x1="0" y1="490.1165" x2="5.963755e-17" y2="489.1425" gradientTransform="matrix(1 0 0 -50.3103 432 24782.9258)">
			<stop  offset="0" style="stop-color:#D1ECFF"/>
			<stop  offset="0.5403" style="stop-color:#9BF1F2"/>
			<stop  offset="1" style="stop-color:#00FFCE"/>
		</linearGradient>
		<path id="Path-14-Copy" class="st6" d="M432,125v49"/>
	</g>
</g>
</svg>
