<?xml version="1.0" encoding="UTF-8"?>
<svg width="23px" height="21px" viewBox="0 0 23 21" version="1.1" xmlns="http://www.w3.org/2000/svg" xmlns:xlink="http://www.w3.org/1999/xlink">
    <!-- Generator: Sketch 48.1 (47250) - http://www.bohemiancoding.com/sketch -->
    <title>Page-1</title>
    <desc>Created with Sketch.</desc>
    <defs></defs>
    <g id="2.1-Login" stroke="none" stroke-width="1" fill="none" fill-rule="evenodd" transform="translate(-438.000000, -468.000000)">
        <g id="Group-2" transform="translate(413.000000, 376.000000)" fill-rule="nonzero">
            <g id="github---button-copy" transform="translate(0.000000, 74.000000)">
                <g id="Page-1" transform="translate(25.000000, 18.000000)">
                    <g id="gitlab_logo">
                        <g id="g10">
                            <g id="g16">
                                <g id="g18-Clipped">
                                    <g id="g18">
                                        <g id="g44" fill="#FC6D26">
                                            <path d="M22.2119118,11.6437834 L20.9671163,7.84129728 L18.5004402,0.306782316 C18.4433501,0.133673436 18.2806709,0.0166028 18.0972122,0.0166028 C17.9137535,0.0166028 17.7510743,0.133673436 17.6939842,0.306782316 L15.2280473,7.84056336 L7.03486852,7.84056336 L4.5711492,0.306782316 C4.51405908,0.133673436 4.35137993,0.0166028 4.16792121,0.0166028 C3.98446249,0.0166028 3.82178334,0.133673436 3.76469322,0.306782316 L1.29875633,7.84056336 L0.054700039,11.6430494 C-0.0586163682,11.9898648 0.0658151305,12.3696871 0.36294215,12.5839464 L11.1329363,20.3547865 L21.9036697,12.5846803 C22.2007967,12.370421 22.3252282,11.9905987 22.2119118,11.6437834" id="path46"></path>
                                        </g>
                                        <g id="g48" transform="translate(7.022302, 7.779647)" fill="#E24329">
                                            <polygon id="path50" points="4.11063401 12.5751392 4.11063401 12.5751392 8.20574503 0.0616500348 0.0125662252 0.0616500348 4.10767725 12.5751392"></polygon>
                                        </g>
                                        <g id="g56" transform="translate(1.256623, 7.779647)" fill="#FC6D26">
                                            <polygon id="path58" points="9.87631379 12.5751392 5.77824601 0.0609161058 0.0421338138 0.0609161058 9.87335703 12.5744053"></polygon>
                                        </g>
                                        <g id="g64" transform="translate(0.000000, 7.779647)" fill="#FCA326">
                                            <path d="M1.29875633,0.0609161058 L0.0539608492,3.86340218 C-0.0593555579,4.21021754 0.0650759408,4.59003981 0.362202961,4.80429914 L11.1329363,12.5751392 L1.30171309,0.0616500348 L1.29875633,0.0609161058 Z" id="path66"></path>
                                        </g>
                                        <g id="g72" transform="translate(1.256623, 0.000000)" fill="#E24329">
                                            <path d="M0.0421338138,7.84056336 L5.77824601,7.84056336 L3.31452668,0.306782316 C3.25821539,0.132880515 3.09527666,0.0149587399 2.91129869,0.0149587399 C2.72732072,0.0149587399 2.564382,0.132880515 2.50807071,0.306782316 L0.0421338138,7.84056336 Z" id="path74"></path>
                                        </g>
                                        <g id="g76" transform="translate(11.087846, 7.779647)" fill="#FC6D26">
                                            <polygon id="path78" points="0.0450905727 12.5751392 4.1402016 0.0616500348 9.87927055 0.0616500348 0.0480473315 12.5751392"></polygon>
                                        </g>
                                        <g id="g80" transform="translate(11.087846, 7.779647)" fill="#FCA326">
                                            <path d="M9.87927055,0.0609161058 L11.124066,3.86340218 C11.2373824,4.21021754 11.1129509,4.59003981 10.8158239,4.80429914 L0.0450905727,12.5751392 L9.87631379,0.0616500348 L9.87927055,0.0609161058 Z" id="path82"></path>
                                        </g>
                                        <g id="g84" transform="translate(15.227308, 0.000000)" fill="#E24329">
                                            <path d="M5.73980814,7.84056336 L0.000739189716,7.84056336 L2.46741527,0.306782316 C2.52372657,0.132880515 2.68666529,0.0149587399 2.87064326,0.0149587399 C3.05462123,0.0149587399 3.21755995,0.132880515 3.27387125,0.306782316 L5.74054733,7.84349907 L5.73980814,7.84056336 Z" id="path86"></path>
                                        </g>
                                    </g>
                                </g>
                            </g>
                        </g>
                    </g>
                </g>
            </g>
        </g>
    </g>
</svg>