<?xml version="1.0" encoding="UTF-8"?>
<svg width="1301px" height="484px" viewBox="0 0 1301 484" version="1.1" xmlns="http://www.w3.org/2000/svg" xmlns:xlink="http://www.w3.org/1999/xlink">
    <!-- Generator: Sketch 48.1 (47250) - http://www.bohemiancoding.com/sketch -->
    <title>line icons</title>
    <desc>Created with Sketch.</desc>
    <defs>
        <polygon id="path-1" points="0.0004 0.31 28.9574 0.31 28.9574 45.4324 0.0004 45.4324 0.0004 0.31"></polygon>
        <polygon id="path-3" points="0.0004 0.31 28.9574 0.31 28.9574 45.4324 0.0004 45.4324 0.0004 0.31"></polygon>
        <polygon id="path-5" points="79.23 80.0438 79.23 0.0003 0.0004 0.0003 0.0004 80.0438 79.23 80.0438"></polygon>
        <polygon id="path-7" points="0.00025 6.375 6.37475 6.375 6.37475 0.00025 0.00025 0.00025"></polygon>
        <polygon id="path-9" points="0.00025 6.375 6.37475 6.375 6.37475 0.00025 0.00025 0.00025"></polygon>
        <polygon id="path-11" points="0.00025 6.375 6.37475 6.375 6.37475 0.00025 0.00025 0.00025"></polygon>
        <polygon id="path-13" points="3.42785 0.00045 0 0.00045 0 6.85645 3.42785 6.85645 6.8557 6.85645 6.8557 0.00045"></polygon>
        <polygon id="path-15" points="3.42785 0.00045 0 0.00045 0 6.85645 3.42785 6.85645 6.8557 6.85645 6.8557 0.00045"></polygon>
        <polygon id="path-17" points="3.42785 0.00045 0 0.00045 0 6.85645 3.42785 6.85645 6.8557 6.85645 6.8557 0.00045"></polygon>
    </defs>
    <g id="3.-Pricing-&amp;-Plans" stroke="none" stroke-width="1" fill="none" fill-rule="evenodd" transform="translate(-62.000000, -135.000000)">
        <g id="HEADER">
            <g id="line-icons" transform="translate(51.000000, 112.000000)">
                <g id="Page-1-Copy-6" transform="translate(221.000000, 114.000000)">
                    <g id="Group-3" transform="translate(0.000000, 0.690100)">
                        <mask id="mask-2" fill="white">
                            <use xlink:href="#path-1"></use>
                        </mask>
                        <g id="Clip-2"></g>
                        <path d="M26.3774,42.8564 C24.2744,44.9584 20.8544,44.9584 18.7514,42.8564 C17.7324,41.8374 17.1714,40.4834 17.1714,39.0434 C17.1714,37.6024 17.7324,36.2494 18.7514,35.2304 C19.7704,34.2114 21.1244,33.6504 22.5644,33.6504 C24.0044,33.6504 25.3584,34.2114 26.3774,35.2304 C27.3964,36.2494 27.9574,37.6024 27.9574,39.0434 C27.9574,40.4834 27.3964,41.8374 26.3774,42.8564 M2.5794,26.6844 C1.5614,25.6664 1.0004,24.3114 1.0004,22.8714 C1.0004,21.4304 1.5614,20.0774 2.5794,19.0584 C3.5984,18.0404 4.9524,17.4784 6.3924,17.4784 C7.8324,17.4784 9.1874,18.0404 10.2054,19.0584 C11.2244,20.0774 11.7854,21.4304 11.7854,22.8714 C11.7854,24.3114 11.2244,25.6664 10.2054,26.6844 C8.1024,28.7864 4.6814,28.7864 2.5794,26.6844 M18.7514,2.8854 C19.8024,1.8354 21.1834,1.3094 22.5644,1.3094 C23.9454,1.3094 25.3264,1.8354 26.3774,2.8854 C28.4794,4.9884 28.4794,8.4104 26.3774,10.5124 C24.2744,12.6144 20.8544,12.6144 18.7514,10.5124 C16.6494,8.4104 16.6494,4.9884 18.7514,2.8854 M22.5644,32.6504 C21.0244,32.6504 19.5714,33.1954 18.4154,34.1864 L11.2494,27.0204 C12.2404,25.8644 12.7854,24.4104 12.7854,22.8714 C12.7854,21.3324 12.2404,19.8784 11.2494,18.7214 L18.4164,11.5554 C19.6064,12.5744 21.0844,13.0884 22.5644,13.0884 C24.2014,13.0884 25.8384,12.4654 27.0844,11.2194 C29.5764,8.7274 29.5764,4.6704 27.0844,2.1784 C24.5924,-0.3136 20.5364,-0.3126 18.0444,2.1784 C15.6714,4.5514 15.5634,8.3394 17.7094,10.8484 L10.5424,18.0144 C9.3854,17.0234 7.9324,16.4784 6.3924,16.4784 C4.6854,16.4784 3.0794,17.1434 1.8724,18.3514 C0.6654,19.5584 0.0004,21.1644 0.0004,22.8714 C0.0004,24.5784 0.6654,26.1834 1.8724,27.3914 C3.1184,28.6374 4.7554,29.2604 6.3924,29.2604 C7.8724,29.2604 9.3494,28.7464 10.5414,27.7274 L17.7084,34.8934 C16.7164,36.0504 16.1714,37.5034 16.1714,39.0434 C16.1714,40.7504 16.8364,42.3554 18.0444,43.5634 C19.2904,44.8094 20.9274,45.4324 22.5644,45.4324 C24.2014,45.4324 25.8384,44.8094 27.0844,43.5634 C28.2924,42.3554 28.9574,40.7504 28.9574,39.0434 C28.9574,37.3354 28.2924,35.7304 27.0844,34.5234 C25.8774,33.3154 24.2724,32.6504 22.5644,32.6504" id="Fill-1" fill="#47D7EA" mask="url(#mask-2)"></path>
                    </g>
                    <path d="M59.1138,43.9381 C58.0948,44.9571 56.7408,45.5181 55.3008,45.5181 C53.8608,45.5181 52.5058,44.9571 51.4878,43.9381 C49.3848,41.8351 49.3848,38.4151 51.4878,36.3121 C52.5388,35.2611 53.9198,34.7361 55.3008,34.7361 C56.6808,34.7361 58.0628,35.2611 59.1138,36.3121 C61.2158,38.4151 61.2158,41.8351 59.1138,43.9381 M42.9418,60.1101 C41.9228,61.1281 40.5688,61.6901 39.1288,61.6901 C37.6888,61.6901 36.3338,61.1281 35.3158,60.1101 C33.2138,58.0071 33.2138,54.5861 35.3158,52.4841 C36.3668,51.4331 37.7478,50.9081 39.1288,50.9081 C40.5098,50.9081 41.8898,51.4331 42.9418,52.4841 C43.9598,53.5021 44.5208,54.8571 44.5208,56.2971 C44.5208,57.7381 43.9598,59.0911 42.9418,60.1101 M35.3158,27.7661 C33.2138,25.6641 33.2138,22.2431 35.3158,20.1401 C37.4178,18.0391 40.8388,18.0391 42.9418,20.1401 C43.9598,21.1591 44.5208,22.5131 44.5208,23.9541 C44.5208,25.3941 43.9598,26.7481 42.9418,27.7661 C41.9228,28.7851 40.5688,29.3461 39.1288,29.3461 C37.6888,29.3461 36.3338,28.7851 35.3158,27.7661 M59.8208,35.6051 C57.4478,33.2321 53.6608,33.1251 51.1518,35.2691 L43.9848,28.1021 C44.9758,26.9461 45.5208,25.4931 45.5208,23.9541 C45.5208,22.2471 44.8558,20.6411 43.6488,19.4331 C41.1568,16.9411 37.1008,16.9411 34.6088,19.4331 C32.1168,21.9261 32.1168,25.9811 34.6088,28.4731 C35.8158,29.6811 37.4208,30.3461 39.1288,30.3461 C40.6678,30.3461 42.1218,29.8011 43.2778,28.8101 L50.4448,35.9761 C48.4068,38.3601 48.4068,41.8911 50.4448,44.2741 L43.2768,51.4411 C40.7688,49.2951 36.9818,49.4041 34.6088,51.7771 C32.1168,54.2701 32.1168,58.3251 34.6088,60.8171 C35.8158,62.0251 37.4208,62.6901 39.1288,62.6901 C40.8358,62.6901 42.4418,62.0251 43.6488,60.8171 C44.8558,59.6101 45.5208,58.0041 45.5208,56.2971 C45.5208,54.7581 44.9758,53.3041 43.9848,52.1481 L51.1508,44.9821 C52.3078,45.9731 53.7608,46.5181 55.3008,46.5181 C57.0088,46.5181 58.6138,45.8531 59.8208,44.6451 C62.3128,42.1531 62.3128,38.0981 59.8208,35.6051" id="Fill-4" fill="#47D7EA"></path>
                </g>
                <g id="Group" transform="translate(313.000000, 0.000000)" fill="#47D7EA">
                    <g id="Page-1" transform="translate(74.000000, 74.000000) rotate(-44.000000) translate(-74.000000, -74.000000) translate(20.000000, 24.000000)">
                        <path d="M48.2085,16.3164 C48.0135,16.1214 47.6965,16.1214 47.5015,16.3164 L43.2915,20.5264 C43.0965,20.7214 43.0965,21.0384 43.2915,21.2334 L47.5015,25.4434 C47.5995,25.5414 47.7275,25.5894 47.8545,25.5894 C47.9825,25.5894 48.1105,25.5414 48.2085,25.4434 C48.4035,25.2484 48.4035,24.9314 48.2085,24.7364 L44.3525,20.8794 L48.2085,17.0234 C48.4035,16.8284 48.4035,16.5114 48.2085,16.3164" id="Fill-1"></path>
                        <path d="M60.2256,16.3164 C60.0306,16.1214 59.7136,16.1214 59.5186,16.3164 C59.3236,16.5114 59.3236,16.8284 59.5186,17.0234 L63.3746,20.8794 L59.5186,24.7364 C59.3236,24.9314 59.3236,25.2484 59.5186,25.4434 C59.6166,25.5414 59.7446,25.5894 59.8716,25.5894 C59.9996,25.5894 60.1276,25.5414 60.2256,25.4434 L64.4356,21.2334 C64.6306,21.0384 64.6306,20.7214 64.4356,20.5264 L60.2256,16.3164 Z" id="Fill-3"></path>
                        <path d="M55.3911,16.1153 C55.1261,16.0363 54.8461,16.1763 54.7621,16.4393 L52.0131,25.0143 C51.9281,25.2773 52.0731,25.5583 52.3361,25.6433 C52.3871,25.6593 52.4381,25.6673 52.4891,25.6673 C52.7001,25.6673 52.8971,25.5323 52.9651,25.3193 L55.7141,16.7443 C55.7991,16.4813 55.6541,16.2003 55.3911,16.1153" id="Fill-5"></path>
                        <path d="M14.2251,75.5459 C14.0301,75.3509 13.7131,75.3509 13.5181,75.5459 L9.3081,79.7559 C9.1131,79.9509 9.1131,80.2679 9.3081,80.4629 L13.5181,84.6729 C13.6161,84.7709 13.7441,84.8189 13.8711,84.8189 C13.9991,84.8189 14.1271,84.7709 14.2251,84.6729 C14.4201,84.4779 14.4201,84.1609 14.2251,83.9659 L10.3691,80.1089 L14.2251,76.2529 C14.4201,76.0579 14.4201,75.7409 14.2251,75.5459" id="Fill-7"></path>
                        <path d="M26.2422,75.5459 C26.0472,75.3509 25.7302,75.3509 25.5352,75.5459 C25.3402,75.7409 25.3402,76.0579 25.5352,76.2529 L29.3912,80.1089 L25.5352,83.9659 C25.3402,84.1609 25.3402,84.4779 25.5352,84.6729 C25.6332,84.7709 25.7612,84.8189 25.8882,84.8189 C26.0162,84.8189 26.1442,84.7709 26.2422,84.6729 L30.4522,80.4629 C30.6472,80.2679 30.6472,79.9509 30.4522,79.7559 L26.2422,75.5459 Z" id="Fill-9"></path>
                        <path d="M21.4077,75.3457 C21.1437,75.2657 20.8627,75.4067 20.7787,75.6697 L18.0297,84.2447 C17.9447,84.5077 18.0897,84.7887 18.3527,84.8737 C18.4037,84.8897 18.4547,84.8977 18.5057,84.8977 C18.7167,84.8977 18.9137,84.7627 18.9817,84.5497 L21.7307,75.9747 C21.8157,75.7117 21.6707,75.4307 21.4077,75.3457" id="Fill-11"></path>
                        <g id="Group-15" transform="translate(33.000000, 0.989300)">
                            <path d="M54.8472,98 C44.4372,98 35.9682,89.53 35.9682,79.12 C35.9682,68.71 44.4372,60.241 54.8472,60.241 C65.2572,60.241 73.7272,68.71 73.7272,79.12 C73.7272,89.53 65.2572,98 54.8472,98 M1.9842,19.891 C1.9842,9.48 10.4532,1.011 20.8642,1.011 C31.2742,1.011 39.7432,9.48 39.7432,19.891 C39.7432,30.301 31.2742,38.77 20.8642,38.77 C10.4532,38.77 1.9842,30.301 1.9842,19.891 M54.8472,59.241 C50.9932,59.241 47.4042,60.361 44.3542,62.268 C44.3612,62.251 44.3722,62.236 44.3772,62.219 C44.3772,62.217 44.3802,62.216 44.3802,62.214 L44.3822,62.209 L44.3822,62.208 L45.3342,58.525 C45.4032,58.258 45.2432,57.985 44.9752,57.916 C44.7062,57.847 44.4352,58.008 44.3662,58.275 L43.7102,60.812 L29.7542,37.696 C29.7452,37.683 29.7312,37.674 29.7222,37.661 C36.2442,34.396 40.7432,27.667 40.7432,19.891 C40.7432,8.929 31.8252,0.011 20.8642,0.011 C9.9022,0.011 0.9842,8.929 0.9842,19.891 C0.9842,30.852 9.9022,39.77 20.8642,39.77 C23.7052,39.77 26.4032,39.16 28.8502,38.081 C28.8622,38.126 28.8722,38.172 28.8972,38.214 L42.8342,61.298 L40.3322,60.651 C40.0662,60.583 39.7922,60.743 39.7232,61.011 C39.6542,61.278 39.8152,61.551 40.0822,61.62 L43.7712,62.573 C43.7942,62.579 43.8152,62.579 43.8382,62.581 C38.4962,66.149 34.9682,72.229 34.9682,79.12 C34.9682,90.082 43.8862,99 54.8472,99 C65.8092,99 74.7272,90.082 74.7272,79.12 C74.7272,68.159 65.8092,59.241 54.8472,59.241" id="Fill-13"></path>
                        </g>
                        <path d="M82.1924,75.5459 C81.9974,75.3509 81.6804,75.3509 81.4854,75.5459 L77.2754,79.7559 C77.0804,79.9509 77.0804,80.2679 77.2754,80.4629 L81.4854,84.6729 C81.5834,84.7709 81.7114,84.8189 81.8384,84.8189 C81.9664,84.8189 82.0944,84.7709 82.1924,84.6729 C82.3874,84.4779 82.3874,84.1609 82.1924,83.9659 L78.3364,80.1089 L82.1924,76.2529 C82.3874,76.0579 82.3874,75.7409 82.1924,75.5459" id="Fill-16"></path>
                        <path d="M94.2095,75.5459 C94.0145,75.3509 93.6975,75.3509 93.5025,75.5459 C93.3075,75.7409 93.3075,76.0579 93.5025,76.2529 L97.3585,80.1089 L93.5025,83.9659 C93.3075,84.1609 93.3075,84.4779 93.5025,84.6729 C93.6005,84.7709 93.7285,84.8189 93.8555,84.8189 C93.9835,84.8189 94.1115,84.7709 94.2095,84.6729 L98.4195,80.4629 C98.6145,80.2679 98.6145,79.9509 98.4195,79.7559 L94.2095,75.5459 Z" id="Fill-18"></path>
                        <path d="M89.375,75.3457 C89.112,75.2657 88.83,75.4067 88.746,75.6697 L85.997,84.2447 C85.912,84.5077 86.057,84.7887 86.32,84.8737 C86.371,84.8897 86.422,84.8977 86.473,84.8977 C86.684,84.8977 86.881,84.7627 86.949,84.5497 L89.698,75.9747 C89.783,75.7117 89.638,75.4307 89.375,75.3457" id="Fill-20"></path>
                        <g id="Group-24" transform="translate(0.000000, 37.989300)">
                            <path d="M19.8799,61 C9.4699,61 0.9999,52.53 0.9999,42.12 C0.9999,31.71 9.4699,23.241 19.8799,23.241 C30.2899,23.241 38.7599,31.71 38.7599,42.12 C38.7599,52.53 30.2899,61 19.8799,61 M67.9079,41.928 C67.8829,41.866 67.8459,41.812 67.7999,41.766 L65.1059,39.073 C64.9109,38.878 64.5939,38.878 64.3989,39.073 C64.2039,39.269 64.2039,39.585 64.3989,39.78 L66.2389,41.62 L39.7339,41.62 C39.5619,34.717 35.8589,28.688 30.3589,25.259 L44.2619,2.231 L44.9179,4.77 C44.9759,4.995 45.1789,5.145 45.4009,5.145 C45.4419,5.145 45.4839,5.14 45.5259,5.129 C45.7939,5.06 45.9549,4.787 45.8849,4.52 L44.9339,0.836 L44.9339,0.835 L44.9319,0.83 C44.9259,0.806 44.9099,0.787 44.9009,0.765 C44.8859,0.729 44.8739,0.69 44.8499,0.659 C44.8219,0.62 44.7829,0.592 44.7449,0.562 C44.7309,0.552 44.7219,0.537 44.7069,0.527 C44.7059,0.527 44.7049,0.527 44.7049,0.526 C44.7039,0.526 44.7029,0.525 44.7019,0.524 C44.6669,0.504 44.6269,0.496 44.5879,0.484 C44.5639,0.478 44.5419,0.464 44.5179,0.46 C44.5049,0.458 44.4929,0.463 44.4809,0.462 C44.4289,0.458 44.3759,0.458 44.3259,0.471 L44.3229,0.471 L40.6339,1.424 C40.3669,1.493 40.2059,1.766 40.2759,2.033 C40.3439,2.301 40.6159,2.462 40.8839,2.393 L43.3859,1.746 L29.5039,24.739 C26.6499,23.152 23.3709,22.241 19.8799,22.241 C8.9179,22.241 -0.0001,31.159 -0.0001,42.12 C-0.0001,53.082 8.9179,62 19.8799,62 C30.6729,62 39.4659,53.35 39.7339,42.62 L66.2399,42.62 L64.3989,44.461 C64.2039,44.656 64.2039,44.973 64.3989,45.168 C64.4969,45.266 64.6249,45.314 64.7529,45.314 C64.8799,45.314 65.0079,45.266 65.1059,45.168 L67.7999,42.475 C67.8459,42.429 67.8829,42.374 67.9079,42.313 C67.9329,42.252 67.9469,42.187 67.9469,42.12 C67.9469,42.054 67.9329,41.988 67.9079,41.928" id="Fill-22"></path>
                        </g>
                    </g>
                </g>
                <g id="Page-1-Copy-7" transform="translate(1107.000000, 52.000000)">
                    <g id="Group-3" transform="translate(0.000000, 0.690100)">
                        <mask id="mask-4" fill="white">
                            <use xlink:href="#path-3"></use>
                        </mask>
                        <g id="Clip-2"></g>
                        <path d="M26.3774,42.8564 C24.2744,44.9584 20.8544,44.9584 18.7514,42.8564 C17.7324,41.8374 17.1714,40.4834 17.1714,39.0434 C17.1714,37.6024 17.7324,36.2494 18.7514,35.2304 C19.7704,34.2114 21.1244,33.6504 22.5644,33.6504 C24.0044,33.6504 25.3584,34.2114 26.3774,35.2304 C27.3964,36.2494 27.9574,37.6024 27.9574,39.0434 C27.9574,40.4834 27.3964,41.8374 26.3774,42.8564 M2.5794,26.6844 C1.5614,25.6664 1.0004,24.3114 1.0004,22.8714 C1.0004,21.4304 1.5614,20.0774 2.5794,19.0584 C3.5984,18.0404 4.9524,17.4784 6.3924,17.4784 C7.8324,17.4784 9.1874,18.0404 10.2054,19.0584 C11.2244,20.0774 11.7854,21.4304 11.7854,22.8714 C11.7854,24.3114 11.2244,25.6664 10.2054,26.6844 C8.1024,28.7864 4.6814,28.7864 2.5794,26.6844 M18.7514,2.8854 C19.8024,1.8354 21.1834,1.3094 22.5644,1.3094 C23.9454,1.3094 25.3264,1.8354 26.3774,2.8854 C28.4794,4.9884 28.4794,8.4104 26.3774,10.5124 C24.2744,12.6144 20.8544,12.6144 18.7514,10.5124 C16.6494,8.4104 16.6494,4.9884 18.7514,2.8854 M22.5644,32.6504 C21.0244,32.6504 19.5714,33.1954 18.4154,34.1864 L11.2494,27.0204 C12.2404,25.8644 12.7854,24.4104 12.7854,22.8714 C12.7854,21.3324 12.2404,19.8784 11.2494,18.7214 L18.4164,11.5554 C19.6064,12.5744 21.0844,13.0884 22.5644,13.0884 C24.2014,13.0884 25.8384,12.4654 27.0844,11.2194 C29.5764,8.7274 29.5764,4.6704 27.0844,2.1784 C24.5924,-0.3136 20.5364,-0.3126 18.0444,2.1784 C15.6714,4.5514 15.5634,8.3394 17.7094,10.8484 L10.5424,18.0144 C9.3854,17.0234 7.9324,16.4784 6.3924,16.4784 C4.6854,16.4784 3.0794,17.1434 1.8724,18.3514 C0.6654,19.5584 0.0004,21.1644 0.0004,22.8714 C0.0004,24.5784 0.6654,26.1834 1.8724,27.3914 C3.1184,28.6374 4.7554,29.2604 6.3924,29.2604 C7.8724,29.2604 9.3494,28.7464 10.5414,27.7274 L17.7084,34.8934 C16.7164,36.0504 16.1714,37.5034 16.1714,39.0434 C16.1714,40.7504 16.8364,42.3554 18.0444,43.5634 C19.2904,44.8094 20.9274,45.4324 22.5644,45.4324 C24.2014,45.4324 25.8384,44.8094 27.0844,43.5634 C28.2924,42.3554 28.9574,40.7504 28.9574,39.0434 C28.9574,37.3354 28.2924,35.7304 27.0844,34.5234 C25.8774,33.3154 24.2724,32.6504 22.5644,32.6504" id="Fill-1" fill="#47D7EA" mask="url(#mask-4)"></path>
                    </g>
                    <path d="M59.1138,43.9381 C58.0948,44.9571 56.7408,45.5181 55.3008,45.5181 C53.8608,45.5181 52.5058,44.9571 51.4878,43.9381 C49.3848,41.8351 49.3848,38.4151 51.4878,36.3121 C52.5388,35.2611 53.9198,34.7361 55.3008,34.7361 C56.6808,34.7361 58.0628,35.2611 59.1138,36.3121 C61.2158,38.4151 61.2158,41.8351 59.1138,43.9381 M42.9418,60.1101 C41.9228,61.1281 40.5688,61.6901 39.1288,61.6901 C37.6888,61.6901 36.3338,61.1281 35.3158,60.1101 C33.2138,58.0071 33.2138,54.5861 35.3158,52.4841 C36.3668,51.4331 37.7478,50.9081 39.1288,50.9081 C40.5098,50.9081 41.8898,51.4331 42.9418,52.4841 C43.9598,53.5021 44.5208,54.8571 44.5208,56.2971 C44.5208,57.7381 43.9598,59.0911 42.9418,60.1101 M35.3158,27.7661 C33.2138,25.6641 33.2138,22.2431 35.3158,20.1401 C37.4178,18.0391 40.8388,18.0391 42.9418,20.1401 C43.9598,21.1591 44.5208,22.5131 44.5208,23.9541 C44.5208,25.3941 43.9598,26.7481 42.9418,27.7661 C41.9228,28.7851 40.5688,29.3461 39.1288,29.3461 C37.6888,29.3461 36.3338,28.7851 35.3158,27.7661 M59.8208,35.6051 C57.4478,33.2321 53.6608,33.1251 51.1518,35.2691 L43.9848,28.1021 C44.9758,26.9461 45.5208,25.4931 45.5208,23.9541 C45.5208,22.2471 44.8558,20.6411 43.6488,19.4331 C41.1568,16.9411 37.1008,16.9411 34.6088,19.4331 C32.1168,21.9261 32.1168,25.9811 34.6088,28.4731 C35.8158,29.6811 37.4208,30.3461 39.1288,30.3461 C40.6678,30.3461 42.1218,29.8011 43.2778,28.8101 L50.4448,35.9761 C48.4068,38.3601 48.4068,41.8911 50.4448,44.2741 L43.2768,51.4411 C40.7688,49.2951 36.9818,49.4041 34.6088,51.7771 C32.1168,54.2701 32.1168,58.3251 34.6088,60.8171 C35.8158,62.0251 37.4208,62.6901 39.1288,62.6901 C40.8358,62.6901 42.4418,62.0251 43.6488,60.8171 C44.8558,59.6101 45.5208,58.0041 45.5208,56.2971 C45.5208,54.7581 44.9758,53.3041 43.9848,52.1481 L51.1508,44.9821 C52.3078,45.9731 53.7608,46.5181 55.3008,46.5181 C57.0088,46.5181 58.6138,45.8531 59.8208,44.6451 C62.3128,42.1531 62.3128,38.0981 59.8208,35.6051" id="Fill-4" fill="#47D7EA"></path>
                </g>
                <g id="Page-1-Copy-2" transform="translate(1232.000000, 302.000000)">
                    <mask id="mask-6" fill="white">
                        <use xlink:href="#path-5"></use>
                    </mask>
                    <g id="Clip-2"></g>
                    <path d="M59.6724,44.7998 L59.6724,23.3708 L78.2304,12.6568 L78.2304,34.0858 L59.6724,44.7998 Z M40.1144,78.6778 L40.1144,57.2488 L58.6724,46.5338 L58.6724,67.9628 L40.1144,78.6778 Z M20.5574,46.5338 L39.1144,57.2488 L39.1144,78.6778 L20.5574,67.9628 L20.5574,46.5338 Z M1.0004,12.6568 L19.5574,23.3708 L19.5574,44.7998 L1.0004,34.0858 L1.0004,12.6568 Z M20.0574,1.0768 L38.6144,11.7918 L20.0574,22.5058 L1.5004,11.7918 L20.0574,1.0768 Z M20.5574,23.3708 L39.1144,12.6568 L39.1144,34.0858 L20.5574,44.7998 L20.5574,23.3708 Z M58.6724,44.7998 L40.1144,34.0868 L40.1144,12.6568 L58.6724,23.3708 L58.6724,44.7998 Z M39.6144,56.3838 L21.0544,45.6668 L39.6144,34.9518 L58.1754,45.6668 L39.6144,56.3838 Z M59.1724,1.0768 L77.7304,11.7918 L59.1724,22.5058 L40.6144,11.7918 L59.1724,1.0768 Z M79.2234,11.7688 C79.2204,11.6918 79.2044,11.6138 79.1634,11.5418 C79.1214,11.4698 79.0624,11.4168 78.9964,11.3758 C78.9894,11.3708 78.9864,11.3628 78.9804,11.3598 L59.4224,0.0678 C59.2684,-0.0222 59.0764,-0.0222 58.9224,0.0678 L39.6144,11.2148 L20.3074,0.0678 C20.1534,-0.0222 19.9624,-0.0222 19.8074,0.0678 L0.2504,11.3598 C0.2434,11.3628 0.2404,11.3708 0.2344,11.3748 C0.1684,11.4168 0.1094,11.4698 0.0674,11.5418 C0.0254,11.6138 0.0094,11.6918 0.0064,11.7688 C0.0054,11.7778 0.0004,11.7838 0.0004,11.7918 L0.0004,34.3748 C0.0004,34.5538 0.0954,34.7188 0.2504,34.8078 L19.5574,45.9538 L19.5574,68.2518 C19.5574,68.4308 19.6524,68.5958 19.8074,68.6848 L39.3644,79.9768 C39.3714,79.9808 39.3804,79.9798 39.3874,79.9828 C39.4564,80.0188 39.5314,80.0438 39.6144,80.0438 C39.6984,80.0438 39.7734,80.0188 39.8424,79.9828 C39.8494,79.9798 39.8584,79.9808 39.8644,79.9768 L59.4224,68.6848 C59.5774,68.5958 59.6724,68.4308 59.6724,68.2518 L59.6724,45.9538 L78.9804,34.8078 C79.1344,34.7188 79.2304,34.5538 79.2304,34.3748 L79.2304,11.7918 C79.2304,11.7838 79.2244,11.7778 79.2234,11.7688 Z" id="Fill-1" fill="#47D7EA" mask="url(#mask-6)"></path>
                </g>
                <g id="Page-1-Copy-3" transform="translate(49.127159, 232.704408) rotate(-345.000000) translate(-49.127159, -232.704408) translate(9.127159, 192.204408)" fill="#47D7EA">
                    <path d="M59.7554879,45.6011939 L59.7554879,24.1721939 L78.3134879,13.4581939 L78.3134879,34.8871939 L59.7554879,45.6011939 Z M40.1974879,79.4791939 L40.1974879,58.0501939 L58.7554879,47.3351939 L58.7554879,68.7641939 L40.1974879,79.4791939 Z M20.6404879,47.3351939 L39.1974879,58.0501939 L39.1974879,79.4791939 L20.6404879,68.7641939 L20.6404879,47.3351939 Z M1.08348788,13.4581939 L19.6404879,24.1721939 L19.6404879,45.6011939 L1.08348788,34.8871939 L1.08348788,13.4581939 Z M20.1404879,1.87819389 L38.6974879,12.5931939 L20.1404879,23.3071939 L1.58348788,12.5931939 L20.1404879,1.87819389 Z M20.6404879,24.1721939 L39.1974879,13.4581939 L39.1974879,34.8871939 L20.6404879,45.6011939 L20.6404879,24.1721939 Z M58.7554879,45.6011939 L40.1974879,34.8881939 L40.1974879,13.4581939 L58.7554879,24.1721939 L58.7554879,45.6011939 Z M39.6974879,57.1851939 L21.1374879,46.4681939 L39.6974879,35.7531939 L58.2584879,46.4681939 L39.6974879,57.1851939 Z M59.2554879,1.87819389 L77.8134879,12.5931939 L59.2554879,23.3071939 L40.6974879,12.5931939 L59.2554879,1.87819389 Z M79.3064879,12.5701939 C79.3034879,12.4931939 79.2874879,12.4151939 79.2464879,12.3431939 C79.2044879,12.2711939 79.1454879,12.2181939 79.0794879,12.1771939 C79.0724879,12.1721939 79.0694879,12.1641939 79.0634879,12.1611939 L59.5054879,0.869193887 C59.3514879,0.779193887 59.1594879,0.779193887 59.0054879,0.869193887 L39.6974879,12.0161939 L20.3904879,0.869193887 C20.2364879,0.779193887 20.0454879,0.779193887 19.8904879,0.869193887 L0.333487879,12.1611939 C0.326487879,12.1641939 0.323487879,12.1721939 0.317487879,12.1761939 C0.251487879,12.2181939 0.192487879,12.2711939 0.150487879,12.3431939 C0.108487879,12.4151939 0.0924878789,12.4931939 0.0894878789,12.5701939 C0.0884878789,12.5791939 0.0834878789,12.5851939 0.0834878789,12.5931939 L0.0834878789,35.1761939 C0.0834878789,35.3551939 0.178487879,35.5201939 0.333487879,35.6091939 L19.6404879,46.7551939 L19.6404879,69.0531939 C19.6404879,69.2321939 19.7354879,69.3971939 19.8904879,69.4861939 L39.4474879,80.7781939 C39.4544879,80.7821939 39.4634879,80.7811939 39.4704879,80.7841939 C39.5394879,80.8201939 39.6144879,80.8451939 39.6974879,80.8451939 C39.7814879,80.8451939 39.8564879,80.8201939 39.9254879,80.7841939 C39.9324879,80.7811939 39.9414879,80.7821939 39.9474879,80.7781939 L59.5054879,69.4861939 C59.6604879,69.3971939 59.7554879,69.2321939 59.7554879,69.0531939 L59.7554879,46.7551939 L79.0634879,35.6091939 C79.2174879,35.5201939 79.3134879,35.3551939 79.3134879,35.1761939 L79.3134879,12.5931939 C79.3134879,12.5851939 79.3074879,12.5791939 79.3064879,12.5701939 Z" id="Fill-1"></path>
                </g>
                <path d="M998.4122,144.8953 C998.0512,145.0313 997.6612,144.9813 997.3392,144.7593 C997.0102,144.5313 996.8222,144.1723 996.8222,143.7753 L996.8212,132.2453 C996.8212,131.0913 996.4042,129.9723 995.6472,129.0933 C995.6092,129.0483 995.6122,129.0093 995.6762,128.9373 C1002.9792,126.6973 1007.6992,121.3423 1007.6992,115.2953 C1007.6992,113.3443 1007.2102,111.4493 1006.2482,109.6633 C1006.1122,109.4113 1006.0452,109.1343 1006.0362,108.7913 C1005.9792,106.6633 1005.8542,104.3913 1005.3242,102.1933 L1004.7422,99.8003 C1004.7082,99.3943 1004.4932,99.0353 1004.1502,98.8143 C1003.8072,98.5943 1003.3922,98.5463 1003.0942,98.6633 L1000.6202,99.0863 C998.9742,99.3673 997.2242,99.8763 995.2702,100.6433 C994.3362,101.0093 993.6472,101.1213 993.0322,101.0073 C990.1252,100.4663 987.0842,100.4663 984.1772,101.0073 C983.5622,101.1223 982.8712,101.0103 981.9382,100.6433 C979.9842,99.8763 978.2342,99.3673 976.5892,99.0863 L974.1992,98.6853 C973.8172,98.5483 973.4002,98.5953 973.0582,98.8143 C972.7152,99.0353 972.5002,99.3943 972.4792,99.7243 L971.8842,102.1933 C971.3532,104.3953 971.2282,106.6663 971.1722,108.7913 C971.1632,109.1343 971.0962,109.4113 970.9612,109.6633 C969.9982,111.4493 969.5102,113.3443 969.5102,115.2953 C969.5102,121.3423 974.2292,126.6973 981.5912,128.9903 C981.5962,129.0093 981.6002,129.0483 981.5612,129.0933 C980.8042,129.9723 980.3872,131.0913 980.3872,132.2453 L980.3872,134.3073 C979.9862,134.4063 979.5462,134.4523 979.0662,134.4393 C976.6382,134.3853 974.8362,133.2453 973.3932,130.8513 C971.9382,128.4343 969.2762,128.2083 967.9382,128.6323 C967.1392,128.8863 967.0492,129.3173 967.0662,129.5523 C967.1032,130.0573 967.5002,130.4023 968.0012,130.8393 C968.4682,131.2463 969.0482,131.7513 969.6022,132.5623 C969.8422,132.9123 970.1042,133.3843 970.3832,133.8833 C971.4222,135.7473 972.8462,138.3003 975.3972,138.9333 C977.6192,139.4843 979.2932,139.4043 980.3872,139.3113 L980.3872,144.2673 C980.3872,144.6523 980.2072,145.0043 979.8952,145.2333 C979.5912,145.4553 979.2142,145.5183 978.8602,145.4073 C966.0722,141.3563 957.5032,129.1453 958.0222,115.7123 C958.6062,100.6053 970.8702,88.0213 985.9412,87.0633 C986.6032,87.0213 987.2632,87.0003 987.9192,87.0003 C995.5562,87.0003 1002.7482,89.8343 1008.3522,95.0923 C1014.4422,100.8073 1017.7952,108.5513 1017.7952,116.8983 C1017.7952,129.2883 1010.0062,140.5393 998.4122,144.8953 M1009.0362,94.3633 C1002.7472,88.4623 994.5252,85.5153 985.8782,86.0653 C970.3012,87.0563 957.6262,100.0613 957.0232,115.6733 C956.4872,129.5563 965.3422,142.1743 978.5582,146.3603 C978.7742,146.4293 978.9942,146.4623 979.2112,146.4623 C979.6622,146.4623 980.1062,146.3183 980.4862,146.0393 C981.0582,145.6203 981.3872,144.9743 981.3872,144.2673 L981.3872,138.2163 L980.6392,138.2833 C979.6312,138.3773 977.9432,138.5343 975.6382,137.9623 C973.5082,137.4343 972.2602,135.1953 971.2562,133.3963 C970.9672,132.8763 970.6932,132.3853 970.4272,131.9973 C969.8012,131.0813 969.1412,130.5063 968.6582,130.0853 C968.4882,129.9373 968.2732,129.7503 968.1542,129.6153 C968.4282,129.5113 969.0052,129.4043 969.7282,129.5073 C970.5722,129.6293 971.7442,130.0513 972.5372,131.3673 C974.1512,134.0453 976.2792,135.3773 979.0432,135.4393 C979.7752,135.4503 980.4522,135.3603 981.0502,135.1533 L981.3872,135.0373 L981.3872,132.2453 C981.3872,131.3313 981.7182,130.4433 982.3192,129.7463 C982.5682,129.4573 982.6552,129.0703 982.5512,128.7123 C982.4512,128.3633 982.1792,128.0903 981.8262,127.9813 C974.9522,125.8733 970.5102,120.8933 970.5102,115.2953 C970.5102,113.5113 970.9572,111.7763 971.8412,110.1373 C972.0512,109.7483 972.1592,109.3163 972.1722,108.8183 C972.2262,106.7473 972.3482,104.5393 972.8562,102.4283 L973.4642,99.8813 C973.4742,99.7543 973.5532,99.6853 973.5992,99.6553 C973.6442,99.6253 973.7392,99.5813 973.9452,99.6483 L976.4212,100.0713 C977.9982,100.3413 979.6832,100.8323 981.5732,101.5743 C982.3252,101.8703 983.3232,102.1843 984.3592,101.9913 C987.1472,101.4723 990.0632,101.4723 992.8492,101.9913 C993.8842,102.1813 994.8822,101.8693 995.6352,101.5743 C997.5252,100.8323 999.2102,100.3413 1000.7882,100.0713 L1003.3492,99.6253 C1003.4702,99.5833 1003.5632,99.6263 1003.6092,99.6553 C1003.6552,99.6853 1003.7342,99.7543 1003.7572,99.9583 L1004.3522,102.4283 C1004.8602,104.5353 1004.9812,106.7453 1005.0362,108.8183 C1005.0492,109.3163 1005.1582,109.7483 1005.3682,110.1373 C1006.2512,111.7763 1006.6992,113.5113 1006.6992,115.2953 C1006.6992,120.8933 1002.2572,125.8733 995.3832,127.9813 C995.0292,128.0903 994.7582,128.3633 994.6572,128.7123 C994.5542,129.0703 994.6412,129.4573 994.8902,129.7463 C995.4902,130.4433 995.8212,131.3313 995.8212,132.2453 L995.8222,143.7753 C995.8222,144.4953 996.1762,145.1703 996.7702,145.5813 C997.3562,145.9863 998.1012,146.0823 998.7642,145.8313 C1010.7452,141.3303 1018.7952,129.7023 1018.7952,116.8983 C1018.7952,108.3973 1015.2382,100.1833 1009.0362,94.3633" id="Fill-1" fill="#47D7EA"></path>
                <path d="M142.4122,375.8953 C142.0512,376.0313 141.6612,375.9813 141.3392,375.7593 C141.0102,375.5313 140.8222,375.1723 140.8222,374.7753 L140.8212,363.2453 C140.8212,362.0913 140.4042,360.9723 139.6472,360.0933 C139.6092,360.0483 139.6122,360.0093 139.6762,359.9373 C146.9792,357.6973 151.6992,352.3423 151.6992,346.2953 C151.6992,344.3443 151.2102,342.4493 150.2482,340.6633 C150.1122,340.4113 150.0452,340.1343 150.0362,339.7913 C149.9792,337.6633 149.8542,335.3913 149.3242,333.1933 L148.7422,330.8003 C148.7082,330.3943 148.4932,330.0353 148.1502,329.8143 C147.8072,329.5943 147.3922,329.5463 147.0942,329.6633 L144.6202,330.0863 C142.9742,330.3673 141.2242,330.8763 139.2702,331.6433 C138.3362,332.0093 137.6472,332.1213 137.0322,332.0073 C134.1252,331.4663 131.0842,331.4663 128.1772,332.0073 C127.5622,332.1223 126.8712,332.0103 125.9382,331.6433 C123.9842,330.8763 122.2342,330.3673 120.5892,330.0863 L118.1992,329.6853 C117.8172,329.5483 117.4002,329.5953 117.0582,329.8143 C116.7152,330.0353 116.5002,330.3943 116.4792,330.7243 L115.8842,333.1933 C115.3532,335.3953 115.2282,337.6663 115.1722,339.7913 C115.1632,340.1343 115.0962,340.4113 114.9612,340.6633 C113.9982,342.4493 113.5102,344.3443 113.5102,346.2953 C113.5102,352.3423 118.2292,357.6973 125.5912,359.9903 C125.5962,360.0093 125.6002,360.0483 125.5612,360.0933 C124.8042,360.9723 124.3872,362.0913 124.3872,363.2453 L124.3872,365.3073 C123.9862,365.4063 123.5462,365.4523 123.0662,365.4393 C120.6382,365.3853 118.8362,364.2453 117.3932,361.8513 C115.9382,359.4343 113.2762,359.2083 111.9382,359.6323 C111.1392,359.8863 111.0492,360.3173 111.0662,360.5523 C111.1032,361.0573 111.5002,361.4023 112.0012,361.8393 C112.4682,362.2463 113.0482,362.7513 113.6022,363.5623 C113.8422,363.9123 114.1042,364.3843 114.3832,364.8833 C115.4222,366.7473 116.8462,369.3003 119.3972,369.9333 C121.6192,370.4843 123.2932,370.4043 124.3872,370.3113 L124.3872,375.2673 C124.3872,375.6523 124.2072,376.0043 123.8952,376.2333 C123.5912,376.4553 123.2142,376.5183 122.8602,376.4073 C110.0722,372.3563 101.5032,360.1453 102.0222,346.7123 C102.6062,331.6053 114.8702,319.0213 129.9412,318.0633 C130.6032,318.0213 131.2632,318.0003 131.9192,318.0003 C139.5562,318.0003 146.7482,320.8343 152.3522,326.0923 C158.4422,331.8073 161.7952,339.5513 161.7952,347.8983 C161.7952,360.2883 154.0062,371.5393 142.4122,375.8953 M153.0362,325.3633 C146.7472,319.4623 138.5252,316.5153 129.8782,317.0653 C114.3012,318.0563 101.6262,331.0613 101.0232,346.6733 C100.4872,360.5563 109.3422,373.1743 122.5582,377.3603 C122.7742,377.4293 122.9942,377.4623 123.2112,377.4623 C123.6622,377.4623 124.1062,377.3183 124.4862,377.0393 C125.0582,376.6203 125.3872,375.9743 125.3872,375.2673 L125.3872,369.2163 L124.6392,369.2833 C123.6312,369.3773 121.9432,369.5343 119.6382,368.9623 C117.5082,368.4343 116.2602,366.1953 115.2562,364.3963 C114.9672,363.8763 114.6932,363.3853 114.4272,362.9973 C113.8012,362.0813 113.1412,361.5063 112.6582,361.0853 C112.4882,360.9373 112.2732,360.7503 112.1542,360.6153 C112.4282,360.5113 113.0052,360.4043 113.7282,360.5073 C114.5722,360.6293 115.7442,361.0513 116.5372,362.3673 C118.1512,365.0453 120.2792,366.3773 123.0432,366.4393 C123.7752,366.4503 124.4522,366.3603 125.0502,366.1533 L125.3872,366.0373 L125.3872,363.2453 C125.3872,362.3313 125.7182,361.4433 126.3192,360.7463 C126.5682,360.4573 126.6552,360.0703 126.5512,359.7123 C126.4512,359.3633 126.1792,359.0903 125.8262,358.9813 C118.9522,356.8733 114.5102,351.8933 114.5102,346.2953 C114.5102,344.5113 114.9572,342.7763 115.8412,341.1373 C116.0512,340.7483 116.1592,340.3163 116.1722,339.8183 C116.2262,337.7473 116.3482,335.5393 116.8562,333.4283 L117.4642,330.8813 C117.4742,330.7543 117.5532,330.6853 117.5992,330.6553 C117.6442,330.6253 117.7392,330.5813 117.9452,330.6483 L120.4212,331.0713 C121.9982,331.3413 123.6832,331.8323 125.5732,332.5743 C126.3252,332.8703 127.3232,333.1843 128.3592,332.9913 C131.1472,332.4723 134.0632,332.4723 136.8492,332.9913 C137.8842,333.1813 138.8822,332.8693 139.6352,332.5743 C141.5252,331.8323 143.2102,331.3413 144.7882,331.0713 L147.3492,330.6253 C147.4702,330.5833 147.5632,330.6263 147.6092,330.6553 C147.6552,330.6853 147.7342,330.7543 147.7572,330.9583 L148.3522,333.4283 C148.8602,335.5353 148.9812,337.7453 149.0362,339.8183 C149.0492,340.3163 149.1582,340.7483 149.3682,341.1373 C150.2512,342.7763 150.6992,344.5113 150.6992,346.2953 C150.6992,351.8933 146.2572,356.8733 139.3832,358.9813 C139.0292,359.0903 138.7582,359.3633 138.6572,359.7123 C138.5542,360.0703 138.6412,360.4573 138.8902,360.7463 C139.4902,361.4433 139.8212,362.3313 139.8212,363.2453 L139.8222,374.7753 C139.8222,375.4953 140.1762,376.1703 140.7702,376.5813 C141.3562,376.9863 142.1012,377.0823 142.7642,376.8313 C154.7452,372.3303 162.7952,360.7023 162.7952,347.8983 C162.7952,339.3973 159.2382,331.1833 153.0362,325.3633" id="Fill-1" fill="#47D7EA"></path>
                <g id="Page-1-Copy-16" transform="translate(1255.000000, 59.000000)" fill="#47D7EA">
                    <path d="M3.8945,3.1875 L6.2285,0.8535 C6.4235,0.6585 6.4235,0.3415 6.2285,0.1465 C6.0335,-0.0485 5.7165,-0.0485 5.5215,0.1465 L3.1875,2.4805 L0.8535,0.1465 C0.6585,-0.0485 0.3415,-0.0485 0.1465,0.1465 C-0.0485,0.3415 -0.0485,0.6585 0.1465,0.8535 L2.4805,3.1875 L0.1465,5.5215 C-0.0485,5.7165 -0.0485,6.0335 0.1465,6.2285 C0.2445,6.3265 0.3725,6.3755 0.4995,6.3755 C0.6275,6.3755 0.7555,6.3265 0.8535,6.2285 L3.1875,3.8945 L5.5215,6.2285 C5.6195,6.3265 5.7475,6.3755 5.8745,6.3755 C6.0025,6.3755 6.1305,6.3265 6.2285,6.2285 C6.4235,6.0335 6.4235,5.7165 6.2285,5.5215 L3.8945,3.1875 Z" id="Fill-1"></path>
                </g>
                <g id="Page-1-Copy-21" transform="translate(101.000000, 138.000000)">
                    <mask id="mask-8" fill="white">
                        <use xlink:href="#path-7"></use>
                    </mask>
                    <g id="Clip-2"></g>
                    <path d="M3.8945,3.1875 L6.2285,0.8535 C6.4235,0.6585 6.4235,0.3415 6.2285,0.1465 C6.0335,-0.0485 5.7165,-0.0485 5.5215,0.1465 L3.1875,2.4805 L0.8535,0.1465 C0.6585,-0.0485 0.3415,-0.0485 0.1465,0.1465 C-0.0485,0.3415 -0.0485,0.6585 0.1465,0.8535 L2.4805,3.1875 L0.1465,5.5215 C-0.0485,5.7165 -0.0485,6.0335 0.1465,6.2285 C0.2445,6.3265 0.3725,6.3755 0.4995,6.3755 C0.6275,6.3755 0.7555,6.3265 0.8535,6.2285 L3.1875,3.8945 L5.5215,6.2285 C5.6195,6.3265 5.7475,6.3755 5.8745,6.3755 C6.0025,6.3755 6.1305,6.3265 6.2285,6.2285 C6.4235,6.0335 6.4235,5.7165 6.2285,5.5215 L3.8945,3.1875 Z" id="Fill-1" fill="#47D7EA" mask="url(#mask-8)"></path>
                </g>
                <g id="Page-1-Copy-17" transform="translate(896.000000, 35.000000)">
                    <mask id="mask-10" fill="white">
                        <use xlink:href="#path-9"></use>
                    </mask>
                    <g id="Clip-2"></g>
                    <path d="M3.8945,3.1875 L6.2285,0.8535 C6.4235,0.6585 6.4235,0.3415 6.2285,0.1465 C6.0335,-0.0485 5.7165,-0.0485 5.5215,0.1465 L3.1875,2.4805 L0.8535,0.1465 C0.6585,-0.0485 0.3415,-0.0485 0.1465,0.1465 C-0.0485,0.3415 -0.0485,0.6585 0.1465,0.8535 L2.4805,3.1875 L0.1465,5.5215 C-0.0485,5.7165 -0.0485,6.0335 0.1465,6.2285 C0.2445,6.3265 0.3725,6.3755 0.4995,6.3755 C0.6275,6.3755 0.7555,6.3265 0.8535,6.2285 L3.1875,3.8945 L5.5215,6.2285 C5.6195,6.3265 5.7475,6.3755 5.8745,6.3755 C6.0025,6.3755 6.1305,6.3265 6.2285,6.2285 C6.4235,6.0335 6.4235,5.7165 6.2285,5.5215 L3.8945,3.1875 Z" id="Fill-1" fill="#47D7EA" mask="url(#mask-10)"></path>
                </g>
                <g id="Page-1-Copy-18" transform="translate(57.000000, 43.000000)">
                    <mask id="mask-12" fill="white">
                        <use xlink:href="#path-11"></use>
                    </mask>
                    <g id="Clip-2"></g>
                    <path d="M3.8945,3.1875 L6.2285,0.8535 C6.4235,0.6585 6.4235,0.3415 6.2285,0.1465 C6.0335,-0.0485 5.7165,-0.0485 5.5215,0.1465 L3.1875,2.4805 L0.8535,0.1465 C0.6585,-0.0485 0.3415,-0.0485 0.1465,0.1465 C-0.0485,0.3415 -0.0485,0.6585 0.1465,0.8535 L2.4805,3.1875 L0.1465,5.5215 C-0.0485,5.7165 -0.0485,6.0335 0.1465,6.2285 C0.2445,6.3265 0.3725,6.3755 0.4995,6.3755 C0.6275,6.3755 0.7555,6.3265 0.8535,6.2285 L3.1875,3.8945 L5.5215,6.2285 C5.6195,6.3265 5.7475,6.3755 5.8745,6.3755 C6.0025,6.3755 6.1305,6.3265 6.2285,6.2285 C6.4235,6.0335 6.4235,5.7165 6.2285,5.5215 L3.8945,3.1875 Z" id="Fill-1" fill="#47D7EA" mask="url(#mask-12)"></path>
                </g>
                <g id="Page-1-Copy-19" transform="translate(1196.000000, 162.000000)" fill="#47D7EA">
                    <path d="M3.8945,3.1875 L6.2285,0.8535 C6.4235,0.6585 6.4235,0.3415 6.2285,0.1465 C6.0335,-0.0485 5.7165,-0.0485 5.5215,0.1465 L3.1875,2.4805 L0.8535,0.1465 C0.6585,-0.0485 0.3415,-0.0485 0.1465,0.1465 C-0.0485,0.3415 -0.0485,0.6585 0.1465,0.8535 L2.4805,3.1875 L0.1465,5.5215 C-0.0485,5.7165 -0.0485,6.0335 0.1465,6.2285 C0.2445,6.3265 0.3725,6.3755 0.4995,6.3755 C0.6275,6.3755 0.7555,6.3265 0.8535,6.2285 L3.1875,3.8945 L5.5215,6.2285 C5.6195,6.3265 5.7475,6.3755 5.8745,6.3755 C6.0025,6.3755 6.1305,6.3265 6.2285,6.2285 C6.4235,6.0335 6.4235,5.7165 6.2285,5.5215 L3.8945,3.1875 Z" id="Fill-1"></path>
                </g>
                <g id="Page-1-Copy-20" transform="translate(1242.000000, 226.000000)" fill="#47D7EA">
                    <path d="M3.8945,3.1875 L6.2285,0.8535 C6.4235,0.6585 6.4235,0.3415 6.2285,0.1465 C6.0335,-0.0485 5.7165,-0.0485 5.5215,0.1465 L3.1875,2.4805 L0.8535,0.1465 C0.6585,-0.0485 0.3415,-0.0485 0.1465,0.1465 C-0.0485,0.3415 -0.0485,0.6585 0.1465,0.8535 L2.4805,3.1875 L0.1465,5.5215 C-0.0485,5.7165 -0.0485,6.0335 0.1465,6.2285 C0.2445,6.3265 0.3725,6.3755 0.4995,6.3755 C0.6275,6.3755 0.7555,6.3265 0.8535,6.2285 L3.1875,3.8945 L5.5215,6.2285 C5.6195,6.3265 5.7475,6.3755 5.8745,6.3755 C6.0025,6.3755 6.1305,6.3265 6.2285,6.2285 C6.4235,6.0335 6.4235,5.7165 6.2285,5.5215 L3.8945,3.1875 Z" id="Fill-1"></path>
                </g>
                <g id="Page-1" transform="translate(1144.000000, 277.000000)">
                    <mask id="mask-14" fill="white">
                        <use xlink:href="#path-13"></use>
                    </mask>
                    <g id="Clip-2"></g>
                    <path d="M3.4277,5.85645 C2.0887,5.85645 0.9997,4.76645 0.9997,3.42745 C0.9997,2.08845 2.0887,1.00045 3.4277,1.00045 C4.7667,1.00045 5.8557,2.08845 5.8557,3.42745 C5.8557,4.76645 4.7667,5.85645 3.4277,5.85645 M3.4277,0.00045 C1.5377,0.00045 -0.0003,1.53845 -0.0003,3.42745 C-0.0003,5.31845 1.5377,6.85645 3.4277,6.85645 C5.3177,6.85645 6.8557,5.31845 6.8557,3.42745 C6.8557,1.53845 5.3177,0.00045 3.4277,0.00045" id="Fill-1" fill="#47D7EA" mask="url(#mask-14)"></path>
                </g>
                <g id="Page-1-Copy" transform="translate(1134.000000, 157.000000)" fill="#47D7EA">
                    <path d="M3.4277,5.85645 C2.0887,5.85645 0.9997,4.76645 0.9997,3.42745 C0.9997,2.08845 2.0887,1.00045 3.4277,1.00045 C4.7667,1.00045 5.8557,2.08845 5.8557,3.42745 C5.8557,4.76645 4.7667,5.85645 3.4277,5.85645 M3.4277,0.00045 C1.5377,0.00045 -0.0003,1.53845 -0.0003,3.42745 C-0.0003,5.31845 1.5377,6.85645 3.4277,6.85645 C5.3177,6.85645 6.8557,5.31845 6.8557,3.42745 C6.8557,1.53845 5.3177,0.00045 3.4277,0.00045" id="Fill-1"></path>
                </g>
                <g id="Page-1-Copy-4" transform="translate(164.000000, 167.000000)">
                    <mask id="mask-16" fill="white">
                        <use xlink:href="#path-15"></use>
                    </mask>
                    <g id="Clip-2"></g>
                    <path d="M3.4277,5.85645 C2.0887,5.85645 0.9997,4.76645 0.9997,3.42745 C0.9997,2.08845 2.0887,1.00045 3.4277,1.00045 C4.7667,1.00045 5.8557,2.08845 5.8557,3.42745 C5.8557,4.76645 4.7667,5.85645 3.4277,5.85645 M3.4277,0.00045 C1.5377,0.00045 -0.0003,1.53845 -0.0003,3.42745 C-0.0003,5.31845 1.5377,6.85645 3.4277,6.85645 C5.3177,6.85645 6.8557,5.31845 6.8557,3.42745 C6.8557,1.53845 5.3177,0.00045 3.4277,0.00045" id="Fill-1" fill="#47D7EA" mask="url(#mask-16)"></path>
                </g>
                <g id="Page-1-Copy-5" transform="translate(34.000000, 337.000000)">
                    <mask id="mask-18" fill="white">
                        <use xlink:href="#path-17"></use>
                    </mask>
                    <g id="Clip-2"></g>
                    <path d="M3.4277,45.85645 C2.0887,45.85645 0.9997,44.76645 0.9997,43.42745 C0.9997,42.08845 2.0887,41.00045 3.4277,41.00045 C4.7667,41.00045 5.8557,42.08845 5.8557,43.42745 C5.8557,44.76645 4.7667,45.85645 3.4277,45.85645 M3.4277,40.00045 C1.5377,40.00045 -0.0003,41.53845 -0.0003,43.42745 C-0.0003,45.31845 1.5377,46.85645 3.4277,46.85645 C5.3177,46.85645 6.8557,45.31845 6.8557,43.42745 C6.8557,41.53845 5.3177,40.00045 3.4277,40.00045" id="Fill-1" fill="#47D7EA" mask="url(#mask-18)"></path>
                </g>
                <path d="M212.52275,45.634 C206.55875,45.634 201.70575,40.781 201.70575,34.817 C201.70575,28.852 206.55875,24 212.52275,24 C218.48675,24 223.33975,28.852 223.33975,34.817 C223.33975,40.781 218.48675,45.634 212.52275,45.634 M202.15575,48.542 L195.50475,55.194 C195.31475,55.384 194.98675,55.384 194.79775,55.194 L192.14575,52.542 C191.95075,52.347 191.95075,52.03 192.14575,51.835 L198.79775,45.184 C198.89175,45.089 199.01675,45.037 199.15075,45.037 C199.28375,45.037 199.40975,45.089 199.50375,45.184 L202.15575,47.835 C202.35075,48.03 202.35075,48.347 202.15575,48.542 M212.52275,23 C206.00675,23 200.70575,28.301 200.70575,34.817 C200.70575,37.895 201.89875,40.694 203.83475,42.799 L201.18375,45.449 L200.21075,44.477 C199.64475,43.909 198.65575,43.911 198.08975,44.477 L191.43875,51.128 C190.85375,51.713 190.85375,52.664 191.43875,53.249 L194.08975,55.901 C194.37375,56.184 194.75075,56.34 195.15075,56.34 C195.55175,56.34 195.92875,56.184 196.21175,55.901 L202.86275,49.249 C203.44775,48.664 203.44775,47.713 202.86275,47.128 L201.89075,46.156 L204.54175,43.506 C206.64675,45.442 209.44475,46.634 212.52275,46.634 C219.03875,46.634 224.33975,41.333 224.33975,34.817 C224.33975,28.301 219.03875,23 212.52275,23" id="Fill-1" fill="#3DD7EC"></path>
                <path d="M92.52275,465.634 C86.55875,465.634 81.70575,460.781 81.70575,454.817 C81.70575,448.852 86.55875,444 92.52275,444 C98.48675,444 103.33975,448.852 103.33975,454.817 C103.33975,460.781 98.48675,465.634 92.52275,465.634 M82.15575,468.542 L75.50475,475.194 C75.31475,475.384 74.98675,475.384 74.79775,475.194 L72.14575,472.542 C71.95075,472.347 71.95075,472.03 72.14575,471.835 L78.79775,465.184 C78.89175,465.089 79.01675,465.037 79.15075,465.037 C79.28375,465.037 79.40975,465.089 79.50375,465.184 L82.15575,467.835 C82.35075,468.03 82.35075,468.347 82.15575,468.542 M92.52275,443 C86.00675,443 80.70575,448.301 80.70575,454.817 C80.70575,457.895 81.89875,460.694 83.83475,462.799 L81.18375,465.449 L80.21075,464.477 C79.64475,463.909 78.65575,463.911 78.08975,464.477 L71.43875,471.128 C70.85375,471.713 70.85375,472.664 71.43875,473.249 L74.08975,475.901 C74.37375,476.184 74.75075,476.34 75.15075,476.34 C75.55175,476.34 75.92875,476.184 76.21175,475.901 L82.86275,469.249 C83.44775,468.664 83.44775,467.713 82.86275,467.128 L81.89075,466.156 L84.54175,463.506 C86.64675,465.442 89.44475,466.634 92.52275,466.634 C99.03875,466.634 104.33975,461.333 104.33975,454.817 C104.33975,448.301 99.03875,443 92.52275,443" id="Fill-1-Copy" fill="#3DD7EC" transform="translate(87.669875, 459.670000) rotate(-90.000000) translate(-87.669875, -459.670000) "></path>
                <path d="M1232.52275,495.634 C1226.55875,495.634 1221.70575,490.781 1221.70575,484.817 C1221.70575,478.852 1226.55875,474 1232.52275,474 C1238.48675,474 1243.33975,478.852 1243.33975,484.817 C1243.33975,490.781 1238.48675,495.634 1232.52275,495.634 M1222.15575,498.542 L1215.50475,505.194 C1215.31475,505.384 1214.98675,505.384 1214.79775,505.194 L1212.14575,502.542 C1211.95075,502.347 1211.95075,502.03 1212.14575,501.835 L1218.79775,495.184 C1218.89175,495.089 1219.01675,495.037 1219.15075,495.037 C1219.28375,495.037 1219.40975,495.089 1219.50375,495.184 L1222.15575,497.835 C1222.35075,498.03 1222.35075,498.347 1222.15575,498.542 M1232.52275,473 C1226.00675,473 1220.70575,478.301 1220.70575,484.817 C1220.70575,487.895 1221.89875,490.694 1223.83475,492.799 L1221.18375,495.449 L1220.21075,494.477 C1219.64475,493.909 1218.65575,493.911 1218.08975,494.477 L1211.43875,501.128 C1210.85375,501.713 1210.85375,502.664 1211.43875,503.249 L1214.08975,505.901 C1214.37375,506.184 1214.75075,506.34 1215.15075,506.34 C1215.55175,506.34 1215.92875,506.184 1216.21175,505.901 L1222.86275,499.249 C1223.44775,498.664 1223.44775,497.713 1222.86275,497.128 L1221.89075,496.156 L1224.54175,493.506 C1226.64675,495.442 1229.44475,496.634 1232.52275,496.634 C1239.03875,496.634 1244.33975,491.333 1244.33975,484.817 C1244.33975,478.301 1239.03875,473 1232.52275,473" id="Fill-1-Copy-2" fill="#3DD7EC" transform="translate(1227.669875, 489.670000) rotate(-90.000000) translate(-1227.669875, -489.670000) "></path>
            </g>
        </g>
    </g>
</svg>