<?xml version="1.0" encoding="utf-8"?>
<!-- Generator: Adobe Illustrator 22.1.0, SVG Export Plug-In . SVG Version: 6.00 Build 0)  -->
<svg version="1.1" id="Layer_1" xmlns="http://www.w3.org/2000/svg" xmlns:xlink="http://www.w3.org/1999/xlink" x="0px" y="0px"
	 viewBox="0 0 114.7 22" enable-background="new 0 0 114.7 22" xml:space="preserve">
<g transform="translate(0 .535)">
	<defs>
		<filter id="Adobe_OpacityMaskFilter" filterUnits="userSpaceOnUse" x="0" y="-0.5" width="33.7" height="21.5">
			<feColorMatrix  type="matrix" values="1 0 0 0 0  0 1 0 0 0  0 0 1 0 0  0 0 0 1 0"/>
		</filter>
	</defs>
	<mask maskUnits="userSpaceOnUse" x="0" y="-0.5" width="33.7" height="21.5" id="logo---text---white-d_1_">
		<g filter="url(#Adobe_OpacityMaskFilter)">
			<polygon id="logo---text---white-c_1_" fill="#FFFFFF" points="0,10.2 0,-0.5 33.7,-0.5 33.7,21 0,21 			"/>
		</g>
	</mask>
	<path mask="url(#logo---text---white-d_1_)" fill="#FFFFFF" d="M29.7,8.6c-0.2-2.8-2.6-5.1-5.5-5.1c-0.6,0-1.1,0.1-1.7,0.3
		c-0.2,0.1-0.4,0.2-0.6,0.2c-1.4-2.7-4.2-4.5-7.5-4.5c-4.3,0-7.8,3.2-8.4,7.4C2.6,7.3,0,10.3,0,13.9C0,17.8,3.2,21,7.1,21h3.7v-2.3
		H7.1c-2.7,0-4.8-2.2-4.8-4.8S4.5,9,7.1,9h1.2V7.9c0-3.4,2.7-6.1,6.1-6.1c3.4,0,6.1,2.7,6.1,6.1v5h-1.8l2.9,3.4l2.9-3.4h-1.8v-5
		c0-0.6-0.1-1.2-0.2-1.7C22.8,6.1,23,6,23.2,6c0.3-0.1,0.6-0.1,1-0.1c1.8,0,3.2,1.5,3.2,3.2c0,0.1,0,0.2,0,0.3l-0.1,1l1,0.2
		c1.9,0.4,3.2,2.1,3.2,4c0,2.3-1.9,4.1-4.1,4.1h-8.6c-2.3,0-4.1-1.9-4.1-4.1v-3.6h1.8l-2.9-3.4l-2.9,3.4h1.8v3.6
		c0,3.6,2.9,6.4,6.4,6.4h8.6c3.6,0,6.4-2.9,6.4-6.4C33.7,11.9,32.1,9.5,29.7,8.6"/>
</g>
<g>
	<path fill="#FFFFFF" d="M51.4,6.7v2.3h-1.3L50,8h-1.6v6l0.9,0.2v1h-3.5v-1l0.9-0.2V8h-1.6l-0.1,1h-1.3V6.7H51.4z"/>
	<path fill="#FFFFFF" d="M58,11.5h-2.9v2.4h2.8l0.1-1h1.3v2.3h-6.8v-1l0.9-0.2V7.9l-0.9-0.2v-1h0.9h5.8V9h-1.3l-0.1-1h-2.7v2.1H58
		V11.5z"/>
	<path fill="#FFFFFF" d="M64.5,6.7c1,0,1.7,0.2,2.3,0.7s0.8,1.1,0.8,1.8c0,0.4-0.1,0.8-0.3,1.1s-0.6,0.6-1,0.8
		c0.5,0.1,0.9,0.4,1.1,0.7s0.3,0.8,0.3,1.3v0.4c0,0.2,0,0.3,0.1,0.4s0.2,0.2,0.4,0.2l0.2,0v1h-0.9c-0.6,0-1-0.2-1.2-0.5
		S66,14.1,66,13.6v-0.5c0-0.4-0.1-0.7-0.3-1s-0.5-0.4-0.9-0.4h-1.4V14l0.9,0.2v1h-3.5v-1l0.9-0.2V7.9l-0.9-0.2v-1h0.9H64.5z
		 M63.3,10.4h1.2c0.5,0,0.8-0.1,1.1-0.3s0.4-0.5,0.4-0.9s-0.1-0.7-0.4-0.9S65,8,64.5,8h-1.2V10.4z"/>
	<path fill="#FFFFFF" d="M73.3,6.7c1,0,1.7,0.2,2.3,0.7s0.8,1.1,0.8,1.8c0,0.4-0.1,0.8-0.3,1.1s-0.6,0.6-1,0.8
		c0.5,0.1,0.9,0.4,1.1,0.7s0.3,0.8,0.3,1.3v0.4c0,0.2,0,0.3,0.1,0.4s0.2,0.2,0.4,0.2l0.2,0v1h-0.9c-0.6,0-1-0.2-1.2-0.5
		s-0.3-0.7-0.3-1.2v-0.5c0-0.4-0.1-0.7-0.3-1s-0.5-0.4-0.9-0.4h-1.4V14l0.9,0.2v1h-3.5v-1l0.9-0.2V7.9l-0.9-0.2v-1h0.9H73.3z
		 M72.1,10.4h1.2c0.5,0,0.8-0.1,1.1-0.3s0.4-0.5,0.4-0.9s-0.1-0.7-0.4-0.9S73.8,8,73.3,8h-1.2V10.4z"/>
	<path fill="#FFFFFF" d="M78.2,14.2l0.6-0.1l2.6-7.4h1.8l2.6,7.4l0.6,0.1v1h-2.9v-1l0.6-0.1l-0.4-1.2h-2.8l-0.4,1.2l0.6,0.1v1h-2.9
		V14.2z M81.3,11.6h2l-1-3h0L81.3,11.6z"/>
	<path fill="#00FFCF" d="M87.4,7.7v-1h3.5v1L90,7.9v2.5h3.5V7.9l-0.9-0.2v-1h0.9h1.7h0.9v1l-0.9,0.2V14l0.9,0.2v1h-3.5v-1l0.9-0.2
		v-2.3H90V14l0.9,0.2v1h-3.5v-1l0.9-0.2V7.9L87.4,7.7z"/>
	<path fill="#00FFCF" d="M100.7,6.7v1l-0.9,0.2v4.5c0,0.6,0.2,1,0.5,1.3s0.7,0.4,1.2,0.4c0.5,0,1-0.1,1.3-0.4s0.5-0.7,0.5-1.3V7.9
		l-0.9-0.2v-1h3.5v1l-0.9,0.2v4.5c0,1-0.3,1.7-0.9,2.2s-1.5,0.8-2.5,0.8c-1,0-1.8-0.3-2.5-0.8s-0.9-1.3-0.9-2.2V7.9l-0.9-0.2v-1h0.9
		h1.7H100.7z"/>
	<path fill="#00FFCF" d="M110.7,6.7c1,0,1.8,0.2,2.3,0.6s0.8,1,0.8,1.8c0,0.4-0.1,0.7-0.3,1.1s-0.5,0.5-0.9,0.7
		c0.5,0.1,0.9,0.3,1.2,0.7s0.4,0.8,0.4,1.2c0,0.8-0.3,1.4-0.8,1.9s-1.3,0.6-2.3,0.6h-4.2v-1l0.9-0.2V7.9l-0.9-0.2v-1h0.9H110.7z
		 M109.5,10.2h1.2c0.5,0,0.8-0.1,1.1-0.3s0.4-0.5,0.4-0.8c0-0.4-0.1-0.7-0.4-0.9S111.2,8,110.7,8h-1.2V10.2z M109.5,11.4v2.5h1.6
		c0.5,0,0.8-0.1,1-0.3s0.4-0.5,0.4-0.9c0-0.4-0.1-0.7-0.3-1s-0.5-0.3-1-0.3H109.5z"/>
</g>
</svg>
