<?xml version="1.0" encoding="utf-8"?>
<!-- Generator: Adobe Illustrator 22.1.0, SVG Export Plug-In . SVG Version: 6.00 Build 0)  -->
<svg version="1.1" baseProfile="tiny" id="Layer_1" xmlns="http://www.w3.org/2000/svg" xmlns:xlink="http://www.w3.org/1999/xlink"
	 x="0px" y="0px" viewBox="0 0 116.4 22" xml:space="preserve">
<path fill="#4065E0" d="M29.7,9.1C29.4,6.3,27,4,24.1,4c-0.6,0-1.1,0.1-1.7,0.3c-0.2,0.1-0.4,0.2-0.6,0.2C20.5,1.8,17.6,0,14.4,0
	c-4.3,0-7.8,3.2-8.4,7.4C2.6,7.9,0,10.8,0,14.4c0,3.9,3.2,7.1,7.1,7.1h3.7v-2.3H7.1c-2.7,0-4.8-2.2-4.8-4.8s2.2-4.8,4.8-4.8h1.2V8.4
	c0-3.4,2.7-6.1,6.1-6.1c3.4,0,6.1,2.7,6.1,6.1v5h-1.8l2.9,3.4l2.9-3.4h-1.8v-5c0-0.6-0.1-1.2-0.2-1.7c0.2-0.1,0.3-0.2,0.5-0.2
	c0.3-0.1,0.6-0.1,1-0.1c1.8,0,3.2,1.5,3.2,3.2c0,0.1,0,0.2,0,0.3l-0.1,1l1,0.2c1.9,0.4,3.2,2.1,3.2,4c0,2.3-1.9,4.1-4.1,4.1h-8.6
	c-2.3,0-4.1-1.9-4.1-4.1v-3.6h1.8l-2.9-3.4l-2.9,3.4h1.8v3.6c0,3.6,2.9,6.4,6.4,6.4h8.6c3.6,0,6.4-2.9,6.4-6.4
	C33.7,12.4,32.1,10.1,29.7,9.1"/>
<g>
	<path fill="#4065E0" d="M53.5,6.5v2.3h-1.3l-0.1-1h-1.6v6l0.9,0.2v1h-3.5v-1l0.9-0.2v-6h-1.6l-0.1,1h-1.3V6.5H53.5z"/>
	<path fill="#4065E0" d="M60.1,11.3h-2.9v2.4h2.8l0.1-1h1.3v2.3h-6.8v-1l0.9-0.2V7.8l-0.9-0.2v-1h0.9h5.8v2.3H60l-0.1-1h-2.7V10h2.9
		V11.3z"/>
	<path fill="#4065E0" d="M66.6,6.5c1,0,1.7,0.2,2.3,0.7s0.8,1.1,0.8,1.8c0,0.4-0.1,0.8-0.3,1.1s-0.6,0.6-1,0.8
		c0.5,0.1,0.9,0.4,1.1,0.7s0.3,0.8,0.3,1.3v0.4c0,0.2,0,0.3,0.1,0.4s0.2,0.2,0.4,0.2l0.2,0v1h-0.9c-0.6,0-1-0.2-1.2-0.5
		s-0.3-0.7-0.3-1.2V13c0-0.4-0.1-0.7-0.3-1s-0.5-0.4-0.9-0.4h-1.4v2.2l0.9,0.2v1h-3.5v-1l0.9-0.2V7.8l-0.9-0.2v-1h0.9H66.6z
		 M65.4,10.3h1.2c0.5,0,0.8-0.1,1.1-0.3S68,9.5,68,9.1s-0.1-0.7-0.4-0.9s-0.6-0.3-1-0.3h-1.2V10.3z"/>
	<path fill="#4065E0" d="M75.4,6.5c1,0,1.7,0.2,2.3,0.7s0.8,1.1,0.8,1.8c0,0.4-0.1,0.8-0.3,1.1s-0.6,0.6-1,0.8
		c0.5,0.1,0.9,0.4,1.1,0.7s0.3,0.8,0.3,1.3v0.4c0,0.2,0,0.3,0.1,0.4S78.9,14,79,14l0.2,0v1h-0.9c-0.6,0-1-0.2-1.2-0.5
		s-0.3-0.7-0.3-1.2V13c0-0.4-0.1-0.7-0.3-1s-0.5-0.4-0.9-0.4h-1.4v2.2l0.9,0.2v1h-3.5v-1l0.9-0.2V7.8l-0.9-0.2v-1h0.9H75.4z
		 M74.2,10.3h1.2c0.5,0,0.8-0.1,1.1-0.3s0.4-0.5,0.4-0.9s-0.1-0.7-0.4-0.9s-0.6-0.3-1-0.3h-1.2V10.3z"/>
	<path fill="#4065E0" d="M80.2,14l0.6-0.1l2.6-7.4h1.8l2.6,7.4l0.6,0.1v1h-2.9v-1l0.6-0.1l-0.4-1.2h-2.8l-0.4,1.2l0.6,0.1v1h-2.9V14
		z M83.3,11.5h2l-1-3h0L83.3,11.5z"/>
	<path fill="#6FCAFA" d="M89.5,7.6v-1H93v1l-0.9,0.2v2.5h3.5V7.8l-0.9-0.2v-1h0.9h1.7h0.9v1l-0.9,0.2v6.1l0.9,0.2v1h-3.5v-1l0.9-0.2
		v-2.3h-3.5v2.3L93,14v1h-3.5v-1l0.9-0.2V7.8L89.5,7.6z"/>
	<path fill="#6FCAFA" d="M102.8,6.5v1l-0.9,0.2v4.5c0,0.6,0.2,1,0.5,1.3s0.7,0.4,1.2,0.4c0.5,0,1-0.1,1.3-0.4s0.5-0.7,0.5-1.3V7.8
		l-0.9-0.2v-1h3.5v1L107,7.8v4.5c0,1-0.3,1.7-0.9,2.2s-1.5,0.8-2.5,0.8c-1,0-1.8-0.3-2.5-0.8s-0.9-1.3-0.9-2.2V7.8l-0.9-0.2v-1h0.9
		h1.7H102.8z"/>
	<path fill="#6FCAFA" d="M112.8,6.5c1,0,1.8,0.2,2.3,0.6s0.8,1,0.8,1.8c0,0.4-0.1,0.7-0.3,1.1s-0.5,0.5-0.9,0.7
		c0.5,0.1,0.9,0.3,1.2,0.7s0.4,0.8,0.4,1.2c0,0.8-0.3,1.4-0.8,1.9s-1.3,0.6-2.3,0.6H109v-1l0.9-0.2V7.8L109,7.6v-1h0.9H112.8z
		 M111.6,10.1h1.2c0.5,0,0.8-0.1,1.1-0.3s0.4-0.5,0.4-0.8c0-0.4-0.1-0.7-0.4-0.9s-0.6-0.3-1.1-0.3h-1.2V10.1z M111.6,11.3v2.5h1.6
		c0.5,0,0.8-0.1,1-0.3s0.4-0.5,0.4-0.9c0-0.4-0.1-0.7-0.3-1s-0.5-0.3-1-0.3H111.6z"/>
</g>
<line fill="none" x1="116.3" y1="0" x2="116.3" y2="22"/>
</svg>
