<svg xmlns="http://www.w3.org/2000/svg" width="34" height="22" viewBox="0 0 34 22">
  <path fill="#FFF" fill-rule="evenodd" d="M29.659,9.113 C29.423,6.276 27.039,4.04 24.141,4.04 C23.576,4.04 23.018,4.125 22.482,4.293 C22.271,4.359 22.067,4.447 21.866,4.538 C20.46,1.845 17.644,0 14.402,0 C10.122,0 6.577,3.212 6.051,7.351 C2.629,7.875 0,10.838 0,14.402 C0,18.336 3.2,21.535 7.133,21.535 L10.818,21.535 L10.818,19.235 L7.133,19.235 C4.468,19.235 2.3,17.067 2.3,14.402 C2.3,11.737 4.468,9.569 7.133,9.569 L8.283,9.569 L8.283,8.42 C8.283,5.045 11.028,2.3 14.402,2.3 C17.777,2.3 20.522,5.045 20.522,8.42 L20.522,13.461 L18.752,13.461 L21.672,16.846 L24.592,13.461 L22.822,13.461 L22.822,8.42 C22.822,7.835 22.762,7.263 22.647,6.712 C22.816,6.623 22.99,6.545 23.172,6.487 C23.484,6.389 23.81,6.34 24.141,6.34 C25.927,6.34 27.379,7.792 27.379,9.576 C27.379,9.671 27.373,9.763 27.365,9.856 L27.28,10.843 L28.244,11.073 C30.114,11.519 31.421,13.174 31.421,15.095 C31.421,17.378 29.563,19.235 27.281,19.235 L18.721,19.235 C16.438,19.235 14.582,17.379 14.582,15.096 L14.582,11.461 L16.352,11.461 L13.432,8.075 L10.512,11.461 L12.282,11.461 L12.282,15.096 C12.282,18.647 15.171,21.535 18.721,21.535 L27.281,21.535 C30.832,21.535 33.721,18.646 33.721,15.095 C33.721,12.417 32.091,10.072 29.659,9.113"/>
</svg>
